<?xml version="1.0" standalone="no"?>
<!DOCTYPE svg PUBLIC "-//W3C//DTD SVG 1.1//EN" "http://www.w3.org/Graphics/SVG/1.1/DTD/svg11.dtd" >
<svg xmlns="http://www.w3.org/2000/svg">
<metadata></metadata>
<defs>
<font id="millerdisplayitalic" horiz-adv-x="1300" >
<font-face units-per-em="2048" ascent="1556" descent="-492" />
<missing-glyph horiz-adv-x="466" />
<glyph unicode="&#xfb01;" horiz-adv-x="1185" d="M-457 -322q0 42 29.5 75.5t77.5 33.5q41 0 76.5 -24t35.5 -76q0 -35 -43 -95q3 -18 14 -27t23 -9q111 0 187 102t147 334q45 148 84.5 296t86 337t54.5 219h-217l21 67h217l24 82q79 261 269 416q139 113 317 113q108 0 163.5 -54.5t55.5 -124.5q0 -35 -29.5 -74.5 t-82.5 -39.5q-42 0 -80.5 25t-38.5 75q0 14 20 55.5t23 63.5q-14 33 -57 33q-114 0 -208 -103t-157 -323l-41 -142h557q-3 -44 -31.5 -145t-68.5 -205l-115 -301q-47 -117 -47 -160q0 -24 6.5 -39.5t18.5 -22t23.5 -9t27.5 -2.5q70 0 121 65t106 205l37 -12 q-31 -76 -57.5 -126.5t-61.5 -95.5t-77.5 -66.5t-94.5 -21.5q-36 0 -71 8t-69 25t-54.5 50t-20.5 77q0 61 41 170l129 348q45 123 51 195h-368q-18 -69 -64.5 -252t-82 -316t-66.5 -233q-88 -283 -248 -414q-77 -66 -143 -92t-144 -26q-111 0 -158 45.5t-47 115.5z" />
<glyph unicode="&#xfb02;" horiz-adv-x="1220" d="M-457 -322q0 42 29.5 75.5t77.5 33.5q40 0 75 -24.5t35 -75.5q0 -38 -41 -95q0 -18 12 -27t25 -9q111 0 187 102t147 334q45 148 84.5 296t86 337t54.5 219h-217l21 67h217l24 82q41 138 99.5 235t156.5 181q134 113 308 113q50 0 95 -16.5t71 -41.5l204 47l-401 -1253 q-39 -119 -39 -156q0 -45 19.5 -59t54.5 -14q70 0 122.5 65.5t106.5 204.5l37 -12q-63 -156 -128 -233t-165 -77q-36 0 -70.5 7.5t-67.5 24t-53 49.5t-20 77q0 59 37 172l320 1010q-35 8 -47 31.5t-11 91.5q-8 19 -38 30t-54 11q-105 0 -192.5 -106t-149.5 -320l-41 -144 h258l-22 -67h-254q-14 -54 -63.5 -247t-83.5 -320.5t-66 -227.5q-88 -283 -248 -414q-77 -66 -143 -92t-144 -26q-111 0 -158 45.5t-47 115.5z" />
<glyph horiz-adv-x="0" />
<glyph horiz-adv-x="682" />
<glyph unicode="&#xd;" horiz-adv-x="0" />
<glyph unicode=" "  horiz-adv-x="466" />
<glyph unicode="&#x09;" horiz-adv-x="466" />
<glyph unicode="&#xa0;" horiz-adv-x="466" />
<glyph unicode="!" horiz-adv-x="747" d="M147 106q0 54 36.5 90.5t90.5 36.5t90.5 -36.5t36.5 -90.5t-36.5 -89t-90.5 -35t-90.5 35t-36.5 89zM326 438q32 166 59.5 362t44 325t25.5 163q16 62 55 100.5t94 38.5q49 0 77 -30.5t28 -83.5q0 -37 -41.5 -143t-130.5 -323t-162 -419z" />
<glyph unicode="&#x22;" horiz-adv-x="802" d="M258 967q10 161 10 399q0 143 109 143q51 0 80.5 -30t29.5 -76q0 -24 -19 -68.5t-72 -155.5t-97 -212h-41zM657 967q11 177 11 399q0 143 108 143q51 0 81 -30t30 -76q0 -24 -19.5 -69t-72.5 -155t-97 -212h-41z" />
<glyph unicode="#" horiz-adv-x="1146" d="M119 256l47 193l242 57l51 207l-242 -58l49 193l242 57l94 379h49l-92 -366l256 59l76 307h49l-74 -295l244 58l-47 -193l-244 -57l-51 -207l242 57l-47 -192l-244 -58l-103 -411h-49l101 399l-256 -59l-84 -340h-49l81 327zM461 518l254 60l51 206l-254 -59z" />
<glyph unicode="$" horiz-adv-x="1259" d="M113 279q0 75 45 132.5t110 57.5q43 0 67.5 -23.5t24.5 -64.5q0 -38 -15 -60.5t-44.5 -42.5t-42.5 -36q-18 -64 23.5 -112t138.5 -69l125 506q-120 27 -188 105t-68 182q0 153 117 266t311 133l51 207h45l-51 -203h24q57 0 125 -10l54 213h45l-56 -223q110 -28 177 -83.5 t67 -131.5q0 -69 -36.5 -122.5t-90.5 -53.5q-40 0 -66 20.5t-26 55.5q0 31 13 54.5t29 36t37 31t32 37.5q-2 34 -41 64t-107 47l-121 -483q136 -36 203.5 -103t67.5 -170q0 -180 -124.5 -296t-320.5 -138l-74 -293h-45l72 289h-31q-69 0 -118 8l-74 -297h-45l76 305 q-134 29 -214.5 101.5t-80.5 163.5zM461 948q0 -64 34 -114.5t99 -71.5l111 444q-119 -17 -181.5 -84t-62.5 -174zM463 55q44 -8 112 -8h37l119 481q-29 7 -78.5 17.5t-64.5 13.5zM637 752q28 -6 72 -16.5t71 -16.5l119 481q-62 10 -129 10h-18zM659 53q125 20 195 91.5 t70 179.5q0 152 -150 196z" />
<glyph unicode="%" horiz-adv-x="1679" d="M154 -164l1359 1577l56 -37l-1364 -1577zM162 866q0 102 57.5 195.5t151.5 150t196 56.5q120 0 198.5 -70.5t78.5 -185.5q0 -83 -37.5 -159t-96.5 -127.5t-132 -81.5t-144 -30q-115 0 -193.5 69.5t-78.5 182.5zM317 823q0 -157 123 -157q95 0 171.5 117.5t76.5 273.5 q0 162 -121 162q-66 0 -125 -62.5t-92 -153.5t-33 -180zM895 225q0 102 57.5 195.5t151.5 150t196 56.5q120 0 198.5 -70.5t78.5 -185.5q0 -83 -37.5 -159t-96.5 -127.5t-132 -81.5t-144 -30q-115 0 -193.5 69.5t-78.5 182.5zM1051 182q0 -157 123 -157q95 0 171 117.5 t76 273.5q0 162 -121 162q-66 0 -125 -62.5t-91.5 -153.5t-32.5 -180z" />
<glyph unicode="&#x26;" horiz-adv-x="1740" d="M162 430q0 62 17 110.5t52 84.5t66.5 57.5t81.5 48.5q-66 45 -103.5 102.5t-37.5 151.5q0 102 89.5 189.5t213.5 87.5q136 0 226.5 -69t119.5 -183l-33 -17q-54 85 -106.5 122.5t-131.5 37.5q-101 0 -165 -70.5t-64 -187.5q0 -99 49 -139l31.5 10.5t35 11.5t29.5 8t36 7 t32 2q59 0 94 -24.5t35 -63.5q0 -33 -23.5 -55.5t-66.5 -22.5t-86.5 13.5t-67 26t-65.5 38.5q-117 -51 -117 -179q0 -77 44 -149t123.5 -128.5t203.5 -91t272 -34.5q108 0 202 27t161.5 73.5t116 108t72.5 131.5t24 143q0 85 -24.5 149.5t-67.5 101.5t-94.5 55t-110.5 18 q-89 0 -153 -48.5t-64 -131.5q0 -91 43 -135t114 -44q31 0 48 6.5t47 24.5q-5 2 -23 9t-25 10.5t-21.5 11t-20.5 14t-14.5 16.5t-11.5 22.5t-3 27.5q0 51 30 73.5t64 22.5q53 0 92 -27.5t39 -93.5q0 -63 -48.5 -114.5t-127.5 -51.5q-98 0 -177 68t-79 182q0 62 22.5 111 t57.5 78.5t82 49t91 27t89 7.5q28 0 112 -5.5t105 -5.5q78 0 126 49.5t48 106.5q0 154 -143 154q-66 0 -66 -43q4 -5 25 -14.5t37 -26t16 -43.5q0 -45 -25 -67t-63 -22q-46 0 -79.5 29.5t-33.5 89.5q0 53 50.5 95t132.5 42q92 0 154.5 -56t62.5 -152q0 -118 -88 -186 t-242 -68q45 -19 77 -42.5t59 -60.5t40.5 -92.5t13.5 -130.5q0 -78 -26.5 -160.5t-89.5 -168t-154.5 -152.5t-234 -109.5t-314.5 -42.5q-168 0 -309 61t-223 168t-82 236z" />
<glyph unicode="'" horiz-adv-x="401" d="M258 967q10 161 10 399q0 143 109 143q51 0 80.5 -30t29.5 -76q0 -24 -19 -68.5t-72 -155.5t-97 -212h-41z" />
<glyph unicode="(" horiz-adv-x="747" d="M72 379q0 672 723 1153l57 -76q-336 -236 -495.5 -496.5t-159.5 -564.5q0 -145 38 -268t98.5 -211.5t151.5 -175.5l-77 -68q-336 299 -336 707z" />
<glyph unicode=")" horiz-adv-x="747" d="M-78 -252q336 236 496 496.5t160 564.5q0 212 -74.5 367t-214.5 288l78 68q335 -299 335 -707q0 -672 -722 -1153z" />
<glyph unicode="*" horiz-adv-x="743" d="M225 1061q0 28 16.5 38.5t51.5 10.5q111 0 213 18q-58 46 -118 81t-82.5 50t-22.5 35t16 41t45 21q20 0 39 -24.5t56 -79t79 -99.5q7 60 8 136.5t6 94.5q10 43 50 43q27 0 44 -14t17 -39q0 -17 -15 -45t-41 -78t-44 -106q55 22 107.5 49.5t80 42t43.5 14.5q19 0 34 -18 t15 -41q0 -28 -17.5 -40.5t-57.5 -12.5q-91 0 -203 -19q55 -44 114.5 -79.5t82 -51t22.5 -35.5q0 -26 -19.5 -44.5t-39.5 -18.5t-37 21t-54 77t-82 107q-10 -68 -10.5 -144.5t-3.5 -87.5q-3 -19 -17.5 -31t-33.5 -12q-27 0 -43 14.5t-16 38.5q0 19 13 45t39.5 76.5 t47.5 106.5q-56 -19 -109.5 -45.5t-83 -42t-43.5 -15.5q-19 0 -33 17.5t-14 44.5z" />
<glyph unicode="+" horiz-adv-x="1187" d="M137 485v95h445v446h98v-446h444v-95h-444v-446h-98v446h-445z" />
<glyph unicode="," horiz-adv-x="495" d="M-8 -287q97 53 164.5 130.5t76.5 160.5h-47q-64 0 -96.5 28t-32.5 79q0 52 41.5 93.5t102.5 41.5q139 0 139 -154q0 -73 -29.5 -140.5t-80.5 -120t-106 -92.5t-118 -71z" />
<glyph unicode="-" horiz-adv-x="716" d="M59 422l41 149h555l-41 -149h-555z" />
<glyph unicode="." horiz-adv-x="495" d="M70 113q0 55 39 94t94 39t94 -39t39 -94t-38.5 -93t-94.5 -38t-94.5 38t-38.5 93z" />
<glyph unicode="/" horiz-adv-x="860" d="M-242 -397l1211 1927l86 -49l-1213 -1927z" />
<glyph unicode="0" horiz-adv-x="1257" d="M104 438q0 161 56.5 314.5t148.5 266.5t216 182t253 69q195 0 315.5 -123t120.5 -352q0 -159 -55.5 -310.5t-146.5 -264t-214.5 -181t-254.5 -68.5q-140 0 -240.5 62t-149.5 166t-49 239zM307 332q0 -141 56.5 -226.5t156.5 -85.5q95 0 187.5 83t158 211t106 285 t40.5 302q0 141 -55.5 230.5t-161.5 89.5q-123 0 -237.5 -132.5t-182.5 -339t-68 -417.5z" />
<glyph unicode="1" horiz-adv-x="874" d="M20 0l11 43q111 6 153 20q66 22 88 101l256 923q-31 -8 -75 -8q-111 0 -215 121l26 29q92 -47 201 -47q137 0 309 86h27q-67 -148 -111 -307l-217 -789q-6 -24 -6 -41q0 -21 9.5 -33.5t33.5 -23.5q16 -8 64.5 -19t76.5 -12l-10 -43h-621z" />
<glyph unicode="2" horiz-adv-x="1181" d="M14 0l11 51q197 130 319 223.5t266 217.5q320 279 320 526q0 92 -52 147.5t-151 55.5q-73 0 -145 -35t-123 -87.5t-83 -115t-32 -117.5q0 -135 119 -135q36 0 69.5 14.5t53.5 30.5t59 51l19 -24q-137 -150 -291 -150q-86 0 -140.5 45.5t-54.5 132.5q0 71 47 149t124 142 t186.5 106t222.5 42q169 0 272 -76t103 -205q0 -107 -50.5 -204.5t-158 -192t-248.5 -182.5t-348 -193l-68 -51h485q140 0 273 196l35 -12l-189 -350h-850z" />
<glyph unicode="3" horiz-adv-x="1157" d="M4 209q0 87 52 149t132 62q46 0 72.5 -22.5t26.5 -57.5q0 -40 -14 -63t-33.5 -32.5t-39.5 -18t-34 -30t-14 -59.5q0 -60 63 -97.5t156 -37.5q110 0 217 66t175 177.5t68 233.5q0 64 -40 101.5t-107 37.5q-18 0 -38 -5t-34.5 -10.5t-38 -19.5t-34.5 -21t-39 -26.5 t-37 -25.5l-31 53q113 57 189 100.5t144.5 91.5t107.5 92.5t61 96t22 109.5q0 168 -182 168q-64 0 -138 -32t-130.5 -95.5t-56.5 -137.5q0 -47 24.5 -70.5t58.5 -23.5q71 0 136 56l20 -27q-62 -54 -126.5 -87.5t-110.5 -33.5q-76 0 -123 39t-47 109q0 82 78.5 164.5t205 135 t254.5 52.5q159 0 247.5 -75t88.5 -181q0 -116 -108 -205.5t-297 -118.5l-43 -26h34q125 0 211 -59.5t86 -166.5q0 -144 -85 -257t-227 -173.5t-314 -60.5q-77 0 -147.5 15.5t-130 45.5t-95 82t-35.5 119z" />
<glyph unicode="4" horiz-adv-x="1077" d="M-135 66q0 36 34 52.5t76 16.5q76 0 117 -2q259 231 524 1137h228q-80 -245 -181 -457.5t-239 -398t-287 -287.5q102 12 142 12q76 0 182.5 -17t118.5 -18l180 500h184l-182 -495q157 20 250 131l24 -23q-100 -147 -303 -194l-135 -385h-178l129 376q-39 6 -107 28 t-137.5 38t-138.5 16q-16 0 -62 -4q-37 -32 -84 -61t-69 -29q-35 0 -60.5 16.5t-25.5 47.5z" />
<glyph unicode="5" horiz-adv-x="1071" d="M16 207q0 72 47 112.5t101 40.5q88 0 88 -73q0 -36 -29.5 -83t-36.5 -67q0 -49 49 -85t130 -36q106 0 198.5 70.5t146.5 187.5t54 248q0 51 -19.5 89.5t-52 60t-69 31.5t-74.5 10q-79 0 -161.5 -36t-121.5 -108l-51 11l305 684h53q21 -31 87 -55.5t174 -24.5 q102 0 173 25t158 83l21 -22q-51 -69 -123.5 -120.5t-137.5 -77t-139 -41t-116 -18.5t-80 -3q-95 0 -123 4l-141 -312q107 62 256 62q162 0 268 -87.5t106 -232.5q0 -94 -42 -180t-117 -151t-185 -103.5t-239 -38.5q-152 0 -254.5 67.5t-102.5 168.5z" />
<glyph unicode="6" horiz-adv-x="1157" d="M102 403q0 119 36 245t98.5 239t149 214t183 174t206 116t214.5 43q139 0 206 -59t67 -140q0 -66 -28.5 -107t-84.5 -41q-49 0 -74.5 38t-27.5 108q-3 73 -31.5 106t-100.5 33q-138 0 -287 -178.5t-253 -462.5l6 -6q85 77 166 110t182 33q140 0 230 -96t90 -250 q0 -72 -21 -147.5t-66 -148t-108 -129.5t-154 -91.5t-196 -34.5q-189 0 -295.5 111.5t-106.5 320.5zM276 297q0 -131 54 -202.5t149 -71.5q53 0 102.5 25t87.5 67t70 97.5t53 116t32.5 122.5t11.5 118q0 111 -55.5 170.5t-153.5 59.5q-138 0 -244.5 -146.5t-106.5 -355.5z " />
<glyph unicode="7" horiz-adv-x="1036" d="M127 807l262 526h37l-14 -114h800l-4 -19q-168 -186 -267.5 -315.5t-211.5 -315.5q-108 -181 -171.5 -315.5t-115.5 -323.5q-48 -176 -157 -176q-48 0 -72.5 27t-24.5 72q0 66 77 193.5t304 438.5q180 245 439 555h-527q-98 0 -167.5 -57t-147.5 -186z" />
<glyph unicode="8" horiz-adv-x="1142" d="M76 274q0 124 109.5 228t248.5 135v8q-84 54 -127 110.5t-43 141.5q0 100 65 189.5t175.5 143.5t234.5 54q154 0 262.5 -77.5t108.5 -194.5q0 -110 -87.5 -204t-213.5 -130v-8q211 -116 211 -273q0 -101 -46.5 -185t-122 -136t-167 -80.5t-186.5 -28.5 q-181 0 -301.5 87.5t-120.5 219.5zM227 252q0 -96 72 -164t203 -68q82 0 155 35t120.5 102t47.5 152q0 54 -25 100.5t-73 83.5t-103.5 65t-129.5 56q-123 -49 -195 -147.5t-72 -214.5zM457 977q0 -95 70 -156.5t231 -120.5q75 28 126.5 84t73 117.5t21.5 126.5 q0 95 -68.5 149t-175.5 54q-120 0 -199 -77.5t-79 -176.5z" />
<glyph unicode="9" horiz-adv-x="1157" d="M-68 0q0 59 29 94t80 35q54 0 80 -32.5t29 -116.5q2 -67 32.5 -99.5t106.5 -32.5q105 0 216.5 97.5t200 249.5t148.5 331l-8 6q-39 -37 -65.5 -58.5t-69.5 -48t-93.5 -39.5t-109.5 -13q-145 0 -240.5 94t-95.5 252q0 108 44 209.5t118 176.5t176.5 120t212.5 45 q175 0 282 -108.5t107 -313.5q0 -116 -31.5 -240.5t-87 -241t-137 -222t-177 -183.5t-212 -124t-236.5 -46q-146 0 -222.5 57.5t-76.5 151.5zM387 713q0 -134 50.5 -199t154.5 -65q64 0 126.5 35t112 96.5t80.5 153t31 196.5q0 134 -56 213.5t-157 79.5q-97 0 -177.5 -77.5 t-122.5 -193.5t-42 -239z" />
<glyph unicode=":" horiz-adv-x="655" d="M109 113q0 55 38.5 94t94.5 39t94.5 -39t38.5 -94t-38.5 -93t-94.5 -38t-94.5 38t-38.5 93zM289 797q0 55 38.5 94t94.5 39t94.5 -39t38.5 -94t-38.5 -93t-94.5 -38t-94.5 38t-38.5 93z" />
<glyph unicode=";" horiz-adv-x="655" d="M37 -287q97 53 165 130.5t77 160.5h-48q-64 0 -96.5 28t-32.5 79q0 52 41.5 93.5t102.5 41.5q139 0 139 -154q0 -73 -29.5 -140.5t-80.5 -120t-106 -92.5t-118 -71zM289 797q0 55 38.5 94t94.5 39t94.5 -39t38.5 -94t-38.5 -93t-94.5 -38t-94.5 38t-38.5 93z" />
<glyph unicode="&#x3c;" horiz-adv-x="1187" d="M164 492v81l905 420v-106l-776 -355l776 -354v-106z" />
<glyph unicode="=" horiz-adv-x="1187" d="M178 322v94h905v-94h-905zM178 649v94h905v-94h-905z" />
<glyph unicode="&#x3e;" horiz-adv-x="1187" d="M186 72v106l777 354l-777 355v106l906 -420v-81z" />
<glyph unicode="?" horiz-adv-x="876" d="M190 106q0 54 36.5 90.5t90.5 36.5t90.5 -36.5t36.5 -90.5t-36.5 -89t-90.5 -35t-90.5 35t-36.5 89zM254 530q0 104 72.5 180t232.5 152q145 69 197.5 137.5t52.5 167.5q0 36 -14.5 72.5t-43 69t-76.5 53t-108 20.5q-93 0 -157 -56.5t-64 -131.5q0 -63 38 -107.5 t103 -44.5q30 0 48 9v12q-28 -2 -58.5 20t-30.5 58q0 40 26.5 67t66.5 27q50 0 79 -26.5t29 -73.5q0 -59 -42.5 -96.5t-112.5 -37.5q-75 0 -129 54.5t-54 136.5q0 101 84 170.5t217 69.5q161 0 259 -92t98 -230q0 -110 -60.5 -198.5t-208.5 -153.5q-161 -71 -218 -109 q-122 -80 -122 -186q0 -57 27 -77.5t70 -20.5q52 0 89.5 51t49.5 116l45 -14q-14 -84 -72.5 -137t-117.5 -53q-85 0 -140 51.5t-55 150.5z" />
<glyph unicode="@" horiz-adv-x="2181" d="M221 358q0 148 48 292.5t139.5 269t215 219.5t285 149.5t338.5 54.5q137 0 250 -36t190 -97.5t129.5 -145t76.5 -177t24 -195.5q0 -160 -76 -305t-201 -232t-262 -87q-85 0 -136.5 42.5t-55.5 120.5l-6 2q-48 -72 -109.5 -116.5t-122.5 -44.5q-45 0 -83 12.5t-71 41 t-52 81.5t-19 127q0 44 15 100t42.5 116.5t70.5 118t94.5 103t118.5 73t138 27.5q55 0 94.5 -31.5t49.5 -90.5h6l43 110h143l-201 -538q-22 -64 -22 -107q0 -94 84 -94q82 0 163.5 42.5t147.5 116.5t107 186t41 239q0 124 -40.5 228.5t-116.5 181.5t-194 120t-266 43 q-100 0 -200 -28t-192.5 -79.5t-172 -131.5t-138.5 -178.5t-92.5 -225t-33.5 -266.5q0 -172 51 -310t141.5 -229t213.5 -139.5t269 -48.5q671 0 883 604l37 -13q-96 -313 -346.5 -493t-573.5 -180q-135 0 -260.5 31.5t-236 97.5t-192.5 159t-129.5 224t-47.5 286zM889 301 q0 -54 6.5 -89t19.5 -51.5t25.5 -22t30.5 -5.5q69 0 122.5 49t100.5 129l133 369q-11 77 -42 114t-89 37q-61 0 -119.5 -55t-98.5 -136t-64.5 -173t-24.5 -166z" />
<glyph unicode="A" d="M-246 0l13 43q22 2 66 14t77 27q80 38 180 160q417 519 922 1177h57v-1239q0 -47 9 -72.5t38 -39.5q44 -23 125 -27l-12 -43h-598l12 43q102 6 162 27q65 25 65 106v377h-462q-99 -135 -207 -289q-8 -12 -21.5 -31.5t-21 -30.5t-16 -24.5t-12 -22.5t-3.5 -16 q0 -28 39 -50.5t83 -33t81 -12.5l-13 -43h-563zM461 614h409v525z" />
<glyph unicode="B" horiz-adv-x="1284" d="M-68 0l11 43q111 6 153 20q66 22 88 101l293 1053q8 36 8 47q0 20 -9.5 32t-31.5 23q-23 10 -69 22t-68 13l12 45h615q167 0 263.5 -67t96.5 -193q0 -64 -24.5 -118.5t-63.5 -93.5t-96 -72t-114 -54t-126 -39v-19q336 -62 336 -290q0 -202 -185 -327.5t-482 -125.5h-607z M393 182q-2 -13 -2 -25q1 -49 31 -71q38 -28 129 -29q102 0 187 35t138.5 91.5t83 125.5t29.5 140q0 120 -85.5 192t-229.5 72q-57 0 -135 -4zM555 768h76q200 0 323 105.5t123 246.5q0 105 -55.5 164t-163.5 59q-45 0 -143 -4z" />
<glyph unicode="C" horiz-adv-x="1286" d="M98 504q0 189 70.5 361.5t184.5 294t262 193.5t300 72q104 0 170 -25.5t136 -84.5l84 104h84l-99 -506h-49q-11 107 -31 182.5t-59.5 140.5t-106.5 97.5t-163 32.5q-100 0 -200.5 -64.5t-178.5 -173t-127 -263.5t-49 -324q0 -221 97 -353.5t286 -132.5q77 0 143 22.5 t123 69.5t103 101.5t100 134.5l47 -29q-43 -66 -80.5 -114t-94 -102.5t-115 -88.5t-138.5 -57t-170 -23q-249 0 -389 144.5t-140 390.5z" />
<glyph unicode="D" horiz-adv-x="1523" d="M-68 0l11 43q111 6 153 20q66 22 88 101l293 1053q8 36 8 47q0 20 -9.5 32t-31.5 23q-23 10 -69 22t-68 13l12 45h607q88 0 168.5 -17.5t156.5 -58t131.5 -101.5t89 -155t33.5 -211q0 -196 -79 -359.5t-212.5 -271t-307.5 -166.5t-367 -59h-607zM401 217q-7 -26 -7 -47 q0 -42 26 -70q40 -42 143 -41q201 0 367.5 104.5t261 283.5t94.5 391q0 251 -112.5 377t-321.5 126q-47 0 -137 -4z" />
<glyph unicode="E" horiz-adv-x="1304" d="M-86 0l14 43q25 0 86.5 8.5t85.5 16.5q68 24 88 102l289 1044q8 36 8 50q0 20 -9 32.5t-32 22.5q-25 11 -75 22.5t-78 12.5l14 45h1075l-88 -320h-51v17q0 92 -39 161t-104 78q-57 8 -160 8h-221l-166 -591h160q119 0 194 65q26 21 60.5 80.5t52.5 106.5h53l-160 -570 h-49q6 38 6 92q0 81 -16 107q-13 19 -24 29.5t-45.5 22t-86.5 11.5h-159l-127 -452q-21 -72 -21 -99q0 -55 44 -71.5t163 -16.5q92 0 140 1.5t108 12.5t88 33q63 51 136.5 143t102.5 146h52l-133 -393h-1176z" />
<glyph unicode="F" horiz-adv-x="1253" d="M-86 0l14 43q25 0 86.5 8.5t85.5 16.5q68 24 88 102l289 1044q8 36 8 50q0 20 -9 32.5t-32 22.5q-25 11 -75 22.5t-78 12.5l14 45h1127l-89 -332h-51q0 110 -37 184t-114 84q-63 8 -168 8h-256l-168 -595h184q118 0 201 63q27 20 61 75t56 113h55l-162 -575h-55 q8 37 8 94q-1 9 -1 19q-2 70 -15 90q-17 25 -58 44t-106 19h-182l-142 -506q-8 -24 -8 -49q0 -20 9 -32.5t32 -22.5q25 -10 75.5 -21.5t78.5 -13.5l-15 -45h-651z" />
<glyph unicode="G" horiz-adv-x="1456" d="M98 516q0 174 67.5 339.5t181.5 291t274.5 202t334.5 76.5q197 0 320 -110l92 104h80l-113 -491h-47q-7 101 -26 174.5t-59 136t-112.5 95t-175.5 32.5q-106 0 -211 -61.5t-188.5 -167.5t-135.5 -264t-52 -336q0 -241 92 -371.5t260 -130.5q81 0 140 21.5t97.5 65.5 t62 94.5t42.5 123.5l20 78q6 26 6 47q0 56 -42 74q-30 12 -92 21t-101 11l12 47h668l-12 -47q-119 -18 -144 -28q-73 -29 -90 -107l-127 -475l-26 -8l-78 125q-30 -12 -85 -34.5t-79.5 -32t-65 -21.5t-77.5 -16.5t-82 -4.5q-111 0 -205 32t-167.5 96.5t-115 171.5t-41.5 247 z" />
<glyph unicode="H" horiz-adv-x="1656" d="M-68 0l11 43q111 6 153 20q66 22 88 101l293 1053q8 36 8 47q0 20 -9.5 32t-31.5 23q-23 10 -69 22t-68 13l12 45h627l-12 -45q-78 -4 -160 -25q-67 -20 -90 -102l-129 -465h672l127 455q8 36 8 49q0 19 -9.5 30.5t-31.5 22.5q-26 10 -72.5 22t-72.5 13l16 45h625 l-15 -45q-76 -4 -153 -25q-66 -19 -88 -102l-295 -1055q-9 -41 -9 -43q0 -20 9.5 -30.5t33.5 -24.5q14 -9 62.5 -19t77.5 -12l-13 -43h-626l12 43q121 7 160 20q67 23 88 101l149 532h-673l-148 -524q-6 -27 -6 -41q0 -21 9.5 -33.5t33.5 -23.5q16 -8 64.5 -19t76.5 -12 l-10 -43h-625z" />
<glyph unicode="I" horiz-adv-x="794" d="M-61 0l10 43q111 6 153 20q66 22 88 101l293 1053q9 41 9 47q0 20 -9.5 32t-31.5 23q-23 10 -69.5 22t-68.5 13l13 45h626l-12 -45q-78 -4 -160 -25q-67 -20 -90 -102l-295 -1055q-6 -27 -6 -41q0 -21 9.5 -33.5t33.5 -23.5q16 -8 64.5 -19t76.5 -12l-10 -43h-624z" />
<glyph unicode="J" horiz-adv-x="1118" d="M-80 -170q0 34 32.5 72.5t82.5 38.5q55 0 87 -26t32 -79q0 -32 -43 -92q0 -23 19 -39t32 -16q62 0 108.5 17.5t92.5 63t85 130t74 211.5q31 111 129 548h-268l10 56l271 6q19 57 37.5 99t57 98t58.5 82t92 116q-42 -11 -115.5 -22t-103.5 -11q-50 0 -93.5 22.5 t-75.5 55.5t-64 66.5t-73.5 58t-88.5 27.5q-56 0 -86.5 -22.5t-30.5 -55.5q0 -9 11 -38t20 -42q44 -2 75 -29.5t31 -72.5q0 -35 -28 -62.5t-68 -27.5q-58 0 -85.5 47t-27.5 120q0 108 95 208t217 100q52 0 93 -14.5t68 -37.5t50.5 -51.5t47 -58t50.5 -54.5t68 -43.5 t92 -23.5h55q15 18 48 59t50.5 61t42 45.5t44 36.5t36.5 11q76 0 76 -63q0 -19 -5 -36t-12 -30t-22 -25.5t-25.5 -20.5t-33 -16.5t-34.5 -13t-40 -11.5t-40 -9.5t-42 -9.5q-74 -178 -115 -402l265 6l-21 -71l-256 2q-7 -29 -31 -130t-50 -198.5t-56 -196.5 q-30 -102 -78 -186t-104.5 -140.5t-121.5 -96t-130.5 -57t-130.5 -17.5q-115 0 -175.5 54.5t-60.5 129.5z" />
<glyph unicode="K" horiz-adv-x="1511" d="M-68 0l11 43q111 6 153 20q66 22 88 101l293 1053q8 36 8 47q0 20 -9.5 32t-31.5 23q-23 10 -69 22t-68 13l12 45h627l-12 -45q-78 -4 -160 -25q-67 -20 -90 -102l-139 -502h26q262 174 451.5 329.5t208.5 225.5q6 21 -10 36.5t-45 23t-50 10.5t-41 4l13 45h579l-12 -45 q-201 -10 -317 -107q-33 -27 -150.5 -125.5t-161.5 -134t-130.5 -101t-166.5 -120.5q193 -247 398 -557q60 -90 149 -135q53 -24 139 -29l-10 -45h-698l10 45q118 10 166.5 26.5t48.5 57.5q0 47 -120 224t-251 333h-36l-146 -514q-6 -24 -6 -41q0 -21 9.5 -33.5t33.5 -23.5 q16 -8 64.5 -19t76.5 -12l-10 -43h-625z" />
<glyph unicode="L" horiz-adv-x="1288" d="M-86 0l14 43q25 0 86.5 8.5t85.5 16.5q68 24 88 102l289 1044q8 36 8 50q0 20 -9 32.5t-32 22.5q-25 11 -75 22.5t-78 12.5l14 45h641l-12 -45q-78 -4 -160 -25q-67 -20 -90 -102l-274 -983q-12 -43 -16.5 -69t-1 -49.5t15.5 -35t38.5 -20t63 -10.5t94.5 -3q104 0 196 12 t124 37q59 44 134.5 132t115.5 159h49l-138 -397h-1171z" />
<glyph unicode="M" horiz-adv-x="1906" d="M-113 0l13 43q37 2 106 19.5t98 35.5q79 50 142 281l203 749q12 45 12 80q0 56 -31 88q-27 27 -74.5 41.5t-93.5 16.5l12 45h424l203 -1084l604 908q68 102 94 176h461l-12 -45q-78 -4 -160 -25q-68 -20 -90 -102l-272 -1055q-6 -18 -6 -41q0 -21 9.5 -33.5t33.5 -23.5 q18 -9 68.5 -19t80.5 -12l-10 -43h-623l11 43q104 6 145 20q70 24 88 101l268 1061l-815 -1202h-37q-8 162 -30 284l-168 895l-217 -813q-33 -125 -33 -188q0 -66 26 -92q21 -22 90.5 -43t104.5 -23l-12 -43h-613z" />
<glyph unicode="N" horiz-adv-x="1509" d="M-113 0l13 43q37 2 106 19.5t98 35.5q84 53 144 281l192 723q9 36 9 69q0 74 -39 113q-65 65 -207 70l14 45h422l473 -1102l188 721q33 130 33 190q0 64 -28 86q-25 20 -90.5 40t-102.5 22l12 43h609l-13 -43q-34 -2 -103.5 -18t-98.5 -33q-48 -27 -79.5 -94.5 t-62.5 -180.5l-278 -1044h-68l-504 1175l-202 -772q-11 -39 -22 -101.5t-11 -86.5q0 -66 26 -92q21 -22 90.5 -43t104.5 -23l-12 -43h-613z" />
<glyph unicode="O" horiz-adv-x="1474" d="M106 526q0 192 75.5 374t219.5 317q112 104 245.5 158.5t273.5 54.5q231 0 374 -146q73 -74 117.5 -177.5t44.5 -225.5q0 -205 -76.5 -395.5t-228.5 -321.5q-229 -197 -514 -197q-214 0 -356 139q-80 78 -127.5 185.5t-47.5 234.5zM326 471q0 -202 82 -322t251 -120 q223 0 377 213q92 129 146.5 313.5t54.5 368.5q0 96 -17.5 173.5t-55 140t-103.5 96.5t-156 34q-121 0 -225 -67.5t-176 -182.5q-82 -131 -130 -300.5t-48 -346.5z" />
<glyph unicode="P" horiz-adv-x="1234" d="M-68 0l11 43q111 6 153 20q66 22 88 101l293 1053q8 36 8 47q0 20 -9.5 32t-31.5 23q-23 10 -69 22t-68 13l12 45h568q192 0 297.5 -79t105.5 -222q0 -141 -86 -245t-237.5 -158t-350.5 -54h-96l-131 -471q-6 -21 -6 -39q0 -21 9.5 -33.5t33.5 -23.5q16 -8 64.5 -19 t76.5 -12l-10 -43h-625zM539 702h98q206 0 321 102t115 275q0 262 -266 262h-92z" />
<glyph unicode="Q" horiz-adv-x="1363" d="M-33 100q0 52 74.5 95t167.5 43q95 0 185 -26.5t202 -80.5q51 14 109.5 53t118.5 97t114.5 138t97.5 171t68.5 202.5t25.5 225.5q0 71 -18.5 133t-55.5 112t-99.5 78.5t-143.5 28.5q-93 0 -177.5 -37t-146.5 -99t-108 -141t-69 -164.5t-23 -168.5q0 -108 54 -180t153 -72 q44 0 83.5 8t78 29t65.5 53.5t44 85t17 119.5q0 73 -22.5 130.5t-71.5 65.5q10 -29 10 -73q0 -40 -24.5 -66t-65.5 -26q-51 0 -70.5 27.5t-19.5 76.5q0 51 47.5 91t130.5 40q86 0 136.5 -72t50.5 -168q0 -81 -38.5 -154.5t-97.5 -121.5t-128.5 -76t-133.5 -28 q-152 0 -244.5 106.5t-92.5 278.5q0 114 55 224t145 191t211.5 131t247.5 50q128 0 230.5 -38.5t167 -105t98.5 -153t34 -185.5q0 -131 -43.5 -251t-112.5 -210t-163.5 -168.5t-186.5 -131t-192 -93.5q70 -37 147.5 -104t142 -130.5t135 -124t154.5 -97.5t173 -37q71 0 98 2 l-8 30q-64 21 -64 97q0 44 37.5 74t83.5 30q49 0 70.5 -29.5t21.5 -74.5q0 -30 -26.5 -67.5t-70.5 -71.5t-111.5 -57t-141.5 -23q-98 0 -179 19.5t-139.5 55t-106.5 78.5t-88.5 94.5t-75.5 99t-79 97.5t-88 84q-172 -70 -311 -70q-102 0 -175 34t-73 97zM98 106 q39 -90 142 -90q62 0 140 19t122 43q-122 115 -291 115q-38 0 -71.5 -30.5t-41.5 -56.5z" />
<glyph unicode="R" horiz-adv-x="1456" d="M-68 0l11 43q111 6 153 20q66 22 88 101l293 1053q8 36 8 47q0 20 -9.5 32t-31.5 23q-23 10 -69 22t-68 13l12 45h576q201 0 313.5 -71.5t112.5 -203.5q0 -83 -35 -151.5t-97.5 -117t-139 -81.5t-170.5 -55v-17q99 -19 156 -82.5t61 -168.5q1 -37 3 -126t5 -130 q9 -123 86 -123q96 0 170 252l47 -13q-20 -61 -39 -107.5t-46 -91t-57.5 -72.5t-72 -45.5t-90.5 -17.5q-209 0 -209 275v176q0 49 -4.5 83t-20.5 68.5t-44.5 55.5t-77.5 34t-119 13h-95q-59 -221 -143 -510q-6 -27 -6 -41q0 -21 9.5 -33.5t33.5 -23.5q16 -8 64.5 -19 t76.5 -12l-10 -43h-625zM549 741h100q211 0 332 95t121 266q0 239 -256 239h-129z" />
<glyph unicode="S" horiz-adv-x="1099" d="M-49 -20l115 479h47q9 -69 25 -128t46 -115t71 -95t102 -62.5t137 -23.5q142 0 229.5 87t87.5 197q0 97 -52 163t-198 139q-118 61 -182.5 110t-100.5 117.5t-36 161.5q0 114 68 209.5t184.5 150.5t253.5 55q84 0 156.5 -29.5t115.5 -72.5l96 96h70l-117 -465h-45 q-9 93 -27.5 162.5t-52 128t-89 89t-132.5 30.5q-128 0 -214.5 -78t-86.5 -182q0 -95 49 -151.5t178 -121.5q195 -99 275 -188.5t80 -212.5q0 -132 -79 -238.5t-204.5 -162.5t-267.5 -56q-107 0 -197.5 30.5t-140.5 72.5l-95 -96h-69z" />
<glyph unicode="T" horiz-adv-x="1294" d="M166 0l12 43q34 2 98 10t84 15q70 24 91 102l323 1173h-86q-103 0 -168 -8q-63 -8 -161.5 -111t-139.5 -182h-49l100 357h1243l-100 -357h-49q0 117 -35.5 200.5t-101.5 92.5q-65 8 -164 8h-86l-318 -1163q-6 -18 -6 -45q0 -37 41 -57q17 -7 86 -20t97 -15l-13 -43h-698z " />
<glyph unicode="U" horiz-adv-x="1619" d="M233 291q0 90 29 194l203 732q8 36 8 47q0 20 -9.5 32t-31.5 23q-23 10 -69 22t-68 13l12 45h627l-12 -45q-78 -4 -160 -25q-67 -20 -90 -102l-195 -701q-39 -137 -39 -239q0 -232 293 -232q191 0 311.5 108.5t182.5 317.5l153 539q33 125 33 188t-29 86q-25 20 -90 40 t-102 22l12 43h608l-12 -43q-34 -2 -104 -18t-99 -33q-47 -26 -77 -90.5t-64 -182.5l-160 -559q-73 -249 -225.5 -377.5t-404.5 -128.5q-216 0 -323.5 83.5t-107.5 240.5z" />
<glyph unicode="V" d="M156 1356l12 43h598l-12 -43q-102 -6 -162 -27q-66 -25 -66 -106v-963l410 524q129 165 260 351q8 12 21.5 31.5t21 30.5t16 24.5t12 22.5t3.5 16q0 28 -39 50.5t-83 33t-81 12.5l12 43h563l-12 -43q-22 -2 -66 -14t-77 -27q-80 -38 -180 -160q-400 -498 -922 -1178h-57 v1240q0 47 -9 72.5t-38 39.5q-44 23 -125 27z" />
<glyph unicode="W" horiz-adv-x="1951" d="M156 1356l12 43h598l-12 -43q-102 -6 -162 -27q-66 -25 -66 -106v-961l570 868q16 45 16 105q0 71 -47 94q-44 23 -125 27l12 43h598l-12 -43q-102 -6 -162 -27q-65 -25 -65 -106v-961l522 797q53 81 74.5 124.5t21.5 71.5q0 42 -65 68t-146 31l13 45h550l-12 -45 q-62 -3 -143 -41q-43 -22 -77 -58t-71 -92l-788 -1179h-78v1058l-706 -1058h-78v1233q0 46 -9 72t-38 40q-44 23 -125 27z" />
<glyph unicode="X" horiz-adv-x="1511" d="M-143 0l12 45q88 5 154 29q95 37 204 137q208 189 486 463q-172 386 -236 514q-30 67 -53 94q-22 25 -53 43q-17 10 -66 18.5t-82 10.5l13 45h702l-12 -45q-49 -3 -86.5 -8t-73.5 -16t-55 -31t-19 -48q0 -23 9.5 -57t39.5 -107t47 -111.5t70 -158.5q279 275 346 349 q76 85 76 112q0 38 -40.5 54.5t-137.5 21.5l12 45h582l-13 -45q-85 -5 -151 -29q-97 -38 -205 -137q-38 -34 -76.5 -69.5t-87 -83t-80 -79t-98.5 -97.5t-100 -99q185 -419 250 -549q49 -96 104 -141q20 -18 147 -25l-12 -45h-702l12 45q238 13 238 105q0 39 -34 124 t-130 302q-13 27 -19 42q-285 -277 -354 -350q-109 -115 -109 -143q0 -43 39 -59t136 -21l-13 -45h-581z" />
<glyph unicode="Y" horiz-adv-x="1286" d="M106 1108q107 315 357 315q100 0 177.5 -60.5t116 -151t38.5 -191.5q0 -67 -19 -197h19q116 296 271 449t302 153q67 0 102 -37t35 -81q0 -136 -119 -136q-53 0 -78.5 31.5t-25.5 63.5q0 8 1.5 16t2.5 13t5.5 12.5t5.5 9.5t7 10.5t7 9.5l-8 11q-62 -15 -147.5 -93 t-164.5 -190q-56 -79 -112.5 -192.5t-85.5 -231.5l-117 -469q-6 -24 -6 -41q3 -39 47 -59q15 -8 75 -18.5t89 -10.5l-11 -43h-641l11 43q103 6 147 20q66 22 84 101l123 502q20 78 20 278q0 72 -12 131.5t-39 111.5t-77.5 81.5t-120.5 29.5q-149 0 -213 -204z" />
<glyph unicode="Z" horiz-adv-x="1220" d="M-137 0l6 25l1255 1318h-327q-125 0 -179 -10q-79 -16 -181 -115t-165 -196h-49l139 377h1045l-8 -25l-1256 -1319h371q256 0 328 54q74 57 151 147t123 164h49l-149 -420h-1153z" />
<glyph unicode="[" horiz-adv-x="1249" d="M-63 -326l485 1815l43 -16q379 -91 647 -91q127 0 172 29t45 88q0 28 -14 60l47 16q31 -28 31 -86q0 -111 -118.5 -190.5t-260.5 -79.5q-56 0 -105.5 7t-83.5 16t-80.5 30.5t-71 35.5t-81.5 47.5t-88 51.5l-443 -1651q41 18 115.5 51.5t107 47.5t90 36t96.5 30.5t92.5 16 t109.5 7.5q123 0 189.5 -53.5t66.5 -133.5q0 -51 -26.5 -90.5t-78.5 -81.5l-41 17q21 15 45.5 48t24.5 64t-35 48.5t-133 17.5q-270 0 -696 -90z" />
<glyph unicode="\" horiz-adv-x="962" d="M297 1528l100 14l389 -1962l-98 -16z" />
<glyph unicode="]" horiz-adv-x="1249" d="M-113 -326q0 74 57 137.5t144 98.5t178 35q56 0 105.5 -7t84 -16t80 -30.5t71 -36t81.5 -48t88 -51.5l443 1651q-40 -17 -115.5 -51.5t-107 -48t-90 -35t-97 -30t-92 -16t-109.5 -7.5q-123 0 -189.5 53t-66.5 133q0 51 26.5 90.5t78.5 81.5l41 -16q-21 -15 -45.5 -48.5 t-24.5 -64.5t35 -48.5t133 -17.5q266 0 696 91l51 16l-485 -1815l-43 17q-375 90 -647 90q-127 0 -172 -29t-45 -88q0 -27 14 -59l-47 -17q-31 28 -31 86z" />
<glyph unicode="^" horiz-adv-x="1388" d="M41 270q0 145 98 262t338 238q-38 87 -52.5 142t-14.5 118q0 166 110 281.5t275 115.5q101 0 166 -61t65 -158q0 -71 -29 -132.5t-83.5 -111t-111 -86t-132.5 -73.5q23 -49 94 -169.5t125 -223.5q10 18 32.5 60.5t34 64t33 59t36.5 58.5t36.5 50t40.5 45t42.5 32t48 23 t50.5 7q44 0 75.5 -13t48 -34t23.5 -42.5t7 -43.5q0 -37 -21 -66.5t-59 -29.5q-37 0 -57 9t-27 22t-13.5 26t-23.5 22t-49 9q-38 0 -88 -68.5t-141 -234.5q102 -206 102 -324q0 -112 -39.5 -209.5t-107 -166.5t-161 -108.5t-198.5 -39.5l-6 59q373 0 373 320q0 114 -93 309 q-48 -56 -86 -92.5t-90 -72.5t-112.5 -53.5t-132.5 -17.5q-138 0 -232 79t-94 220zM233 338q0 -118 64.5 -191t165.5 -73q92 0 157 41t144 135q-30 56 -127 222t-137 253q-85 -45 -140.5 -93.5t-82 -100t-35.5 -95t-9 -98.5zM582 1096q0 -96 65 -244q139 69 212 148.5 t73 197.5q0 73 -41.5 119.5t-108.5 46.5q-64 0 -111 -41.5t-68 -100.5t-21 -126z" />
<glyph unicode="_" horiz-adv-x="1228" d="M-225 -225h1249v-92h-1249v92z" />
<glyph unicode="`" horiz-adv-x="1024" d="M530 1419q0 33 21.5 55.5t54.5 22.5q39 0 63.5 -24.5t47.5 -79.5q103 -235 131 -297l-31 -21q-168 173 -225 228q-62 59 -62 116z" />
<glyph unicode="a" horiz-adv-x="1124" d="M47 295q0 54 17 121.5t48.5 140.5t81 142t110.5 123.5t142 88t170 33.5q70 0 121 -38t64 -111h6l47 137h184l-231 -670q-33 -94 -33 -151q0 -47 18.5 -64.5t51.5 -17.5q68 0 118 65t105 205l41 -12q-63 -156 -128 -233t-165 -77q-95 0 -143.5 45.5t-48.5 145.5l-9 2 q-137 -199 -286 -199q-56 0 -102.5 15.5t-88.5 50t-66 100.5t-24 158zM240 252q0 -67 10.5 -111.5t29.5 -65t37 -27.5t41 -7q150 0 269 201l155 477q-19 95 -59 138.5t-113 43.5q-75 0 -146 -67t-118.5 -166.5t-76.5 -211t-29 -204.5z" />
<glyph unicode="b" horiz-adv-x="1044" d="M94 229q0 14 0.5 26t2 24.5t2 21t3.5 21t3.5 17.5t4.5 18.5t4.5 16t5.5 17.5t5 17l268 839q31 92 31 137q0 55 -82 66q-39 5 -123 8v41l447 21l-242 -736l6 -2q137 162 275 162q44 0 83.5 -8.5t79.5 -31t68.5 -57.5t46.5 -92.5t18 -131.5q0 -54 -18 -122.5t-51.5 -141.5 t-86 -142.5t-115 -125t-145 -89t-171.5 -33.5q-61 0 -116 14.5t-102 44.5t-74.5 81.5t-27.5 119.5zM250 231q0 -217 170 -217q100 0 193 113t144.5 263t51.5 274q0 210 -135 210q-150 0 -279 -188z" />
<glyph unicode="c" horiz-adv-x="813" d="M47 295q0 54 17 121.5t48.5 140.5t80.5 142t108 123.5t136.5 88t160.5 33.5q93 0 151 -56t58 -128q0 -56 -27.5 -96.5t-77.5 -40.5q-41 0 -74.5 23.5t-33.5 68.5q0 31 28.5 63t75.5 58q-7 40 -34.5 56.5t-83.5 16.5q-64 0 -128 -68t-109.5 -168t-74 -214.5t-28.5 -206.5 q0 -106 35 -159.5t112 -53.5q105 0 185.5 72t150.5 202l41 -18q-175 -324 -410 -324q-59 0 -109.5 15t-97 49t-73.5 100.5t-27 159.5z" />
<glyph unicode="d" horiz-adv-x="1146" d="M47 295q0 65 24 148.5t73.5 171.5t116 161.5t162 120.5t200.5 47q65 0 117 -34t75 -97h6l131 434q31 98 31 137q0 55 -84 66q-31 4 -143 8v41l465 21l-396 -1258q-32 -107 -32 -151q0 -47 17 -64.5t50 -17.5q68 0 118 65t105 205l41 -12q-63 -156 -128 -233t-165 -77 q-93 0 -139.5 44t-46.5 143l-8 2q-63 -90 -141 -142.5t-162 -52.5q-56 0 -103.5 15.5t-90.5 50t-68 100.5t-25 158zM240 252q0 -67 11.5 -112t32 -65t39 -27t42.5 -7q83 0 156 55.5t124 141.5l154 503q-26 86 -68.5 123t-114.5 37q-76 0 -148 -67t-120.5 -166t-78 -211.5 t-29.5 -204.5z" />
<glyph unicode="e" horiz-adv-x="815" d="M47 299q0 66 23.5 148.5t73 170t117 160t165.5 119.5t207 47q74 0 124 -35.5t50 -101.5q0 -63 -37 -120t-94 -97t-130.5 -72t-142 -51t-133.5 -29q-30 -146 -30 -192q0 -105 36 -156t115 -51q105 0 183 71.5t149 202.5l37 -18q-170 -324 -400 -324q-47 0 -89 9t-84 32 t-72 59t-49 94.5t-19 133.5zM281 481q83 15 150.5 43.5t110 62t71.5 72t41 72.5t12 64q0 108 -91 108q-84 0 -166.5 -127.5t-127.5 -294.5z" />
<glyph unicode="f" horiz-adv-x="628" d="M-459 -319q0 38 29 72t78 34q40 0 75 -24t35 -74q0 -9 -1 -16.5t-3.5 -15.5t-4.5 -13t-7 -13t-7 -11.5t-9.5 -13.5l-10.5 -14q5 -36 41 -36q111 0 187 102t147 334q45 148 84.5 296t86 337t54.5 219h-217l21 67h217l22 82q67 260 240 416q123 113 291 113q99 0 154 -52.5 t55 -121.5q0 -33 -29 -68t-76 -35q-40 0 -77 22t-37 68q0 15 13.5 52.5t16.5 58.5q-7 22 -16.5 28.5t-28.5 6.5q-98 0 -173.5 -104.5t-135.5 -321.5l-41 -144h258l-22 -67h-254q-14 -54 -63.5 -247t-83.5 -320.5t-66 -227.5q-88 -283 -248 -414q-77 -66 -143 -92t-144 -26 q-112 0 -159.5 46.5t-47.5 117.5z" />
<glyph unicode="g" horiz-adv-x="987" d="M-92 -254q0 101 90 172t256 94v15q-82 16 -131 48t-49 93q0 134 207 197v10q-74 34 -115 90t-41 123q0 151 116.5 253.5t282.5 102.5q60 0 119 -15t97 -29.5t46 -14.5q8 4 32.5 16t31.5 15t26.5 11t31.5 10t31 4.5t40 2.5q36 0 65 -28t29 -68q0 -42 -27 -69t-67 -27 q-47 0 -61.5 29t-14.5 98q-73 0 -127 -35v-13q41 -61 41 -139q0 -99 -55.5 -179t-142.5 -122.5t-185 -42.5h-129q-41 -19 -63.5 -41t-22.5 -59q0 -53 45 -70t174 -31q154 -15 228 -26q83 -13 141.5 -73.5t58.5 -156.5q0 -159 -153.5 -264.5t-429.5 -105.5 q-182 0 -278.5 61.5t-96.5 163.5zM84 -246q0 -32 13.5 -64t41 -61.5t78.5 -48t117 -18.5q171 0 269.5 75.5t98.5 208.5q0 35 -20 72t-55 45q-107 25 -330 33q-104 -26 -158.5 -88t-54.5 -154zM305 571q0 -76 35 -133t90 -57q44 0 81 26t61 66t41 90t24.5 96t7.5 86 q0 69 -35 117.5t-98 48.5q-56 0 -99 -37t-65 -93t-32.5 -110t-10.5 -100z" />
<glyph unicode="h" horiz-adv-x="1134" d="M16 0l394 1247q28 83 28 137q0 55 -80 66q-42 5 -122 8v41l446 21l-246 -742l8 -2q134 168 287 168q101 0 168.5 -67.5t67.5 -161.5q0 -45 -39 -152l-113 -301q-45 -120 -45 -164q0 -24 6 -38.5t18.5 -21t23.5 -8t28 -1.5q70 0 120 64.5t105 205.5l37 -12 q-31 -76 -57 -126.5t-60.5 -95.5t-77 -66.5t-94.5 -21.5q-36 0 -71.5 8t-70 25t-56 50t-21.5 77q0 62 41 170l121 320q41 109 41 149q0 59 -27.5 81t-75.5 22q-169 0 -309 -254l-194 -625h-181z" />
<glyph unicode="i" horiz-adv-x="684" d="M39 633q25 61 45 102.5t47 84t54.5 67.5t64.5 41t80 16q76 0 140.5 -45.5t64.5 -128.5q0 -56 -64 -207l-117 -301q-47 -117 -47 -162q0 -24 6 -39t17.5 -21.5t22.5 -8.5t28 -2q70 0 121 65t106 205l37 -12q-31 -76 -57.5 -126.5t-61.5 -95.5t-77.5 -66.5t-94.5 -21.5 q-36 0 -71 8t-68 25t-53.5 50t-20.5 77q0 61 41 170l137 348q48 119 48 162q0 78 -68 78q-67 0 -116 -66.5t-105 -210.5zM436 1307q0 60 38 101.5t101 41.5q41 0 68 -34t27 -79q0 -61 -35 -103t-96 -42q-49 0 -76 32.5t-27 82.5z" />
<glyph unicode="j" horiz-adv-x="593" d="M-389 -313q0 34 29.5 68t78.5 34q111 0 111 -102q0 -35 -39 -90q0 -22 9.5 -31.5t21.5 -9.5q113 0 189 100.5t145 331.5q27 88 48.5 160.5t44 156.5t32 119.5t37.5 147t36 141.5q17 63 17 104q0 78 -64 78q-67 0 -116 -66.5t-105 -210.5l-39 15q30 76 56 126t60.5 95.5 t78 67.5t96.5 22q79 0 140 -44t61 -128q0 -45 -29 -151q-86 -334 -158 -576q-85 -279 -246 -412q-76 -65 -143.5 -90.5t-146.5 -25.5q-111 0 -158 49t-47 121zM438 1307q0 60 38.5 101.5t101.5 41.5q41 0 67.5 -34t26.5 -79q0 -61 -35 -103t-96 -42q-49 0 -76 32.5t-27 82.5 z" />
<glyph unicode="k" horiz-adv-x="1120" d="M16 0l396 1247q28 85 28 137q0 55 -80 66q-42 5 -122 8v41l446 21l-309 -959q31 -2 90 -2q47 0 85.5 16.5t64 43.5t50.5 61.5t43.5 71t43 71t50 61.5t64 43.5t84.5 16.5q94 0 132 -37.5t38 -107.5q0 -49 -33 -89t-83 -40q-33 0 -61 19.5t-28 47.5q0 31 7 51t17.5 29 t21.5 15.5t20 16.5t12 25q-7 23 -20 31t-41 8q-31 0 -56.5 -30.5t-48.5 -77.5t-52 -97t-81.5 -96t-122.5 -67q39 -15 60.5 -25.5t52 -33t45 -55.5t14.5 -77q0 -61 -17 -142t-17 -110q0 -45 17.5 -59t51.5 -14q71 0 124.5 66.5t105.5 203.5l39 -12q-30 -75 -57.5 -126.5 t-63 -95.5t-79 -66t-95.5 -22q-96 0 -158 37t-62 123q0 50 20.5 143.5t20.5 120.5q0 61 -39.5 91t-107.5 30q-14 0 -64 -4l-165 -518h-181z" />
<glyph unicode="l" horiz-adv-x="602" d="M72 135q0 47 37 172l297 940q28 85 28 137q0 55 -82 66q-39 5 -123 8v41l449 21l-404 -1262q-38 -116 -38 -156q0 -45 18.5 -59t52.5 -14q70 0 123 66t107 204l36 -12q-31 -76 -57.5 -126.5t-61.5 -95.5t-77.5 -66.5t-95.5 -21.5q-36 0 -70 7.5t-67 24t-52.5 49.5 t-19.5 77z" />
<glyph unicode="m" horiz-adv-x="1759" d="M47 633q31 76 57 126t61 95.5t77.5 67.5t95.5 22q188 0 188 -186l9 -2q137 188 290 188q103 0 165 -57t67 -131h8q143 188 287 188q101 0 171 -67.5t70 -161.5q0 -46 -39 -152l-114 -301q-45 -117 -45 -160q0 -45 19.5 -59t55.5 -14q69 0 120.5 65.5t105.5 204.5l39 -12 q-63 -156 -128 -233t-165 -77q-36 0 -71 8t-70 25t-56.5 50t-21.5 77q0 48 45 170l121 320q38 103 38 153q0 58 -29 78.5t-77 20.5q-75 0 -137 -53t-123 -142l-221 -684h-189l217 655q27 79 27 125q0 58 -30 78.5t-79 20.5q-78 0 -159 -78t-129 -176l-205 -625h-187l222 655 q13 39 26 93.5t13 72.5q0 43 -13.5 58.5t-44.5 15.5q-67 0 -116 -66.5t-105 -210.5z" />
<glyph unicode="n" horiz-adv-x="1226" d="M47 633q31 76 57 126t61 95.5t77.5 67.5t95.5 22q188 0 188 -186l9 -2q138 188 290 188q101 0 168.5 -67.5t67.5 -161.5q0 -46 -39 -152l-115 -301q-45 -120 -45 -160q0 -45 20 -59t56 -14q68 0 119 65.5t106 204.5l39 -12q-63 -156 -128 -233t-165 -77q-36 0 -71 8 t-70 25t-56.5 50t-21.5 77q0 53 45 170l121 320q39 106 39 153q0 59 -26.5 79t-73.5 20q-80 0 -160.5 -72.5t-136.5 -181.5l-205 -625h-187l222 655q13 39 26 93.5t13 72.5q0 41 -14 57.5t-44 16.5q-67 0 -116 -66.5t-105 -210.5z" />
<glyph unicode="o" horiz-adv-x="985" d="M55 330q0 68 22.5 148t70.5 163t113.5 150t162 110t205.5 43q55 0 106.5 -21t96.5 -62.5t72.5 -113t27.5 -163.5q0 -68 -22 -148t-69.5 -162.5t-113.5 -150t-162.5 -110t-206.5 -42.5q-55 0 -106.5 21t-96.5 62t-72.5 112.5t-27.5 163.5zM248 291q0 -136 39 -208.5 t102 -72.5q66 0 124 41t98.5 106.5t70 148t43.5 165.5t14 158q0 134 -41 207t-100 73q-62 0 -118.5 -41t-98 -107t-72 -147.5t-46 -165.5t-15.5 -157z" />
<glyph unicode="p" horiz-adv-x="1155" d="M-180 -479l10 39q66 0 95 10.5t50 34.5q8 9 15.5 19.5t14.5 25.5t11.5 24.5t11.5 28.5t9 25l9 27t7 22l277 878q35 117 35 152q0 50 -13 69t-43 19q-64 0 -115 -68.5t-106 -208.5l-41 15q31 76 57 126t61 95.5t77.5 67.5t95.5 22q77 0 127.5 -46.5t50.5 -141.5l8 -2 q150 190 297 190q56 0 104 -15t92 -49t69.5 -99.5t25.5 -157.5q0 -66 -23.5 -149.5t-73 -171.5t-116 -161.5t-162 -120.5t-200.5 -47q-65 0 -121.5 36.5t-73.5 94.5h-8l-103 -331q-28 -98 -28 -138q0 -31 22 -45.5t62 -19.5t121 -8l-11 -41h-577zM358 174 q21 -83 66.5 -119.5t120.5 -36.5q61 0 120.5 43.5t104 114.5t79.5 156t53 172t18 160q0 210 -132 210q-80 0 -149 -54.5t-123 -139.5z" />
<glyph unicode="q" horiz-adv-x="1060" d="M47 295q0 65 24 148.5t73.5 171.5t116 161.5t162 120.5t200.5 47q66 0 123 -34.5t79 -96.5h9l81 119h136l-369 -1159q-29 -96 -29 -138q0 -31 21 -45.5t61 -19.5q47 -6 107 -8l-13 -41h-585l12 39q131 0 170 45q41 45 78 172l108 342l-8 2q-46 -57 -118.5 -102.5 t-151.5 -45.5q-56 0 -103.5 15t-90.5 49.5t-68 100t-25 157.5zM238 252q0 -67 11.5 -111.5t32.5 -64t40 -26.5t43 -7q83 0 157 54.5t125 140.5l160 503q-26 85 -72 122.5t-119 37.5q-76 0 -148.5 -67t-121 -166t-78.5 -211.5t-30 -204.5z" />
<glyph unicode="r" horiz-adv-x="854" d="M47 633q31 76 57 126t61 95.5t77.5 67.5t95.5 22q73 0 123.5 -51t50.5 -156l8 -2q66 101 96 133q72 76 164 76q61 0 97 -37t36 -88q0 -52 -27.5 -90.5t-78.5 -38.5t-75.5 24t-24.5 62q0 21 11.5 39t23.5 30t12 19q0 20 -7 24q-7 3 -24 3q-82 0 -225 -264l-191 -627h-184 l205 655q12 36 25.5 92.5t13.5 73.5q0 43 -13.5 58.5t-44.5 15.5q-67 0 -116.5 -68t-104.5 -209z" />
<glyph unicode="s" horiz-adv-x="788" d="M10 209q0 56 35 98.5t78 42.5q60 0 84 -28t24 -62t-21.5 -62t-68.5 -28h-6q-20 0 -28.5 -1t-14.5 -7.5t-6 -20.5q0 -47 64.5 -87t142.5 -40q96 0 161.5 41.5t65.5 120.5q0 47 -19 86.5t-49 68t-66.5 55t-73 54t-66.5 58t-49 73.5t-19 95q0 101 98 189.5t220 88.5 q63 0 111.5 -18t74.5 -43t42.5 -57t21 -55t4.5 -42q0 -57 -26.5 -93t-70.5 -36q-42 0 -71 21t-29 63q0 36 26.5 62.5t56 43t32.5 23.5q-5 31 -44.5 60.5t-129.5 29.5q-57 0 -110.5 -44.5t-53.5 -125.5q0 -40 18.5 -74.5t48.5 -60.5t66 -51.5t72 -53.5t66 -59t48.5 -76 t18.5 -98q0 -72 -50 -139t-132 -108.5t-171 -41.5q-80 0 -142 23t-96 59.5t-50.5 76.5t-16.5 79z" />
<glyph unicode="t" horiz-adv-x="681" d="M90 135q0 39 21 119q11 41 50.5 173t82.5 274t43 143h-197l23 67h198l90 318h179l-95 -318h263l-23 -67h-260q-165 -558 -172 -586q-5 -19 -16.5 -57t-17 -61.5t-5.5 -37.5q0 -24 6.5 -39.5t18.5 -22t23.5 -9t27.5 -2.5q71 0 128.5 69t110.5 205l39 -12 q-62 -151 -133.5 -232.5t-171.5 -81.5q-36 0 -71 7.5t-68 24t-53.5 49.5t-20.5 77z" />
<glyph unicode="u" horiz-adv-x="1214" d="M41 633q30 76 55.5 125.5t60 94t76.5 66t95 21.5q77 0 140.5 -40.5t63.5 -119.5q0 -55 -43 -170l-124 -319q-39 -103 -39 -148q0 -60 26.5 -82t73.5 -22q80 0 158 63.5t129 155.5l207 655h188l-215 -651q-33 -113 -33 -147q0 -86 68 -86t118 65t105 205l41 -12 q-63 -156 -128 -233t-165 -77q-93 0 -143.5 44t-50.5 147l-9 2q-60 -85 -138.5 -141t-160.5 -56q-101 0 -169 68.5t-68 161.5q0 53 41 151l116 301q43 107 43 166q0 42 -15 58t-46 16q-67 0 -116 -66.5t-105 -210.5z" />
<glyph unicode="v" horiz-adv-x="1069" d="M39 575l125 365h29q25 -50 80 -75t106 -25q147 0 270 110l33 -30q-59 -57 -113.5 -129t-103 -159.5t-78 -189.5t-29.5 -200q0 -100 48.5 -144.5t113.5 -44.5q59 0 128.5 35.5t133 98.5t106 164t42.5 218q0 45 -11 78t-27 53.5t-31.5 39.5t-26.5 46t-11 62q0 39 32 67.5 t75 28.5q45 0 70.5 -26.5t31.5 -58.5t6 -79q0 -121 -29 -240t-83 -220.5t-126.5 -180t-165.5 -123.5t-194 -45q-110 0 -190 72.5t-80 200.5q0 143 92.5 279t274.5 298l-13 10q-161 -98 -260 -98q-79 0 -117 23l-69 -193z" />
<glyph unicode="w" horiz-adv-x="1484" d="M43 586l121 354h29q25 -50 80.5 -75t107.5 -25q72 0 127.5 24t124.5 86l31 -30q-60 -59 -110.5 -125.5t-98 -152t-74.5 -189.5t-27 -213q0 -101 32.5 -147t84.5 -46q38 0 92 35t94 88q-18 92 -18 166q0 99 60.5 244.5t147.5 254.5t152 109q86 0 86 -164q0 -96 -79 -242.5 t-195 -289.5q11 -54 33.5 -92t50 -55t49.5 -24t43 -7q90 0 175 70t137.5 185.5t52.5 239.5q0 43 -11 75t-27 51.5t-32.5 39t-27.5 49t-11 68.5q0 41 27.5 68.5t70.5 27.5q65 0 87 -46.5t22 -129.5q0 -150 -45 -295.5t-119.5 -255.5t-178 -178t-214.5 -68q-65 0 -123.5 42 t-93.5 116q-70 -72 -142.5 -114t-125.5 -42q-107 0 -173.5 71t-66.5 206q0 143 88 276.5t266 294.5l-10 10q-86 -51 -141.5 -74.5t-108.5 -23.5q-76 0 -117 23l-63 -183zM797 389q0 -70 4 -94q95 117 163 249.5t68 209.5q0 33 -22.5 52t-53.5 19q-68 0 -92 -34 q-39 -52 -53 -150t-14 -252z" />
<glyph unicode="x" horiz-adv-x="1089" d="M-37 115q0 143 174 288l27 -24q-58 -97 -58 -221q0 -38 1 -56t5 -38t13 -27.5t25 -7.5q37 0 72.5 19t63 46t55 70.5t45 79.5t37.5 87.5t29.5 79t22.5 68.5q60 189 60 273q0 48 -10 79t-28 43.5t-32.5 16.5t-32.5 4q-72 0 -137 -72t-117 -205l-39 15q60 147 137 229 t179 82q33 0 58.5 -3t60.5 -17.5t58 -39.5t39.5 -74t16.5 -116h10q37 97 113.5 173.5t167.5 76.5q67 0 108 -35t41 -114q0 -40 -12.5 -77.5t-37 -70t-45.5 -55t-52 -49.5l-23 22q22 38 42 118t20 144q0 42 -8.5 58t-40.5 16q-54 0 -105 -42.5t-85.5 -98.5t-65.5 -130 t-45 -117t-23 -79q-47 -176 -47 -239q0 -35 6 -62.5t12 -44t20.5 -28.5t21.5 -17t25 -7.5t20 -2.5h18q151 0 256 268l37 -12q-124 -314 -320 -314q-26 0 -44 1t-46.5 6.5t-49 16t-44 30.5t-38 48.5t-24.5 72t-10 98.5h-12q-110 -273 -301 -273q-164 0 -164 140z" />
<glyph unicode="y" horiz-adv-x="1101" d="M-90 -297q0 75 39.5 108t95.5 33q43 0 68.5 -29t25.5 -57q0 -74 -41 -94q-14 -7 -36.5 -9t-35 -8t-16.5 -26q2 -26 17 -42t42 -22t44 -7t46 -1h9q154 0 291.5 148.5t236.5 452.5l-8 2q-139 -177 -291 -177q-101 0 -169 68.5t-68 161.5q0 55 41 153l116 297q45 112 45 170 q0 42 -13.5 56t-45.5 14q-68 0 -117.5 -67t-105.5 -210l-37 15q30 76 56 126t60.5 95.5t77 67.5t95.5 22q77 0 140 -40.5t63 -119.5q0 -51 -46 -174l-127 -315q-38 -101 -38 -150q0 -60 27.5 -81t74.5 -21q79 0 155 55t132 135l211 680h182l-215 -696q-57 -184 -136 -321.5 t-171 -220.5t-193 -123.5t-211 -40.5q-68 0 -119.5 15t-79 36t-44.5 49t-22 49.5t-5 42.5z" />
<glyph unicode="z" horiz-adv-x="856" d="M-55 43q0 58 114 150q17 14 87.5 72.5t123 101t130 104.5t158 122.5t157.5 115.5l-4 10q-83 3 -198.5 32t-152.5 29q-70 0 -102.5 -17t-32.5 -65q0 -46 31 -72t84 -42l-18 -33q-203 69 -203 194q0 76 56.5 135.5t133.5 59.5q46 0 91.5 -18.5t82 -45.5t71.5 -54t74 -45.5 t77 -18.5q15 0 26.5 2.5t19.5 4t13 9t8 10t4.5 14.5t1.5 15v18.5v18.5q0 92 66 92q76 0 76 -61q0 -39 -23.5 -73t-95.5 -93q-213 -174 -639 -506l2 -12q51 -7 157 -37.5t164 -30.5q189 0 189 88q0 52 -19 72t-63 28l12 37q164 -34 164 -200q0 -67 -64.5 -123t-140.5 -56 q-38 0 -98.5 28.5t-114.5 62.5t-116 62.5t-103 29.5q-13 -3 -21.5 -9t-13 -12t-6 -17.5t-1.5 -18.5t0.5 -23t0.5 -25q0 -80 -86 -80q-22 0 -40.5 18.5t-18.5 51.5z" />
<glyph unicode="{" horiz-adv-x="880" d="M51 535l27 108q76 7 128 16.5t99.5 28t77 45t53 68.5t35.5 98.5t18 134.5q13 181 70 286.5t174.5 154.5t315.5 49l-13 -47q-180 -12 -254 -87t-92 -276q-10 -104 -39.5 -184t-70.5 -132t-102.5 -89.5t-123.5 -58t-145 -36.5l-12 -51q151 -32 218.5 -83.5t67.5 -164.5 q0 -72 -27 -158.5t-54 -164.5t-27 -131q0 -86 47 -119t172 -41l-12 -47q-212 0 -298.5 50.5t-86.5 168.5q0 61 20 131t44.5 122t44.5 114.5t20 111.5q0 94 -63.5 133t-211.5 50z" />
<glyph unicode="|" horiz-adv-x="696" d="M342 -424v1952h98v-1952h-98z" />
<glyph unicode="}" horiz-adv-x="880" d="M-113 -346l13 47q180 12 254 86.5t92 275.5q10 104 39.5 184t70.5 132t102.5 89.5t123.5 58t145 36.5l12 51q-151 32 -218.5 83.5t-67.5 164.5q0 72 27 158.5t54 165t27 131.5q0 86 -47 119t-172 41l12 47q212 0 298.5 -50.5t86.5 -168.5q0 -61 -20 -131t-44.5 -122.5 t-44.5 -115t-20 -111.5q0 -94 63.5 -132.5t211.5 -49.5l-27 -108q-76 -7 -128 -17t-99.5 -28t-77 -45t-53 -69t-36 -98.5t-18.5 -134.5q-13 -181 -70 -286t-174 -154t-315 -49z" />
<glyph unicode="~" horiz-adv-x="1105" d="M113 367q27 97 107.5 176.5t174.5 79.5q52 0 105.5 -14t90.5 -31.5t81 -31.5t78 -14q78 0 121.5 25.5t78.5 91.5l41 -14q-27 -97 -107.5 -176.5t-174.5 -79.5q-70 0 -136.5 22.5t-121.5 45t-97 22.5q-78 0 -121.5 -25.5t-78.5 -91.5z" />
<glyph unicode="&#xa1;" horiz-adv-x="747" d="M139 86q0 37 41.5 143t130.5 323t162 419l49 -10q-32 -166 -59.5 -362t-44 -325t-25.5 -163q-16 -63 -55 -101.5t-94 -38.5q-49 0 -77 31t-28 84zM446 1292q0 54 36.5 89.5t90.5 35.5t90.5 -35.5t36.5 -89.5t-36.5 -90.5t-90.5 -36.5t-90.5 36.5t-36.5 90.5z" />
<glyph unicode="&#xa2;" horiz-adv-x="931" d="M125 455q0 67 23.5 151t71.5 171t112 159.5t154 119.5t188 48l98 268l49 -16l-94 -256q80 -13 131 -65.5t51 -114.5q0 -57 -27 -97.5t-77 -40.5q-38 0 -63 22.5t-25 69.5q0 76 84 121q-11 58 -86 70l-318 -852q28 -14 72 -14q105 0 185.5 72t150.5 202l41 -18 q-175 -324 -410 -324q-25 0 -65 4l-140 -373l-45 15l136 368q-197 64 -197 310zM315 412q0 -99 43 -166l304 823q-84 0 -166.5 -109t-131.5 -262t-49 -286z" />
<glyph unicode="&#xa3;" horiz-adv-x="1617" d="M-78 -49q0 69 56 120t142.5 76t188.5 25q103 0 185 -18q10 26 15 61t8 78.5t5 62.5h-295v43h297l21 162h-281v45h285q62 356 243.5 568t428.5 212q94 0 163 -26.5t106 -71t54 -94t17 -104.5q0 -156 -101.5 -257.5t-253.5 -101.5q-89 0 -148 57t-59 146q0 109 60 201 l43 -9q-49 -83 -49 -176q0 -76 39 -120t114 -44q98 0 165 89.5t67 214.5q0 106 -50.5 176.5t-162.5 70.5q-80 0 -144 -28t-119 -92.5t-96 -176.5t-67 -272q-19 -117 -29 -162h348v-45h-354q-17 -73 -51 -162h366v-43h-383q-42 -114 -129 -221q77 -23 174.5 -70t175.5 -76.5 t152 -29.5q51 0 94.5 19.5t73 47.5t56 72.5t41.5 81t32 86.5l49 -14q-16 -66 -42 -124t-70.5 -114.5t-102 -96.5t-141.5 -64.5t-185 -24.5q-52 0 -109.5 17t-95 35t-106.5 55.5t-100 52.5q-65 -79 -160 -127.5t-192 -48.5q-95 0 -142 39t-47 100zM-25 -53q0 -34 38.5 -57 t97.5 -23q91 0 175.5 38t139.5 101q-146 66 -279 66q-84 0 -128 -36.5t-44 -88.5z" />
<glyph unicode="&#xa4;" horiz-adv-x="1187" d="M160 129l248 246q-52 71 -52 162q0 86 50 159l-246 246l69 70l246 -246q71 49 160 49t162 -51l245 248l68 -68l-248 -246q53 -72 53 -161q0 -90 -51 -160l246 -246l-70 -70l-245 246q-71 -49 -160 -49t-162 51l-246 -248zM453 537q0 -77 53 -132t129 -55t130 55t54 132 t-54 131.5t-130 54.5t-129 -54.5t-53 -131.5z" />
<glyph unicode="&#xa5;" horiz-adv-x="1226" d="M111 301l10 47h323l41 148h-321l10 47h315q0 22 -12 84q-39 158 -115 411q-31 97 -81 131q-38 25 -105 29l12 45h572l-12 -45q-197 -15 -197 -59q0 -21 35.5 -162.5t91.5 -337.5q405 452 405 489q0 57 -161 70l12 45h467l-12 -45q-14 -1 -53.5 -13t-57.5 -20 q-129 -66 -512 -536q-33 -38 -59 -86h313l-10 -47h-328q-19 -43 -25 -64l-22 -84h332l-11 -47h-335l-35 -129q-6 -27 -6 -41q0 -21 9.5 -33.5t33.5 -23.5q16 -8 64.5 -19t76.5 -12l-10 -43h-613l11 43q111 6 153 20q66 22 88 101l39 137h-321z" />
<glyph unicode="&#xa6;" horiz-adv-x="696" d="M342 379h98v-803h-98v803zM342 745v783h98v-783h-98z" />
<glyph unicode="&#xa7;" horiz-adv-x="1126" d="M57 -264q0 67 43 113.5t105 46.5q41 0 69.5 -23t28.5 -59q0 -35 -18.5 -56t-40 -28.5t-40 -24.5t-18.5 -45q0 -78 123 -78q89 0 151 85t62 192q0 49 -10 89.5t-47 117.5q-27 59 -92 161t-101 168q-54 95 -70 142.5t-16 113.5q0 130 92 223t252 103q-32 75 -32 156 q0 97 47 183t134.5 140.5t194.5 54.5q59 0 105.5 -18t73 -47t40 -60.5t13.5 -62.5q0 -73 -44.5 -120.5t-103.5 -47.5q-41 0 -69.5 22.5t-28.5 59.5q0 32 12.5 52t31 28.5t36.5 16.5t30.5 22.5t12.5 38.5q0 67 -125 67q-93 0 -153 -73t-60 -170q0 -45 13 -90.5t51 -127.5 q30 -65 95 -174.5t91 -156.5q55 -97 73.5 -149.5t18.5 -106.5q0 -80 -29.5 -141t-80 -97t-110 -55.5t-128.5 -24.5q37 -90 37 -174q0 -163 -109.5 -275t-265.5 -112q-114 0 -179 61.5t-65 139.5zM332 735q0 -78 53 -178q38 -70 125 -213t115 -211q92 17 151.5 67t59.5 136 q0 43 -12 79t-42 89q-37 70 -122 220.5t-115 213.5q-102 -7 -157.5 -63t-55.5 -140z" />
<glyph unicode="&#xa8;" horiz-adv-x="1024" d="M389 1309q0 55 38.5 95t100.5 40q41 0 69 -33t28 -72q0 -56 -36.5 -96.5t-96.5 -40.5q-48 0 -75.5 31.5t-27.5 75.5zM825 1309q0 55 40 95t102 40q41 0 67.5 -33t26.5 -72q0 -56 -35.5 -96.5t-95.5 -40.5q-49 0 -77 31.5t-28 75.5z" />
<glyph unicode="&#xa9;" horiz-adv-x="1945" d="M55 514q0 178 70.5 341t190 281.5t285.5 188.5t349 70q182 0 347 -70t284 -188.5t189.5 -281.5t70.5 -341q0 -180 -70.5 -343.5t-189.5 -282t-284 -189t-347 -70.5q-183 0 -348.5 70.5t-285.5 189t-190.5 282t-70.5 343.5zM143 514q0 -134 40 -258.5t114.5 -224.5 t173.5 -175t222.5 -116t256.5 -41q165 0 314 64t256 173t170 260t63 318q0 165 -63 314.5t-170 258t-256 172.5t-314 64q-111 0 -216 -29t-193.5 -81.5t-163 -127t-126 -163.5t-80 -193.5t-28.5 -214.5zM473 506q0 214 146 356t372 142q56 0 121 -18.5t102 -45.5l46 78h55 l8 -371h-47q-17 52 -33.5 89.5t-44 79t-59.5 67t-80 42.5t-107 17q-116 0 -197 -108.5t-81 -317.5q0 -180 94 -289.5t236 -109.5q117 0 185.5 56t119.5 161l45 -21q-128 -286 -391 -286q-222 0 -356 129.5t-134 349.5z" />
<glyph unicode="&#xaa;" horiz-adv-x="757" d="M141 547l15 51h460l-14 -51h-461zM190 920q0 46 21 104.5t59 114t100 93.5t134 38q82 0 102 -70h4l19 64h106l-123 -359q-16 -43 -16 -78q0 -39 31 -39q60 0 110 140l35 -10q-39 -89 -72.5 -131t-89.5 -42q-50 0 -74.5 22t-29.5 69h-6q-39 -47 -74.5 -71t-79.5 -24 q-65 0 -110.5 42t-45.5 137zM307 893q0 -102 66 -102q33 0 68 28.5t59 71.5l82 264q-9 42 -27.5 60t-54.5 18q-51 0 -97.5 -58.5t-71 -136.5t-24.5 -145z" />
<glyph unicode="&#xab;" horiz-adv-x="1146" d="M92 420q0 17 13 54t36 52q372 240 543 359l23 -25l-441 -416l217 -395l-28 -18q-294 304 -332 342q-21 19 -26 27.5t-5 19.5zM520 420q0 17 13 54t36 52q372 240 543 359l23 -25l-441 -416l217 -395l-28 -18q-294 304 -332 342q-21 19 -26 27.5t-5 19.5z" />
<glyph unicode="&#xac;" horiz-adv-x="1187" d="M133 526v95h957v-541h-105v446h-852z" />
<glyph unicode="&#xad;" horiz-adv-x="716" d="M59 422l41 149h555l-41 -149h-555z" />
<glyph unicode="&#xae;" horiz-adv-x="1011" d="M270 1067q0 158 107.5 265.5t265.5 107.5t265.5 -107.5t107.5 -265.5t-107.5 -265.5t-265.5 -107.5t-265.5 107.5t-107.5 265.5zM311 1067q0 -143 95 -241.5t237 -98.5t237 98.5t95 241.5t-95 241.5t-237 98.5t-237 -98.5t-95 -241.5zM453 872v23q29 0 41 6q18 9 18 31 v301q0 26 -18 31q-24 8 -41 8v20h215q53 0 94 -23.5t41 -70.5q0 -74 -119 -106v-7q30 -4 58 -19.5t36 -45.5q3 -13 10 -44.5t11 -47.5q7 -27 28 -27q13 0 20 10.5t7 40.5h20q0 -45 -17 -65.5t-58 -20.5q-76 0 -88 105q-4 29 -10 48t-26 35.5t-54 16.5h-35v-139q0 -23 18 -31 q12 -6 41 -6v-23h-192zM586 1096h32q101 0 101 90q0 49 -22 66.5t-62 17.5h-49v-174z" />
<glyph unicode="&#xaf;" horiz-adv-x="1024" d="M385 1221l33 127h676l-33 -127h-676z" />
<glyph unicode="&#xb0;" horiz-adv-x="792" d="M186 1135q0 135 91 226t225 91q117 0 206 -79.5t89 -209.5q0 -131 -89 -222t-219 -91q-123 0 -213 79.5t-90 205.5zM305 1116q0 -90 48 -146.5t126 -56.5q88 0 141.5 79t55.5 198q0 96 -47.5 147.5t-126.5 51.5q-62 0 -108.5 -43t-67.5 -103.5t-21 -126.5z" />
<glyph unicode="&#xb1;" horiz-adv-x="1830" d="M-459 -319q0 38 29 72t78 34q40 0 75 -24t35 -74q0 -9 -1 -16.5t-3.5 -15.5t-4.5 -13t-7 -13t-7 -11.5t-9.5 -13.5l-10.5 -14q5 -36 41 -36q111 0 187 102t147 334q45 148 84.5 296t86 337t54.5 219h-217l21 67h217l20 68q75 250 273 412q138 112 317 112q57 0 98 -14 t64 -39t34.5 -51.5t14.5 -57.5q45 45 72 68q134 113 305 113q50 0 95 -16.5t71 -41.5l205 47l-402 -1253q-39 -119 -39 -156q0 -45 19.5 -59t54.5 -14q70 0 122.5 65.5t106.5 204.5l37 -12q-63 -156 -128 -233t-165 -77q-36 0 -70.5 7.5t-67.5 24t-53 49.5t-20 77 q0 59 37 172l320 1010q-35 8 -47 31.5t-11 91.5q-8 19 -38 30t-54 11q-105 0 -193.5 -107t-148.5 -319l-41 -144h258l-22 -67h-254q-14 -54 -63 -247t-83.5 -320.5t-66.5 -227.5q-88 -283 -248 -414q-79 -67 -135 -92.5t-123 -25.5q-111 0 -157 45.5t-46 115.5 q0 42 28.5 75.5t76.5 33.5q40 0 75 -24.5t35 -75.5q0 -38 -41 -95q0 -18 12 -27t25 -9q100 0 166.5 97.5t140.5 338.5q45 148 85 298.5t86 337.5t55 222h-430q-12 -47 -63 -246.5t-85.5 -327t-66.5 -227.5q-88 -283 -248 -414q-77 -66 -143 -92t-144 -26q-112 0 -159.5 46.5 t-47.5 117.5zM514 911h432l25 82q44 144 102 238q-104 6 -104 100q0 17 4 57t4 42q-13 32 -57 32q-115 0 -210.5 -101.5t-158.5 -320.5z" />
<glyph unicode="&#xb2;" horiz-adv-x="1263" d="M78 793q0 64 45 110.5t110 46.5q92 0 138 -86q8 -15 18.5 -49.5t24 -64t35.5 -52.5l30 2q59 62 142 62l22 14q0 58 -35 126.5t-35 107.5q0 66 45.5 107.5t110.5 41.5q66 0 109 -45.5t43 -109.5q0 -37 -12.5 -63.5t-34 -44t-44.5 -33t-48.5 -41t-41.5 -56.5l9 -25 q78 -41 98 -118l24 -13q37 13 68.5 39.5t50.5 48.5t50.5 39t72.5 17q62 0 106 -46t44 -112q0 -64 -44.5 -108t-109.5 -44q-40 0 -75.5 21.5t-75.5 48t-87 33.5l-18 -17q-11 -70 -80 -122l-2 -21q33 -43 109 -80q112 -53 112 -155q0 -62 -47 -109t-112 -47q-63 0 -108.5 44.5 t-45.5 109.5q0 29 18.5 88t18.5 104v23l-14 10q-14 -2 -41 -2q-62 0 -115 37l-27 -2q-31 -46 -43 -125q-12 -75 -50.5 -122.5t-109.5 -47.5q-63 0 -110 45.5t-47 111.5t49 110t121 44h16h19.5t19 1t23.5 2.5t22.5 4.5t26 8t24.5 11l6 28q-20 45 -20 88q0 27 6 51l-10 27 q-18 6 -55 6q-31 0 -71.5 -7t-59.5 -7q-67 0 -112.5 46t-45.5 110zM483 569q0 -60 40 -101.5t98 -41.5q59 0 98 41t39 102q0 59 -39 99.5t-98 40.5q-58 0 -98 -40.5t-40 -99.5z" />
<glyph unicode="&#xb3;" horiz-adv-x="1263" d="M78 793q0 64 45 110.5t110 46.5q92 0 138 -86q8 -15 18.5 -49.5t24 -64t35.5 -52.5l30 2q59 62 142 62l22 14q0 58 -35 126.5t-35 107.5q0 66 45.5 107.5t110.5 41.5q66 0 109 -45.5t43 -109.5q0 -37 -12.5 -63.5t-34 -44t-44.5 -33t-48.5 -41t-41.5 -56.5l9 -25 q78 -41 98 -118l24 -13q37 13 68.5 39.5t50.5 48.5t50.5 39t72.5 17q62 0 106 -46t44 -112q0 -64 -44.5 -108t-109.5 -44q-40 0 -75.5 21.5t-75.5 48t-87 33.5l-18 -17q-11 -70 -80 -122l-2 -21q33 -43 109 -80q112 -53 112 -155q0 -62 -47 -109t-112 -47q-63 0 -108.5 44.5 t-45.5 109.5q0 29 18.5 88t18.5 104v23l-14 10q-14 -2 -41 -2q-62 0 -115 37l-27 -2q-31 -46 -43 -125q-12 -75 -50.5 -122.5t-109.5 -47.5q-63 0 -110 45.5t-47 111.5t49 110t121 44h16h19.5t19 1t23.5 2.5t22.5 4.5t26 8t24.5 11l6 28q-20 45 -20 88q0 27 6 51l-10 27 q-18 6 -55 6q-31 0 -71.5 -7t-59.5 -7q-67 0 -112.5 46t-45.5 110zM483 569q0 -60 40 -101.5t98 -41.5q59 0 98 41t39 102q0 59 -39 99.5t-98 40.5q-58 0 -98 -40.5t-40 -99.5z" />
<glyph unicode="&#xb4;" horiz-adv-x="1024" d="M434 1098q172 193 266 307q77 92 152 92q32 0 51 -19.5t19 -45.5q0 -38 -27.5 -69t-79.5 -67q-29 -19 -138 -85t-220 -138z" />
<glyph unicode="&#xb5;" horiz-adv-x="1253" d="M-78 -375q0 29 22.5 83t57 123t45.5 97q31 77 70 201l235 784h185l-183 -610q-16 -54 -16 -94q0 -83 36.5 -124.5t94.5 -41.5q48 0 96.5 24t85.5 60.5t62.5 69.5t40.5 61l194 655h185l-201 -655q-31 -101 -31 -145q0 -84 68 -84q31 0 58.5 15t48.5 37t43 60.5t37 72.5 t36 85l41 -12q-62 -159 -128 -234.5t-169 -75.5q-191 0 -191 191h-8q-61 -75 -87 -99q-101 -94 -261 -94q-64 0 -120.5 36t-78.5 102h-4l-18 -80q-25 -110 -25 -234q0 -106 -14 -155q-13 -50 -46.5 -78.5t-72.5 -28.5q-36 0 -62 20.5t-26 67.5z" />
<glyph unicode="&#xb6;" horiz-adv-x="1247" d="M203 1008q0 71 31 139.5t89 125.5t152 91.5t209 34.5h735l-10 -45h-291l-401 -1610h-58l402 1610h-197l-401 -1610h-57l237 956h-20q-196 0 -308 84t-112 224z" />
<glyph unicode="&#xb7;" horiz-adv-x="577" d="M176 557q0 55 39 94t94 39t94 -39t39 -94t-38.5 -93t-94.5 -38t-94.5 38t-38.5 93z" />
<glyph unicode="&#xb8;" horiz-adv-x="1024" d="M47 -465l12 47q155 3 233.5 30.5t78.5 88.5q0 40 -36.5 55t-119.5 15l80 245h57l-41 -129q221 0 221 -133q0 -113 -130 -166t-355 -53z" />
<glyph unicode="&#xb9;" horiz-adv-x="1263" d="M78 793q0 64 45 110.5t110 46.5q92 0 138 -86q8 -15 18.5 -49.5t24 -64t35.5 -52.5l30 2q59 62 142 62l22 14q0 58 -35 126.5t-35 107.5q0 66 45.5 107.5t110.5 41.5q66 0 109 -45.5t43 -109.5q0 -37 -12.5 -63.5t-34 -44t-44.5 -33t-48.5 -41t-41.5 -56.5l9 -25 q78 -41 98 -118l24 -13q37 13 68.5 39.5t50.5 48.5t50.5 39t72.5 17q62 0 106 -46t44 -112q0 -64 -44.5 -108t-109.5 -44q-40 0 -75.5 21.5t-75.5 48t-87 33.5l-18 -17q-11 -70 -80 -122l-2 -21q33 -43 109 -80q112 -53 112 -155q0 -62 -47 -109t-112 -47q-63 0 -108.5 44.5 t-45.5 109.5q0 29 18.5 88t18.5 104v23l-14 10q-14 -2 -41 -2q-62 0 -115 37l-27 -2q-31 -46 -43 -125q-12 -75 -50.5 -122.5t-109.5 -47.5q-63 0 -110 45.5t-47 111.5t49 110t121 44h16h19.5t19 1t23.5 2.5t22.5 4.5t26 8t24.5 11l6 28q-20 45 -20 88q0 27 6 51l-10 27 q-18 6 -55 6q-31 0 -71.5 -7t-59.5 -7q-67 0 -112.5 46t-45.5 110zM483 569q0 -60 40 -101.5t98 -41.5q59 0 98 41t39 102q0 59 -39 99.5t-98 40.5q-58 0 -98 -40.5t-40 -99.5z" />
<glyph unicode="&#xba;" horiz-adv-x="669" d="M127 547l14 51h461l-14 -51h-461zM190 938q0 36 12.5 79.5t39 88t62.5 81t88.5 60t111.5 23.5q64 0 115 -50.5t51 -146.5q0 -37 -12 -80.5t-38.5 -88t-62.5 -81t-88.5 -59.5t-112.5 -23q-64 0 -115 50t-51 147zM303 915q0 -68 20 -102.5t52 -34.5q56 0 99 54.5t63 126.5 t20 141q0 67 -20.5 101t-49.5 34q-52 0 -96 -54t-66 -127t-22 -139z" />
<glyph unicode="&#xbb;" horiz-adv-x="1146" d="M20 55l441 416l-217 395l28 19q294 -304 332 -342q21 -19 26 -27.5t5 -19.5q0 -17 -13 -54.5t-36 -52.5q-393 -254 -543 -358zM449 55l440 416l-217 395l28 19q294 -304 332 -342q21 -19 26 -27.5t5 -19.5q0 -17 -13 -54.5t-36 -52.5q-393 -254 -543 -358z" />
<glyph unicode="&#xbc;" horiz-adv-x="1218" d="M45 -256q0 24 24 36.5t58 12.5q24 0 74 -4q161 127 284 592h191q-58 -186 -171.5 -345t-252.5 -253q8 1 33 5.5t34 4.5q36 0 81 -4.5t97 -11.5t64 -8l103 280h147l-102 -280q43 5 90.5 28t77.5 56l16 -19q-94 -117 -207 -137l-65 -189h-144l62 185q-22 4 -115 33.5 t-148 29.5q-35 0 -59 -4q-53 -57 -100 -57q-72 0 -72 49zM100 487l23 84h981l-23 -84h-981zM387 694l12 45q134 9 148 13q23 6 41 24t24 41l154 582q-27 -6 -74 -6q-66 0 -162 84l25 30q76 -32 162 -32q118 0 248 59h26q-47 -96 -76 -209l-129 -485q-6 -30 -6 -35 q0 -36 33 -47q19 -11 131 -19l-12 -45h-545z" />
<glyph unicode="&#xbd;" horiz-adv-x="1218" d="M47 -465l12 59q47 27 133.5 75.5t122.5 69.5t89 55t98 67q116 94 159.5 175t43.5 167q0 60 -39 91.5t-97 31.5q-119 0 -204.5 -79.5t-85.5 -162.5q0 -61 77 -61q75 0 144 92l26 -25q-111 -145 -266 -145q-49 0 -82 27t-33 79q0 51 37 108.5t97.5 105t145.5 79t173 31.5 q124 0 201.5 -56t77.5 -141q0 -125 -107 -228.5t-373 -213.5l-121 -68h375q50 0 91 36t87 108l31 -17l-141 -260h-672zM100 487l23 84h981l-23 -84h-981zM387 694l12 45q134 9 148 13q23 6 41 24t24 41l154 582q-27 -6 -74 -6q-66 0 -162 84l25 30q76 -32 162 -32 q118 0 248 59h26q-47 -96 -76 -209l-129 -485q-6 -30 -6 -35q0 -36 33 -47q19 -11 131 -19l-12 -45h-545z" />
<glyph unicode="&#xbe;" horiz-adv-x="1218" d="M41 -256q0 24 24 36.5t58 12.5q24 0 74 -4q161 127 284 592h191q-58 -186 -171.5 -345t-252.5 -253q8 1 33 5.5t34 4.5q36 0 81 -4.5t97 -11.5t64 -8l102 280h148l-102 -280q42 5 89.5 28t77.5 56l17 -19q-94 -117 -207 -137l-66 -189h-143l62 185q-22 4 -115 33.5 t-148 29.5q-35 0 -59 -4q-53 -57 -100 -57q-72 0 -72 49zM100 487l23 84h981l-23 -84h-981zM328 840q0 61 39.5 104t93.5 43q35 0 54.5 -16.5t19.5 -44.5q0 -27 -8 -42.5t-19.5 -21.5t-23 -10.5t-19.5 -15.5t-8 -31q0 -33 32.5 -55.5t102.5 -22.5q121 0 226.5 89t105.5 210 q0 38 -24.5 61t-65.5 23q-31 0 -64 -14.5t-53.5 -29.5t-61.5 -48l-28 53q45 21 69 33t61 31t57 31.5t47.5 30.5t42.5 32.5t32 34t25.5 38t14 41t5.5 46.5q0 42 -32.5 67t-90.5 25q-45 0 -98.5 -19.5t-96 -61.5t-42.5 -95q0 -20 11.5 -34t37.5 -14q52 0 106 46l21 -25 q-40 -37 -95.5 -66.5t-95.5 -29.5q-64 0 -94.5 25t-30.5 63q0 67 62.5 127t162.5 95.5t207 35.5q67 0 115 -14.5t72 -39.5t34.5 -50.5t10.5 -53.5q0 -64 -58 -122t-190 -79l-23 -20q226 0 226 -150q0 -92 -72.5 -166t-191.5 -114.5t-258 -40.5q-104 0 -177 43.5t-73 118.5z " />
<glyph unicode="&#xbf;" horiz-adv-x="876" d="M4 299q0 72 22 131t83.5 118t162.5 103q161 71 218 109q122 80 122 186q0 57 -26.5 77.5t-69.5 20.5q-52 0 -89.5 -51t-49.5 -116l-45 14q14 84 72.5 137t117.5 53q85 0 140 -51.5t55 -150.5q0 -104 -72.5 -180t-232.5 -152q-145 -69 -197.5 -137.5t-52.5 -167.5 q0 -36 14.5 -72.5t42.5 -69t76 -53t108 -20.5q93 0 157.5 56.5t64.5 131.5q0 63 -38.5 107.5t-103.5 44.5q-29 0 -47 -9v-12q28 2 58 -20t30 -58q0 -40 -26 -67t-66 -27q-50 0 -79 26.5t-29 73.5q0 59 42.5 96.5t112.5 37.5q75 0 129 -54.5t54 -136.5q0 -101 -84 -170.5 t-218 -69.5q-161 0 -258.5 92t-97.5 230zM526 1298q0 54 36.5 89.5t90.5 35.5t90.5 -35.5t36.5 -89.5t-36.5 -90.5t-90.5 -36.5t-90.5 36.5t-36.5 90.5z" />
<glyph unicode="&#xc0;" d="M-246 0l13 43q22 2 66 14t77 27q80 38 180 160q417 519 922 1177h57v-1239q0 -47 9 -72.5t38 -39.5q44 -23 125 -27l-12 -43h-598l12 43q102 6 162 27q65 25 65 106v377h-462q-99 -135 -207 -289q-8 -12 -21.5 -31.5t-21 -30.5t-16 -24.5t-12 -22.5t-3.5 -16 q0 -28 39 -50.5t83 -33t81 -12.5l-13 -43h-563zM461 614h409v525zM792 1833q0 33 21.5 55.5t54.5 22.5q39 0 63.5 -24.5t47.5 -79.5q103 -235 131 -297l-31 -21q-168 173 -225 228q-62 59 -62 116z" />
<glyph unicode="&#xc1;" d="M-246 0l13 43q22 2 66 14t77 27q80 38 180 160q417 519 922 1177h57v-1239q0 -47 9 -72.5t38 -39.5q44 -23 125 -27l-12 -43h-598l12 43q102 6 162 27q65 25 65 106v377h-462q-99 -135 -207 -289q-8 -12 -21.5 -31.5t-21 -30.5t-16 -24.5t-12 -22.5t-3.5 -16 q0 -28 39 -50.5t83 -33t81 -12.5l-13 -43h-563zM461 614h409v525zM905 1489q172 193 266 307q77 92 152 92q32 0 51 -19.5t19 -45.5q0 -38 -27.5 -69t-79.5 -67q-29 -19 -138 -85t-220 -138z" />
<glyph unicode="&#xc2;" d="M-246 0l13 43q22 2 66 14t77 27q80 38 180 160q417 519 922 1177h57v-1239q0 -47 9 -72.5t38 -39.5q44 -23 125 -27l-12 -43h-598l12 43q102 6 162 27q65 25 65 106v377h-462q-99 -135 -207 -289q-8 -12 -21.5 -31.5t-21 -30.5t-16 -24.5t-12 -22.5t-3.5 -16 q0 -28 39 -50.5t83 -33t81 -12.5l-13 -43h-563zM461 614h409v525zM692 1452q223 240 322 350q27 30 43 37.5t59 7.5q37 0 49 -7t23 -34q16 -35 64 -155t83 -203l-31 -17l-215 277l-374 -277z" />
<glyph unicode="&#xc3;" d="M-246 0l13 43q22 2 66 14t77 27q80 38 180 160q417 519 922 1177h57v-1239q0 -47 9 -72.5t38 -39.5q44 -23 125 -27l-12 -43h-598l12 43q102 6 162 27q65 25 65 106v377h-462q-99 -135 -207 -289q-8 -12 -21.5 -31.5t-21 -30.5t-16 -24.5t-12 -22.5t-3.5 -16 q0 -28 39 -50.5t83 -33t81 -12.5l-13 -43h-563zM461 614h409v525zM688 1530q22 41 50 80.5t65.5 81.5t83 68t88.5 26t83.5 -18.5t66.5 -41t60 -41t66 -18.5q63 0 107 37t94 113l37 -19q-22 -41 -50 -80.5t-65.5 -81.5t-83 -68t-88.5 -26t-83.5 18.5t-67 41t-60.5 41 t-66 18.5q-44 0 -81 -21.5t-61.5 -50t-57.5 -78.5z" />
<glyph unicode="&#xc4;" d="M-246 0l13 43q22 2 66 14t77 27q80 38 180 160q417 519 922 1177h57v-1239q0 -47 9 -72.5t38 -39.5q44 -23 125 -27l-12 -43h-598l12 43q102 6 162 27q65 25 65 106v377h-462q-99 -135 -207 -289q-8 -12 -21.5 -31.5t-21 -30.5t-16 -24.5t-12 -22.5t-3.5 -16 q0 -28 39 -50.5t83 -33t81 -12.5l-13 -43h-563zM461 614h409v525zM733 1667q0 55 38.5 95t100.5 40q41 0 69 -33t28 -72q0 -56 -36.5 -96.5t-96.5 -40.5q-48 0 -75.5 31.5t-27.5 75.5zM1169 1667q0 55 40 95t102 40q41 0 67.5 -33t26.5 -72q0 -56 -35.5 -96.5t-95.5 -40.5 q-49 0 -77 31.5t-28 75.5z" />
<glyph unicode="&#xc5;" d="M-246 0l13 43q22 2 66 14t77 27q80 38 180 160q417 519 922 1177h57v-1239q0 -47 9 -72.5t38 -39.5q44 -23 125 -27l-12 -43h-598l12 43q102 6 162 27q65 25 65 106v377h-462q-99 -135 -207 -289q-8 -12 -21.5 -31.5t-21 -30.5t-16 -24.5t-12 -22.5t-3.5 -16 q0 -28 39 -50.5t83 -33t81 -12.5l-13 -43h-563zM461 614h409v525zM840 1685q0 89 67 153t167 64q97 0 167 -63t70 -152q0 -90 -65.5 -150.5t-163.5 -60.5q-101 0 -171.5 58.5t-70.5 150.5zM949 1669q0 -67 31 -105t89 -38q63 0 98.5 54.5t35.5 125.5q0 67 -31.5 107 t-89.5 40q-59 0 -96 -54.5t-37 -129.5z" />
<glyph unicode="&#xc6;" horiz-adv-x="1939" d="M-238 0l13 45q32 2 80.5 13t81.5 26q84 40 186 160q632 735 924 1085q-22 8 -73.5 15.5t-88.5 9.5l10 45h1120l-88 -320h-51v17q0 92 -39 161t-104 78q-57 8 -160 8h-221l-166 -591h160q119 0 194 65q26 21 60.5 80.5t52.5 106.5h53l-160 -570h-49q6 37 6 92 q0 81 -16 107q-13 19 -24 29.5t-45.5 22t-86.5 11.5h-160l-127 -452q-20 -68 -20 -99q0 -55 44 -71.5t163 -16.5q92 0 140 1.5t108 12.5t88 33q63 51 136.5 143t102.5 146h52l-134 -393h-1175l14 43q25 0 86.5 8.5t85.5 16.5q68 24 88 102l109 391h-461q-187 -216 -240 -291 q-79 -100 -79 -137q0 -20 20.5 -37t51 -27t60 -16t54.5 -8l-12 -45h-564zM524 625h424l185 696h-21z" />
<glyph unicode="&#xc7;" horiz-adv-x="1286" d="M98 504q0 189 70.5 361.5t184.5 294t262 193.5t300 72q104 0 170 -25.5t136 -84.5l84 104h84l-99 -506h-49q-11 107 -31 182.5t-59.5 140.5t-106.5 97.5t-163 32.5q-100 0 -200.5 -64.5t-178.5 -173t-127 -263.5t-49 -324q0 -221 97 -353.5t286 -132.5q77 0 143 22.5 t123 69.5t103 101.5t100 134.5l47 -29q-43 -66 -80.5 -114t-94 -102.5t-115 -88.5t-138.5 -57t-170 -23h-31l-27 -82q222 0 222 -133q0 -113 -130.5 -166t-355.5 -53l12 47q155 3 233.5 30.5t78.5 88.5q0 40 -36.5 55t-119.5 15l66 202q-213 24 -327 164t-114 367z" />
<glyph unicode="&#xc8;" horiz-adv-x="1304" d="M-86 0l14 43q25 0 86.5 8.5t85.5 16.5q68 24 88 102l289 1044q8 36 8 50q0 20 -9 32.5t-32 22.5q-25 11 -75 22.5t-78 12.5l14 45h1075l-88 -320h-51v17q0 92 -39 161t-104 78q-57 8 -160 8h-221l-166 -591h160q119 0 194 65q26 21 60.5 80.5t52.5 106.5h53l-160 -570 h-49q6 38 6 92q0 81 -16 107q-13 19 -24 29.5t-45.5 22t-86.5 11.5h-159l-127 -452q-21 -72 -21 -99q0 -55 44 -71.5t163 -16.5q92 0 140 1.5t108 12.5t88 33q63 51 136.5 143t102.5 146h52l-133 -393h-1176zM632 1810q0 33 21.5 55.5t54.5 22.5q39 0 63.5 -24.5t47.5 -79.5 q103 -235 131 -297l-31 -21q-168 173 -225 228q-62 59 -62 116z" />
<glyph unicode="&#xc9;" horiz-adv-x="1304" d="M-86 0l14 43q25 0 86.5 8.5t85.5 16.5q68 24 88 102l289 1044q8 36 8 50q0 20 -9 32.5t-32 22.5q-25 11 -75 22.5t-78 12.5l14 45h1075l-88 -320h-51v17q0 92 -39 161t-104 78q-57 8 -160 8h-221l-166 -591h160q119 0 194 65q26 21 60.5 80.5t52.5 106.5h53l-160 -570 h-49q6 38 6 92q0 81 -16 107q-13 19 -24 29.5t-45.5 22t-86.5 11.5h-159l-127 -452q-21 -72 -21 -99q0 -55 44 -71.5t163 -16.5q92 0 140 1.5t108 12.5t88 33q63 51 136.5 143t102.5 146h52l-133 -393h-1176zM792 1489q172 193 266 307q77 92 152 92q32 0 51 -19.5t19 -45.5 q0 -38 -27.5 -69t-79.5 -67q-29 -19 -138 -85t-220 -138z" />
<glyph unicode="&#xca;" horiz-adv-x="1304" d="M-86 0l14 43q25 0 86.5 8.5t85.5 16.5q68 24 88 102l289 1044q8 36 8 50q0 20 -9 32.5t-32 22.5q-25 11 -75 22.5t-78 12.5l14 45h1075l-88 -320h-51v17q0 92 -39 161t-104 78q-57 8 -160 8h-221l-166 -591h160q119 0 194 65q26 21 60.5 80.5t52.5 106.5h53l-160 -570 h-49q6 38 6 92q0 81 -16 107q-13 19 -24 29.5t-45.5 22t-86.5 11.5h-159l-127 -452q-21 -72 -21 -99q0 -55 44 -71.5t163 -16.5q92 0 140 1.5t108 12.5t88 33q63 51 136.5 143t102.5 146h52l-133 -393h-1176zM586 1497q223 240 322 350q27 30 43 37.5t59 7.5q37 0 49 -7 t23 -34q16 -35 64 -155t83 -203l-31 -17l-215 277l-374 -277z" />
<glyph unicode="&#xcb;" horiz-adv-x="1304" d="M-86 0l14 43q25 0 86.5 8.5t85.5 16.5q68 24 88 102l289 1044q8 36 8 50q0 20 -9 32.5t-32 22.5q-25 11 -75 22.5t-78 12.5l14 45h1075l-88 -320h-51v17q0 92 -39 161t-104 78q-57 8 -160 8h-221l-166 -591h160q119 0 194 65q26 21 60.5 80.5t52.5 106.5h53l-160 -570 h-49q6 38 6 92q0 81 -16 107q-13 19 -24 29.5t-45.5 22t-86.5 11.5h-159l-127 -452q-21 -72 -21 -99q0 -55 44 -71.5t163 -16.5q92 0 140 1.5t108 12.5t88 33q63 51 136.5 143t102.5 146h52l-133 -393h-1176zM600 1680q0 55 38.5 95t100.5 40q41 0 69 -33t28 -72 q0 -56 -36.5 -96.5t-96.5 -40.5q-48 0 -75.5 31.5t-27.5 75.5zM1036 1680q0 55 40 95t102 40q41 0 67.5 -33t26.5 -72q0 -56 -35.5 -96.5t-95.5 -40.5q-49 0 -77 31.5t-28 75.5z" />
<glyph unicode="&#xcc;" horiz-adv-x="794" d="M-61 0l10 43q111 6 153 20q66 22 88 101l293 1053q9 41 9 47q0 20 -9.5 32t-31.5 23q-23 10 -69.5 22t-68.5 13l13 45h626l-12 -45q-78 -4 -160 -25q-67 -20 -90 -102l-295 -1055q-6 -27 -6 -41q0 -21 9.5 -33.5t33.5 -23.5q16 -8 64.5 -19t76.5 -12l-10 -43h-624z M397 1810q0 33 21.5 55.5t54.5 22.5q39 0 63.5 -24.5t47.5 -79.5q103 -235 131 -297l-31 -21q-168 173 -225 228q-62 59 -62 116z" />
<glyph unicode="&#xcd;" horiz-adv-x="794" d="M-61 0l10 43q111 6 153 20q66 22 88 101l293 1053q9 41 9 47q0 20 -9.5 32t-31.5 23q-23 10 -69.5 22t-68.5 13l13 45h626l-12 -45q-78 -4 -160 -25q-67 -20 -90 -102l-295 -1055q-6 -27 -6 -41q0 -21 9.5 -33.5t33.5 -23.5q16 -8 64.5 -19t76.5 -12l-10 -43h-624z M563 1489q172 193 266 307q77 92 152 92q32 0 51 -19.5t19 -45.5q0 -38 -27.5 -69t-79.5 -67q-29 -19 -138 -85t-220 -138z" />
<glyph unicode="&#xce;" horiz-adv-x="794" d="M-61 0l10 43q111 6 153 20q66 22 88 101l293 1053q9 41 9 47q0 20 -9.5 32t-31.5 23q-23 10 -69.5 22t-68.5 13l13 45h626l-12 -45q-78 -4 -160 -25q-67 -20 -90 -102l-295 -1055q-6 -27 -6 -41q0 -21 9.5 -33.5t33.5 -23.5q16 -8 64.5 -19t76.5 -12l-10 -43h-624z M328 1497q223 240 322 350q27 30 43 37.5t59 7.5q37 0 49 -7t23 -34q16 -35 64 -155t83 -203l-31 -17l-215 277l-374 -277z" />
<glyph unicode="&#xcf;" horiz-adv-x="794" d="M-61 0l10 43q111 6 153 20q66 22 88 101l293 1053q9 41 9 47q0 20 -9.5 32t-31.5 23q-23 10 -69.5 22t-68.5 13l13 45h626l-12 -45q-78 -4 -160 -25q-67 -20 -90 -102l-295 -1055q-6 -27 -6 -41q0 -21 9.5 -33.5t33.5 -23.5q16 -8 64.5 -19t76.5 -12l-10 -43h-624z M354 1680q0 55 38.5 95t100.5 40q41 0 69 -33t28 -72q0 -56 -36.5 -96.5t-96.5 -40.5q-48 0 -75.5 31.5t-27.5 75.5zM790 1680q0 55 40 95t102 40q41 0 67.5 -33t26.5 -72q0 -56 -35.5 -96.5t-95.5 -40.5q-49 0 -77 31.5t-28 75.5z" />
<glyph unicode="&#xd0;" horiz-adv-x="1538" d="M-68 0l11 43q111 6 153 20q66 22 88 101l148 530h-207l18 68h207l127 455q8 36 8 47q0 20 -9.5 32t-31.5 23q-23 10 -69 22t-68 13l12 45h607q88 0 168.5 -17.5t156.5 -58t131.5 -101.5t89 -155t33.5 -211q0 -154 -51 -290t-142 -238.5t-211.5 -177t-264.5 -112.5 t-297 -38h-607zM401 217q-21 -75 19.5 -116.5t142.5 -41.5q201 0 368 106t262 284.5t95 388.5q0 251 -113.5 377t-322.5 126q-47 0 -137 -4l-162 -575h297l-19 -68h-296z" />
<glyph unicode="&#xd1;" horiz-adv-x="1509" d="M-113 0l13 43q37 2 106 19.5t98 35.5q84 53 144 281l192 723q9 36 9 69q0 74 -39 113q-65 65 -207 70l14 45h422l473 -1102l188 721q33 130 33 190q0 64 -28 86q-25 20 -90.5 40t-102.5 22l12 43h609l-13 -43q-34 -2 -103.5 -18t-98.5 -33q-48 -27 -79.5 -94.5 t-62.5 -180.5l-278 -1044h-68l-504 1175l-202 -772q-11 -39 -22 -101.5t-11 -86.5q0 -66 26 -92q21 -22 90.5 -43t104.5 -23l-12 -43h-613zM664 1557q22 41 50 80.5t65.5 81.5t83 68t88.5 26t83.5 -18.5t66.5 -41t60 -41t66 -18.5q63 0 107 37t94 113l37 -19 q-22 -41 -50 -80.5t-65.5 -81.5t-83 -68t-88.5 -26t-83.5 18.5t-67 41t-60.5 41t-66 18.5q-44 0 -81 -21.5t-61.5 -50t-57.5 -78.5z" />
<glyph unicode="&#xd2;" horiz-adv-x="1474" d="M106 526q0 192 75.5 374t219.5 317q112 104 245.5 158.5t273.5 54.5q231 0 374 -146q73 -74 117.5 -177.5t44.5 -225.5q0 -205 -76.5 -395.5t-228.5 -321.5q-229 -197 -514 -197q-214 0 -356 139q-80 78 -127.5 185.5t-47.5 234.5zM326 471q0 -202 82 -322t251 -120 q223 0 377 213q92 129 146.5 313.5t54.5 368.5q0 96 -17.5 173.5t-55 140t-103.5 96.5t-156 34q-121 0 -225 -67.5t-176 -182.5q-82 -131 -130 -300.5t-48 -346.5zM690 1810q0 33 21.5 55.5t54.5 22.5q39 0 63.5 -24.5t47.5 -79.5q103 -235 131 -297l-31 -21 q-168 173 -225 228q-62 59 -62 116z" />
<glyph unicode="&#xd3;" horiz-adv-x="1474" d="M106 526q0 192 75.5 374t219.5 317q112 104 245.5 158.5t273.5 54.5q231 0 374 -146q73 -74 117.5 -177.5t44.5 -225.5q0 -205 -76.5 -395.5t-228.5 -321.5q-229 -197 -514 -197q-214 0 -356 139q-80 78 -127.5 185.5t-47.5 234.5zM326 471q0 -202 82 -322t251 -120 q223 0 377 213q92 129 146.5 313.5t54.5 368.5q0 96 -17.5 173.5t-55 140t-103.5 96.5t-156 34q-121 0 -225 -67.5t-176 -182.5q-82 -131 -130 -300.5t-48 -346.5zM813 1489q172 193 266 307q77 92 152 92q32 0 51 -19.5t19 -45.5q0 -38 -27.5 -69t-79.5 -67 q-29 -19 -138 -85t-220 -138z" />
<glyph unicode="&#xd4;" horiz-adv-x="1474" d="M106 526q0 192 75.5 374t219.5 317q112 104 245.5 158.5t273.5 54.5q231 0 374 -146q73 -74 117.5 -177.5t44.5 -225.5q0 -205 -76.5 -395.5t-228.5 -321.5q-229 -197 -514 -197q-214 0 -356 139q-80 78 -127.5 185.5t-47.5 234.5zM326 471q0 -202 82 -322t251 -120 q223 0 377 213q92 129 146.5 313.5t54.5 368.5q0 96 -17.5 173.5t-55 140t-103.5 96.5t-156 34q-121 0 -225 -67.5t-176 -182.5q-82 -131 -130 -300.5t-48 -346.5zM612 1497q223 240 322 350q27 30 43 37.5t59 7.5q37 0 49 -7t23 -34q16 -35 64 -155t83 -203l-31 -17 l-215 277l-374 -277z" />
<glyph unicode="&#xd5;" horiz-adv-x="1474" d="M106 526q0 192 75.5 374t219.5 317q112 104 245.5 158.5t273.5 54.5q231 0 374 -146q73 -74 117.5 -177.5t44.5 -225.5q0 -205 -76.5 -395.5t-228.5 -321.5q-229 -197 -514 -197q-214 0 -356 139q-80 78 -127.5 185.5t-47.5 234.5zM326 471q0 -202 82 -322t251 -120 q223 0 377 213q92 129 146.5 313.5t54.5 368.5q0 96 -17.5 173.5t-55 140t-103.5 96.5t-156 34q-121 0 -225 -67.5t-176 -182.5q-82 -131 -130 -300.5t-48 -346.5zM610 1567q22 41 50 80.5t65.5 81.5t83 68t88.5 26t83.5 -18.5t66.5 -41t60 -41t66 -18.5q63 0 107 37t94 113 l37 -19q-22 -41 -50 -80.5t-65.5 -81.5t-83 -68t-88.5 -26t-83.5 18.5t-67 41t-60.5 41t-66 18.5q-44 0 -81 -21.5t-61.5 -50t-57.5 -78.5z" />
<glyph unicode="&#xd6;" horiz-adv-x="1474" d="M106 526q0 192 75.5 374t219.5 317q112 104 245.5 158.5t273.5 54.5q231 0 374 -146q73 -74 117.5 -177.5t44.5 -225.5q0 -205 -76.5 -395.5t-228.5 -321.5q-229 -197 -514 -197q-214 0 -356 139q-80 78 -127.5 185.5t-47.5 234.5zM326 471q0 -202 82 -322t251 -120 q223 0 377 213q92 129 146.5 313.5t54.5 368.5q0 96 -17.5 173.5t-55 140t-103.5 96.5t-156 34q-121 0 -225 -67.5t-176 -182.5q-82 -131 -130 -300.5t-48 -346.5zM653 1680q0 55 38.5 95t100.5 40q41 0 69 -33t28 -72q0 -56 -36.5 -96.5t-96.5 -40.5q-48 0 -75.5 31.5 t-27.5 75.5zM1089 1680q0 55 40 95t102 40q41 0 67.5 -33t26.5 -72q0 -56 -35.5 -96.5t-95.5 -40.5q-49 0 -77 31.5t-28 75.5z" />
<glyph unicode="&#xd7;" horiz-adv-x="1187" d="M156 129l407 406l-407 407l69 70l408 -408l405 408l68 -68l-408 -405l408 -408l-70 -70l-407 408l-406 -408z" />
<glyph unicode="&#xd8;" horiz-adv-x="1474" d="M-74 -41l267 252q-87 139 -87 315q0 192 75.5 374t219.5 317q112 104 245.5 158.5t273.5 54.5q122 0 217 -39t176 -125l229 215l41 -39l-233 -219q51 -58 78.5 -148t27.5 -194q0 -205 -76.5 -395.5t-228.5 -321.5q-229 -197 -514 -197q-255 0 -412 199l-260 -244z M324 471q0 -83 8 -135l872 831q-72 201 -299 201q-121 0 -225 -67.5t-176 -182.5q-82 -132 -131 -301.5t-49 -345.5zM346 272q66 -243 313 -243q223 0 377 213q93 130 148 314t55 368q0 104 -18 184z" />
<glyph unicode="&#xd9;" horiz-adv-x="1619" d="M233 291q0 90 29 194l203 732q8 36 8 47q0 20 -9.5 32t-31.5 23q-23 10 -69 22t-68 13l12 45h627l-12 -45q-78 -4 -160 -25q-67 -20 -90 -102l-195 -701q-39 -137 -39 -239q0 -232 293 -232q191 0 311.5 108.5t182.5 317.5l153 539q33 125 33 188t-29 86q-25 20 -90 40 t-102 22l12 43h608l-12 -43q-34 -2 -104 -18t-99 -33q-47 -26 -77 -90.5t-64 -182.5l-160 -559q-73 -249 -225.5 -377.5t-404.5 -128.5q-216 0 -323.5 83.5t-107.5 240.5zM794 1810q0 33 21.5 55.5t54.5 22.5q39 0 63.5 -24.5t47.5 -79.5q103 -235 131 -297l-31 -21 q-168 173 -225 228q-62 59 -62 116z" />
<glyph unicode="&#xda;" horiz-adv-x="1619" d="M233 291q0 90 29 194l203 732q8 36 8 47q0 20 -9.5 32t-31.5 23q-23 10 -69 22t-68 13l12 45h627l-12 -45q-78 -4 -160 -25q-67 -20 -90 -102l-195 -701q-39 -137 -39 -239q0 -232 293 -232q191 0 311.5 108.5t182.5 317.5l153 539q33 125 33 188t-29 86q-25 20 -90 40 t-102 22l12 43h608l-12 -43q-34 -2 -104 -18t-99 -33q-47 -26 -77 -90.5t-64 -182.5l-160 -559q-73 -249 -225.5 -377.5t-404.5 -128.5q-216 0 -323.5 83.5t-107.5 240.5zM977 1489q172 193 266 307q77 92 152 92q32 0 51 -19.5t19 -45.5q0 -38 -27.5 -69t-79.5 -67 q-29 -19 -138 -85t-220 -138z" />
<glyph unicode="&#xdb;" horiz-adv-x="1619" d="M233 291q0 90 29 194l203 732q8 36 8 47q0 20 -9.5 32t-31.5 23q-23 10 -69 22t-68 13l12 45h627l-12 -45q-78 -4 -160 -25q-67 -20 -90 -102l-195 -701q-39 -137 -39 -239q0 -232 293 -232q191 0 311.5 108.5t182.5 317.5l153 539q33 125 33 188t-29 86q-25 20 -90 40 t-102 22l12 43h608l-12 -43q-34 -2 -104 -18t-99 -33q-47 -26 -77 -90.5t-64 -182.5l-160 -559q-73 -249 -225.5 -377.5t-404.5 -128.5q-216 0 -323.5 83.5t-107.5 240.5zM762 1497q223 240 322 350q27 30 43 37.5t59 7.5q37 0 49 -7t23 -34q16 -35 64 -155t83 -203l-31 -17 l-215 277l-374 -277z" />
<glyph unicode="&#xdc;" horiz-adv-x="1619" d="M233 291q0 90 29 194l203 732q8 36 8 47q0 20 -9.5 32t-31.5 23q-23 10 -69 22t-68 13l12 45h627l-12 -45q-78 -4 -160 -25q-67 -20 -90 -102l-195 -701q-39 -137 -39 -239q0 -232 293 -232q191 0 311.5 108.5t182.5 317.5l153 539q33 125 33 188t-29 86q-25 20 -90 40 t-102 22l12 43h608l-12 -43q-34 -2 -104 -18t-99 -33q-47 -26 -77 -90.5t-64 -182.5l-160 -559q-73 -249 -225.5 -377.5t-404.5 -128.5q-216 0 -323.5 83.5t-107.5 240.5zM780 1680q0 55 38.5 95t100.5 40q41 0 69 -33t28 -72q0 -56 -36.5 -96.5t-96.5 -40.5 q-48 0 -75.5 31.5t-27.5 75.5zM1216 1680q0 55 40 95t102 40q41 0 67.5 -33t26.5 -72q0 -56 -35.5 -96.5t-95.5 -40.5q-49 0 -77 31.5t-28 75.5z" />
<glyph unicode="&#xdd;" horiz-adv-x="1286" d="M106 1108q107 315 357 315q100 0 177.5 -60.5t116 -151t38.5 -191.5q0 -67 -19 -197h19q116 296 271 449t302 153q67 0 102 -37t35 -81q0 -136 -119 -136q-53 0 -78.5 31.5t-25.5 63.5q0 8 1.5 16t2.5 13t5.5 12.5t5.5 9.5t7 10.5t7 9.5l-8 11q-62 -15 -147.5 -93 t-164.5 -190q-56 -79 -112.5 -192.5t-85.5 -231.5l-117 -469q-6 -24 -6 -41q3 -39 47 -59q15 -8 75 -18.5t89 -10.5l-11 -43h-641l11 43q103 6 147 20q66 22 84 101l123 502q20 78 20 278q0 72 -12 131.5t-39 111.5t-77.5 81.5t-120.5 29.5q-149 0 -213 -204zM825 1489 q172 193 266 307q77 92 152 92q32 0 51 -19.5t19 -45.5q0 -38 -27.5 -69t-79.5 -67q-29 -19 -138 -85t-220 -138z" />
<glyph unicode="&#xde;" horiz-adv-x="1224" d="M-68 0l11 43q111 6 153 20q66 22 88 101l293 1053q8 36 8 47q0 20 -9.5 32t-31.5 23q-23 10 -69 22t-68 13l12 45h619l-10 -43q-108 -6 -154 -21q-66 -23 -88 -100l-39 -139h156q192 0 297.5 -79t105.5 -222q0 -141 -86 -245t-237.5 -158t-350.5 -54h-96l-47 -168 q-6 -21 -6 -39q0 -21 9.5 -33.5t33.5 -23.5q16 -8 64.5 -19t76.5 -12l-10 -43h-625zM455 399h98q206 0 321 102t115 275q0 262 -266 262h-92z" />
<glyph unicode="&#xdf;" horiz-adv-x="1118" d="M-467 -319q0 38 29 72t78 34q40 0 75 -24t35 -74q0 -9 -1 -16.5t-3.5 -15.5t-4.5 -13t-7 -13t-7 -11.5t-9.5 -13.5l-10.5 -14q5 -36 37 -36q111 0 185 101.5t145 334.5q55 181 136.5 512t125.5 489q39 142 93 236t149 180q123 113 303 113q126 0 206 -68.5t80 -167.5 q0 -137 -59 -242q-262 -81 -262 -204q0 -55 18 -111t35 -85.5t51 -82.5q36 -55 49.5 -76.5t30.5 -66t17 -84.5q0 -74 -23.5 -136.5t-60.5 -103t-83.5 -69.5t-92 -41.5t-87.5 -12.5q-111 0 -172 59.5t-61 131.5q0 55 31.5 95t83.5 40q44 0 74 -20t30 -66q0 -33 -11 -51.5 t-27 -24.5t-32 -8.5t-27 -8.5t-11 -20q0 -41 44 -65.5t93 -24.5q78 0 123 52t45 149q0 52 -16 102t-30.5 76t-45.5 74q-2 3 -17.5 25.5t-18.5 27.5t-15.5 25.5t-16 29t-12 27.5t-11 32t-5.5 30.5t-3 35.5q0 95 61 171.5t142 117.5q55 42 93 118.5t38 160.5q0 102 -46 160.5 t-134 58.5q-97 0 -172.5 -106t-138.5 -320q-32 -110 -123 -468t-146 -538q-90 -289 -243 -414q-77 -66 -143 -92t-144 -26q-203 0 -203 164z" />
<glyph unicode="&#xe0;" horiz-adv-x="1124" d="M47 295q0 54 17 121.5t48.5 140.5t81 142t110.5 123.5t142 88t170 33.5q70 0 121 -38t64 -111h6l47 137h184l-231 -670q-33 -94 -33 -151q0 -47 18.5 -64.5t51.5 -17.5q68 0 118 65t105 205l41 -12q-63 -156 -128 -233t-165 -77q-95 0 -143.5 45.5t-48.5 145.5l-9 2 q-137 -199 -286 -199q-56 0 -102.5 15.5t-88.5 50t-66 100.5t-24 158zM240 252q0 -67 10.5 -111.5t29.5 -65t37 -27.5t41 -7q150 0 269 201l155 477q-19 95 -59 138.5t-113 43.5q-75 0 -146 -67t-118.5 -166.5t-76.5 -211t-29 -204.5zM421 1419q0 33 21.5 55.5t54.5 22.5 q39 0 63.5 -24.5t47.5 -79.5q103 -235 131 -297l-31 -21q-168 173 -225 228q-62 59 -62 116z" />
<glyph unicode="&#xe1;" horiz-adv-x="1124" d="M47 295q0 54 17 121.5t48.5 140.5t81 142t110.5 123.5t142 88t170 33.5q70 0 121 -38t64 -111h6l47 137h184l-231 -670q-33 -94 -33 -151q0 -47 18.5 -64.5t51.5 -17.5q68 0 118 65t105 205l41 -12q-63 -156 -128 -233t-165 -77q-95 0 -143.5 45.5t-48.5 145.5l-9 2 q-137 -199 -286 -199q-56 0 -102.5 15.5t-88.5 50t-66 100.5t-24 158zM240 252q0 -67 10.5 -111.5t29.5 -65t37 -27.5t41 -7q150 0 269 201l155 477q-19 95 -59 138.5t-113 43.5q-75 0 -146 -67t-118.5 -166.5t-76.5 -211t-29 -204.5zM557 1098q172 193 266 307 q77 92 152 92q32 0 51 -19.5t19 -45.5q0 -38 -27.5 -69t-79.5 -67q-29 -19 -138 -85t-220 -138z" />
<glyph unicode="&#xe2;" horiz-adv-x="1124" d="M47 295q0 54 17 121.5t48.5 140.5t81 142t110.5 123.5t142 88t170 33.5q70 0 121 -38t64 -111h6l47 137h184l-231 -670q-33 -94 -33 -151q0 -47 18.5 -64.5t51.5 -17.5q68 0 118 65t105 205l41 -12q-63 -156 -128 -233t-165 -77q-95 0 -143.5 45.5t-48.5 145.5l-9 2 q-137 -199 -286 -199q-56 0 -102.5 15.5t-88.5 50t-66 100.5t-24 158zM240 252q0 -67 10.5 -111.5t29.5 -65t37 -27.5t41 -7q150 0 269 201l155 477q-19 95 -59 138.5t-113 43.5q-75 0 -146 -67t-118.5 -166.5t-76.5 -211t-29 -204.5zM362 1106q223 240 322 350 q27 30 43 37.5t59 7.5q37 0 49 -7t23 -34q16 -35 64 -155t83 -203l-31 -17l-215 277l-374 -277z" />
<glyph unicode="&#xe3;" horiz-adv-x="1124" d="M47 295q0 54 17 121.5t48.5 140.5t81 142t110.5 123.5t142 88t170 33.5q70 0 121 -38t64 -111h6l47 137h184l-231 -670q-33 -94 -33 -151q0 -47 18.5 -64.5t51.5 -17.5q68 0 118 65t105 205l41 -12q-63 -156 -128 -233t-165 -77q-95 0 -143.5 45.5t-48.5 145.5l-9 2 q-137 -199 -286 -199q-56 0 -102.5 15.5t-88.5 50t-66 100.5t-24 158zM240 252q0 -67 10.5 -111.5t29.5 -65t37 -27.5t41 -7q150 0 269 201l155 477q-19 95 -59 138.5t-113 43.5q-75 0 -146 -67t-118.5 -166.5t-76.5 -211t-29 -204.5zM326 1145q22 41 50 80.5t65.5 81.5 t83 68t88.5 26t83.5 -18.5t66.5 -41t60 -41t66 -18.5q63 0 107 37t94 113l37 -19q-22 -41 -50 -80.5t-65.5 -81.5t-83 -68t-88.5 -26t-83.5 18.5t-67 41t-60.5 41t-66 18.5q-44 0 -81 -21.5t-61.5 -50t-57.5 -78.5z" />
<glyph unicode="&#xe4;" horiz-adv-x="1124" d="M47 295q0 54 17 121.5t48.5 140.5t81 142t110.5 123.5t142 88t170 33.5q70 0 121 -38t64 -111h6l47 137h184l-231 -670q-33 -94 -33 -151q0 -47 18.5 -64.5t51.5 -17.5q68 0 118 65t105 205l41 -12q-63 -156 -128 -233t-165 -77q-95 0 -143.5 45.5t-48.5 145.5l-9 2 q-137 -199 -286 -199q-56 0 -102.5 15.5t-88.5 50t-66 100.5t-24 158zM240 252q0 -67 10.5 -111.5t29.5 -65t37 -27.5t41 -7q150 0 269 201l155 477q-19 95 -59 138.5t-113 43.5q-75 0 -146 -67t-118.5 -166.5t-76.5 -211t-29 -204.5zM401 1309q0 55 38.5 95t100.5 40 q41 0 69 -33t28 -72q0 -56 -36.5 -96.5t-96.5 -40.5q-48 0 -75.5 31.5t-27.5 75.5zM837 1309q0 55 40 95t102 40q41 0 67.5 -33t26.5 -72q0 -56 -35.5 -96.5t-95.5 -40.5q-49 0 -77 31.5t-28 75.5z" />
<glyph unicode="&#xe5;" horiz-adv-x="1124" d="M47 295q0 54 17 121.5t48.5 140.5t81 142t110.5 123.5t142 88t170 33.5q70 0 121 -38t64 -111h6l47 137h184l-231 -670q-33 -94 -33 -151q0 -47 18.5 -64.5t51.5 -17.5q68 0 118 65t105 205l41 -12q-63 -156 -128 -233t-165 -77q-95 0 -143.5 45.5t-48.5 145.5l-9 2 q-137 -199 -286 -199q-56 0 -102.5 15.5t-88.5 50t-66 100.5t-24 158zM240 252q0 -67 10.5 -111.5t29.5 -65t37 -27.5t41 -7q150 0 269 201l155 477q-19 95 -59 138.5t-113 43.5q-75 0 -146 -67t-118.5 -166.5t-76.5 -211t-29 -204.5zM481 1294q0 89 67 153t167 64 q97 0 167 -63t70 -152q0 -90 -65.5 -150.5t-163.5 -60.5q-101 0 -171.5 58.5t-70.5 150.5zM590 1278q0 -67 31 -105t89 -38q63 0 98.5 54.5t35.5 125.5q0 67 -31.5 107t-89.5 40q-59 0 -96 -54.5t-37 -129.5z" />
<glyph unicode="&#xe6;" horiz-adv-x="1423" d="M47 295q0 54 17 121.5t48.5 140.5t81 142t110.5 123.5t142 88t170 33.5q70 0 121 -38t64 -111h6l47 137h113l-54 -152q76 79 154.5 121.5t173.5 42.5q74 0 124 -35.5t50 -101.5q0 -63 -37 -120t-93.5 -97t-130 -72t-142 -51t-133.5 -29q-2 -12 -8 -39.5t-9 -42t-7 -36.5 t-5.5 -40t-1.5 -34q0 -105 36 -156t115 -51q105 0 183 71.5t149 202.5l37 -18q-170 -324 -399 -324q-52 0 -98 12t-89 38.5t-73.5 76.5t-42.5 119h-7q-147 -246 -331 -246q-56 0 -102.5 15.5t-88.5 50t-66 100.5t-24 158zM240 252q0 -67 10.5 -111.5t29.5 -65t37 -27.5 t41 -7q150 0 269 201l155 477q-19 95 -59 138.5t-113 43.5q-75 0 -146 -67t-118.5 -166.5t-76.5 -211t-29 -204.5zM889 481q83 15 150.5 43.5t110 62t71.5 72t41 72.5t12 64q0 108 -90 108q-84 0 -167 -127.5t-128 -294.5z" />
<glyph unicode="&#xe7;" horiz-adv-x="813" d="M47 295q0 54 17 121.5t48.5 140.5t80.5 142t108 123.5t136.5 88t160.5 33.5q93 0 151 -56t58 -128q0 -56 -27.5 -96.5t-77.5 -40.5q-41 0 -74.5 23.5t-33.5 68.5q0 31 28.5 63t75.5 58q-7 40 -34.5 56.5t-83.5 16.5q-64 0 -128 -68t-109.5 -168t-74 -214.5t-28.5 -206.5 q0 -106 35 -159.5t112 -53.5q105 0 185.5 72t150.5 202l41 -18q-175 -324 -410 -324h-16l-27 -84q221 0 221 -133q0 -113 -130 -166t-355 -53l12 47q155 3 234.5 30.5t79.5 88.5q0 40 -37.5 55t-120.5 15l68 206q-48 8 -88 28t-74.5 56.5t-54 96t-19.5 137.5z" />
<glyph unicode="&#xe8;" horiz-adv-x="815" d="M47 299q0 66 23.5 148.5t73 170t117 160t165.5 119.5t207 47q74 0 124 -35.5t50 -101.5q0 -63 -37 -120t-94 -97t-130.5 -72t-142 -51t-133.5 -29q-30 -146 -30 -192q0 -105 36 -156t115 -51q105 0 183 71.5t149 202.5l37 -18q-170 -324 -400 -324q-47 0 -89 9t-84 32 t-72 59t-49 94.5t-19 133.5zM281 481q83 15 150.5 43.5t110 62t71.5 72t41 72.5t12 64q0 108 -91 108q-84 0 -166.5 -127.5t-127.5 -294.5zM342 1419q0 33 21.5 55.5t54.5 22.5q39 0 63.5 -24.5t47.5 -79.5q103 -235 131 -297l-31 -21q-168 173 -225 228q-62 59 -62 116z " />
<glyph unicode="&#xe9;" horiz-adv-x="815" d="M47 299q0 66 23.5 148.5t73 170t117 160t165.5 119.5t207 47q74 0 124 -35.5t50 -101.5q0 -63 -37 -120t-94 -97t-130.5 -72t-142 -51t-133.5 -29q-30 -146 -30 -192q0 -105 36 -156t115 -51q105 0 183 71.5t149 202.5l37 -18q-170 -324 -400 -324q-47 0 -89 9t-84 32 t-72 59t-49 94.5t-19 133.5zM281 481q83 15 150.5 43.5t110 62t71.5 72t41 72.5t12 64q0 108 -91 108q-84 0 -166.5 -127.5t-127.5 -294.5zM477 1098q172 193 266 307q77 92 152 92q32 0 51 -19.5t19 -45.5q0 -38 -27.5 -69t-79.5 -67q-29 -19 -138 -85t-220 -138z" />
<glyph unicode="&#xea;" horiz-adv-x="815" d="M47 299q0 66 23.5 148.5t73 170t117 160t165.5 119.5t207 47q74 0 124 -35.5t50 -101.5q0 -63 -37 -120t-94 -97t-130.5 -72t-142 -51t-133.5 -29q-30 -146 -30 -192q0 -105 36 -156t115 -51q105 0 183 71.5t149 202.5l37 -18q-170 -324 -400 -324q-47 0 -89 9t-84 32 t-72 59t-49 94.5t-19 133.5zM270 1075q223 240 322 350q27 30 43 37.5t59 7.5q37 0 49 -7t23 -34q16 -35 64 -155t83 -203l-31 -17l-215 277l-374 -277zM281 481q83 15 150.5 43.5t110 62t71.5 72t41 72.5t12 64q0 108 -91 108q-84 0 -166.5 -127.5t-127.5 -294.5z" />
<glyph unicode="&#xeb;" horiz-adv-x="815" d="M47 299q0 66 23.5 148.5t73 170t117 160t165.5 119.5t207 47q74 0 124 -35.5t50 -101.5q0 -63 -37 -120t-94 -97t-130.5 -72t-142 -51t-133.5 -29q-30 -146 -30 -192q0 -105 36 -156t115 -51q105 0 183 71.5t149 202.5l37 -18q-170 -324 -400 -324q-47 0 -89 9t-84 32 t-72 59t-49 94.5t-19 133.5zM281 481q83 15 150.5 43.5t110 62t71.5 72t41 72.5t12 64q0 108 -91 108q-84 0 -166.5 -127.5t-127.5 -294.5zM297 1309q0 55 38.5 95t100.5 40q41 0 69 -33t28 -72q0 -56 -36.5 -96.5t-96.5 -40.5q-48 0 -75.5 31.5t-27.5 75.5zM733 1309 q0 55 40 95t102 40q41 0 67.5 -33t26.5 -72q0 -56 -35.5 -96.5t-95.5 -40.5q-49 0 -77 31.5t-28 75.5z" />
<glyph unicode="&#xec;" horiz-adv-x="684" d="M39 633q25 61 45 102.5t47 84t54.5 67.5t64.5 41t80 16q76 0 140.5 -45.5t64.5 -128.5q0 -56 -64 -207l-117 -301q-47 -117 -47 -162q0 -24 6 -39t17.5 -21.5t22.5 -8.5t28 -2q70 0 121 65t106 205l37 -12q-31 -76 -57.5 -126.5t-61.5 -95.5t-77.5 -66.5t-94.5 -21.5 q-36 0 -71 8t-68 25t-53.5 50t-20.5 77q0 61 41 170l137 348q48 119 48 162q0 78 -68 78q-67 0 -116 -66.5t-105 -210.5zM215 1419q0 33 21.5 55.5t54.5 22.5q39 0 63.5 -24.5t47.5 -79.5q103 -235 131 -297l-31 -21q-168 173 -225 228q-62 59 -62 116z" />
<glyph unicode="&#xed;" horiz-adv-x="684" d="M39 633q25 61 45 102.5t47 84t54.5 67.5t64.5 41t80 16q76 0 140.5 -45.5t64.5 -128.5q0 -56 -64 -207l-117 -301q-47 -117 -47 -162q0 -24 6 -39t17.5 -21.5t22.5 -8.5t28 -2q70 0 121 65t106 205l37 -12q-31 -76 -57.5 -126.5t-61.5 -95.5t-77.5 -66.5t-94.5 -21.5 q-36 0 -71 8t-68 25t-53.5 50t-20.5 77q0 61 41 170l137 348q48 119 48 162q0 78 -68 78q-67 0 -116 -66.5t-105 -210.5zM313 1098q172 193 266 307q77 92 152 92q32 0 51 -19.5t19 -45.5q0 -38 -27.5 -69t-79.5 -67q-29 -19 -138 -85t-220 -138z" />
<glyph unicode="&#xee;" horiz-adv-x="684" d="M39 633q25 61 45 102.5t47 84t54.5 67.5t64.5 41t80 16q76 0 140.5 -45.5t64.5 -128.5q0 -56 -64 -207l-117 -301q-47 -117 -47 -162q0 -24 6 -39t17.5 -21.5t22.5 -8.5t28 -2q70 0 121 65t106 205l37 -12q-31 -76 -57.5 -126.5t-61.5 -95.5t-77.5 -66.5t-94.5 -21.5 q-36 0 -71 8t-68 25t-53.5 50t-20.5 77q0 61 41 170l137 348q48 119 48 162q0 78 -68 78q-67 0 -116 -66.5t-105 -210.5zM141 1106q81 94 172 210t111 140q3 3 9.5 11t8 9.5t6.5 7t6.5 6t6 4t8 3.5t8 2t10.5 1.5t12.5 0t16.5 0.5q9 0 16 -0.5t12.5 -0.5t9.5 -1.5t7 -2 t5.5 -3l4 -4t3 -5.5t2.5 -6.5t3 -8t3 -9.5q10 -28 42.5 -146.5t65.5 -213.5l-35 -17l-174 275l-313 -273z" />
<glyph unicode="&#xef;" horiz-adv-x="684" d="M39 633q25 61 45 102.5t47 84t54.5 67.5t64.5 41t80 16q76 0 140.5 -45.5t64.5 -128.5q0 -56 -64 -207l-117 -301q-47 -117 -47 -162q0 -24 6 -39t17.5 -21.5t22.5 -8.5t28 -2q70 0 121 65t106 205l37 -12q-31 -76 -57.5 -126.5t-61.5 -95.5t-77.5 -66.5t-94.5 -21.5 q-36 0 -71 8t-68 25t-53.5 50t-20.5 77q0 61 41 170l137 348q48 119 48 162q0 78 -68 78q-67 0 -116 -66.5t-105 -210.5zM178 1321q0 50 34 85.5t81 35.5q53 0 87 -33.5t34 -79.5q0 -52 -34.5 -88.5t-86.5 -36.5q-47 0 -81 35t-34 82zM561 1321q0 50 34 85.5t83 35.5 q51 0 85 -33.5t34 -79.5q0 -51 -34 -87t-85 -36q-49 0 -83 33.5t-34 81.5z" />
<glyph unicode="&#xf0;" horiz-adv-x="985" d="M55 330q0 70 24 151.5t72.5 163.5t113 149t154.5 108.5t189 41.5q117 0 183 -98h8q6 56 6 112q0 199 -70 336l-239 -161l-29 43l244 165q-55 93 -142 156l35 37q109 -65 182 -141l211 145l27 -47l-203 -137q164 -193 164 -488q0 -146 -28 -280.5t-82.5 -246t-129.5 -194 t-174.5 -128.5t-212.5 -46q-55 0 -106.5 21t-96.5 62t-72.5 112.5t-27.5 163.5zM248 291q0 -136 39 -208.5t102 -72.5q82 0 151 62t111.5 156.5t66 200t23.5 200.5q0 134 -41.5 207t-101.5 73q-62 0 -118.5 -41t-98 -107t-72 -147.5t-46 -165.5t-15.5 -157z" />
<glyph unicode="&#xf1;" horiz-adv-x="1226" d="M47 633q31 76 57 126t61 95.5t77.5 67.5t95.5 22q188 0 188 -186l9 -2q138 188 290 188q101 0 168.5 -67.5t67.5 -161.5q0 -46 -39 -152l-115 -301q-45 -120 -45 -160q0 -45 20 -59t56 -14q68 0 119 65.5t106 204.5l39 -12q-63 -156 -128 -233t-165 -77q-36 0 -71 8 t-70 25t-56.5 50t-21.5 77q0 53 45 170l121 320q39 106 39 153q0 59 -26.5 79t-73.5 20q-80 0 -160.5 -72.5t-136.5 -181.5l-205 -625h-187l222 655q13 39 26 93.5t13 72.5q0 41 -14 57.5t-44 16.5q-67 0 -116 -66.5t-105 -210.5zM393 1145q22 41 50 80.5t65.5 81.5t83 68 t88.5 26t83.5 -18.5t66.5 -41t60 -41t66 -18.5q63 0 107 37t94 113l37 -19q-22 -41 -50 -80.5t-65.5 -81.5t-83 -68t-88.5 -26t-83.5 18.5t-67 41t-60.5 41t-66 18.5q-44 0 -81 -21.5t-61.5 -50t-57.5 -78.5z" />
<glyph unicode="&#xf2;" horiz-adv-x="985" d="M55 330q0 68 22.5 148t70.5 163t113.5 150t162 110t205.5 43q55 0 106.5 -21t96.5 -62.5t72.5 -113t27.5 -163.5q0 -68 -22 -148t-69.5 -162.5t-113.5 -150t-162.5 -110t-206.5 -42.5q-55 0 -106.5 21t-96.5 62t-72.5 112.5t-27.5 163.5zM248 291q0 -136 39 -208.5 t102 -72.5q66 0 124 41t98.5 106.5t70 148t43.5 165.5t14 158q0 134 -41 207t-100 73q-62 0 -118.5 -41t-98 -107t-72 -147.5t-46 -165.5t-15.5 -157zM399 1419q0 33 21.5 55.5t54.5 22.5q39 0 63.5 -24.5t47.5 -79.5q103 -235 131 -297l-31 -21q-168 173 -225 228 q-62 59 -62 116z" />
<glyph unicode="&#xf3;" horiz-adv-x="985" d="M55 330q0 68 22.5 148t70.5 163t113.5 150t162 110t205.5 43q55 0 106.5 -21t96.5 -62.5t72.5 -113t27.5 -163.5q0 -68 -22 -148t-69.5 -162.5t-113.5 -150t-162.5 -110t-206.5 -42.5q-55 0 -106.5 21t-96.5 62t-72.5 112.5t-27.5 163.5zM248 291q0 -136 39 -208.5 t102 -72.5q66 0 124 41t98.5 106.5t70 148t43.5 165.5t14 158q0 134 -41 207t-100 73q-62 0 -118.5 -41t-98 -107t-72 -147.5t-46 -165.5t-15.5 -157zM491 1098q172 193 266 307q77 92 152 92q32 0 51 -19.5t19 -45.5q0 -38 -27.5 -69t-79.5 -67q-29 -19 -138 -85t-220 -138 z" />
<glyph unicode="&#xf4;" horiz-adv-x="985" d="M55 330q0 68 22.5 148t70.5 163t113.5 150t162 110t205.5 43q55 0 106.5 -21t96.5 -62.5t72.5 -113t27.5 -163.5q0 -68 -22 -148t-69.5 -162.5t-113.5 -150t-162.5 -110t-206.5 -42.5q-55 0 -106.5 21t-96.5 62t-72.5 112.5t-27.5 163.5zM248 291q0 -136 39 -208.5 t102 -72.5q66 0 124 41t98.5 106.5t70 148t43.5 165.5t14 158q0 134 -41 207t-100 73q-62 0 -118.5 -41t-98 -107t-72 -147.5t-46 -165.5t-15.5 -157zM313 1106q223 240 322 350q27 30 43 37.5t59 7.5q37 0 49 -7t23 -34q16 -35 64 -155t83 -203l-31 -17l-215 277l-374 -277 z" />
<glyph unicode="&#xf5;" horiz-adv-x="985" d="M55 330q0 68 22.5 148t70.5 163t113.5 150t162 110t205.5 43q55 0 106.5 -21t96.5 -62.5t72.5 -113t27.5 -163.5q0 -68 -22 -148t-69.5 -162.5t-113.5 -150t-162.5 -110t-206.5 -42.5q-55 0 -106.5 21t-96.5 62t-72.5 112.5t-27.5 163.5zM248 291q0 -136 39 -208.5 t102 -72.5q66 0 124 41t98.5 106.5t70 148t43.5 165.5t14 158q0 134 -41 207t-100 73q-62 0 -118.5 -41t-98 -107t-72 -147.5t-46 -165.5t-15.5 -157zM266 1145q22 41 50 80.5t65.5 81.5t83 68t88.5 26t83.5 -18.5t66.5 -41t60 -41t66 -18.5q63 0 107 37t94 113l37 -19 q-22 -41 -50 -80.5t-65.5 -81.5t-83 -68t-88.5 -26t-83.5 18.5t-67 41t-60.5 41t-66 18.5q-44 0 -81 -21.5t-61.5 -50t-57.5 -78.5z" />
<glyph unicode="&#xf6;" horiz-adv-x="985" d="M55 330q0 68 22.5 148t70.5 163t113.5 150t162 110t205.5 43q55 0 106.5 -21t96.5 -62.5t72.5 -113t27.5 -163.5q0 -68 -22 -148t-69.5 -162.5t-113.5 -150t-162.5 -110t-206.5 -42.5q-55 0 -106.5 21t-96.5 62t-72.5 112.5t-27.5 163.5zM248 291q0 -136 39 -208.5 t102 -72.5q66 0 124 41t98.5 106.5t70 148t43.5 165.5t14 158q0 134 -41 207t-100 73q-62 0 -118.5 -41t-98 -107t-72 -147.5t-46 -165.5t-15.5 -157zM356 1309q0 55 38.5 95t100.5 40q41 0 69 -33t28 -72q0 -56 -36.5 -96.5t-96.5 -40.5q-48 0 -75.5 31.5t-27.5 75.5z M792 1309q0 55 40 95t102 40q41 0 67.5 -33t26.5 -72q0 -56 -35.5 -96.5t-95.5 -40.5q-49 0 -77 31.5t-28 75.5z" />
<glyph unicode="&#xf7;" horiz-adv-x="1187" d="M137 485v95h987v-95h-987zM500 154q0 54 38.5 92.5t92.5 38.5t92.5 -38.5t38.5 -92.5t-38.5 -91.5t-92.5 -37.5t-92.5 37.5t-38.5 91.5zM500 909q0 54 38.5 91.5t92.5 37.5t92.5 -37.5t38.5 -91.5t-38.5 -92.5t-92.5 -38.5t-92.5 38.5t-38.5 92.5z" />
<glyph unicode="&#xf8;" horiz-adv-x="985" d="M-63 -43l165 164q-47 86 -47 209q0 68 22.5 148t70.5 163t113.5 150t162 110t205.5 43q130 0 211 -94l155 154l37 -31l-162 -160q62 -92 62 -229q0 -68 -22 -148t-69.5 -162.5t-113.5 -150t-162.5 -110t-206.5 -42.5q-63 0 -124 28t-105 83l-156 -156zM246 256l485 492 q-14 80 -50.5 120.5t-82.5 40.5q-77 0 -145 -62t-112 -156.5t-69.5 -200.5t-25.5 -199v-35zM250 197q11 -94 49 -140.5t90 -46.5q82 0 151 62t111.5 156.5t66 200t23.5 200.5q0 45 -2 61z" />
<glyph unicode="&#xf9;" horiz-adv-x="1214" d="M41 633q30 76 55.5 125.5t60 94t76.5 66t95 21.5q77 0 140.5 -40.5t63.5 -119.5q0 -55 -43 -170l-124 -319q-39 -103 -39 -148q0 -60 26.5 -82t73.5 -22q80 0 158 63.5t129 155.5l207 655h188l-215 -651q-33 -113 -33 -147q0 -86 68 -86t118 65t105 205l41 -12 q-63 -156 -128 -233t-165 -77q-93 0 -143.5 44t-50.5 147l-9 2q-60 -85 -138.5 -141t-160.5 -56q-101 0 -169 68.5t-68 161.5q0 53 41 151l116 301q43 107 43 166q0 42 -15 58t-46 16q-67 0 -116 -66.5t-105 -210.5zM448 1419q0 33 21.5 55.5t54.5 22.5q39 0 63.5 -24.5 t47.5 -79.5q103 -235 131 -297l-31 -21q-168 173 -225 228q-62 59 -62 116z" />
<glyph unicode="&#xfa;" horiz-adv-x="1214" d="M41 633q30 76 55.5 125.5t60 94t76.5 66t95 21.5q77 0 140.5 -40.5t63.5 -119.5q0 -55 -43 -170l-124 -319q-39 -103 -39 -148q0 -60 26.5 -82t73.5 -22q80 0 158 63.5t129 155.5l207 655h188l-215 -651q-33 -113 -33 -147q0 -86 68 -86t118 65t105 205l41 -12 q-63 -156 -128 -233t-165 -77q-93 0 -143.5 44t-50.5 147l-9 2q-60 -85 -138.5 -141t-160.5 -56q-101 0 -169 68.5t-68 161.5q0 53 41 151l116 301q43 107 43 166q0 42 -15 58t-46 16q-67 0 -116 -66.5t-105 -210.5zM645 1098q172 193 266 307q77 92 152 92q32 0 51 -19.5 t19 -45.5q0 -38 -27.5 -69t-79.5 -67q-29 -19 -138 -85t-220 -138z" />
<glyph unicode="&#xfb;" horiz-adv-x="1214" d="M41 633q30 76 55.5 125.5t60 94t76.5 66t95 21.5q77 0 140.5 -40.5t63.5 -119.5q0 -55 -43 -170l-124 -319q-39 -103 -39 -148q0 -60 26.5 -82t73.5 -22q80 0 158 63.5t129 155.5l207 655h188l-215 -651q-33 -113 -33 -147q0 -86 68 -86t118 65t105 205l41 -12 q-63 -156 -128 -233t-165 -77q-93 0 -143.5 44t-50.5 147l-9 2q-60 -85 -138.5 -141t-160.5 -56q-101 0 -169 68.5t-68 161.5q0 53 41 151l116 301q43 107 43 166q0 42 -15 58t-46 16q-67 0 -116 -66.5t-105 -210.5zM410 1106q223 240 322 350q27 30 43 37.5t59 7.5 q37 0 49 -7t23 -34q16 -35 64 -155t83 -203l-31 -17l-215 277l-374 -277z" />
<glyph unicode="&#xfc;" horiz-adv-x="1214" d="M41 633q30 76 55.5 125.5t60 94t76.5 66t95 21.5q77 0 140.5 -40.5t63.5 -119.5q0 -55 -43 -170l-124 -319q-39 -103 -39 -148q0 -60 26.5 -82t73.5 -22q80 0 158 63.5t129 155.5l207 655h188l-215 -651q-33 -113 -33 -147q0 -86 68 -86t118 65t105 205l41 -12 q-63 -156 -128 -233t-165 -77q-93 0 -143.5 44t-50.5 147l-9 2q-60 -85 -138.5 -141t-160.5 -56q-101 0 -169 68.5t-68 161.5q0 53 41 151l116 301q43 107 43 166q0 42 -15 58t-46 16q-67 0 -116 -66.5t-105 -210.5zM450 1309q0 55 38.5 95t100.5 40q41 0 69 -33t28 -72 q0 -56 -36.5 -96.5t-96.5 -40.5q-48 0 -75.5 31.5t-27.5 75.5zM886 1309q0 55 40 95t102 40q41 0 67.5 -33t26.5 -72q0 -56 -35.5 -96.5t-95.5 -40.5q-49 0 -77 31.5t-28 75.5z" />
<glyph unicode="&#xfd;" horiz-adv-x="1101" d="M-90 -297q0 75 39.5 108t95.5 33q43 0 68.5 -29t25.5 -57q0 -74 -41 -94q-14 -7 -36.5 -9t-35 -8t-16.5 -26q2 -26 17 -42t42 -22t44 -7t46 -1h9q154 0 291.5 148.5t236.5 452.5l-8 2q-139 -177 -291 -177q-101 0 -169 68.5t-68 161.5q0 55 41 153l116 297q45 112 45 170 q0 42 -13.5 56t-45.5 14q-68 0 -117.5 -67t-105.5 -210l-37 15q30 76 56 126t60.5 95.5t77 67.5t95.5 22q77 0 140 -40.5t63 -119.5q0 -51 -46 -174l-127 -315q-38 -101 -38 -150q0 -60 27.5 -81t74.5 -21q79 0 155 55t132 135l211 680h182l-215 -696q-57 -184 -136 -321.5 t-171 -220.5t-193 -123.5t-211 -40.5q-68 0 -119.5 15t-79 36t-44.5 49t-22 49.5t-5 42.5zM639 1098q172 193 266 307q77 92 152 92q32 0 51 -19.5t19 -45.5q0 -38 -27.5 -69t-79.5 -67q-29 -19 -138 -85t-220 -138z" />
<glyph unicode="&#xfe;" horiz-adv-x="1044" d="M-299 -440q67 0 100.5 11t53.5 34q9 10 18 25t15 27t14 33t11 29.5t10.5 31.5t8.5 26l457 1470q31 99 31 137q0 55 -82 66q-39 5 -123 8v41l447 21l-238 -736l6 -2q137 162 275 162q44 0 83.5 -8.5t79.5 -31t68.5 -57.5t46.5 -92.5t18 -131.5q0 -66 -24.5 -149.5 t-75.5 -171.5t-119 -161.5t-164 -120.5t-202 -47q-75 0 -129 37t-68 94h-8l-100 -331q-29 -101 -29 -138q0 -31 22 -45.5t62 -19.5q44 -5 113 -8v-41h-578v39zM238 180q11 -82 61 -122t123 -40q100 0 192.5 112t143.5 261t51 273q0 210 -135 210q-150 0 -279 -188z" />
<glyph unicode="&#xff;" horiz-adv-x="1101" d="M-90 -297q0 75 39.5 108t95.5 33q43 0 68.5 -29t25.5 -57q0 -74 -41 -94q-14 -7 -36.5 -9t-35 -8t-16.5 -26q2 -26 17 -42t42 -22t44 -7t46 -1h9q154 0 291.5 148.5t236.5 452.5l-8 2q-139 -177 -291 -177q-101 0 -169 68.5t-68 161.5q0 55 41 153l116 297q45 112 45 170 q0 42 -13.5 56t-45.5 14q-68 0 -117.5 -67t-105.5 -210l-37 15q30 76 56 126t60.5 95.5t77 67.5t95.5 22q77 0 140 -40.5t63 -119.5q0 -51 -46 -174l-127 -315q-38 -101 -38 -150q0 -60 27.5 -81t74.5 -21q79 0 155 55t132 135l211 680h182l-215 -696q-57 -184 -136 -321.5 t-171 -220.5t-193 -123.5t-211 -40.5q-68 0 -119.5 15t-79 36t-44.5 49t-22 49.5t-5 42.5zM457 1309q0 55 38.5 95t100.5 40q41 0 69 -33t28 -72q0 -56 -36.5 -96.5t-96.5 -40.5q-48 0 -75.5 31.5t-27.5 75.5zM893 1309q0 55 40 95t102 40q41 0 67.5 -33t26.5 -72 q0 -56 -35.5 -96.5t-95.5 -40.5q-49 0 -77 31.5t-28 75.5z" />
<glyph unicode="&#x152;" horiz-adv-x="2045" d="M106 539q0 159 77 340t218 311q112 104 246.5 158.5t274.5 54.5q90 0 214 -2t185 -2h801l-88 -320h-52v17q0 92 -39 161t-104 78q-57 8 -160 8h-221l-166 -591h160q120 0 195 65q26 21 59.5 80.5t52.5 106.5h53l-159 -570h-49q6 37 6 92q0 80 -17 107q-13 19 -23.5 29.5 t-45 22t-86.5 11.5h-160l-127 -452q-21 -72 -21 -99q0 -55 44 -71.5t163 -16.5q92 0 140 1.5t108 12.5t88 33q63 51 137 143t103 146h51l-133 -393h-885q-71 0 -177 -2t-161 -2q-135 0 -223.5 44t-173.5 148q-105 129 -105 351zM326 475q0 -204 80.5 -311t203.5 -107 q74 0 121.5 15t104.5 55q114 79 249 575q30 109 44.5 165t30.5 139t16 135q0 107 -63 154.5t-187 47.5q-163 0 -302 -123t-218.5 -322.5t-79.5 -422.5z" />
<glyph unicode="&#x153;" horiz-adv-x="1452" d="M55 330q0 68 22.5 148t70.5 163t113.5 150t162 110t205.5 43q180 0 260 -194q157 194 381 194q74 0 124 -35.5t50 -101.5q0 -63 -37 -120t-94 -97t-130.5 -72t-142 -51t-133.5 -29q-30 -146 -30 -192q0 -105 36 -156t115 -51q105 0 183 71.5t149 202.5l37 -18 q-170 -324 -400 -324q-192 0 -272 170q-158 -170 -367 -170q-55 0 -106.5 21t-96.5 62t-72.5 112.5t-27.5 163.5zM248 291q0 -136 39 -208.5t102 -72.5q66 0 124 41t98.5 106.5t70 148t43.5 165.5t14 158q0 134 -41 207t-100 73q-62 0 -118.5 -41t-98 -107t-72 -147.5 t-46 -165.5t-15.5 -157zM918 481q83 15 150.5 43.5t110 62t71.5 72t41 72.5t12 64q0 108 -91 108q-84 0 -166.5 -127.5t-127.5 -294.5z" />
<glyph unicode="&#x178;" horiz-adv-x="1286" d="M106 1108q107 315 357 315q100 0 177.5 -60.5t116 -151t38.5 -191.5q0 -67 -19 -197h19q116 296 271 449t302 153q67 0 102 -37t35 -81q0 -136 -119 -136q-53 0 -78.5 31.5t-25.5 63.5q0 8 1.5 16t2.5 13t5.5 12.5t5.5 9.5t7 10.5t7 9.5l-8 11q-62 -15 -147.5 -93 t-164.5 -190q-56 -79 -112.5 -192.5t-85.5 -231.5l-117 -469q-6 -24 -6 -41q3 -39 47 -59q15 -8 75 -18.5t89 -10.5l-11 -43h-641l11 43q103 6 147 20q66 22 84 101l123 502q20 78 20 278q0 72 -12 131.5t-39 111.5t-77.5 81.5t-120.5 29.5q-149 0 -213 -204zM600 1659 q0 55 38.5 95t100.5 40q41 0 69 -33t28 -72q0 -56 -36.5 -96.5t-96.5 -40.5q-48 0 -75.5 31.5t-27.5 75.5zM1036 1659q0 55 40 95t102 40q41 0 67.5 -33t26.5 -72q0 -56 -35.5 -96.5t-95.5 -40.5q-49 0 -77 31.5t-28 75.5z" />
<glyph unicode="&#x2c6;" horiz-adv-x="1024" d="M344 1106q223 240 322 350q27 30 43 37.5t59 7.5q37 0 49 -7t23 -34q16 -35 64 -155t83 -203l-31 -17l-215 277l-374 -277z" />
<glyph unicode="&#x2dc;" horiz-adv-x="1024" d="M293 1145q22 41 50 80.5t65.5 81.5t83 68t88.5 26t83.5 -18.5t66.5 -41t60 -41t66 -18.5q63 0 107 37t94 113l37 -19q-22 -41 -50 -80.5t-65.5 -81.5t-83 -68t-88.5 -26t-83.5 18.5t-67 41t-60.5 41t-66 18.5q-44 0 -81 -21.5t-61.5 -50t-57.5 -78.5z" />
<glyph unicode="&#x2000;" horiz-adv-x="955" />
<glyph unicode="&#x2001;" horiz-adv-x="1911" />
<glyph unicode="&#x2002;" horiz-adv-x="955" />
<glyph unicode="&#x2003;" horiz-adv-x="1911" />
<glyph unicode="&#x2004;" horiz-adv-x="637" />
<glyph unicode="&#x2005;" horiz-adv-x="477" />
<glyph unicode="&#x2006;" horiz-adv-x="318" />
<glyph unicode="&#x2007;" horiz-adv-x="318" />
<glyph unicode="&#x2008;" horiz-adv-x="238" />
<glyph unicode="&#x2009;" horiz-adv-x="382" />
<glyph unicode="&#x200a;" horiz-adv-x="106" />
<glyph unicode="&#x2010;" horiz-adv-x="716" d="M59 422l41 149h555l-41 -149h-555z" />
<glyph unicode="&#x2011;" horiz-adv-x="716" d="M59 422l41 149h555l-41 -149h-555z" />
<glyph unicode="&#x2012;" horiz-adv-x="716" d="M59 422l41 149h555l-41 -149h-555z" />
<glyph unicode="&#x2013;" horiz-adv-x="1048" d="M106 485l33 119h844l-33 -119h-844z" />
<glyph unicode="&#x2014;" horiz-adv-x="1843" d="M186 465l33 115h1540l-33 -115h-1540z" />
<glyph unicode="&#x2018;" horiz-adv-x="378" d="M236 1135q0 114 81.5 203.5t233.5 168.5l20 -47q-104 -57 -161.5 -114t-71.5 -136h41q61 0 95 -29t34 -75t-38.5 -88.5t-98.5 -42.5q-65 0 -100 40t-35 120z" />
<glyph unicode="&#x2019;" horiz-adv-x="378" d="M221 1024q104 57 162 114t72 136h-41q-61 0 -95 29t-34 75t38.5 88.5t98.5 42.5q65 0 100 -39.5t35 -119.5q0 -114 -81.5 -204t-233.5 -169z" />
<glyph unicode="&#x201a;" horiz-adv-x="460" d="M-55 -246q104 57 161.5 114t71.5 136h-41q-61 0 -95 29.5t-34 75.5t38.5 88.5t98.5 42.5q65 0 100.5 -40t35.5 -120q0 -114 -82 -204t-234 -169z" />
<glyph unicode="&#x201c;" horiz-adv-x="724" d="M236 1124q0 118 79 208.5t238 172.5l18 -45q-104 -57 -162.5 -115.5t-72.5 -140.5h37q58 0 92.5 -30t34.5 -76t-36 -84.5t-95 -38.5q-64 0 -98.5 38.5t-34.5 110.5zM582 1124q0 118 79 208.5t238 172.5l19 -45q-105 -57 -163.5 -115.5t-72.5 -140.5h37q58 0 92.5 -30 t34.5 -76t-36 -84.5t-95 -38.5q-64 0 -98.5 38.5t-34.5 110.5z" />
<glyph unicode="&#x201d;" horiz-adv-x="724" d="M221 1024q105 57 163.5 115.5t72.5 140.5h-37q-58 0 -92.5 30t-34.5 76t36 84.5t95 38.5q64 0 98.5 -38.5t34.5 -110.5q0 -118 -79 -208.5t-238 -172.5zM567 1024q105 57 163.5 115.5t72.5 140.5h-37q-58 0 -92.5 30t-34.5 76t36 84.5t95 38.5q64 0 98.5 -38.5 t34.5 -110.5q0 -118 -79 -208.5t-238 -172.5z" />
<glyph unicode="&#x201e;" horiz-adv-x="806" d="M-63 -252q104 57 162.5 115.5t72.5 140.5h-37q-58 0 -92.5 30.5t-34.5 76.5t36 84t95 38q64 0 98.5 -38.5t34.5 -110.5q0 -118 -79 -208.5t-238 -172.5zM283 -252q104 57 162.5 115.5t72.5 140.5h-37q-58 0 -92.5 30.5t-34.5 76.5t36 84t95 38q64 0 98.5 -38.5 t34.5 -110.5q0 -118 -79 -208.5t-238 -172.5z" />
<glyph unicode="&#x2022;" horiz-adv-x="845" d="M178 666q0 114 82.5 196t196.5 82t196 -82t82 -196t-82 -194.5t-196 -80.5t-196.5 80.5t-82.5 194.5z" />
<glyph unicode="&#x2026;" horiz-adv-x="1613" d="M74 113q0 54 38.5 92.5t92.5 38.5t92.5 -38.5t38.5 -92.5t-38.5 -91.5t-92.5 -37.5t-92.5 37.5t-38.5 91.5zM635 113q0 54 38.5 92.5t92.5 38.5t92.5 -38.5t38.5 -92.5t-38.5 -91.5t-92.5 -37.5t-92.5 37.5t-38.5 91.5zM1196 113q0 54 38.5 92.5t92.5 38.5t92.5 -38.5 t38.5 -92.5t-38.5 -91.5t-92.5 -37.5t-92.5 37.5t-38.5 91.5z" />
<glyph unicode="&#x202f;" horiz-adv-x="382" />
<glyph unicode="&#x2039;" horiz-adv-x="718" d="M92 420q0 17 13 54t36 52q372 240 543 359l23 -25l-441 -416l217 -395l-28 -18q-294 304 -332 342q-21 19 -26 27.5t-5 19.5z" />
<glyph unicode="&#x203a;" horiz-adv-x="718" d="M20 55l441 416l-217 395l28 19q294 -304 332 -342q21 -19 26 -27.5t5 -19.5q0 -17 -13 -54.5t-36 -52.5q-393 -254 -543 -358z" />
<glyph unicode="&#x205f;" horiz-adv-x="477" />
<glyph unicode="&#x2122;" horiz-adv-x="1355" d="M260 1247v152h477v-152h-24q-11 34 -32.5 71t-43.5 40q-18 2 -59 2h-29v-399q0 -26 22 -35q62 -12 66 -13v-26h-277v26q64 9 68 11q25 9 25 32v404h-31q-42 0 -60 -2q-22 -3 -45.5 -42t-31.5 -69h-25zM795 887v26q62 10 75 19q25 19 25 100v254q0 42 -23 62 q-37 22 -71 22v29h207l151 -365l117 297q11 26 16 68h213v-29q-21 0 -63 -12q-21 -9 -21 -35v-360q0 -26 21 -35q12 -8 65 -15v-26h-276v26q2 0 21 2.5t35 5t20 5.5q20 11 20 37v356h-12l-180 -426h-21q-5 16 -18.5 51t-20.5 55l-125 310h-12v-271q0 -79 25 -100 q17 -15 79 -25v-26h-247z" />
<glyph unicode="&#x25fc;" horiz-adv-x="942" d="M0 0v942h942v-942h-942z" />
</font>
</defs>
</svg>
