<?xml version="1.0" standalone="no"?>
<!DOCTYPE svg PUBLIC "-//W3C//DTD SVG 1.1//EN" "http://www.w3.org/Graphics/SVG/1.1/DTD/svg11.dtd" >
<svg xmlns="http://www.w3.org/2000/svg">
<metadata></metadata>
<defs>
<font id="millerdisplaysemibolditalic" horiz-adv-x="1460" >
<font-face units-per-em="2048" ascent="1556" descent="-492" />
<missing-glyph horiz-adv-x="444" />
<glyph unicode="&#xfb01;" horiz-adv-x="1173" d="M-477 -307q0 46 35 86.5t92 40.5q47 0 89 -29t42 -88q0 -16 -7 -32t-15 -26.5t-22 -27t-20 -25.5q3 -17 11.5 -26.5t19.5 -9.5q45 0 81.5 17.5t64 48t55 88t50 120t52.5 162.5q45 149 84 294.5t89.5 348.5t54.5 217h-197l20 68h197l23 73q74 257 256 414q133 115 315 115 q124 0 199 -59t75 -140q0 -42 -35.5 -87.5t-97.5 -45.5q-58 0 -99.5 28t-41.5 89q0 26 26.5 75.5t28.5 65.5q-13 33 -82 33q-94 0 -168.5 -101.5t-134.5 -324.5l-37 -135h561q-8 -117 -98 -349l-121 -309q-57 -147 -57 -178q0 -33 15.5 -44t45.5 -11q64 0 119.5 68 t108.5 202l37 -12q-30 -75 -58 -126.5t-63.5 -95.5t-79 -66t-96.5 -22q-55 0 -105 15t-88.5 54.5t-38.5 98.5q0 58 39 162l137 357q41 103 47 188h-323q-14 -55 -63.5 -249.5t-85 -324t-66.5 -229.5q-88 -283 -248 -414q-139 -118 -305 -118q-112 0 -164.5 49t-52.5 127z " />
<glyph unicode="&#xfb02;" horiz-adv-x="1206" d="M-477 -307q0 46 35 86.5t92 40.5q46 0 87.5 -29.5t41.5 -87.5q0 -21 -8 -38.5t-29 -42.5t-25 -30q1 -16 10.5 -26t20.5 -10q45 0 81.5 17.5t64 48t55 88t50 120t52.5 162.5q45 149 84 294.5t89.5 348.5t54.5 217h-197l20 68h197l23 73q38 133 96.5 232.5t152.5 181.5 q131 115 310 115q112 0 182 -56l244 50l-402 -1258q-49 -145 -49 -176t15 -42t42 -11q67 0 122 67t108 203l37 -12q-30 -75 -58 -126.5t-63.5 -95.5t-79 -66t-96.5 -22q-39 0 -77.5 9t-74 27.5t-57 52.5t-21.5 79q0 49 37 162l303 963q-32 22 -42 61.5t-5 110.5 q-8 21 -37 30t-55 9q-89 0 -158.5 -102t-132.5 -324l-37 -135h224l-23 -68h-217q-14 -54 -50.5 -194.5t-58 -223.5t-53 -195t-55.5 -190q-88 -283 -248 -414q-139 -118 -305 -118q-112 0 -164.5 49t-52.5 127z" />
<glyph horiz-adv-x="0" />
<glyph horiz-adv-x="682" />
<glyph unicode="&#xd;" horiz-adv-x="0" />
<glyph unicode=" "  horiz-adv-x="444" />
<glyph unicode="&#x09;" horiz-adv-x="444" />
<glyph unicode="&#xa0;" horiz-adv-x="444" />
<glyph unicode="!" horiz-adv-x="747" d="M129 125q0 60 42 101.5t103 41.5t103.5 -41.5t42.5 -101.5q0 -61 -42 -102t-104 -41t-103.5 41t-41.5 102zM326 438q40 210 67.5 501t36.5 325q19 73 65.5 118t110.5 45q58 0 91.5 -36.5t33.5 -98.5q0 -47 -53.5 -166t-146.5 -320.5t-156 -377.5z" />
<glyph unicode="&#x22;" horiz-adv-x="813" d="M244 1348q0 161 125 161q58 0 91.5 -33.5t33.5 -86.5q0 -29 -24.5 -78.5t-80 -150t-98.5 -193.5h-41q2 108 0.5 170.5t-4 126.5t-2.5 84zM649 1348q0 161 123 161q59 0 92 -33t33 -87q0 -29 -24 -78.5t-80 -150.5t-99 -193h-41q3 110 2 170.5t-3.5 126.5t-2.5 84z" />
<glyph unicode="#" horiz-adv-x="1146" d="M109 215l57 234l235 55l50 194l-238 -57l59 233l238 58l88 352h53l-84 -340l250 60l70 280h53l-66 -268l242 57l-57 -233l-244 -58l-47 -192l242 57l-58 -233l-243 -58l-93 -370h-53l88 356l-250 -57l-73 -299h-54l70 284zM461 518l248 57l49 195l-250 -59z" />
<glyph unicode="$" horiz-adv-x="1234" d="M86 276q0 87 51 152.5t125 65.5q49 0 78 -27.5t29 -73.5q0 -43 -24.5 -69t-62 -45.5t-51.5 -36.5q-19 -66 28 -115t149 -68l120 488q-124 33 -195 109t-71 198q0 161 123.5 270.5t319.5 128.5l51 207h49l-51 -203h24q33 0 103 -8l53 211h49l-55 -221q107 -27 175 -83.5 t68 -135.5q0 -78 -42 -139.5t-103 -61.5q-45 0 -74.5 23.5t-29.5 62.5q0 35 17.5 62t39.5 41t47.5 34t36.5 39q-3 35 -43 64t-105 47l-112 -455q150 -39 225.5 -109.5t75.5 -191.5t-67.5 -218t-176 -151.5t-239.5 -66.5l-74 -291h-49l71 289h-30q-51 0 -97 6l-73 -295h-50 l76 303q-145 26 -227 96.5t-82 167.5zM455 53q41 -6 90 -6h37q1 4 112 461q-14 3 -38 9l-44 11t-37 9zM483 963q0 -120 109 -166l100 407q-105 -17 -157 -81.5t-52 -159.5zM633 53q118 19 186 85.5t68 172.5q0 140 -146 185zM637 780q76 -19 119 -30l112 452q-66 8 -106 8 h-19z" />
<glyph unicode="%" horiz-adv-x="1652" d="M135 -164l1360 1577l59 -39l-1364 -1577zM147 866q0 102 60 195.5t157.5 150t202.5 56.5q122 0 206.5 -71t84.5 -185q0 -83 -39 -159t-100 -127.5t-136.5 -81.5t-148.5 -30q-117 0 -202 70t-85 182zM332 815q0 -149 108 -149q90 0 162 121t72 278q0 154 -107 154 q-63 0 -118.5 -64.5t-86 -157.5t-30.5 -182zM856 225q0 102 59.5 195.5t156.5 150t202 56.5q122 0 206.5 -71t84.5 -185q0 -83 -38.5 -159t-99.5 -127.5t-136.5 -81.5t-149.5 -30q-117 0 -201 70t-84 182zM1038 174q0 -149 109 -149q91 0 163 121t72 278q0 69 -26 111.5 t-82 42.5q-63 0 -119 -64.5t-86.5 -157.5t-30.5 -182z" />
<glyph unicode="&#x26;" horiz-adv-x="1722" d="M162 430q0 60 17.5 108.5t51.5 84t67 59t81 49.5q-66 45 -103.5 102.5t-37.5 151.5q0 102 88.5 189.5t214.5 87.5q135 0 226 -69.5t120 -182.5l-33 -17q-85 133 -242 133q-109 0 -167 -64t-58 -167q0 -101 49 -139q7 3 41 16t50 18t42 11t45 6q66 0 106 -28t40 -72 q0 -38 -26.5 -63.5t-76.5 -25.5q-22 0 -42 2.5t-40.5 9t-34 11t-35 16.5t-29 16t-30.5 18t-26 16q-25 -11 -52.5 -54.5t-27.5 -105.5q0 -157 168 -269.5t438 -115.5q137 -1 246 35t175.5 99.5t101 143.5t34.5 170q0 139 -85 213t-212 74q-93 0 -155 -50t-62 -134t44 -126 t114 -42q31 0 48 6t46 24q-73 21 -96 38q-37 26 -37 71q0 57 34 83t72 26q57 0 98.5 -31.5t41.5 -97.5q0 -68 -49.5 -118t-133.5 -50q-104 0 -182 65.5t-78 173.5q0 67 21 120.5t55.5 88t80.5 58t93 33t96 9.5q27 0 112 -5t106 -5q82 0 128 51.5t46 116.5q0 70 -39 107 t-105 37q-65 0 -65 -43q1 0 23.5 -11t32.5 -18.5t22 -25t12 -38.5q0 -51 -27.5 -74.5t-72.5 -23.5q-52 0 -89.5 32t-37.5 97q0 60 53.5 102.5t142.5 42.5q99 0 159 -57.5t60 -148.5q0 -140 -89 -212t-243 -77q191 -77 191 -301q0 -56 -14 -114.5t-45.5 -120t-76.5 -118 t-112 -106.5t-147.5 -86.5t-187 -58t-226.5 -21.5q-167 0 -306 60t-219.5 167t-80.5 238z" />
<glyph unicode="'" horiz-adv-x="382" d="M244 1348q0 161 125 161q58 0 91.5 -33.5t33.5 -86.5q0 -29 -24.5 -78.5t-80 -150t-98.5 -193.5h-41q2 108 0.5 170.5t-4 126.5t-2.5 84z" />
<glyph unicode="(" horiz-adv-x="747" d="M68 379q0 670 723 1153l57 -78q-333 -235 -495.5 -498t-162.5 -563q0 -210 75.5 -362.5t215.5 -290.5l-80 -68q-333 305 -333 707z" />
<glyph unicode=")" horiz-adv-x="747" d="M-84 -252q335 237 496 499t161 564q0 109 -21 204t-62.5 174.5t-90.5 143.5t-116 129l79 70q334 -306 334 -707q0 -673 -723 -1153z" />
<glyph unicode="*" horiz-adv-x="724" d="M217 1063q0 31 18.5 43t57.5 12l26 -1q26 -1 49.5 -1t60.5 3t69 9q-52 42 -113 73.5t-88 48t-27 38.5t19 46t51 24q22 0 42 -28t54.5 -83t73.5 -96q6 53 3 135.5t3 91.5q13 49 55 49q31 0 50.5 -15.5t19.5 -43.5q0 -19 -18.5 -49t-46.5 -77.5t-44 -98.5q50 20 100 49.5 t79.5 46t46.5 16.5q22 0 39.5 -20.5t17.5 -46.5q0 -60 -86 -60q-5 0 -47 1.5t-75 -0.5t-72 -9q50 -40 109.5 -72.5t85.5 -50t26 -39.5q0 -29 -22 -50t-44 -21t-40.5 25.5t-52.5 82.5t-75 103q-9 -67 -5 -141t1 -87q-5 -22 -21 -35.5t-38 -13.5q-31 0 -49.5 17t-18.5 43 q0 21 17 49t45 75t47 99q-51 -17 -101.5 -45.5t-81.5 -47t-47 -18.5q-22 0 -37.5 19.5t-15.5 50.5z" />
<glyph unicode="+" horiz-adv-x="1171" d="M129 483v99h442v444h103v-444h442v-99h-442v-444h-103v444h-442z" />
<glyph unicode="," horiz-adv-x="522" d="M4 -287q97 53 165 130.5t77 160.5h-47q-73 0 -110.5 32t-37.5 89q0 63 46.5 108.5t117.5 45.5q147 0 147 -175q0 -76 -31 -146t-84 -124.5t-109.5 -94.5t-119.5 -71z" />
<glyph unicode="-" horiz-adv-x="686" d="M47 420l45 172h545l-45 -172h-545z" />
<glyph unicode="." horiz-adv-x="522" d="M59 129q0 62 44.5 106t107.5 44t106 -44t43 -106q0 -63 -43 -106t-106 -43t-107.5 43t-44.5 106z" />
<glyph unicode="/" horiz-adv-x="860" d="M-250 -397l1211 1927l86 -49l-1213 -1927z" />
<glyph unicode="0" horiz-adv-x="1236" d="M84 438q0 160 58 314t152 267t219 182t253 69q197 0 321.5 -123.5t124.5 -351.5q0 -211 -97 -402.5t-255 -306.5t-330 -115q-208 0 -327 131t-119 336zM338 274q0 -126 47 -191t125 -65q79 0 162.5 94.5t145 235.5t101 308t39.5 307q0 116 -42.5 188t-127.5 72 q-79 0 -162 -89.5t-145.5 -226t-102.5 -307.5t-40 -326z" />
<glyph unicode="1" horiz-adv-x="878" d="M-12 0l8 41q112 6 154 20q66 22 88 101l258 928q-34 -9 -76 -9q-110 0 -215 121l26 27q92 -47 201 -47q82 0 193 28.5t170 57.5h26q-65 -143 -110 -307l-217 -791q-7 -28 -7 -41q0 -21 9.5 -33.5t33.5 -23.5q16 -8 65 -19t77 -12l-10 -41h-674z" />
<glyph unicode="2" horiz-adv-x="1159" d="M-10 0l18 88q216 135 344.5 224t233.5 180q309 268 309 546q0 183 -168 183q-71 0 -139 -34.5t-115 -87.5t-76.5 -115.5t-31.5 -117.5q-3 -135 98 -135q36 0 69.5 14.5t53.5 30.5t59 51l19 -24q-137 -150 -291 -150q-102 0 -160.5 48t-58.5 139q0 72 46.5 148.5 t124.5 139t193 102.5t240 40q177 0 281 -75.5t104 -205.5q0 -66 -17.5 -125t-48 -110.5t-84 -103t-113 -96.5t-148.5 -97t-176.5 -97.5t-209.5 -105.5l-67 -51h489q139 0 272 196l33 -12l-199 -387h-884z" />
<glyph unicode="3" horiz-adv-x="1134" d="M4 209q0 93 57 161t144 68q51 0 78.5 -25t27.5 -63q0 -44 -16.5 -69t-39.5 -35.5t-46.5 -19.5t-40 -30t-16.5 -59q0 -60 61.5 -97.5t148.5 -37.5q107 0 211 69t170 182t68 234q0 64 -33 97.5t-92 33.5q-19 0 -39.5 -5t-35 -10.5t-38 -19.5t-34 -21t-39 -26.5t-37.5 -25.5 l-31 53q277 140 389.5 248.5t112.5 243.5q0 166 -160 166q-50 0 -103.5 -21.5t-98 -57.5t-73 -87.5t-28.5 -106.5q0 -43 20 -64.5t50 -21.5q62 0 127 56l20 -27q-141 -123 -248 -123q-87 0 -134.5 38.5t-47.5 106.5q0 90 80 173t210.5 133.5t270.5 50.5q163 0 261 -73 t98 -183q0 -126 -113.5 -210t-314.5 -114l-43 -26h43q135 0 223 -58t88 -168q0 -144 -87.5 -257t-235 -173.5t-326.5 -60.5q-57 0 -112.5 8.5t-109.5 28t-95 49t-66 75t-25 101.5z" />
<glyph unicode="4" horiz-adv-x="1148" d="M-141 59q0 39 35.5 57.5t85.5 18.5q71 0 112 -2q259 231 524 1137h297q-114 -351 -328.5 -667.5t-447.5 -475.5q118 20 187 20q42 0 88.5 -4t105.5 -11t80 -9l174 481h250l-178 -481q163 17 246 117l24 -23q-53 -78 -135 -129.5t-170 -71.5l-133 -378h-244l129 376 q-20 3 -161.5 42.5t-233.5 39.5q-16 0 -62 -4q-115 -102 -157 -102q-38 0 -63 17t-25 52z" />
<glyph unicode="5" horiz-adv-x="1099" d="M-10 215q0 94 59 145.5t131 51.5q54 0 83.5 -24.5t29.5 -70.5q0 -39 -20.5 -70t-47.5 -61t-37 -57q0 -52 51 -83.5t136 -31.5q106 0 195.5 72.5t138.5 186t49 237.5q0 104 -54.5 153.5t-142.5 49.5q-109 0 -196 -34.5t-127 -109.5l-52 11l306 684h53q56 -80 301 -80 q196 0 360 108l21 -22q-65 -89 -140.5 -149t-158.5 -91.5t-163.5 -44t-178.5 -12.5q-140 0 -168 4l-123 -275q54 31 137.5 46.5t161.5 15.5q209 0 316.5 -83.5t107.5 -236.5q0 -212 -170.5 -342.5t-462.5 -130.5q-74 0 -142 14t-125.5 42t-92.5 76.5t-35 111.5z" />
<glyph unicode="6" horiz-adv-x="1175" d="M82 403q0 179 81.5 367.5t207.5 333t288.5 237.5t315.5 93q141 0 220 -61t79 -148q0 -78 -33.5 -126t-99.5 -48q-58 0 -88.5 44.5t-32.5 127.5q-3 82 -32 116.5t-87 34.5q-128 0 -263.5 -179t-236.5 -464l7 -6q77 74 154.5 108.5t170.5 34.5q151 0 245.5 -96t94.5 -250 q0 -75 -23.5 -152t-72 -148.5t-115 -127.5t-159.5 -89.5t-199 -33.5q-191 0 -306.5 112.5t-115.5 319.5zM303 297q-2 -126 43.5 -200t132.5 -74q73 0 135.5 51t103 131.5t64.5 175.5t27 188q6 230 -174 230q-123 0 -224.5 -143.5t-107.5 -358.5z" />
<glyph unicode="7" horiz-adv-x="1044" d="M117 778l276 555h33l-14 -114h794l-6 -29q-173 -191 -269 -314.5t-206 -306.5q-80 -135 -135 -271.5t-107 -324.5q-28 -107 -74 -163t-120 -56q-60 0 -90.5 31.5t-30.5 87.5q0 70 70 192.5t247 356.5q73 95 147.5 184t195.5 229t153 177h-510q-98 0 -169.5 -58 t-149.5 -186z" />
<glyph unicode="8" horiz-adv-x="1161" d="M57 274q0 125 104 220.5t255 132.5v8q-54 35 -88.5 67.5t-58 82.5t-23.5 112q0 101 66.5 189.5t184 143t257.5 54.5q157 0 265.5 -78t108.5 -194q0 -109 -83.5 -195.5t-206.5 -120.5v-8q105 -58 162 -127t57 -164q0 -105 -46.5 -189t-125.5 -135.5t-176.5 -78.5 t-206.5 -27q-194 0 -319.5 87t-125.5 220zM236 252q-2 -99 67.5 -165.5t202.5 -66.5q55 0 108.5 18t98.5 50.5t73 85.5t29 117q1 104 -91 178t-255 137q-106 -47 -168.5 -143.5t-64.5 -210.5zM485 985q-1 -49 15 -85t57 -68t92.5 -57.5t138.5 -59.5q85 36 133 124.5 t50 188.5q3 96 -58.5 149.5t-162.5 53.5q-112 0 -187.5 -74.5t-77.5 -171.5z" />
<glyph unicode="9" horiz-adv-x="1175" d="M-78 25q0 68 34.5 109.5t92.5 41.5q63 0 94 -38.5t35 -137.5q2 -83 23.5 -117.5t95.5 -34.5q79 0 158 56t146 153t123.5 215t102.5 254l-8 6q-39 -37 -65 -58.5t-67.5 -48t-89 -39.5t-101.5 -13q-155 0 -253 93.5t-98 252.5q0 109 44.5 209.5t120 176t183.5 120.5t228 45 q86 0 160 -26.5t131 -77.5t90 -133t33 -185q0 -126 -32.5 -255.5t-89.5 -246t-140.5 -219t-180.5 -176.5t-214 -117t-238 -43q-143 0 -230.5 63.5t-87.5 170.5zM410 676q0 -113 40 -170t130 -57q86 0 164 72.5t124.5 190t46.5 244.5q0 121 -46 194t-142 73q-87 0 -161 -79 t-115 -204.5t-41 -263.5z" />
<glyph unicode=":" horiz-adv-x="686" d="M96 129q0 62 44.5 106t107.5 44t106 -44t43 -106q0 -63 -43 -106t-106 -43t-107.5 43t-44.5 106zM285 778q0 63 44 107.5t107 44.5t107.5 -44.5t44.5 -107.5t-44.5 -106t-107.5 -43t-107 43t-44 106z" />
<glyph unicode=";" horiz-adv-x="686" d="M45 -287q97 53 165 130.5t77 160.5h-47q-73 0 -110.5 32t-37.5 89q0 63 46.5 108.5t115.5 45.5q149 0 149 -175q0 -76 -31 -146t-84 -124.5t-109.5 -94.5t-119.5 -71zM285 778q0 63 44 107.5t107 44.5t107.5 -44.5t44.5 -107.5t-44.5 -106t-107.5 -43t-107 43t-44 106z " />
<glyph unicode="&#x3c;" horiz-adv-x="1171" d="M156 489v86l905 420v-110l-770 -353l770 -352v-110z" />
<glyph unicode="=" horiz-adv-x="1171" d="M170 319v99h905v-99h-905zM170 647v98h905v-98h-905z" />
<glyph unicode="&#x3e;" horiz-adv-x="1171" d="M178 70v110l770 352l-770 353v110l905 -420v-86z" />
<glyph unicode="?" horiz-adv-x="905" d="M172 123q0 61 42 103t103 42q62 0 104 -42t42 -103t-42 -101t-104 -40t-103.5 40t-41.5 101zM242 543q0 104 71 182t222 149q143 68 202 134.5t56 167.5q-2 83 -62 144.5t-166 61.5q-104 0 -170.5 -57.5t-66.5 -138.5q0 -62 37.5 -104t101.5 -42q29 0 47 9v12 q-33 -2 -67.5 22t-34.5 66q0 45 30.5 75.5t75.5 30.5q58 0 90.5 -29.5t32.5 -82.5q0 -66 -47.5 -105t-120.5 -39q-78 0 -131 51.5t-53 133.5q0 107 87 177.5t232 70.5q173 0 280 -93t107 -229q0 -237 -282 -360q-83 -36 -138 -64.5t-102 -64.5t-69.5 -76.5t-22.5 -89.5 q0 -42 22.5 -60t53.5 -18q50 0 88 49.5t51 118.5l45 -15q-14 -86 -70.5 -140t-119.5 -54q-89 0 -149 56.5t-60 150.5z" />
<glyph unicode="@" horiz-adv-x="2154" d="M207 358q0 148 48 292.5t139.5 269t215 219.5t285 149.5t338.5 54.5q137 0 249.5 -35t189.5 -95.5t130 -143.5t77 -177.5t24 -199.5q0 -121 -44.5 -235.5t-117.5 -199.5t-172.5 -137t-204.5 -52q-90 0 -145.5 42.5t-59.5 120.5l-6 2q-48 -73 -104 -117t-109 -44 q-43 0 -80.5 13t-71 42t-53.5 82t-20 125q0 56 22.5 127t66.5 143t100 132t130.5 98t151.5 38q49 0 86 -32t47 -90h6l43 110h170l-201 -538q-26 -70 -26 -115q0 -84 73 -84q80 0 161.5 42.5t148 116t108 185t41.5 238.5q0 124 -40.5 228.5t-116.5 181t-194 119t-265 42.5 q-126 0 -246 -42.5t-219.5 -124t-175 -191t-118 -251.5t-42.5 -298q0 -175 52 -314.5t143 -227t209.5 -133.5t256.5 -46q325 0 546 154t323 444l37 -13q-65 -214 -205.5 -368.5t-321.5 -229.5t-385 -75q-138 0 -265.5 32t-238.5 98.5t-193.5 160t-129.5 224t-47 283.5z M907 293q0 -156 66 -156q88 0 194 174l133 369q-11 77 -39 113t-77 36q-66 0 -132 -93t-105.5 -218t-39.5 -225z" />
<glyph unicode="A" horiz-adv-x="1273" d="M-264 0l12 41q58 4 141 41q85 40 191 162q480 577 940 1177h57v-1239q0 -48 9 -74t38 -40q44 -23 125 -27l-12 -41h-651l10 41q102 6 162 27q67 25 67 108v336h-444q-153 -199 -191 -248q-73 -99 -73 -127q0 -41 64.5 -66.5t129.5 -29.5l-12 -41h-563zM430 575h395v490 q-22 -24 -107 -129.5t-180.5 -225.5t-107.5 -135z" />
<glyph unicode="B" horiz-adv-x="1302" d="M-94 0l10 41q109 6 152 20q66 22 88 101l295 1057q8 36 8 47q0 20 -9.5 32t-31.5 23q-21 10 -66 21.5t-69 13.5l10 43h659q172 0 270.5 -65t98.5 -195q0 -269 -424 -377v-19q336 -61 336 -286q0 -206 -184.5 -331.5t-491.5 -125.5h-651zM420 182q-2 -13 -2 -25 q0 -49 28 -71q34 -28 123 -29q89 0 165 35t124.5 91t75.5 123t29 134q1 125 -76 199t-195 74q-49 0 -127 -4zM582 768h67q174 0 288 106t114 248q0 106 -49.5 163.5t-145.5 57.5q-37 0 -115 -4z" />
<glyph unicode="C" horiz-adv-x="1277" d="M84 492q0 192 69.5 366t185 297.5t271 196.5t322.5 73q174 0 299 -104l78 98h82l-99 -506h-47q-9 86 -22 150t-37.5 124t-60 97t-90.5 59.5t-128 22.5q-96 0 -192.5 -65.5t-171.5 -175t-123 -264t-51 -320.5v-15q1 -212 85 -339q88 -132 261 -132q144 0 250 81t219 249 l45 -31q-44 -69 -81.5 -117.5t-92.5 -103t-111.5 -87.5t-134.5 -55t-166 -22q-263 0 -411 144.5t-148 378.5z" />
<glyph unicode="D" horiz-adv-x="1527" d="M-94 0l10 41q109 6 152 20q66 22 88 101l295 1057q8 36 8 47q0 20 -9.5 32t-31.5 23q-21 10 -66 21.5t-69 13.5l10 43h620q90 0 171.5 -16t161 -55.5t136.5 -99.5q56 -61 92 -157q35 -93 35 -210v-7q-1 -196 -83 -359.5t-218.5 -270.5t-312.5 -165.5t-369 -58.5h-620z M430 217q-9 -30 -9 -55q0 -37 20 -62q33 -41 110 -41q146 0 274.5 65t216.5 172.5t138.5 248.5t50.5 291q0 247 -98 376t-293 129q-35 0 -97 -4z" />
<glyph unicode="E" horiz-adv-x="1296" d="M-113 0l15 41q25 0 85.5 8.5t84.5 16.5q68 24 88 102l291 1049q8 36 8 49q0 20 -9 32.5t-32 22.5q-25 11 -74.5 22.5t-77.5 12.5l13 43h1110l-89 -320h-47v17q0 91 -40.5 160.5t-106.5 78.5q-57 8 -168 8h-193l-165 -589h153q107 0 185 65q26 21 60 79.5t52 105.5h49 l-159 -570h-46q7 44 7 92q0 80 -17 107q-21 31 -51.5 47t-95.5 16h-152l-127 -452q-20 -68 -20 -99q0 -53 54.5 -70.5t178.5 -17.5q86 0 126.5 1.5t87.5 12.5t75 33q63 51 137 143t103 146h51l-133 -393h-1211z" />
<glyph unicode="F" horiz-adv-x="1234" d="M-113 0l15 41q25 0 85.5 8.5t84.5 16.5q68 24 88 102l291 1049q8 36 8 49q0 20 -9 32.5t-32 22.5q-25 11 -74.5 22.5t-77.5 12.5l13 43h1161l-88 -332h-47q0 109 -39 183.5t-117 84.5q-63 8 -168 8h-238l-165 -593h167q118 0 201 63q27 20 61 74t56 112h51l-162 -575h-51 q8 37 8 94q-1 9 -1 19q-2 70 -15 90q-17 25 -58 44t-106 19h-168l-141 -508q-8 -24 -8 -49q0 -20 9 -32.5t32 -22.5q25 -11 74 -22.5t77 -12.5l-12 -43h-705z" />
<glyph unicode="G" d="M84 500q0 141 43 278.5t123.5 253.5t188 204.5t244.5 138.5t284 50q189 0 319 -104l86 98h78l-113 -491h-45q-5 80 -19.5 144.5t-42 120t-68 93t-100 59t-134.5 21.5q-103 0 -203 -65t-178 -175.5t-126.5 -270.5t-49.5 -337v-11q0 -224 80 -347q82 -125 235 -125 q63 0 108.5 18.5t78.5 59t55 93.5t43 134l22 80q6 26 6 47q0 56 -43 74q-56 25 -190 32l10 45h719l-10 -45q-116 -18 -142 -28q-74 -30 -90 -107l-129 -477l-26 -8l-97 125q-29 -12 -81 -34.5t-75 -32t-61 -21.5t-70.5 -16.5t-70.5 -4.5q-92 0 -173 18.5t-152.5 60 t-123 102.5t-81 150.5t-29.5 199.5z" />
<glyph unicode="H" horiz-adv-x="1638" d="M-94 0l10 41q109 6 152 20q66 22 88 101l295 1057q8 36 8 47q0 20 -9.5 32t-31.5 23q-23 10 -68 22t-67 13l10 43h680l-12 -43q-76 -4 -158 -25q-67 -20 -90 -102l-129 -467h598l127 457q8 36 8 49q0 19 -9.5 30.5t-31.5 22.5q-27 10 -72 22t-71 13l14 43h678l-15 -43 q-73 -4 -151 -25q-66 -19 -88 -102l-297 -1059q-8 -36 -8 -43q0 -20 9.5 -30.5t33.5 -24.5q14 -9 62 -19t77 -12l-12 -41h-680l12 41q119 6 158 20q67 23 88 101l151 534h-600l-149 -526q-6 -27 -6 -41q0 -21 9.5 -33.5t33.5 -23.5q16 -8 64.5 -19t76.5 -12l-10 -41h-678z " />
<glyph unicode="I" horiz-adv-x="794" d="M-88 0l10 41q109 6 152 20q66 22 88 101l295 1057q8 36 8 47q0 20 -9.5 32t-31.5 23q-23 10 -68 22t-67 13l10 43h680l-12 -43q-76 -4 -158 -25q-67 -20 -90 -102l-297 -1059q-6 -27 -6 -41q0 -21 9.5 -33.5t33.5 -23.5q16 -8 64.5 -19t76.5 -12l-10 -41h-678z" />
<glyph unicode="J" horiz-adv-x="1132" d="M-102 -147q0 55 40.5 94t96.5 39q70 0 105.5 -34.5t35.5 -92.5q0 -44 -51 -115q0 -23 17.5 -39t29.5 -16q60 0 101.5 17t81 64.5t72.5 128.5t69 212q27 98 127 542h-269l13 62l270 6q35 107 90 184t178 211q-41 -10 -118.5 -21.5t-108.5 -11.5q-62 0 -112.5 23t-84 56.5 t-63 67t-64.5 57.5t-73 26q-46 0 -73.5 -23t-27.5 -55q0 -9 10 -38t19 -42q68 -2 109.5 -35.5t41.5 -89.5q0 -45 -31.5 -78.5t-86.5 -33.5q-61 0 -99.5 57t-38.5 155q0 115 86.5 211.5t212.5 96.5q62 0 111 -18t77.5 -45.5t59 -62t56.5 -65t69 -56.5t96 -36h70 q114 129 149 161q57 52 91 52q38 0 60 -18t22 -54q0 -18 -4.5 -33t-10.5 -27t-18.5 -23t-22.5 -18t-29 -15t-31 -12t-35.5 -10t-35.5 -9t-38.5 -8.5t-37.5 -7.5q-59 -141 -106 -402l264 6l-22 -78l-256 3q-7 -27 -31 -128t-49.5 -196.5t-55.5 -194.5q-37 -126 -103.5 -224.5 t-146 -156t-163 -87t-166.5 -29.5q-122 0 -195 57.5t-73 149.5z" />
<glyph unicode="K" horiz-adv-x="1503" d="M-94 0l10 41q109 6 152 20q66 22 88 101l295 1057q8 36 8 47q0 20 -9.5 32t-31.5 23q-23 10 -68 22t-67 13l10 43h680l-12 -43q-76 -4 -158 -25q-67 -20 -90 -102l-140 -504h25q257 170 444.5 327.5t208.5 229.5q6 21 -10 36.5t-45.5 23t-50.5 10.5t-41 4l10 43h582 l-13 -43q-199 -10 -315 -107q-68 -56 -192 -162t-205.5 -171.5t-157.5 -116.5q27 -38 54 -78.5l48 -72t49 -77.5t42.5 -69.5t45.5 -75.5t41 -69.5t44.5 -77t42.5 -72.5q57 -101 129 -135q53 -24 135 -29l-10 -43h-689l9 43q93 6 132.5 24t39.5 60q0 44 -106 223t-220 336 h-37l-147 -516q-6 -24 -6 -41q0 -21 9.5 -33.5t33.5 -23.5q16 -8 64.5 -19t76.5 -12l-10 -41h-678z" />
<glyph unicode="L" horiz-adv-x="1269" d="M-113 0l15 41q25 0 85.5 8.5t84.5 16.5q68 24 88 102l291 1049q8 36 8 49q0 20 -9 32.5t-32 22.5q-25 11 -74.5 22.5t-77.5 12.5l13 43h694l-12 -43q-76 -4 -158 -25q-67 -20 -90 -102l-275 -985q-12 -43 -17 -69t-1.5 -49t16 -35t39.5 -20.5t63.5 -11t94.5 -2.5 q239 0 301 49q60 44 136 132t116 159h47l-137 -397h-1209z" />
<glyph unicode="M" horiz-adv-x="1886" d="M-139 0l12 41q37 2 106 19.5t97 35.5q41 26 74 92t67 189l205 753q12 45 12 80q0 56 -31 88q-27 27 -73.5 41.5t-91.5 16.5l10 43h479l180 -1012l551 836q70 107 94 176h514l-12 -43q-92 -5 -158 -25q-68 -20 -90 -102l-274 -1059q-6 -18 -6 -41q0 -21 9.5 -33.5 t33.5 -23.5q18 -9 67.5 -19t79.5 -12l-8 -41h-676l10 41q103 6 144 20q70 24 88 101l268 1063l-801 -1202h-39q-8 162 -30 284l-158 895l-217 -813q-33 -125 -33 -188q0 -65 27 -92q21 -22 88.5 -44t101.5 -24l-10 -41h-610z" />
<glyph unicode="N" horiz-adv-x="1454" d="M-139 0l12 41q36 2 105 19.5t98 35.5q82 52 143 281l195 727q8 32 8 70q0 73 -39 112q-65 65 -205 70l12 43h478l438 -1010l168 631q33 130 33 190q0 63 -29 86q-25 20 -89.5 40t-101.5 22l11 41h604l-10 -41q-34 -2 -103 -18t-98 -33q-48 -27 -80 -95.5t-61 -179.5 l-281 -1046h-65l-504 1175l-205 -774q-11 -39 -22 -101.5t-11 -86.5q0 -66 27 -93q21 -22 89 -42.5t103 -22.5l-10 -41h-610z" />
<glyph unicode="O" d="M92 526q0 189 76.5 369t218.5 313q114 105 250 163.5t274 58.5q229 0 383 -144q72 -68 117 -175t45 -230q0 -196 -72.5 -375.5t-216.5 -315.5q-110 -102 -249.5 -162.5t-288.5 -60.5q-152 0 -277.5 69.5t-193.5 199.5q-34 67 -50 132.5t-16 157.5zM362 434v-16 q0 -181 64 -283q67 -106 209 -106q99 0 192 66.5t168 185.5q85 133 136.5 312t54.5 365v20q0 390 -268 390q-94 0 -182 -57t-156 -156q-95 -134 -155 -324t-63 -397z" />
<glyph unicode="P" horiz-adv-x="1234" d="M-94 0l10 41q109 6 152 20q66 22 88 101l295 1057q8 36 8 47q0 20 -9.5 32t-31.5 23q-23 10 -68 22t-67 13l10 43h612q196 0 305 -76t109 -225q0 -142 -88.5 -247t-242.5 -158.5t-353 -53.5h-88l-131 -471q-6 -21 -6 -39q0 -21 9.5 -33.5t33.5 -23.5q16 -8 64.5 -19 t76.5 -12l-10 -41h-678zM565 700h90q183 0 287.5 105t104.5 274q0 262 -230 262h-74z" />
<glyph unicode="Q" horiz-adv-x="1368" d="M-47 100q0 53 74.5 95.5t183.5 42.5q137 0 350 -109q62 24 129 72.5t137.5 129t127.5 179t95.5 231.5t43.5 277v25q0 146 -66 232q-71 93 -203 93q-108 0 -201.5 -52.5t-155 -138t-98 -191.5t-40.5 -216v-12q0 -102 48 -173q50 -75 144 -75q110 0 180 71t74 226v12 q0 63 -20 118q-21 60 -62 67q13 -43 13 -78q-3 -58 -34.5 -88.5t-80.5 -30.5q-50 0 -76 33q-22 29 -22 80v12q2 59 55.5 102t136.5 43q109 0 168 -71q55 -69 55 -162v-10q-3 -85 -41.5 -159t-97 -122.5t-127 -76t-133.5 -27.5q-167 0 -271 107t-104 278q0 115 53.5 224 t144 191t216 131.5t262.5 49.5q252 0 399.5 -135.5t147.5 -346.5q0 -527 -746 -856q17 -9 66 -43q54 -37 128.5 -98t134.5 -111t127.5 -98.5t135 -76t129.5 -27.5q80 0 107 2l-8 30q-42 6 -70.5 37.5t-28.5 81.5q0 58 42 97.5t106 39.5q57 0 89 -38t32 -101q0 -92 -118 -184 t-261 -92q-65 0 -123.5 10.5t-103 26.5t-88 43.5t-73.5 52.5t-64.5 63t-56 65.5t-54 69.5t-52.5 66q-87 108 -110 131q-163 -70 -281 -70q-117 0 -190.5 33t-73.5 98zM121 106q39 -90 123 -90q46 0 107.5 17.5t113.5 44.5q-115 115 -250 115q-34 0 -60 -29.5t-34 -57.5z" />
<glyph unicode="R" horiz-adv-x="1456" d="M-94 0l10 41q109 6 152 20q66 22 88 101l295 1057q8 36 8 47q0 20 -9.5 32t-31.5 23q-23 10 -68 22t-67 13l10 43h602q218 0 336.5 -71t118.5 -204q0 -83 -36 -152t-99.5 -117.5t-140 -81.5t-167.5 -54v-17q99 -19 156 -82.5t61 -168.5q1 -40 2.5 -94.5t2.5 -92t4 -69.5 q5 -63 21 -94t54 -31q50 0 87 62.5t75 191.5l49 -13q-23 -70 -40 -114.5t-43.5 -90.5t-56 -71.5t-73 -41.5t-98.5 -16q-242 0 -242 275v176q0 28 -0.5 42.5t-1.5 39t-4.5 37.5t-9 32t-14.5 29.5t-22 24t-30.5 20.5t-40 14t-52 10t-64.5 3h-68q-59 -221 -143 -510 q-6 -27 -6 -41q0 -21 9.5 -33.5t33.5 -23.5q16 -8 64.5 -19t76.5 -12l-10 -41h-678zM575 739h74q118 0 213.5 42t154 126t58.5 195q0 119 -62 179t-175 60h-93z" />
<glyph unicode="S" horiz-adv-x="1107" d="M-66 -20l115 479h45q13 -95 42.5 -170.5t77.5 -133.5t119.5 -89t162.5 -31q123 0 203.5 81.5t80.5 198.5q0 97 -50.5 160t-194.5 137q-86 45 -141.5 84t-95.5 86.5t-57.5 102t-17.5 125.5q0 172 153.5 293.5t375.5 121.5q86 0 169.5 -30t125.5 -72l96 96h67l-116 -465 h-43q-9 91 -29 161.5t-55.5 128.5t-93.5 89t-136 31q-115 0 -195.5 -76t-80.5 -184q0 -91 45.5 -145.5t169.5 -118.5q198 -104 276 -194.5t78 -215.5q0 -132 -77.5 -237.5t-208 -162.5t-287.5 -57q-108 0 -210.5 31.5t-150.5 71.5l-94 -96h-68z" />
<glyph unicode="T" horiz-adv-x="1316" d="M150 0l10 41q34 2 98 10t84 15q69 23 90 102l324 1178h-76q-94 0 -168 -9q-63 -8 -163.5 -112t-141.5 -183h-45l100 357h1280l-100 -357h-47q0 117 -37 201.5t-103 93.5q-73 9 -163 9h-76l-320 -1168q-6 -18 -6 -45q0 -37 41 -57q17 -7 84.5 -20t95.5 -15l-10 -41h-751z " />
<glyph unicode="U" horiz-adv-x="1583" d="M207 291q0 90 29 194l202 734q8 36 8 47q0 36 -40 55q-23 10 -68.5 22t-67.5 13l11 43h680l-13 -43q-74 -4 -157 -25q-68 -21 -91 -102l-194 -703q-39 -137 -39 -239q0 -232 272 -232q189 0 302 107.5t176 318.5l153 541q33 125 33 188t-29 86q-25 20 -90 40t-102 22 l10 41h608l-12 -41q-34 -2 -103 -18t-98 -33q-47 -26 -77 -90.5t-64 -182.5l-160 -561q-49 -170 -125 -279t-197.5 -168t-291.5 -59q-223 0 -344 85t-121 239z" />
<glyph unicode="V" horiz-adv-x="1296" d="M147 1358l13 41h649l-12 -41q-100 -6 -160 -27q-66 -25 -66 -106v-912q324 414 402 510q136 175 235 312q8 12 21.5 31.5t21.5 31t16.5 25t12.5 23t4 16.5q0 40 -71 66t-136 30l10 41h562l-13 -41q-58 -4 -141 -41q-77 -37 -180 -162q-400 -498 -922 -1178h-76v1242 q0 47 -9 72.5t-38 39.5q-45 23 -123 27z" />
<glyph unicode="W" horiz-adv-x="1966" d="M147 1358l13 41h647l-12 -41q-97 -6 -158 -27q-66 -25 -66 -106v-881l533 786q16 45 16 109q0 69 -47 92q-44 23 -125 27l13 41h649l-13 -41q-96 -6 -157 -27q-66 -25 -66 -106v-879l486 717q96 144 96 197q0 42 -64 66.5t-147 29.5l12 43h547l-12 -43q-58 -3 -140 -41 q-42 -21 -75 -57.5t-72 -94.5l-807 -1179h-78v1058l-725 -1058h-78v1235q0 46 -9 72t-38 40q-45 23 -123 27z" />
<glyph unicode="X" horiz-adv-x="1507" d="M-141 0l12 43q82 4 149 29q93 36 205 139q189 171 465 440q-25 63 -72.5 185.5t-80 204.5t-60.5 147q-20 52 -44 86t-66 55q-47 23 -142 27l13 43h753l-12 -43q-231 -12 -231 -105q0 -9 2 -20.5t7 -29t9.5 -33.5t14 -41.5t16.5 -44.5t19.5 -52.5t21 -55t24.5 -62 t25 -64.5q96 93 150 147t118 120.5t93.5 105.5t29.5 57q0 38 -39.5 55.5t-134.5 22.5l12 43h578l-13 -43q-78 -4 -145 -29q-100 -39 -207 -137q-50 -45 -108.5 -101t-89 -85t-115 -113.5t-105.5 -104.5q138 -355 228 -575q34 -93 98 -139q28 -19 147 -29l-12 -43h-754l13 43 q235 12 235 107q0 38 -34 134t-119 308q-273 -268 -334 -333q-103 -109 -103 -134q0 -43 38.5 -60t134.5 -22l-13 -43h-577z" />
<glyph unicode="Y" horiz-adv-x="1366" d="M106 1081q55 160 157.5 251t234.5 91q83 0 151 -35t111 -92.5t66.5 -128.5t23.5 -147q0 -67 -19 -197h17q111 292 262 447t313 155q72 0 115 -42t43 -99q0 -79 -40 -118.5t-99 -39.5t-91 36.5t-32 80.5q0 8 1 15t4 15l4.5 12t7.5 13.5t7 11.5t9 13t8 12l-8 11 q-59 -15 -142.5 -92t-162.5 -189q-145 -207 -199 -424l-117 -471q-6 -24 -6 -41q3 -39 47 -59q15 -8 75 -18.5t89 -10.5l-10 -41h-697l11 41q103 6 147 20q66 22 84 101l123 504q20 80 20 260q0 155 -58.5 250.5t-172.5 95.5q-79 0 -139 -53t-92 -152z" />
<glyph unicode="Z" horiz-adv-x="1220" d="M-145 0l6 25l1190 1321h-263q-119 0 -178 -11q-79 -16 -183 -116.5t-167 -196.5h-45l139 377h1061l-8 -25l-1190 -1321h305q257 0 328 53q74 57 153 148.5t125 165.5h46l-150 -420h-1169z" />
<glyph unicode="[" horiz-adv-x="1212" d="M-63 -326l485 1815l43 -16q379 -91 629 -91q126 0 171.5 30t45.5 87q0 30 -15 60l47 16q12 -11 20.5 -37t8.5 -55q0 -124 -108 -207.5t-258 -83.5q-37 0 -73 5t-63.5 10.5t-63.5 21t-56.5 24.5t-60 33.5t-56.5 35t-64 42t-65 43.5l-443 -1651q247 121 326 153 q157 62 279 62q121 0 187.5 -52.5t66.5 -135.5q0 -60 -31 -112t-74 -87l-51 19q22 13 46 46.5t24 63.5q0 68 -168 68q-252 0 -678 -90z" />
<glyph unicode="\" horiz-adv-x="944" d="M289 1528l100 14l389 -1962l-98 -16z" />
<glyph unicode="]" horiz-adv-x="1212" d="M-109 -319q0 115 111.5 202.5t259.5 87.5q63 0 119 -12.5t113 -40t105 -57t121 -78.5q26 -18 40 -27l442 1651l-79 -39.5t-77.5 -38t-68 -32t-70.5 -31.5t-63 -24.5t-67.5 -22t-61 -14t-67.5 -11t-66 -2.5q-109 0 -171.5 51t-62.5 137q0 58 30.5 112.5t72.5 86.5l45 -18 q-24 -20 -45 -54.5t-21 -64.5q0 -29 33.5 -44.5t126.5 -15.5q256 0 686 91l53 16l-487 -1815l-43 17q-378 90 -637 90q-64 0 -107 -9t-64.5 -26.5t-29.5 -36.5t-8 -45q0 -30 18 -59l-49 -17q-12 12 -21.5 39t-9.5 54z" />
<glyph unicode="^" horiz-adv-x="1388" d="M20 270q0 144 100 261.5t337 238.5q-37 86 -52.5 142.5t-15.5 125.5q0 170 113 279.5t295 109.5q85 0 147 -56t62 -157q0 -56 -18.5 -107.5t-47.5 -90t-73 -76t-85.5 -63.5t-95.5 -54q19 -43 90.5 -166t112.5 -200q29 55 46.5 86.5t47 79.5t53.5 76t55 57t64 42t68 13 q83 0 125.5 -38t42.5 -89q0 -41 -24.5 -75t-68.5 -34q-38 0 -61 15t-31.5 32.5t-28 32.5t-51.5 15q-37 0 -85.5 -64.5t-122.5 -199.5q126 -228 126 -363q0 -227 -149.5 -375.5t-378.5 -148.5l-6 59q350 0 350 320q0 127 -86 299q-100 -118 -196 -172t-228 -54 q-141 0 -235.5 81t-94.5 218zM258 356q0 -129 58.5 -205.5t148.5 -76.5q80 0 145 40t135 132q-19 34 -125 218.5t-141 260.5q-124 -70 -172.5 -161.5t-48.5 -207.5zM606 1104q0 -99 58 -234q122 68 184.5 146.5t62.5 181.5q0 78 -33 123t-90 45q-82 0 -132 -78t-50 -184z " />
<glyph unicode="_" horiz-adv-x="1228" d="M-225 -225h1249v-92h-1249v92z" />
<glyph unicode="`" horiz-adv-x="1024" d="M496 1405q0 36 28 64t66 28q41 0 72.5 -27.5t62.5 -97.5q52 -121 123 -276l-31 -25q-73 69 -252 217q-69 57 -69 117z" />
<glyph unicode="a" horiz-adv-x="1124" d="M37 295q0 100 46.5 215t122 213t184.5 163.5t222 65.5q59 0 105.5 -43.5t56.5 -111.5h6l47 143h234l-234 -678q-45 -122 -45 -176q0 -33 13.5 -45t40.5 -12q65 0 117 66.5t106 203.5l41 -12q-63 -156 -128 -233t-165 -77q-211 0 -211 195l-8 2q-60 -95 -134.5 -149 t-152.5 -54q-50 0 -94.5 16.5t-84 52.5t-62.5 101.5t-23 153.5zM276 197q0 -148 82 -148q62 0 124.5 54t117.5 151l154 465q-33 182 -136 182q-78 0 -159.5 -117.5t-132 -282.5t-50.5 -304z" />
<glyph unicode="b" horiz-adv-x="1030" d="M78 252q0 88 28 174l263 821q30 89 30 137q0 55 -82 66q-39 5 -122 8v41l495 21l-239 -727l6 -2q65 75 129 118t139 43q52 0 97.5 -15t87.5 -49t66.5 -99t24.5 -154q0 -67 -23.5 -151.5t-74 -175t-119 -166t-169.5 -124.5t-214 -49q-83 0 -156 33.5t-120 99t-47 150.5z M274 231q0 -112 36 -160t91 -48q81 0 167 120t140 285.5t54 298.5q0 80 -27.5 113.5t-66.5 33.5q-121 0 -246 -184z" />
<glyph unicode="c" horiz-adv-x="833" d="M37 295q0 73 25 159.5t75 174.5t117.5 160t162 117.5t197.5 45.5q92 0 154.5 -53.5t62.5 -130.5q0 -66 -31.5 -111t-88.5 -45q-52 0 -86.5 26.5t-34.5 78.5q0 37 36 73t93 56q-16 72 -115 72q-63 0 -124 -74.5t-103 -183t-68 -228t-26 -211.5t27 -137t93 -45 q194 0 342 274l39 -18q-173 -324 -413 -324q-64 0 -120.5 16.5t-106 52t-78.5 101t-29 154.5z" />
<glyph unicode="d" horiz-adv-x="1134" d="M37 295q0 81 30 172.5t85.5 176.5t125.5 154.5t158 111.5t176 42q61 0 103.5 -37t60.5 -100h6l129 432q31 98 31 137q0 55 -84 66q-30 4 -143 8v41l514 21l-395 -1258q-41 -132 -41 -174q0 -33 13 -46t38 -13q68 0 118 65t105 205l41 -12q-63 -156 -128 -233t-165 -77 q-97 0 -154 44.5t-57 140.5l-8 2q-136 -193 -289 -193q-38 0 -73.5 9t-72 32t-63.5 58t-44 93t-17 132zM276 199q0 -150 89 -150q61 0 125.5 53t113.5 136l154 499q-37 164 -133 164q-81 0 -164 -119.5t-134 -284t-51 -298.5z" />
<glyph unicode="e" horiz-adv-x="835" d="M37 299q0 71 25.5 157t78 173.5t122.5 159.5t169.5 117.5t208.5 45.5q81 0 135.5 -39.5t54.5 -109.5q0 -95 -72 -172.5t-187 -124.5t-261 -68q-28 -133 -28 -219q0 -93 26.5 -136.5t93.5 -43.5q107 0 190 73t152 201l37 -18q-170 -324 -409 -324q-66 0 -123 17.5 t-106.5 54t-78 102t-28.5 154.5zM319 481q87 17 152.5 53.5t100.5 82t52 89t19 85.5v19q0 101 -61 101q-71 0 -146 -129t-117 -301z" />
<glyph unicode="f" horiz-adv-x="630" d="M-477 -307q0 45 34 86t91 41q47 0 88 -29.5t41 -87.5q0 -22 -8.5 -39.5t-29 -41.5t-24.5 -30q3 -17 12.5 -26.5t20.5 -9.5q45 0 81.5 17.5t65 48t56 88t50 120.5t52.5 162q45 149 84 294.5t89.5 348.5t54.5 217h-197l20 68h197l21 73q71 262 239 414q125 115 301 115 q114 0 181 -56.5t67 -134.5q0 -38 -34 -79.5t-89 -41.5q-53 0 -94 26t-41 81q0 23 23.5 68.5t25.5 60.5q-11 35 -63 35q-86 0 -150 -100.5t-125 -325.5l-37 -135h242l-23 -68h-235q-14 -54 -50.5 -194.5t-58 -223.5t-53 -195t-55.5 -190q-88 -283 -248 -414 q-139 -118 -305 -118q-112 0 -164.5 49t-52.5 127z" />
<glyph unicode="g" horiz-adv-x="989" d="M-119 -258q0 101 89.5 170t256.5 92v14q-79 15 -129.5 52.5t-50.5 99.5q0 130 213 195v10q-73 34 -114.5 91.5t-41.5 125.5q0 154 120 257t304 103q51 0 102.5 -9t99.5 -22t52 -14q45 32 67 46t58 27q34 13 67 13h5q46 0 78.5 -34.5t32.5 -81.5q0 -45 -31.5 -78 t-73.5 -33q-44 0 -68.5 36.5t-35.5 108.5q-45 -4 -97 -39v-10q62 -62 62 -166q0 -150 -120.5 -249t-287.5 -99h-141q-78 -36 -78 -86q0 -46 40 -61.5t169 -28.5q123 -12 211 -25q97 -14 162 -83t65 -173q0 -58 -20.5 -110.5t-66 -100t-113.5 -83t-169.5 -56t-226.5 -20.5 q-185 0 -287 61.5t-102 159.5zM106 -250q0 -77 55 -132.5t161 -55.5q155 0 242 77.5t87 200.5q0 99 -65 115q-110 25 -316 33q-78 -20 -121 -81.5t-43 -156.5zM334 567q0 -79 24.5 -132.5t75.5 -53.5q46 0 84 41t60.5 102t34.5 123.5t12 112.5q0 69 -27.5 114.5t-81.5 45.5 q-47 0 -84 -39t-57.5 -97.5t-30.5 -115t-10 -101.5z" />
<glyph unicode="h" horiz-adv-x="1126" d="M-8 0l393 1247q29 86 29 137q0 55 -80 66q-41 5 -123 8v41l496 21l-248 -746l10 -2q65 85 133 132.5t150 47.5q99 0 168 -69t69 -160q0 -50 -41 -152l-114 -309q-56 -142 -56 -184q0 -30 15.5 -39.5t44.5 -9.5q64 0 118 67t107 203l37 -12q-31 -76 -57.5 -126.5 t-62 -95.5t-80 -66.5t-99.5 -21.5q-52 0 -101.5 15t-89 55t-39.5 98q0 64 37 162l125 328q49 130 49 162q0 82 -82 82q-130 0 -284 -254l-195 -625h-229z" />
<glyph unicode="i" horiz-adv-x="684" d="M43 641q31 76 57 126t61 95.5t78.5 67.5t96.5 22q89 0 156 -48.5t67 -133.5q0 -48 -59 -199l-121 -309q-57 -147 -57 -180q0 -32 15 -42.5t44 -10.5q65 0 119.5 67t107.5 203l37 -12q-30 -75 -57.5 -126.5t-63 -95.5t-79 -66t-95.5 -22q-41 0 -79.5 9t-73.5 27.5 t-56.5 52.5t-21.5 79q0 58 39 162l141 357q53 135 53 184q0 31 -11.5 43t-37.5 12q-64 0 -115 -68t-106 -208zM416 1305q0 70 45 119t119 49q49 0 79.5 -40t30.5 -94q0 -71 -41 -120.5t-112 -49.5q-58 0 -89.5 38t-31.5 98z" />
<glyph unicode="j" horiz-adv-x="618" d="M-393 -305q0 43 33.5 84t91.5 41t94.5 -29.5t36.5 -87.5q0 -19 -7.5 -35t-28 -40.5t-24.5 -30.5q0 -41 27 -41q54 0 95 24t76.5 80.5t64.5 131.5t65 196q27 88 49.5 163.5t44 154t34 125.5t38 145t37.5 145q22 86 22 127q0 55 -45 55q-67 0 -116 -66t-105 -210l-39 14 q30 76 56 126t60.5 95.5t78 67.5t96.5 22q91 0 158 -47.5t67 -132.5q0 -41 -28 -143q-76 -297 -162 -584q-85 -277 -248 -412q-137 -116 -313 -116q-101 0 -155 50t-54 128zM416 1307q0 70 45.5 119t118.5 49q49 0 79.5 -40t30.5 -94q0 -71 -41 -120.5t-112 -49.5 q-58 0 -89.5 38t-31.5 98z" />
<glyph unicode="k" horiz-adv-x="1089" d="M-8 0l395 1247q29 88 29 137q0 55 -80 66q-41 5 -123 8v41l496 21l-310 -959q20 -2 66 -2t81.5 21.5t59.5 56.5t45 77t44.5 83.5t51.5 76.5t72 56.5t101 21.5q170 0 170 -145q0 -57 -39.5 -102.5t-98.5 -45.5q-38 0 -71 23.5t-33 56.5q0 37 11 59.5t27 31.5t32 15 t29 14.5t16 23.5q-7 23 -20.5 31t-41.5 8q-32 0 -57.5 -23t-42 -58.5t-39 -80t-47 -85.5t-68.5 -77t-100 -53q32 -8 56.5 -16.5t56 -24.5t51.5 -35.5t34.5 -49t14.5 -65.5q0 -56 -22.5 -149t-22.5 -121q0 -33 13 -44t42 -11q70 0 123.5 66t105.5 204l39 -12 q-31 -76 -57.5 -126.5t-62 -95.5t-80.5 -66.5t-101 -21.5q-102 0 -169.5 41t-67.5 127q0 46 24.5 149.5t24.5 129.5q0 98 -105 98q-11 0 -57 -4l-166 -518h-229z" />
<glyph unicode="l" horiz-adv-x="602" d="M49 145q0 14 2 28.5t6.5 33t7.5 30t10.5 36t10.5 34.5l297 940q29 88 29 137q0 55 -82 66q-39 5 -123 8v41l498 21l-404 -1262q-49 -145 -49 -176t14.5 -42t42.5 -11q67 0 122 67t108 203l36 -12q-30 -75 -57.5 -126.5t-63 -96t-79 -66t-96.5 -21.5q-55 0 -104.5 15 t-87.5 54.5t-38 98.5z" />
<glyph unicode="m" horiz-adv-x="1744" d="M51 641q32 77 57.5 126t61 95.5t79.5 68t99 21.5q29 0 55.5 -5t54.5 -18t48.5 -33.5t33.5 -55t13 -78.5l8 -2q140 192 285 192q104 0 168 -59t67 -133h9q66 87 134 139.5t152 52.5q92 0 163 -66.5t71 -160.5q0 -42 -41 -154l-119 -309q-53 -137 -53 -176q0 -35 13.5 -46 t45.5 -11q65 0 118.5 67t106.5 203l39 -12q-63 -155 -129 -232.5t-168 -77.5q-39 0 -78.5 9t-75.5 27.5t-58.5 52.5t-22.5 79q0 50 41 162l121 320q2 6 9 24t9 24t7.5 20.5t7.5 20.5l6 18t5.5 18.5t3.5 15.5t2.5 16.5t0.5 14.5q0 80 -84 80q-107 0 -240 -207l-219 -672h-237 l221 664q3 9 13.5 41t16 54t5.5 40q0 39 -23.5 59.5t-60.5 20.5q-66 0 -139.5 -73.5t-127.5 -172.5l-207 -633h-237l225 664q51 156 51 186t-10 41.5t-35 11.5q-65 0 -115 -67.5t-106 -208.5z" />
<glyph unicode="n" horiz-adv-x="1216" d="M53 641q32 77 58.5 127.5t61.5 95.5t78.5 66.5t96.5 21.5q38 0 72 -9t65.5 -29t50.5 -59t19 -93l8 -2q139 192 285 192q96 0 166.5 -67t70.5 -162q0 -40 -38 -152l-119 -309q-56 -145 -56 -182q0 -31 16 -41t46 -10q65 0 118.5 67t106.5 203l39 -12q-32 -76 -59 -127 t-63 -95.5t-81 -66t-100 -21.5q-53 0 -103 16.5t-88 56t-38 95.5q0 59 41 162l122 328q48 121 48 164q0 80 -78 80q-67 0 -138 -67.5t-133 -178.5l-209 -633h-235l225 664q49 149 49 186q0 30 -9.5 41.5t-33.5 11.5q-64 0 -115 -68t-106 -208z" />
<glyph unicode="o" horiz-adv-x="995" d="M45 334q0 76 25 160t76 165.5t120 147t166 105.5t205 40q62 0 117 -21.5t100 -64.5t71.5 -114.5t26.5 -163.5q0 -77 -25 -161t-76 -165t-119.5 -146t-165 -105t-204.5 -40q-59 0 -114 22t-101 64.5t-74 114t-28 162.5zM283 236v-8q1 -104 27 -160q28 -58 71 -58 q70 0 133.5 67.5t106 170.5t68 222t26.5 226v8q0 108 -28 160q-29 54 -71 54q-67 0 -130.5 -67t-106.5 -169.5t-69 -221.5t-27 -224z" />
<glyph unicode="p" horiz-adv-x="1153" d="M-205 -479l10 39q66 0 95.5 10.5t50.5 34.5q8 9 15.5 19.5t14.5 25.5t11.5 24.5t11.5 28.5t9 25l9 27t7 22l280 887q47 150 47 180q0 33 -10 46t-33 13q-62 0 -114.5 -69t-106.5 -207l-41 14q31 75 57.5 125.5t61.5 96t77.5 67.5t94.5 22q79 0 139 -51t60 -145l8 -2 q73 94 142.5 146t156.5 52q50 0 94.5 -15t86 -49t65.5 -100t24 -157q0 -102 -47.5 -218t-125 -213.5t-188 -162t-225.5 -64.5q-58 0 -104.5 38t-60.5 93h-9l-102 -331q-29 -101 -29 -138q0 -31 22 -45.5t62 -19.5t121 -8l-10 -41h-627zM383 174q20 -76 55.5 -111.5 t91.5 -35.5q60 0 124.5 72.5t113 178.5t80 229.5t31.5 221.5q0 145 -91 145q-111 0 -247 -194z" />
<glyph unicode="q" horiz-adv-x="1056" d="M37 295q0 69 25.5 155t77 174.5t119 161.5t161 119.5t194.5 46.5q58 0 107 -35.5t67 -95.5h9l82 119h184l-373 -1167q-28 -92 -28 -138q0 -31 21 -45.5t60 -19.5q49 -6 103 -8l-12 -41h-625l12 39q125 0 164 45q41 45 78 172l108 342l-8 2q-46 -58 -114.5 -103 t-141.5 -45q-50 0 -94 15t-85.5 49t-66 100.5t-24.5 157.5zM274 199q0 -86 24.5 -117t63.5 -31q61 0 128 52.5t116 134.5l164 512q-21 80 -56.5 115.5t-90.5 35.5q-80 0 -163 -118.5t-134.5 -283t-51.5 -300.5z" />
<glyph unicode="r" horiz-adv-x="907" d="M51 641q25 61 45 102.5t47.5 84t55.5 67.5t65.5 41t81.5 16q76 0 135.5 -52t59.5 -155l8 -2q32 50 54.5 80.5t55.5 63.5t69.5 49t78.5 16q68 0 108.5 -42.5t40.5 -102.5q0 -62 -33 -108t-92 -46q-61 0 -89.5 29t-28.5 74q0 23 13 45t28 39.5t18 27.5t1 17t-13 8 q-51 0 -115 -78t-119 -180l-194 -635h-234l209 664q5 16 16 51.5t17.5 56t12 43.5t5.5 33q0 31 -10.5 43t-34.5 12q-65 0 -116 -69t-105 -207z" />
<glyph unicode="s" horiz-adv-x="827" d="M10 207q0 64 40 113t91 49q69 0 98 -33t29 -72q0 -38 -25.5 -70t-80.5 -32q-9 0 -24 1t-22 0.5t-15 -2t-11.5 -6.5t-3.5 -14q0 -47 67 -87t148 -40q94 0 153.5 41t59.5 121q0 58 -35.5 108t-86 88.5t-101 78.5t-86 97t-35.5 126q0 109 103.5 193.5t250.5 84.5 q56 0 102.5 -14t75.5 -36t49.5 -50t28.5 -54t8 -50q0 -71 -29 -112.5t-81 -41.5q-50 0 -83.5 24.5t-33.5 73.5q0 32 22 56.5t49 35t51 20.5t26 17q-4 30 -50.5 60t-130.5 30q-58 0 -104.5 -41t-46.5 -120q0 -38 18.5 -72.5t48.5 -62t66 -55t72 -58t66 -64t48.5 -79.5 t18.5 -99q0 -114 -112.5 -201.5t-278.5 -87.5q-150 0 -232 70.5t-82 165.5z" />
<glyph unicode="t" horiz-adv-x="673" d="M66 143q0 34 20 111q1 5 178 598h-192l22 68h195l90 317h227l-94 -317h238l-23 -68h-235q-167 -563 -181 -621q-35 -128 -35 -147q0 -33 15 -44t43 -11q67 0 124 68.5t111 205.5l39 -12q-62 -154 -132 -234t-173 -80q-39 0 -78 9t-76 27.5t-60 52t-23 77.5z" />
<glyph unicode="u" horiz-adv-x="1206" d="M45 641q30 76 55.5 125.5t60.5 95t79 67t98 21.5t102 -18t81.5 -57.5t33.5 -94.5q0 -64 -37 -162l-129 -327q-45 -120 -45 -164q0 -80 80 -80q67 0 136.5 60.5t119.5 150.5l211 664h237l-217 -660q-43 -123 -43 -172q0 -61 50 -61q68 0 119 65.5t106 204.5l41 -12 q-63 -156 -128 -233t-165 -77q-97 0 -158 45t-61 146l-8 2q-139 -197 -289 -197q-102 0 -171 68.5t-69 161.5q0 53 41 151l121 310q55 147 55 186q0 29 -12 41t-37 12q-63 0 -115 -68.5t-106 -207.5z" />
<glyph unicode="v" horiz-adv-x="1052" d="M39 584l125 364h29q25 -51 75.5 -75.5t100.5 -24.5q73 0 133.5 25t128.5 85l33 -30q-110 -105 -194.5 -300.5t-84.5 -385.5q0 -93 38 -141t93 -48q62 0 134.5 41.5t134 109t102.5 163.5t41 194q0 42 -15.5 73.5t-38 51t-45 37.5t-38 44.5t-15.5 61.5q0 48 34.5 81.5 t90.5 33.5q123 0 123 -194q0 -148 -48.5 -290.5t-128.5 -250t-191 -173t-230 -65.5q-120 0 -199.5 72.5t-79.5 200.5q0 98 49 199.5t126 190.5t196 195l-12 11q-86 -55 -142 -81t-108 -26q-75 0 -113 23l-65 -185z" />
<glyph unicode="w" horiz-adv-x="1484" d="M43 594l121 354h29q26 -51 76 -75.5t104 -24.5q70 0 120 23.5t121 86.5l31 -30q-112 -124 -188 -315.5t-76 -391.5q0 -86 25 -130t65 -44q34 0 80 29t90 76q-31 81 -31 159q0 108 64.5 260.5t152.5 264.5t150 112q44 0 69 -46.5t25 -117.5q0 -99 -72.5 -251.5 t-177.5 -284.5q17 -103 62 -144t100 -41q66 0 134 44.5t120 114t85.5 159.5t33.5 176q0 43 -16 74t-38.5 49.5t-45 36t-38.5 45.5t-16 67q0 50 32 82.5t83 32.5q129 0 129 -201q0 -195 -77 -375t-206 -290.5t-272 -110.5q-69 0 -129.5 39.5t-99.5 106.5q-147 -140 -254 -140 q-119 0 -191 71t-72 206q0 143 92.5 283t266.5 296l-10 11q-85 -56 -138 -81.5t-102 -25.5q-72 0 -113 23l-59 -174zM811 385q0 -68 2 -82q84 112 143.5 240t59.5 215q0 34 -17.5 52.5t-46.5 18.5q-64 0 -90 -53q-51 -87 -51 -391z" />
<glyph unicode="x" horiz-adv-x="1071" d="M-37 115q0 143 174 288l27 -24q-29 -49 -43.5 -125t-14.5 -133q0 -92 44 -92q35 0 68.5 21t62 62t51 81.5t45 100t35 96t28.5 89.5q70 225 70 301q0 115 -78 115q-72 0 -137 -72t-117 -205l-39 15q61 149 137 230t183 81q35 0 63.5 -4t62.5 -19.5t57.5 -41t39.5 -73 t16 -112.5h11q36 96 105 173t149 77q64 0 105.5 -35t41.5 -114q0 -40 -12.5 -77.5t-37 -70t-45.5 -55t-52 -49.5l-23 22q21 36 41 114t20 128q0 51 -10 72.5t-39 21.5q-48 0 -96 -50.5t-85.5 -130.5t-63 -150t-43.5 -136q-48 -175 -48 -260q0 -48 10.5 -78.5t29.5 -43 t33 -16t34 -3.5q73 0 129 66t109 202l36 -12q-30 -75 -57.5 -127t-63.5 -97t-82 -67.5t-102 -22.5q-41 0 -74 4.5t-73.5 20.5t-67.5 44t-46 80.5t-19 123.5h-13q-110 -273 -272 -273q-164 0 -164 140z" />
<glyph unicode="y" horiz-adv-x="1110" d="M-90 -299q0 88 47 129t113 41q52 0 81 -33t29 -67q0 -89 -47 -113q-19 -10 -47 -12t-47 -5.5t-25 -19.5q4 -28 29.5 -45.5t52 -22t56.5 -4.5q163 0 286.5 142.5t225.5 458.5l-9 2q-139 -177 -280 -177q-103 0 -171.5 68.5t-68.5 161.5q0 55 41 153l121 306q55 145 55 188 q0 30 -10.5 40.5t-34.5 10.5q-64 0 -116.5 -68.5t-106.5 -207.5l-37 14q30 76 55.5 126t60.5 95.5t79 67.5t98 22q86 0 150.5 -44.5t64.5 -125.5q0 -63 -37 -164l-131 -323q-45 -119 -45 -164q0 -47 20.5 -64.5t63.5 -17.5q62 0 131 53.5t123 130.5l215 689h231l-217 -705 q-235 -706 -749 -706q-71 0 -122.5 18.5t-77.5 49t-38 61t-12 61.5z" />
<glyph unicode="z" horiz-adv-x="878" d="M-45 53q0 32 25.5 64.5t78.5 75.5q303 249 619 473l-4 10q-65 2 -188 30.5t-160 28.5q-48 0 -72.5 -14t-24.5 -49q0 -64 115 -97l-18 -32q-203 67 -203 184q0 91 56 156t134 65q43 0 83.5 -17.5t71 -43.5t61.5 -56.5t55 -56.5t51 -43.5t51 -17.5q27 0 45 10.5t26 31 t10.5 40t2.5 47.5q0 108 78 108q88 0 88 -71q0 -41 -23 -74.5t-82 -81.5q-43 -35 -146.5 -114t-243.5 -184.5t-216 -164.5l2 -12q51 -4 162.5 -34t169.5 -30q141 0 141 70q0 38 -20 56t-62 26l13 37q164 -35 164 -183q0 -83 -59.5 -149t-145.5 -66q-41 0 -87 24.5t-85.5 59 t-77.5 69.5t-75 59.5t-66 25.5q-72 -20 -72 -147q0 -93 -102 -93q-25 0 -47.5 21t-22.5 59z" />
<glyph unicode="{" horiz-adv-x="858" d="M51 535l27 108q75 7 125.5 16.5t95.5 28t71.5 45t47.5 69t32 98t17 134.5q13 181 70 286.5t174 154.5t315 49l-12 -47q-73 -5 -120 -18.5t-80 -37t-52.5 -68t-30 -98t-18.5 -141.5q-10 -104 -41.5 -184t-75 -131.5t-108 -89.5t-128 -58.5t-147.5 -36.5l-12 -51 q76 -16 126.5 -33t94 -45t64 -70t20.5 -100q0 -72 -27 -163t-54.5 -174t-27.5 -136q0 -74 36 -104.5t138 -36.5l-12 -47q-212 0 -298.5 50.5t-86.5 168.5q0 61 20 131t44.5 122t44.5 114.5t20 111.5q0 96 -55.5 134t-196.5 49z" />
<glyph unicode="|" horiz-adv-x="677" d="M330 -424v1952h102v-1952h-102z" />
<glyph unicode="}" horiz-adv-x="858" d="M-113 -346l13 47q121 8 184.5 42t94.5 107t44 213q10 103 43.5 183.5t80 132t115.5 89.5t133.5 58.5t149.5 36.5l13 51q-62 13 -105.5 25.5t-88.5 32.5t-72 45t-44.5 61.5t-17.5 83.5q0 72 27 162.5t54.5 174t27.5 136.5q0 75 -39.5 105t-157.5 37l12 47 q215 0 311.5 -51.5t96.5 -167.5q0 -61 -20 -131t-44.5 -122.5t-44.5 -115t-20 -111.5q0 -94 63 -132.5t211 -49.5l-26 -108q-76 -7 -128 -17t-99.5 -28t-77 -45t-53 -69t-36 -98.5t-18.5 -134.5q-19 -266 -152.5 -377.5t-429.5 -111.5z" />
<glyph unicode="~" horiz-adv-x="1105" d="M113 367q27 102 108 188t174 86q62 0 135 -27.5t136 -54.5t102 -27q69 0 108 25.5t74 91.5l41 -14q-29 -105 -108.5 -190t-173.5 -85q-51 0 -108.5 17t-99 37.5t-88 37.5t-77.5 17q-69 0 -108 -25.5t-74 -91.5z" />
<glyph unicode="&#xa1;" horiz-adv-x="747" d="M121 113q0 47 53.5 166t146.5 320.5t156 377.5l49 -10q-40 -212 -68.5 -504t-35.5 -322q-18 -73 -64.5 -118.5t-111.5 -45.5q-58 0 -91.5 37t-33.5 99zM434 1280q0 61 41 101t103 40t103.5 -40t41.5 -101t-41.5 -102t-103.5 -41t-103 41t-41 102z" />
<glyph unicode="&#xa2;" horiz-adv-x="952" d="M115 446q0 74 25 161t74.5 174t116.5 158.5t159.5 117t193.5 47.5h14l101 270l53 -18l-96 -256q80 -15 132 -65.5t52 -114.5q0 -66 -32.5 -111t-82.5 -45q-96 0 -96 106q0 38 26.5 73.5t71.5 55.5q-9 50 -84 66l-319 -862q26 -13 59 -13q194 0 342 275l39 -19 q-172 -323 -413 -323q-22 0 -54 4l-135 -365l-49 17q8 23 21.5 60t42 115.5t47.5 130.5t18 52q-101 26 -164 101t-63 208zM350 373q0 -76 31 -133l305 829h-8q-81 -3 -159.5 -122t-123.5 -279.5t-45 -294.5z" />
<glyph unicode="&#xa3;" horiz-adv-x="1591" d="M-115 -45q0 111 109 184.5t278 73.5q95 0 187 -20q7 19 12 45.5t7.5 46t5.5 57.5t5 55h-292v47h1h1h1h1h1h1h1h1h1h1h1h1h1h1h1h1h1h1h1h1h1h1h1h1h1h1h1h1h1h1h1h1h1h1h1h1h1h1h1h1h1h1h1h1h1h1h1h1h1h1h1h2h1h1h1h1h1h1h1h1h1h1h2h1h1h1h1h1h1h2h1h1h1h1h2h1h1h1h2h1h1 h1h2h1h1h1h2h1h1h2h1h1h1h2h1h1h2h1h2h1h1h2h1h1h2h1h2h1h1h2h1h2h1h2h1h1h2h1h2h1h2h1h2h1h2h1h2h1h2h1h2h1h2h2h1h2h1h2h1h2h1h2h2h1h2h1h2h2h1h2h2h1h2h1h2h2h1h2h2h1h2h2h1h2h2h2h1h2h2h1h2h2h2h1h2h2h2h1h2h2h2h1h2h2h2h2h1h2h2h2h2h1h2h2h2h2h2h2h1h2h2h2h2h2h2h2h1h2 h9q5 22 18 140h-285v49h293q63 336 251.5 544.5t428.5 208.5q75 0 136.5 -17t101.5 -45t67 -65.5t39 -77.5t12 -83q0 -157 -107 -262t-271 -105q-90 0 -143.5 56.5t-53.5 146.5q0 110 59 201l43 -9q-49 -83 -49 -176q0 -77 35 -120.5t109 -43.5q82 0 141.5 92.5t62.5 219.5 q10 239 -178 239q-102 0 -173.5 -50.5t-127.5 -177.5t-90 -341q-9 -60 -25 -135h285v-49h-293q-13 -56 -45 -140h303v-47h-325q-60 -125 -166 -227q71 -23 164 -68.5t167.5 -73.5t145.5 -28q54 0 97.5 17.5t72 42t54.5 68t40 77.5t33 88l49 -14q-18 -72 -46 -134.5 t-73.5 -122t-103.5 -101.5t-140 -67.5t-178 -25.5q-52 0 -109.5 17t-95 35t-106.5 55.5t-100 52.5q-67 -80 -156 -128t-188 -48q-94 0 -141.5 40.5t-47.5 102.5zM-59 -49q0 -36 37 -60t96 -24q183 0 297 143q-135 62 -260 62q-83 0 -126.5 -33.5t-43.5 -87.5z" />
<glyph unicode="&#xa4;" horiz-adv-x="1267" d="M49 469l17 53h147q6 53 31 150h-154l14 53h156q81 237 266.5 391t409.5 154q151 0 237.5 -65.5t86.5 -162.5q0 -86 -40 -135t-98 -49q-52 0 -83 24.5t-31 65.5q0 47 34 89t37 71q-3 46 -45 79.5t-116 33.5q-123 0 -231 -137t-167 -359h410l-15 -53h-407q-18 -70 -27 -150 h328l-16 -53h-318q-4 -58 -4 -88q0 -147 57.5 -233.5t180.5 -86.5q65 0 118.5 17t98 52.5t80 78.5t75.5 106l47 -28q-90 -151 -208.5 -233.5t-292.5 -82.5q-199 0 -310.5 112t-111.5 318q0 45 2 68h-158z" />
<glyph unicode="&#xa5;" horiz-adv-x="1222" d="M82 295l12 53h324l39 141h-322l12 54h316q0 22 -12 84q-41 168 -115 413q-31 96 -82 131q-38 25 -104 29l12 43h624l-10 -43q-196 -15 -196 -59q0 -13 14 -76.5t44 -179.5t67 -246q407 455 407 491q0 57 -162 70l11 43h462l-10 -43q-14 -1 -53 -13t-57 -20 q-132 -67 -515 -538q-33 -38 -59 -86h313l-12 -54h-328q-16 -36 -22 -57l-23 -84h332l-12 -53h-336l-33 -125q-6 -27 -6 -41q0 -21 9.5 -33.5t33.5 -23.5q16 -8 64.5 -19t76.5 -12l-10 -41h-661l8 41q111 6 153 20q67 23 89 101l38 133h-321z" />
<glyph unicode="&#xa6;" horiz-adv-x="688" d="M336 379h100v-803h-100v803zM336 745v783h100v-783h-100z" />
<glyph unicode="&#xa7;" horiz-adv-x="1126" d="M39 -246q0 73 47.5 125.5t118.5 52.5q53 0 85 -30.5t32 -69.5q0 -33 -12.5 -57t-30 -36.5t-35.5 -23t-30.5 -26t-12.5 -37.5q0 -70 108 -70q86 0 144.5 75t58.5 177q0 61 -11.5 100t-54.5 132q-25 52 -89 154t-103 175q-57 100 -74.5 148t-17.5 112q0 121 93 208t259 104 q-35 82 -35 166q0 96 51 182.5t144 141t205 54.5q68 0 121 -21t81 -53.5t42 -66t14 -65.5q0 -83 -51.5 -135t-114.5 -52q-53 0 -85 30t-32 71q0 36 12.5 60t31 36t36.5 22t30.5 25.5t12.5 38.5q0 61 -113 61q-82 0 -139 -67t-57 -168q0 -45 14.5 -89.5t56.5 -136.5 q30 -64 94.5 -172.5t92.5 -158.5q55 -97 73.5 -149.5t18.5 -106.5q0 -74 -30.5 -131.5t-82.5 -93.5t-110.5 -57t-126.5 -30q39 -98 39 -180q0 -112 -57 -201.5t-149 -137.5t-200 -48q-125 0 -193.5 62t-68.5 157zM360 739q0 -76 56 -182q31 -58 118.5 -201.5t116.5 -208.5 q74 22 120 69t46 120q0 44 -12 80t-41 88q-36 67 -120 215t-112 205q-82 -13 -127 -64t-45 -121z" />
<glyph unicode="&#xa8;" horiz-adv-x="1024" d="M373 1290q0 63 43.5 108.5t113.5 45.5q47 0 79 -37t32 -82q0 -62 -42.5 -109t-109.5 -47q-54 0 -85 36t-31 85zM801 1290q0 63 44.5 108.5t115.5 45.5q47 0 76.5 -36.5t29.5 -82.5q0 -62 -40 -109t-107 -47q-55 0 -87 36t-32 85z" />
<glyph unicode="&#xa9;" horiz-adv-x="1945" d="M55 514q0 178 70.5 341t190 281.5t285.5 188.5t349 70q182 0 347 -70t284 -188.5t189.5 -281.5t70.5 -341q0 -180 -70.5 -343.5t-189.5 -282t-284 -189t-347 -70.5q-183 0 -348.5 70.5t-285.5 189t-190.5 282t-70.5 343.5zM143 514q0 -134 40 -258.5t114.5 -224.5 t173.5 -175t222.5 -116t256.5 -41q165 0 314 64t256 173t170 260t63 318q0 165 -63 314.5t-170 258t-256 172.5t-314 64q-111 0 -216 -29t-193.5 -81.5t-163 -127t-126 -163.5t-80 -193.5t-28.5 -214.5zM473 506q0 214 146 356t372 142q56 0 121 -18.5t102 -45.5l46 78h55 l8 -371h-47q-17 52 -33.5 89.5t-44 79t-59.5 67t-80 42.5t-107 17q-116 0 -197 -108.5t-81 -317.5q0 -180 94 -289.5t236 -109.5q117 0 185.5 56t119.5 161l45 -21q-128 -286 -391 -286q-222 0 -356 129.5t-134 349.5z" />
<glyph unicode="&#xaa;" horiz-adv-x="739" d="M119 547l16 59h461l-16 -59h-461zM168 920q0 49 22.5 108t62 113.5t102.5 91.5t134 37q75 0 95 -70h4l18 64h133l-123 -359q-20 -59 -20 -88t22 -29q61 0 111 140l35 -10q-39 -89 -72.5 -131t-89.5 -42q-52 0 -83.5 23t-35.5 68h-6q-38 -49 -70.5 -72t-78.5 -23 q-66 0 -113 42t-47 137zM311 885q0 -94 54 -94q56 0 112 100l82 264q-8 42 -22.5 60t-44.5 18q-51 0 -94.5 -61t-65 -140t-21.5 -147z" />
<glyph unicode="&#xab;" horiz-adv-x="1138" d="M82 416q0 20 15.5 64t41.5 63q22 14 122 75t207.5 129.5t207.5 137.5l22 -25l-411 -416l188 -395l-29 -18q-146 151 -329 329q-23 23 -29 33t-6 23zM510 416q0 20 15.5 64t41.5 63q22 14 122 75t207.5 129.5t207.5 137.5l22 -25l-411 -416l188 -395l-29 -18 q-146 151 -329 329q-23 23 -29 33t-6 23z" />
<glyph unicode="&#xac;" horiz-adv-x="1171" d="M125 522v99h956v-541h-108v442h-848z" />
<glyph unicode="&#xad;" horiz-adv-x="686" d="M47 420l45 172h545l-45 -172h-545z" />
<glyph unicode="&#xae;" horiz-adv-x="1011" d="M270 1067q0 158 107.5 265.5t265.5 107.5t265.5 -107.5t107.5 -265.5t-107.5 -265.5t-265.5 -107.5t-265.5 107.5t-107.5 265.5zM311 1067q0 -143 95 -241.5t237 -98.5t237 98.5t95 241.5t-95 241.5t-237 98.5t-237 -98.5t-95 -241.5zM453 872v23q29 0 41 6q18 9 18 31 v301q0 26 -18 31q-24 8 -41 8v20h215q53 0 94 -23.5t41 -70.5q0 -74 -119 -106v-7q30 -4 58 -19.5t36 -45.5q3 -13 10 -44.5t11 -47.5q7 -27 28 -27q13 0 20 10.5t7 40.5h20q0 -45 -17 -65.5t-58 -20.5q-76 0 -88 105q-4 29 -10 48t-26 35.5t-54 16.5h-35v-139q0 -23 18 -31 q12 -6 41 -6v-23h-192zM586 1096h32q101 0 101 90q0 49 -22 66.5t-62 17.5h-49v-174z" />
<glyph unicode="&#xaf;" horiz-adv-x="1024" d="M377 1192l41 156h676l-41 -156h-676z" />
<glyph unicode="&#xb0;" horiz-adv-x="774" d="M164 1135q0 134 96.5 225.5t233.5 91.5q119 0 213 -80t94 -209q0 -130 -94 -221.5t-226 -91.5q-81 0 -152 33t-118 99.5t-47 152.5zM309 1108q0 -89 43.5 -142t118.5 -53q83 0 131.5 82t50.5 203q0 95 -42.5 143t-116.5 48q-61 0 -104.5 -45.5t-62 -107t-18.5 -128.5z " />
<glyph unicode="&#xb1;" horiz-adv-x="1816" d="M-477 -307q0 45 34 86t91 41q47 0 88 -29.5t41 -87.5q0 -22 -8.5 -39.5t-29 -41.5t-24.5 -30q3 -17 12.5 -26.5t20.5 -9.5q45 0 81.5 17.5t64 48t55 88t50 120t52.5 162.5q45 149 84 294.5t89.5 348.5t54.5 217h-197l20 68h197l20 73q70 259 242 414q125 115 301 115 q113 0 179.5 -54.5t68.5 -132.5q45 49 72 72q131 115 309 115q112 0 182 -56l244 50l-401 -1258q-50 -148 -50 -176q0 -53 58 -53q67 0 121.5 67t107.5 203l37 -12q-30 -75 -58 -126.5t-63.5 -95.5t-79 -66t-96.5 -22q-39 0 -77.5 9t-73.5 27.5t-56.5 52.5t-21.5 79 q0 52 36 162l304 963q-33 22 -43 61.5t-5 110.5q-8 21 -37 30t-55 9q-89 0 -158 -102t-132 -324l-37 -135h223l-23 -68h-217q-14 -54 -50.5 -194.5t-58 -223.5t-53 -195t-55.5 -190q-88 -283 -248 -414q-78 -66 -142.5 -92t-141.5 -26q-95 0 -146 50t-51 126q0 46 35 86.5 t92 40.5q46 0 86.5 -29.5t40.5 -87.5q0 -21 -7.5 -38t-29 -43t-24.5 -30q0 -5 0.5 -12.5t0.5 -10.5t1 -6.5t3.5 -5t6.5 -1.5q84 0 148 101.5t135 334.5q45 148 85 297.5t87 341t55 221.5h-379q-14 -54 -50.5 -194.5t-58 -223.5t-53 -195t-55.5 -190q-88 -283 -248 -414 q-139 -118 -305 -118q-112 0 -164.5 49t-52.5 127zM526 920h383l23 73q36 129 88 217q-53 2 -95 28t-42 79q0 25 8.5 73.5t9.5 55.5q-11 35 -63 35q-86 0 -150 -100.5t-125 -325.5z" />
<glyph unicode="&#xb2;" horiz-adv-x="1263" d="M78 793q0 64 45 110.5t110 46.5q92 0 138 -86q8 -15 18.5 -49.5t24 -64t35.5 -52.5l30 2q59 62 142 62l22 14q0 58 -35 126.5t-35 107.5q0 66 45.5 107.5t110.5 41.5q66 0 109 -45.5t43 -109.5q0 -37 -12.5 -63.5t-34 -44t-44.5 -33t-48.5 -41t-41.5 -56.5l9 -25 q78 -41 98 -118l24 -13q37 13 68.5 39.5t50.5 48.5t50.5 39t72.5 17q62 0 106 -46t44 -112q0 -64 -44.5 -108t-109.5 -44q-40 0 -75.5 21.5t-75.5 48t-87 33.5l-18 -17q-11 -70 -80 -122l-2 -21q33 -43 109 -80q112 -53 112 -155q0 -62 -47 -109t-112 -47q-63 0 -108.5 44.5 t-45.5 109.5q0 29 18.5 88t18.5 104v23l-14 10q-14 -2 -41 -2q-62 0 -115 37l-27 -2q-31 -46 -43 -125q-12 -75 -50.5 -122.5t-109.5 -47.5q-63 0 -110 45.5t-47 111.5t49 110t121 44h16h19.5t19 1t23.5 2.5t22.5 4.5t26 8t24.5 11l6 28q-20 45 -20 88q0 27 6 51l-10 27 q-18 6 -55 6q-31 0 -72 -7t-59 -7q-67 0 -112.5 46t-45.5 110zM483 569q0 -60 40 -101.5t98 -41.5q59 0 98 41t39 102q0 59 -39 99.5t-98 40.5q-58 0 -98 -40.5t-40 -99.5z" />
<glyph unicode="&#xb3;" horiz-adv-x="1263" d="M78 793q0 64 45 110.5t110 46.5q92 0 138 -86q8 -15 18.5 -49.5t24 -64t35.5 -52.5l30 2q59 62 142 62l22 14q0 58 -35 126.5t-35 107.5q0 66 45.5 107.5t110.5 41.5q66 0 109 -45.5t43 -109.5q0 -37 -12.5 -63.5t-34 -44t-44.5 -33t-48.5 -41t-41.5 -56.5l9 -25 q78 -41 98 -118l24 -13q37 13 68.5 39.5t50.5 48.5t50.5 39t72.5 17q62 0 106 -46t44 -112q0 -64 -44.5 -108t-109.5 -44q-40 0 -75.5 21.5t-75.5 48t-87 33.5l-18 -17q-11 -70 -80 -122l-2 -21q33 -43 109 -80q112 -53 112 -155q0 -62 -47 -109t-112 -47q-63 0 -108.5 44.5 t-45.5 109.5q0 29 18.5 88t18.5 104v23l-14 10q-14 -2 -41 -2q-62 0 -115 37l-27 -2q-31 -46 -43 -125q-12 -75 -50.5 -122.5t-109.5 -47.5q-63 0 -110 45.5t-47 111.5t49 110t121 44h16h19.5t19 1t23.5 2.5t22.5 4.5t26 8t24.5 11l6 28q-20 45 -20 88q0 27 6 51l-10 27 q-18 6 -55 6q-31 0 -72 -7t-59 -7q-67 0 -112.5 46t-45.5 110zM483 569q0 -60 40 -101.5t98 -41.5q59 0 98 41t39 102q0 59 -39 99.5t-98 40.5q-58 0 -98 -40.5t-40 -99.5z" />
<glyph unicode="&#xb4;" horiz-adv-x="1024" d="M432 1104q139 159 227 270q54 69 83 90t69 21q34 0 61 -25.5t27 -56.5q0 -47 -26.5 -79.5t-94.5 -72.5q-19 -11 -129 -68t-192 -110z" />
<glyph unicode="&#xb5;" horiz-adv-x="1234" d="M-102 -373q0 31 22.5 84.5t57 121t45.5 95.5q27 66 69 201l240 793h233l-186 -619q-25 -80 -25 -137q0 -58 27.5 -87.5t73.5 -29.5q73 0 147 71.5t109 137.5l198 664h234l-205 -664q-39 -133 -39 -168q0 -61 51 -61q38 0 70.5 20t60 61.5t47.5 83t46 105.5l40 -12 q-62 -159 -128 -234.5t-168 -75.5q-94 0 -155 45.5t-61 145.5h-8q-28 -37 -42.5 -55t-46.5 -49.5t-60 -47t-71.5 -28.5t-92.5 -13q-67 0 -128.5 36t-86.5 102h-4l-19 -80q-20 -92 -16 -232q0 -100 -12 -147q-15 -57 -47.5 -87t-77.5 -30q-92 0 -92 90z" />
<glyph unicode="&#xb6;" horiz-adv-x="1239" d="M203 1008q0 71 31 139.5t89 125.5t152 91.5t209 34.5h717l-10 -45h-281l-401 -1610h-58l402 1610h-189l-401 -1610h-57l237 956h-20q-196 0 -308 84t-112 224z" />
<glyph unicode="&#xb7;" horiz-adv-x="567" d="M158 557q0 61 44.5 105.5t106.5 44.5q63 0 107.5 -44t44.5 -106q0 -63 -44.5 -106t-107.5 -43q-62 0 -106.5 43.5t-44.5 105.5z" />
<glyph unicode="&#xb8;" horiz-adv-x="1024" d="M47 -465l12 47q154 3 228.5 31t74.5 90q0 39 -33 53.5t-114 14.5l80 245h57l-39 -120q232 0 232 -142q0 -64 -39 -108.5t-111 -67.5t-156 -33t-192 -10z" />
<glyph unicode="&#xb9;" horiz-adv-x="1263" d="M78 793q0 64 45 110.5t110 46.5q92 0 138 -86q8 -15 18.5 -49.5t24 -64t35.5 -52.5l30 2q59 62 142 62l22 14q0 58 -35 126.5t-35 107.5q0 66 45.5 107.5t110.5 41.5q66 0 109 -45.5t43 -109.5q0 -37 -12.5 -63.5t-34 -44t-44.5 -33t-48.5 -41t-41.5 -56.5l9 -25 q78 -41 98 -118l24 -13q37 13 68.5 39.5t50.5 48.5t50.5 39t72.5 17q62 0 106 -46t44 -112q0 -64 -44.5 -108t-109.5 -44q-40 0 -75.5 21.5t-75.5 48t-87 33.5l-18 -17q-11 -70 -80 -122l-2 -21q33 -43 109 -80q112 -53 112 -155q0 -62 -47 -109t-112 -47q-63 0 -108.5 44.5 t-45.5 109.5q0 29 18.5 88t18.5 104v23l-14 10q-14 -2 -41 -2q-62 0 -115 37l-27 -2q-31 -46 -43 -125q-12 -75 -50.5 -122.5t-109.5 -47.5q-63 0 -110 45.5t-47 111.5t49 110t121 44h16h19.5t19 1t23.5 2.5t22.5 4.5t26 8t24.5 11l6 28q-20 45 -20 88q0 27 6 51l-10 27 q-18 6 -55 6q-31 0 -72 -7t-59 -7q-67 0 -112.5 46t-45.5 110zM483 569q0 -60 40 -101.5t98 -41.5q59 0 98 41t39 102q0 59 -39 99.5t-98 40.5q-58 0 -98 -40.5t-40 -99.5z" />
<glyph unicode="&#xba;" horiz-adv-x="651" d="M104 547l15 59h461l-15 -59h-461zM168 938q0 48 22.5 104t62 107.5t104 86t139.5 34.5q30 0 59.5 -11t57 -33.5t44.5 -62t17 -90.5q0 -39 -13.5 -83.5t-41.5 -88.5t-65.5 -79.5t-91.5 -58t-114 -22.5q-67 0 -123.5 50t-56.5 147zM307 907q0 -63 16.5 -96t43.5 -33 q50 0 90 56.5t59 131t19 142.5q0 62 -15.5 94.5t-40.5 32.5q-49 0 -90 -56.5t-61.5 -130.5t-20.5 -141z" />
<glyph unicode="&#xbb;" horiz-adv-x="1138" d="M20 55l412 416l-188 395l28 19q84 -87 194.5 -196.5t133.5 -133.5q25 -24 31 -33t6 -22q0 -20 -15.5 -64t-41.5 -61q-1 0 -201.5 -125t-335.5 -219zM449 55l411 416l-188 395l28 19q84 -87 194.5 -196.5t133.5 -133.5q25 -24 31 -33t6 -22q0 -20 -15.5 -64t-41.5 -61 q-1 0 -201.5 -125t-335.5 -219z" />
<glyph unicode="&#xbc;" horiz-adv-x="1200" d="M18 -260q0 26 27 39.5t64 13.5q19 0 69 -4q162 128 285 592h217q-56 -180 -181 -340t-270 -258q58 12 111 12q62 0 197 -18l100 272h174l-98 -272q45 5 90 24.5t74 51.5l16 -19q-98 -122 -209 -141l-63 -185h-170l61 185q-23 4 -113 33.5t-145 29.5q-35 0 -59 -4 q-59 -63 -105 -63q-72 0 -72 51zM78 487l22 84h1008l-23 -84h-1007zM365 694l12 45q133 9 147 13q23 6 41.5 24t24.5 41l153 582q-27 -6 -73 -6q-66 0 -162 84l24 30q76 -32 162 -32q64 0 146.5 19t128.5 40h26q-45 -92 -75 -209l-129 -485l-7 -35q0 -36 33 -47 q25 -11 131 -19l-12 -45h-571z" />
<glyph unicode="&#xbd;" horiz-adv-x="1200" d="M25 -465l12 59q44 25 133 75t123 70t87.5 54t98.5 68q203 164 203 342q0 60 -32.5 91.5t-88.5 31.5q-116 0 -197 -82.5t-81 -167.5q0 -53 65 -53q60 0 129 92l27 -25q-51 -67 -109 -106t-143 -39q-51 0 -90 27t-39 79q0 54 36 111t96.5 104.5t149.5 78t185 30.5 q129 0 210 -56.5t81 -140.5q0 -125 -116 -226.5t-390 -215.5l-101 -55h381q51 0 92 36t87 107l30 -17l-141 -272h-698zM78 487l22 84h1008l-23 -84h-1007zM365 694l12 45q133 9 147 13q23 6 41.5 24t24.5 41l153 582q-27 -6 -73 -6q-66 0 -162 84l24 30q76 -32 162 -32 q64 0 146.5 19t128.5 40h26q-45 -92 -75 -209l-129 -485l-7 -35q0 -36 33 -47q25 -11 131 -19l-12 -45h-571z" />
<glyph unicode="&#xbe;" horiz-adv-x="1200" d="M16 -260q0 26 26 39.5t62 13.5q22 0 72 -4q162 128 285 592h217q-56 -180 -181 -340t-270 -258q58 12 111 12q62 0 197 -18l98 272h176l-98 -272q45 5 89.5 24.5t73.5 51.5l17 -19q-98 -122 -209 -141l-64 -185h-172l62 185q-23 4 -112 33.5t-144 29.5q-35 0 -59 -4 q-59 -63 -107 -63q-70 0 -70 51zM78 487l22 84h1000l-23 -84h-999zM305 846q0 66 43.5 113t102.5 47q37 0 58 -18t21 -48q0 -37 -12 -56.5t-26.5 -24t-26.5 -17.5t-12 -37q0 -78 127 -78q115 0 214 89t99 210q0 39 -22.5 61.5t-63.5 22.5q-29 0 -60.5 -14.5t-52 -29.5 t-61.5 -48l-29 53q90 43 147.5 76t106 72t70.5 82t22 94q0 40 -28.5 63t-75.5 23q-76 0 -147.5 -54.5t-71.5 -123.5q0 -43 39 -43q52 0 102 43l20 -25q-106 -94 -194 -94q-63 0 -99 25t-36 63q0 66 60.5 125.5t163 95t218.5 35.5q122 0 181 -48t59 -110q0 -157 -275 -201 l-22 -20q51 0 93 -7t79.5 -23t58.5 -46.5t21 -73.5q0 -95 -75 -169.5t-195 -113t-261 -38.5q-115 0 -187.5 42.5t-72.5 125.5z" />
<glyph unicode="&#xbf;" horiz-adv-x="905" d="M-4 299q0 237 285 360q169 73 250 138t81 157q0 42 -22 60t-55 18q-49 0 -88 -50t-52 -118l-45 15q14 86 71.5 140t121.5 54q89 0 149 -56.5t60 -150.5q0 -104 -71 -182t-222 -149q-143 -68 -202 -134.5t-58 -167.5q2 -83 62.5 -144.5t166.5 -61.5q103 0 169.5 57.5 t66.5 138.5q0 62 -37.5 104t-100.5 42q-29 0 -47 -9v-12q32 2 66.5 -22.5t34.5 -65.5q0 -45 -30 -75.5t-75 -30.5q-58 0 -91.5 29.5t-33.5 82.5q0 66 48 105t120 39q79 0 133 -51.5t54 -133.5q0 -107 -87.5 -177.5t-232.5 -70.5q-173 0 -281 93.5t-108 228.5zM530 1284 q0 61 42 101t104 40t102.5 -40t40.5 -101q0 -62 -41 -103.5t-102 -41.5q-62 0 -104 42t-42 103z" />
<glyph unicode="&#xc0;" horiz-adv-x="1273" d="M-264 0l12 41q58 4 141 41q85 40 191 162q480 577 940 1177h57v-1239q0 -48 9 -74t38 -40q44 -23 125 -27l-12 -41h-651l10 41q102 6 162 27q67 25 67 108v336h-444q-153 -199 -191 -248q-73 -99 -73 -127q0 -41 64.5 -66.5t129.5 -29.5l-12 -41h-563zM430 575h395v490 q-22 -24 -107 -129.5t-180.5 -225.5t-107.5 -135zM758 1819q0 36 28 64t66 28q41 0 72.5 -27.5t62.5 -97.5q52 -121 123 -276l-31 -25q-73 69 -252 217q-69 57 -69 117z" />
<glyph unicode="&#xc1;" horiz-adv-x="1273" d="M-264 0l12 41q58 4 141 41q85 40 191 162q480 577 940 1177h57v-1239q0 -48 9 -74t38 -40q44 -23 125 -27l-12 -41h-651l10 41q102 6 162 27q67 25 67 108v336h-444q-153 -199 -191 -248q-73 -99 -73 -127q0 -41 64.5 -66.5t129.5 -29.5l-12 -41h-563zM430 575h395v490 q-22 -24 -107 -129.5t-180.5 -225.5t-107.5 -135zM903 1495q139 159 227 270q54 69 83 90t69 21q34 0 61 -25.5t27 -56.5q0 -47 -26.5 -79.5t-94.5 -72.5q-19 -11 -129 -68t-192 -110z" />
<glyph unicode="&#xc2;" horiz-adv-x="1273" d="M-264 0l12 41q58 4 141 41q85 40 191 162q480 577 940 1177h57v-1239q0 -48 9 -74t38 -40q44 -23 125 -27l-12 -41h-651l10 41q102 6 162 27q67 25 67 108v336h-444q-153 -199 -191 -248q-73 -99 -73 -127q0 -41 64.5 -66.5t129.5 -29.5l-12 -41h-563zM430 575h395v490 q-22 -24 -107 -129.5t-180.5 -225.5t-107.5 -135zM698 1454q134 142 311 342q30 34 48.5 42.5t68.5 8.5q42 0 56 -8t26 -39q10 -25 59 -154t78 -198l-33 -17l-217 258l-372 -258z" />
<glyph unicode="&#xc3;" horiz-adv-x="1273" d="M-264 0l12 41q58 4 141 41q85 40 191 162q480 577 940 1177h57v-1239q0 -48 9 -74t38 -40q44 -23 125 -27l-12 -41h-651l10 41q102 6 162 27q67 25 67 108v336h-444q-153 -199 -191 -248q-73 -99 -73 -127q0 -41 64.5 -66.5t129.5 -29.5l-12 -41h-563zM430 575h395v490 q-22 -24 -107 -129.5t-180.5 -225.5t-107.5 -135zM694 1524q19 35 38.5 67t50 72.5t59.5 69.5t65.5 49t70.5 20q74 0 154 -63q5 -3 19 -14t19 -14t16.5 -11.5t17.5 -11.5t16 -8.5t17 -7t16 -3.5t18 -2q54 0 96 37t93 113l37 -19q-24 -47 -51.5 -89.5t-64.5 -88t-80.5 -73 t-84.5 -27.5q-33 0 -62.5 9.5t-46 19.5t-47.5 32q-4 3 -15.5 11.5t-16 12t-15 11t-16.5 11t-15.5 9t-16 8t-15 6t-16 4.5t-15.5 1q-54 0 -94.5 -36.5t-91.5 -113.5z" />
<glyph unicode="&#xc4;" horiz-adv-x="1273" d="M-264 0l12 41q58 4 141 41q85 40 191 162q480 577 940 1177h57v-1239q0 -48 9 -74t38 -40q44 -23 125 -27l-12 -41h-651l10 41q102 6 162 27q67 25 67 108v336h-444q-153 -199 -191 -248q-73 -99 -73 -127q0 -41 64.5 -66.5t129.5 -29.5l-12 -41h-563zM430 575h395v490 q-22 -24 -107 -129.5t-180.5 -225.5t-107.5 -135zM735 1648q0 63 43.5 108.5t113.5 45.5q47 0 79 -37t32 -82q0 -62 -42.5 -109t-109.5 -47q-54 0 -85 36t-31 85zM1163 1648q0 63 44.5 108.5t115.5 45.5q47 0 76.5 -36.5t29.5 -82.5q0 -62 -40 -109t-107 -47q-55 0 -87 36 t-32 85z" />
<glyph unicode="&#xc5;" horiz-adv-x="1273" d="M-264 0l12 41q58 4 141 41q85 40 191 162q480 577 940 1177h57v-1239q0 -48 9 -74t38 -40q44 -23 125 -27l-12 -41h-651l10 41q102 6 162 27q67 25 67 108v336h-444q-153 -199 -191 -248q-73 -99 -73 -127q0 -41 64.5 -66.5t129.5 -29.5l-12 -41h-563zM430 575h395v490 q-22 -24 -107 -129.5t-180.5 -225.5t-107.5 -135zM840 1685q0 91 70.5 154t171.5 63q99 0 172 -62t73 -153t-68.5 -151t-168.5 -60q-102 0 -176 58t-74 151zM965 1669q0 -66 28 -105.5t84 -39.5q62 0 93.5 55.5t31.5 126.5q0 67 -28 108t-84 41q-58 0 -91.5 -55.5 t-33.5 -130.5z" />
<glyph unicode="&#xc6;" horiz-adv-x="1941" d="M-260 0l12 43q32 2 80.5 13t81.5 26q84 40 186 160q588 684 916 1077q-26 11 -92 23t-101 14l8 43h1205l-88 -320h-52v17q0 92 -39 162t-104 79q-64 9 -160 9h-200l-166 -594h141q120 0 195 65q26 21 59.5 80.5t52.5 106.5h51l-157 -570h-49q6 38 6 92q0 80 -17 107 q-13 19 -23.5 29.5t-45 22t-86.5 11.5h-142l-129 -454q-20 -68 -20 -99q0 -55 44 -71.5t163 -16.5q89 0 134 1.5t99 12.5t82 33q63 51 138 144t104 147h51l-133 -393h-1210l12 41q25 0 86.5 8.5t85.5 16.5q68 24 88 102l111 393h-461q-190 -220 -242 -293q-80 -110 -80 -137 q0 -20 20.5 -37t51.5 -27t60.5 -16t54.5 -8l-11 -43h-571zM510 625h424l182 692h-24z" />
<glyph unicode="&#xc7;" horiz-adv-x="1277" d="M84 492q0 192 69.5 366t185 297.5t271 196.5t322.5 73q174 0 299 -104l78 98h82l-99 -506h-47q-9 86 -22 150t-37.5 124t-60 97t-90.5 59.5t-128 22.5q-96 0 -192.5 -65.5t-171.5 -175t-123 -264t-51 -320.5q-3 -222 84.5 -354t261.5 -132q144 0 250 81t219 249l45 -31 q-44 -69 -81.5 -117.5t-92.5 -103t-111.5 -87.5t-134.5 -55t-166 -22h-43l-25 -73q232 0 232 -142q0 -64 -39 -108.5t-111 -67.5t-156 -33t-192 -10l13 47q153 3 227 31t74 90q0 39 -32.5 53.5t-113.5 14.5l66 202q-220 27 -339.5 166.5t-119.5 352.5z" />
<glyph unicode="&#xc8;" horiz-adv-x="1296" d="M-113 0l15 41q25 0 85.5 8.5t84.5 16.5q68 24 88 102l291 1049q8 36 8 49q0 20 -9 32.5t-32 22.5q-25 11 -74.5 22.5t-77.5 12.5l13 43h1110l-89 -320h-47v17q0 91 -40.5 160.5t-106.5 78.5q-57 8 -168 8h-193l-165 -589h153q107 0 185 65q26 21 60 79.5t52 105.5h49 l-159 -570h-46q7 44 7 92q0 80 -17 107q-21 31 -51.5 47t-95.5 16h-152l-127 -452q-20 -68 -20 -99q0 -53 54.5 -70.5t178.5 -17.5q86 0 126.5 1.5t87.5 12.5t75 33q63 51 137 143t103 146h51l-133 -393h-1211zM598 1796q0 36 28 64t66 28q41 0 72.5 -27.5t62.5 -97.5 q52 -121 123 -276l-31 -25q-73 69 -252 217q-69 57 -69 117z" />
<glyph unicode="&#xc9;" horiz-adv-x="1296" d="M-113 0l15 41q25 0 85.5 8.5t84.5 16.5q68 24 88 102l291 1049q8 36 8 49q0 20 -9 32.5t-32 22.5q-25 11 -74.5 22.5t-77.5 12.5l13 43h1110l-89 -320h-47v17q0 91 -40.5 160.5t-106.5 78.5q-57 8 -168 8h-193l-165 -589h153q107 0 185 65q26 21 60 79.5t52 105.5h49 l-159 -570h-46q7 44 7 92q0 80 -17 107q-21 31 -51.5 47t-95.5 16h-152l-127 -452q-20 -68 -20 -99q0 -53 54.5 -70.5t178.5 -17.5q86 0 126.5 1.5t87.5 12.5t75 33q63 51 137 143t103 146h51l-133 -393h-1211zM790 1495q139 159 227 270q54 69 83 90t69 21q34 0 61 -25.5 t27 -56.5q0 -47 -26.5 -79.5t-94.5 -72.5q-19 -11 -129 -68t-192 -110z" />
<glyph unicode="&#xca;" horiz-adv-x="1296" d="M-113 0l15 41q25 0 85.5 8.5t84.5 16.5q68 24 88 102l291 1049q8 36 8 49q0 20 -9 32.5t-32 22.5q-25 11 -74.5 22.5t-77.5 12.5l13 43h1110l-89 -320h-47v17q0 91 -40.5 160.5t-106.5 78.5q-57 8 -168 8h-193l-165 -589h153q107 0 185 65q26 21 60 79.5t52 105.5h49 l-159 -570h-46q7 44 7 92q0 80 -17 107q-21 31 -51.5 47t-95.5 16h-152l-127 -452q-20 -68 -20 -99q0 -53 54.5 -70.5t178.5 -17.5q86 0 126.5 1.5t87.5 12.5t75 33q63 51 137 143t103 146h51l-133 -393h-1211zM584 1499q134 142 311 342q30 34 48.5 42.5t68.5 8.5 q42 0 56 -8t26 -39q10 -25 59 -154t78 -198l-33 -17l-217 258l-372 -258z" />
<glyph unicode="&#xcb;" horiz-adv-x="1296" d="M-113 0l15 41q25 0 85.5 8.5t84.5 16.5q68 24 88 102l291 1049q8 36 8 49q0 20 -9 32.5t-32 22.5q-25 11 -74.5 22.5t-77.5 12.5l13 43h1110l-89 -320h-47v17q0 91 -40.5 160.5t-106.5 78.5q-57 8 -168 8h-193l-165 -589h153q107 0 185 65q26 21 60 79.5t52 105.5h49 l-159 -570h-46q7 44 7 92q0 80 -17 107q-21 31 -51.5 47t-95.5 16h-152l-127 -452q-20 -68 -20 -99q0 -53 54.5 -70.5t178.5 -17.5q86 0 126.5 1.5t87.5 12.5t75 33q63 51 137 143t103 146h51l-133 -393h-1211zM584 1661q0 63 43.5 108.5t113.5 45.5q47 0 79 -37t32 -82 q0 -62 -42 -109t-110 -47q-54 0 -85 36t-31 85zM1012 1661q0 63 44.5 108.5t115.5 45.5q47 0 76.5 -36.5t29.5 -82.5q0 -62 -40 -109t-107 -47q-55 0 -87 36t-32 85z" />
<glyph unicode="&#xcc;" horiz-adv-x="794" d="M-88 0l10 41q109 6 152 20q66 22 88 101l295 1057q8 36 8 47q0 20 -9.5 32t-31.5 23q-23 10 -68 22t-67 13l10 43h680l-12 -43q-76 -4 -158 -25q-67 -20 -90 -102l-297 -1059q-6 -27 -6 -41q0 -21 9.5 -33.5t33.5 -23.5q16 -8 64.5 -19t76.5 -12l-10 -41h-678zM363 1796 q0 36 28 64t66 28q41 0 72.5 -27.5t62.5 -97.5q52 -121 123 -276l-31 -25q-73 69 -252 217q-69 57 -69 117z" />
<glyph unicode="&#xcd;" horiz-adv-x="794" d="M-88 0l10 41q109 6 152 20q66 22 88 101l295 1057q8 36 8 47q0 20 -9.5 32t-31.5 23q-23 10 -68 22t-67 13l10 43h680l-12 -43q-76 -4 -158 -25q-67 -20 -90 -102l-297 -1059q-6 -27 -6 -41q0 -21 9.5 -33.5t33.5 -23.5q16 -8 64.5 -19t76.5 -12l-10 -41h-678zM561 1495 q139 159 227 270q54 69 83 90t69 21q34 0 61 -25.5t27 -56.5q0 -47 -26.5 -79.5t-94.5 -72.5q-19 -11 -129 -68t-192 -110z" />
<glyph unicode="&#xce;" horiz-adv-x="794" d="M-88 0l10 41q109 6 152 20q66 22 88 101l295 1057q8 36 8 47q0 20 -9.5 32t-31.5 23q-23 10 -68 22t-67 13l10 43h680l-12 -43q-76 -4 -158 -25q-67 -20 -90 -102l-297 -1059q-6 -27 -6 -41q0 -21 9.5 -33.5t33.5 -23.5q16 -8 64.5 -19t76.5 -12l-10 -41h-678zM326 1499 q134 142 311 342q30 34 48.5 42.5t68.5 8.5q42 0 56 -8t26 -39q10 -25 59 -154t78 -198l-33 -17l-217 258l-372 -258z" />
<glyph unicode="&#xcf;" horiz-adv-x="794" d="M-88 0l10 41q109 6 152 20q66 22 88 101l295 1057q8 36 8 47q0 20 -9.5 32t-31.5 23q-23 10 -68 22t-67 13l10 43h680l-12 -43q-76 -4 -158 -25q-67 -20 -90 -102l-297 -1059q-6 -27 -6 -41q0 -21 9.5 -33.5t33.5 -23.5q16 -8 64.5 -19t76.5 -12l-10 -41h-678zM338 1661 q0 63 43.5 108.5t113.5 45.5q47 0 79 -37t32 -82q0 -62 -42 -109t-110 -47q-54 0 -85 36t-31 85zM766 1661q0 63 44.5 108.5t115.5 45.5q47 0 76.5 -36.5t29.5 -82.5q0 -62 -40 -109t-107 -47q-55 0 -87 36t-32 85z" />
<glyph unicode="&#xd0;" horiz-adv-x="1540" d="M-88 0l8 41q109 6 152 20q66 22 88 101l149 532h-207l19 68h207l127 457q8 24 8 47q0 20 -9.5 32t-31.5 23q-20 10 -65.5 21.5t-69.5 13.5l12 43h619q90 0 171.5 -16t160.5 -55.5t136.5 -100t92.5 -156t34 -217.5q-1 -156 -54.5 -292.5t-146 -238.5t-216 -175.5 t-268 -110.5t-298.5 -37h-618zM434 217q-22 -76 11 -117t110 -41q146 0 275 65.5t217 173.5t139 248.5t51 289.5q0 246 -99 375.5t-294 129.5q-34 0 -96 -4l-162 -575h268l-18 -68h-269z" />
<glyph unicode="&#xd1;" horiz-adv-x="1454" d="M-139 0l12 41q36 2 105 19.5t98 35.5q82 52 143 281l195 727q8 32 8 70q0 73 -39 112q-65 65 -205 70l12 43h478l438 -1010l168 631q33 130 33 190q0 63 -29 86q-25 20 -89.5 40t-101.5 22l11 41h604l-10 -41q-34 -2 -103 -18t-98 -33q-48 -27 -80 -95.5t-61 -179.5 l-281 -1046h-65l-504 1175l-205 -774q-11 -39 -22 -101.5t-11 -86.5q0 -66 27 -93q21 -22 89 -42.5t103 -22.5l-10 -41h-610zM662 1551q19 35 38.5 67t50 72.5t59.5 69.5t65.5 49t70.5 20q74 0 154 -63q5 -3 19 -14t19 -14t16.5 -11.5t17.5 -11.5t16 -8.5t17 -7t16 -3.5 t18 -2q54 0 96 37t93 113l37 -19q-24 -47 -51.5 -89.5t-64.5 -88t-80.5 -73t-84.5 -27.5q-33 0 -62.5 9.5t-46 19.5t-47.5 32q-4 3 -15.5 11.5t-16 12t-15 11t-16.5 11t-15.5 9t-16 8t-15 6t-16 4.5t-15.5 1q-54 0 -94.5 -36.5t-91.5 -113.5z" />
<glyph unicode="&#xd2;" d="M92 526q0 189 76.5 369t218.5 313q114 105 250 163.5t274 58.5q229 0 383 -144q72 -68 117 -175t45 -230q0 -196 -72.5 -375.5t-216.5 -315.5q-110 -102 -249.5 -162.5t-288.5 -60.5q-152 0 -277.5 69.5t-193.5 199.5q-34 67 -50 132.5t-16 157.5zM362 434 q-3 -193 64 -299t209 -106q99 0 192 66.5t168 185.5q85 133 136.5 312t54.5 365q7 410 -268 410q-94 0 -182 -57t-156 -156q-95 -134 -155 -324t-63 -397zM656 1796q0 36 28 64t66 28q41 0 72.5 -27.5t62.5 -97.5q52 -121 123 -276l-31 -25q-73 69 -252 217q-69 57 -69 117z " />
<glyph unicode="&#xd3;" d="M92 526q0 189 76.5 369t218.5 313q114 105 250 163.5t274 58.5q229 0 383 -144q72 -68 117 -175t45 -230q0 -196 -72.5 -375.5t-216.5 -315.5q-110 -102 -249.5 -162.5t-288.5 -60.5q-152 0 -277.5 69.5t-193.5 199.5q-34 67 -50 132.5t-16 157.5zM362 434 q-3 -193 64 -299t209 -106q99 0 192 66.5t168 185.5q85 133 136.5 312t54.5 365q7 410 -268 410q-94 0 -182 -57t-156 -156q-95 -134 -155 -324t-63 -397zM811 1495q139 159 227 270q54 69 83 90t69 21q34 0 61 -25.5t27 -56.5q0 -47 -26.5 -79.5t-94.5 -72.5 q-19 -11 -129 -68t-192 -110z" />
<glyph unicode="&#xd4;" d="M92 526q0 189 76.5 369t218.5 313q114 105 250 163.5t274 58.5q229 0 383 -144q72 -68 117 -175t45 -230q0 -196 -72.5 -375.5t-216.5 -315.5q-110 -102 -249.5 -162.5t-288.5 -60.5q-152 0 -277.5 69.5t-193.5 199.5q-34 67 -50 132.5t-16 157.5zM362 434 q-3 -193 64 -299t209 -106q99 0 192 66.5t168 185.5q85 133 136.5 312t54.5 365q7 410 -268 410q-94 0 -182 -57t-156 -156q-95 -134 -155 -324t-63 -397zM610 1499q134 142 311 342q30 34 48.5 42.5t68.5 8.5q42 0 56 -8t26 -39q10 -25 59 -154t78 -198l-33 -17l-217 258 l-372 -258z" />
<glyph unicode="&#xd5;" d="M92 526q0 189 76.5 369t218.5 313q114 105 250 163.5t274 58.5q229 0 383 -144q72 -68 117 -175t45 -230q0 -196 -72.5 -375.5t-216.5 -315.5q-110 -102 -249.5 -162.5t-288.5 -60.5q-152 0 -277.5 69.5t-193.5 199.5q-34 67 -50 132.5t-16 157.5zM362 434 q-3 -193 64 -299t209 -106q99 0 192 66.5t168 185.5q85 133 136.5 312t54.5 365q7 410 -268 410q-94 0 -182 -57t-156 -156q-95 -134 -155 -324t-63 -397zM608 1561q19 35 38.5 67t50 72.5t59.5 69.5t65.5 49t70.5 20q74 0 154 -63q5 -3 19 -14t19 -14t16.5 -11.5 t17.5 -11.5t16 -8.5t17 -7t16 -3.5t18 -2q54 0 96 37t93 113l37 -19q-24 -47 -51.5 -89.5t-64.5 -88t-80.5 -73t-84.5 -27.5q-33 0 -62.5 9.5t-46 19.5t-47.5 32q-4 3 -15.5 11.5t-16 12t-15 11t-16.5 11t-15.5 9t-16 8t-15 6t-16 4.5t-15.5 1q-54 0 -94.5 -36.5 t-91.5 -113.5z" />
<glyph unicode="&#xd6;" d="M92 526q0 189 76.5 369t218.5 313q114 105 250 163.5t274 58.5q229 0 383 -144q72 -68 117 -175t45 -230q0 -196 -72.5 -375.5t-216.5 -315.5q-110 -102 -249.5 -162.5t-288.5 -60.5q-152 0 -277.5 69.5t-193.5 199.5q-34 67 -50 132.5t-16 157.5zM362 434 q-3 -193 64 -299t209 -106q99 0 192 66.5t168 185.5q85 133 136.5 312t54.5 365q7 410 -268 410q-94 0 -182 -57t-156 -156q-95 -134 -155 -324t-63 -397zM637 1661q0 63 43.5 108.5t113.5 45.5q47 0 79 -37t32 -82q0 -62 -42.5 -109t-109.5 -47q-54 0 -85 36t-31 85z M1065 1661q0 63 44.5 108.5t115.5 45.5q47 0 76.5 -36.5t29.5 -82.5q0 -62 -40 -109t-107 -47q-55 0 -87 36t-32 85z" />
<glyph unicode="&#xd7;" horiz-adv-x="1171" d="M156 137l397 398l-395 395l71 74l396 -398l395 398l72 -72l-396 -395l396 -396l-72 -71l-395 395l-398 -399z" />
<glyph unicode="&#xd8;" d="M-74 -41l256 242q-90 142 -90 325q0 189 76.5 369t218.5 313q114 105 250 163.5t274 58.5q116 0 208.5 -34t174.5 -110q16 -16 19 -20l229 215l45 -43l-233 -219q48 -62 75 -150.5t27 -187.5q0 -196 -72.5 -375.5t-216.5 -315.5q-110 -102 -249.5 -162.5t-288.5 -60.5 q-229 0 -381 152q-21 21 -29 33l-250 -234zM362 479q0 -61 3 -108l802 759q-44 238 -249 238q-94 0 -182 -57t-156 -156q-90 -127 -149 -304.5t-69 -371.5zM373 291q39 -262 262 -262q99 0 192 66.5t168 185.5q77 122 127.5 281.5t59.5 322.5q4 103 -4 170z" />
<glyph unicode="&#xd9;" horiz-adv-x="1583" d="M207 291q0 90 29 194l202 734q8 36 8 47q0 36 -40 55q-23 10 -68.5 22t-67.5 13l11 43h680l-13 -43q-74 -4 -157 -25q-68 -21 -91 -102l-194 -703q-39 -137 -39 -239q0 -232 272 -232q189 0 302 107.5t176 318.5l153 541q33 125 33 188t-29 86q-25 20 -90 40t-102 22 l10 41h608l-12 -41q-34 -2 -103 -18t-98 -33q-47 -26 -77 -90.5t-64 -182.5l-160 -561q-49 -170 -125 -279t-197.5 -168t-291.5 -59q-223 0 -344 85t-121 239zM760 1796q0 36 28 64t66 28q41 0 72.5 -27.5t62.5 -97.5q52 -121 123 -276l-31 -25q-73 69 -252 217 q-69 57 -69 117z" />
<glyph unicode="&#xda;" horiz-adv-x="1583" d="M207 291q0 90 29 194l202 734q8 36 8 47q0 36 -40 55q-23 10 -68.5 22t-67.5 13l11 43h680l-13 -43q-74 -4 -157 -25q-68 -21 -91 -102l-194 -703q-39 -137 -39 -239q0 -232 272 -232q189 0 302 107.5t176 318.5l153 541q33 125 33 188t-29 86q-25 20 -90 40t-102 22 l10 41h608l-12 -41q-34 -2 -103 -18t-98 -33q-47 -26 -77 -90.5t-64 -182.5l-160 -561q-49 -170 -125 -279t-197.5 -168t-291.5 -59q-223 0 -344 85t-121 239zM975 1495q139 159 227 270q54 69 83 90t69 21q34 0 61 -25.5t27 -56.5q0 -47 -26.5 -79.5t-94.5 -72.5 q-19 -11 -129 -68t-192 -110z" />
<glyph unicode="&#xdb;" horiz-adv-x="1583" d="M207 291q0 90 29 194l202 734q8 36 8 47q0 36 -40 55q-23 10 -68.5 22t-67.5 13l11 43h680l-13 -43q-74 -4 -157 -25q-68 -21 -91 -102l-194 -703q-39 -137 -39 -239q0 -232 272 -232q189 0 302 107.5t176 318.5l153 541q33 125 33 188t-29 86q-25 20 -90 40t-102 22 l10 41h608l-12 -41q-34 -2 -103 -18t-98 -33q-47 -26 -77 -90.5t-64 -182.5l-160 -561q-49 -170 -125 -279t-197.5 -168t-291.5 -59q-223 0 -344 85t-121 239zM760 1499q134 142 311 342q30 34 48.5 42.5t68.5 8.5q42 0 56 -8t26 -39q10 -25 59 -154t78 -198l-33 -17 l-217 258l-372 -258z" />
<glyph unicode="&#xdc;" horiz-adv-x="1583" d="M207 291q0 90 29 194l202 734q8 36 8 47q0 36 -40 55q-23 10 -68.5 22t-67.5 13l11 43h680l-13 -43q-74 -4 -157 -25q-68 -21 -91 -102l-194 -703q-39 -137 -39 -239q0 -232 272 -232q189 0 302 107.5t176 318.5l153 541q33 125 33 188t-29 86q-25 20 -90 40t-102 22 l10 41h608l-12 -41q-34 -2 -103 -18t-98 -33q-47 -26 -77 -90.5t-64 -182.5l-160 -561q-49 -170 -125 -279t-197.5 -168t-291.5 -59q-223 0 -344 85t-121 239zM764 1661q0 63 43.5 108.5t113.5 45.5q47 0 79 -37t32 -82q0 -62 -42.5 -109t-109.5 -47q-54 0 -85 36t-31 85z M1192 1661q0 63 44.5 108.5t115.5 45.5q47 0 76.5 -36.5t29.5 -82.5q0 -62 -40 -109t-107 -47q-55 0 -87 36t-32 85z" />
<glyph unicode="&#xdd;" horiz-adv-x="1366" d="M106 1081q55 160 157.5 251t234.5 91q83 0 151 -35t111 -92.5t66.5 -128.5t23.5 -147q0 -67 -19 -197h17q111 292 262 447t313 155q72 0 115 -42t43 -99q0 -79 -40 -118.5t-99 -39.5t-91 36.5t-32 80.5q0 8 1 15t4 15l4.5 12t7.5 13.5t7 11.5t9 13t8 12l-8 11 q-59 -15 -142.5 -92t-162.5 -189q-145 -207 -199 -424l-117 -471q-6 -24 -6 -41q3 -39 47 -59q15 -8 75 -18.5t89 -10.5l-10 -41h-697l11 41q103 6 147 20q66 22 84 101l123 504q20 80 20 260q0 155 -58.5 250.5t-172.5 95.5q-79 0 -139 -53t-92 -152zM823 1495 q139 159 227 270q54 69 83 90t69 21q34 0 61 -25.5t27 -56.5q0 -47 -26.5 -79.5t-94.5 -72.5q-19 -11 -129 -68t-192 -110z" />
<glyph unicode="&#xde;" horiz-adv-x="1228" d="M-94 0l10 41q109 6 152 20q37 13 56.5 37.5t31.5 63.5l295 1057q8 36 8 47q0 20 -9.5 32t-31.5 23q-23 10 -68 22t-67 13l10 43h676l-11 -41q-92 -5 -155 -23q-66 -23 -88 -100l-39 -137h147q186 0 300 -77t114 -224q0 -141 -89 -246t-243 -159t-352 -54h-88l-49 -170 q-6 -21 -6 -39q0 -21 9.5 -33.5t33.5 -23.5q16 -8 64.5 -19t76.5 -12l-10 -41h-678zM483 399h90q183 0 287.5 105t104.5 274q0 262 -230 262h-73z" />
<glyph unicode="&#xdf;" horiz-adv-x="1122" d="M-510 -307q0 47 34 87t91 40q52 0 91.5 -29t39.5 -88q0 -23 -12.5 -46.5t-21.5 -33t-31 -31.5q3 -19 20 -27.5t33 -8.5q38 0 68.5 10.5t57 36t48 57.5t44 85t41.5 108.5t44 138.5q55 181 136.5 512t125.5 489q39 142 101 244.5t157 177.5q130 107 309 107 q133 0 221.5 -67t88.5 -169q0 -129 -56 -233q-119 -36 -189.5 -90t-70.5 -123q0 -51 15.5 -102t32 -82.5t46.5 -80.5q4 -6 19 -29.5t19.5 -31.5t16.5 -29t16.5 -31.5t12.5 -29.5t10.5 -32.5t5 -31t1.5 -34.5q-2 -72 -27 -132.5t-63.5 -100.5t-88 -68.5t-98.5 -41t-96 -12.5 q-112 0 -181 62.5t-69 146.5q0 66 35.5 113t95.5 47q52 0 87.5 -23.5t35.5 -76.5q0 -38 -14 -62t-34 -32.5t-39.5 -13.5t-33.5 -11.5t-14 -20.5q0 -40 44.5 -65t98.5 -25q66 0 108.5 45.5t43.5 128.5q2 55 -12.5 107.5t-31 83.5t-46.5 78q-4 7 -20.5 32t-22 34.5t-18 32 t-17.5 36t-12 34t-9 40t-2 40.5q1 91 61 162t144 113q55 44 92 123.5t37 161.5q0 102 -40 160.5t-118 58.5q-94 0 -158.5 -101.5t-129.5 -324.5q-33 -112 -123.5 -469.5t-145.5 -536.5q-88 -288 -243 -414q-139 -118 -305 -118q-115 0 -175.5 50t-60.5 126z" />
<glyph unicode="&#xe0;" horiz-adv-x="1124" d="M37 295q0 100 46.5 215t122 213t184.5 163.5t222 65.5q59 0 105.5 -43.5t56.5 -111.5h6l47 143h234l-234 -678q-45 -122 -45 -176q0 -33 13.5 -45t40.5 -12q65 0 117 66.5t106 203.5l41 -12q-63 -156 -128 -233t-165 -77q-211 0 -211 195l-8 2q-60 -95 -134.5 -149 t-152.5 -54q-50 0 -94.5 16.5t-84 52.5t-62.5 101.5t-23 153.5zM276 197q0 -148 82 -148q62 0 124.5 54t117.5 151l154 465q-33 182 -136 182q-78 0 -159.5 -117.5t-132 -282.5t-50.5 -304zM387 1405q0 36 28 64t66 28q41 0 72.5 -27.5t62.5 -97.5q52 -121 123 -276l-31 -25 q-73 69 -252 217q-69 57 -69 117z" />
<glyph unicode="&#xe1;" horiz-adv-x="1124" d="M37 295q0 100 46.5 215t122 213t184.5 163.5t222 65.5q59 0 105.5 -43.5t56.5 -111.5h6l47 143h234l-234 -678q-45 -122 -45 -176q0 -33 13.5 -45t40.5 -12q65 0 117 66.5t106 203.5l41 -12q-63 -156 -128 -233t-165 -77q-211 0 -211 195l-8 2q-60 -95 -134.5 -149 t-152.5 -54q-50 0 -94.5 16.5t-84 52.5t-62.5 101.5t-23 153.5zM276 197q0 -148 82 -148q62 0 124.5 54t117.5 151l154 465q-33 182 -136 182q-78 0 -159.5 -117.5t-132 -282.5t-50.5 -304zM555 1104q139 159 227 270q54 69 83 90t69 21q34 0 61 -25.5t27 -56.5 q0 -47 -26.5 -79.5t-94.5 -72.5q-19 -11 -129 -68t-192 -110z" />
<glyph unicode="&#xe2;" horiz-adv-x="1124" d="M37 295q0 100 46.5 215t122 213t184.5 163.5t222 65.5q59 0 105.5 -43.5t56.5 -111.5h6l47 143h234l-234 -678q-45 -122 -45 -176q0 -33 13.5 -45t40.5 -12q65 0 117 66.5t106 203.5l41 -12q-63 -156 -128 -233t-165 -77q-211 0 -211 195l-8 2q-60 -95 -134.5 -149 t-152.5 -54q-50 0 -94.5 16.5t-84 52.5t-62.5 101.5t-23 153.5zM276 197q0 -148 82 -148q62 0 124.5 54t117.5 151l154 465q-33 182 -136 182q-78 0 -159.5 -117.5t-132 -282.5t-50.5 -304zM360 1108q134 142 311 342q30 34 48.5 42.5t68.5 8.5q42 0 56 -8t26 -39 q10 -25 59 -154t78 -198l-33 -17l-217 258l-372 -258z" />
<glyph unicode="&#xe3;" horiz-adv-x="1124" d="M37 295q0 100 46.5 215t122 213t184.5 163.5t222 65.5q59 0 105.5 -43.5t56.5 -111.5h6l47 143h234l-234 -678q-45 -122 -45 -176q0 -33 13.5 -45t40.5 -12q65 0 117 66.5t106 203.5l41 -12q-63 -156 -128 -233t-165 -77q-211 0 -211 195l-8 2q-60 -95 -134.5 -149 t-152.5 -54q-50 0 -94.5 16.5t-84 52.5t-62.5 101.5t-23 153.5zM276 197q0 -148 82 -148q62 0 124.5 54t117.5 151l154 465q-33 182 -136 182q-78 0 -159.5 -117.5t-132 -282.5t-50.5 -304zM324 1139q19 35 38.5 67t50 72.5t59.5 69.5t65.5 49t70.5 20q74 0 154 -63 q5 -3 19 -14t19 -14t16.5 -11.5t17.5 -11.5t16 -8.5t17 -7t16 -3.5t18 -2q54 0 96 37t93 113l37 -19q-24 -47 -51.5 -89.5t-64.5 -88t-80.5 -73t-84.5 -27.5q-33 0 -62.5 9.5t-46 19.5t-47.5 32q-4 3 -15.5 11.5t-16 12t-15 11t-16.5 11t-15.5 9t-16 8t-15 6t-16 4.5 t-15.5 1q-54 0 -94.5 -36.5t-91.5 -113.5z" />
<glyph unicode="&#xe4;" horiz-adv-x="1124" d="M37 295q0 100 46.5 215t122 213t184.5 163.5t222 65.5q59 0 105.5 -43.5t56.5 -111.5h6l47 143h234l-234 -678q-45 -122 -45 -176q0 -33 13.5 -45t40.5 -12q65 0 117 66.5t106 203.5l41 -12q-63 -156 -128 -233t-165 -77q-211 0 -211 195l-8 2q-60 -95 -134.5 -149 t-152.5 -54q-50 0 -94.5 16.5t-84 52.5t-62.5 101.5t-23 153.5zM276 197q0 -148 82 -148q62 0 124.5 54t117.5 151l154 465q-33 182 -136 182q-78 0 -159.5 -117.5t-132 -282.5t-50.5 -304zM385 1290q0 63 43.5 108.5t113.5 45.5q47 0 79 -37t32 -82q0 -62 -42.5 -109 t-109.5 -47q-54 0 -85 36t-31 85zM813 1290q0 63 44.5 108.5t115.5 45.5q47 0 76.5 -36.5t29.5 -82.5q0 -62 -40 -109t-107 -47q-55 0 -87 36t-32 85z" />
<glyph unicode="&#xe5;" horiz-adv-x="1124" d="M37 295q0 100 46.5 215t122 213t184.5 163.5t222 65.5q59 0 105.5 -43.5t56.5 -111.5h6l47 143h234l-234 -678q-45 -122 -45 -176q0 -33 13.5 -45t40.5 -12q65 0 117 66.5t106 203.5l41 -12q-63 -156 -128 -233t-165 -77q-211 0 -211 195l-8 2q-60 -95 -134.5 -149 t-152.5 -54q-50 0 -94.5 16.5t-84 52.5t-62.5 101.5t-23 153.5zM276 197q0 -148 82 -148q62 0 124.5 54t117.5 151l154 465q-33 182 -136 182q-78 0 -159.5 -117.5t-132 -282.5t-50.5 -304zM473 1294q0 91 70.5 154t171.5 63q99 0 172 -62t73 -153t-68.5 -151t-168.5 -60 q-102 0 -176 58t-74 151zM598 1278q0 -66 28 -105.5t84 -39.5q62 0 93.5 55.5t31.5 126.5q0 67 -28 108t-84 41q-58 0 -91.5 -55.5t-33.5 -130.5z" />
<glyph unicode="&#xe6;" horiz-adv-x="1411" d="M37 295q0 100 46.5 215t122 213t184.5 163.5t222 65.5q59 0 105.5 -43.5t56.5 -111.5h6l47 143h127l-53 -152q150 164 313 164q83 0 138 -39.5t55 -109.5q0 -95 -72 -172.5t-187 -124.5t-261 -68q-31 -147 -31 -219q0 -92 28 -136t95 -44q107 0 190 73t152 201l37 -18 q-170 -324 -410 -324q-116 0 -203 56.5t-116 177.5h-6q-66 -107 -150 -170.5t-172 -63.5q-50 0 -94.5 16.5t-84 52.5t-62.5 101.5t-23 153.5zM276 197q0 -148 82 -148q62 0 124.5 54t117.5 151l154 465q-33 182 -136 182q-78 0 -159.5 -117.5t-132 -282.5t-50.5 -304z M895 481q87 17 152.5 53.5t100.5 82t52 89t19 85.5q1 63 -13.5 91.5t-48.5 28.5q-69 0 -144.5 -130t-117.5 -300z" />
<glyph unicode="&#xe7;" horiz-adv-x="833" d="M37 295q0 73 25 159.5t75 174.5t117.5 160t162 117.5t197.5 45.5q92 0 154.5 -53.5t62.5 -130.5q0 -66 -31.5 -111t-88.5 -45q-52 0 -86.5 26.5t-34.5 78.5q0 37 36 73t93 56q-16 72 -115 72q-63 0 -124 -74.5t-103 -183t-68 -228t-26 -211.5t27 -137t93 -45 q194 0 342 274l39 -18q-173 -324 -413 -324h-33l-25 -75q232 0 232 -142q0 -64 -39 -108.5t-111 -67.5t-156 -33t-192 -10l12 47q154 3 228.5 31t74.5 90q0 39 -33 53.5t-114 14.5l68 209q-108 21 -177 97t-69 218z" />
<glyph unicode="&#xe8;" horiz-adv-x="835" d="M37 299q0 71 25.5 157t78 173.5t122.5 159.5t169.5 117.5t208.5 45.5q81 0 135.5 -39.5t54.5 -109.5q0 -95 -72 -172.5t-187 -124.5t-261 -68q-28 -133 -28 -219q0 -93 26.5 -136.5t93.5 -43.5q107 0 190 73t152 201l37 -18q-170 -324 -409 -324q-66 0 -123 17.5 t-106.5 54t-78 102t-28.5 154.5zM308 1405q0 36 28 64t66 28q41 0 72.5 -27.5t62.5 -97.5q52 -121 123 -276l-31 -25q-73 69 -252 217q-69 57 -69 117zM319 481q87 17 152.5 53.5t100.5 82t52 89t19 85.5q6 120 -61 120q-71 0 -146 -129t-117 -301z" />
<glyph unicode="&#xe9;" horiz-adv-x="835" d="M37 299q0 71 25.5 157t78 173.5t122.5 159.5t169.5 117.5t208.5 45.5q81 0 135.5 -39.5t54.5 -109.5q0 -95 -72 -172.5t-187 -124.5t-261 -68q-28 -133 -28 -219q0 -93 26.5 -136.5t93.5 -43.5q107 0 190 73t152 201l37 -18q-170 -324 -409 -324q-66 0 -123 17.5 t-106.5 54t-78 102t-28.5 154.5zM319 481q87 17 152.5 53.5t100.5 82t52 89t19 85.5q6 120 -61 120q-71 0 -146 -129t-117 -301zM475 1104q139 159 227 270q54 69 83 90t69 21q34 0 61 -25.5t27 -56.5q0 -47 -26.5 -79.5t-94.5 -72.5q-19 -11 -129 -68t-192 -110z" />
<glyph unicode="&#xea;" horiz-adv-x="835" d="M37 299q0 71 25.5 157t78 173.5t122.5 159.5t169.5 117.5t208.5 45.5q81 0 135.5 -39.5t54.5 -109.5q0 -95 -72 -172.5t-187 -124.5t-261 -68q-28 -133 -28 -219q0 -93 26.5 -136.5t93.5 -43.5q107 0 190 73t152 201l37 -18q-170 -324 -409 -324q-66 0 -123 17.5 t-106.5 54t-78 102t-28.5 154.5zM268 1077q134 142 311 342q30 34 48.5 42.5t68.5 8.5q42 0 56 -8t26 -39q10 -25 59 -154t78 -198l-33 -17l-217 258l-372 -258zM319 481q87 17 152.5 53.5t100.5 82t52 89t19 85.5q6 120 -61 120q-71 0 -146 -129t-117 -301z" />
<glyph unicode="&#xeb;" horiz-adv-x="835" d="M37 299q0 71 25.5 157t78 173.5t122.5 159.5t169.5 117.5t208.5 45.5q81 0 135.5 -39.5t54.5 -109.5q0 -95 -72 -172.5t-187 -124.5t-261 -68q-28 -133 -28 -219q0 -93 26.5 -136.5t93.5 -43.5q107 0 190 73t152 201l37 -18q-170 -324 -409 -324q-66 0 -123 17.5 t-106.5 54t-78 102t-28.5 154.5zM281 1290q0 63 43.5 108.5t113.5 45.5q47 0 79 -37t32 -82q0 -62 -42.5 -109t-109.5 -47q-54 0 -85 36t-31 85zM319 481q87 17 152.5 53.5t100.5 82t52 89t19 85.5q6 120 -61 120q-71 0 -146 -129t-117 -301zM709 1290q0 63 44.5 108.5 t115.5 45.5q47 0 76.5 -36.5t29.5 -82.5q0 -62 -40 -109t-107 -47q-55 0 -87 36t-32 85z" />
<glyph unicode="&#xec;" horiz-adv-x="684" d="M43 641q31 76 57 126t61 95.5t78.5 67.5t96.5 22q89 0 156 -48.5t67 -133.5q0 -48 -59 -199l-121 -309q-57 -147 -57 -180q0 -32 15 -42.5t44 -10.5q65 0 119.5 67t107.5 203l37 -12q-30 -75 -57.5 -126.5t-63 -95.5t-79 -66t-95.5 -22q-41 0 -79.5 9t-73.5 27.5 t-56.5 52.5t-21.5 79q0 58 39 162l141 357q53 135 53 184q0 31 -11.5 43t-37.5 12q-64 0 -115 -68t-106 -208zM181 1405q0 36 28 64t66 28q41 0 72.5 -27.5t62.5 -97.5q52 -121 123 -276l-31 -25q-73 69 -252 217q-69 57 -69 117z" />
<glyph unicode="&#xed;" horiz-adv-x="684" d="M43 641q31 76 57 126t61 95.5t78.5 67.5t96.5 22q89 0 156 -48.5t67 -133.5q0 -48 -59 -199l-121 -309q-57 -147 -57 -180q0 -32 15 -42.5t44 -10.5q65 0 119.5 67t107.5 203l37 -12q-30 -75 -57.5 -126.5t-63 -95.5t-79 -66t-95.5 -22q-41 0 -79.5 9t-73.5 27.5 t-56.5 52.5t-21.5 79q0 58 39 162l141 357q53 135 53 184q0 31 -11.5 43t-37.5 12q-64 0 -115 -68t-106 -208zM311 1104q139 159 227 270q54 69 83 90t69 21q34 0 61 -25.5t27 -56.5q0 -47 -26.5 -79.5t-94.5 -72.5q-19 -11 -129 -68t-192 -110z" />
<glyph unicode="&#xee;" horiz-adv-x="684" d="M43 641q31 76 57 126t61 95.5t78.5 67.5t96.5 22q89 0 156 -48.5t67 -133.5q0 -48 -59 -199l-121 -309q-57 -147 -57 -180q0 -32 15 -42.5t44 -10.5q65 0 119.5 67t107.5 203l37 -12q-30 -75 -57.5 -126.5t-63 -95.5t-79 -66t-95.5 -22q-41 0 -79.5 9t-73.5 27.5 t-56.5 52.5t-21.5 79q0 58 39 162l141 357q53 135 53 184q0 31 -11.5 43t-37.5 12q-64 0 -115 -68t-106 -208zM162 1106q44 52 97 119t105 134.5t70 90.5q29 37 42.5 44t62.5 7q45 0 54 -7t19 -40q9 -30 43 -161t56 -193l-35 -17l-176 256l-312 -254z" />
<glyph unicode="&#xef;" horiz-adv-x="684" d="M43 641q31 76 57 126t61 95.5t78.5 67.5t96.5 22q89 0 156 -48.5t67 -133.5q0 -48 -59 -199l-121 -309q-57 -147 -57 -180q0 -32 15 -42.5t44 -10.5q65 0 119.5 67t107.5 203l37 -12q-30 -75 -57.5 -126.5t-63 -95.5t-79 -66t-95.5 -22q-41 0 -79.5 9t-73.5 27.5 t-56.5 52.5t-21.5 79q0 58 39 162l141 357q53 135 53 184q0 31 -11.5 43t-37.5 12q-64 0 -115 -68t-106 -208zM172 1317q0 60 41 102.5t104 42.5q52 0 87.5 -37.5t35.5 -85.5q0 -61 -40.5 -105t-104.5 -44q-54 0 -88.5 37t-34.5 90zM557 1317q0 60 42.5 102.5t105.5 42.5 q52 0 85 -37.5t33 -85.5q0 -61 -39 -104t-102 -43q-56 0 -90.5 36.5t-34.5 88.5z" />
<glyph unicode="&#xf0;" horiz-adv-x="1001" d="M45 336q0 74 25 157.5t75 165t116.5 147t157.5 106t191 40.5q102 0 154 -88h8q10 58 10 103q0 194 -69 329l-242 -163l-29 43l246 165q-54 93 -143 156l35 37q117 -58 198 -129l195 133l26 -47q-180 -123 -182 -123q205 -202 205 -494q0 -139 -29 -271.5t-86 -246.5 t-135 -200.5t-181.5 -135.5t-219.5 -49q-64 0 -121 21.5t-103.5 64.5t-74 114.5t-27.5 164.5zM283 236q0 -108 26.5 -167t75.5 -59q71 0 135.5 71.5t106 178t66 224.5t24.5 216q0 99 -28.5 158.5t-72.5 59.5q-70 0 -134.5 -71.5t-106.5 -177.5t-67 -222.5t-25 -210.5z" />
<glyph unicode="&#xf1;" horiz-adv-x="1216" d="M53 641q32 77 58.5 127.5t61.5 95.5t78.5 66.5t96.5 21.5q38 0 72 -9t65.5 -29t50.5 -59t19 -93l8 -2q139 192 285 192q96 0 166.5 -67t70.5 -162q0 -40 -38 -152l-119 -309q-56 -145 -56 -182q0 -31 16 -41t46 -10q65 0 118.5 67t106.5 203l39 -12q-32 -76 -59 -127 t-63 -95.5t-81 -66t-100 -21.5q-53 0 -103 16.5t-88 56t-38 95.5q0 59 41 162l122 328q48 121 48 164q0 80 -78 80q-67 0 -138 -67.5t-133 -178.5l-209 -633h-235l225 664q49 149 49 186q0 30 -9.5 41.5t-33.5 11.5q-64 0 -115 -68t-106 -208zM391 1139q19 35 38.5 67 t50 72.5t59.5 69.5t65.5 49t70.5 20q74 0 154 -63q5 -3 19 -14t19 -14t16.5 -11.5t17.5 -11.5t16 -8.5t17 -7t16 -3.5t18 -2q54 0 96 37t93 113l37 -19q-24 -47 -51.5 -89.5t-64.5 -88t-80.5 -73t-84.5 -27.5q-33 0 -62.5 9.5t-46 19.5t-47.5 32q-4 3 -15.5 11.5t-16 12 t-15 11t-16.5 11t-15.5 9t-16 8t-15 6t-16 4.5t-15.5 1q-54 0 -94.5 -36.5t-91.5 -113.5z" />
<glyph unicode="&#xf2;" horiz-adv-x="995" d="M45 334q0 76 25 160t76 165.5t120 147t166 105.5t205 40q62 0 117 -21.5t100 -64.5t71.5 -114.5t26.5 -163.5q0 -77 -25 -161t-76 -165t-119.5 -146t-165 -105t-204.5 -40q-59 0 -114 22t-101 64.5t-74 114t-28 162.5zM283 236q-1 -111 26.5 -168.5t71.5 -57.5 q70 0 133.5 67.5t106 170.5t68 222t26.5 226q1 114 -28 168t-71 54q-67 0 -130.5 -67t-106.5 -169.5t-69 -221.5t-27 -224zM365 1405q0 36 28 64t66 28q41 0 72.5 -27.5t62.5 -97.5q52 -121 123 -276l-31 -25q-73 69 -252 217q-69 57 -69 117z" />
<glyph unicode="&#xf3;" horiz-adv-x="995" d="M45 334q0 76 25 160t76 165.5t120 147t166 105.5t205 40q62 0 117 -21.5t100 -64.5t71.5 -114.5t26.5 -163.5q0 -77 -25 -161t-76 -165t-119.5 -146t-165 -105t-204.5 -40q-59 0 -114 22t-101 64.5t-74 114t-28 162.5zM283 236q-1 -111 26.5 -168.5t71.5 -57.5 q70 0 133.5 67.5t106 170.5t68 222t26.5 226q1 114 -28 168t-71 54q-67 0 -130.5 -67t-106.5 -169.5t-69 -221.5t-27 -224zM489 1104q139 159 227 270q54 69 83 90t69 21q34 0 61 -25.5t27 -56.5q0 -47 -26.5 -79.5t-94.5 -72.5q-19 -11 -129 -68t-192 -110z" />
<glyph unicode="&#xf4;" horiz-adv-x="995" d="M45 334q0 76 25 160t76 165.5t120 147t166 105.5t205 40q62 0 117 -21.5t100 -64.5t71.5 -114.5t26.5 -163.5q0 -77 -25 -161t-76 -165t-119.5 -146t-165 -105t-204.5 -40q-59 0 -114 22t-101 64.5t-74 114t-28 162.5zM283 236q-1 -111 26.5 -168.5t71.5 -57.5 q70 0 133.5 67.5t106 170.5t68 222t26.5 226q1 114 -28 168t-71 54q-67 0 -130.5 -67t-106.5 -169.5t-69 -221.5t-27 -224zM311 1108q134 142 311 342q30 34 48.5 42.5t68.5 8.5q42 0 56 -8t26 -39q10 -25 59 -154t78 -198l-33 -17l-217 258l-372 -258z" />
<glyph unicode="&#xf5;" horiz-adv-x="995" d="M45 334q0 76 25 160t76 165.5t120 147t166 105.5t205 40q62 0 117 -21.5t100 -64.5t71.5 -114.5t26.5 -163.5q0 -77 -25 -161t-76 -165t-119.5 -146t-165 -105t-204.5 -40q-59 0 -114 22t-101 64.5t-74 114t-28 162.5zM264 1139q19 35 38.5 67t50 72.5t59.5 69.5t65.5 49 t70.5 20q74 0 154 -63q5 -3 19 -14t19 -14t16.5 -11.5t17.5 -11.5t16 -8.5t17 -7t16 -3.5t18 -2q54 0 96 37t93 113l37 -19q-24 -47 -51.5 -89.5t-64.5 -88t-80.5 -73t-84.5 -27.5q-33 0 -62.5 9.5t-46 19.5t-47.5 32q-4 3 -15.5 11.5t-16 12t-15 11t-16.5 11t-15.5 9t-16 8 t-15 6t-16 4.5t-15.5 1q-54 0 -94.5 -36.5t-91.5 -113.5zM283 236q-1 -111 26.5 -168.5t71.5 -57.5q70 0 133.5 67.5t106 170.5t68 222t26.5 226q1 114 -28 168t-71 54q-67 0 -130.5 -67t-106.5 -169.5t-69 -221.5t-27 -224z" />
<glyph unicode="&#xf6;" horiz-adv-x="995" d="M45 334q0 76 25 160t76 165.5t120 147t166 105.5t205 40q62 0 117 -21.5t100 -64.5t71.5 -114.5t26.5 -163.5q0 -77 -25 -161t-76 -165t-119.5 -146t-165 -105t-204.5 -40q-59 0 -114 22t-101 64.5t-74 114t-28 162.5zM283 236q-1 -111 26.5 -168.5t71.5 -57.5 q70 0 133.5 67.5t106 170.5t68 222t26.5 226q1 114 -28 168t-71 54q-67 0 -130.5 -67t-106.5 -169.5t-69 -221.5t-27 -224zM340 1290q0 63 43.5 108.5t113.5 45.5q47 0 79 -37t32 -82q0 -62 -42 -109t-110 -47q-54 0 -85 36t-31 85zM768 1290q0 63 44.5 108.5t115.5 45.5 q47 0 76.5 -36.5t29.5 -82.5q0 -62 -40 -109t-107 -47q-55 0 -87 36t-32 85z" />
<glyph unicode="&#xf7;" horiz-adv-x="1171" d="M133 483v99h981v-99h-981zM487 162q0 57 40 97t96 40q57 0 97 -40t40 -97q0 -55 -40 -94t-97 -39q-56 0 -96 39t-40 94zM487 901q0 55 40 94t96 39q57 0 97 -39t40 -94q0 -57 -40 -97t-97 -40q-56 0 -96 40t-40 97z" />
<glyph unicode="&#xf8;" horiz-adv-x="995" d="M-63 -43l161 160q-53 88 -53 217q0 76 25 160t76 165.5t120 147t166 105.5t205 40q135 0 217 -88l141 140l39 -33l-147 -146q65 -95 65 -237q0 -77 -25 -161t-76 -165t-119.5 -146t-165 -105t-204.5 -40q-65 0 -126.5 27t-106.5 78l-154 -152zM287 229q0 -45 6 -86 q8 -68 32 -100.5t56 -32.5q65 0 124 56t99.5 144t67.5 190.5t35 201.5q0 7 1 24.5t1 24.5zM289 301l420 422q0 15 -3.5 40t-3.5 30q-15 125 -86 125q-62 0 -119.5 -54t-98.5 -139.5t-68.5 -185.5t-36.5 -197q-1 -7 -2 -21t-2 -20z" />
<glyph unicode="&#xf9;" horiz-adv-x="1206" d="M45 641q30 76 55.5 125.5t60.5 95t79 67t98 21.5t102 -18t81.5 -57.5t33.5 -94.5q0 -64 -37 -162l-129 -327q-45 -120 -45 -164q0 -80 80 -80q67 0 136.5 60.5t119.5 150.5l211 664h237l-217 -660q-43 -123 -43 -172q0 -61 50 -61q68 0 119 65.5t106 204.5l41 -12 q-63 -156 -128 -233t-165 -77q-97 0 -158 45t-61 146l-8 2q-139 -197 -289 -197q-102 0 -171 68.5t-69 161.5q0 53 41 151l121 310q55 147 55 186q0 29 -12 41t-37 12q-63 0 -115 -68.5t-106 -207.5zM414 1405q0 36 28 64t66 28q41 0 72.5 -27.5t62.5 -97.5 q52 -121 123 -276l-31 -25q-73 69 -252 217q-69 57 -69 117z" />
<glyph unicode="&#xfa;" horiz-adv-x="1206" d="M45 641q30 76 55.5 125.5t60.5 95t79 67t98 21.5t102 -18t81.5 -57.5t33.5 -94.5q0 -64 -37 -162l-129 -327q-45 -120 -45 -164q0 -80 80 -80q67 0 136.5 60.5t119.5 150.5l211 664h237l-217 -660q-43 -123 -43 -172q0 -61 50 -61q68 0 119 65.5t106 204.5l41 -12 q-63 -156 -128 -233t-165 -77q-97 0 -158 45t-61 146l-8 2q-139 -197 -289 -197q-102 0 -171 68.5t-69 161.5q0 53 41 151l121 310q55 147 55 186q0 29 -12 41t-37 12q-63 0 -115 -68.5t-106 -207.5zM643 1104q139 159 227 270q54 69 83 90t69 21q34 0 61 -25.5t27 -56.5 q0 -47 -26.5 -79.5t-94.5 -72.5q-19 -11 -129 -68t-192 -110z" />
<glyph unicode="&#xfb;" horiz-adv-x="1206" d="M45 641q30 76 55.5 125.5t60.5 95t79 67t98 21.5t102 -18t81.5 -57.5t33.5 -94.5q0 -64 -37 -162l-129 -327q-45 -120 -45 -164q0 -80 80 -80q67 0 136.5 60.5t119.5 150.5l211 664h237l-217 -660q-43 -123 -43 -172q0 -61 50 -61q68 0 119 65.5t106 204.5l41 -12 q-63 -156 -128 -233t-165 -77q-97 0 -158 45t-61 146l-8 2q-139 -197 -289 -197q-102 0 -171 68.5t-69 161.5q0 53 41 151l121 310q55 147 55 186q0 29 -12 41t-37 12q-63 0 -115 -68.5t-106 -207.5zM408 1108q134 142 311 342q30 34 48.5 42.5t68.5 8.5q42 0 56 -8t26 -39 q10 -25 59 -154t78 -198l-33 -17l-217 258l-372 -258z" />
<glyph unicode="&#xfc;" horiz-adv-x="1206" d="M45 641q30 76 55.5 125.5t60.5 95t79 67t98 21.5t102 -18t81.5 -57.5t33.5 -94.5q0 -64 -37 -162l-129 -327q-45 -120 -45 -164q0 -80 80 -80q67 0 136.5 60.5t119.5 150.5l211 664h237l-217 -660q-43 -123 -43 -172q0 -61 50 -61q68 0 119 65.5t106 204.5l41 -12 q-63 -156 -128 -233t-165 -77q-97 0 -158 45t-61 146l-8 2q-139 -197 -289 -197q-102 0 -171 68.5t-69 161.5q0 53 41 151l121 310q55 147 55 186q0 29 -12 41t-37 12q-63 0 -115 -68.5t-106 -207.5zM434 1290q0 63 43.5 108.5t113.5 45.5q47 0 79 -37t32 -82 q0 -62 -42 -109t-110 -47q-54 0 -85 36t-31 85zM862 1290q0 63 44.5 108.5t115.5 45.5q47 0 76.5 -36.5t29.5 -82.5q0 -62 -40 -109t-107 -47q-55 0 -87 36t-32 85z" />
<glyph unicode="&#xfd;" horiz-adv-x="1110" d="M-90 -299q0 88 47 129t113 41q52 0 81 -33t29 -67q0 -89 -47 -113q-19 -10 -47 -12t-47 -5.5t-25 -19.5q4 -28 29.5 -45.5t52 -22t56.5 -4.5q163 0 286.5 142.5t225.5 458.5l-9 2q-139 -177 -280 -177q-103 0 -171.5 68.5t-68.5 161.5q0 55 41 153l121 306q55 145 55 188 q0 30 -10.5 40.5t-34.5 10.5q-64 0 -116.5 -68.5t-106.5 -207.5l-37 14q30 76 55.5 126t60.5 95.5t79 67.5t98 22q86 0 150.5 -44.5t64.5 -125.5q0 -63 -37 -164l-131 -323q-45 -119 -45 -164q0 -47 20.5 -64.5t63.5 -17.5q62 0 131 53.5t123 130.5l215 689h231l-217 -705 q-235 -706 -749 -706q-71 0 -122.5 18.5t-77.5 49t-38 61t-12 61.5zM637 1104q139 159 227 270q54 69 83 90t69 21q34 0 61 -25.5t27 -56.5q0 -47 -26.5 -79.5t-94.5 -72.5q-19 -11 -129 -68t-192 -110z" />
<glyph unicode="&#xfe;" horiz-adv-x="1030" d="M-328 -479l4 39q67 0 99.5 10.5t52.5 34.5q8 9 15.5 19.5t14.5 25.5t11.5 24.5t11.5 28.5t9 25l9 27t7 22l461 1470q30 98 30 137q0 55 -82 66q-39 5 -122 8v41l493 21l-235 -727l6 -2q65 75 129.5 118t140.5 43q51 0 95.5 -15t86 -49t66 -100t24.5 -157q0 -102 -48 -218 t-126 -213.5t-189 -162t-226 -64.5q-63 0 -109 38.5t-59 92.5h-9l-100 -331q-29 -91 -29 -138q0 -31 22 -45.5t62 -19.5q42 -5 117 -8l-6 -41h-627zM260 178q13 -75 52 -113t94 -38q79 0 163.5 120t137.5 285t53 297q0 145 -92 145q-66 0 -126 -50t-124 -140z" />
<glyph unicode="&#xff;" horiz-adv-x="1110" d="M-90 -299q0 88 47 129t113 41q52 0 81 -33t29 -67q0 -89 -47 -113q-19 -10 -47 -12t-47 -5.5t-25 -19.5q4 -28 29.5 -45.5t52 -22t56.5 -4.5q163 0 286.5 142.5t225.5 458.5l-9 2q-139 -177 -280 -177q-103 0 -171.5 68.5t-68.5 161.5q0 55 41 153l121 306q55 145 55 188 q0 30 -10.5 40.5t-34.5 10.5q-64 0 -116.5 -68.5t-106.5 -207.5l-37 14q30 76 55.5 126t60.5 95.5t79 67.5t98 22q86 0 150.5 -44.5t64.5 -125.5q0 -63 -37 -164l-131 -323q-45 -119 -45 -164q0 -47 20.5 -64.5t63.5 -17.5q62 0 131 53.5t123 130.5l215 689h231l-217 -705 q-235 -706 -749 -706q-71 0 -122.5 18.5t-77.5 49t-38 61t-12 61.5zM441 1290q0 63 43.5 108.5t113.5 45.5q47 0 79 -37t32 -82q0 -62 -42.5 -109t-109.5 -47q-54 0 -85 36t-31 85zM869 1290q0 63 44.5 108.5t115.5 45.5q47 0 76.5 -36.5t29.5 -82.5q0 -62 -40 -109 t-107 -47q-55 0 -87 36t-32 85z" />
<glyph unicode="&#x152;" horiz-adv-x="2025" d="M92 539q0 196 102 381.5t271 306.5q221 166 498 172h344h850l-89 -320h-49v17q0 91 -40 160.5t-105 78.5q-57 8 -172 8h-191l-165 -591h143q119 0 194 65q26 21 60.5 80.5t52.5 106.5h51l-159 -570h-48q7 44 7 92q0 80 -17 107q-13 19 -23.5 29.5t-45 22t-86.5 11.5h-142 l-129 -452q-20 -82 -20 -99q0 -51 43 -69.5t133 -18.5q173 0 240 7t108 40q63 51 137 143t103 146h51l-133 -393h-981q-205 0 -301 4q-152 7 -264.5 79.5t-170 190.5t-57.5 265zM373 516q0 -220 80.5 -339.5t203.5 -119.5q68 0 116 18.5t93 63.5q29 27 56 80t57.5 144.5 t48.5 152.5t53 186q36 133 52 195t30.5 138.5t14.5 125.5q0 182 -207 182q-115 0 -224.5 -67t-191.5 -178.5t-132 -265t-50 -316.5z" />
<glyph unicode="&#x153;" horiz-adv-x="1456" d="M45 334q0 76 25 160t76 165.5t120 147t166 105.5t205 40q179 0 256 -180q162 180 369 180q83 0 136.5 -39.5t53.5 -109.5q0 -95 -71.5 -172.5t-186.5 -124.5t-262 -68q-29 -157 -29 -219q0 -92 28 -136t95 -44q106 0 188.5 73t153.5 201l37 -18q-173 -324 -410 -324 q-94 0 -159.5 38t-116.5 124q-166 -162 -357 -162q-59 0 -114 22t-101 64.5t-74 114t-28 162.5zM285 236q0 -112 28 -169t72 -57q70 0 133 67.5t104.5 170.5t66 222t24.5 226q0 114 -29 168t-72 54q-88 0 -165.5 -113t-119.5 -269.5t-42 -299.5zM942 481q87 17 152.5 53.5 t100.5 82t52 89t19 85.5q3 120 -62 120q-72 0 -145.5 -128t-116.5 -302z" />
<glyph unicode="&#x178;" horiz-adv-x="1366" d="M106 1081q55 160 157.5 251t234.5 91q83 0 151 -35t111 -92.5t66.5 -128.5t23.5 -147q0 -67 -19 -197h17q111 292 262 447t313 155q72 0 115 -42t43 -99q0 -79 -40 -118.5t-99 -39.5t-91 36.5t-32 80.5q0 8 1 15t4 15l4.5 12t7.5 13.5t7 11.5t9 13t8 12l-8 11 q-59 -15 -142.5 -92t-162.5 -189q-145 -207 -199 -424l-117 -471q-6 -24 -6 -41q3 -39 47 -59q15 -8 75 -18.5t89 -10.5l-10 -41h-697l11 41q103 6 147 20q66 22 84 101l123 504q20 80 20 260q0 155 -58.5 250.5t-172.5 95.5q-79 0 -139 -53t-92 -152zM629 1640 q0 63 43.5 108.5t113.5 45.5q47 0 79 -37t32 -82q0 -62 -42.5 -109t-109.5 -47q-54 0 -85 36t-31 85zM1057 1640q0 63 44.5 108.5t115.5 45.5q47 0 76.5 -36.5t29.5 -82.5q0 -62 -40 -109t-107 -47q-55 0 -87 36t-32 85z" />
<glyph unicode="&#x2c6;" horiz-adv-x="1024" d="M342 1108q134 142 311 342q30 34 48.5 42.5t68.5 8.5q42 0 56 -8t26 -39q10 -25 59 -154t78 -198l-33 -17l-217 258l-372 -258z" />
<glyph unicode="&#x2dc;" horiz-adv-x="1024" d="M291 1139q19 35 38.5 67t50 72.5t59.5 69.5t65.5 49t70.5 20q74 0 154 -63q5 -3 19 -14t19 -14t16.5 -11.5t17.5 -11.5t16 -8.5t17 -7t16 -3.5t18 -2q54 0 96 37t93 113l37 -19q-24 -47 -51.5 -89.5t-64.5 -88t-80.5 -73t-84.5 -27.5q-33 0 -62.5 9.5t-46 19.5t-47.5 32 q-4 3 -15.5 11.5t-16 12t-15 11t-16.5 11t-15.5 9t-16 8t-15 6t-16 4.5t-15.5 1q-54 0 -94.5 -36.5t-91.5 -113.5z" />
<glyph unicode="&#x2000;" horiz-adv-x="955" />
<glyph unicode="&#x2001;" horiz-adv-x="1911" />
<glyph unicode="&#x2002;" horiz-adv-x="955" />
<glyph unicode="&#x2003;" horiz-adv-x="1911" />
<glyph unicode="&#x2004;" horiz-adv-x="637" />
<glyph unicode="&#x2005;" horiz-adv-x="477" />
<glyph unicode="&#x2006;" horiz-adv-x="318" />
<glyph unicode="&#x2007;" horiz-adv-x="318" />
<glyph unicode="&#x2008;" horiz-adv-x="238" />
<glyph unicode="&#x2009;" horiz-adv-x="382" />
<glyph unicode="&#x200a;" horiz-adv-x="106" />
<glyph unicode="&#x2010;" horiz-adv-x="686" d="M47 420l45 172h545l-45 -172h-545z" />
<glyph unicode="&#x2011;" horiz-adv-x="686" d="M47 420l45 172h545l-45 -172h-545z" />
<glyph unicode="&#x2012;" horiz-adv-x="686" d="M47 420l45 172h545l-45 -172h-545z" />
<glyph unicode="&#x2013;" horiz-adv-x="974" d="M127 477l37 137h797l-37 -137h-797z" />
<glyph unicode="&#x2014;" horiz-adv-x="1839" d="M178 449l37 139h1550l-39 -139h-1548z" />
<glyph unicode="&#x2018;" horiz-adv-x="415" d="M238 1124q0 210 331 383l21 -47q-103 -57 -161.5 -114.5t-72.5 -135.5h43q72 0 110 -32.5t38 -85.5q0 -55 -45 -102.5t-115 -47.5q-66 0 -107.5 46t-41.5 136z" />
<glyph unicode="&#x2019;" horiz-adv-x="415" d="M244 991q103 57 161 114.5t72 135.5h-43q-72 0 -109.5 33t-37.5 86q0 55 45 102t117 47q66 0 106.5 -45.5t40.5 -134.5q0 -212 -332 -385z" />
<glyph unicode="&#x201a;" horiz-adv-x="542" d="M-37 -248q103 57 161.5 114.5t72.5 135.5h-43q-72 0 -110 33t-38 86q0 54 45 101.5t115 47.5q66 0 107.5 -46t41.5 -136q0 -210 -331 -383z" />
<glyph unicode="&#x201c;" horiz-adv-x="788" d="M238 1118q0 218 333 387l19 -45q-104 -58 -163 -116t-73 -138h43q71 0 108.5 -33t37.5 -86q0 -54 -44 -99.5t-114 -45.5q-66 0 -106.5 45.5t-40.5 130.5zM610 1118q0 217 334 387l19 -45q-104 -58 -163 -116t-73 -138h43q71 0 108 -33t37 -86q0 -54 -43.5 -99.5 t-113.5 -45.5q-66 0 -107 45.5t-41 130.5z" />
<glyph unicode="&#x201d;" horiz-adv-x="788" d="M244 991q103 57 162 116t73 138h-41q-71 0 -108 33.5t-37 87.5t43 98.5t113 44.5q67 0 107 -45.5t40 -130.5q0 -217 -332 -387zM616 991q103 57 162.5 116t73.5 138h-41q-71 0 -108 33.5t-37 87.5t42.5 98.5t112.5 44.5q67 0 107.5 -45.5t40.5 -130.5q0 -217 -332 -387z " />
<glyph unicode="&#x201e;" horiz-adv-x="917" d="M-41 -252q102 57 161 116t73 138h-41q-71 0 -108.5 34t-37.5 87q0 54 43.5 98.5t114.5 44.5q65 0 106 -45t41 -129q0 -216 -334 -389zM332 -252q102 57 160.5 116t72.5 138h-41q-71 0 -108 33.5t-37 87.5t43.5 98.5t114.5 44.5q65 0 106 -45t41 -129q0 -216 -334 -389z " />
<glyph unicode="&#x2022;" horiz-adv-x="845" d="M178 666q0 114 82.5 196t196.5 82t196 -82t82 -196t-82 -194.5t-196 -80.5t-196.5 80.5t-82.5 194.5z" />
<glyph unicode="&#x2026;" horiz-adv-x="1699" d="M66 129q0 62 44 106t105 44t105.5 -44.5t44.5 -105.5q0 -63 -44 -106t-106 -43t-105.5 43t-43.5 106zM651 129q0 61 44.5 105.5t105.5 44.5t105 -44t44 -106q0 -63 -43.5 -106t-105.5 -43t-106 43t-44 106zM1237 129q0 62 44 106t105 44q63 0 106.5 -44t43.5 -106 q0 -63 -43.5 -106t-106.5 -43q-62 0 -105.5 43t-43.5 106z" />
<glyph unicode="&#x202f;" horiz-adv-x="382" />
<glyph unicode="&#x2039;" horiz-adv-x="710" d="M82 416q0 20 15.5 64t41.5 63q22 14 122 75t207.5 129.5t207.5 137.5l22 -25l-411 -416l188 -395l-29 -18q-146 151 -329 329q-23 23 -29 33t-6 23z" />
<glyph unicode="&#x203a;" horiz-adv-x="710" d="M20 55l412 416l-188 395l28 19q84 -87 194.5 -196.5t133.5 -133.5q25 -24 31 -33t6 -22q0 -20 -15.5 -64t-41.5 -61q-1 0 -201.5 -125t-335.5 -219z" />
<glyph unicode="&#x205f;" horiz-adv-x="477" />
<glyph unicode="&#x2122;" horiz-adv-x="1396" d="M260 1247v152h492v-152h-25q-11 34 -32.5 71t-43.5 40q-18 2 -59 2h-29v-399q0 -25 23 -35q2 0 17 -3.5t28.5 -6t19.5 -3.5v-26h-291v26q64 9 68 11q25 9 25 32v404h-31q-42 0 -60 -2q-22 -3 -45.5 -42t-31.5 -69h-25zM795 887v26q62 10 75 19q25 19 25 100v254 q0 42 -23 62q-37 22 -71 22v29h221l149 -363l119 295q13 29 17 68h225v-29q-22 0 -64 -12q-20 -9 -20 -35v-360q0 -26 20 -35q12 -7 66 -15v-26h-289v26q2 0 21 2.5t35 5t20 5.5q20 11 20 37v356h-12l-180 -426h-35q-5 16 -18.5 51t-20.5 55l-125 310h-12v-271 q0 -79 25 -100q17 -15 79 -25v-26h-247z" />
<glyph unicode="&#x25fc;" horiz-adv-x="942" d="M0 0v942h942v-942h-942z" />
</font>
</defs>
</svg>
