<?xml version="1.0" standalone="no"?>
<!DOCTYPE svg PUBLIC "-//W3C//DTD SVG 1.1//EN" "http://www.w3.org/Graphics/SVG/1.1/DTD/svg11.dtd" >
<svg xmlns="http://www.w3.org/2000/svg">
<metadata></metadata>
<defs>
<font id="millertextitalicsc" horiz-adv-x="1318" >
<font-face units-per-em="2048" ascent="1556" descent="-492" />
<missing-glyph horiz-adv-x="475" />
<glyph unicode="&#xfb01;" horiz-adv-x="1781" d="M-66 0l19 66q119 8 143 14q53 14 72 88l176 651q10 30 10 47q0 31 -32 41q-17 7 -64.5 15t-73.5 10l19 65h889l-80 -286h-62v22q0 58 -25.5 120.5t-62.5 68.5q-49 8 -131 8h-168l-110 -398h102q85 0 147 43q19 13 44.5 52t44.5 82h63l-125 -447h-61q10 90 10 92 q0 54 -31 81.5t-104 27.5h-111l-72 -275q-12 -54 -12 -55q0 -18 6.5 -27.5t24.5 -17.5q9 -4 61 -12t78 -10l-18 -66h-566zM985 0l19 66q113 7 139 14q28 7 44 27.5t27 58.5l177 649q10 30 10 49q0 32 -33 43q-17 6 -63 14.5t-68 10.5l18 65h557l-18 -65q-89 -5 -143 -19 q-53 -11 -72 -86l-168 -624q-14 -63 -14 -72q0 -30 30 -43q9 -4 55.5 -12t71.5 -10l-18 -66h-551z" />
<glyph unicode="&#xfb02;" horiz-adv-x="2084" d="M-66 0l19 66q119 8 143 14q53 14 72 88l176 651q10 30 10 47q0 31 -32 41q-17 7 -64.5 15t-73.5 10l19 65h889l-80 -286h-62v22q0 58 -25.5 120.5t-62.5 68.5q-49 8 -131 8h-168l-110 -398h102q85 0 147 43q19 13 44.5 52t44.5 82h63l-125 -447h-61q10 90 10 92 q0 54 -31 81.5t-104 27.5h-111l-72 -275q-12 -54 -12 -55q0 -18 6.5 -27.5t24.5 -17.5q9 -4 61 -12t78 -10l-18 -66h-566zM981 0l18 66q108 7 142 16q28 9 44 29.5t27 58.5l168 625q15 60 15 67q0 32 -31 43q-14 7 -57.5 16t-67.5 11l18 65h558l-19 -65q-97 -6 -149 -21 q-51 -16 -72 -88l-170 -628q-12 -46 -12 -64q0 -37 33 -49t116 -12q127 0 184 41q40 29 113 115t117 149h59l-123 -375h-911z" />
<glyph horiz-adv-x="0" />
<glyph horiz-adv-x="682" />
<glyph unicode="&#xd;" horiz-adv-x="0" />
<glyph unicode=" "  horiz-adv-x="475" />
<glyph unicode="&#x09;" horiz-adv-x="475" />
<glyph unicode="&#xa0;" horiz-adv-x="475" />
<glyph unicode="!" horiz-adv-x="749" d="M150 106q0 54 36 90.5t90 36.5t90.5 -36.5t36.5 -90.5t-36.5 -89t-90.5 -35t-90 35t-36 89zM301 401q29 164 42.5 374.5t23.5 248.5q18 62 58 96.5t99 34.5q49 0 74 -28t25 -74q0 -34 -16.5 -78t-57.5 -125q-117 -245 -191 -449h-57z" />
<glyph unicode="&#x22;" horiz-adv-x="802" d="M254 748q14 263 14 399q0 143 109 143q51 0 80.5 -30t29.5 -76q0 -15 -7 -38.5t-24.5 -64t-35.5 -79.5t-53 -114.5t-64 -139.5h-49zM647 748q15 282 15 399q0 143 108 143q51 0 81 -30t30 -76q0 -15 -7 -38.5t-24.5 -63.5t-36 -80t-53.5 -114.5t-64 -139.5h-49z" />
<glyph unicode="#" horiz-adv-x="1146" d="M106 244l48 192l233 56l57 227l-235 -55l49 192l236 55l92 373h65l-88 -356l254 59l74 297h65l-69 -280l235 55l-47 -193l-235 -55l-58 -227l236 55l-47 -193l-238 -55l-100 -405h-66l97 389l-254 -60l-82 -329h-66l78 313zM457 508l256 59l57 228l-256 -60z" />
<glyph unicode="$" horiz-adv-x="1259" d="M102 250q0 74 41.5 127t104.5 53q39 0 62.5 -23.5t23.5 -64.5q0 -28 -8.5 -50.5t-17 -34t-29 -32.5t-29.5 -32q32 -49 91 -82t171 -41l119 481q-179 34 -260.5 105t-81.5 198q0 170 140 286.5t357 116.5h21l51 203h70l-51 -207q158 -14 241.5 -78.5t83.5 -152.5 q0 -68 -33 -110t-88 -42q-37 0 -58.5 23.5t-21.5 58.5q0 18 2.5 32t12 30.5t13 22.5t22 29t22.5 28q-30 36 -78 60t-135 32l-115 -461q179 -43 263 -106.5t84 -182.5q0 -104 -43.5 -189t-117 -138.5t-166.5 -82t-196 -28.5h-6l-71 -289h-70l72 291q-175 14 -283.5 82 t-108.5 168zM461 938q0 -82 48.5 -125.5t168.5 -71.5l113 449h-21q-144 0 -226.5 -68.5t-82.5 -183.5zM582 68q158 2 250 75.5t92 200.5q0 71 -49.5 119t-176.5 74z" />
<glyph unicode="%" horiz-adv-x="1679" d="M145 -158l1362 1577l70 -49l-1366 -1577zM162 866q0 102 57.5 195.5t151.5 150t196 56.5q121 0 199 -68.5t78 -183.5q0 -102 -58 -195.5t-152 -150t-196 -56.5q-121 0 -198.5 68.5t-77.5 183.5zM317 825q0 -147 121 -147q66 0 125 59.5t92 146.5t33 173q0 147 -121 147 q-66 0 -125 -59.5t-92 -146.5t-33 -173zM895 225q0 102 57.5 195.5t151.5 150t196 56.5q121 0 199 -68.5t78 -183.5q0 -102 -58 -195.5t-152 -150t-196 -56.5q-121 0 -198.5 68.5t-77.5 183.5zM1051 184q0 -147 120 -147q66 0 125 59.5t92 146.5t33 173q0 147 -121 147 q-66 0 -125 -59.5t-91.5 -146.5t-32.5 -173z" />
<glyph unicode="&#x26;" d="M102 324q0 84 54 149.5t123 89.5q-125 77 -125 191q0 85 75 151t183 66q106 0 174.5 -56t91.5 -149l-43 -14q-40 60 -75 84t-93 24q-67 0 -107.5 -42t-40.5 -113q0 -63 25 -121q77 34 135 34q50 0 79.5 -23t29.5 -54q0 -29 -21.5 -52.5t-58.5 -23.5q-17 0 -35.5 3.5 t-30.5 7t-31 13t-25.5 13.5t-26.5 16t-23 14q-31 -14 -54.5 -48.5t-23.5 -86.5q0 -122 114 -198t322 -76q107 0 189 27t130.5 73.5t72.5 103.5t24 122q0 117 -57.5 167t-149.5 50q-63 0 -111.5 -35t-48.5 -90q0 -129 113 -129q30 0 43 8q-70 26 -70 84q0 42 25 62t53 20 q45 0 78 -24t33 -77q0 -50 -39.5 -91.5t-104.5 -41.5q-76 0 -140 58t-64 147q0 59 27 106.5t69 74.5t88.5 41t91.5 14q19 0 79.5 -3.5t76.5 -3.5q65 0 99 40t34 83q0 109 -94 109q-33 0 -43 -23q63 -16 63 -63q0 -38 -24 -57t-58 -19q-38 0 -67 24.5t-29 73.5q0 41 42.5 76 t107.5 35q73 0 125.5 -48t52.5 -122q0 -88 -62 -156.5t-162 -68.5h-18q51 -30 87 -86.5t36 -141.5q0 -59 -18 -120t-62.5 -124.5t-110 -112t-170 -79.5t-233.5 -31q-214 0 -355 100t-141 249z" />
<glyph unicode="'" horiz-adv-x="401" d="M254 748q14 263 14 399q0 143 109 143q51 0 80.5 -30t29.5 -76q0 -15 -7 -38.5t-24.5 -64t-35.5 -79.5t-53 -114.5t-64 -139.5h-49z" />
<glyph unicode="(" horiz-adv-x="665" d="M92 326q0 558 602 962l54 -71q-273 -192 -403 -407.5t-130 -469.5q0 -176 58.5 -303.5t172.5 -235.5l-73 -65q-281 248 -281 590z" />
<glyph unicode=")" horiz-adv-x="665" d="M-102 -193q273 192 402.5 407.5t129.5 469.5q0 176 -58.5 303.5t-172.5 235.5l73 65q281 -248 281 -590q0 -558 -602 -962z" />
<glyph unicode="*" horiz-adv-x="862" d="M205 987q0 35 21 48.5t65 13.5q144 0 270 24q-73 59 -150 102.5t-106 62.5t-29 44q0 26 21.5 53t58.5 27q24 0 47.5 -31t70.5 -100t101 -127q10 76 12 173.5t7 119.5q13 55 63 55q34 0 56 -18t22 -50q0 -21 -19.5 -56.5t-52.5 -99t-55 -134.5q69 28 136 63.5t102 53.5 t55 18q24 0 44 -23.5t20 -52.5q0 -35 -23 -51.5t-74 -16.5q-134 0 -258 -24q70 -55 146 -99.5t104.5 -64.5t28.5 -45q0 -33 -25.5 -57.5t-50.5 -24.5t-46.5 26.5t-69 97.5t-103.5 136q-13 -84 -13.5 -180.5t-5.5 -112.5q-3 -24 -21 -39.5t-42 -15.5q-35 0 -55.5 19t-20.5 49 q0 24 16.5 57t50 96.5t60.5 134.5q-71 -24 -138 -57.5t-104.5 -52.5t-56.5 -19q-24 0 -41.5 22t-17.5 56z" />
<glyph unicode="+" horiz-adv-x="1187" d="M137 479v107h438v440h111v-440h438v-107h-438v-440h-111v440h-438z" />
<glyph unicode="," horiz-adv-x="495" d="M-14 -289q98 53 167 131t78 162h-49q-125 0 -125 109q0 52 40 93.5t100 41.5q141 0 141 -154q0 -74 -28.5 -143.5t-76.5 -124t-103.5 -97t-117.5 -73.5z" />
<glyph unicode="-" horiz-adv-x="704" d="M66 449l45 151h542l-45 -151h-542z" />
<glyph unicode="." horiz-adv-x="495" d="M68 115q0 55 40 95t95 40t95 -40t40 -95t-39.5 -94t-95.5 -39t-95.5 39t-39.5 94z" />
<glyph unicode="/" horiz-adv-x="860" d="M-246 -395l1213 1927l92 -53l-1215 -1928z" />
<glyph unicode="0" horiz-adv-x="1265" d="M109 438q0 161 56 314.5t148 266.5t216 182t253 69q195 0 316 -123t121 -352q0 -159 -55.5 -310.5t-146.5 -264t-215 -181t-255 -68.5q-140 0 -240.5 62t-149 166t-48.5 239zM311 342q0 -136 57.5 -218.5t157.5 -82.5q95 0 187 80.5t157.5 204t105.5 275t40 290.5 q0 136 -56.5 222.5t-162.5 86.5q-92 0 -182.5 -76.5t-156.5 -197t-106.5 -276t-40.5 -308.5z" />
<glyph unicode="1" horiz-adv-x="882" d="M12 0l17 63q125 7 168 21q66 23 88 100l243 883q-31 -8 -75 -8q-95 0 -215 117l36 47q100 -41 197 -41q54 0 114 16t94 31t83 39h47q-69 -152 -111 -307l-215 -768q-6 -24 -6 -41q0 -39 43 -58q15 -7 72.5 -18t87.5 -13l-16 -63h-652z" />
<glyph unicode="2" horiz-adv-x="1189" d="M14 0l17 76q313 206 399 271q87 63 172 138q303 270 303 494q0 105 -58.5 161t-162.5 56q-89 0 -170 -50t-100 -114q1 -10 21 -43.5t20 -64.5q0 -48 -32.5 -93t-100.5 -45q-51 0 -78 35.5t-27 85.5q0 38 21 85t64.5 96t101.5 89.5t139.5 66.5t171.5 26q172 0 283.5 -86 t111.5 -232q0 -196 -181 -363.5t-585 -371.5l-55 -51h452q135 0 271 205l55 -25l-180 -346h-873z" />
<glyph unicode="3" horiz-adv-x="1165" d="M6 213q0 86 48 149.5t126 63.5q46 0 73.5 -23.5t27.5 -58.5q0 -41 -13.5 -66.5t-32 -37.5t-37.5 -23t-32 -30t-12 -50q1 -54 57.5 -83t155.5 -29q108 0 212.5 59t174 164.5t69.5 226.5q0 66 -38.5 99.5t-106.5 33.5q-14 0 -27.5 -2t-29.5 -9t-26 -11t-29 -16t-25.5 -16 t-30 -20.5t-27.5 -19.5l-39 76q87 44 133 67.5t108.5 59t93.5 59t68 56.5t53.5 63t28 67.5t11.5 79.5q0 158 -192 158q-94 0 -160.5 -37.5t-79.5 -68.5q0 -11 14.5 -42.5t14.5 -64.5q0 -13 -3 -28.5t-12 -35t-22 -35t-36 -26t-52 -10.5q-53 0 -78 34t-25 79q0 48 34 100.5 t93.5 98.5t155.5 76t207 30q159 0 249.5 -76.5t90.5 -181.5q0 -118 -106.5 -208t-289.5 -116l-12 -22q125 0 213 -61t88 -171q0 -143 -83 -255t-223 -172t-312 -60q-77 0 -147.5 15.5t-130 46.5t-95 83.5t-35.5 120.5z" />
<glyph unicode="4" horiz-adv-x="1173" d="M53 428l17 61l893 799h65l-215 -772q56 0 82 1t55.5 7t48.5 19q32 22 61 68t40 87h59l-125 -462h-55q12 42 10 94.5t-24 75.5q-11 11 -34.5 16t-44.5 5.5t-71 0.5h-27l-65 -235q-6 -24 -6 -41q0 -39 43 -58q16 -8 64.5 -19t76.5 -12l-16 -63h-615l17 63q107 6 153 21 q66 23 88 100l68 244h-543zM190 516h431l141 510z" />
<glyph unicode="5" horiz-adv-x="1079" d="M20 207q0 72 47 112.5t101 40.5q88 0 88 -73q0 -36 -29.5 -83t-36.5 -67q9 -43 56 -71.5t121 -28.5q162 0 280.5 141.5t118.5 333.5q0 86 -59 136t-158 50q-171 0 -262 -133l-68 15l305 684h54q21 -31 86.5 -55.5t173.5 -24.5q100 0 173 27t152 87l31 -32 q-59 -75 -136 -128t-159.5 -79.5t-155.5 -37.5t-149 -11q-73 0 -105 4l-133 -297q103 59 234 59q160 0 265.5 -93t105.5 -239q0 -126 -71.5 -233.5t-206.5 -173.5t-306 -66q-152 0 -254.5 67.5t-102.5 168.5z" />
<glyph unicode="6" horiz-adv-x="1165" d="M106 403q0 119 36 245t98.5 239t149 214t183 174t206 116t214.5 43q139 0 206 -59t67 -140q0 -66 -28.5 -107t-84.5 -41q-96 0 -102 146q-2 63 -30.5 91t-100.5 28q-139 0 -289.5 -171t-247.5 -438l6 -6q84 75 165 108.5t179 33.5q140 0 230 -97.5t90 -253.5 q0 -73 -21 -149.5t-66 -149.5t-108 -130.5t-154 -92.5t-196 -35q-189 0 -295.5 111.5t-106.5 320.5zM281 305q0 -125 53.5 -193.5t148.5 -68.5q78 0 147.5 51.5t114 130t70 169.5t25.5 173q0 106 -55.5 163.5t-153.5 57.5q-138 0 -244 -141t-106 -342z" />
<glyph unicode="7" horiz-adv-x="1044" d="M131 807l262 526h58l-15 -114h781l-7 -35q-164 -178 -273.5 -318t-203.5 -297q-108 -181 -171.5 -315.5t-115.5 -323.5q-48 -176 -157 -176q-48 0 -72 27t-24 72q0 69 76.5 201.5t293.5 430.5q260 355 420 555h-477q-98 0 -169.5 -59.5t-150.5 -189.5z" />
<glyph unicode="8" horiz-adv-x="1150" d="M80 274q0 124 109.5 228t248.5 135v8q-84 54 -127 110.5t-43 141.5q0 100 65 189.5t175.5 143.5t234.5 54q154 0 262.5 -77.5t108.5 -194.5q0 -110 -87.5 -204t-213.5 -130v-8q211 -116 211 -273q0 -101 -46.5 -185t-122 -136t-167 -80.5t-186.5 -28.5 q-181 0 -301.5 87.5t-120.5 219.5zM242 262q0 -93 70.5 -157t199.5 -64q132 0 224.5 71t92.5 197q0 101 -77 169.5t-234 125.5q-124 -50 -200 -143t-76 -199zM461 977q0 -91 61 -149.5t219 -116.5q109 41 170.5 128t61.5 179q0 88 -65.5 140t-174.5 52q-117 0 -194.5 -69.5 t-77.5 -163.5z" />
<glyph unicode="9" horiz-adv-x="1165" d="M-63 0q0 59 28.5 94t79.5 35q54 0 79.5 -31t29.5 -118q3 -62 32 -86.5t107 -24.5q106 0 215.5 89t198 234t147.5 322l-8 6q-38 -36 -65 -58t-69.5 -48.5t-92 -39t-107.5 -12.5q-144 0 -240 99t-96 258q0 108 44 209.5t118 176.5t176.5 120t212.5 45q175 0 282 -108.5 t107 -313.5q0 -116 -31 -240.5t-87 -241t-137.5 -222t-176.5 -183.5t-211.5 -124t-236.5 -46q-146 0 -222.5 57.5t-76.5 151.5zM391 713q0 -132 50 -193t155 -61q62 0 124 33.5t112.5 93t82 150t31.5 194.5q0 132 -55 202t-158 70q-98 0 -177.5 -72t-122 -183.5 t-42.5 -233.5z" />
<glyph unicode=":" horiz-adv-x="655" d="M106 115q0 55 40 95t96 40t95.5 -40t39.5 -95t-39.5 -94t-95.5 -39t-96 39t-40 94zM281 774q0 56 39.5 95.5t95.5 39.5t95.5 -39.5t39.5 -95.5q0 -55 -39.5 -94t-95.5 -39t-95.5 39t-39.5 94z" />
<glyph unicode=";" horiz-adv-x="655" d="M33 -289q99 53 168 131.5t78 161.5h-50q-125 0 -125 109q0 52 40 93.5t100 41.5q141 0 141 -154q0 -74 -28.5 -143.5t-76.5 -124t-103.5 -97t-117.5 -73.5zM281 774q0 56 39.5 95.5t95.5 39.5t95.5 -39.5t39.5 -95.5q0 -55 -39.5 -94t-95.5 -39t-95.5 39t-39.5 94z" />
<glyph unicode="&#x3c;" horiz-adv-x="1187" d="M170 485v95l905 419v-116l-766 -351l766 -350v-116z" />
<glyph unicode="=" horiz-adv-x="1187" d="M178 293v106h905v-106h-905zM178 666v106h905v-106h-905z" />
<glyph unicode="&#x3e;" horiz-adv-x="1187" d="M186 66v116l766 350l-766 351v116l906 -419v-95z" />
<glyph unicode="?" horiz-adv-x="876" d="M139 106q0 54 36.5 90.5t90.5 36.5t90.5 -36.5t36.5 -90.5t-36.5 -89t-90.5 -35t-90.5 35t-36.5 89zM209 954q0 71 94 132t232 61q146 0 228.5 -67.5t82.5 -176.5q0 -158 -132 -281t-327 -145l-39 -125h-69l63 275q148 9 240 87.5t92 205.5q0 71 -43.5 116t-108.5 45 q-27 0 -56.5 -6t-39.5 -16q10 -45 10 -62q0 -63 -33.5 -106t-97.5 -43q-46 0 -71 28t-25 78z" />
<glyph unicode="@" horiz-adv-x="2181" d="M213 356q0 123 33 245t93.5 231.5t150.5 203t200 162t246.5 107t284.5 38.5q137 0 251 -36.5t193 -99t133.5 -147t79.5 -179.5t25 -197q0 -130 -43 -245.5t-115 -196.5t-169 -127.5t-202 -46.5q-85 0 -136.5 42.5t-57.5 120.5l-6 2q-46 -72 -107.5 -116.5t-122.5 -44.5 q-45 0 -84 13.5t-72.5 42.5t-53 83.5t-19.5 128.5q0 53 20 121.5t61.5 140.5t96.5 132.5t132.5 99t162.5 38.5q56 0 97.5 -31.5t51.5 -90.5h6l41 110h144l-195 -528q-20 -55 -20 -107q0 -98 84 -98q79 0 156.5 40.5t140 112t101 181t38.5 235.5q0 117 -40.5 220.5t-116 183 t-194 126t-265.5 46.5q-120 0 -237.5 -38t-221.5 -115.5t-183.5 -184t-125.5 -253.5t-46 -314q0 -171 53 -308.5t146.5 -226.5t218.5 -136.5t271 -47.5q331 0 547 155.5t313 446.5l49 -17q-92 -317 -332.5 -495t-576.5 -178q-112 0 -219.5 22.5t-205.5 66t-181 111.5 t-144 154t-95 199.5t-34 242.5zM887 326q0 -174 86 -174q118 0 219 178l123 332q-12 77 -45.5 114t-91.5 37q-78 0 -147.5 -81.5t-106.5 -193t-37 -212.5z" />
<glyph unicode="A" d="M-248 0l19 63q24 2 72.5 14.5t80.5 26.5q86 41 180 160q319 400 900 1157h73v-1218q0 -48 9 -73.5t38 -39.5q44 -23 131 -27l-18 -63h-598l18 63q95 6 156 27q66 25 66 107v335h-455q-147 -194 -184 -247q-8 -12 -21.5 -31.5t-21 -30.5t-16 -24.5t-12 -22.5t-3.5 -16 q0 -28 36 -51t78 -33.5t78 -12.5l-18 -63h-588zM487 614h392v510z" />
<glyph unicode="B" horiz-adv-x="1292" d="M-63 0l16 63q107 6 153 21q67 23 89 100l280 1012q8 36 8 47q0 20 -9.5 32t-31.5 23q-23 10 -69 22t-68 13l19 66h614q167 0 263.5 -67t96.5 -193q0 -64 -23 -118.5t-61 -94t-93 -72t-111.5 -53.5t-124.5 -39v-19q325 -60 325 -290q0 -202 -185 -327.5t-482 -125.5h-606z M403 203q-2 -13 -2 -25q1 -50 31 -72q38 -28 129 -28q102 0 186 31.5t136.5 84.5t81 118.5t28.5 136.5q0 119 -85.5 186t-231.5 67q-57 0 -135 -4zM561 778h76q201 0 322.5 101t121.5 241q0 203 -229 203q-41 0 -139 -4z" />
<glyph unicode="C" horiz-adv-x="1294" d="M102 504q0 189 70.5 361.5t185 294t262.5 193.5t300 72q104 0 169.5 -25.5t135.5 -84.5l84 104h84l-99 -506h-63q-22 225 -102 329t-244 104q-100 0 -200.5 -63.5t-178.5 -169.5t-127 -257.5t-49 -314.5q0 -217 97 -341t286 -124q74 0 136 21t117 65.5t100.5 98 t98.5 132.5l64 -39q-43 -66 -80.5 -114t-94 -102.5t-115 -88.5t-138.5 -57t-170 -23q-249 0 -389 144.5t-140 390.5z" />
<glyph unicode="D" horiz-adv-x="1531" d="M-63 0l16 63q106 6 153 21q67 23 89 100l280 1012q8 36 8 47q0 20 -9.5 32t-31.5 23q-23 10 -69 22t-68 13l19 66h606q88 0 168.5 -17.5t156.5 -58t131.5 -101.5t89 -155t33.5 -211q0 -196 -79 -359.5t-212.5 -271t-307.5 -166.5t-367 -59h-606zM412 238q-7 -26 -7 -48 q0 -42 26 -68q40 -42 142 -42q151 0 284.5 58.5t228 159t149.5 241t55 299.5q0 483 -440 483q-47 0 -137 -4z" />
<glyph unicode="E" d="M-82 0l21 63q25 0 86.5 8.5t85.5 16.5q68 24 88 102l276 1004q8 36 8 49q0 20 -9 32.5t-32 22.5q-25 11 -75 22.5t-78 12.5l20 66h1082l-95 -340h-63v16q0 92 -39 161.5t-104 78.5q-57 8 -160 8h-215l-158 -561h154q119 0 194 65q26 21 60.5 80.5t52.5 106.5h65 l-163 -590h-62q6 38 6 92q0 81 -16 107q-13 19 -24 29.5t-45.5 22t-86.5 11.5h-153l-119 -422q-21 -72 -21 -98q0 -55 44.5 -72.5t162.5 -17.5q86 0 137 2t108 13.5t85 33.5q63 51 137 143t103 146h63l-139 -414h-1182z" />
<glyph unicode="F" horiz-adv-x="1269" d="M-82 0l21 63q25 0 86.5 8.5t85.5 16.5q68 24 88 102l276 1004q8 36 8 49q0 20 -9 32.5t-32 22.5q-25 11 -75 22.5t-78 12.5l20 66h1137l-94 -340h-64v16q0 92 -39 161.5t-104 78.5q-57 8 -160 8h-270l-160 -567h188q120 0 195 65q26 21 60.5 80.5t52.5 106.5h65 l-164 -590h-61q6 37 6 92q0 80 -16 106q-13 19 -23.5 29.5t-45.5 22.5t-87 12h-188l-134 -475q-8 -24 -8 -49q0 -21 9 -33.5t32 -22.5q24 -10 75 -21t79 -13l-21 -66h-651z" />
<glyph unicode="G" horiz-adv-x="1464" d="M102 516q0 174 68 339.5t182 291t274.5 202t334.5 76.5q196 0 319 -110l92 104h80l-113 -491h-63q-9 98 -31 171t-62.5 130.5t-106 87t-156.5 29.5q-106 0 -211.5 -62.5t-189 -167.5t-135.5 -258t-52 -321q0 -233 92 -357.5t260 -124.5q142 0 223.5 72.5t118.5 212.5 l21 78q6 26 6 47q0 56 -43 74q-30 12 -92 21t-101 11l19 68h667l-18 -68q-119 -18 -144 -28q-73 -29 -90 -107l-127 -475l-37 -14l-83 125q-114 -54 -195 -78.5t-178 -24.5q-111 0 -205 32t-167.5 96.5t-115 171.5t-41.5 247z" />
<glyph unicode="H" horiz-adv-x="1665" d="M-63 0l16 63q107 6 153 21q67 23 89 100l280 1012q8 36 8 47q0 20 -9.5 32t-31.5 23q-23 10 -69 22t-68 13l19 66h626l-18 -66q-83 -4 -160 -24q-67 -20 -90 -103l-121 -434h672l119 424q8 36 8 49q0 19 -9.5 30.5t-31.5 22.5q-26 10 -72.5 22t-72.5 13l22 66h625 l-21 -66q-80 -4 -153 -24q-66 -19 -88 -103l-283 -1013q-8 -36 -8 -43q0 -20 9.5 -31t33.5 -25q14 -9 62 -19t77 -12l-18 -63h-627l18 63q118 6 160 21q67 23 88 100l141 502h-673l-140 -493q-6 -27 -6 -41q0 -39 43 -58q16 -8 65 -19t77 -12l-17 -63h-624z" />
<glyph unicode="I" horiz-adv-x="802" d="M-57 0l16 63q108 6 154 21q66 23 88 100l280 1012q8 36 8 47q0 36 -40 55q-23 10 -69.5 22t-68.5 13l19 66h626l-18 -66q-83 -4 -160 -24q-67 -20 -90 -103l-282 -1013q-7 -31 -7 -41q0 -39 43 -58q16 -8 65 -19t77 -12l-17 -63h-624z" />
<glyph unicode="J" horiz-adv-x="1007" d="M-86 203q0 66 40.5 114t104.5 48q57 0 88 -33t31 -84q0 -48 -34 -87.5t-91 -51.5q35 -72 158 -72q63 0 114 29t88.5 83.5t64 119.5t48.5 151l201 776q6 18 6 37q0 41 -43 63q-26 14 -79.5 23.5t-90.5 11.5l19 68h663l-18 -68q-97 -5 -158 -24q-69 -20 -90 -101l-221 -854 q-13 -49 -40.5 -101t-72.5 -103.5t-101 -92t-130.5 -65.5t-155.5 -25q-131 0 -216 72.5t-85 165.5z" />
<glyph unicode="K" horiz-adv-x="1519" d="M-63 0l16 63q107 6 153 21q67 23 89 100l280 1012q8 36 8 47q0 20 -9.5 32t-31.5 23q-23 10 -69 22t-68 13l19 66h626l-18 -66q-83 -4 -160 -24q-67 -20 -90 -103l-133 -481h16q265 176 442.5 321t196.5 214q6 21 -6 36.5t-36 22.5t-42 10t-37 4l19 66h579l-18 -66 q-113 -6 -186 -31q-78 -26 -136 -75q-26 -22 -121 -100.5t-125.5 -103.5t-100 -80t-125.5 -95.5t-121 -85.5q192 -246 382 -533q59 -90 150 -135q48 -22 156 -28l-17 -66h-698l16 66q115 9 157 26t42 58q0 47 -113.5 212t-247.5 324h-36l-140 -493q-6 -24 -6 -41 q0 -39 43 -58q16 -8 65 -19t77 -12l-17 -63h-624z" />
<glyph unicode="L" horiz-adv-x="1302" d="M-82 0l21 63q25 0 86.5 8.5t85.5 16.5q68 24 88 102l276 1004q8 36 8 49q0 20 -9 32.5t-32 22.5q-25 11 -75 22.5t-78 12.5l20 66h641l-18 -66q-83 -4 -160 -24q-67 -20 -90 -103l-262 -942q-21 -72 -21 -98q0 -55 44.5 -72.5t162.5 -17.5q86 0 137 2t108 13.5t85 33.5 q63 51 137 143t103 146h63l-139 -414h-1182z" />
<glyph unicode="M" horiz-adv-x="1935" d="M-109 0l19 63q36 2 106 20t99 36q41 26 74 91.5t67 188.5l190 709q12 46 12 82q0 56 -30 86q-27 27 -74.5 41t-93.5 16l19 66h423l213 -1084l609 908q68 102 94 176h467l-19 -66q-82 -4 -159 -24q-67 -20 -90 -103l-261 -1013q-6 -18 -6 -41q0 -39 43 -58q18 -9 69 -19 t81 -12l-17 -63h-622l16 63q102 6 146 21q70 24 88 100l250 992l-793 -1153h-57q-7 154 -31 284l-170 850l-199 -747q-32 -121 -32 -189q0 -66 26 -92q21 -22 90.5 -43t104.5 -23l-19 -63h-633z" />
<glyph unicode="N" horiz-adv-x="1538" d="M-109 0l19 63q36 2 106 20t99 36q83 53 143 280l180 682q8 32 8 70q0 75 -38 113q-64 64 -207 69l20 66h422l473 -1102l182 700q33 130 33 191q0 64 -28 86q-25 19 -90.5 39t-102.5 22l18 64h629l-18 -64q-34 -2 -104 -18t-99 -33q-48 -27 -79 -93.5t-62 -180.5 l-273 -1024h-88l-491 1147l-189 -723q-11 -39 -21.5 -101.5t-10.5 -87.5q0 -66 26 -92q21 -22 90.5 -43t104.5 -23l-19 -63h-633z" />
<glyph unicode="O" horiz-adv-x="1482" d="M111 526q0 192 75.5 374t219.5 317q112 104 245 158.5t273 54.5q231 0 374 -146q73 -74 117.5 -177.5t44.5 -225.5q0 -205 -76.5 -395.5t-228.5 -321.5q-229 -197 -514 -197q-214 0 -356 139q-80 78 -127 185.5t-47 234.5zM330 471q0 -199 82.5 -310.5t253.5 -111.5 q225 0 374 207q93 130 147 307.5t54 360.5q0 424 -334 424q-121 0 -224.5 -65t-174.5 -179q-83 -133 -130.5 -295.5t-47.5 -337.5z" />
<glyph unicode="P" horiz-adv-x="1243" d="M-63 0l16 63q107 6 153 21q67 23 89 100l280 1012q8 36 8 47q0 20 -9.5 32t-31.5 23q-23 10 -69 22t-68 13l19 66h567q192 0 297.5 -79t105.5 -222q0 -141 -86 -247.5t-239 -163t-351 -56.5h-96l-123 -441q-6 -21 -6 -38q0 -39 43 -58q16 -8 65 -19t77 -12l-17 -63h-624z M545 713h100q207 0 319.5 97t112.5 269q0 242 -278 242h-86z" />
<glyph unicode="Q" horiz-adv-x="1482" d="M111 526q0 192 75.5 374t219.5 317q112 104 245 158.5t273 54.5q227 0 374 -144q71 -71 116.5 -176.5t45.5 -228.5q0 -168 -51 -324t-162 -292t-268 -214q7 -67 30.5 -113t59 -68.5t70.5 -31t78 -8.5q58 0 129 48.5t116 109.5l49 -45q-27 -36 -69 -76t-99.5 -82t-129 -69 t-140.5 -27q-51 0 -96.5 15t-86 47.5t-67 92t-32.5 140.5q-73 -13 -150 -13q-217 0 -360 140q-170 167 -170 415zM330 471q0 -153 45 -252q44 78 106.5 129t120.5 70.5t115 19.5q104 0 174.5 -78t81.5 -192q122 123 195 331.5t73 424.5q0 424 -334 424q-121 0 -224.5 -65 t-174.5 -179q-83 -133 -130.5 -295.5t-47.5 -337.5zM414 160q87 -111 252 -111q57 0 120 17q2 16 2 71q0 101 -41.5 149t-109.5 48q-31 0 -67 -14t-80.5 -55.5t-75.5 -104.5z" />
<glyph unicode="R" horiz-adv-x="1443" d="M-63 0l16 63q107 6 153 21q67 23 89 100l280 1012q8 36 8 47q0 20 -9.5 32t-31.5 23q-23 10 -69 22t-68 13l19 66h575q201 0 313.5 -71.5t112.5 -203.5q0 -318 -459 -415v-15q93 -28 159 -88t93 -178q19 -87 39 -231q1 -16 4.5 -30t9 -24t10.5 -18t14.5 -14t14.5 -9.5 t16.5 -7t15 -4.5t15.5 -3.5t13 -2.5q68 -13 119 -16l-17 -68h-416q0 167 -43 406q-21 111 -101 186.5t-185 75.5h-95q-73 -270 -133 -475q-6 -27 -6 -41q0 -39 43 -58q15 -8 68 -19t82 -12l-17 -63h-632zM555 750h98q212 0 330.5 91t118.5 261q0 118 -63.5 168.5 t-194.5 50.5h-129z" />
<glyph unicode="S" horiz-adv-x="1107" d="M-45 -20l115 479h63q12 -82 36 -149.5t65.5 -127.5t109.5 -93.5t156 -33.5q142 0 223.5 80.5t81.5 194.5q0 95 -50.5 157.5t-189.5 133.5q-118 61 -182.5 110t-100.5 117.5t-36 161.5q0 114 68 209.5t184.5 150.5t253.5 55q84 0 156.5 -29.5t115.5 -72.5l96 96h70 l-117 -465h-61q-7 73 -20 130.5t-35 107t-53 82t-76.5 51t-102.5 18.5q-130 0 -209.5 -68.5t-79.5 -176.5q0 -90 47 -147.5t170 -119.5q195 -99 275 -188.5t80 -212.5q0 -132 -79 -238.5t-204.5 -162.5t-267.5 -56q-107 0 -197.5 30.5t-140.5 72.5l-94 -96h-70z" />
<glyph unicode="T" horiz-adv-x="1302" d="M168 1022l106 377h1244l-107 -377h-57q0 117 -35.5 200.5t-101.5 92.5q-65 8 -164 8h-78l-305 -1122q-6 -18 -6 -45q0 -38 41 -58q17 -7 85.5 -20t96.5 -15l-19 -63h-698l18 63q34 2 98.5 10t84.5 15q69 23 90 102l311 1133h-78q-103 0 -168 -8q-63 -8 -161.5 -111 t-139.5 -182h-57z" />
<glyph unicode="U" horiz-adv-x="1640" d="M238 291q0 93 28 194l197 711q8 36 8 47q0 20 -9.5 32t-31.5 23q-23 10 -69 22t-68 13l18 66h627l-18 -66q-83 -4 -160 -24q-67 -20 -90 -103l-189 -680q-39 -133 -39 -239q0 -114 68.5 -173t220.5 -59q364 0 490 426l147 518q33 125 33 189q0 63 -29 86q-25 19 -90 39 t-102 22l18 64h629l-19 -64q-34 -2 -103.5 -18t-98.5 -33q-48 -26 -78 -91t-64 -181l-149 -525q-73 -257 -231.5 -388.5t-413.5 -131.5q-432 0 -432 324z" />
<glyph unicode="V" d="M154 1335l18 64h598l-18 -64q-98 -6 -156 -26q-66 -25 -66 -107v-928l394 512q191 251 245 328q8 12 21.5 31.5t21 30.5t16 24.5t12 22.5t3.5 16q0 28 -36 50.5t-77.5 33t-78.5 12.5l18 64h588l-19 -64q-24 -2 -72.5 -14.5t-80.5 -26.5q-87 -41 -180 -159 q-274 -343 -899 -1158h-74v1219q0 48 -9 73.5t-38 39.5q-41 21 -131 26z" />
<glyph unicode="W" horiz-adv-x="1959" d="M154 1335l18 64h598l-18 -64q-98 -6 -156 -26q-66 -25 -66 -107v-915l580 884q6 37 6 64q0 50 -47 74q-41 21 -131 26l18 64h598l-18 -64q-98 -6 -156 -26q-65 -25 -65 -107v-915l506 772q53 81 69.5 114.5t16.5 61.5q0 43 -56 68t-135 30l19 66h551l-19 -66 q-70 -4 -137 -41q-66 -33 -131 -129l-789 -1179h-94v1034l-690 -1034h-94v1212q0 48 -9 73.5t-38 39.5q-41 21 -131 26z" />
<glyph unicode="X" horiz-adv-x="1540" d="M-139 0l18 66q108 6 168 28q97 38 205 137q213 192 471 451q-169 357 -234 485q-30 67 -52 93t-54 45q-17 9 -71.5 17.5t-90.5 10.5l19 66h702l-18 -66q-103 -5 -161 -27t-58 -75q0 -38 31.5 -114.5t106.5 -238.5q15 -32 23 -49q252 252 302 307q83 92 83 121 q0 39 -35 55.5t-129 20.5l19 66h614l-18 -66q-106 -6 -166 -28q-95 -37 -205 -138q-135 -121 -428 -417q192 -406 248 -519q49 -96 104 -141q18 -16 162 -24l-18 -66h-703l19 66q48 3 83.5 8t69.5 16t52 31t18 49q0 41 -32.5 118.5t-145.5 317.5q-30 -29 -87 -85.5 t-88.5 -87.5t-77.5 -77t-71.5 -74t-52 -58.5t-38 -49.5t-11.5 -29q0 -43 33 -58.5t127 -20.5l-19 -66h-614z" />
<glyph unicode="Y" horiz-adv-x="1275" d="M131 1331l21 68h628l-20 -68q-7 0 -22 -1q-27 -1 -42.5 -2t-42.5 -3.5t-43 -5.5t-33.5 -8.5t-25.5 -13t-8 -17.5q0 -12 4 -33t13.5 -56.5t19 -68t28 -91t31.5 -100.5t38.5 -121t41.5 -130q177 205 321 389q42 54 61 78.5t41 54.5t30 43.5t8 20.5q0 19 -16 31.5 t-45.5 18.5t-59.5 9t-68 6h-4l21 68h544l-20 -68q-19 -2 -63 -15.5t-64 -23.5q-49 -25 -72 -41t-73 -63q-99 -95 -188.5 -202t-242.5 -302q-108 -140 -129 -229l-63 -252q-4 -20 -4 -39q3 -45 43 -64q17 -7 79 -18.5t91 -13.5l-19 -68h-663l18 68q115 6 164 22q68 23 88 103 l84 335q4 12 4 39q0 38 -18 115q-44 165 -150 477q-34 94 -98 139q-48 29 -125 33z" />
<glyph unicode="Z" horiz-adv-x="1228" d="M-133 0l12 45l1243 1278h-313q-124 0 -178 -10q-79 -16 -181 -115.5t-165 -196.5h-64l146 398h1044l-14 -45l-1243 -1278h356q257 0 328 53q74 57 151 147t123 164h64l-156 -440h-1153z" />
<glyph unicode="[" horiz-adv-x="716" d="M-16 -236l395 1477h479l-20 -74h-328l-356 -1331h327l-18 -72h-479z" />
<glyph unicode="\" horiz-adv-x="962" d="M303 1528l109 18l389 -1966l-107 -20z" />
<glyph unicode="]" horiz-adv-x="716" d="M-166 -236l19 72h327l357 1331h-328l20 74h480l-396 -1477h-479z" />
<glyph unicode="^" horiz-adv-x="1140" d="M25 205q0 114 67.5 194t255.5 166q-53 88 -53 172q0 122 87 204.5t226 82.5q90 0 147.5 -47t57.5 -123q0 -102 -71 -171.5t-201 -119.5q16 -26 66 -96t93 -141q24 44 38.5 68t37.5 59.5t42 55t44 39.5t52.5 29t58.5 9q71 0 102 -34t31 -73q0 -34 -22 -65t-60 -31 q-45 0 -66.5 15t-56.5 63q-29 0 -62 -41.5t-98 -151.5q88 -160 88 -243q0 -168 -122 -273.5t-301 -105.5l-7 80q48 0 86.5 4t78.5 17t67 34.5t44 59t17 87.5q0 69 -65 197q-71 -73 -151 -112.5t-185 -39.5q-109 0 -187.5 63.5t-78.5 168.5zM203 252q0 -79 47.5 -130.5 t118.5 -51.5q69 0 116 26t107 90q-26 42 -103 153t-108 169q-55 -27 -92.5 -58.5t-55 -66.5t-24 -65t-6.5 -66zM455 784q0 -69 53 -161q103 50 151 98t48 131q0 43 -28.5 72.5t-78.5 29.5q-70 0 -107.5 -51.5t-37.5 -118.5z" />
<glyph unicode="_" horiz-adv-x="1228" d="M-225 -221h1249v-101h-1249v101z" />
<glyph unicode="`" horiz-adv-x="1024" d="M522 1419q0 33 20.5 55.5t53.5 22.5q39 0 65.5 -25.5t51.5 -78.5q71 -146 143 -285l-41 -33q-33 34 -227 228q-66 66 -66 116z" />
<glyph unicode="a" horiz-adv-x="1064" d="M-184 0l18 66q30 2 73 10t62 18q59 30 111 105q89 131 545 815h90l116 -860q3 -24 11.5 -37t29.5 -25q22 -11 129 -26l-18 -66h-541l19 66q64 4 126 17t62 32l-31 221h-348q-21 -32 -41 -68t-34 -57q-39 -66 -39 -84q0 -44 159 -61l-18 -66h-481zM317 414h291l-47 366z " />
<glyph unicode="b" horiz-adv-x="1126" d="M-59 0l18 66q123 13 141 18q27 7 43 27t27 59l174 649q10 40 10 45q0 27 -32 43q-40 20 -125 25l18 65h530q53 0 99 -9.5t84.5 -29t61 -53.5t22.5 -80q0 -223 -301 -288v-9q32 -3 64.5 -10.5t67.5 -24.5t61.5 -40t43.5 -59.5t17 -80.5q0 -79 -42 -141.5t-108.5 -98.5 t-138.5 -54.5t-141 -18.5h-594zM354 152q0 -37 40.5 -58.5t97.5 -21.5q67 0 120.5 23.5t84.5 62t47 82.5t16 90q0 70 -50.5 114.5t-138.5 44.5q-11 0 -64.5 -1t-68.5 -1l-84 -327v-8zM459 559h98q123 0 187.5 70t64.5 172q0 63 -41 95t-100 32q-37 0 -107 -4z" />
<glyph unicode="c" horiz-adv-x="1058" d="M66 393q0 173 82.5 318t225 228t312.5 83q149 0 236 -80l57 70h80l-111 -398h-61v35q0 65 -10 114.5t-34.5 93t-72 66.5t-117.5 23t-138 -40t-121 -109t-85.5 -171t-32.5 -218q0 -146 72.5 -236t194.5 -90q125 0 203.5 58.5t144.5 181.5l61 -39q-73 -138 -190.5 -223 t-280.5 -85q-191 0 -303 117t-112 301z" />
<glyph unicode="d" horiz-adv-x="1239" d="M-66 0l19 66q96 6 143 18q52 14 72 88l176 647q10 30 10 45q0 35 -32 45q-48 17 -129 23l18 65h477q60 0 119.5 -11.5t121.5 -40t108.5 -71t76 -111t29.5 -153.5q0 -123 -41 -225.5t-110 -172.5t-161 -119t-192 -71t-205 -22h-500zM354 154q0 -32 32.5 -56t94.5 -24 q108 0 195.5 42.5t143 116t85 169.5t29.5 206q0 141 -80.5 229.5t-220.5 88.5q-15 0 -35 -1t-37 -1l-203 -744q-4 -20 -4 -26z" />
<glyph unicode="e" horiz-adv-x="1114" d="M-68 0l19 66q114 7 145 16q54 14 74 88l172 641q10 35 10 51q0 30 -30 45q-17 8 -63 15.5t-75 9.5l19 65h880l-75 -272h-60v18q0 56 -27 114t-67 65q-47 8 -125 8h-166l-104 -377h98q89 0 135 41q51 46 84 129h66l-121 -432h-62q7 56 7 74q0 28 -2.5 43t-12.5 35.5 t-36.5 30t-69.5 9.5h-107l-76 -286q-12 -50 -12 -68q0 -35 32.5 -46t117.5 -11q64 0 99 1.5t75 9t61 23.5q37 28 96 100t91 118h61l-121 -324h-930z" />
<glyph unicode="f" horiz-adv-x="1044" d="M-66 0l19 66q119 8 143 14q53 14 72 88l176 651q10 30 10 47q0 31 -32 41q-17 7 -64.5 15t-73.5 10l19 65h889l-80 -286h-62v22q0 58 -25.5 120.5t-62.5 68.5q-49 8 -131 8h-168l-110 -398h102q85 0 147 43q19 13 44.5 52t44.5 82h63l-125 -447h-61q10 90 10 92 q0 54 -31 81.5t-104 27.5h-111l-72 -275q-12 -54 -12 -55q0 -18 6.5 -27.5t24.5 -17.5q9 -4 61 -12t78 -10l-18 -66h-566z" />
<glyph unicode="g" horiz-adv-x="1200" d="M66 387q0 129 49.5 245.5t136 202.5t211 136.5t266.5 50.5q64 0 138.5 -23.5t111.5 -58.5l57 72h78l-106 -381h-58v16q0 60 -14.5 111t-45.5 94t-88.5 67.5t-135.5 24.5q-106 0 -196.5 -78.5t-142 -209.5t-51.5 -281q0 -141 66 -230.5t174 -89.5q99 0 152.5 48.5 t72.5 115.5q19 66 19 100q0 33 -29 43q-54 19 -166 25l19 66h571l-16 -62q-102 -14 -133 -24q-53 -18 -66 -72l-86 -328l-49 -6l-41 92q-179 -80 -328 -80q-151 0 -260.5 116t-109.5 298z" />
<glyph unicode="h" horiz-adv-x="1386" d="M-57 0l18 66q106 6 135 14q28 8 44 27t28 61l174 643q8 40 8 53q0 33 -28 43q-66 21 -125 25l18 65h541l-19 -65q-82 -5 -133 -19q-52 -13 -72 -88l-71 -266h467l63 240q13 45 13 61q0 34 -27 47q-17 7 -58 15t-67 10l18 65h541l-18 -65q-90 -5 -136 -19q-29 -9 -45 -30 t-26 -58l-170 -630q-12 -46 -12 -62q0 -31 28 -45q11 -5 54 -12.5t67 -9.5l-18 -66h-537l18 66q110 6 136 14q27 7 42.5 27.5t26.5 60.5l84 313h-467l-78 -293q-12 -36 -12 -59q0 -27 31 -41q27 -10 119 -22l-19 -66h-536z" />
<glyph unicode="i" horiz-adv-x="737" d="M-59 0l18 66q113 7 139 14q52 14 72 86l176 649q10 30 10 49q0 33 -32 43q-17 6 -63 14.5t-68 10.5l18 65h557l-18 -65q-90 -5 -144 -19q-52 -11 -71 -86l-168 -624q-15 -68 -15 -72q0 -30 31 -43q9 -4 55.5 -12t71.5 -10l-18 -66h-551z" />
<glyph unicode="j" horiz-adv-x="870" d="M-66 154q0 54 39 95.5t93 41.5t83 -31t29 -82q0 -38 -24.5 -70.5t-73.5 -50.5v-16h26q58 0 102.5 15t72.5 37t50 60t33.5 71t24.5 83l119 469q16 64 16 84q0 33 -28 45q-47 21 -156 27l18 65h580l-18 -65q-79 -5 -138 -21q-51 -13 -71 -88l-146 -571q-13 -48 -48 -97 t-86 -90.5t-122 -67.5t-147 -26q-117 0 -172.5 53.5t-55.5 129.5z" />
<glyph unicode="k" horiz-adv-x="1212" d="M-53 0l18 66q101 6 131 14q51 13 72 88l170 629q12 40 12 65q0 33 -28 45q-17 7 -57 15t-64 10l18 65h529l-19 -65q-79 -5 -127 -19q-29 -8 -44.5 -29.5t-25.5 -58.5l-92 -327q218 147 369 280q35 30 63.5 64t28.5 47q0 20 -36 30.5t-74 12.5l18 65h471l-18 -65 q-149 -9 -232 -72q-45 -35 -121.5 -98t-136 -109t-127.5 -94q209 -320 248 -383q36 -59 90 -88q30 -15 145 -22l-18 -66h-580l19 66q33 2 51.5 4t48 7.5t44 16t14.5 25.5q0 41 -211 342l-80 -49l-56 -222q-14 -42 -14 -61q0 -29 29 -41q22 -10 106 -22l-18 -66h-516z" />
<glyph unicode="l" horiz-adv-x="1040" d="M-63 0l18 66q106 6 141 16q53 17 72 88l168 625q14 56 14 67q0 32 -31 43q-15 7 -57.5 16t-66.5 11l18 65h557l-18 -65q-98 -6 -150 -21q-51 -16 -72 -88l-170 -628q-12 -46 -12 -64q0 -37 33 -49t117 -12q127 0 184 41q40 29 112.5 114.5t116.5 149.5h60l-123 -375h-911 z" />
<glyph unicode="m" horiz-adv-x="1579" d="M-86 0l18 63q5 1 33 5.5t47 8t44.5 10.5t39.5 15q32 19 57.5 69.5t53.5 150.5q21 73 63 231q12 45 30.5 114.5t29.5 114.5q8 33 8 62q0 35 -21 51q-39 29 -165 37l18 65h432l115 -714l395 569q50 70 72 145h415l-18 -65q-90 -5 -139 -19q-49 -13 -66 -88l-159 -635 q-11 -44 -11 -57q0 -32 23 -45q9 -5 60.5 -12.5t80.5 -9.5l-18 -66h-553l18 66q110 6 139 18q57 22 74 90l168 655h-8l-569 -811h-54q-3 88 -18 197l-103 657h-4l-151 -567q-23 -82 -23 -131q0 -47 19 -63q14 -12 72.5 -27.5t84.5 -17.5l-18 -66h-512z" />
<glyph unicode="n" horiz-adv-x="1292" d="M-84 0l18 66q29 1 89.5 15.5t74.5 22.5q31 17 57 73t54 151q32 107 53 188q43 166 57 225q13 59 13 70q0 43 -23 66q-22 20 -78 36t-104 19l18 65h390l354 -753l110 430q31 121 31 155q0 45 -20 58q-43 26 -172 45l18 65h533l-19 -65q-28 -2 -89 -14.5t-85 -22.5 q-32 -16 -55.5 -69.5t-50.5 -147.5l-189 -692h-90l-387 825l-125 -481q-31 -127 -31 -162q0 -40 17 -57q12 -12 78 -27.5t96 -17.5l-19 -66h-524z" />
<glyph unicode="o" horiz-adv-x="1200" d="M66 391q0 140 59.5 271.5t181.5 226.5q173 135 375 135q186 0 304 -118t118 -298q0 -145 -65.5 -280.5t-186.5 -225.5q-91 -68 -177 -98.5t-192 -30.5q-178 0 -297.5 119.5t-119.5 298.5zM276 336q0 -127 56 -207t166 -80q80 0 138.5 33t115.5 106q69 86 105 214.5 t36 261.5q0 61 -11.5 110t-36.5 89t-69.5 62.5t-105.5 22.5q-63 0 -112.5 -23.5t-102.5 -74.5q-86 -83 -132.5 -221.5t-46.5 -292.5z" />
<glyph unicode="p" horiz-adv-x="1052" d="M-55 0l18 66q96 6 135 16q30 9 45.5 28.5t26.5 59.5l170 637q12 48 12 63q0 34 -30 41q-61 16 -136 21l19 65h514q141 0 217 -62t76 -163q0 -112 -68.5 -195.5t-173 -124t-225.5 -40.5h-127l-58 -228q-12 -42 -12 -59q0 -29 31 -41q11 -4 63 -10t86 -8l-18 -66h-565z M436 485h82q68 0 121 20.5t82.5 51t49 69.5t26 71t6.5 61q0 68 -41.5 118t-122.5 50h-78z" />
<glyph unicode="q" horiz-adv-x="1204" d="M66 397q0 139 60 267.5t181 224.5q172 135 377 135q185 0 304.5 -119t119.5 -301q0 -173 -91 -323t-255 -238q3 -100 55 -155.5t141 -55.5q29 0 57 11t56.5 35.5t43 38.5t42.5 44l43 -43q-2 -2 -20.5 -23t-26 -29t-28.5 -29t-36 -31t-39 -27.5t-47 -27t-51.5 -19.5 t-60.5 -14.5t-66 -4.5q-96 0 -163.5 73t-71.5 196q-70 -9 -96 -9q-192 0 -310 122t-118 302zM268 340q0 -91 23 -141q52 94 113.5 133t142.5 39q89 0 139.5 -57t65.5 -148q73 91 110 219t37 270q0 132 -54.5 213.5t-172.5 81.5q-117 0 -219 -102q-87 -85 -136 -225t-49 -283 zM324 143q61 -100 172 -100q53 0 100 14q6 31 6 80q0 139 -125 139q-38 0 -78.5 -31.5t-74.5 -101.5z" />
<glyph unicode="r" horiz-adv-x="1181" d="M-57 0l18 66q96 6 135 16q29 9 45 29t27 59l170 629q16 58 16 73q0 31 -32 39q-62 17 -132 21l19 65h528q131 0 211 -52t80 -146q0 -63 -29.5 -115.5t-80 -88.5t-105 -59.5t-115.5 -37.5v-11q68 -20 108.5 -60t61.5 -122q8 -32 18.5 -82t12.5 -59q16 -64 90 -84 q32 -9 107 -14l-19 -66h-352q-16 158 -49 283q-46 180 -209 180h-37l-70 -270q-12 -54 -12 -70q0 -30 33 -41q28 -10 121 -16l-19 -66h-540zM451 535h86q56 0 103 11.5t88.5 37.5t65 76t23.5 120q0 72 -46 109t-116 37h-94z" />
<glyph unicode="s" horiz-adv-x="983" d="M-25 -14l105 374h57q4 -60 21 -113t48.5 -99t85.5 -72.5t124 -26.5q105 0 165 52t60 132q0 49 -34.5 90.5t-92.5 67.5q-24 11 -87.5 36.5t-109.5 49.5q-62 30 -102.5 93t-40.5 135q0 142 112 229.5t275 87.5q65 0 142.5 -24t105.5 -56l68 70h67l-98 -357h-60 q-2 58 -18 107.5t-47.5 92.5t-86 68t-126.5 25q-22 0 -49 -8t-55.5 -24t-48 -47.5t-19.5 -71.5q0 -109 106 -164q44 -22 104.5 -45.5t84.5 -34.5q82 -35 133 -100t51 -142q0 -147 -119.5 -242.5t-302.5 -95.5q-89 0 -168 25.5t-116 58.5l-66 -71h-68z" />
<glyph unicode="t" horiz-adv-x="1058" d="M76 0l18 66q141 9 166 16q53 16 72 90l207 758h-25q-54 0 -113 -6q-47 -6 -140 -108t-126 -171h-55l100 352h946l-100 -352h-57q4 16 4 57q0 73 -26.5 143.5t-67.5 78.5q-27 6 -105 6h-47l-199 -731q-12 -48 -12 -64q0 -32 31 -45q10 -4 68 -13t83 -11l-18 -66h-604z" />
<glyph unicode="u" horiz-adv-x="1280" d="M162 217q0 44 10 82l133 498q12 36 12 61q0 34 -30 49q-16 8 -57 15.5t-68 9.5l18 65h545l-18 -65q-88 -5 -134 -19q-53 -14 -71 -88l-119 -446q-21 -79 -21 -137q0 -166 195 -166q66 0 120 18t88 44.5t61.5 65t41 69.5t25.5 69q20 67 45 174q68 280 68 322q0 38 -19 53 q-40 30 -156 41l19 65h506l-19 -65q-34 -2 -88.5 -11.5t-77.5 -21.5q-54 -26 -96 -190q-15 -55 -51 -203q-11 -44 -47 -180q-24 -86 -67.5 -151.5t-92 -103t-107 -61t-107.5 -31.5t-99 -8q-163 0 -252.5 73.5t-89.5 172.5z" />
<glyph unicode="v" horiz-adv-x="1060" d="M57 932l19 65h532l-18 -65q-63 -2 -126.5 -13.5t-60.5 -33.5l72 -660q78 109 354 512q29 40 48.5 78.5t19.5 52.5q0 49 -166 64l19 65h481l-19 -65q-73 -5 -122 -27q-46 -19 -107 -100q-42 -57 -262.5 -364.5t-327.5 -452.5h-82l-88 846q-6 48 -41 71q-37 22 -125 27z " />
<glyph unicode="w" horiz-adv-x="1546" d="M70 932l18 65h504l-19 -65q-51 -2 -107.5 -15t-59.5 -30l34 -627l328 500q18 30 18 61q0 51 -47 84q-33 22 -114 27l18 65h510l-18 -65q-57 -2 -117 -15t-60 -34l50 -621q196 308 297 475q67 108 67 133q0 27 -49 42.5t-111 19.5l19 65h461l-19 -65q-67 -8 -114 -29 q-54 -23 -105 -98q-120 -173 -536 -815h-76q-7 169 -23 412t-18 270l-451 -682h-78l-47 854q-3 38 -37 63q-33 20 -118 25z" />
<glyph unicode="x" horiz-adv-x="1181" d="M-109 0l17 66q87 7 131 24q79 34 135 86q159 150 309 307q-65 128 -178 336q-30 58 -84 88q-11 7 -54 15t-69 10l19 65h585l-18 -65q-184 -6 -184 -58q0 -48 123 -282q260 251 260 289q0 20 -41 34.5t-88 16.5l18 65h461l-19 -65q-45 -3 -118 -25q-62 -22 -135 -86 q-28 -26 -134 -129.5t-170 -163.5q52 -100 118 -217.5t75 -134.5q30 -59 84 -88q9 -5 59.5 -12.5t79.5 -9.5l-16 -66h-588l14 66q107 7 139 19q33 13 33 38q0 21 -42 108.5t-97 186.5q-12 -13 -36.5 -38.5t-40 -41.5t-39 -40.5t-38.5 -41.5t-34 -38t-31 -35.5t-23.5 -28.5 t-16.5 -23t-5 -14q0 -43 117 -51l-17 -66h-461z" />
<glyph unicode="y" horiz-adv-x="1026" d="M51 0l19 66q129 8 166 18q27 8 43 28t28 62q17 60 34 134.5t17 86.5q0 21 -16 80q-49 185 -102 340q-18 64 -62 90q-17 10 -56.5 17.5t-68.5 9.5l19 65h551l-19 -65q-4 0 -18 -1.5t-23.5 -2t-26 -2.5t-28 -3.5t-26 -4t-25 -6t-19.5 -7t-13.5 -8.5t-4.5 -10 q0 -28 112 -385q330 351 330 375q0 42 -153 55l18 65h453l-19 -65q-15 -2 -52 -12t-54 -17q-43 -18 -97 -67q-143 -124 -342 -359q-43 -52 -58 -78.5t-30 -79.5q-8 -30 -17.5 -74t-15.5 -74.5t-6 -33.5q0 -29 33 -45q14 -7 68.5 -15.5t83.5 -10.5l-19 -66h-604z" />
<glyph unicode="z" horiz-adv-x="1038" d="M-59 0v45l856 885h-215q-61 0 -115 -8q-39 -6 -95 -55.5t-100.5 -105.5t-78.5 -108h-56l96 344h811v-45l-854 -882h256q65 0 124.5 9.5t84.5 26.5q55 37 120.5 118t109.5 151h57l-111 -375h-890z" />
<glyph unicode="{" horiz-adv-x="798" d="M53 471l23 115q54 6 89 11t71.5 14.5t58.5 23.5t43.5 35t33 51t20 70t11.5 94q15 212 124 301.5t345 89.5l-14 -64q-76 -4 -120 -14.5t-78 -39t-50 -78t-24 -132.5q-10 -103 -42 -176t-87 -117t-114 -67.5t-144 -40.5l-11 -41q121 -24 176.5 -66t55.5 -133 q0 -73 -44 -190t-44 -158q0 -68 40 -94.5t142 -32.5l-14 -61q-330 0 -330 190q0 62 25.5 131.5t51 133t25.5 112.5q0 74 -48 98.5t-171 34.5z" />
<glyph unicode="|" horiz-adv-x="696" d="M338 -424v1952h106v-1952h-106z" />
<glyph unicode="}" horiz-adv-x="798" d="M-84 -229l14 63q75 4 119.5 15t79 40.5t50.5 79.5t24 133t32 147t57 105.5t82.5 72t99 47.5t116.5 30l10 41q-121 24 -176 65.5t-55 132.5q0 73 44 190.5t44 158.5q0 67 -39.5 91.5t-143.5 30.5l15 62q168 0 248.5 -47t80.5 -142q0 -62 -25.5 -130.5t-51 -131.5 t-25.5 -112q0 -74 48 -98.5t171 -34.5l-22 -115q-54 -6 -89 -11t-72 -14.5t-59 -23.5t-43 -35t-33 -51t-20.5 -70.5t-11.5 -93.5q-15 -213 -124 -304t-345 -91z" />
<glyph unicode="~" horiz-adv-x="1105" d="M113 367q27 97 107.5 176.5t174.5 79.5q52 0 105.5 -14t90.5 -31.5t81 -31.5t78 -14q78 0 121.5 25.5t78.5 91.5l41 -14q-27 -97 -107.5 -176.5t-174.5 -79.5q-70 0 -136.5 22.5t-121.5 45t-97 22.5q-78 0 -121.5 -25.5t-78.5 -91.5z" />
<glyph unicode="&#xa1;" horiz-adv-x="749" d="M145 84q0 34 16.5 78t57.5 125q119 249 191 448h57q-29 -164 -42.5 -374t-23.5 -248q-18 -62 -58 -96.5t-99 -34.5q-49 0 -74 28t-25 74zM365 1030q0 54 36.5 89.5t90.5 35.5t90 -35.5t36 -89.5t-36 -90.5t-90 -36.5t-90.5 36.5t-36.5 90.5z" />
<glyph unicode="&#xa2;" horiz-adv-x="931" d="M125 455q0 66 24.5 148.5t73 168.5t113 158t153.5 120t185 52l98 270l62 -20l-95 -252q84 -13 142.5 -66t58.5 -114q0 -57 -27 -97.5t-77 -40.5q-38 0 -63 22.5t-25 69.5q0 64 61 109q-23 55 -86 68l-307 -830q21 -8 53 -8q196 0 336 260l57 -24q-172 -318 -426 -318 q-35 0 -53 2l-139 -375l-58 19l136 368q-197 63 -197 310zM315 412q0 -107 45 -158l295 799q-82 -13 -162.5 -120.5t-129 -252t-48.5 -268.5z" />
<glyph unicode="&#xa3;" horiz-adv-x="1617" d="M-8 39q0 86 78 150.5t204 64.5q141 0 271 -61q21 59 36 159.5t17 175.5h-283l25 80h264q0 15 2 51.5t10 100t19 110.5q24 101 76.5 194t127 168t176.5 120t214 45q147 0 226 -75t79 -185q0 -47 -18 -96t-56.5 -86t-87.5 -37q-57 0 -82.5 26.5t-25.5 65.5q0 42 20 70.5 t43.5 39.5t43.5 29t20 41q0 137 -179 137q-43 0 -87 -15.5t-92 -51t-89 -105t-65 -164.5q-22 -92 -72 -383h346l-25 -80h-342q-21 -98 -67.5 -193.5t-114.5 -158.5q15 -5 64.5 -23.5t65 -23.5t55.5 -17t65.5 -16t65 -8t81.5 -4q253 0 357 322l72 -19q-19 -64 -46.5 -125 t-75 -126.5t-105.5 -114t-142 -80t-180 -31.5q-161 0 -367 137q-59 -60 -152 -99.5t-163 -39.5q-207 0 -207 131zM61 61q0 -34 39.5 -55.5t110.5 -21.5q65 0 132.5 25t119.5 67q-141 84 -254 84q-70 0 -109 -30t-39 -69z" />
<glyph unicode="&#xa4;" horiz-adv-x="1187" d="M156 135l245 246q-47 68 -47 156q0 82 47 155l-245 246l75 78l246 -246q71 49 160 49q88 0 156 -47l243 244l78 -78q-242 -242 -242 -244q50 -73 50 -157q0 -87 -52 -158l244 -244l-76 -78l-243 244q-73 -47 -158 -47q-87 0 -158 49l-246 -246zM455 537q0 -75 53.5 -131 t128.5 -56t129.5 56t54.5 131t-54.5 130.5t-129.5 55.5t-128.5 -55.5t-53.5 -130.5z" />
<glyph unicode="&#xa5;" horiz-adv-x="1226" d="M141 0l17 63q107 6 153 21q66 23 88 100l82 299h-319l16 76h309q0 11 -10 68q-39 158 -115 411q-14 44 -33.5 69t-49.5 46q-38 25 -105 29l14 61h572l-15 -61q-26 -2 -42.5 -3.5t-42.5 -4.5t-42 -7t-32.5 -9t-24.5 -13t-8 -17q0 -52 123 -481q391 437 391 475 q0 30 -38 42t-109 18l14 61h467l-17 -61q-14 -1 -53 -13t-57 -20q-145 -73 -508 -520q-32 -41 -49 -70h307l-16 -76h-332q-12 -25 -19 -51l-65 -239q-6 -27 -6 -41q0 -39 43 -58q16 -8 64.5 -19t76.5 -12l-16 -63h-613z" />
<glyph unicode="&#xa6;" horiz-adv-x="696" d="M338 379h106v-803h-106v803zM338 745v783h106v-783h-106z" />
<glyph unicode="&#xa7;" horiz-adv-x="1126" d="M27 -236q0 62 34.5 100t83.5 38q38 0 64.5 -25.5t26.5 -60.5q0 -28 -15.5 -49t-31 -38.5t-15.5 -37.5q0 -35 39 -62.5t96 -27.5q92 0 152.5 76.5t60.5 181.5q0 49 -10 89.5t-47 117.5q-27 59 -92 161t-101 168q-54 95 -70 142.5t-16 113.5q0 130 92 223t252 103 q-32 75 -32 156q0 97 44.5 183t129.5 140.5t192 54.5q119 0 196 -65t77 -164q0 -62 -35 -99.5t-84 -37.5q-38 0 -64 25t-26 61q0 22 9.5 40.5t21 28.5t21 25t9.5 31q0 36 -39.5 63t-101.5 27q-91 0 -147 -66t-56 -161q0 -45 13 -90.5t51 -127.5q30 -65 95 -174.5t91 -156.5 q55 -97 73.5 -149.5t18.5 -106.5q0 -80 -29.5 -141t-80 -97t-110 -55.5t-128.5 -24.5q37 -90 37 -174q0 -163 -109.5 -275t-265.5 -112q-121 0 -197.5 65t-76.5 164zM332 717q0 -60 53 -160q44 -82 120.5 -207.5t106.5 -189.5q105 13 164.5 54.5t59.5 127.5q0 43 -11.5 75 t-42.5 87q-45 85 -120.5 217t-104.5 190q-225 -20 -225 -194z" />
<glyph unicode="&#xa8;" horiz-adv-x="1024" d="M391 1309q0 55 38.5 95t100.5 40q41 0 69 -33t28 -72q0 -56 -36.5 -96.5t-96.5 -40.5q-48 0 -75.5 31.5t-27.5 75.5zM827 1309q0 55 40 95t102 40q41 0 67.5 -33t26.5 -72q0 -56 -35.5 -96.5t-95.5 -40.5q-49 0 -77 31.5t-28 75.5z" />
<glyph unicode="&#xa9;" horiz-adv-x="1929" d="M96 514q0 178 70.5 341t189.5 281t283.5 188.5t343.5 70.5q178 0 341.5 -70.5t282 -188.5t189 -281t70.5 -341q0 -179 -70.5 -343t-189.5 -282.5t-282 -189t-341 -70.5q-240 0 -444 119t-323.5 323t-119.5 443zM174 514q0 -167 63.5 -318t171.5 -260t258 -173t316 -64 q165 0 314.5 64t257 173t170.5 260t63 318q0 165 -63 314.5t-170.5 258t-257 172.5t-314.5 64q-166 0 -316 -64t-258 -172.5t-171.5 -258t-63.5 -314.5zM506 506q0 214 146 356t372 142q56 0 120 -18t99 -44l45 76l60 -2l8 -371h-51q-18 52 -34 88.5t-43 77t-58.5 65.5 t-79 41.5t-105.5 16.5q-53 0 -100.5 -25t-86.5 -74t-62 -131.5t-23 -187.5q0 -177 92 -284t231 -107q116 0 184 56t117 159l49 -23q-130 -290 -391 -290q-222 0 -355.5 129.5t-133.5 349.5z" />
<glyph unicode="&#xaa;" horiz-adv-x="854" d="M92 670l10 39q57 6 86 20q35 15 64 62q146 208 332 479h67q88 -491 90 -508q4 -21 27 -33q29 -14 74 -20l-11 -39h-346l11 39q36 2 73 10t37 20q0 11 -2 17l-18 106h-209q-9 -16 -25 -40l-18 -27q-21 -35 -21 -50q0 -23 101 -36l-11 -39h-311zM133 383l21 72h548l-20 -72 h-549zM412 915h163l-34 191z" />
<glyph unicode="&#xab;" horiz-adv-x="1187" d="M92 449q0 17 13 54t36 52q393 254 543 358l33 -34l-441 -406l218 -389l-39 -25q-294 304 -332 342q-21 19 -26 28t-5 20zM520 449q0 17 13 54t36 52q393 254 543 358l33 -34l-440 -406l217 -389l-39 -25q-294 304 -332 342q-21 19 -26 28t-5 20z" />
<glyph unicode="&#xac;" horiz-adv-x="1187" d="M137 520v107h948v-547h-116v440h-832z" />
<glyph unicode="&#xad;" horiz-adv-x="704" d="M66 449l45 151h542l-45 -151h-542z" />
<glyph unicode="&#xae;" horiz-adv-x="1372" d="M227 907q0 108 43 206.5t115 170t171 114t208 42.5q144 0 267.5 -71.5t196 -194.5t72.5 -267t-72.5 -267t-196 -195t-267.5 -72q-145 0 -269 72t-196 195t-72 267zM285 907q0 -131 63.5 -242.5t174 -177t241.5 -65.5q130 0 240.5 65.5t174.5 177t64 242.5 q0 130 -64 241.5t-174.5 177t-240.5 65.5q-98 0 -187 -39t-152.5 -104t-101.5 -154.5t-38 -186.5zM494 627v41q43 0 67 8q23 8 23 37v424q0 32 -23 37q-19 7 -67 12v41h307q75 0 129.5 -36t54.5 -106q0 -67 -41.5 -97.5t-124.5 -53.5v-4q109 -21 146 -109q6 -16 13.5 -37.5 t13.5 -42t7 -22.5q5 -18 16.5 -28.5t16 -11.5t19.5 -5q24 -6 57 -6v-41h-199q-22 100 -51 174q-18 46 -54.5 76t-78.5 30h-39v-194q0 -29 23 -37q24 -8 69 -8v-41h-284zM686 954h49q56 0 94.5 34t38.5 89q0 53 -31.5 79t-80.5 26h-70v-228z" />
<glyph unicode="&#xaf;" horiz-adv-x="1024" d="M387 1221l33 127h676l-33 -127h-676z" />
<glyph unicode="&#xb0;" horiz-adv-x="792" d="M172 1114q0 143 100 241.5t240 98.5q79 0 150 -35.5t118 -107.5t47 -164q0 -143 -100 -241.5t-240 -98.5q-79 0 -150 35.5t-118 107.5t-47 164zM315 1094q0 -96 48.5 -149.5t125.5 -53.5q82 0 138.5 79.5t56.5 196.5q0 96 -48.5 149.5t-125.5 53.5q-82 0 -138.5 -79.5 t-56.5 -196.5z" />
<glyph unicode="&#xb1;" horiz-adv-x="3125" d="M-66 0l19 66q119 8 143 14q53 14 72 88l176 651q10 30 10 47q0 31 -32 41q-17 7 -64.5 15t-73.5 10l19 65h889l-80 -286h-62v22q0 58 -25.5 120.5t-62.5 68.5q-49 8 -131 8h-168l-110 -398h102q85 0 147 43q19 13 44.5 52t44.5 82h63l-125 -447h-61q10 90 10 92 q0 54 -31 81.5t-104 27.5h-111l-72 -275q-12 -54 -12 -55q0 -18 6.5 -27.5t24.5 -17.5q9 -4 61 -12t78 -10l-18 -66h-566zM975 0l18 66q120 8 144 14q28 7 44 27.5t27 60.5l176 651q11 33 11 47q0 30 -33 41q-18 7 -64.5 15t-72.5 10l18 65h889l-80 -286h-61v22 q0 58 -25.5 120.5t-62.5 68.5q-49 8 -131 8h-168l-111 -398h102q86 0 148 43q19 13 44 52t44 82h63l-125 -447h-61q10 90 10 92q0 54 -31 81.5t-104 27.5h-110l-72 -275q-12 -54 -12 -55q0 -19 6.5 -28t23.5 -17q9 -4 61.5 -12t78.5 -10l-19 -66h-565zM2021 0l19 66 q106 6 141 16q53 17 72 88l168 625q14 56 14 67q0 32 -31 43q-14 7 -57.5 16t-67.5 11l19 65h557l-19 -65q-97 -6 -149 -21q-51 -16 -72 -88l-170 -628q-12 -46 -12 -64q0 -37 33 -49t117 -12q127 0 184 41q40 29 112 114.5t117 149.5h60l-123 -375h-912z" />
<glyph unicode="&#xb2;" horiz-adv-x="1263" d="M78 793q0 64 45 110.5t110 46.5q92 0 138 -86q8 -15 18.5 -49.5t24 -64t35.5 -52.5l30 2q59 62 142 62l22 14q0 58 -35 126.5t-35 107.5q0 66 45.5 107.5t110.5 41.5q66 0 109 -45.5t43 -109.5q0 -37 -12.5 -63.5t-34 -44t-44.5 -33t-48.5 -41t-41.5 -56.5l9 -25 q78 -41 98 -118l24 -13q37 13 68.5 39.5t50.5 48.5t50.5 39t72.5 17q62 0 106 -46t44 -112q0 -64 -44.5 -108t-109.5 -44q-40 0 -75.5 21.5t-75.5 48t-87 33.5l-18 -17q-11 -70 -80 -122l-2 -21q33 -43 109 -80q112 -53 112 -155q0 -62 -47 -109t-112 -47q-63 0 -108.5 44.5 t-45.5 109.5q0 29 18.5 88t18.5 104v23l-14 10q-14 -2 -41 -2q-62 0 -115 37l-27 -2q-31 -46 -43 -125q-12 -75 -50.5 -122.5t-109.5 -47.5q-63 0 -110 45.5t-47 111.5t49 110t121 44h16h19.5t19 1t23.5 2.5t22.5 4.5t26 8t24.5 11l6 28q-20 45 -20 88q0 27 6 51l-10 27 q-18 6 -55 6q-31 0 -72 -7t-59 -7q-67 0 -112.5 46t-45.5 110zM483 569q0 -60 40 -101.5t98 -41.5q59 0 98 41t39 102q0 59 -39 99.5t-98 40.5q-58 0 -98 -40.5t-40 -99.5z" />
<glyph unicode="&#xb3;" horiz-adv-x="1263" d="M78 793q0 64 45 110.5t110 46.5q92 0 138 -86q8 -15 18.5 -49.5t24 -64t35.5 -52.5l30 2q59 62 142 62l22 14q0 58 -35 126.5t-35 107.5q0 66 45.5 107.5t110.5 41.5q66 0 109 -45.5t43 -109.5q0 -37 -12.5 -63.5t-34 -44t-44.5 -33t-48.5 -41t-41.5 -56.5l9 -25 q78 -41 98 -118l24 -13q37 13 68.5 39.5t50.5 48.5t50.5 39t72.5 17q62 0 106 -46t44 -112q0 -64 -44.5 -108t-109.5 -44q-40 0 -75.5 21.5t-75.5 48t-87 33.5l-18 -17q-11 -70 -80 -122l-2 -21q33 -43 109 -80q112 -53 112 -155q0 -62 -47 -109t-112 -47q-63 0 -108.5 44.5 t-45.5 109.5q0 29 18.5 88t18.5 104v23l-14 10q-14 -2 -41 -2q-62 0 -115 37l-27 -2q-31 -46 -43 -125q-12 -75 -50.5 -122.5t-109.5 -47.5q-63 0 -110 45.5t-47 111.5t49 110t121 44h16h19.5t19 1t23.5 2.5t22.5 4.5t26 8t24.5 11l6 28q-20 45 -20 88q0 27 6 51l-10 27 q-18 6 -55 6q-31 0 -72 -7t-59 -7q-67 0 -112.5 46t-45.5 110zM483 569q0 -60 40 -101.5t98 -41.5q59 0 98 41t39 102q0 59 -39 99.5t-98 40.5q-58 0 -98 -40.5t-40 -99.5z" />
<glyph unicode="&#xb4;" horiz-adv-x="1024" d="M436 1112q51 55 108 118.5t93 102.5t65 70q48 52 80.5 73t71.5 21q32 0 51 -19.5t19 -45.5q0 -38 -26 -67.5t-81 -66.5q-38 -26 -144.5 -93.5t-203.5 -131.5z" />
<glyph unicode="&#xb5;" horiz-adv-x="1263" d="M-74 -375q0 29 22.5 83t57 123t45.5 97q31 77 70 201l244 805h184l-191 -631q-6 -19 -11 -61t-5 -64q0 -52 37.5 -83.5t93.5 -31.5q42 0 84 17.5t73.5 42.5t60 57t45.5 56t28 45l197 653h184l-209 -674q-27 -88 -27 -139q0 -70 74 -70q57 0 101.5 61t91.5 183l59 -21 q-61 -150 -127 -223.5t-168 -73.5q-192 0 -192 191h-7q-4 -5 -20 -25.5t-22 -27.5t-22.5 -25.5t-26.5 -26.5t-28.5 -23t-33 -22t-37 -17t-44 -14.5t-49 -8t-57.5 -3.5q-66 0 -125 35.5t-73 102.5h-4l-19 -80q-33 -145 -33 -234q0 -106 -14 -155q-13 -50 -46.5 -78.5 t-72.5 -28.5q-36 0 -62 20.5t-26 67.5z" />
<glyph unicode="&#xb6;" horiz-adv-x="1247" d="M203 1008q0 71 31 139.5t89 125.5t152 91.5t209 34.5h735l-16 -66h-281l-395 -1589h-78l395 1589h-176l-395 -1589h-78l238 956h-10q-196 0 -308 84t-112 224z" />
<glyph unicode="&#xb7;" horiz-adv-x="577" d="M174 557q0 55 40 95t95 40t95 -40t40 -95t-39.5 -94t-95.5 -39t-95.5 39t-39.5 94z" />
<glyph unicode="&#xb8;" horiz-adv-x="1024" d="M51 -475l19 65q79 2 131.5 7t93 16.5t59.5 32t19 51.5q0 40 -39.5 56t-122.5 16l84 247h61l-43 -131q219 0 219 -137q0 -223 -481 -223z" />
<glyph unicode="&#xb9;" horiz-adv-x="1263" d="M78 793q0 64 45 110.5t110 46.5q92 0 138 -86q8 -15 18.5 -49.5t24 -64t35.5 -52.5l30 2q59 62 142 62l22 14q0 58 -35 126.5t-35 107.5q0 66 45.5 107.5t110.5 41.5q66 0 109 -45.5t43 -109.5q0 -37 -12.5 -63.5t-34 -44t-44.5 -33t-48.5 -41t-41.5 -56.5l9 -25 q78 -41 98 -118l24 -13q37 13 68.5 39.5t50.5 48.5t50.5 39t72.5 17q62 0 106 -46t44 -112q0 -64 -44.5 -108t-109.5 -44q-40 0 -75.5 21.5t-75.5 48t-87 33.5l-18 -17q-11 -70 -80 -122l-2 -21q33 -43 109 -80q112 -53 112 -155q0 -62 -47 -109t-112 -47q-63 0 -108.5 44.5 t-45.5 109.5q0 29 18.5 88t18.5 104v23l-14 10q-14 -2 -41 -2q-62 0 -115 37l-27 -2q-31 -46 -43 -125q-12 -75 -50.5 -122.5t-109.5 -47.5q-63 0 -110 45.5t-47 111.5t49 110t121 44h16h19.5t19 1t23.5 2.5t22.5 4.5t26 8t24.5 11l6 28q-20 45 -20 88q0 27 6 51l-10 27 q-18 6 -55 6q-31 0 -72 -7t-59 -7q-67 0 -112.5 46t-45.5 110zM483 569q0 -60 40 -101.5t98 -41.5q59 0 98 41t39 102q0 59 -39 99.5t-98 40.5q-58 0 -98 -40.5t-40 -99.5z" />
<glyph unicode="&#xba;" horiz-adv-x="854" d="M127 383l20 72h549l-20 -72h-549zM184 881q0 187 150 303q115 86 235 86q71 0 122.5 -21t94.5 -71q56 -63 56 -150q0 -187 -150 -303q-115 -86 -235 -86q-71 0 -122.5 21t-94.5 71q-56 63 -56 150zM340 848q0 -154 117 -154q37 0 65.5 16.5t61.5 49.5q44 47 73 134 t29 167q0 153 -117 153q-65 0 -127 -65q-44 -47 -73 -134t-29 -167z" />
<glyph unicode="&#xbb;" horiz-adv-x="1187" d="M51 94l441 406l-218 389l39 24q294 -304 332 -342q21 -19 26 -27.5t5 -19.5q0 -17 -13 -54t-36 -52q-372 -240 -543 -359zM479 94l441 406l-218 389l39 24q294 -304 332 -342q21 -19 26 -27.5t5 -19.5q0 -17 -13 -54t-36 -52q-372 -240 -543 -359z" />
<glyph unicode="&#xbc;" horiz-adv-x="1808" d="M139 451l17 57q105 7 135 14q53 16 65 64l146 544q-40 -8 -76 -8q-34 0 -69.5 21.5t-82.5 60.5l31 41q84 -35 148 -35q105 0 243 60h33q-51 -104 -80 -213l-121 -447q-6 -30 -6 -35q0 -33 31 -47q27 -13 121 -20l-17 -57h-518zM270 -158l1272 1473l70 -49l-1276 -1473z M827 63l23 87l627 499h94l-135 -502q70 0 92 2.5t45 16.5q21 12 39.5 42t27.5 58h50l-88 -327h-48q5 18 5 47q0 44 -19 63q-13 10 -30 12t-71 2h-8h-8.5h-9.5l-27 -98q-8 -28 -8 -43q0 -32 27 -43q25 -11 94 -16l-16 -58h-439l17 58q91 7 102 10q22 6 39 23t21 38l34 129 h-430zM946 147h334l90 332z" />
<glyph unicode="&#xbd;" horiz-adv-x="1808" d="M139 451l17 57q105 7 135 14q53 16 65 64l146 544q-40 -8 -76 -8q-34 0 -69.5 21.5t-82.5 60.5l31 41q84 -35 148 -35q105 0 243 60h33q-51 -104 -80 -213l-121 -447q-6 -30 -6 -35q0 -33 31 -47q27 -13 121 -20l-17 -57h-518zM254 -158l1272 1473l69 -49l-1276 -1473z M913 -195l19 82q159 86 234 133.5t167 120.5q172 136 172 316q0 54 -34.5 83t-92.5 29q-69 0 -111.5 -28t-47.5 -72q1 -6 21 -30t20 -48q0 -31 -25 -60.5t-80 -29.5q-42 0 -64 29t-22 67q0 31 19.5 69t58 77t108.5 64.5t158 25.5q126 0 200.5 -57.5t74.5 -143.5 q0 -87 -45 -156.5t-158.5 -146t-319.5 -170.5l-37 -27h345q24 0 48.5 14t48 42t37 46.5t33.5 49.5l50 -18l-138 -261h-639z" />
<glyph unicode="&#xbe;" horiz-adv-x="1808" d="M131 604q0 54 35 84.5t84 30.5q80 0 80 -72q0 -22 -17 -36t-34 -26t-17 -28q0 -34 34.5 -53t98.5 -19q63 0 128.5 37t111 101.5t45.5 134.5q0 42 -25 63t-69 21q-63 0 -125 -62l-39 64q159 83 200 111q94 64 105 141q2 13 2 26q0 86 -135 86q-62 0 -98.5 -22t-40.5 -41 q0 -4 12 -26.5t12 -49.5q0 -28 -23 -54t-75 -26q-42 0 -61 25.5t-19 56.5q0 72 91 136.5t245 64.5q59 0 106 -11t75.5 -28t47 -39t26 -43t7.5 -41q0 -69 -69 -124.5t-214 -84.5l-2 -8q12 2 31 2q47 0 90.5 -13t79 -50.5t35.5 -92.5q0 -91 -65 -165t-170 -114t-224 -40 q-62 0 -119.5 19t-99 62.5t-41.5 102.5zM373 -158l1272 1473l69 -49l-1276 -1473zM889 63l22 87l627 499h94l-135 -502q70 0 92 2.5t45 16.5q22 13 41 42.5t27 57.5h49l-88 -327h-47q4 14 4 47q0 45 -18 63q-13 10 -30 12t-71 2h-8h-8.5h-9.5l-27 -98q-8 -28 -8 -43 q0 -33 26 -43q25 -11 95 -16l-17 -58h-438l16 58q93 7 103 10q22 6 38.5 22.5t20.5 38.5l35 129h-430zM1008 147h333l91 332z" />
<glyph unicode="&#xbf;" horiz-adv-x="876" d="M47 225q0 158 132 281t327 145l39 125h69l-63 -274q-148 -9 -240 -87.5t-92 -205.5q0 -71 43.5 -116.5t108.5 -45.5q27 0 56.5 6.5t39.5 16.5q-10 45 -10 61q0 63 33.5 106.5t97.5 43.5q45 0 70.5 -28.5t25.5 -78.5q0 -71 -94 -131.5t-232 -60.5q-146 0 -228.5 67.5 t-82.5 175.5zM500 1022q0 54 36.5 89.5t90.5 35.5t90.5 -35.5t36.5 -89.5t-36.5 -90.5t-90.5 -36.5t-90.5 36.5t-36.5 90.5z" />
<glyph unicode="&#xc0;" d="M-248 0l19 63q24 2 72.5 14.5t80.5 26.5q86 41 180 160q319 400 900 1157h73v-1218q0 -48 9 -73.5t38 -39.5q44 -23 131 -27l-18 -63h-598l18 63q95 6 156 27q66 25 66 107v335h-455q-147 -194 -184 -247q-8 -12 -21.5 -31.5t-21 -30.5t-16 -24.5t-12 -22.5t-3.5 -16 q0 -28 36 -51t78 -33.5t78 -12.5l-18 -63h-588zM487 614h392v510zM784 1833q0 33 20.5 55.5t53.5 22.5q39 0 65.5 -25.5t51.5 -78.5q71 -146 143 -285l-41 -33q-33 34 -227 228q-66 66 -66 116z" />
<glyph unicode="&#xc1;" d="M-248 0l19 63q24 2 72.5 14.5t80.5 26.5q86 41 180 160q319 400 900 1157h73v-1218q0 -48 9 -73.5t38 -39.5q44 -23 131 -27l-18 -63h-598l18 63q95 6 156 27q66 25 66 107v335h-455q-147 -194 -184 -247q-8 -12 -21.5 -31.5t-21 -30.5t-16 -24.5t-12 -22.5t-3.5 -16 q0 -28 36 -51t78 -33.5t78 -12.5l-18 -63h-588zM487 614h392v510zM907 1503q51 55 108 118.5t93 102.5t65 70q48 52 80.5 73t71.5 21q32 0 51 -19.5t19 -45.5q0 -38 -26 -67.5t-81 -66.5q-38 -26 -144.5 -93.5t-203.5 -131.5z" />
<glyph unicode="&#xc2;" d="M-248 0l19 63q24 2 72.5 14.5t80.5 26.5q86 41 180 160q319 400 900 1157h73v-1218q0 -48 9 -73.5t38 -39.5q44 -23 131 -27l-18 -63h-598l18 63q95 6 156 27q66 25 66 107v335h-455q-147 -194 -184 -247q-8 -12 -21.5 -31.5t-21 -30.5t-16 -24.5t-12 -22.5t-3.5 -16 q0 -28 36 -51t78 -33.5t78 -12.5l-18 -63h-588zM487 614h392v510zM704 1480q277 291 316 334q27 30 43 37.5t59 7.5q37 0 49 -7t23 -34q14 -31 35.5 -82t53.5 -127.5t58 -136.5l-47 -29l-194 273l-361 -273z" />
<glyph unicode="&#xc3;" d="M-248 0l19 63q24 2 72.5 14.5t80.5 26.5q86 41 180 160q319 400 900 1157h73v-1218q0 -48 9 -73.5t38 -39.5q44 -23 131 -27l-18 -63h-598l18 63q95 6 156 27q66 25 66 107v335h-455q-147 -194 -184 -247q-8 -12 -21.5 -31.5t-21 -30.5t-16 -24.5t-12 -22.5t-3.5 -16 q0 -28 36 -51t78 -33.5t78 -12.5l-18 -63h-588zM487 614h392v510zM673 1552q25 42 53 79.5t66 77.5t83 63.5t89 23.5q47 0 93 -18.5t75.5 -40t67 -40t71.5 -18.5q33 0 57.5 8t47 29.5t35.5 38t38 53.5q9 12 13 19l51 -31q-153 -244 -293 -244q-47 0 -93 18.5t-75.5 40 t-67 40t-71.5 18.5q-16 0 -30 -1.5t-27 -7.5t-22 -9.5t-21 -14.5l-18 -16.5t-18 -21.5t-16.5 -22.5t-18.5 -27t-19 -27.5z" />
<glyph unicode="&#xc4;" d="M-248 0l19 63q24 2 72.5 14.5t80.5 26.5q86 41 180 160q319 400 900 1157h73v-1218q0 -48 9 -73.5t38 -39.5q44 -23 131 -27l-18 -63h-598l18 63q95 6 156 27q66 25 66 107v335h-455q-147 -194 -184 -247q-8 -12 -21.5 -31.5t-21 -30.5t-16 -24.5t-12 -22.5t-3.5 -16 q0 -28 36 -51t78 -33.5t78 -12.5l-18 -63h-588zM487 614h392v510zM743 1671q0 55 38.5 95t100.5 40q41 0 69 -33t28 -72q0 -56 -36.5 -96.5t-96.5 -40.5q-48 0 -75.5 31.5t-27.5 75.5zM1179 1671q0 55 40 95t102 40q41 0 67.5 -33t26.5 -72q0 -56 -35.5 -96.5t-95.5 -40.5 q-49 0 -77 31.5t-28 75.5z" />
<glyph unicode="&#xc5;" d="M-248 0l19 63q24 2 72.5 14.5t80.5 26.5q86 41 180 160q319 400 900 1157h73v-1218q0 -48 9 -73.5t38 -39.5q44 -23 131 -27l-18 -63h-598l18 63q95 6 156 27q66 25 66 107v335h-455q-147 -194 -184 -247q-8 -12 -21.5 -31.5t-21 -30.5t-16 -24.5t-12 -22.5t-3.5 -16 q0 -28 36 -51t78 -33.5t78 -12.5l-18 -63h-588zM487 614h392v510zM838 1689q0 89 71 153.5t171 64.5q102 0 169.5 -60.5t67.5 -155.5q0 -91 -69.5 -153t-167.5 -62q-106 0 -174 56.5t-68 156.5zM953 1673q0 -62 30 -98.5t84 -36.5q60 0 98 53t38 119q0 62 -30.5 98.5 t-84.5 36.5q-58 0 -96.5 -51t-38.5 -121z" />
<glyph unicode="&#xc6;" horiz-adv-x="1988" d="M-233 0l18 66q32 2 81 13t81 25q90 43 186 156q665 773 895 1049q-50 19 -151 24l16 66h1167l-94 -340h-63v16q0 92 -39.5 161.5t-104.5 78.5q-57 8 -160 8h-215l-157 -561h153q120 0 195 65q26 21 60.5 80.5t52.5 106.5h65l-164 -590h-61q6 37 6 92q0 81 -16 107 q-13 19 -24 29.5t-45.5 22t-86.5 11.5h-154l-118 -422q-21 -72 -21 -98q0 -55 44.5 -72.5t162.5 -17.5q86 0 137 2t108 13.5t85 33.5q63 51 136.5 143t102.5 146h64l-140 -414h-1181l20 63q25 0 86.5 8.5t85.5 16.5q68 24 88 102l95 342h-478q-44 -51 -120.5 -143.5 t-88.5 -107.5q-77 -92 -77 -125q0 -37 55.5 -61t128.5 -29l-18 -66h-598zM555 614h430l184 697h-26z" />
<glyph unicode="&#xc7;" horiz-adv-x="1294" d="M102 504q0 189 70.5 361.5t185 294t262.5 193.5t300 72q104 0 169.5 -25.5t135.5 -84.5l84 104h84l-99 -506h-63q-22 225 -102 329t-244 104q-100 0 -200.5 -63.5t-178.5 -169.5t-127 -257.5t-49 -314.5q0 -217 97 -341t286 -124q74 0 136 21t117 65.5t100.5 98 t98.5 132.5l64 -39q-43 -66 -80.5 -114t-94 -102.5t-115 -88.5t-138.5 -57t-170 -23h-31l-29 -84q220 0 220 -137q0 -223 -482 -223l19 65q79 2 131.5 7t93 16.5t59.5 32t19 51.5q0 40 -39.5 56t-122.5 16l70 206q-208 26 -322.5 166.5t-114.5 362.5z" />
<glyph unicode="&#xc8;" d="M-82 0l21 63q25 0 86.5 8.5t85.5 16.5q68 24 88 102l276 1004q8 36 8 49q0 20 -9 32.5t-32 22.5q-25 11 -75 22.5t-78 12.5l20 66h1082l-95 -340h-63v16q0 92 -39 161.5t-104 78.5q-57 8 -160 8h-215l-158 -561h154q119 0 194 65q26 21 60.5 80.5t52.5 106.5h65 l-163 -590h-62q6 38 6 92q0 81 -16 107q-13 19 -24 29.5t-45.5 22t-86.5 11.5h-153l-119 -422q-21 -72 -21 -98q0 -55 44.5 -72.5t162.5 -17.5q86 0 137 2t108 13.5t85 33.5q63 51 137 143t103 146h63l-139 -414h-1182zM624 1810q0 33 20.5 55.5t53.5 22.5q39 0 65.5 -25.5 t51.5 -78.5q71 -146 143 -285l-41 -33q-33 34 -227 228q-66 66 -66 116z" />
<glyph unicode="&#xc9;" d="M-82 0l21 63q25 0 86.5 8.5t85.5 16.5q68 24 88 102l276 1004q8 36 8 49q0 20 -9 32.5t-32 22.5q-25 11 -75 22.5t-78 12.5l20 66h1082l-95 -340h-63v16q0 92 -39 161.5t-104 78.5q-57 8 -160 8h-215l-158 -561h154q119 0 194 65q26 21 60.5 80.5t52.5 106.5h65 l-163 -590h-62q6 38 6 92q0 81 -16 107q-13 19 -24 29.5t-45.5 22t-86.5 11.5h-153l-119 -422q-21 -72 -21 -98q0 -55 44.5 -72.5t162.5 -17.5q86 0 137 2t108 13.5t85 33.5q63 51 137 143t103 146h63l-139 -414h-1182zM805 1503q51 55 108 118.5t93 102.5t65 70 q48 52 80.5 73t71.5 21q32 0 51 -19.5t19 -45.5q0 -38 -26 -67.5t-81 -66.5q-38 -26 -144.5 -93.5t-203.5 -131.5z" />
<glyph unicode="&#xca;" d="M-82 0l21 63q25 0 86.5 8.5t85.5 16.5q68 24 88 102l276 1004q8 36 8 49q0 20 -9 32.5t-32 22.5q-25 11 -75 22.5t-78 12.5l20 66h1082l-95 -340h-63v16q0 92 -39 161.5t-104 78.5q-57 8 -160 8h-215l-158 -561h154q119 0 194 65q26 21 60.5 80.5t52.5 106.5h65 l-163 -590h-62q6 38 6 92q0 81 -16 107q-13 19 -24 29.5t-45.5 22t-86.5 11.5h-153l-119 -422q-21 -72 -21 -98q0 -55 44.5 -72.5t162.5 -17.5q86 0 137 2t108 13.5t85 33.5q63 51 137 143t103 146h63l-139 -414h-1182zM604 1513q277 291 316 334q27 30 43 37.5t59 7.5 q37 0 49 -7t23 -34q14 -31 35.5 -82t53.5 -127.5t58 -136.5l-47 -29l-194 273l-361 -273z" />
<glyph unicode="&#xcb;" d="M-82 0l21 63q25 0 86.5 8.5t85.5 16.5q68 24 88 102l276 1004q8 36 8 49q0 20 -9 32.5t-32 22.5q-25 11 -75 22.5t-78 12.5l20 66h1082l-95 -340h-63v16q0 92 -39 161.5t-104 78.5q-57 8 -160 8h-215l-158 -561h154q119 0 194 65q26 21 60.5 80.5t52.5 106.5h65 l-163 -590h-62q6 38 6 92q0 81 -16 107q-13 19 -24 29.5t-45.5 22t-86.5 11.5h-153l-119 -422q-21 -72 -21 -98q0 -55 44.5 -72.5t162.5 -17.5q86 0 137 2t108 13.5t85 33.5q63 51 137 143t103 146h63l-139 -414h-1182zM612 1680q0 55 38.5 95t100.5 40q41 0 69 -33t28 -72 q0 -56 -36.5 -96.5t-96.5 -40.5q-48 0 -75.5 31.5t-27.5 75.5zM1048 1680q0 55 40 95t102 40q41 0 67.5 -33t26.5 -72q0 -56 -35.5 -96.5t-95.5 -40.5q-49 0 -77 31.5t-28 75.5z" />
<glyph unicode="&#xcc;" horiz-adv-x="802" d="M-57 0l16 63q108 6 154 21q66 23 88 100l280 1012q8 36 8 47q0 36 -40 55q-23 10 -69.5 22t-68.5 13l19 66h626l-18 -66q-83 -4 -160 -24q-67 -20 -90 -103l-282 -1013q-7 -31 -7 -41q0 -39 43 -58q16 -8 65 -19t77 -12l-17 -63h-624zM401 1810q0 33 20.5 55.5t53.5 22.5 q39 0 65.5 -25.5t51.5 -78.5q71 -146 143 -285l-41 -33q-33 34 -227 228q-66 66 -66 116z" />
<glyph unicode="&#xcd;" horiz-adv-x="802" d="M-57 0l16 63q108 6 154 21q66 23 88 100l280 1012q8 36 8 47q0 36 -40 55q-23 10 -69.5 22t-68.5 13l19 66h626l-18 -66q-83 -4 -160 -24q-67 -20 -90 -103l-282 -1013q-7 -31 -7 -41q0 -39 43 -58q16 -8 65 -19t77 -12l-17 -63h-624zM555 1503q51 55 108 118.5t93 102.5 t65 70q48 52 80.5 73t71.5 21q32 0 51 -19.5t19 -45.5q0 -38 -26 -67.5t-81 -66.5q-38 -26 -144.5 -93.5t-203.5 -131.5z" />
<glyph unicode="&#xce;" horiz-adv-x="802" d="M-57 0l16 63q108 6 154 21q66 23 88 100l280 1012q8 36 8 47q0 36 -40 55q-23 10 -69.5 22t-68.5 13l19 66h626l-18 -66q-83 -4 -160 -24q-67 -20 -90 -103l-282 -1013q-7 -31 -7 -41q0 -39 43 -58q16 -8 65 -19t77 -12l-17 -63h-624zM338 1513q277 291 316 334 q27 30 43 37.5t59 7.5q37 0 49 -7t23 -34q14 -31 35.5 -82t53.5 -127.5t58 -136.5l-47 -29l-194 273l-361 -273z" />
<glyph unicode="&#xcf;" horiz-adv-x="802" d="M-57 0l16 63q108 6 154 21q66 23 88 100l280 1012q8 36 8 47q0 36 -40 55q-23 10 -69.5 22t-68.5 13l19 66h626l-18 -66q-83 -4 -160 -24q-67 -20 -90 -103l-282 -1013q-7 -31 -7 -41q0 -39 43 -58q16 -8 65 -19t77 -12l-17 -63h-624zM360 1680q0 55 38.5 95t100.5 40 q41 0 69 -33t28 -72q0 -56 -36.5 -96.5t-96.5 -40.5q-48 0 -75.5 31.5t-27.5 75.5zM796 1680q0 55 40 95t102 40q41 0 67.5 -33t26.5 -72q0 -56 -35.5 -96.5t-95.5 -40.5q-49 0 -77 31.5t-28 75.5z" />
<glyph unicode="&#xd0;" horiz-adv-x="1531" d="M-63 0l16 63q106 6 153 21q67 23 89 100l139 502h-207l20 84h209l119 426q8 36 8 47q0 20 -9.5 32t-31.5 23q-23 10 -69 22t-68 13l19 66h606q88 0 168.5 -17.5t156.5 -58t131.5 -101.5t89 -155t33.5 -211q0 -196 -79 -359.5t-212.5 -271t-307.5 -166.5t-367 -59h-606z M412 238q-21 -75 19 -116.5t142 -41.5q151 0 284.5 58.5t228 159t149.5 241t55 299.5q0 483 -440 483q-47 0 -137 -4l-152 -547h293l-20 -84h-297z" />
<glyph unicode="&#xd1;" horiz-adv-x="1538" d="M-109 0l19 63q36 2 106 20t99 36q83 53 143 280l180 682q8 32 8 70q0 75 -38 113q-64 64 -207 69l20 66h422l473 -1102l182 700q33 130 33 191q0 64 -28 86q-25 19 -90.5 39t-102.5 22l18 64h629l-18 -64q-34 -2 -104 -18t-99 -33q-48 -27 -79 -93.5t-62 -180.5 l-273 -1024h-88l-491 1147l-189 -723q-11 -39 -21.5 -101.5t-10.5 -87.5q0 -66 26 -92q21 -22 90.5 -43t104.5 -23l-19 -63h-633zM643 1569q25 42 53 79.5t66 77.5t83 63.5t89 23.5q47 0 93 -18.5t75.5 -40t67 -40t71.5 -18.5q33 0 57.5 8t47 29.5t35.5 38t38 53.5 q9 12 13 19l51 -31q-153 -244 -293 -244q-47 0 -93 18.5t-75.5 40t-67 40t-71.5 18.5q-16 0 -30 -1.5t-27 -7.5t-22 -9.5t-21 -14.5l-18 -16.5t-18 -21.5t-16.5 -22.5t-18.5 -27t-19 -27.5z" />
<glyph unicode="&#xd2;" horiz-adv-x="1482" d="M111 526q0 192 75.5 374t219.5 317q112 104 245 158.5t273 54.5q231 0 374 -146q73 -74 117.5 -177.5t44.5 -225.5q0 -205 -76.5 -395.5t-228.5 -321.5q-229 -197 -514 -197q-214 0 -356 139q-80 78 -127 185.5t-47 234.5zM330 471q0 -199 82.5 -310.5t253.5 -111.5 q225 0 374 207q93 130 147 307.5t54 360.5q0 424 -334 424q-121 0 -224.5 -65t-174.5 -179q-83 -133 -130.5 -295.5t-47.5 -337.5zM694 1810q0 33 20.5 55.5t53.5 22.5q39 0 65.5 -25.5t51.5 -78.5q71 -146 143 -285l-41 -33q-33 34 -227 228q-66 66 -66 116z" />
<glyph unicode="&#xd3;" horiz-adv-x="1482" d="M111 526q0 192 75.5 374t219.5 317q112 104 245 158.5t273 54.5q231 0 374 -146q73 -74 117.5 -177.5t44.5 -225.5q0 -205 -76.5 -395.5t-228.5 -321.5q-229 -197 -514 -197q-214 0 -356 139q-80 78 -127 185.5t-47 234.5zM330 471q0 -199 82.5 -310.5t253.5 -111.5 q225 0 374 207q93 130 147 307.5t54 360.5q0 424 -334 424q-121 0 -224.5 -65t-174.5 -179q-83 -133 -130.5 -295.5t-47.5 -337.5zM811 1503q51 55 108 118.5t93 102.5t65 70q48 52 80.5 73t71.5 21q32 0 51 -19.5t19 -45.5q0 -38 -26 -67.5t-81 -66.5q-38 -26 -144.5 -93.5 t-203.5 -131.5z" />
<glyph unicode="&#xd4;" horiz-adv-x="1482" d="M111 526q0 192 75.5 374t219.5 317q112 104 245 158.5t273 54.5q231 0 374 -146q73 -74 117.5 -177.5t44.5 -225.5q0 -205 -76.5 -395.5t-228.5 -321.5q-229 -197 -514 -197q-214 0 -356 139q-80 78 -127 185.5t-47 234.5zM330 471q0 -199 82.5 -310.5t253.5 -111.5 q225 0 374 207q93 130 147 307.5t54 360.5q0 424 -334 424q-121 0 -224.5 -65t-174.5 -179q-83 -133 -130.5 -295.5t-47.5 -337.5zM616 1513q277 291 316 334q27 30 43 37.5t59 7.5q37 0 49 -7t23 -34q14 -31 35.5 -82t53.5 -127.5t58 -136.5l-47 -29l-194 273l-361 -273z " />
<glyph unicode="&#xd5;" horiz-adv-x="1482" d="M111 526q0 192 75.5 374t219.5 317q112 104 245 158.5t273 54.5q231 0 374 -146q73 -74 117.5 -177.5t44.5 -225.5q0 -205 -76.5 -395.5t-228.5 -321.5q-229 -197 -514 -197q-214 0 -356 139q-80 78 -127 185.5t-47 234.5zM330 471q0 -199 82.5 -310.5t253.5 -111.5 q225 0 374 207q93 130 147 307.5t54 360.5q0 424 -334 424q-121 0 -224.5 -65t-174.5 -179q-83 -133 -130.5 -295.5t-47.5 -337.5zM591 1579q25 42 53 79.5t66 77.5t83 63.5t89 23.5q47 0 93 -18.5t75.5 -40t67 -40t71.5 -18.5q33 0 57.5 8t47 29.5t35.5 38t38 53.5 q9 12 13 19l51 -31q-153 -244 -293 -244q-47 0 -93 18.5t-75.5 40t-67 40t-71.5 18.5q-16 0 -30 -1.5t-27 -7.5t-22 -9.5t-21 -14.5l-18 -16.5t-18 -21.5t-16.5 -22.5t-18.5 -27t-19 -27.5z" />
<glyph unicode="&#xd6;" horiz-adv-x="1482" d="M111 526q0 192 75.5 374t219.5 317q112 104 245 158.5t273 54.5q231 0 374 -146q73 -74 117.5 -177.5t44.5 -225.5q0 -205 -76.5 -395.5t-228.5 -321.5q-229 -197 -514 -197q-214 0 -356 139q-80 78 -127 185.5t-47 234.5zM330 471q0 -199 82.5 -310.5t253.5 -111.5 q225 0 374 207q93 130 147 307.5t54 360.5q0 424 -334 424q-121 0 -224.5 -65t-174.5 -179q-83 -133 -130.5 -295.5t-47.5 -337.5zM659 1680q0 55 38.5 95t100.5 40q41 0 69 -33t28 -72q0 -56 -36.5 -96.5t-96.5 -40.5q-48 0 -75.5 31.5t-27.5 75.5zM1095 1680q0 55 40 95 t102 40q41 0 67.5 -33t26.5 -72q0 -56 -35.5 -96.5t-95.5 -40.5q-49 0 -77 31.5t-28 75.5z" />
<glyph unicode="&#xd7;" horiz-adv-x="1187" d="M158 133l405 402l-405 403l78 78l403 -406l401 406l76 -76l-405 -401l405 -404l-78 -78l-403 406l-402 -406z" />
<glyph unicode="&#xd8;" horiz-adv-x="1482" d="M-80 -31l273 254q-82 135 -82 303q0 192 75.5 374t219.5 317q112 104 245 158.5t273 54.5q231 0 374 -146q2 -2 5.5 -5t5.5 -5l229 215l59 -57l-237 -222q100 -151 100 -329q0 -205 -76.5 -395.5t-228.5 -321.5q-229 -197 -514 -197q-214 0 -356 139q-7 7 -47 52 l-261 -244zM328 471q0 -64 8 -113l864 813q-76 177 -293 177q-122 0 -226 -65.5t-175 -178.5q-83 -133 -130.5 -295.5t-47.5 -337.5zM356 268q73 -219 310 -219q227 0 376 207q93 130 147 307.5t54 360.5q0 96 -16 161z" />
<glyph unicode="&#xd9;" horiz-adv-x="1640" d="M238 291q0 93 28 194l197 711q8 36 8 47q0 20 -9.5 32t-31.5 23q-23 10 -69 22t-68 13l18 66h627l-18 -66q-83 -4 -160 -24q-67 -20 -90 -103l-189 -680q-39 -133 -39 -239q0 -114 68.5 -173t220.5 -59q364 0 490 426l147 518q33 125 33 189q0 63 -29 86q-25 19 -90 39 t-102 22l18 64h629l-19 -64q-34 -2 -103.5 -18t-98.5 -33q-48 -26 -78 -91t-64 -181l-149 -525q-73 -257 -231.5 -388.5t-413.5 -131.5q-432 0 -432 324zM792 1810q0 33 20.5 55.5t53.5 22.5q39 0 65.5 -25.5t51.5 -78.5q71 -146 143 -285l-41 -33q-33 34 -227 228 q-66 66 -66 116z" />
<glyph unicode="&#xda;" horiz-adv-x="1640" d="M238 291q0 93 28 194l197 711q8 36 8 47q0 20 -9.5 32t-31.5 23q-23 10 -69 22t-68 13l18 66h627l-18 -66q-83 -4 -160 -24q-67 -20 -90 -103l-189 -680q-39 -133 -39 -239q0 -114 68.5 -173t220.5 -59q364 0 490 426l147 518q33 125 33 189q0 63 -29 86q-25 19 -90 39 t-102 22l18 64h629l-19 -64q-34 -2 -103.5 -18t-98.5 -33q-48 -26 -78 -91t-64 -181l-149 -525q-73 -257 -231.5 -388.5t-413.5 -131.5q-432 0 -432 324zM991 1503q51 55 108 118.5t93 102.5t65 70q48 52 80.5 73t71.5 21q32 0 51 -19.5t19 -45.5q0 -38 -26 -67.5t-81 -66.5 q-38 -26 -144.5 -93.5t-203.5 -131.5z" />
<glyph unicode="&#xdb;" horiz-adv-x="1640" d="M238 291q0 93 28 194l197 711q8 36 8 47q0 20 -9.5 32t-31.5 23q-23 10 -69 22t-68 13l18 66h627l-18 -66q-83 -4 -160 -24q-67 -20 -90 -103l-189 -680q-39 -133 -39 -239q0 -114 68.5 -173t220.5 -59q364 0 490 426l147 518q33 125 33 189q0 63 -29 86q-25 19 -90 39 t-102 22l18 64h629l-19 -64q-34 -2 -103.5 -18t-98.5 -33q-48 -26 -78 -91t-64 -181l-149 -525q-73 -257 -231.5 -388.5t-413.5 -131.5q-432 0 -432 324zM774 1513q277 291 316 334q27 30 43 37.5t59 7.5q37 0 49 -7t23 -34q14 -31 35.5 -82t53.5 -127.5t58 -136.5l-47 -29 l-194 273l-361 -273z" />
<glyph unicode="&#xdc;" horiz-adv-x="1640" d="M238 291q0 93 28 194l197 711q8 36 8 47q0 20 -9.5 32t-31.5 23q-23 10 -69 22t-68 13l18 66h627l-18 -66q-83 -4 -160 -24q-67 -20 -90 -103l-189 -680q-39 -133 -39 -239q0 -114 68.5 -173t220.5 -59q364 0 490 426l147 518q33 125 33 189q0 63 -29 86q-25 19 -90 39 t-102 22l18 64h629l-19 -64q-34 -2 -103.5 -18t-98.5 -33q-48 -26 -78 -91t-64 -181l-149 -525q-73 -257 -231.5 -388.5t-413.5 -131.5q-432 0 -432 324zM786 1680q0 55 38.5 95t100.5 40q41 0 69 -33t28 -72q0 -56 -36.5 -96.5t-96.5 -40.5q-48 0 -75.5 31.5t-27.5 75.5z M1222 1680q0 55 40 95t102 40q41 0 67.5 -33t26.5 -72q0 -56 -35.5 -96.5t-95.5 -40.5q-49 0 -77 31.5t-28 75.5z" />
<glyph unicode="&#xdd;" horiz-adv-x="1275" d="M131 1331l21 68h628l-20 -68q-7 0 -22 -1q-27 -1 -42.5 -2t-42.5 -3.5t-43 -5.5t-33.5 -8.5t-25.5 -13t-8 -17.5q0 -12 4 -33t13.5 -56.5t19 -68t28 -91t31.5 -100.5t38.5 -121t41.5 -130q177 205 321 389q42 54 61 78.5t41 54.5t30 43.5t8 20.5q0 19 -16 31.5 t-45.5 18.5t-59.5 9t-68 6h-4l21 68h544l-20 -68q-19 -2 -63 -15.5t-64 -23.5q-49 -25 -72 -41t-73 -63q-99 -95 -188.5 -202t-242.5 -302q-108 -140 -129 -229l-63 -252q-4 -20 -4 -39q3 -45 43 -64q17 -7 79 -18.5t91 -13.5l-19 -68h-663l18 68q115 6 164 22q68 23 88 103 l84 335q4 12 4 39q0 38 -18 115q-44 165 -150 477q-34 94 -98 139q-48 29 -125 33zM829 1503q51 55 108 118.5t93 102.5t65 70q48 52 80.5 73t71.5 21q32 0 51 -19.5t19 -45.5q0 -38 -26 -67.5t-81 -66.5q-38 -26 -144.5 -93.5t-203.5 -131.5z" />
<glyph unicode="&#xde;" horiz-adv-x="1232" d="M-63 0l16 63q107 6 153 21q67 23 89 100l280 1012q8 36 8 47q0 20 -9.5 32t-31.5 23q-23 10 -69 22t-68 13l19 66h618l-16 -64q-112 -6 -154 -20q-66 -22 -88 -101l-31 -112h156q191 0 296 -81.5t105 -225.5q0 -141 -86 -246.5t-238.5 -161t-350.5 -55.5h-97l-39 -142 q-6 -21 -6 -38q0 -39 43 -58q16 -8 65 -19t77 -12l-17 -63h-624zM463 414h98q208 0 320 95t112 267q0 122 -64 185t-206 63h-92z" />
<glyph unicode="&#xdf;" horiz-adv-x="1961" d="M-25 -14l105 374h57q4 -60 21 -113t48.5 -99t85.5 -72.5t124 -26.5q105 0 165 52t60 132q0 49 -34.5 90.5t-92.5 67.5q-24 11 -87.5 36.5t-109.5 49.5q-62 30 -102.5 93t-40.5 135q0 142 112 229.5t275 87.5q65 0 142.5 -24t105.5 -56l68 70h67l-98 -357h-60 q-2 58 -18 107.5t-47.5 92.5t-86 68t-126.5 25q-22 0 -49 -8t-55.5 -24t-48 -47.5t-19.5 -71.5q0 -109 106 -164q44 -22 104.5 -45.5t84.5 -34.5q82 -35 133 -100t51 -142q0 -147 -119.5 -242.5t-302.5 -95.5q-89 0 -168 25.5t-116 58.5l-66 -71h-68zM954 -14l105 374h57 q4 -60 21 -113t48.5 -99t85.5 -72.5t124 -26.5q105 0 165 52t60 132q0 49 -34.5 90.5t-92.5 67.5q-24 11 -87.5 36.5t-109.5 49.5q-62 30 -102.5 93t-40.5 135q0 142 112 229.5t275 87.5q65 0 142.5 -24t105.5 -56l67 70h68l-98 -357h-60q-2 58 -18 107.5t-47.5 92.5t-86 68 t-126.5 25q-22 0 -49 -8t-55.5 -24t-48 -47.5t-19.5 -71.5q0 -109 106 -164q44 -22 104.5 -45.5t84.5 -34.5q82 -35 133 -100t51 -142q0 -147 -119.5 -242.5t-302.5 -95.5q-89 0 -169 25.5t-116 58.5l-65 -71h-68z" />
<glyph unicode="&#xe0;" horiz-adv-x="1064" d="M-184 0l18 66q30 2 73 10t62 18q59 30 111 105q89 131 545 815h90l116 -860q3 -24 11.5 -37t29.5 -25q22 -11 129 -26l-18 -66h-541l19 66q64 4 126 17t62 32l-31 221h-348q-21 -32 -41 -68t-34 -57q-39 -66 -39 -84q0 -44 159 -61l-18 -66h-481zM317 414h291l-47 366z M436 1460q0 33 20.5 55.5t53.5 22.5q39 0 65.5 -25.5t51.5 -78.5q71 -146 143 -285l-41 -33q-33 34 -227 228q-66 66 -66 116z" />
<glyph unicode="&#xe1;" horiz-adv-x="1064" d="M-184 0l18 66q30 2 73 10t62 18q59 30 111 105q89 131 545 815h90l116 -860q3 -24 11.5 -37t29.5 -25q22 -11 129 -26l-18 -66h-541l19 66q64 4 126 17t62 32l-31 221h-348q-21 -32 -41 -68t-34 -57q-39 -66 -39 -84q0 -44 159 -61l-18 -66h-481zM317 414h291l-47 366z M534 1153q51 55 108 118.5t93 102.5t65 70q48 52 80.5 73t71.5 21q32 0 51 -19.5t19 -45.5q0 -38 -26 -67.5t-81 -66.5q-38 -26 -144.5 -93.5t-203.5 -131.5z" />
<glyph unicode="&#xe2;" horiz-adv-x="1064" d="M-184 0l18 66q30 2 73 10t62 18q59 30 111 105q89 131 545 815h90l116 -860q3 -24 11.5 -37t29.5 -25q22 -11 129 -26l-18 -66h-541l19 66q64 4 126 17t62 32l-31 221h-348q-21 -32 -41 -68t-34 -57q-39 -66 -39 -84q0 -44 159 -61l-18 -66h-481zM317 414h291l-47 366z M338 1163q277 291 316 334q27 30 43 37.5t59 7.5q37 0 49 -7t23 -34q14 -31 35.5 -82t53.5 -127.5t58 -136.5l-47 -29l-194 273l-361 -273z" />
<glyph unicode="&#xe3;" horiz-adv-x="1064" d="M-184 0l18 66q30 2 73 10t62 18q59 30 111 105q89 131 545 815h90l116 -860q3 -24 11.5 -37t29.5 -25q22 -11 129 -26l-18 -66h-541l19 66q64 4 126 17t62 32l-31 221h-348q-21 -32 -41 -68t-34 -57q-39 -66 -39 -84q0 -44 159 -61l-18 -66h-481zM274 1200q25 42 53 79.5 t66 77.5t83 63.5t89 23.5q47 0 93 -18.5t75.5 -40t67 -40t71.5 -18.5q33 0 57.5 8t47 29.5t35.5 38t38 53.5q9 12 13 19l51 -31q-153 -244 -293 -244q-47 0 -93 18.5t-75.5 40t-67 40t-71.5 18.5q-16 0 -30 -1.5t-27 -7.5t-22 -9.5t-21 -14.5l-18 -16.5t-18 -21.5 t-16.5 -22.5t-18.5 -27t-19 -27.5zM317 414h291l-47 366z" />
<glyph unicode="&#xe4;" horiz-adv-x="1064" d="M-184 0l18 66q30 2 73 10t62 18q59 30 111 105q89 131 545 815h90l116 -860q3 -24 11.5 -37t29.5 -25q22 -11 129 -26l-18 -66h-541l19 66q64 4 126 17t62 32l-31 221h-348q-21 -32 -41 -68t-34 -57q-39 -66 -39 -84q0 -44 159 -61l-18 -66h-481zM317 414h291l-47 366z M373 1350q0 55 38.5 95t100.5 40q41 0 69 -33t28 -72q0 -56 -36.5 -96.5t-96.5 -40.5q-48 0 -75.5 31.5t-27.5 75.5zM809 1350q0 55 40 95t102 40q41 0 67.5 -33t26.5 -72q0 -56 -35.5 -96.5t-95.5 -40.5q-49 0 -77 31.5t-28 75.5z" />
<glyph unicode="&#xe5;" horiz-adv-x="1064" d="M-184 0l18 66q30 2 73 10t62 18q59 30 111 105q89 131 545 815h90l116 -860q3 -24 11.5 -37t29.5 -25q22 -11 129 -26l-18 -66h-541l19 66q64 4 126 17t62 32l-31 221h-348q-21 -32 -41 -68t-34 -57q-39 -66 -39 -84q0 -44 159 -61l-18 -66h-481zM317 414h291l-47 366z M453 1339q0 89 71 153.5t171 64.5q102 0 169.5 -60.5t67.5 -155.5q0 -91 -69.5 -153t-167.5 -62q-106 0 -174 56.5t-68 156.5zM568 1323q0 -62 30 -98.5t84 -36.5q60 0 98 53t38 119q0 62 -30.5 98.5t-84.5 36.5q-58 0 -96.5 -51t-38.5 -121z" />
<glyph unicode="&#xe6;" horiz-adv-x="1540" d="M-229 0l18 66q61 6 111 28q58 25 131 105q73 81 155.5 174.5t141 161.5t158 183.5t157.5 182.5q-18 15 -80 23t-108 8l18 65h1036l-75 -272h-62v14q0 52 -27.5 114t-66.5 69q-58 8 -131 8h-158l-106 -389h102q86 0 137 41q20 16 47 61t41 80h64l-123 -444h-61q6 24 6 55 q0 70 -15 92q-27 45 -112 45h-105l-71 -272q-15 -58 -15 -74q0 -31 30.5 -42t104.5 -11q96 0 154 6.5t88 30.5q39 29 104.5 105t90.5 114h61l-121 -328h-923l18 66q105 7 143 18q53 14 66 66l76 282h-334q-35 -40 -182 -225q-45 -60 -52 -74q0 -30 44 -46.5t96 -20.5 l-19 -66h-452zM397 502h293l113 424h-37z" />
<glyph unicode="&#xe7;" horiz-adv-x="1058" d="M66 393q0 173 82.5 318t225 228t312.5 83q149 0 236 -80l57 70h80l-111 -398h-61v35q0 65 -10 114.5t-34.5 93t-72 66.5t-117.5 23t-138 -40t-121 -109t-85.5 -171t-32.5 -218q0 -146 72.5 -236t194.5 -90q125 0 203.5 58.5t144.5 181.5l61 -39q-45 -85 -103 -148.5 t-145.5 -108.5t-191.5 -51l-37 -90q219 0 219 -139q0 -221 -481 -221l18 65q161 3 232.5 24.5t71.5 80.5q0 40 -41.5 57t-124.5 17l77 208q-177 10 -278.5 125.5t-101.5 290.5z" />
<glyph unicode="&#xe8;" horiz-adv-x="1114" d="M-68 0l19 66q114 7 145 16q54 14 74 88l172 641q10 35 10 51q0 30 -30 45q-17 8 -63 15.5t-75 9.5l19 65h880l-75 -272h-60v18q0 56 -27 114t-67 65q-47 8 -125 8h-166l-104 -377h98q89 0 135 41q51 46 84 129h66l-121 -432h-62q7 56 7 74q0 28 -2.5 43t-12.5 35.5 t-36.5 30t-69.5 9.5h-107l-76 -286q-12 -50 -12 -68q0 -35 32.5 -46t117.5 -11q64 0 99 1.5t75 9t61 23.5q37 28 96 100t91 118h61l-121 -324h-930zM475 1460q0 33 20.5 55.5t53.5 22.5q39 0 65.5 -25.5t51.5 -78.5q71 -146 143 -285l-41 -33q-33 34 -227 228 q-66 66 -66 116z" />
<glyph unicode="&#xe9;" horiz-adv-x="1114" d="M-68 0l19 66q114 7 145 16q54 14 74 88l172 641q10 35 10 51q0 30 -30 45q-17 8 -63 15.5t-75 9.5l19 65h880l-75 -272h-60v18q0 56 -27 114t-67 65q-47 8 -125 8h-166l-104 -377h98q89 0 135 41q51 46 84 129h66l-121 -432h-62q7 56 7 74q0 28 -2.5 43t-12.5 35.5 t-36.5 30t-69.5 9.5h-107l-76 -286q-12 -50 -12 -68q0 -35 32.5 -46t117.5 -11q64 0 99 1.5t75 9t61 23.5q37 28 96 100t91 118h61l-121 -324h-930zM524 1153q51 55 108 118.5t93 102.5t65 70q48 52 80.5 73t71.5 21q32 0 51 -19.5t19 -45.5q0 -38 -26 -67.5t-81 -66.5 q-38 -26 -144.5 -93.5t-203.5 -131.5z" />
<glyph unicode="&#xea;" horiz-adv-x="1114" d="M-68 0l19 66q114 7 145 16q54 14 74 88l172 641q10 35 10 51q0 30 -30 45q-17 8 -63 15.5t-75 9.5l19 65h880l-75 -272h-60v18q0 56 -27 114t-67 65q-47 8 -125 8h-166l-104 -377h98q89 0 135 41q51 46 84 129h66l-121 -432h-62q7 56 7 74q0 28 -2.5 43t-12.5 35.5 t-36.5 30t-69.5 9.5h-107l-76 -286q-12 -50 -12 -68q0 -35 32.5 -46t117.5 -11q64 0 99 1.5t75 9t61 23.5q37 28 96 100t91 118h61l-121 -324h-930zM362 1132q277 291 316 334q27 30 43 37.5t59 7.5q37 0 49 -7t23 -34q14 -31 35.5 -82t53.5 -127.5t58 -136.5l-47 -29 l-194 273l-361 -273z" />
<glyph unicode="&#xeb;" horiz-adv-x="1114" d="M-68 0l19 66q114 7 145 16q54 14 74 88l172 641q10 35 10 51q0 30 -30 45q-17 8 -63 15.5t-75 9.5l19 65h880l-75 -272h-60v18q0 56 -27 114t-67 65q-47 8 -125 8h-166l-104 -377h98q89 0 135 41q51 46 84 129h66l-121 -432h-62q7 56 7 74q0 28 -2.5 43t-12.5 35.5 t-36.5 30t-69.5 9.5h-107l-76 -286q-12 -50 -12 -68q0 -35 32.5 -46t117.5 -11q64 0 99 1.5t75 9t61 23.5q37 28 96 100t91 118h61l-121 -324h-930zM362 1350q0 55 38.5 95t100.5 40q41 0 69 -33t28 -72q0 -56 -36.5 -96.5t-96.5 -40.5q-48 0 -75.5 31.5t-27.5 75.5z M798 1350q0 55 40 95t102 40q41 0 67.5 -33t26.5 -72q0 -56 -35.5 -96.5t-95.5 -40.5q-49 0 -77 31.5t-28 75.5z" />
<glyph unicode="&#xec;" horiz-adv-x="737" d="M-59 0l18 66q113 7 139 14q52 14 72 86l176 649q10 30 10 49q0 33 -32 43q-17 6 -63 14.5t-68 10.5l18 65h557l-18 -65q-90 -5 -144 -19q-52 -11 -71 -86l-168 -624q-15 -68 -15 -72q0 -30 31 -43q9 -4 55.5 -12t71.5 -10l-18 -66h-551zM291 1460q0 33 20.5 55.5 t53.5 22.5q39 0 65.5 -25.5t51.5 -78.5q71 -146 143 -285l-41 -33q-33 34 -227 228q-66 66 -66 116z" />
<glyph unicode="&#xed;" horiz-adv-x="737" d="M-59 0l18 66q113 7 139 14q52 14 72 86l176 649q10 30 10 49q0 33 -32 43q-17 6 -63 14.5t-68 10.5l18 65h557l-18 -65q-90 -5 -144 -19q-52 -11 -71 -86l-168 -624q-15 -68 -15 -72q0 -30 31 -43q9 -4 55.5 -12t71.5 -10l-18 -66h-551zM346 1153q51 55 108 118.5 t93 102.5t65 70q48 52 80.5 73t71.5 21q32 0 51 -19.5t19 -45.5q0 -38 -26 -67.5t-81 -66.5q-38 -26 -144.5 -93.5t-203.5 -131.5z" />
<glyph unicode="&#xee;" horiz-adv-x="737" d="M-59 0l18 66q113 7 139 14q52 14 72 86l176 649q10 30 10 49q0 33 -32 43q-17 6 -63 14.5t-68 10.5l18 65h557l-18 -65q-90 -5 -144 -19q-52 -11 -71 -86l-168 -624q-15 -68 -15 -72q0 -30 31 -43q9 -4 55.5 -12t71.5 -10l-18 -66h-551zM223 1163q79 90 168 201.5 t107 132.5q25 30 42 37.5t60 7.5q37 0 49 -7t23 -34q14 -35 44.5 -150.5t59.5 -201.5l-47 -23l-156 277l-317 -277z" />
<glyph unicode="&#xef;" horiz-adv-x="737" d="M-59 0l18 66q113 7 139 14q52 14 72 86l176 649q10 30 10 49q0 33 -32 43q-17 6 -63 14.5t-68 10.5l18 65h557l-18 -65q-90 -5 -144 -19q-52 -11 -71 -86l-168 -624q-15 -68 -15 -72q0 -30 31 -43q9 -4 55.5 -12t71.5 -10l-18 -66h-551zM238 1350q0 55 38.5 95t100.5 40 q41 0 68.5 -33t27.5 -72q0 -56 -36.5 -96.5t-96.5 -40.5q-48 0 -75 31.5t-27 75.5zM618 1350q0 55 40 95t102 40q41 0 67.5 -33t26.5 -72q0 -56 -35.5 -96.5t-95.5 -40.5q-49 0 -77 31.5t-28 75.5z" />
<glyph unicode="&#xf0;" horiz-adv-x="1239" d="M-66 0l19 66q96 6 143 18q52 14 72 88l84 311h-178l20 76h178l72 260q10 30 10 45q0 35 -32 45q-48 17 -129 23l18 65h477q60 0 119.5 -11.5t121.5 -40t108.5 -71t76 -111t29.5 -153.5q0 -123 -41 -225.5t-110 -172.5t-161 -119t-192 -71t-205 -22h-500zM354 154 q0 -32 32.5 -56t94.5 -24q108 0 195.5 42.5t143 116t85 169.5t29.5 206q0 141 -80.5 229.5t-220.5 88.5q-15 0 -35 -1t-37 -1l-98 -365h264l-20 -76h-267l-82 -303q-4 -12 -4 -26z" />
<glyph unicode="&#xf1;" horiz-adv-x="1292" d="M-84 0l18 66q29 1 89.5 15.5t74.5 22.5q31 17 57 73t54 151q32 107 53 188q43 166 57 225q13 59 13 70q0 43 -23 66q-22 20 -78 36t-104 19l18 65h390l354 -753l110 430q31 121 31 155q0 45 -20 58q-43 26 -172 45l18 65h533l-19 -65q-28 -2 -89 -14.5t-85 -22.5 q-32 -16 -55.5 -69.5t-50.5 -147.5l-189 -692h-90l-387 825l-125 -481q-31 -127 -31 -162q0 -40 17 -57q12 -12 78 -27.5t96 -17.5l-19 -66h-524zM389 1200q25 42 53 79.5t66 77.5t83 63.5t89 23.5q47 0 93 -18.5t75.5 -40t67 -40t71.5 -18.5q33 0 57.5 8t47 29.5t35.5 38 t38 53.5q9 12 13 19l51 -31q-153 -244 -293 -244q-47 0 -93 18.5t-75.5 40t-67 40t-71.5 18.5q-16 0 -30 -1.5t-27 -7.5t-22 -9.5t-21 -14.5l-18 -16.5t-18 -21.5t-16.5 -22.5t-18.5 -27t-19 -27.5z" />
<glyph unicode="&#xf2;" horiz-adv-x="1200" d="M66 391q0 140 59.5 271.5t181.5 226.5q173 135 375 135q186 0 304 -118t118 -298q0 -145 -65.5 -280.5t-186.5 -225.5q-91 -68 -177 -98.5t-192 -30.5q-178 0 -297.5 119.5t-119.5 298.5zM276 336q0 -127 56 -207t166 -80q80 0 138.5 33t115.5 106q69 86 105 214.5 t36 261.5q0 61 -11.5 110t-36.5 89t-69.5 62.5t-105.5 22.5q-63 0 -112.5 -23.5t-102.5 -74.5q-86 -83 -132.5 -221.5t-46.5 -292.5zM452 1460q0 33 20.5 55.5t53.5 22.5q39 0 65.5 -25.5t51.5 -78.5q71 -146 143 -285l-41 -33q-33 34 -227 228q-66 66 -66 116z" />
<glyph unicode="&#xf3;" horiz-adv-x="1200" d="M66 391q0 140 59.5 271.5t181.5 226.5q173 135 375 135q186 0 304 -118t118 -298q0 -145 -65.5 -280.5t-186.5 -225.5q-91 -68 -177 -98.5t-192 -30.5q-178 0 -297.5 119.5t-119.5 298.5zM276 336q0 -127 56 -207t166 -80q80 0 138.5 33t115.5 106q69 86 105 214.5 t36 261.5q0 61 -11.5 110t-36.5 89t-69.5 62.5t-105.5 22.5q-63 0 -112.5 -23.5t-102.5 -74.5q-86 -83 -132.5 -221.5t-46.5 -292.5zM497 1153q51 55 108 118.5t93 102.5t65 70q48 52 80.5 73t71.5 21q32 0 51 -19.5t19 -45.5q0 -38 -26 -67.5t-81 -66.5 q-38 -26 -144.5 -93.5t-203.5 -131.5z" />
<glyph unicode="&#xf4;" horiz-adv-x="1200" d="M66 391q0 140 59.5 271.5t181.5 226.5q173 135 375 135q186 0 304 -118t118 -298q0 -145 -65.5 -280.5t-186.5 -225.5q-91 -68 -177 -98.5t-192 -30.5q-178 0 -297.5 119.5t-119.5 298.5zM276 336q0 -127 56 -207t166 -80q80 0 138.5 33t115.5 106q69 86 105 214.5 t36 261.5q0 61 -11.5 110t-36.5 89t-69.5 62.5t-105.5 22.5q-63 0 -112.5 -23.5t-102.5 -74.5q-86 -83 -132.5 -221.5t-46.5 -292.5zM362 1163q277 291 316 334q27 30 43 37.5t59 7.5q37 0 49 -7t23 -34q14 -31 35.5 -82t53.5 -127.5t58 -136.5l-47 -29l-194 273l-361 -273z " />
<glyph unicode="&#xf5;" horiz-adv-x="1200" d="M66 391q0 140 59.5 271.5t181.5 226.5q173 135 375 135q186 0 304 -118t118 -298q0 -145 -65.5 -280.5t-186.5 -225.5q-91 -68 -177 -98.5t-192 -30.5q-178 0 -297.5 119.5t-119.5 298.5zM276 336q0 -127 56 -207t166 -80q80 0 138.5 33t115.5 106q69 86 105 214.5 t36 261.5q0 61 -11.5 110t-36.5 89t-69.5 62.5t-105.5 22.5q-63 0 -112.5 -23.5t-102.5 -74.5q-86 -83 -132.5 -221.5t-46.5 -292.5zM294 1200q25 42 53 79.5t66 77.5t83 63.5t89 23.5q47 0 93 -18.5t75.5 -40t67 -40t71.5 -18.5q33 0 57.5 8t47 29.5t35.5 38t38 53.5 q9 12 13 19l51 -31q-153 -244 -293 -244q-47 0 -93 18.5t-75.5 40t-67 40t-71.5 18.5q-16 0 -30 -1.5t-27 -7.5t-22 -9.5t-21 -14.5l-18 -16.5t-18 -21.5t-16.5 -22.5t-18.5 -27t-19 -27.5z" />
<glyph unicode="&#xf6;" horiz-adv-x="1200" d="M66 391q0 140 59.5 271.5t181.5 226.5q173 135 375 135q186 0 304 -118t118 -298q0 -145 -65.5 -280.5t-186.5 -225.5q-91 -68 -177 -98.5t-192 -30.5q-178 0 -297.5 119.5t-119.5 298.5zM276 336q0 -127 56 -207t166 -80q80 0 138.5 33t115.5 106q69 86 105 214.5 t36 261.5q0 61 -11.5 110t-36.5 89t-69.5 62.5t-105.5 22.5q-63 0 -112.5 -23.5t-102.5 -74.5q-86 -83 -132.5 -221.5t-46.5 -292.5zM397 1350q0 55 38.5 95t100.5 40q41 0 69 -33t28 -72q0 -56 -36.5 -96.5t-96.5 -40.5q-48 0 -75.5 31.5t-27.5 75.5zM833 1350q0 55 40 95 t102 40q41 0 67.5 -33t26.5 -72q0 -56 -35.5 -96.5t-95.5 -40.5q-49 0 -77 31.5t-28 75.5z" />
<glyph unicode="&#xf7;" horiz-adv-x="1187" d="M135 479v107h987v-107h-987zM492 150q0 57 40 97t97 40t97 -40t40 -97t-40 -96.5t-97 -39.5t-97 39.5t-40 96.5zM492 913q0 57 40 96.5t97 39.5t97 -39.5t40 -96.5t-40 -97t-97 -40t-97 40t-40 97z" />
<glyph unicode="&#xf8;" horiz-adv-x="1200" d="M31 -47l143 153q-108 118 -108 285q0 140 59.5 271.5t181.5 226.5q173 135 375 135q153 0 262 -86l131 143l53 -47l-135 -139q111 -114 111 -287q0 -145 -65.5 -280.5t-186.5 -225.5q-91 -68 -177 -98.5t-192 -30.5q-147 0 -258 88l-145 -157zM270 336q0 -67 13 -121 l577 631q-54 102 -190 102q-120 0 -221 -98q-86 -83 -132.5 -221.5t-46.5 -292.5zM311 158q57 -109 187 -109q80 0 141.5 33.5t118.5 105.5q69 86 105 214.5t36 261.5q0 76 -10 124z" />
<glyph unicode="&#xf9;" horiz-adv-x="1280" d="M162 217q0 44 10 82l133 498q12 36 12 61q0 34 -30 49q-16 8 -57 15.5t-68 9.5l18 65h545l-18 -65q-88 -5 -134 -19q-53 -14 -71 -88l-119 -446q-21 -79 -21 -137q0 -166 195 -166q66 0 120 18t88 44.5t61.5 65t41 69.5t25.5 69q20 67 45 174q68 280 68 322q0 38 -19 53 q-40 30 -156 41l19 65h506l-19 -65q-34 -2 -88.5 -11.5t-77.5 -21.5q-54 -26 -96 -190q-15 -55 -51 -203q-11 -44 -47 -180q-24 -86 -67.5 -151.5t-92 -103t-107 -61t-107.5 -31.5t-99 -8q-163 0 -252.5 73.5t-89.5 172.5zM534 1460q0 33 20.5 55.5t53.5 22.5 q39 0 65.5 -25.5t51.5 -78.5q71 -146 143 -285l-41 -33q-33 34 -227 228q-66 66 -66 116z" />
<glyph unicode="&#xfa;" horiz-adv-x="1280" d="M162 217q0 44 10 82l133 498q12 36 12 61q0 34 -30 49q-16 8 -57 15.5t-68 9.5l18 65h545l-18 -65q-88 -5 -134 -19q-53 -14 -71 -88l-119 -446q-21 -79 -21 -137q0 -166 195 -166q66 0 120 18t88 44.5t61.5 65t41 69.5t25.5 69q20 67 45 174q68 280 68 322q0 38 -19 53 q-40 30 -156 41l19 65h506l-19 -65q-34 -2 -88.5 -11.5t-77.5 -21.5q-54 -26 -96 -190q-15 -55 -51 -203q-11 -44 -47 -180q-24 -86 -67.5 -151.5t-92 -103t-107 -61t-107.5 -31.5t-99 -8q-163 0 -252.5 73.5t-89.5 172.5zM651 1153q51 55 108 118.5t93 102.5t65 70 q48 52 80.5 73t71.5 21q32 0 51 -19.5t19 -45.5q0 -38 -26 -67.5t-81 -66.5q-38 -26 -144.5 -93.5t-203.5 -131.5z" />
<glyph unicode="&#xfb;" horiz-adv-x="1280" d="M162 217q0 44 10 82l133 498q12 36 12 61q0 34 -30 49q-16 8 -57 15.5t-68 9.5l18 65h545l-18 -65q-88 -5 -134 -19q-53 -14 -71 -88l-119 -446q-21 -79 -21 -137q0 -166 195 -166q66 0 120 18t88 44.5t61.5 65t41 69.5t25.5 69q20 67 45 174q68 280 68 322q0 38 -19 53 q-40 30 -156 41l19 65h506l-19 -65q-34 -2 -88.5 -11.5t-77.5 -21.5q-54 -26 -96 -190q-15 -55 -51 -203q-11 -44 -47 -180q-24 -86 -67.5 -151.5t-92 -103t-107 -61t-107.5 -31.5t-99 -8q-163 0 -252.5 73.5t-89.5 172.5zM473 1163q277 291 316 334q27 30 43 37.5t59 7.5 q37 0 49 -7t23 -34q14 -31 35.5 -82t53.5 -127.5t58 -136.5l-47 -29l-194 273l-361 -273z" />
<glyph unicode="&#xfc;" horiz-adv-x="1280" d="M162 217q0 44 10 82l133 498q12 36 12 61q0 34 -30 49q-16 8 -57 15.5t-68 9.5l18 65h545l-18 -65q-88 -5 -134 -19q-53 -14 -71 -88l-119 -446q-21 -79 -21 -137q0 -166 195 -166q66 0 120 18t88 44.5t61.5 65t41 69.5t25.5 69q20 67 45 174q68 280 68 322q0 38 -19 53 q-40 30 -156 41l19 65h506l-19 -65q-34 -2 -88.5 -11.5t-77.5 -21.5q-54 -26 -96 -190q-15 -55 -51 -203q-11 -44 -47 -180q-24 -86 -67.5 -151.5t-92 -103t-107 -61t-107.5 -31.5t-99 -8q-163 0 -252.5 73.5t-89.5 172.5zM471 1350q0 55 38.5 95t100.5 40q41 0 69 -33 t28 -72q0 -56 -36.5 -96.5t-96.5 -40.5q-48 0 -75.5 31.5t-27.5 75.5zM907 1350q0 55 40 95t102 40q41 0 67.5 -33t26.5 -72q0 -56 -35.5 -96.5t-95.5 -40.5q-49 0 -77 31.5t-28 75.5z" />
<glyph unicode="&#xfd;" horiz-adv-x="1026" d="M51 0l19 66q129 8 166 18q27 8 43 28t28 62q17 60 34 134.5t17 86.5q0 21 -16 80q-49 185 -102 340q-18 64 -62 90q-17 10 -56.5 17.5t-68.5 9.5l19 65h551l-19 -65q-4 0 -18 -1.5t-23.5 -2t-26 -2.5t-28 -3.5t-26 -4t-25 -6t-19.5 -7t-13.5 -8.5t-4.5 -10 q0 -28 112 -385q330 351 330 375q0 42 -153 55l18 65h453l-19 -65q-15 -2 -52 -12t-54 -17q-43 -18 -97 -67q-143 -124 -342 -359q-43 -52 -58 -78.5t-30 -79.5q-8 -30 -17.5 -74t-15.5 -74.5t-6 -33.5q0 -29 33 -45q14 -7 68.5 -15.5t83.5 -10.5l-19 -66h-604zM567 1153 q51 55 108 118.5t93 102.5t65 70q48 52 80.5 73t71.5 21q32 0 51 -19.5t19 -45.5q0 -38 -26 -67.5t-81 -66.5q-38 -26 -144.5 -93.5t-203.5 -131.5z" />
<glyph unicode="&#xfe;" horiz-adv-x="1069" d="M-51 0l18 66q89 5 131 16q29 9 45 29t27 59l170 635q12 40 12 65q0 33 -30 41q-61 16 -136 21l19 65h559l-19 -65q-8 -1 -37 -3t-56 -5.5t-52 -10.5q-46 -15 -59 -65l-11 -37h160q141 0 220 -64t79 -165q0 -71 -26 -131.5t-71 -104.5t-105.5 -75t-129.5 -46.5t-143 -15.5 h-147l-11 -39q-8 -32 -8 -45q0 -32 33 -43q27 -10 149 -16l-18 -66h-563zM387 283h102q69 0 122.5 22t84 54.5t50 74.5t26 76t6.5 65q0 75 -39.5 119.5t-140.5 44.5h-88z" />
<glyph unicode="&#xff;" horiz-adv-x="1026" d="M51 0l19 66q129 8 166 18q27 8 43 28t28 62q17 60 34 134.5t17 86.5q0 21 -16 80q-49 185 -102 340q-18 64 -62 90q-17 10 -56.5 17.5t-68.5 9.5l19 65h551l-19 -65q-4 0 -18 -1.5t-23.5 -2t-26 -2.5t-28 -3.5t-26 -4t-25 -6t-19.5 -7t-13.5 -8.5t-4.5 -10 q0 -28 112 -385q330 351 330 375q0 42 -153 55l18 65h453l-19 -65q-15 -2 -52 -12t-54 -17q-43 -18 -97 -67q-143 -124 -342 -359q-43 -52 -58 -78.5t-30 -79.5q-8 -30 -17.5 -74t-15.5 -74.5t-6 -33.5q0 -29 33 -45q14 -7 68.5 -15.5t83.5 -10.5l-19 -66h-604zM352 1350 q0 55 38.5 95t100.5 40q41 0 69 -33t28 -72q0 -56 -36.5 -96.5t-96.5 -40.5q-48 0 -75.5 31.5t-27.5 75.5zM788 1350q0 55 40 95t102 40q41 0 67.5 -33t26.5 -72q0 -56 -35.5 -96.5t-95.5 -40.5q-49 0 -77 31.5t-28 75.5z" />
<glyph unicode="&#x152;" horiz-adv-x="2060" d="M111 539q0 159 77 340t218 311q112 104 246 158.5t274 54.5q90 0 214 -2t185 -2h807l-94 -340h-64v16q0 92 -39 161.5t-104 78.5q-57 8 -160 8h-215l-158 -561h154q120 0 195 65q26 21 59.5 80.5t52.5 106.5h66l-164 -590h-62q7 44 7 92q0 80 -17 107q-13 19 -23.5 29.5 t-45 22t-86.5 11.5h-154l-119 -422q-20 -68 -20 -98q0 -55 44.5 -72.5t162.5 -17.5q86 0 136.5 2t107.5 13.5t85 33.5q63 51 137 143t103 146h63l-139 -414h-891q-71 0 -177 -2t-161 -2q-135 0 -223.5 44t-173.5 148q-104 128 -104 351zM330 475q0 -201 82.5 -299t208.5 -98 q75 0 121.5 15t103.5 54q120 83 244 555q86 304 86 422q0 68 -29 111q-34 46 -86.5 67t-136.5 21q-163 0 -300.5 -118t-215.5 -313t-78 -417z" />
<glyph unicode="&#x153;" horiz-adv-x="1675" d="M66 385q0 126 44.5 234t120.5 184q102 102 235.5 151.5t278.5 49.5q64 0 150 -3.5t115 -3.5h635l-76 -272h-60q0 64 -27 127t-69 70q-49 8 -125 8h-162l-104 -377h100q39 0 68.5 8t39.5 14.5t25 18.5q24 19 47.5 56.5t34.5 70.5h64l-119 -432h-61q6 27 6 61 q0 74 -25.5 103.5t-99.5 29.5h-98l-76 -284q-13 -50 -13 -74q0 -31 30.5 -42t109.5 -11q184 0 237 39q45 33 106 104t89 113h61l-121 -328h-667q-42 0 -130 -3t-120 -3q-87 0 -178.5 29t-157.5 92q-108 105 -108 270zM274 377q0 -150 79 -230.5t204 -80.5q69 0 118.5 40.5 t80.5 135.5q22 67 71 250q62 243 62 307q0 80 -37 105.5t-133 25.5q-132 0 -235.5 -78.5t-156.5 -203.5t-53 -271z" />
<glyph unicode="&#x178;" horiz-adv-x="1275" d="M131 1331l21 68h628l-20 -68q-7 0 -22 -1q-27 -1 -42.5 -2t-42.5 -3.5t-43 -5.5t-33.5 -8.5t-25.5 -13t-8 -17.5q0 -12 4 -33t13.5 -56.5t19 -68t28 -91t31.5 -100.5t38.5 -121t41.5 -130q177 205 321 389q42 54 61 78.5t41 54.5t30 43.5t8 20.5q0 19 -16 31.5 t-45.5 18.5t-59.5 9t-68 6h-4l21 68h544l-20 -68q-19 -2 -63 -15.5t-64 -23.5q-49 -25 -72 -41t-73 -63q-99 -95 -188.5 -202t-242.5 -302q-108 -140 -129 -229l-63 -252q-4 -20 -4 -39q3 -45 43 -64q17 -7 79 -18.5t91 -13.5l-19 -68h-663l18 68q115 6 164 22q68 23 88 103 l84 335q4 12 4 39q0 38 -18 115q-44 165 -150 477q-34 94 -98 139q-48 29 -125 33zM602 1680q0 55 38.5 95t100.5 40q41 0 69 -33t28 -72q0 -56 -36.5 -96.5t-96.5 -40.5q-48 0 -75.5 31.5t-27.5 75.5zM1038 1680q0 55 40 95t102 40q41 0 67.5 -33t26.5 -72 q0 -56 -35.5 -96.5t-95.5 -40.5q-49 0 -77 31.5t-28 75.5z" />
<glyph unicode="&#x2c6;" horiz-adv-x="1024" d="M352 1122q277 291 316 334q27 30 43 37.5t59 7.5q37 0 49 -7t23 -34q14 -31 35.5 -82t53.5 -127.5t58 -136.5l-47 -29l-194 273l-361 -273z" />
<glyph unicode="&#x2dc;" horiz-adv-x="1024" d="M276 1159q25 42 53 79.5t66 77.5t83 63.5t89 23.5q47 0 93 -18.5t75.5 -40t67 -40t71.5 -18.5q33 0 57.5 8t47 29.5t35.5 38t38 53.5q9 12 13 19l51 -31q-153 -244 -293 -244q-47 0 -93 18.5t-75.5 40t-67 40t-71.5 18.5q-16 0 -30 -1.5t-27 -7.5t-22 -9.5t-21 -14.5 l-18 -16.5t-18 -21.5t-16.5 -22.5t-18.5 -27t-19 -27.5z" />
<glyph unicode="&#x2000;" horiz-adv-x="955" />
<glyph unicode="&#x2001;" horiz-adv-x="1911" />
<glyph unicode="&#x2002;" horiz-adv-x="955" />
<glyph unicode="&#x2003;" horiz-adv-x="1911" />
<glyph unicode="&#x2004;" horiz-adv-x="637" />
<glyph unicode="&#x2005;" horiz-adv-x="477" />
<glyph unicode="&#x2006;" horiz-adv-x="318" />
<glyph unicode="&#x2007;" horiz-adv-x="318" />
<glyph unicode="&#x2008;" horiz-adv-x="238" />
<glyph unicode="&#x2009;" horiz-adv-x="382" />
<glyph unicode="&#x200a;" horiz-adv-x="106" />
<glyph unicode="&#x2010;" horiz-adv-x="704" d="M66 449l45 151h542l-45 -151h-542z" />
<glyph unicode="&#x2011;" horiz-adv-x="704" d="M66 449l45 151h542l-45 -151h-542z" />
<glyph unicode="&#x2012;" horiz-adv-x="704" d="M66 449l45 151h542l-45 -151h-542z" />
<glyph unicode="&#x2013;" horiz-adv-x="1048" d="M109 496l32 118h844l-33 -118h-843z" />
<glyph unicode="&#x2014;" horiz-adv-x="1843" d="M186 465l35 119h1540l-35 -119h-1540z" />
<glyph unicode="&#x2018;" horiz-adv-x="411" d="M164 915q0 227 309 388l31 -56q-104 -56 -163 -115.5t-73 -138.5h43q61 0 95 -30t34 -76t-39.5 -88.5t-99.5 -42.5q-65 0 -101 39.5t-36 119.5z" />
<glyph unicode="&#x2019;" horiz-adv-x="411" d="M129 799q104 56 163 115.5t73 138.5h-43q-61 0 -95 30t-34 76t39.5 88.5t99.5 42.5q65 0 101 -40t36 -120q0 -226 -309 -387z" />
<glyph unicode="&#x201a;" horiz-adv-x="530" d="M-20 -252q103 56 162 115.5t73 138.5h-43q-61 0 -95 31.5t-34 77.5t39.5 87.5t99.5 41.5q65 0 101 -40t36 -120q0 -226 -309 -387z" />
<glyph unicode="&#x201c;" horiz-adv-x="772" d="M168 905q0 234 311 395l29 -53q-104 -57 -164 -117.5t-74 -142.5h37q62 0 95.5 -30.5t33.5 -77.5q0 -45 -37 -84t-96 -39q-65 0 -100 38.5t-35 110.5zM528 905q0 234 312 395l28 -53q-104 -56 -163.5 -117t-73.5 -143h37q62 0 95.5 -30.5t33.5 -77.5q0 -45 -37 -84 t-96 -39q-65 0 -100.5 38.5t-35.5 110.5z" />
<glyph unicode="&#x201d;" horiz-adv-x="772" d="M125 799q104 56 163.5 117t73.5 143h-36q-62 0 -95.5 30.5t-33.5 77.5q0 45 37 84t96 39q65 0 100 -38.5t35 -110.5q0 -235 -311 -396zM485 799q104 57 164 117.5t74 142.5h-37q-62 0 -95.5 30.5t-33.5 77.5q0 45 37 84t96 39q65 0 100 -38.5t35 -110.5q0 -235 -311 -396 z" />
<glyph unicode="&#x201e;" horiz-adv-x="882" d="M-29 -258q104 57 164 117.5t74 142.5h-37q-62 0 -95.5 31t-33.5 78q0 45 37 83.5t96 38.5q65 0 100 -38.5t35 -110.5q0 -234 -311 -395zM332 -258q104 56 163.5 117t73.5 143h-37q-62 0 -95.5 31t-33.5 78q0 45 37.5 83.5t96.5 38.5q65 0 100 -38.5t35 -110.5 q0 -234 -312 -395z" />
<glyph unicode="&#x2022;" horiz-adv-x="845" d="M178 666q0 114 82.5 196t196.5 82t196 -82t82 -196t-82 -194.5t-196 -80.5t-196.5 80.5t-82.5 194.5z" />
<glyph unicode="&#x2026;" horiz-adv-x="1613" d="M74 113q0 54 38.5 92.5t92.5 38.5t92.5 -38.5t38.5 -92.5t-38.5 -91.5t-92.5 -37.5t-92.5 37.5t-38.5 91.5zM635 113q0 54 38.5 92.5t92.5 38.5t92.5 -38.5t38.5 -92.5t-38.5 -91.5t-92.5 -37.5t-92.5 37.5t-38.5 91.5zM1196 113q0 54 38.5 92.5t92.5 38.5t92.5 -38.5 t38.5 -92.5t-38.5 -91.5t-92.5 -37.5t-92.5 37.5t-38.5 91.5z" />
<glyph unicode="&#x202f;" horiz-adv-x="382" />
<glyph unicode="&#x2039;" horiz-adv-x="759" d="M92 449q0 17 13 54t36 52q393 254 543 358l33 -34l-441 -406l218 -389l-39 -25q-294 304 -332 342q-21 19 -26 28t-5 20z" />
<glyph unicode="&#x203a;" horiz-adv-x="759" d="M51 94l441 406l-218 389l39 24q294 -304 332 -342q21 -19 26 -27.5t5 -19.5q0 -17 -13 -54t-36 -52q-372 -240 -543 -359z" />
<glyph unicode="&#x205f;" horiz-adv-x="477" />
<glyph unicode="&#x2122;" horiz-adv-x="1699" d="M276 1214v185h592v-185h-45q-11 38 -40 83t-54 49q-46 4 -74 4h-26v-496q0 -29 22 -39q42 -14 82 -14v-47h-321v47q52 0 82 10q22 7 22 37v502h-27q-33 0 -73 -4q-27 -4 -55 -48.5t-39 -83.5h-46zM950 754v45q75 13 90 22q27 19 27 121v320q0 43 -27 67q-27 21 -84 25v45 h236l194 -453l162 371q11 26 25 82h227v-45q-53 -4 -76 -13q-22 -5 -22 -36v-455q0 -27 22 -37q36 -12 76 -12v-47h-319v47q64 0 84 10q26 17 26 39v416l-221 -502h-35q-4 15 -51 135l-158 377v-330q0 -97 27 -121q12 -8 44 -16t52 -8v-47h-299z" />
<glyph unicode="&#x25fc;" horiz-adv-x="993" d="M0 0v993h993v-993h-993z" />
</font>
</defs>
</svg>
