<?xml version="1.0" standalone="no"?>
<!DOCTYPE svg PUBLIC "-//W3C//DTD SVG 1.1//EN" "http://www.w3.org/Graphics/SVG/1.1/DTD/svg11.dtd" >
<svg xmlns="http://www.w3.org/2000/svg">
<metadata></metadata>
<defs>
<font id="millertextromansc" horiz-adv-x="1187" >
<font-face units-per-em="2048" ascent="1556" descent="-492" />
<missing-glyph horiz-adv-x="491" />
<glyph unicode="&#xfb01;" horiz-adv-x="1769" d="M84 0v66q107 7 137 16q47 14 47 65v693q0 50 -47 65q-65 22 -137 27v65h891v-264h-62q-18 56 -65 120t-90 69q-74 8 -133 8h-162v-385h104q97 0 138 41q14 14 26.5 51.5t16.5 79.5h63v-426h-63q-3 37 -16 81t-27 58q-45 45 -138 45h-104v-321q0 -47 47 -64q10 -4 63 -13 t78 -11v-66h-567zM1126 0v66q103 7 134 16q47 14 47 63v697q0 47 -47 63q-79 23 -134 27v65h555v-65q-78 -5 -133 -21q-47 -11 -47 -63v-694q0 -46 47 -64q11 -5 60 -14t73 -10v-66h-555z" />
<glyph unicode="&#xfb02;" horiz-adv-x="2080" d="M84 0v66q107 7 137 16q47 14 47 65v693q0 50 -47 65q-65 22 -137 27v65h891v-264h-62q-18 56 -65 120t-90 69q-74 8 -133 8h-162v-385h104q97 0 138 41q14 14 26.5 51.5t16.5 79.5h63v-426h-63q-3 37 -16 81t-27 58q-45 45 -138 45h-104v-321q0 -47 47 -64q10 -4 63 -13 t78 -11v-66h-567zM1124 0v66q91 6 133 18q48 16 48 66v686q0 51 -48 67q-20 8 -61.5 18t-65.5 11v65h556v-65q-85 -5 -140 -23q-47 -15 -47 -65v-649q0 -79 32 -103t138 -24q148 0 195 47q34 34 75 106.5t56 124.5h63l-30 -346h-904z" />
<glyph horiz-adv-x="0" />
<glyph horiz-adv-x="682" />
<glyph unicode="&#xd;" horiz-adv-x="0" />
<glyph unicode=" "  horiz-adv-x="491" />
<glyph unicode="&#x09;" horiz-adv-x="491" />
<glyph unicode="&#xa0;" horiz-adv-x="491" />
<glyph unicode="!" horiz-adv-x="749" d="M244 109q0 57 39 97t96 40q58 0 97.5 -40t39.5 -97t-39.5 -96.5t-97.5 -39.5q-57 0 -96 39.5t-39 96.5zM246 1010q0 62 36.5 101.5t96.5 39.5q61 0 98 -39.5t37 -101.5q0 -37 -44 -241.5t-60 -367.5h-64q-14 164 -57 367.5t-43 241.5z" />
<glyph unicode="&#x22;" horiz-adv-x="802" d="M98 1157q0 48 30 80.5t83 32.5t83 -32.5t30 -80.5q0 -22 -12 -78.5t-34 -158t-38 -193.5h-62q-15 95 -35.5 194t-32.5 155.5t-12 80.5zM479 1157q0 48 30 80.5t83 32.5t83 -32.5t30 -80.5q0 -22 -12 -78.5t-34 -158t-38 -193.5h-62q-15 95 -35.5 194t-32.5 155.5 t-12 80.5z" />
<glyph unicode="#" d="M190 250v186l220 56v227l-220 -55v186l220 55v379h65v-362l240 59v303h65v-287l221 56v-187l-221 -55v-227l221 55v-186l-221 -56v-411h-65v395l-240 -59v-336h-65v319zM475 508l240 59v228l-240 -60v-227z" />
<glyph unicode="$" horiz-adv-x="1259" d="M158 299q0 58 30.5 91.5t81.5 33.5q43 0 72 -33t29 -80q0 -34 -27 -62.5t-31 -45.5q15 -65 85 -105t202 -41v486q-181 10 -296.5 97t-115.5 247q0 51 12 100t42.5 98.5t76 87.5t118 64t163.5 31v192h74v-190q103 -2 181.5 -24t124.5 -58t68.5 -78t22.5 -88 q0 -60 -28.5 -91.5t-69.5 -31.5q-39 0 -66.5 26.5t-27.5 65.5q0 30 18 61.5t21 51.5q-27 89 -244 94v-446q204 -15 316 -107t112 -260q0 -181 -118 -282.5t-310 -114.5v-279h-74v277q-190 3 -316 90t-126 223zM334 989q0 -117 64.5 -167t201.5 -66v440q-130 -9 -198 -66 t-68 -141zM674 59q142 10 215.5 71.5t73.5 166.5q0 103 -75 168.5t-214 75.5v-482z" />
<glyph unicode="%" horiz-adv-x="1798" d="M133 944q0 137 99.5 231.5t222.5 94.5q86 0 159 -36t121.5 -113.5t48.5 -184.5q0 -86 -47.5 -160.5t-123 -116t-158.5 -41.5q-133 0 -227.5 88.5t-94.5 237.5zM295 946q0 -126 43.5 -195t122.5 -69q68 0 115 66t47 188q0 132 -44.5 201t-121.5 69q-75 0 -118.5 -69.5 t-43.5 -190.5zM420 -164l874 1583l80 -43l-878 -1583zM1014 297q0 137 99.5 231.5t221.5 94.5q86 0 159.5 -36t122 -113.5t48.5 -184.5q0 -130 -101 -224t-229 -94q-133 0 -227 88.5t-94 237.5zM1176 299q0 -126 43 -195t122 -69q68 0 115 66t47 188q0 132 -44.5 201 t-121.5 69q-75 0 -118 -69.5t-43 -190.5z" />
<glyph unicode="&#x26;" horiz-adv-x="1222" d="M82 231q0 201 244 320q-59 80 -78 132.5t-19 107.5q0 101 83 166t202 65q103 0 163 -55.5t60 -147.5q0 -76 -56.5 -139.5t-160.5 -108.5q134 -174 236 -290q108 138 108 219q0 20 -35.5 38.5t-93.5 30.5v58h473v-62q-99 -14 -148 -28t-77 -43q-17 -18 -74.5 -114 t-103.5 -151q82 -85 137 -116q32 -18 102 -30.5t130 -16.5v-66h-406q-15 18 -45.5 54t-46.5 55q-153 -138 -311 -138q-75 0 -138 27.5t-104 88t-41 144.5zM266 281q0 -83 48.5 -140t131.5 -57q100 0 185 78q-118 147 -266 336q-99 -71 -99 -217zM397 834q0 -90 88 -216 q148 74 148 211q0 66 -33 96.5t-84 30.5q-63 0 -91 -39t-28 -83z" />
<glyph unicode="'" horiz-adv-x="401" d="M88 1157q0 48 30 80.5t83 32.5t82.5 -32.5t29.5 -80.5q0 -22 -12 -78.5t-34 -158t-38 -193.5h-61q-15 95 -35.5 194t-32.5 155.5t-12 80.5z" />
<glyph unicode="(" horiz-adv-x="661" d="M96 516q0 112 28.5 215t69.5 178.5t106 150.5t119.5 123t127.5 105l51 -53q-169 -133 -262.5 -304t-93.5 -415q0 -129 26 -239.5t76.5 -198t111.5 -155.5t142 -132l-51 -53q-49 36 -87.5 68t-87.5 79t-86 92.5t-74 107t-61.5 125t-39.5 142.5t-15 164z" />
<glyph unicode=")" horiz-adv-x="661" d="M63 -209q64 51 115.5 103t97.5 119t77 140t49 164t18 193q0 129 -26.5 239.5t-77 198t-111.5 155.5t-142 132l52 53q49 -36 87.5 -68t87.5 -79t85.5 -92.5t74 -107t61.5 -125t39 -142.5t15 -164q0 -112 -28 -215t-69.5 -178.5t-106 -150.5t-119 -123t-127.5 -105z" />
<glyph unicode="*" horiz-adv-x="907" d="M104 907q0 39 39 58q17 9 111 37t168 61q-74 33 -168 61t-111 37q-39 19 -39 58q0 29 20 53t52 24q20 0 38.5 -11t49.5 -40q4 -4 25.5 -24.5t32 -30.5t30.5 -28t40.5 -34t43.5 -32q-9 72 -31.5 168t-23.5 116q0 32 19.5 53t54.5 21q34 0 53.5 -21t19.5 -53 q-1 -18 -25 -113.5t-32 -170.5q70 50 174 149q31 29 49.5 40t38.5 11q32 0 52 -24t20 -53q0 -39 -39 -58q-17 -9 -111 -37t-168 -61q74 -33 168 -61t111 -37q39 -19 39 -58q0 -29 -20 -53.5t-52 -24.5q-20 0 -38.5 11t-49.5 41q-98 94 -174 149q8 -75 32 -171t25 -114 q0 -32 -19.5 -52.5t-53.5 -20.5q-35 0 -54.5 20.5t-19.5 52.5q1 18 24 115t31 170q-23 -16 -43.5 -32t-40.5 -34t-30.5 -28t-32 -30.5t-25.5 -24.5q-31 -30 -49.5 -41t-38.5 -11q-32 0 -52 24.5t-20 53.5z" />
<glyph unicode="+" d="M100 479v107h439v440h110v-440h438v-107h-438v-440h-110v440h-439z" />
<glyph unicode="," horiz-adv-x="512" d="M74 -285q101 60 160 126.5t67 162.5h-55q-73 0 -107.5 37.5t-34.5 91.5q0 46 35 83.5t92 37.5q87 0 129.5 -58t42.5 -159q0 -54 -21 -107.5t-52 -95.5t-71 -80.5t-75 -63t-67 -42.5z" />
<glyph unicode="-" horiz-adv-x="778" d="M82 446v158h614v-158h-614z" />
<glyph unicode="." horiz-adv-x="512" d="M121 117q0 57 40 97t97 40t97 -40t40 -97t-40 -96t-97 -39t-97 39t-40 96z" />
<glyph unicode="/" horiz-adv-x="860" d="M45 -408l639 1948l104 -27l-641 -1947z" />
<glyph unicode="0" horiz-adv-x="1261" d="M102 590q0 153 45 282t120 214t172 132.5t202 47.5q122 0 221.5 -49.5t163.5 -134.5t98.5 -196.5t34.5 -238.5q0 -152 -44 -281t-118.5 -214.5t-172 -133t-203.5 -47.5q-122 0 -222 50t-164 135.5t-98.5 196.5t-34.5 237zM326 616q0 -168 32 -293.5t100.5 -200.5 t168.5 -75q131 0 220 157.5t89 416.5q0 162 -31 287.5t-100.5 203.5t-169.5 78q-132 0 -220.5 -157t-88.5 -417z" />
<glyph unicode="1" horiz-adv-x="870" d="M55 1176l27 49q106 -47 215 -47q136 0 260 86h47q-29 -178 -29 -308v-763q0 -33 16.5 -60t43.5 -39q45 -20 153 -26v-68h-636v68q129 7 161 18q28 9 46 36t18 60v873q-31 -8 -84 -8q-82 0 -238 129z" />
<glyph unicode="2" horiz-adv-x="1153" d="M98 0v78q168 121 223 161.5t132 106t141 135.5q57 62 94.5 124.5t53 119.5t20 95.5t4.5 86.5q0 140 -62 210.5t-161 70.5q-95 0 -163 -50.5t-71 -121.5q1 -11 15.5 -28t27.5 -41t13 -54q0 -20 -5 -39t-17 -39t-37.5 -32.5t-61.5 -12.5q-59 0 -89 41.5t-30 95.5 q0 48 27.5 107t79 116.5t141.5 96.5t200 39q178 0 293 -102t115 -265q0 -134 -49.5 -233.5t-174 -204t-362.5 -244.5l-57 -49h475q17 0 32.5 3.5t29.5 13.5t24.5 17t23.5 25t19.5 25.5t19 31.5t15.5 29.5t15.5 32.5t13.5 29l61 -23l-121 -352h-848z" />
<glyph unicode="3" horiz-adv-x="1157" d="M66 231q0 79 42 121.5t107 42.5q51 0 79 -27t28 -73q0 -24 -9.5 -40.5t-23 -26t-26.5 -18.5t-22.5 -23.5t-9.5 -34.5q0 -56 56.5 -91.5t169.5 -35.5q90 0 172.5 45.5t137 134t54.5 198.5q0 209 -174 209q-78 0 -160 -86l-47 72q7 5 21 14q158 100 214 150q104 95 111 213 v18q0 197 -221 197q-83 0 -134 -38t-60 -71q1 -12 10 -28t18 -40t9 -55q0 -118 -115 -118q-59 0 -86 38.5t-27 88.5q0 49 28.5 100t80.5 96t138.5 74t190.5 29q84 0 152.5 -19.5t109.5 -49.5t69 -68t39 -72t11 -64q0 -98 -73.5 -175.5t-243.5 -117.5l-37 -30q36 6 78 6 q41 0 82 -8.5t83.5 -29.5t74.5 -52.5t52.5 -83t20.5 -115.5q0 -206 -160 -323t-415 -117q-95 0 -183 31t-150 98t-62 155z" />
<glyph unicode="4" horiz-adv-x="1169" d="M49 420v98l641 766h92v-770h17q53 0 76.5 1t48.5 7t41 19q26 22 41.5 67t17.5 88h61v-469h-57q-2 50 -17.5 98.5t-43.5 71.5q-6 5 -14 8.5t-15 6.5t-19 4.5t-20 2t-25 1t-26.5 0.5h-32h-33.5v-232q0 -74 56 -98q43 -17 139 -22v-68h-582v68q120 6 140 14q57 18 57 94v244 h-543zM154 514h438v524z" />
<glyph unicode="5" horiz-adv-x="1073" d="M72 215q0 70 41.5 100.5t87.5 30.5q42 0 65 -24.5t23 -65.5q0 -29 -14.5 -62t-14.5 -69q5 -30 59 -56t132 -26q66 0 118 31t83 78t51.5 109t28 118.5t7.5 112.5q0 51 -15.5 89.5t-40 61.5t-57 37.5t-62.5 19.5t-62 5q-48 0 -96 -14t-92.5 -49.5t-61.5 -86.5l-82 16 l156 689h67q28 -32 93 -56t173 -24q102 0 168 25.5t140 82.5l41 -35q-35 -68 -98 -119t-124 -75.5t-134 -39t-112.5 -17.5t-74.5 -3q-85 0 -115 5l-76 -299q46 35 120.5 56t144.5 21q64 0 124 -16t112.5 -49.5t92 -79.5t62 -110.5t22.5 -139.5q0 -120 -73 -217t-186.5 -148 t-239.5 -51q-172 0 -276.5 70.5t-104.5 173.5z" />
<glyph unicode="6" horiz-adv-x="1161" d="M119 555q0 144 39.5 280t108 242.5t157 188t191 125t204.5 43.5q74 0 129.5 -21.5t83.5 -54.5t41.5 -65t13.5 -62q0 -57 -24 -87t-80 -30q-29 0 -47.5 10t-29.5 29.5t-17.5 39t-15.5 49t-19 50.5q-13 29 -39.5 39t-83.5 10q-139 0 -250.5 -169t-148.5 -457l8 -4 q65 85 145 121t195 36q68 0 134 -30.5t118 -84t84.5 -135t32.5 -174.5q0 -62 -14.5 -124t-50.5 -126t-90 -112.5t-140.5 -79.5t-194.5 -31q-90 0 -170 39.5t-140 112t-95 184.5t-35 248zM319 403q0 -167 74.5 -263.5t171.5 -96.5q64 0 112.5 27.5t76 68.5t45 97.5t23 105.5 t5.5 102q0 324 -254 324q-46 0 -89 -20.5t-81 -61.5t-61 -114.5t-23 -168.5z" />
<glyph unicode="7" horiz-adv-x="1040" d="M74 805l123 524h59l16 -115h793v-38q-139 -200 -206 -315.5t-136 -295.5q-71 -184 -106 -318.5t-46 -320.5q-5 -77 -38 -126.5t-97 -49.5q-53 0 -79.5 32.5t-26.5 111.5q0 70 68.5 242.5t158.5 344.5q77 147 145 262.5t177 290.5h-521q-48 0 -88 -25t-66 -66t-41 -75.5 t-26 -72.5z" />
<glyph unicode="8" horiz-adv-x="1146" d="M123 276q0 120 78.5 212.5t169.5 125.5v11q-109 54 -157 115.5t-48 174.5q0 101 63 186t159.5 131t199.5 46q179 0 283 -81.5t104 -217.5q0 -75 -55 -156.5t-154 -124.5v-10q40 -17 69.5 -31.5t67.5 -43t62.5 -60.5t41.5 -81t17 -107q0 -89 -43.5 -165t-113.5 -125.5 t-157.5 -77.5t-177.5 -28q-179 0 -294 88t-115 219zM276 285q0 -107 69 -172.5t206 -65.5q78 0 143 25.5t107.5 82.5t42.5 136q0 221 -398 301q-75 -40 -122.5 -126t-47.5 -181zM338 997q0 -116 88.5 -181.5t263.5 -94.5q148 59 148 274q0 99 -66 153t-182 54 q-113 0 -182.5 -57.5t-69.5 -147.5z" />
<glyph unicode="9" horiz-adv-x="1161" d="M49 -10q0 64 26.5 94.5t84.5 30.5q34 0 56 -21t29.5 -46.5t16.5 -63t17 -54.5q24 -55 131 -55q114 0 207 90t147.5 237t71.5 330l-15 3q-121 -166 -334 -166q-71 0 -137 28.5t-118.5 80.5t-83.5 134t-31 181q0 85 29.5 167.5t85 151.5t146 111.5t200.5 42.5 q69 0 132.5 -17.5t124.5 -61.5t105.5 -111t72 -173t27.5 -241q0 -169 -49.5 -326t-138.5 -279.5t-226 -196t-300 -73.5q-126 0 -201.5 65.5t-75.5 137.5zM334 831q0 -180 58 -266t186 -86q33 0 68 10t71.5 34.5t64.5 61t46 96t18 132.5q0 180 -80.5 280.5t-187.5 100.5 q-60 0 -105.5 -23.5t-71 -59.5t-41.5 -86.5t-21 -96t-5 -97.5z" />
<glyph unicode=":" horiz-adv-x="720" d="M223 119q0 57 40 97t97 40t97.5 -40t40.5 -97t-40.5 -96t-97.5 -39t-97 39t-40 96zM223 772q0 57 40 97t97 40t97.5 -40t40.5 -97t-40.5 -96t-97.5 -39t-97 39t-40 96z" />
<glyph unicode=";" horiz-adv-x="720" d="M176 -285q101 60 160 126.5t67 162.5h-55q-73 0 -107 37.5t-34 91.5q0 46 35 83.5t92 37.5q87 0 129.5 -58t42.5 -159q0 -66 -30.5 -131.5t-78 -115t-92 -84.5t-86.5 -58zM227 782q0 58 38.5 93.5t94.5 35.5q57 0 92 -39.5t35 -93.5q0 -56 -34.5 -97.5t-94.5 -41.5 q-59 0 -95 39t-36 104z" />
<glyph unicode="&#x3c;" d="M133 485v95l905 419v-116l-766 -351l766 -350v-116z" />
<glyph unicode="=" d="M141 293v106h906v-106h-906zM141 666v106h906v-106h-906z" />
<glyph unicode="&#x3e;" d="M150 66v116l765 350l-765 351v116l905 -419v-95z" />
<glyph unicode="?" horiz-adv-x="876" d="M115 967q0 65 88.5 122.5t210.5 57.5q167 0 263.5 -82t96.5 -217q0 -138 -95.5 -239t-256.5 -122l-10 -120h-70l-6 274q122 8 189 70.5t67 169.5q0 93 -52 146.5t-130 53.5q-56 0 -78 -22q14 -47 14 -96q0 -50 -34.5 -82.5t-88.5 -32.5q-49 0 -78.5 33t-29.5 86zM240 109 q0 57 39 97t96 40t97 -40t40 -97t-40 -96.5t-97 -39.5t-96 39.5t-39 96.5z" />
<glyph unicode="@" horiz-adv-x="2181" d="M229 367q0 148 46 291.5t135 266.5t209.5 217t280.5 147.5t337 53.5q137 0 251 -36.5t193 -99t133.5 -147t79.5 -179.5t25 -197q0 -130 -43 -245.5t-115 -196.5t-168.5 -127.5t-201.5 -46.5q-85 0 -137 42.5t-58 120.5l-6 2q-46 -72 -107 -116.5t-122 -44.5 q-45 0 -84 13.5t-73 42.5t-53.5 83.5t-19.5 128.5q0 53 19.5 121t60 140.5t94.5 133t131 99t162 38.5q55 0 95 -31.5t50 -90.5h7l41 110h143l-184 -528q-21 -58 -21 -107q0 -98 84 -98q79 0 156.5 40.5t140 112t101 181t38.5 235.5q0 117 -40.5 220.5t-116 183t-194 126 t-265.5 46.5q-121 0 -238 -37t-221 -113t-183 -181t-125 -251t-46 -313q0 -171 53 -310t146 -230t218 -140t271 -49q331 0 547 155.5t313 446.5l49 -17q-92 -317 -332.5 -495t-576.5 -178q-135 0 -262 32.5t-239 99.5t-196.5 161.5t-133 227t-48.5 286.5zM903 326 q0 -174 86 -174q118 0 219 178l113 332q-12 78 -43.5 114.5t-89.5 36.5q-78 0 -146 -81.5t-103.5 -192.5t-35.5 -213z" />
<glyph unicode="A" horiz-adv-x="1427" d="M-47 0v68q32 2 74.5 12t68.5 24q76 45 117 140q45 108 471 1177h88q115 -291 280.5 -715t196.5 -503q24 -61 92 -101q55 -30 136 -34v-68h-646v68q72 4 139.5 19t67.5 38q0 26 -8 47l-123 313h-501q-49 -118 -78 -215q-23 -74 -23 -114q0 -22 25 -39.5t64.5 -27 t74.5 -14.5t68 -7v-68h-584zM440 573h432l-217 547z" />
<glyph unicode="B" horiz-adv-x="1370" d="M90 0v68q102 6 152 24q63 23 63 98v1006q0 76 -63 102q-69 29 -144 33v68h701q49 0 100 -8t106.5 -28.5t97.5 -51t69.5 -80.5t27.5 -113q0 -67 -19 -120.5t-48.5 -89t-78.5 -64.5t-95.5 -46t-112.5 -36v-19q49 -5 100.5 -18.5t112 -42t107 -68t77.5 -103t31 -140.5 q0 -75 -30.5 -138.5t-79 -105.5t-111.5 -71.5t-126 -42.5t-124 -13h-713zM522 199q10 -68 55 -95.5t138 -27.5q88 0 150.5 29t95 79.5t47 107.5t14.5 124q0 128 -86 207t-240 79q-100 0 -174 -4v-499zM522 778h127q160 0 232.5 79.5t72.5 217.5q0 248 -264 248 q-70 0 -168 -4v-541z" />
<glyph unicode="C" horiz-adv-x="1341" d="M78 682q0 156 55 294t150.5 236.5t229.5 155.5t286 57q82 0 172 -33t137 -77l61 104h84l9 -522h-70q-24 76 -50.5 136.5t-66.5 121t-86.5 101t-111.5 65.5t-142 25q-81 0 -153 -38.5t-130.5 -114.5t-93 -203.5t-34.5 -291.5q0 -175 67 -314t178.5 -214.5t245.5 -75.5 q91 0 161 20.5t120 62.5t84 91t67 119l68 -33q-34 -77 -80 -141t-113 -121.5t-160.5 -90t-205.5 -32.5q-150 0 -276 50.5t-214.5 142.5t-138 225.5t-49.5 294.5z" />
<glyph unicode="D" horiz-adv-x="1599" d="M90 0v68q34 0 83.5 5.5t68.5 12.5q63 23 63 100v1010q0 78 -63 104q-66 27 -144 31v68h660q64 0 131 -9.5t143 -33t145 -59.5t132.5 -93t110 -128t74.5 -170.5t28 -215.5q0 -139 -46 -254.5t-123.5 -195t-181.5 -134.5t-218.5 -80.5t-235.5 -25.5h-627zM522 238 q10 -80 60 -119t163 -39q262 0 393.5 163t131.5 449q0 281 -156.5 455t-413.5 174q-88 0 -178 -4v-1079z" />
<glyph unicode="E" horiz-adv-x="1368" d="M80 0v68q35 2 89.5 8.5t72.5 13.5q63 23 63 100v1006q0 37 -13.5 61.5t-49.5 38.5q-28 11 -80.5 22t-81.5 13v68h1128v-338h-75q-19 74 -88.5 160t-131.5 94q-65 8 -170 8h-221v-559h164q53 0 91.5 12.5t49.5 21.5t31 29q22 22 40.5 78t23.5 101h75v-572h-75 q-3 44 -24 106.5t-40 82.5q-18 19 -32.5 30t-51 22t-88.5 11h-164v-420q0 -44 3 -72.5t14.5 -50.5t26.5 -33.5t45.5 -18.5t64.5 -9t90 -2q173 0 233 12q59 11 82 35q42 44 95.5 139.5t70.5 147.5h72l-27 -414h-1212z" />
<glyph unicode="F" horiz-adv-x="1257" d="M80 0v68q133 7 162 18q63 23 63 100v1010q0 37 -13.5 61.5t-49.5 38.5q-28 11 -80.5 22t-81.5 13v68h1143v-352h-76q-19 76 -88.5 168t-130.5 100q-65 8 -170 8h-236v-565h168q114 0 182 63q22 20 40 70.5t24 107.5h76v-575h-76q-3 47 -23 109t-41 83q-64 64 -182 64 h-168v-483q0 -74 64 -101q18 -7 72 -16.5t83 -11.5v-68h-661z" />
<glyph unicode="G" horiz-adv-x="1531" d="M78 668q0 209 100.5 382.5t278 274t393.5 100.5q86 0 183 -33t145 -77l65 104h80l10 -512h-67q-141 436 -496 436q-90 0 -169 -43t-140.5 -124t-97 -208.5t-35.5 -285.5q0 -179 61.5 -323t166 -224t230.5 -80q161 0 251.5 66t99.5 172v115q0 94 -68 120q-64 23 -203 31 v70h678v-70q-7 -1 -41.5 -5.5t-60.5 -9.5t-43 -12q-62 -29 -62 -106v-465l-47 -8l-106 119q-272 -103 -477 -103q-91 0 -180.5 28.5t-170.5 87t-143 140t-98.5 196.5t-36.5 247z" />
<glyph unicode="H" horiz-adv-x="1751" d="M98 0v68q112 6 144 18q63 23 63 100v1010q0 74 -63 100q-79 31 -144 35v68h635v-68q-88 -5 -147 -24q-64 -20 -64 -101v-434h707v424q0 73 -64 100q-27 11 -73.5 22.5t-73.5 12.5v68h635v-68q-84 -5 -144 -24q-63 -20 -63 -101v-1009q0 -70 63 -101q18 -8 66 -17t78 -11 v-68h-635v68q115 6 147 18q64 24 64 100v500h-707v-489q0 -74 64 -101q19 -7 69 -16.5t78 -11.5v-68h-635z" />
<glyph unicode="I" horiz-adv-x="835" d="M96 0v68q119 6 150 18q63 23 63 98v1014q0 37 -13.5 60.5t-49.5 37.5q-83 31 -150 35v68h643v-68q-90 -5 -149 -24q-64 -20 -64 -99v-1013q0 -72 64 -99q18 -7 69.5 -16.5t79.5 -11.5v-68h-643z" />
<glyph unicode="J" horiz-adv-x="1015" d="M2 158q0 61 39.5 104t101.5 43q61 0 97 -37t36 -94q0 -83 -83 -129v-10q16 -4 36 -4q57 0 102 12.5t75.5 32.5t52.5 53t34.5 65.5t19.5 79t9 85t2 90.5v747q0 36 -14 60t-49 40q-68 30 -166 35v68h666v-68q-98 -5 -156 -24q-64 -20 -64 -101v-825q0 -46 -18 -100 t-56 -110t-90 -102t-128.5 -75t-163.5 -29q-77 0 -135 18.5t-88.5 48.5t-45 61.5t-14.5 64.5z" />
<glyph unicode="K" horiz-adv-x="1515" d="M98 0v68q112 6 144 18q63 23 63 100v1010q0 74 -63 100q-79 31 -144 35v68h635v-68q-88 -5 -147 -24q-64 -20 -64 -101v-481h13q215 174 362 329.5t147 225.5q0 42 -161 51v68h590v-68q-1 0 -19 -0.5t-30 -1.5t-35.5 -3.5t-41 -6t-41.5 -9.5t-42.5 -14.5t-38 -21 t-33.5 -27.5q-30 -32 -94 -101t-93 -99.5t-78 -81t-93 -92t-95 -85.5q181 -188 283.5 -299.5t224.5 -257.5q75 -90 187 -137q48 -21 147 -26v-68h-750v68q197 9 197 67q0 78 -473 551h-33v-489q0 -74 64 -101q19 -7 69 -16.5t78 -11.5v-68h-635z" />
<glyph unicode="L" horiz-adv-x="1292" d="M94 0v68q110 6 148 20q63 23 63 102v1002q0 74 -63 102q-28 12 -74.5 24t-73.5 13v68h641v-68q-83 -4 -149 -26q-64 -20 -64 -103v-938q0 -47 2 -74.5t12.5 -51t24 -34t44.5 -18t65.5 -9t95.5 -1.5q230 0 281 53q42 46 103 142.5t75 146.5h69l-30 -418h-1170z" />
<glyph unicode="M" horiz-adv-x="1978" d="M39 0v68q145 17 190 49q37 26 52.5 91t15.5 191v709q0 116 -64 168q-64 51 -184 55v68h496l442 -1047l381 873q40 92 47 174h473v-68q-92 -5 -151 -24q-64 -20 -64 -101v-1009q0 -70 64 -101q17 -8 69.5 -17t83.5 -11v-68h-676v68q146 8 179 24q67 36 67 105v1011 l-522 -1185h-49q-30 96 -109 284l-387 930v-827q0 -123 17.5 -187.5t52.5 -93.5q24 -20 95.5 -39.5t105.5 -21.5v-68h-625z" />
<glyph unicode="N" horiz-adv-x="1634" d="M12 1331v68h432l846 -1065v661q0 233 -69 277q-28 18 -100 37.5t-109 21.5v68h630v-68q-31 -2 -98 -18.5t-90 -30.5q-39 -25 -53.5 -89t-14.5 -185v-1022h-86l-907 1142v-716q0 -123 17.5 -187.5t52.5 -93.5q24 -20 100.5 -40.5t110.5 -22.5v-68h-635v68q29 2 101 21.5 t89 31.5q37 26 52.5 89t15.5 191v680q0 46 -18 92t-48 70q-37 30 -107.5 58.5t-111.5 29.5z" />
<glyph unicode="O" horiz-adv-x="1591" d="M80 684q0 336 199 535q210 213 518 213q301 0 520 -213q91 -91 142.5 -225.5t51.5 -284.5q0 -339 -213 -545q-213 -197 -510 -197q-284 0 -489 193q-219 206 -219 524zM328 694q0 -135 29 -250t85.5 -203t147.5 -138t207 -50q154 0 261 86.5t156.5 230t49.5 332.5 q0 100 -15.5 191.5t-51 175t-88.5 144.5t-133 97t-179 36q-219 0 -344 -172t-125 -480z" />
<glyph unicode="P" horiz-adv-x="1275" d="M86 1331v68h686q122 0 220.5 -39.5t158 -116.5t59.5 -180q0 -107 -45 -192t-120.5 -136t-168 -77.5t-194.5 -26.5h-160v-441q0 -78 64 -102q41 -15 162 -20v-68h-654v68q110 6 148 20q63 23 63 102v1010q0 85 -63 105q-68 21 -156 26zM522 713h101q84 0 147.5 22.5 t97.5 54.5t55 76t27 77.5t6 68.5q0 62 -14 114t-45 97.5t-91 71.5t-144 26h-140v-608z" />
<glyph unicode="Q" horiz-adv-x="1607" d="M80 684q0 336 199 535q210 213 518 213q301 0 520 -213q91 -91 142.5 -225.5t51.5 -284.5q0 -405 -354 -615q16 -74 51.5 -126t81.5 -77.5t89.5 -36t90.5 -10.5q64 0 126 51.5t104 116.5l57 -45q-24 -37 -62 -78t-93 -86.5t-127 -74.5t-144 -29q-61 0 -116.5 15 t-108.5 48t-94.5 92.5t-63.5 141.5q-89 -27 -160 -27q-286 0 -489 191q-219 206 -219 524zM328 694q0 -317 127 -481q34 85 92.5 140t119 75.5t128.5 20.5q116 0 206 -75.5t127 -189.5q136 160 136 518q0 100 -15.5 191.5t-51 175t-88.5 144.5t-133 97t-179 36 q-219 0 -344 -172t-125 -480zM516 162q106 -115 281 -115q48 0 139 14q-12 151 -66.5 216t-152.5 65q-18 0 -42 -7.5t-54.5 -25.5t-59.5 -56.5t-45 -90.5z" />
<glyph unicode="R" horiz-adv-x="1482" d="M94 0v68q110 6 148 20q63 23 63 102v1012q0 83 -63 103q-67 22 -148 26v68h713q64 0 124 -11t116 -36.5t97.5 -61.5t66 -90.5t24.5 -120.5q0 -65 -20.5 -117t-52.5 -87t-86 -64.5t-105.5 -48t-126.5 -39.5v-21q262 -62 342 -260q15 -37 32.5 -87.5t34 -101t17.5 -52.5 q12 -35 27.5 -58.5t36.5 -35t32 -15t33 -8.5q66 -13 125 -16v-68h-449q-48 231 -117 406q-44 113 -135.5 188.5t-195.5 75.5h-105v-480q0 -78 64 -102q37 -14 155 -20v-68h-647zM522 750h131q140 0 235 85t95 224q0 132 -78.5 197t-204.5 65h-178v-571z" />
<glyph unicode="S" horiz-adv-x="1144" d="M92 479h68q28 -72 55.5 -128t68 -113.5t86.5 -95t109 -61.5t137 -24q252 0 252 246q0 85 -49.5 153.5t-140.5 104.5q-214 86 -293 121q-252 112 -252 365q0 161 122 269.5t298 108.5q77 0 163 -29.5t142 -72.5l70 96h69l11 -485h-66q-20 56 -36 96t-38.5 85.5t-45.5 76.5 t-54 61t-66.5 48t-81.5 29t-100 11q-20 0 -44 -5t-53 -19t-52 -34.5t-38.5 -56.5t-15.5 -81q0 -86 41.5 -143t130.5 -105q55 -30 148 -65t131 -54q75 -34 122.5 -63.5t91.5 -73.5t64.5 -103.5t20.5 -138.5q0 -185 -136.5 -305.5t-336.5 -120.5q-114 0 -203.5 30t-142.5 73 l-72 -96h-70z" />
<glyph unicode="T" horiz-adv-x="1318" d="M18 1032v367h1282v-367h-73q-21 77 -89 176t-128 107q-65 8 -166 8h-76v-1120q0 -76 63 -103q19 -7 79.5 -18.5t88.5 -13.5v-68h-680v68q127 7 168 22q64 24 64 103v1130h-76q-101 0 -166 -8q-60 -8 -129.5 -108.5t-87.5 -174.5h-74z" />
<glyph unicode="U" horiz-adv-x="1634" d="M72 1331v68h637v-68q-89 -5 -148 -24q-63 -20 -63 -101v-776q0 -50 7.5 -94t31.5 -93.5t62.5 -84.5t107.5 -58.5t161 -23.5q93 0 165.5 24.5t114.5 62t69 88t36 95.5t9 92v561q0 230 -70 275q-35 23 -101 39t-108 18v68h633v-68q-37 -2 -98.5 -15.5t-90.5 -31.5 q-67 -43 -67 -272v-602q0 -96 -35.5 -174t-90.5 -127t-127.5 -82t-142 -46.5t-137.5 -13.5q-130 0 -236 32.5t-173 88.5t-103 128t-36 153v827q0 68 -64 102q-25 12 -69.5 21.5t-73.5 11.5z" />
<glyph unicode="V" horiz-adv-x="1398" d="M-41 1331v68h635v-68q-28 -2 -40.5 -2.5t-42 -3t-45 -6.5t-35 -9t-28 -13.5t-8.5 -18.5q0 -22 11 -51q252 -699 339 -934q42 100 120.5 283.5t127 298t76.5 186.5q47 119 47 182q0 21 -23 37.5t-60 26.5t-74.5 15.5t-77.5 8.5v68h571v-68q-67 -3 -133 -39 q-38 -22 -61 -50.5t-46 -78.5q-313 -726 -501 -1179h-86q-207 577 -439 1212q-12 32 -33.5 55t-58.5 45q-57 31 -135 35z" />
<glyph unicode="W" horiz-adv-x="2048" d="M-31 1331v68h627v-68q-29 -2 -41 -2.5t-42.5 -3t-46 -6t-35.5 -9t-29 -14t-9 -18.5q0 -27 8 -51q9 -27 49 -159t102 -334t126 -404l301 819q0 107 -82 149q-53 27 -168 33v68h639v-68q-197 -11 -197 -53q0 -20 9 -51q83 -266 288 -889q161 447 242 721q41 140 41 184 q0 74 -219 88v68h561v-68q-67 -3 -133 -39q-41 -24 -65 -52.5t-42 -76.5q-113 -300 -419 -1179h-84q-152 509 -326 1042l-381 -1042h-88q-66 216 -151 492.5t-140.5 458t-79.5 261.5q-16 57 -82 100q-58 31 -133 35z" />
<glyph unicode="X" horiz-adv-x="1564" d="M-6 0v68q94 5 145 26q95 41 174 137q70 85 192.5 240.5t162.5 206.5q-238 333 -361 493q-40 51 -70.5 78.5t-84.5 55.5q-41 20 -154 26v68h747v-68q-9 0 -29 -1t-31.5 -1.5t-30.5 -2t-30.5 -3.5t-27 -5t-24.5 -8t-18 -11.5t-13 -15t-4 -19.5q0 -21 22 -63.5t68 -110 t84 -120t102 -139.5q301 368 301 433q0 14 -7 25t-23.5 18t-30 11t-40.5 7t-41 4t-44 2v68h583v-68q-94 -5 -145 -26q-59 -26 -94 -54t-80 -84q-142 -176 -322 -403q318 -437 392 -533q59 -76 157 -141q21 -15 154 -22v-68h-748v68q9 0 37.5 1t42 2t38 3.5t37.5 7t28 11 t21.5 17.5t6.5 25q0 19 -17 54t-57 93.5t-68 97t-88 119.5t-79 107q-135 -163 -235.5 -300t-100.5 -171q0 -11 3.5 -20t11 -15.5t15 -11t21 -8t23.5 -5.5t27.5 -3t28 -1.5t29.5 -1.5t28 -1v-68h-584z" />
<glyph unicode="Y" horiz-adv-x="1284" d="M-63 1331v68h659v-68q-8 0 -33.5 -1.5t-39.5 -2.5t-38 -3t-38 -5t-29 -8t-22 -12.5t-7 -16.5q0 -37 313 -594q328 516 328 567q0 15 -8.5 26.5t-25.5 19t-34.5 13t-45 9t-46.5 5t-49 3.5v68h533v-68q-19 -2 -60.5 -15.5t-58.5 -23.5q-44 -25 -63 -41.5t-56 -62.5 q-52 -65 -109 -154.5t-88 -144.5t-114 -205q-72 -130 -72 -229v-252q0 -76 64 -103q19 -7 79.5 -18.5t88.5 -13.5v-68h-680v68q127 7 168 22q63 23 63 103v335q0 50 -53 154q-110 216 -260 477q-52 90 -135 139q-54 29 -131 33z" />
<glyph unicode="Z" horiz-adv-x="1286" d="M10 0v25l946 1298h-348q-115 0 -166 -10q-76 -16 -159 -117.5t-119 -194.5h-70l43 398h1104v-25l-946 -1298h393q245 0 301 53q62 58 121 148.5t88 162.5h70l-47 -440h-1211z" />
<glyph unicode="[" horiz-adv-x="696" d="M195 -236v1477h479v-74h-328v-1331h328v-72h-479z" />
<glyph unicode="\" horiz-adv-x="860" d="M72 1513l104 27l639 -1948l-102 -26z" />
<glyph unicode="]" horiz-adv-x="696" d="M23 -164h327v1331h-327v74h479v-1477h-479v72z" />
<glyph unicode="^" horiz-adv-x="1327" d="M96 319q0 163 174 242q-44 31 -67.5 54t-39.5 59t-16 84q0 82 73.5 148.5t176.5 66.5q110 0 176.5 -45.5t98.5 -141.5l-45 -22q-40 59 -75 81.5t-95 22.5q-67 0 -104.5 -43t-37.5 -116q0 -71 25 -127q61 30 125 30q47 0 74.5 -21t27.5 -50q0 -27 -19.5 -48.5t-53.5 -21.5 t-66 10t-49 19.5t-53 31.5q-68 -28 -68 -141q0 -116 114.5 -192t325.5 -76q179 0 281 91.5t102 225.5q0 113 -54.5 165t-141.5 52q-75 0 -116.5 -37.5t-41.5 -99.5q0 -64 31 -106q33 80 86 80q42 0 62 -25t20 -53q0 -45 -23.5 -77t-66.5 -32q-79 0 -126.5 64t-47.5 166 q0 108 72 173.5t192 65.5q19 0 78 -3t75 -3q68 0 101.5 30t33.5 79q0 54 -28 79q-37 -63 -76 -63q-38 0 -56 21.5t-18 54.5q0 36 25 65t72 29q64 0 104.5 -59.5t40.5 -145.5q0 -92 -56.5 -145t-156.5 -53h-18q116 -67 116 -228q0 -59 -17 -118t-60.5 -121.5t-109 -110.5 t-171.5 -78.5t-238 -30.5q-126 0 -234.5 45.5t-172.5 124.5t-64 174z" />
<glyph unicode="_" horiz-adv-x="1228" d="M-10 -221h1249v-101h-1249v101z" />
<glyph unicode="`" horiz-adv-x="1024" d="M328 1440q0 30 24 54t58 24q40 0 68.5 -19t56.5 -69q87 -146 200 -312l-33 -24q-94 75 -187.5 146t-113.5 87q-41 33 -57 55t-16 58z" />
<glyph unicode="a" horiz-adv-x="1124" d="M-33 0v66q27 2 69 10.5t58 17.5q49 27 82 105q38 85 86 197t82.5 194.5t91.5 220.5t84 201h92q322 -774 355 -856q18 -44 57 -62q33 -16 121 -28v-66h-549v66q62 4 117 16.5t55 34.5q0 10 -6 28l-80 193h-356q-35 -88 -47 -125q-17 -53 -17 -78q0 -48 189 -69v-66h-484z M356 412h293l-147 358z" />
<glyph unicode="b" horiz-adv-x="1136" d="M92 0v66q104 12 131 20q45 13 45 64v690q0 46 -47 65q-53 22 -123 27v65h568q50 0 100 -10.5t97 -32.5t76.5 -64t29.5 -97q0 -59 -19.5 -102.5t-57.5 -72t-80.5 -45.5t-102.5 -32v-9q43 -5 84 -15.5t85.5 -31.5t77 -49.5t53.5 -72.5t21 -97q0 -66 -35 -119t-89.5 -83.5 t-115 -47t-118.5 -16.5h-580zM463 154q7 -44 39.5 -64t95.5 -20q209 0 209 225q0 88 -58.5 143.5t-160.5 55.5q-11 0 -60.5 -1t-64.5 -1v-338zM463 563h90q199 0 199 203q0 164 -172 164q-47 0 -117 -4v-363z" />
<glyph unicode="c" horiz-adv-x="1081" d="M100 487q0 148 68 270.5t190.5 193.5t274.5 71q60 0 124.5 -22t100.5 -52l43 64h70l8 -387h-61q-34 140 -116.5 231.5t-209.5 91.5q-119 0 -196 -112.5t-77 -337.5q0 -187 93.5 -302.5t236.5 -115.5q119 0 190 55.5t124 169.5l67 -33q-26 -63 -63 -114t-88.5 -94 t-123 -67t-155.5 -24q-224 0 -362 142t-138 372z" />
<glyph unicode="d" horiz-adv-x="1269" d="M86 0v66q102 6 135 16q47 13 47 65v693q0 51 -47 67q-63 20 -129 25v65h518q67 0 137.5 -14t148 -51t137.5 -91.5t99 -144.5t39 -202q0 -97 -33.5 -179t-90.5 -139.5t-132.5 -97.5t-160.5 -59t-174 -19h-494zM463 178q0 -53 32.5 -78.5t106.5 -25.5q177 0 261.5 111.5 t84.5 308.5q0 193 -104 312.5t-279 119.5q-15 0 -50 -1t-52 -1v-746z" />
<glyph unicode="e" horiz-adv-x="1118" d="M84 0v66q101 7 137 18q47 13 47 66v690q0 45 -47 65q-20 8 -65.5 16.5t-71.5 10.5v65h883v-252h-60q-15 49 -65 111t-86 66q-74 8 -135 8h-158v-377h100q88 0 129 41q16 16 28 55.5t15 75.5h64v-424h-64q-1 33 -16 78t-27 59q-40 45 -129 45h-100v-284q0 -83 30 -105 t138 -22q70 0 101 1t71.5 9t56.5 24q31 29 71 103t54 115h62l-27 -324h-936z" />
<glyph unicode="f" horiz-adv-x="1036" d="M84 0v66q107 7 137 16q47 14 47 65v693q0 50 -47 65q-65 22 -137 27v65h891v-264h-62q-18 56 -65 120t-90 69q-74 8 -133 8h-162v-385h104q97 0 138 41q14 14 26.5 51.5t16.5 79.5h63v-426h-63q-3 37 -16 81t-27 58q-45 45 -138 45h-104v-321q0 -47 47 -64q10 -4 63 -13 t78 -11v-66h-567z" />
<glyph unicode="g" horiz-adv-x="1220" d="M100 479q0 114 42 214t116.5 172.5t181 114.5t230.5 42q61 0 131 -23t110 -53l43 66h68l10 -371h-61q-106 307 -359 307q-123 0 -205.5 -120.5t-82.5 -338.5q0 -190 86 -314t213 -124q109 0 164 45.5t63 120.5v72q0 32 -8.5 51t-36.5 27q-67 20 -174 26v66h571v-62 q-1 0 -55 -10t-70 -16q-45 -16 -45 -70v-334l-51 -10l-88 90q-184 -74 -332 -74q-84 0 -165.5 34.5t-147.5 97t-107 160.5t-41 214z" />
<glyph unicode="h" horiz-adv-x="1398" d="M94 0v66q94 6 127 16q47 14 47 65v693q0 50 -47 65q-81 24 -127 27v65h541v-65q-68 -4 -125 -21q-47 -13 -47 -65v-297h473v291q0 46 -45 65q-19 8 -61 17t-66 10v65h541v-65q-76 -5 -127 -21q-48 -16 -48 -65v-692q0 -45 48 -64q13 -6 58.5 -14t68.5 -10v-66h-541v66 q97 6 127 16q45 14 45 65v326h-473v-319q0 -50 47 -64q35 -13 125 -24v-66h-541z" />
<glyph unicode="i" horiz-adv-x="731" d="M90 0v66q101 7 133 16q47 14 47 63v697q0 47 -47 63q-79 24 -133 27v65h555v-65q-78 -5 -133 -21q-47 -11 -47 -63v-694q0 -46 47 -64q11 -5 60 -14t73 -10v-66h-555z" />
<glyph unicode="j" horiz-adv-x="872" d="M27 135q0 53 35 92t88 39q54 0 86 -34t32 -85q0 -39 -20 -68.5t-55 -41.5v-10h28q57 0 98.5 16t65 41.5t37.5 64.5t18 75.5t4 84.5v531q0 45 -47 65q-55 22 -145 27v65h565v-65q-76 -5 -131 -21q-47 -13 -47 -65v-594q0 -40 -25 -88t-69 -92.5t-115.5 -74.5t-153.5 -30 q-126 0 -187.5 52t-61.5 116z" />
<glyph unicode="k" horiz-adv-x="1230" d="M98 0v66q89 6 123 16q47 13 47 65v693q0 48 -47 65q-62 23 -123 27v65h533v-65q-71 -4 -123 -21q-45 -15 -45 -65v-344q209 165 302 254t93 131q0 12 -16.5 20.5t-41.5 13.5t-44.5 7.5t-36.5 3.5v65h475v-65q-159 -10 -221 -72q-164 -164 -301 -282q35 -40 93 -105 t89 -101t76.5 -89t87.5 -105q21 -25 53.5 -52.5t56.5 -39.5q33 -14 132 -20v-66h-582v66q129 9 129 59q0 45 -259 326q-17 18 -24 26l-61 -41v-282q0 -51 43 -64q42 -16 102 -24v-66h-510z" />
<glyph unicode="l" horiz-adv-x="1044" d="M88 0v66q91 6 133 18q47 16 47 66v686q0 51 -47 67q-20 8 -61.5 18t-65.5 11v65h555v-65q-84 -5 -139 -23q-47 -15 -47 -65v-649q0 -79 32 -103t138 -24q147 0 194 47q34 34 75 106.5t56 124.5h64l-31 -346h-903z" />
<glyph unicode="m" horiz-adv-x="1607" d="M45 932v65h473l293 -723l248 600q31 72 35 123h432v-65q-92 -6 -144 -21q-41 -12 -41 -65v-692q0 -46 41 -64q13 -6 62.5 -14t75.5 -10v-66h-570v66q121 7 150 20q47 20 47 68v698h-6l-363 -834h-63q-13 53 -74 197l-279 682h-8v-592q0 -153 52 -192q19 -12 82.5 -28.5 t89.5 -18.5v-66h-521v63q2 0 31.5 5.5t47.5 9t42.5 11t36.5 15.5q51 34 51 195v481q0 85 -45 113q-24 16 -79 26.5t-97 12.5z" />
<glyph unicode="n" horiz-adv-x="1308" d="M18 932v65h414l559 -735v432q0 84 -9 129.5t-40 61.5q-27 15 -87.5 29t-98.5 18v65h530v-65q-28 -2 -84.5 -15t-73.5 -24q-28 -16 -37.5 -63.5t-9.5 -127.5v-716h-104l-623 811v-488q0 -159 49 -196q16 -11 88.5 -28t100.5 -19v-66h-535v66q26 2 87.5 16.5t72.5 23.5 q49 33 49 195v459q0 31 -12.5 62.5t-34.5 47.5q-26 19 -92 39t-109 23z" />
<glyph unicode="o" horiz-adv-x="1251" d="M100 487q0 239 152 385q152 152 373 152q112 0 202.5 -35.5t176.5 -116.5q70 -64 108.5 -161t38.5 -205q0 -247 -162 -391q-155 -142 -371 -142q-197 0 -352 140q-166 143 -166 374zM324 496q0 -126 30.5 -224.5t100 -160.5t170.5 -62q150 0 226.5 124.5t76.5 328.5 q0 88 -16 164t-50 141t-94.5 103t-142.5 38q-141 0 -221 -119.5t-80 -332.5z" />
<glyph unicode="p" horiz-adv-x="1048" d="M88 932v65h553q141 0 236.5 -74t95.5 -190q0 -71 -34.5 -133t-90.5 -103t-127.5 -65t-145.5 -24h-112v-258q0 -53 47 -66q13 -4 66.5 -10t87.5 -8v-66h-570v66q84 5 127 18q47 15 47 66v692q0 54 -47 67q-76 20 -133 23zM463 481h65q66 0 112.5 20.5t69 55t31.5 68.5 t9 73q0 43 -9 80.5t-29.5 73t-60.5 56t-96 20.5h-92v-447z" />
<glyph unicode="q" horiz-adv-x="1257" d="M100 487q0 239 152 385q152 152 373 152q112 0 202.5 -35.5t176.5 -116.5q70 -64 108.5 -161t38.5 -205q0 -247 -162 -391q-51 -47 -100 -74q27 -83 76.5 -131.5t142.5 -48.5q97 0 190 127l52 -41q-21 -30 -35 -47.5t-48.5 -53.5t-67 -56.5t-82.5 -38t-103 -17.5 q-108 0 -184.5 63t-100.5 187q-64 -11 -111 -11q-197 0 -352 140q-166 143 -166 374zM324 496q0 -200 59 -312q76 156 238 156q76 0 138.5 -48t96.5 -140q72 112 72 350q0 88 -16 164t-50 141t-94.5 103t-142.5 38q-141 0 -221 -119.5t-80 -332.5zM422 125q76 -88 203 -88 q47 0 92 10q-17 107 -53 155t-101 48q-21 0 -44.5 -8t-53 -38t-43.5 -79z" />
<glyph unicode="r" horiz-adv-x="1208" d="M94 0v66q84 5 127 18q47 15 47 66v692q0 54 -47 67q-71 20 -127 23v65h572q81 0 154 -24.5t124 -79t51 -129.5q0 -44 -19 -83t-48.5 -66.5t-68.5 -50.5t-74 -36.5t-72 -23.5v-8q194 -55 248 -187q47 -106 59 -145q16 -46 35.5 -62.5t54.5 -25.5q39 -10 98 -10v-66h-364 q-37 169 -86 283q-34 80 -92.5 128t-133.5 48h-69v-309q0 -53 47 -66q38 -13 125 -18v-66h-541zM463 530h80q100 0 164.5 50t64.5 159q0 106 -53 147.5t-141 41.5h-115v-398z" />
<glyph unicode="s" horiz-adv-x="968" d="M111 352h61q19 -56 38 -97.5t47.5 -82.5t63 -67t82.5 -42t107 -16q97 0 144.5 47t47.5 131q0 59 -35 97t-118 67q-31 11 -104.5 33t-122.5 43q-91 38 -135 105t-44 171q0 121 98 201t236 80q59 0 120.5 -21t104.5 -53l54 64h57l14 -350h-63q-20 67 -42.5 114t-59.5 89 t-93 63.5t-131 21.5q-44 0 -92.5 -37.5t-48.5 -107.5q0 -63 29.5 -100t103.5 -68q42 -17 116 -39t105 -35q112 -46 161.5 -107.5t49.5 -168.5q0 -134 -102.5 -224t-257.5 -90t-269 78l-53 -65h-57z" />
<glyph unicode="t" horiz-adv-x="1058" d="M51 666v331h959v-331h-58q-24 83 -78 167.5t-98 90.5q-52 6 -104 6h-43v-772q0 -49 47 -66q12 -4 73 -14t85 -12v-66h-607v66q127 8 158 18q47 16 47 68v778h-41q-53 0 -106 -6q-44 -6 -98 -90.5t-81 -167.5h-55z" />
<glyph unicode="u" horiz-adv-x="1300" d="M76 932v65h540v-63q-64 -4 -124 -23q-48 -14 -48 -65v-527q0 -36 4 -65t19 -64.5t41 -60t74 -41t114 -16.5q65 0 116 17.5t79.5 43.5t47 60.5t24.5 64.5t6 61v379q0 162 -49 189q-25 16 -81.5 29.5t-93.5 17.5v63h519v-65q-30 -2 -84.5 -13.5t-75.5 -23.5 q-28 -16 -36.5 -62.5t-8.5 -125.5v-398q0 -69 -22.5 -125.5t-61 -95.5t-89.5 -66t-107 -39t-115 -12q-196 0 -307 85.5t-111 205.5v578q0 44 -47 65q-19 8 -59 16.5t-64 10.5z" />
<glyph unicode="v" horiz-adv-x="1110" d="M-20 932v65h542v-65q-55 -2 -109.5 -14t-54.5 -33q0 -6 9 -33q8 -21 41 -108.5t86.5 -228.5t105.5 -275q54 118 130 290.5t91 206.5q35 77 35 125q0 29 -59.5 46.5t-128.5 23.5v65h471v-65q-70 -5 -117 -29q-42 -20 -76 -98q-14 -30 -158.5 -345.5t-214.5 -471.5h-86 q-55 144 -153.5 402t-169.5 441q-11 27 -24.5 43t-37.5 29q-48 25 -122 29z" />
<glyph unicode="w" horiz-adv-x="1626" d="M-8 932v65h504v-63q-49 -2 -93.5 -15t-44.5 -32q0 -27 4 -35q6 -18 34 -104.5t72 -220.5t89 -271l199 506q0 96 -74 141q-17 10 -54 19.5t-63 11.5v63h537v-63q-50 -2 -101 -15t-51 -32q0 -25 4 -35q1 -4 201 -590q126 324 176 475q29 104 29 125q0 29 -60.5 48.5 t-125.5 23.5v63h473v-65q-25 -2 -62 -11.5t-57 -19.5q-49 -22 -76 -96q-145 -357 -311 -815h-94q-96 296 -234 700l-272 -700h-97q-47 143 -113 343t-107.5 326.5t-59.5 182.5q-8 23 -19.5 36.5t-35.5 26.5q-40 22 -117 27z" />
<glyph unicode="x" horiz-adv-x="1239" d="M12 0v66q69 4 123 26q75 34 119 84q146 166 264 305q-177 238 -256 336q-47 58 -108 88q-14 7 -62.5 16t-75.5 11v65h619v-63q-6 0 -27.5 -0.5t-32.5 -1t-30.5 -2t-30.5 -4.5t-23.5 -7.5t-18 -12t-5.5 -17.5q0 -28 45 -93.5t137 -185.5q114 132 163.5 194.5t49.5 82.5 q0 22 -44.5 33.5t-102.5 13.5v63h469v-65q-36 -2 -113 -27q-77 -27 -129 -86q-135 -152 -237 -272q200 -272 280 -369q53 -61 111 -88q11 -6 59.5 -14t75.5 -10v-66h-621v63q105 6 133 16q35 11 35 34q0 9 -6 23.5t-19.5 36t-26 40t-35.5 48.5t-37.5 49t-42 54.5t-40.5 51.5 q-239 -270 -239 -305q0 -24 42 -34t109 -14v-63h-471z" />
<glyph unicode="y" horiz-adv-x="1046" d="M-33 932v65h561v-65q-54 -2 -112 -12.5t-58 -28.5t180 -315q9 -15 14 -23.5t13 -22t15 -24.5q66 101 94 144t66 102.5t51.5 85.5t13.5 34q0 46 -170 60v65h448v-65q-17 -2 -57 -12t-53 -17q-26 -12 -39 -24t-41 -43q-105 -120 -250 -379q-33 -59 -33 -156v-143 q0 -47 47 -66q12 -5 73 -15t87 -11v-66h-608v66q125 8 160 18q47 15 47 68v219q0 30 -43 104q-111 204 -199 340q-38 65 -86 90q-47 22 -121 27z" />
<glyph unicode="z" horiz-adv-x="1050" d="M55 0v45l672 885h-219q-87 0 -123 -8q-37 -7 -82.5 -56t-79 -105.5t-53.5 -107.5h-59l39 344h823v-45l-672 -882h260q173 0 211 36q45 37 92 119.5t72 149.5h61l-43 -375h-899z" />
<glyph unicode="{" horiz-adv-x="778" d="M74 457v137q159 9 216.5 48t57.5 144q0 33 -17.5 116t-17.5 116q0 146 94 202t293 56v-66q-121 -6 -166 -39t-45 -124q0 -21 11.5 -87.5t11.5 -101.5q0 -66 -18.5 -116t-45 -80t-71.5 -52.5t-83 -33t-95 -21.5v-59q57 -11 95 -21.5t83 -33t71.5 -52.5t45 -80t18.5 -116 q0 -35 -11.5 -102t-11.5 -89q0 -89 45.5 -122.5t165.5 -39.5v-65q-199 0 -293 56t-94 200q0 34 17.5 116.5t17.5 116.5q0 105 -58 144.5t-216 48.5z" />
<glyph unicode="|" horiz-adv-x="651" d="M272 -424v1952h107v-1952h-107z" />
<glyph unicode="}" horiz-adv-x="778" d="M78 -160q120 6 165.5 39.5t45.5 122.5q0 22 -11.5 89t-11.5 102q0 66 18.5 116t45 80t72 52.5t83.5 33t95 21.5v59q-57 11 -95 21.5t-83.5 33t-72 52.5t-45 80t-18.5 116q0 35 11.5 101.5t11.5 87.5q0 91 -45 124t-166 39v66q199 0 293 -56t94 -202q0 -33 -17.5 -116 t-17.5 -116q0 -105 58 -144t217 -48v-137q-158 -9 -216.5 -48.5t-58.5 -144.5q0 -34 17.5 -116.5t17.5 -116.5q0 -144 -94 -200t-293 -56v65z" />
<glyph unicode="~" horiz-adv-x="1105" d="M113 399q27 97 107.5 176.5t174.5 79.5q66 0 132.5 -22.5t123.5 -45t99 -22.5q78 0 121.5 25.5t78.5 91.5l41 -14q-27 -97 -107.5 -176.5t-174.5 -79.5q-70 0 -136.5 22.5t-121.5 45t-97 22.5q-78 0 -121.5 -25.5t-78.5 -91.5z" />
<glyph unicode="&#xa1;" horiz-adv-x="749" d="M242 1016q0 57 39.5 96t97.5 39q57 0 96 -39t39 -96t-39 -97t-96 -40q-58 0 -97.5 40t-39.5 97zM244 115q0 37 44 241t60 367h64q14 -164 57 -367t43 -241q0 -62 -37 -102t-96 -40q-61 0 -98 40t-37 102z" />
<glyph unicode="&#xa2;" horiz-adv-x="983" d="M90 621q0 130 56.5 242t165 182.5t247.5 70.5q27 0 39 -2l61 258l74 -16l-59 -250q118 -21 186 -85t68 -147q0 -61 -31 -96t-84 -35q-42 0 -73 27.5t-31 75.5q0 49 19.5 80t19.5 45q-8 48 -91 65l-184 -784q56 -29 123 -29q95 0 159 43.5t122 136.5l63 -41 q-61 -106 -166.5 -174.5t-226.5 -68.5q-62 0 -103 8l-88 -369l-71 17l88 370q-139 50 -211 175.5t-72 300.5zM295 629q0 -101 30 -186.5t83 -141.5l176 746h-29q-49 0 -93 -22.5t-82.5 -69.5t-61.5 -131t-23 -195z" />
<glyph unicode="&#xa3;" horiz-adv-x="1447" d="M-4 63q0 78 69.5 134.5t184.5 56.5q69 0 147.5 -18t137.5 -43q0 243 -27 333h-277v82h267q-1 9 -11.5 54.5t-17 96t-6.5 111.5q0 84 19 161t58 144t95 116t135.5 77.5t173.5 28.5q84 0 152 -26.5t111 -71t66 -100.5t23 -118q0 -64 -33.5 -116t-93.5 -52q-36 0 -61.5 11 t-38 30t-17.5 37.5t-5 40.5q0 30 15 54t33 35.5t33 21.5t15 16q0 19 -3 36.5t-15 42.5t-32 43t-60 31t-93 13q-35 0 -68.5 -7.5t-71 -30t-65.5 -57.5t-46.5 -95t-18.5 -138q0 -36 15 -185t15 -204h347v-82h-349q-3 -82 -33.5 -186t-72.5 -164q22 -7 80 -28t80 -27.5t67 -18 t85.5 -15t90.5 -3.5q62 0 110.5 19.5t79 49t52.5 73.5t32.5 83.5t18.5 89.5l76 -8q-8 -65 -25 -125.5t-52.5 -127.5t-84.5 -115.5t-127 -80.5t-174 -32q-151 0 -383 137q-49 -61 -134.5 -100t-154.5 -39q-117 0 -175 40t-58 115zM63 66q0 -33 45 -57.5t119 -24.5 q66 0 131.5 25.5t108.5 66.5q-152 84 -270 84q-64 0 -99 -32t-35 -62z" />
<glyph unicode="&#xa4;" d="M113 135l245 246q-47 68 -47 156q0 82 47 155l-245 246l75 78l246 -246q71 49 160 49q88 0 156 -47l243 244l78 -78q-242 -242 -242 -244q50 -73 50 -157q0 -87 -52 -158l244 -244l-76 -78l-243 244q-73 -47 -158 -47q-87 0 -158 49l-246 -246zM412 537q0 -75 53.5 -131 t128.5 -56t129.5 56t54.5 131t-54.5 130.5t-129.5 55.5t-128.5 -55.5t-53.5 -130.5z" />
<glyph unicode="&#xa5;" horiz-adv-x="1185" d="M-14 1186v57h577v-57q-8 -1 -28.5 -2t-34 -1.5t-33 -2.5t-32 -5t-25.5 -7t-19 -10.5t-6 -14.5q0 -31 260 -490q273 429 273 467q0 13 -7 23t-23 16.5t-29.5 11t-39.5 7.5t-40 4.5t-42 3.5v57h467v-57q-16 -2 -51.5 -13t-48.5 -20q-37 -21 -53.5 -35.5t-49.5 -54.5 q-46 -57 -92.5 -130t-79.5 -130.5t-96 -173.5q-28 -54 -33 -68h312v-80h-330q-4 -20 -4 -59v-229q0 -33 16 -60t43 -39q44 -20 154 -26v-68h-635v68q133 7 164 18q28 9 45.5 35.5t17.5 60.5v299h-323v80h311q-11 28 -31 66q-87 173 -223 411q-45 77 -117 119q-43 25 -114 29 z" />
<glyph unicode="&#xa6;" horiz-adv-x="651" d="M272 379h107v-803h-107v803zM272 745v783h107v-783h-107z" />
<glyph unicode="&#xa7;" horiz-adv-x="1167" d="M152 694q0 115 78 183.5t186 83.5q-80 121 -80 247q0 123 96.5 213t233.5 90q120 0 195 -67t75 -152q0 -52 -31 -86.5t-82 -34.5q-40 0 -70 28.5t-30 66.5q0 26 14.5 59t14.5 55q0 33 -25 48.5t-82 15.5q-76 0 -123 -53.5t-47 -139.5q0 -37 6 -65.5t24.5 -61.5t34 -54.5 t52.5 -70.5q34 -46 72.5 -90t92.5 -104t97 -111q90 -108 126 -174.5t36 -154.5q0 -206 -271 -254q89 -134 89 -269q0 -124 -94 -215.5t-232 -91.5q-129 0 -209 61t-80 148q0 56 34 90.5t87 34.5q42 0 72 -27.5t30 -66.5q0 -24 -15 -55.5t-15 -49.5q0 -31 27.5 -49t82.5 -18 q73 0 118.5 54t45.5 157q0 70 -23.5 120t-87.5 132q-42 56 -129.5 149.5t-138.5 153.5q-85 103 -120 170t-35 155zM293 731q0 -84 90 -192q53 -64 163.5 -186t155.5 -187q80 24 122 64t42 108q0 81 -86 180q-64 78 -171.5 203t-149.5 180q-85 -20 -125.5 -58.5t-40.5 -111.5 z" />
<glyph unicode="&#xa8;" horiz-adv-x="1024" d="M170 1341q0 49 35 85t82 36q53 0 88 -33.5t35 -78.5q0 -52 -35.5 -88.5t-87.5 -36.5q-47 0 -82 34.5t-35 81.5zM614 1341q0 50 35 85.5t84 35.5q51 0 86 -33.5t35 -78.5q0 -51 -35 -88t-86 -37q-49 0 -84 34.5t-35 81.5z" />
<glyph unicode="&#xa9;" horiz-adv-x="1929" d="M80 514q0 178 70.5 341t189.5 281t283.5 188.5t343.5 70.5q178 0 341 -70.5t281.5 -188.5t189 -281t70.5 -341q0 -179 -70.5 -343t-189 -282.5t-281.5 -189t-341 -70.5q-240 0 -444 119t-323.5 323t-119.5 443zM158 514q0 -167 63.5 -318t171.5 -260t258 -173t316 -64 q165 0 314.5 64t257 173t170.5 260t63 318q0 165 -63 314.5t-170.5 258t-257 172.5t-314.5 64q-166 0 -316 -64t-258 -172.5t-171.5 -258t-63.5 -314.5zM489 506q0 214 146.5 356t372.5 142q56 0 120 -18t99 -44l45 76l59 -2l8 -371h-51q-18 52 -33.5 88.5t-42.5 77 t-58.5 65.5t-79 41.5t-105.5 16.5q-53 0 -100.5 -25t-87 -74t-62.5 -131.5t-23 -187.5q0 -176 92 -283.5t232 -107.5q116 0 184 56t117 159l49 -23q-130 -290 -391 -290q-222 0 -356 129.5t-134 349.5z" />
<glyph unicode="&#xaa;" horiz-adv-x="989" d="M92 590v47q17 2 45.5 9t40.5 13q30 16 53 70q92 207 236 555h68q241 -585 241 -586q14 -28 39 -39q11 -6 82 -22v-47h-375v47q117 13 117 33q0 6 -6 18l-53 129h-238q-22 -51 -33 -84q-10 -30 -10 -49q0 -5 3 -9t9 -8t12.5 -7t16.5 -5.5t17.5 -4.5t19 -4.5t17.5 -3.5 t17 -3t13 -2v-47h-332zM135 317v95h705v-95h-705zM365 874h190l-96 234z" />
<glyph unicode="&#xab;" horiz-adv-x="1146" d="M102 487q0 34 7.5 47.5t33.5 34.5q208 158 428 344l43 -36l-321 -394l321 -387l-43 -37q-393 318 -424 342q-22 17 -28.5 23t-11.5 21t-5 42zM530 487q0 34 7.5 47.5t33.5 34.5q208 158 428 344l43 -36l-321 -394l321 -387l-43 -37q-393 318 -424 342q-22 17 -28.5 23 t-11.5 21t-5 42z" />
<glyph unicode="&#xac;" d="M100 520v107h959v-547h-117v440h-842z" />
<glyph unicode="&#xad;" horiz-adv-x="778" d="M82 446v158h614v-158h-614z" />
<glyph unicode="&#xae;" horiz-adv-x="1290" d="M109 907q0 144 72 267t195.5 194.5t268.5 71.5q108 0 207 -42.5t171.5 -114t115.5 -170t43 -206.5q0 -144 -72.5 -267t-196.5 -195t-268 -72q-145 0 -268.5 72t-195.5 195t-72 267zM166 907q0 -131 63.5 -242.5t174 -177t241.5 -65.5q130 0 240.5 65.5t174.5 177 t64 242.5q0 130 -64 241.5t-174.5 177t-240.5 65.5q-98 0 -187 -39t-152.5 -104t-101.5 -154.5t-38 -186.5zM375 627v41q43 0 67 8q23 8 23 37v424q0 32 -23 37q-19 7 -67 12v41h307q75 0 129.5 -36t54.5 -106q0 -67 -41.5 -97.5t-124.5 -53.5v-4q109 -21 146 -109 q6 -15 35 -102q2 -7 5 -13t5.5 -10t7 -7.5t6.5 -5t7.5 -3.5t6.5 -2.5t7 -1.5l6 -2q24 -6 57 -6v-41h-198q-21 94 -52 174q-18 46 -54.5 76t-78.5 30h-39v-194q0 -29 23 -37q24 -8 69 -8v-41h-284zM567 954h49q56 0 95 34t39 89q0 53 -32 79t-81 26h-70v-228z" />
<glyph unicode="&#xaf;" horiz-adv-x="1024" d="M174 1221v127h676v-127h-676z" />
<glyph unicode="&#xb0;" horiz-adv-x="839" d="M94 1124q0 91 48 168.5t122 119.5t152 42q86 0 159 -34.5t121.5 -110.5t48.5 -183q0 -86 -47.5 -160.5t-123 -116.5t-158.5 -42q-134 0 -228 84.5t-94 232.5zM238 1133q0 -109 49 -175.5t135 -66.5q73 0 125.5 62.5t52.5 168.5q0 116 -49 182t-133 66q-82 0 -131 -66.5 t-49 -170.5z" />
<glyph unicode="&#xb1;" horiz-adv-x="3117" d="M84 0v66q107 7 137 16q47 14 47 65v693q0 50 -47 65q-65 22 -137 27v65h891v-264h-62q-18 56 -65 120t-90 69q-74 8 -133 8h-162v-385h104q97 0 138 41q14 14 26.5 51.5t16.5 79.5h63v-426h-63q-3 37 -16 81t-27 58q-45 45 -138 45h-104v-321q0 -47 47 -64q10 -4 63 -13 t78 -11v-66h-567zM1120 0v66q107 7 137 16q48 15 48 65v693q0 49 -48 65q-65 22 -137 27v65h891v-264h-61q-18 55 -65.5 119.5t-90.5 69.5q-74 8 -133 8h-162v-385h105q96 0 137 41q14 14 26.5 51.5t16.5 79.5h63v-426h-63q-3 37 -16 81t-27 58q-45 45 -137 45h-105v-321 q0 -47 47 -64q10 -4 63.5 -13t78.5 -11v-66h-568zM2161 0v66q91 6 133 18q47 16 47 66v686q0 51 -47 67q-20 8 -61.5 18t-65.5 11v65h555v-65q-84 -5 -139 -23q-23 -7 -35.5 -25t-12.5 -40v-649q0 -79 32 -103t138 -24q148 0 195 47q34 34 75 106.5t56 124.5h64l-31 -346 h-903z" />
<glyph unicode="&#xb2;" horiz-adv-x="1263" d="M78 793q0 64 45 110.5t110 46.5q92 0 138 -86q8 -15 18.5 -49.5t24 -64t35.5 -52.5l30 2q59 62 142 62l22 14q0 58 -35 126.5t-35 107.5q0 66 45.5 107.5t110.5 41.5q66 0 109 -45.5t43 -109.5q0 -37 -12.5 -63.5t-34 -44t-44.5 -33t-48.5 -41t-41.5 -56.5l9 -25 q78 -41 98 -118l24 -13q37 13 68.5 39.5t50.5 48.5t50.5 39t72.5 17q62 0 106 -46t44 -112q0 -64 -44.5 -108t-109.5 -44q-40 0 -75.5 21.5t-75.5 48t-87 33.5l-18 -17q-11 -70 -80 -122l-2 -21q33 -43 109 -80q112 -53 112 -155q0 -62 -47 -109t-112 -47q-63 0 -108.5 44.5 t-45.5 109.5q0 29 18.5 88t18.5 104v23l-14 10q-14 -2 -41 -2q-62 0 -115 37l-27 -2q-31 -46 -43 -125q-12 -75 -50.5 -122.5t-109.5 -47.5q-63 0 -110 45.5t-47 111.5t49 110t121 44h16h19.5t19 1t23.5 2.5t22.5 4.5t26 8t24.5 11l6 28q-20 45 -20 88q0 27 6 51l-10 27 q-18 6 -55 6q-31 0 -72 -7t-59 -7q-67 0 -112.5 46t-45.5 110zM483 569q0 -60 40 -101.5t98 -41.5q59 0 98 41t39 102q0 59 -39 99.5t-98 40.5q-58 0 -98 -40.5t-40 -99.5z" />
<glyph unicode="&#xb3;" horiz-adv-x="1263" d="M78 793q0 64 45 110.5t110 46.5q92 0 138 -86q8 -15 18.5 -49.5t24 -64t35.5 -52.5l30 2q59 62 142 62l22 14q0 58 -35 126.5t-35 107.5q0 66 45.5 107.5t110.5 41.5q66 0 109 -45.5t43 -109.5q0 -37 -12.5 -63.5t-34 -44t-44.5 -33t-48.5 -41t-41.5 -56.5l9 -25 q78 -41 98 -118l24 -13q37 13 68.5 39.5t50.5 48.5t50.5 39t72.5 17q62 0 106 -46t44 -112q0 -64 -44.5 -108t-109.5 -44q-40 0 -75.5 21.5t-75.5 48t-87 33.5l-18 -17q-11 -70 -80 -122l-2 -21q33 -43 109 -80q112 -53 112 -155q0 -62 -47 -109t-112 -47q-63 0 -108.5 44.5 t-45.5 109.5q0 29 18.5 88t18.5 104v23l-14 10q-14 -2 -41 -2q-62 0 -115 37l-27 -2q-31 -46 -43 -125q-12 -75 -50.5 -122.5t-109.5 -47.5q-63 0 -110 45.5t-47 111.5t49 110t121 44h16h19.5t19 1t23.5 2.5t22.5 4.5t26 8t24.5 11l6 28q-20 45 -20 88q0 27 6 51l-10 27 q-18 6 -55 6q-31 0 -72 -7t-59 -7q-67 0 -112.5 46t-45.5 110zM483 569q0 -60 40 -101.5t98 -41.5q59 0 98 41t39 102q0 59 -39 99.5t-98 40.5q-58 0 -98 -40.5t-40 -99.5z" />
<glyph unicode="&#xb4;" horiz-adv-x="1024" d="M289 1118q113 166 200 312q28 50 56.5 69t68.5 19q34 0 58 -24t24 -54q0 -36 -16 -58t-57 -55q-20 -16 -113.5 -87t-187.5 -146z" />
<glyph unicode="&#xb5;" horiz-adv-x="1193" d="M139 -362q0 43 19.5 165t19.5 125q10 83 10 201v817h187v-647q0 -97 56.5 -157t129.5 -60q165 0 230 106v758h186v-751q0 -44 22 -74.5t68 -30.5q18 0 31 10t20 22.5t12 37t7 40t4 44.5h65q-11 -264 -227 -264q-73 0 -116 35.5t-66 103.5h-6q-117 -144 -287 -144 q-61 0 -122 31.5t-97 85.5h-4v-86q0 -66 34.5 -186t34.5 -176q0 -50 -33 -78.5t-77 -28.5q-43 0 -72 28.5t-29 72.5z" />
<glyph unicode="&#xb6;" horiz-adv-x="1267" d="M119 1044q0 49 12 96.5t40.5 95t71 83t109 58t148.5 22.5h735v-66h-281v-1589h-77v1589h-177v-1589h-77v956h-52q-106 0 -187 20.5t-130 53t-80.5 79t-43 92.5t-11.5 99z" />
<glyph unicode="&#xb7;" horiz-adv-x="593" d="M160 557q0 57 41 98t98 41t98 -41t41 -98t-41 -97t-98 -40t-98 40t-41 97z" />
<glyph unicode="&#xb8;" horiz-adv-x="1024" d="M293 -412q135 0 176 7q110 20 111 100q0 26 -17 42.5t-51 23.5t-59.5 8.5t-65.5 1.5v245h70v-129q38 0 72.5 -3.5t72 -13.5t64 -26.5t44 -45t17.5 -66.5q0 -64 -34.5 -108.5t-98.5 -67t-136 -32t-165 -9.5v73z" />
<glyph unicode="&#xb9;" horiz-adv-x="1263" d="M78 793q0 64 45 110.5t110 46.5q92 0 138 -86q8 -15 18.5 -49.5t24 -64t35.5 -52.5l30 2q59 62 142 62l22 14q0 58 -35 126.5t-35 107.5q0 66 45.5 107.5t110.5 41.5q66 0 109 -45.5t43 -109.5q0 -37 -12.5 -63.5t-34 -44t-44.5 -33t-48.5 -41t-41.5 -56.5l9 -25 q78 -41 98 -118l24 -13q37 13 68.5 39.5t50.5 48.5t50.5 39t72.5 17q62 0 106 -46t44 -112q0 -64 -44.5 -108t-109.5 -44q-40 0 -75.5 21.5t-75.5 48t-87 33.5l-18 -17q-11 -70 -80 -122l-2 -21q33 -43 109 -80q112 -53 112 -155q0 -62 -47 -109t-112 -47q-63 0 -108.5 44.5 t-45.5 109.5q0 29 18.5 88t18.5 104v23l-14 10q-14 -2 -41 -2q-62 0 -115 37l-27 -2q-31 -46 -43 -125q-12 -75 -50.5 -122.5t-109.5 -47.5q-63 0 -110 45.5t-47 111.5t49 110t121 44h16h19.5t19 1t23.5 2.5t22.5 4.5t26 8t24.5 11l6 28q-20 45 -20 88q0 27 6 51l-10 27 q-18 6 -55 6q-31 0 -72 -7t-59 -7q-67 0 -112.5 46t-45.5 110zM483 569q0 -60 40 -101.5t98 -41.5q59 0 98 41t39 102q0 59 -39 99.5t-98 40.5q-58 0 -98 -40.5t-40 -99.5z" />
<glyph unicode="&#xba;" horiz-adv-x="956" d="M129 911q0 159 100 256q100 103 248 103q143 0 252 -103q47 -42 72.5 -106t25.5 -137q0 -163 -108 -260q-102 -95 -246 -95q-127 0 -233 95q-111 90 -111 247zM139 317v95h678v-95h-678zM287 918q0 -81 19 -144t63 -103t108 -40q96 0 143.5 79.5t47.5 211.5 q0 77 -16.5 138t-61 104.5t-113.5 43.5q-90 0 -140 -77t-50 -213z" />
<glyph unicode="&#xbb;" horiz-adv-x="1146" d="M104 96l322 387l-322 394l43 36q220 -186 428 -344q18 -15 25 -22.5t11.5 -21.5t4.5 -38q0 -27 -5 -42t-11.5 -21t-28.5 -23q-31 -24 -424 -342zM532 96l322 387l-322 394l43 36q212 -179 429 -344q25 -20 32.5 -33.5t7.5 -48.5q0 -27 -5 -42t-11.5 -21t-28.5 -23 q-31 -24 -424 -342z" />
<glyph unicode="&#xbc;" horiz-adv-x="1808" d="M111 1202l18 43q91 -35 158 -35q102 0 225 60h33q-23 -113 -23 -213v-461q0 -50 47 -66q33 -13 125 -20v-59h-518v59q111 7 131 14q22 6 35.5 23.5t13.5 40.5v540q-27 -6 -73 -6q-57 0 -172 80zM215 -170l1372 1462l68 -61l-1374 -1462zM934 63v82l500 502h86v-500 q52 0 68 0.5t33.5 4.5t31.5 14q18 13 28.5 43t10.5 57h51v-327h-49q-4 79 -43 110q-4 2 -7.5 4t-7 3.5t-8.5 2.5t-8.5 2t-10.5 1t-11.5 0.5t-15 0.5h-17h-21.5h-24v-118q0 -50 41 -64q28 -11 100 -16v-60h-440v60q89 7 100 10q43 13 43 62v126h-430zM1030 147h334v330z" />
<glyph unicode="&#xbd;" horiz-adv-x="1808" d="M111 1202l18 43q91 -35 158 -35q102 0 225 60h33q-23 -113 -23 -213v-461q0 -50 47 -66q33 -13 125 -20v-59h-518v59q111 7 131 14q22 6 35.5 23.5t13.5 40.5v540q-27 -6 -73 -6q-57 0 -172 80zM195 -170l1372 1462l67 -61l-1374 -1462zM1075 -113q147 90 212.5 137.5 t135.5 116.5q38 36 62 73.5t34.5 74.5t13.5 63.5t3 61.5q0 74 -40.5 114.5t-104.5 40.5q-66 0 -105.5 -28t-42.5 -72q1 -6 23 -30t22 -48q0 -28 -26.5 -57t-77.5 -29q-43 0 -65.5 29.5t-22.5 64.5q0 31 18.5 69t54.5 76t101.5 63.5t146.5 25.5q130 0 216.5 -66.5 t86.5 -165.5q0 -92 -36.5 -157t-125.5 -130.5t-266 -156.5l-30 -27h333q12 0 24.5 5t22.5 11t21 19t18 21.5t17.5 26t15 24.5t14 25.5t11.5 21.5l51 -18l-98 -261h-617v82z" />
<glyph unicode="&#xbe;" horiz-adv-x="1808" d="M115 614q0 52 32 80.5t80 28.5q40 0 62 -19t22 -53q0 -17 -10 -29.5t-21.5 -19t-21.5 -16.5t-10 -23q0 -74 143 -74q93 0 165.5 66.5t72.5 165.5q0 125 -107 125q-50 0 -112 -62l-45 68q126 73 156 96q79 59 83 134v10q0 116 -137 116q-54 0 -86.5 -22t-36.5 -41 q0 -3 14.5 -27t14.5 -49q0 -29 -21 -54.5t-73 -25.5q-43 0 -63.5 26.5t-20.5 57.5q0 72 82.5 135.5t224.5 63.5q74 0 131 -19t86 -48.5t43 -58t14 -54.5q0 -62 -55 -111.5t-180 -75.5v-8q10 2 28 2q38 0 75.5 -9t74.5 -29t60.5 -59.5t23.5 -92.5q0 -133 -114 -209t-296 -76 q-68 0 -130 20.5t-105 65.5t-43 104zM252 -170l1372 1462l68 -61l-1375 -1462zM952 63v82l500 502h86v-500q52 0 68 0.5t33.5 4.5t31.5 14q18 13 28.5 43t10.5 57h51v-327h-49q-4 79 -43 110q-4 2 -7.5 4t-7 3.5t-8.5 2.5t-8.5 2t-10.5 1t-11.5 0.5t-15 0.5h-17h-21.5h-24 v-118q0 -50 41 -64q28 -11 100 -16v-60h-440v60q89 7 100 10q43 13 43 62v126h-430zM1049 147h333v330z" />
<glyph unicode="&#xbf;" horiz-adv-x="876" d="M102 272q0 138 96 239t257 122l10 121h70l6 -275q-122 -8 -189 -70t-67 -169q0 -94 52 -147.5t130 -53.5q56 0 78 22q-15 51 -15 97q0 50 34.5 82t88.5 32q49 0 79 -32.5t30 -85.5q0 -65 -88.5 -123t-210.5 -58q-167 0 -264 82t-97 217zM365 1012q0 57 40 96t97 39 t96 -39t39 -96t-39 -97.5t-96 -40.5t-97 40.5t-40 97.5z" />
<glyph unicode="&#xc0;" horiz-adv-x="1427" d="M-47 0v68q32 2 74.5 12t68.5 24q76 45 117 140q45 108 471 1177h88q115 -291 280.5 -715t196.5 -503q24 -61 92 -101q55 -30 136 -34v-68h-646v68q72 4 139.5 19t67.5 38q0 26 -8 47l-123 313h-501q-49 -118 -78 -215q-23 -74 -23 -114q0 -22 25 -39.5t64.5 -27 t74.5 -14.5t68 -7v-68h-584zM426 1831q0 30 24 54t58 24q40 0 68.5 -19t56.5 -69q87 -146 200 -312l-33 -24q-94 75 -187.5 146t-113.5 87q-41 33 -57 55t-16 58zM440 573h432l-217 547z" />
<glyph unicode="&#xc1;" horiz-adv-x="1427" d="M-47 0v68q32 2 74.5 12t68.5 24q76 45 117 140q45 108 471 1177h88q115 -291 280.5 -715t196.5 -503q24 -61 92 -101q55 -30 136 -34v-68h-646v68q72 4 139.5 19t67.5 38q0 26 -8 47l-123 313h-501q-49 -118 -78 -215q-23 -74 -23 -114q0 -22 25 -39.5t64.5 -27 t74.5 -14.5t68 -7v-68h-584zM440 573h432l-217 547zM617 1509q113 166 200 312q28 50 56.5 69t68.5 19q34 0 58 -24t24 -54q0 -36 -16 -58t-57 -55q-20 -16 -113.5 -87t-187.5 -146z" />
<glyph unicode="&#xc2;" horiz-adv-x="1427" d="M-47 0v68q32 2 74.5 12t68.5 24q76 45 117 140q45 108 471 1177h88q115 -291 280.5 -715t196.5 -503q24 -61 92 -101q55 -30 136 -34v-68h-646v68q72 4 139.5 19t67.5 38q0 26 -8 47l-123 313h-501q-49 -118 -78 -215q-23 -74 -23 -114q0 -22 25 -39.5t64.5 -27 t74.5 -14.5t68 -7v-68h-584zM399 1466q179 259 238 351q21 31 34.5 38t55.5 7q30 0 44 -4t20 -10t20 -27q25 -36 104.5 -154t135.5 -201l-39 -24l-289 274l-285 -274zM440 573h432l-217 547z" />
<glyph unicode="&#xc3;" horiz-adv-x="1427" d="M-47 0v68q32 2 74.5 12t68.5 24q76 45 117 140q45 108 471 1177h88q115 -291 280.5 -715t196.5 -503q24 -61 92 -101q55 -30 136 -34v-68h-646v68q72 4 139.5 19t67.5 38q0 26 -8 47l-123 313h-501q-49 -118 -78 -215q-23 -74 -23 -114q0 -22 25 -39.5t64.5 -27 t74.5 -14.5t68 -7v-68h-584zM347 1536q14 39 36.5 80t55 82.5t76.5 67.5t90 26q53 0 102 -17t79.5 -38t67.5 -38t70 -17q31 0 53.5 5.5t36 11t26.5 22.5t18 26.5t16.5 36.5t17.5 39l55 -18q-15 -54 -50 -110.5t-93.5 -101t-120.5 -44.5q-56 0 -105.5 17t-79 38t-68.5 38 t-77 17q-21 0 -38 -5.5t-27.5 -10t-24 -22.5t-19 -26t-21.5 -37.5t-23 -41.5zM440 573h432l-217 547z" />
<glyph unicode="&#xc4;" horiz-adv-x="1427" d="M-47 0v68q32 2 74.5 12t68.5 24q76 45 117 140q45 108 471 1177h88q115 -291 280.5 -715t196.5 -503q24 -61 92 -101q55 -30 136 -34v-68h-646v68q72 4 139.5 19t67.5 38q0 26 -8 47l-123 313h-501q-49 -118 -78 -215q-23 -74 -23 -114q0 -22 25 -39.5t64.5 -27 t74.5 -14.5t68 -7v-68h-584zM377 1681q0 49 35 85t82 36q53 0 88 -33.5t35 -78.5q0 -52 -35.5 -88.5t-87.5 -36.5q-47 0 -82 34.5t-35 81.5zM440 573h432l-217 547zM821 1681q0 50 35 85.5t84 35.5q51 0 86 -33.5t35 -78.5q0 -51 -35 -88t-86 -37q-49 0 -84 34.5t-35 81.5z " />
<glyph unicode="&#xc5;" horiz-adv-x="1427" d="M-47 0v68q32 2 74.5 12t68.5 24q76 45 117 140q45 108 471 1177h88q115 -291 280.5 -715t196.5 -503q24 -61 92 -101q55 -30 136 -34v-68h-646v68q72 4 139.5 19t67.5 38q0 26 -8 47l-123 313h-501q-49 -118 -78 -215q-23 -74 -23 -114q0 -22 25 -39.5t64.5 -27 t74.5 -14.5t68 -7v-68h-584zM440 573h432l-217 547zM479 1687q0 93 70.5 155t173.5 62q107 0 175.5 -61t68.5 -156q0 -93 -68 -155t-176 -62q-111 0 -177.5 60.5t-66.5 156.5zM596 1687q0 -72 33.5 -114.5t93.5 -42.5q61 0 94 42t33 115q0 71 -33.5 114.5t-93.5 43.5 q-59 0 -93 -42.5t-34 -115.5z" />
<glyph unicode="&#xc6;" horiz-adv-x="1925" d="M-123 0v68q31 2 77 13t75 25q73 37 133 138q89 151 186 319.5t229 401.5t195 344q-57 20 -158 24v66h1151v-338h-75q-19 74 -88.5 160t-131.5 94q-65 8 -170 8h-190v-559h164q53 0 91.5 12.5t49.5 21.5t31 29q21 21 39.5 77.5t23.5 101.5h76v-572h-76q-3 44 -23.5 106.5 t-39.5 82.5q-18 19 -32.5 30t-51 22t-88.5 11h-164v-420q0 -44 3 -72.5t14.5 -50.5t26.5 -33.5t45.5 -18.5t64.5 -9t90 -2q70 0 114.5 2t97 13t72.5 32q42 44 95.5 139.5t70.5 147.5h72l-27 -414h-1181v68q35 2 89 8.5t72 13.5q64 24 64 100v361h-461q-90 -155 -149 -281 q-33 -65 -33 -100q0 -90 190 -102v-68h-563zM483 635h410v676h-27z" />
<glyph unicode="&#xc7;" horiz-adv-x="1341" d="M78 682q0 156 55 294t150.5 236.5t229.5 155.5t286 57q82 0 172 -33t137 -77l61 104h84l9 -522h-70q-24 76 -50.5 136.5t-66.5 121t-86.5 101t-111.5 65.5t-142 25q-81 0 -153 -38.5t-130.5 -114.5t-93 -203.5t-34.5 -291.5q0 -175 67 -314t178.5 -214.5t245.5 -75.5 q91 0 161 20.5t120 62.5t84 91t67 119l68 -33q-34 -77 -80 -141t-113 -121t-160.5 -89t-205.5 -32h-23v-84q38 0 72.5 -3.5t72 -13.5t64.5 -26.5t44.5 -45t17.5 -66.5q0 -64 -35 -108.5t-99 -67t-136 -32t-165 -9.5v73q135 0 176 7q110 20 111 100q0 26 -17 42.5t-50.5 23.5 t-59 8.5t-65.5 1.5v204q-267 31 -426.5 220.5t-159.5 486.5z" />
<glyph unicode="&#xc8;" horiz-adv-x="1368" d="M80 0v68q35 2 89.5 8.5t72.5 13.5q63 23 63 100v1006q0 37 -13.5 61.5t-49.5 38.5q-28 11 -80.5 22t-81.5 13v68h1128v-338h-75q-19 74 -88.5 160t-131.5 94q-65 8 -170 8h-221v-559h164q53 0 91.5 12.5t49.5 21.5t31 29q22 22 40.5 78t23.5 101h75v-572h-75 q-3 44 -24 106.5t-40 82.5q-18 19 -32.5 30t-51 22t-88.5 11h-164v-420q0 -44 3 -72.5t14.5 -50.5t26.5 -33.5t45.5 -18.5t64.5 -9t90 -2q173 0 233 12q59 11 82 35q42 44 95.5 139.5t70.5 147.5h72l-27 -414h-1212zM379 1831q0 30 24 54t58 24q40 0 68.5 -19t56.5 -69 q87 -146 200 -312l-33 -24q-94 75 -187.5 146t-113.5 87q-41 33 -57 55t-16 58z" />
<glyph unicode="&#xc9;" horiz-adv-x="1368" d="M80 0v68q35 2 89.5 8.5t72.5 13.5q63 23 63 100v1006q0 37 -13.5 61.5t-49.5 38.5q-28 11 -80.5 22t-81.5 13v68h1128v-338h-75q-19 74 -88.5 160t-131.5 94q-65 8 -170 8h-221v-559h164q53 0 91.5 12.5t49.5 21.5t31 29q22 22 40.5 78t23.5 101h75v-572h-75 q-3 44 -24 106.5t-40 82.5q-18 19 -32.5 30t-51 22t-88.5 11h-164v-420q0 -44 3 -72.5t14.5 -50.5t26.5 -33.5t45.5 -18.5t64.5 -9t90 -2q173 0 233 12q59 11 82 35q42 44 95.5 139.5t70.5 147.5h72l-27 -414h-1212zM565 1509q113 166 200 312q28 50 56.5 69t68.5 19 q34 0 58 -24t24 -54q0 -36 -16 -58t-57 -55q-20 -16 -113.5 -87t-187.5 -146z" />
<glyph unicode="&#xca;" horiz-adv-x="1368" d="M80 0v68q35 2 89.5 8.5t72.5 13.5q63 23 63 100v1006q0 37 -13.5 61.5t-49.5 38.5q-28 11 -80.5 22t-81.5 13v68h1128v-338h-75q-19 74 -88.5 160t-131.5 94q-65 8 -170 8h-221v-559h164q53 0 91.5 12.5t49.5 21.5t31 29q22 22 40.5 78t23.5 101h75v-572h-75 q-3 44 -24 106.5t-40 82.5q-18 19 -32.5 30t-51 22t-88.5 11h-164v-420q0 -44 3 -72.5t14.5 -50.5t26.5 -33.5t45.5 -18.5t64.5 -9t90 -2q173 0 233 12q59 11 82 35q42 44 95.5 139.5t70.5 147.5h72l-27 -414h-1212zM370 1517q179 259 238 351q21 31 34.5 38t55.5 7 q30 0 44 -4t20 -10t20 -27q25 -36 104.5 -154t135.5 -201l-39 -24l-289 274l-285 -274z" />
<glyph unicode="&#xcb;" horiz-adv-x="1368" d="M80 0v68q35 2 89.5 8.5t72.5 13.5q63 23 63 100v1006q0 37 -13.5 61.5t-49.5 38.5q-28 11 -80.5 22t-81.5 13v68h1128v-338h-75q-19 74 -88.5 160t-131.5 94q-65 8 -170 8h-221v-559h164q53 0 91.5 12.5t49.5 21.5t31 29q22 22 40.5 78t23.5 101h75v-572h-75 q-3 44 -24 106.5t-40 82.5q-18 19 -32.5 30t-51 22t-88.5 11h-164v-420q0 -44 3 -72.5t14.5 -50.5t26.5 -33.5t45.5 -18.5t64.5 -9t90 -2q173 0 233 12q59 11 82 35q42 44 95.5 139.5t70.5 147.5h72l-27 -414h-1212zM350 1691q0 49 35 85t82 36q53 0 88 -33.5t35 -78.5 q0 -52 -35.5 -88.5t-87.5 -36.5q-47 0 -82 34.5t-35 81.5zM794 1691q0 50 35 85.5t84 35.5q51 0 86 -33.5t35 -78.5q0 -51 -35 -88t-86 -37q-49 0 -84 34.5t-35 81.5z" />
<glyph unicode="&#xcc;" horiz-adv-x="835" d="M96 0v68q119 6 150 18q63 23 63 98v1014q0 37 -13.5 60.5t-49.5 37.5q-83 31 -150 35v68h643v-68q-90 -5 -149 -24q-64 -20 -64 -99v-1013q0 -72 64 -99q18 -7 69.5 -16.5t79.5 -11.5v-68h-643zM107 1831q0 30 24 54t58 24q40 0 68.5 -19t56.5 -69q87 -146 200 -312 l-33 -24q-94 75 -187.5 146t-113.5 87q-41 33 -57 55t-16 58z" />
<glyph unicode="&#xcd;" horiz-adv-x="835" d="M96 0v68q119 6 150 18q63 23 63 98v1014q0 37 -13.5 60.5t-49.5 37.5q-83 31 -150 35v68h643v-68q-90 -5 -149 -24q-64 -20 -64 -99v-1013q0 -72 64 -99q18 -7 69.5 -16.5t79.5 -11.5v-68h-643zM336 1509q113 166 200 312q28 50 56.5 69t68.5 19q34 0 58 -24t24 -54 q0 -36 -16 -58t-57 -55q-20 -16 -113.5 -87t-187.5 -146z" />
<glyph unicode="&#xce;" horiz-adv-x="835" d="M90 1517q179 259 238 351q21 31 34.5 38t55.5 7q30 0 44 -4t20 -10t20 -27q25 -36 104.5 -154t135.5 -201l-39 -24l-289 274l-285 -274zM96 0v68q119 6 150 18q63 23 63 98v1014q0 37 -13.5 60.5t-49.5 37.5q-83 31 -150 35v68h643v-68q-90 -5 -149 -24q-64 -20 -64 -99 v-1013q0 -72 64 -99q18 -7 69.5 -16.5t79.5 -11.5v-68h-643z" />
<glyph unicode="&#xcf;" horiz-adv-x="835" d="M76 1691q0 49 35 85t82 36q53 0 88 -33.5t35 -78.5q0 -52 -35.5 -88.5t-87.5 -36.5q-47 0 -82 34.5t-35 81.5zM96 0v68q119 6 150 18q63 23 63 98v1014q0 37 -13.5 60.5t-49.5 37.5q-83 31 -150 35v68h643v-68q-90 -5 -149 -24q-64 -20 -64 -99v-1013q0 -72 64 -99 q18 -7 69.5 -16.5t79.5 -11.5v-68h-643zM520 1691q0 50 35 85.5t84 35.5q51 0 86 -33.5t35 -78.5q0 -51 -35 -88t-86 -37q-49 0 -84 34.5t-35 81.5z" />
<glyph unicode="&#xd0;" horiz-adv-x="1599" d="M90 0v68q34 0 83.5 5.5t68.5 12.5q63 23 63 100v500h-207v86h207v424q0 78 -63 104q-66 27 -144 31v68h660q64 0 131 -9.5t143 -33t145 -59.5t132.5 -93t110 -128t74.5 -170.5t28 -215.5q0 -139 -46 -254.5t-123.5 -195t-181.5 -134.5t-218.5 -80.5t-235.5 -25.5h-627z M522 238q10 -80 60 -119t163 -39q262 0 393.5 163t131.5 449q0 281 -156.5 455t-413.5 174q-88 0 -178 -4v-545h283v-86h-283v-448z" />
<glyph unicode="&#xd1;" horiz-adv-x="1634" d="M12 1331v68h432l846 -1065v661q0 233 -69 277q-28 18 -100 37.5t-109 21.5v68h630v-68q-31 -2 -98 -18.5t-90 -30.5q-39 -25 -53.5 -89t-14.5 -185v-1022h-86l-907 1142v-716q0 -123 17.5 -187.5t52.5 -93.5q24 -20 100.5 -40.5t110.5 -22.5v-68h-635v68q29 2 101 21.5 t89 31.5q37 26 52.5 89t15.5 191v680q0 46 -18 92t-48 70q-37 30 -107.5 58.5t-111.5 29.5zM449 1556q14 39 36.5 80t55 82.5t76.5 67.5t90 26q53 0 102 -17t79.5 -38t67.5 -38t70 -17q31 0 53.5 5.5t36 11t26.5 22.5t18 26.5t16.5 36.5t17.5 39l55 -18q-15 -54 -50 -110.5 t-93.5 -101t-120.5 -44.5q-56 0 -105.5 17t-79 38t-68.5 38t-77 17q-21 0 -38 -5.5t-27.5 -10t-24 -22.5t-19 -26t-21.5 -37.5t-23 -41.5z" />
<glyph unicode="&#xd2;" horiz-adv-x="1591" d="M80 684q0 336 199 535q210 213 518 213q301 0 520 -213q91 -91 142.5 -225.5t51.5 -284.5q0 -339 -213 -545q-213 -197 -510 -197q-284 0 -489 193q-219 206 -219 524zM328 694q0 -135 29 -250t85.5 -203t147.5 -138t207 -50q154 0 261 86.5t156.5 230t49.5 332.5 q0 100 -15.5 191.5t-51 175t-88.5 144.5t-133 97t-179 36q-219 0 -344 -172t-125 -480zM502 1831q0 30 24 54t58 24q40 0 68.5 -19t56.5 -69q87 -146 200 -312l-33 -24q-94 75 -187.5 146t-113.5 87q-41 33 -57 55t-16 58z" />
<glyph unicode="&#xd3;" horiz-adv-x="1591" d="M80 684q0 336 199 535q210 213 518 213q301 0 520 -213q91 -91 142.5 -225.5t51.5 -284.5q0 -339 -213 -545q-213 -197 -510 -197q-284 0 -489 193q-219 206 -219 524zM328 694q0 -135 29 -250t85.5 -203t147.5 -138t207 -50q154 0 261 86.5t156.5 230t49.5 332.5 q0 100 -15.5 191.5t-51 175t-88.5 144.5t-133 97t-179 36q-219 0 -344 -172t-125 -480zM647 1509q113 166 200 312q28 50 56.5 69t68.5 19q34 0 58 -24t24 -54q0 -36 -16 -58t-57 -55q-20 -16 -113.5 -87t-187.5 -146z" />
<glyph unicode="&#xd4;" horiz-adv-x="1591" d="M80 684q0 336 199 535q210 213 518 213q301 0 520 -213q91 -91 142.5 -225.5t51.5 -284.5q0 -339 -213 -545q-213 -197 -510 -197q-284 0 -489 193q-219 206 -219 524zM328 694q0 -135 29 -250t85.5 -203t147.5 -138t207 -50q154 0 261 86.5t156.5 230t49.5 332.5 q0 100 -15.5 191.5t-51 175t-88.5 144.5t-133 97t-179 36q-219 0 -344 -172t-125 -480zM458 1517q179 259 238 351q21 31 34.5 38t55.5 7q30 0 44 -4t20 -10t20 -27q25 -36 104.5 -154t135.5 -201l-39 -24l-289 274l-285 -274z" />
<glyph unicode="&#xd5;" horiz-adv-x="1591" d="M80 684q0 336 199 535q210 213 518 213q301 0 520 -213q91 -91 142.5 -225.5t51.5 -284.5q0 -339 -213 -545q-213 -197 -510 -197q-284 0 -489 193q-219 206 -219 524zM328 694q0 -135 29 -250t85.5 -203t147.5 -138t207 -50q154 0 261 86.5t156.5 230t49.5 332.5 q0 100 -15.5 191.5t-51 175t-88.5 144.5t-133 97t-179 36q-219 0 -344 -172t-125 -480zM396 1566q14 39 36.5 80t55 82.5t76.5 67.5t90 26q53 0 102 -17t79.5 -38t67.5 -38t70 -17q31 0 53.5 5.5t36 11t26.5 22.5t18 26.5t16.5 36.5t17.5 39l55 -18q-15 -54 -50 -110.5 t-93.5 -101t-120.5 -44.5q-56 0 -105.5 17t-79 38t-68.5 38t-77 17q-21 0 -38 -5.5t-27.5 -10t-24 -22.5t-19 -26t-21.5 -37.5t-23 -41.5z" />
<glyph unicode="&#xd6;" horiz-adv-x="1591" d="M80 684q0 336 199 535q210 213 518 213q301 0 520 -213q91 -91 142.5 -225.5t51.5 -284.5q0 -339 -213 -545q-213 -197 -510 -197q-284 0 -489 193q-219 206 -219 524zM328 694q0 -135 29 -250t85.5 -203t147.5 -138t207 -50q154 0 261 86.5t156.5 230t49.5 332.5 q0 100 -15.5 191.5t-51 175t-88.5 144.5t-133 97t-179 36q-219 0 -344 -172t-125 -480zM449 1691q0 49 35 85t82 36q53 0 88 -33.5t35 -78.5q0 -52 -35.5 -88.5t-87.5 -36.5q-47 0 -82 34.5t-35 81.5zM893 1691q0 50 35 85.5t84 35.5q51 0 86 -33.5t35 -78.5q0 -51 -35 -88 t-86 -37q-49 0 -84 34.5t-35 81.5z" />
<glyph unicode="&#xd7;" d="M115 133l405 402l-405 403l78 78l403 -406l401 406l76 -76l-405 -401l405 -404l-78 -78l-403 406l-402 -406z" />
<glyph unicode="&#xd8;" horiz-adv-x="1591" d="M80 684q0 336 199 535q210 213 518 213q254 0 450 -152l185 209l69 -57l-186 -211q93 -94 144.5 -228t51.5 -284q0 -339 -213 -545q-213 -197 -510 -197q-250 0 -446 154l-184 -209l-68 55l189 213q-199 202 -199 504zM326 694q0 -229 71 -383l750 852q-122 183 -350 183 q-219 0 -345 -172.5t-126 -479.5zM442 238q125 -185 355 -185q154 0 261.5 86.5t157.5 230t50 332.5q0 222 -72 385z" />
<glyph unicode="&#xd9;" horiz-adv-x="1634" d="M72 1331v68h637v-68q-89 -5 -148 -24q-63 -20 -63 -101v-776q0 -50 7.5 -94t31.5 -93.5t62.5 -84.5t107.5 -58.5t161 -23.5q93 0 165.5 24.5t114.5 62t69 88t36 95.5t9 92v561q0 230 -70 275q-35 23 -101 39t-108 18v68h633v-68q-37 -2 -98.5 -15.5t-90.5 -31.5 q-67 -43 -67 -272v-602q0 -96 -35.5 -174t-90.5 -127t-127.5 -82t-142 -46.5t-137.5 -13.5q-130 0 -236 32.5t-173 88.5t-103 128t-36 153v827q0 68 -64 102q-25 12 -69.5 21.5t-73.5 11.5zM533 1831q0 30 24 54t58 24q40 0 68.5 -19t56.5 -69q87 -146 200 -312l-33 -24 q-94 75 -187.5 146t-113.5 87q-41 33 -57 55t-16 58z" />
<glyph unicode="&#xda;" horiz-adv-x="1634" d="M72 1331v68h637v-68q-89 -5 -148 -24q-63 -20 -63 -101v-776q0 -50 7.5 -94t31.5 -93.5t62.5 -84.5t107.5 -58.5t161 -23.5q93 0 165.5 24.5t114.5 62t69 88t36 95.5t9 92v561q0 230 -70 275q-35 23 -101 39t-108 18v68h633v-68q-37 -2 -98.5 -15.5t-90.5 -31.5 q-67 -43 -67 -272v-602q0 -96 -35.5 -174t-90.5 -127t-127.5 -82t-142 -46.5t-137.5 -13.5q-130 0 -236 32.5t-173 88.5t-103 128t-36 153v827q0 68 -64 102q-25 12 -69.5 21.5t-73.5 11.5zM729 1509q113 166 200 312q28 50 56.5 69t68.5 19q34 0 58 -24t24 -54 q0 -36 -16 -58t-57 -55q-20 -16 -113.5 -87t-187.5 -146z" />
<glyph unicode="&#xdb;" horiz-adv-x="1634" d="M72 1331v68h637v-68q-89 -5 -148 -24q-63 -20 -63 -101v-776q0 -50 7.5 -94t31.5 -93.5t62.5 -84.5t107.5 -58.5t161 -23.5q93 0 165.5 24.5t114.5 62t69 88t36 95.5t9 92v561q0 230 -70 275q-35 23 -101 39t-108 18v68h633v-68q-37 -2 -98.5 -15.5t-90.5 -31.5 q-67 -43 -67 -272v-602q0 -96 -35.5 -174t-90.5 -127t-127.5 -82t-142 -46.5t-137.5 -13.5q-130 0 -236 32.5t-173 88.5t-103 128t-36 153v827q0 68 -64 102q-25 12 -69.5 21.5t-73.5 11.5zM524 1517q179 259 238 351q21 31 34.5 38t55.5 7q30 0 44 -4t20 -10t20 -27 q25 -36 104.5 -154t135.5 -201l-39 -24l-289 274l-285 -274z" />
<glyph unicode="&#xdc;" horiz-adv-x="1634" d="M72 1331v68h637v-68q-89 -5 -148 -24q-63 -20 -63 -101v-776q0 -50 7.5 -94t31.5 -93.5t62.5 -84.5t107.5 -58.5t161 -23.5q93 0 165.5 24.5t114.5 62t69 88t36 95.5t9 92v561q0 230 -70 275q-35 23 -101 39t-108 18v68h633v-68q-37 -2 -98.5 -15.5t-90.5 -31.5 q-67 -43 -67 -272v-602q0 -96 -35.5 -174t-90.5 -127t-127.5 -82t-142 -46.5t-137.5 -13.5q-130 0 -236 32.5t-173 88.5t-103 128t-36 153v827q0 68 -64 102q-25 12 -69.5 21.5t-73.5 11.5zM508 1691q0 49 35 85t82 36q53 0 88 -33.5t35 -78.5q0 -52 -35.5 -88.5 t-87.5 -36.5q-47 0 -82 34.5t-35 81.5zM952 1691q0 50 35 85.5t84 35.5q51 0 86 -33.5t35 -78.5q0 -51 -35 -88t-86 -37q-49 0 -84 34.5t-35 81.5z" />
<glyph unicode="&#xdd;" horiz-adv-x="1284" d="M-63 1331v68h659v-68q-8 0 -33.5 -1.5t-39.5 -2.5t-38 -3t-38 -5t-29 -8t-22 -12.5t-7 -16.5q0 -37 313 -594q328 516 328 567q0 15 -8.5 26.5t-25.5 19t-34.5 13t-45 9t-46.5 5t-49 3.5v68h533v-68q-19 -2 -60.5 -15.5t-58.5 -23.5q-44 -25 -63 -41.5t-56 -62.5 q-52 -65 -109 -154.5t-88 -144.5t-114 -205q-72 -130 -72 -229v-252q0 -76 64 -103q19 -7 79.5 -18.5t88.5 -13.5v-68h-680v68q127 7 168 22q63 23 63 103v335q0 50 -53 154q-110 216 -260 477q-52 90 -135 139q-54 29 -131 33zM613 1509q113 166 200 312q28 50 56.5 69 t68.5 19q34 0 58 -24t24 -54q0 -36 -16 -58t-57 -55q-20 -16 -113.5 -87t-187.5 -146z" />
<glyph unicode="&#xde;" horiz-adv-x="1296" d="M92 1331v68h643v-68q-90 -5 -149 -24q-64 -20 -64 -99v-106h250q122 0 220.5 -39.5t158 -116.5t59.5 -180q0 -107 -45 -192t-120.5 -136t-168 -77.5t-194.5 -26.5h-160v-144q0 -78 64 -102q41 -15 162 -20v-68h-654v68q110 6 148 20q63 23 63 102v1008q0 37 -13.5 60.5 t-49.5 37.5q-83 31 -150 35zM522 416h101q84 0 147.5 22.5t97.5 54.5t55 76t27 77.5t6 68.5q0 62 -14 114t-45 97.5t-91 71.5t-144 26h-140v-608z" />
<glyph unicode="&#xdf;" horiz-adv-x="1933" d="M111 352h61q19 -56 38 -97.5t47.5 -82.5t63 -67t82.5 -42t107 -16q97 0 144.5 47t47.5 131q0 59 -35 97t-118 67q-31 11 -104.5 33t-122.5 43q-91 38 -135 105t-44 171q0 121 98 201t236 80q59 0 120.5 -21t104.5 -53l54 64h57l14 -350h-63q-20 67 -42.5 114t-59.5 89 t-93 63.5t-131 21.5q-44 0 -92.5 -37.5t-48.5 -107.5q0 -63 29.5 -100t103.5 -68q42 -17 116 -39t105 -35q112 -46 161.5 -107.5t49.5 -168.5q0 -134 -102.5 -224t-257.5 -90t-269 78l-53 -65h-57zM1075 352h62q19 -56 38 -97.5t47.5 -82.5t63 -67t82.5 -42t107 -16 q97 0 144.5 47t47.5 131q0 59 -35.5 97t-118.5 67q-31 11 -104.5 33t-122.5 43q-91 38 -134.5 105t-43.5 171q0 121 98 201t236 80q59 0 120.5 -21t104.5 -53l53 64h58l14 -350h-63q-20 67 -42.5 114t-59.5 89t-93 63.5t-131 21.5q-44 0 -92.5 -37.5t-48.5 -107.5 q0 -63 29.5 -100t103.5 -68q42 -17 116 -39t105 -35q112 -46 161.5 -107.5t49.5 -168.5q0 -134 -103 -224t-258 -90q-154 0 -268 78l-53 -65h-58z" />
<glyph unicode="&#xe0;" horiz-adv-x="1124" d="M-33 0v66q27 2 69 10.5t58 17.5q49 27 82 105q38 85 86 197t82.5 194.5t91.5 220.5t84 201h92q322 -774 355 -856q18 -44 57 -62q33 -16 121 -28v-66h-549v66q62 4 117 16.5t55 34.5q0 10 -6 28l-80 193h-356q-35 -88 -47 -125q-17 -53 -17 -78q0 -48 189 -69v-66h-484z M240 1471q0 30 24 54t58 24q40 0 68.5 -19t56.5 -69q87 -146 200 -312l-33 -24q-94 75 -187.5 146t-113.5 87q-41 33 -57 55t-16 58zM356 412h293l-147 358z" />
<glyph unicode="&#xe1;" horiz-adv-x="1124" d="M-33 0v66q27 2 69 10.5t58 17.5q49 27 82 105q38 85 86 197t82.5 194.5t91.5 220.5t84 201h92q322 -774 355 -856q18 -44 57 -62q33 -16 121 -28v-66h-549v66q62 4 117 16.5t55 34.5q0 10 -6 28l-80 193h-356q-35 -88 -47 -125q-17 -53 -17 -78q0 -48 189 -69v-66h-484z M356 412h293l-147 358zM469 1149q113 166 200 312q28 50 56.5 69t68.5 19q34 0 58 -24t24 -54q0 -36 -16 -58t-57 -55q-20 -16 -113.5 -87t-187.5 -146z" />
<glyph unicode="&#xe2;" horiz-adv-x="1124" d="M-33 0v66q27 2 69 10.5t58 17.5q49 27 82 105q38 85 86 197t82.5 194.5t91.5 220.5t84 201h92q322 -774 355 -856q18 -44 57 -62q33 -16 121 -28v-66h-549v66q62 4 117 16.5t55 34.5q0 10 -6 28l-80 193h-356q-35 -88 -47 -125q-17 -53 -17 -78q0 -48 189 -69v-66h-484z M233 1126q179 259 238 351q21 31 34.5 38t55.5 7q30 0 44 -4t20 -10t20 -27q25 -36 104.5 -154t135.5 -201l-39 -24l-289 274l-285 -274zM356 412h293l-147 358z" />
<glyph unicode="&#xe3;" horiz-adv-x="1124" d="M-33 0v66q27 2 69 10.5t58 17.5q49 27 82 105q38 85 86 197t82.5 194.5t91.5 220.5t84 201h92q322 -774 355 -856q18 -44 57 -62q33 -16 121 -28v-66h-549v66q62 4 117 16.5t55 34.5q0 10 -6 28l-80 193h-356q-35 -88 -47 -125q-17 -53 -17 -78q0 -48 189 -69v-66h-484z M177 1173q14 39 36.5 80t55 82.5t76.5 67.5t90 26q53 0 102 -17t79.5 -38t67.5 -38t70 -17q31 0 53.5 5.5t36 11t26.5 22.5t18 26.5t16.5 36.5t17.5 39l55 -18q-15 -54 -50 -110.5t-93.5 -101t-120.5 -44.5q-56 0 -105.5 17t-79 38t-68.5 38t-77 17q-21 0 -38 -5.5 t-27.5 -10t-24 -22.5t-19 -26t-21.5 -37.5t-23 -41.5zM356 412h293l-147 358z" />
<glyph unicode="&#xe4;" horiz-adv-x="1124" d="M-33 0v66q27 2 69 10.5t58 17.5q49 27 82 105q38 85 86 197t82.5 194.5t91.5 220.5t84 201h92q322 -774 355 -856q18 -44 57 -62q33 -16 121 -28v-66h-549v66q62 4 117 16.5t55 34.5q0 10 -6 28l-80 193h-356q-35 -88 -47 -125q-17 -53 -17 -78q0 -48 189 -69v-66h-484z M209 1321q0 49 35 85t82 36q53 0 88 -33.5t35 -78.5q0 -52 -35.5 -88.5t-87.5 -36.5q-47 0 -82 34.5t-35 81.5zM356 412h293l-147 358zM653 1321q0 50 35 85.5t84 35.5q51 0 86 -33.5t35 -78.5q0 -51 -35 -88t-86 -37q-49 0 -84 34.5t-35 81.5z" />
<glyph unicode="&#xe5;" horiz-adv-x="1124" d="M-33 0v66q27 2 69 10.5t58 17.5q49 27 82 105q38 85 86 197t82.5 194.5t91.5 220.5t84 201h92q322 -774 355 -856q18 -44 57 -62q33 -16 121 -28v-66h-549v66q62 4 117 16.5t55 34.5q0 10 -6 28l-80 193h-356q-35 -88 -47 -125q-17 -53 -17 -78q0 -48 189 -69v-66h-484z M319 1316q0 93 70.5 155t173.5 62q107 0 175.5 -61t68.5 -156q0 -93 -68 -155t-176 -62q-111 0 -177.5 60.5t-66.5 156.5zM356 412h293l-147 358zM436 1316q0 -72 33.5 -114.5t93.5 -42.5q61 0 94 42t33 115q0 71 -33.5 114.5t-93.5 43.5q-59 0 -93 -42.5t-34 -115.5z" />
<glyph unicode="&#xe6;" horiz-adv-x="1546" d="M-76 0v66q18 2 58.5 11t58.5 17q52 24 104 105q159 260 422 702q-18 13 -77.5 23t-106.5 10v63h1012v-252h-60q-15 49 -65 111t-86 66q-74 8 -135 8h-158v-377h100q88 0 129 41q16 16 28 55.5t15 75.5h64v-424h-64q-1 33 -16 78t-27 59q-40 45 -129 45h-100v-284 q0 -83 30 -105t138 -22q70 0 101 1t71.5 9t56.5 24q31 29 71 103t54 115h62l-27 -324h-934v66q101 7 137 18q47 13 47 66v258h-331q-15 -24 -111 -197q-26 -47 -29 -74q0 -31 51.5 -49t106.5 -22v-66h-461zM412 481h286v430h-32z" />
<glyph unicode="&#xe7;" horiz-adv-x="1081" d="M100 487q0 148 68 270.5t190.5 193.5t274.5 71q60 0 124.5 -22t100.5 -52l43 64h70l8 -387h-61q-34 140 -116.5 231.5t-209.5 91.5q-119 0 -196 -112.5t-77 -337.5q0 -187 93.5 -302.5t236.5 -115.5q119 0 190 55.5t124 169.5l67 -33q-26 -63 -63 -114t-88.5 -94 t-123 -67t-155.5 -24h-31v-86q38 0 72.5 -3.5t72 -13.5t64.5 -26.5t44.5 -45t17.5 -66.5q0 -64 -34.5 -108.5t-98.5 -67t-136 -32t-165 -9.5v73q136 0 176 7q109 20 110 100q0 26 -17 42.5t-50.5 23.5t-59 8.5t-65.5 1.5v211q-184 31 -292 167.5t-108 337.5z" />
<glyph unicode="&#xe8;" horiz-adv-x="1118" d="M84 0v66q101 7 137 18q47 13 47 66v690q0 45 -47 65q-20 8 -65.5 16.5t-71.5 10.5v65h883v-252h-60q-15 49 -65 111t-86 66q-74 8 -135 8h-158v-377h100q88 0 129 41q16 16 28 55.5t15 75.5h64v-424h-64q-1 33 -16 78t-27 59q-40 45 -129 45h-100v-284q0 -83 30 -105 t138 -22q70 0 101 1t71.5 9t56.5 24q31 29 71 103t54 115h62l-27 -324h-936zM273 1460q0 30 24 54t58 24q40 0 68.5 -19t56.5 -69q87 -146 200 -312l-33 -24q-94 75 -187.5 146t-113.5 87q-41 33 -57 55t-16 58z" />
<glyph unicode="&#xe9;" horiz-adv-x="1118" d="M84 0v66q101 7 137 18q47 13 47 66v690q0 45 -47 65q-20 8 -65.5 16.5t-71.5 10.5v65h883v-252h-60q-15 49 -65 111t-86 66q-74 8 -135 8h-158v-377h100q88 0 129 41q16 16 28 55.5t15 75.5h64v-424h-64q-1 33 -16 78t-27 59q-40 45 -129 45h-100v-284q0 -83 30 -105 t138 -22q70 0 101 1t71.5 9t56.5 24q31 29 71 103t54 115h62l-27 -324h-936zM414 1138q113 166 200 312q28 50 56.5 69t68.5 19q34 0 58 -24t24 -54q0 -36 -16 -58t-57 -55q-20 -16 -113.5 -87t-187.5 -146z" />
<glyph unicode="&#xea;" horiz-adv-x="1118" d="M84 0v66q101 7 137 18q47 13 47 66v690q0 45 -47 65q-20 8 -65.5 16.5t-71.5 10.5v65h883v-252h-60q-15 49 -65 111t-86 66q-74 8 -135 8h-158v-377h100q88 0 129 41q16 16 28 55.5t15 75.5h64v-424h-64q-1 33 -16 78t-27 59q-40 45 -129 45h-100v-284q0 -83 30 -105 t138 -22q70 0 101 1t71.5 9t56.5 24q31 29 71 103t54 115h62l-27 -324h-936zM241 1146q179 259 238 351q21 31 34.5 38t55.5 7q30 0 44 -4t20 -10t20 -27q25 -36 104.5 -154t135.5 -201l-39 -24l-289 274l-285 -274z" />
<glyph unicode="&#xeb;" horiz-adv-x="1118" d="M84 0v66q101 7 137 18q47 13 47 66v690q0 45 -47 65q-20 8 -65.5 16.5t-71.5 10.5v65h883v-252h-60q-15 49 -65 111t-86 66q-74 8 -135 8h-158v-377h100q88 0 129 41q16 16 28 55.5t15 75.5h64v-424h-64q-1 33 -16 78t-27 59q-40 45 -129 45h-100v-284q0 -83 30 -105 t138 -22q70 0 101 1t71.5 9t56.5 24q31 29 71 103t54 115h62l-27 -324h-936zM221 1351q0 49 35 85t82 36q53 0 88 -33.5t35 -78.5q0 -52 -35.5 -88.5t-87.5 -36.5q-47 0 -82 34.5t-35 81.5zM665 1351q0 50 35 85.5t84 35.5q51 0 86 -33.5t35 -78.5q0 -51 -35 -88t-86 -37 q-49 0 -84 34.5t-35 81.5z" />
<glyph unicode="&#xec;" horiz-adv-x="731" d="M90 0v66q101 7 133 16q47 14 47 63v697q0 47 -47 63q-79 24 -133 27v65h555v-65q-78 -5 -133 -21q-47 -11 -47 -63v-694q0 -46 47 -64q11 -5 60 -14t73 -10v-66h-555zM90 1460q0 30 24 54t58 24q40 0 68.5 -19t56.5 -69q87 -146 200 -312l-33 -24q-94 75 -187.5 146 t-113.5 87q-41 33 -57 55t-16 58z" />
<glyph unicode="&#xed;" horiz-adv-x="731" d="M90 0v66q101 7 133 16q47 14 47 63v697q0 47 -47 63q-79 24 -133 27v65h555v-65q-78 -5 -133 -21q-47 -11 -47 -63v-694q0 -46 47 -64q11 -5 60 -14t73 -10v-66h-555zM271 1138q113 166 200 312q28 50 56.5 69t68.5 19q34 0 58 -24t24 -54q0 -36 -16 -58t-57 -55 q-20 -16 -113.5 -87t-187.5 -146z" />
<glyph unicode="&#xee;" horiz-adv-x="731" d="M82 1147q60 98 129.5 223.5t69.5 126.5q19 32 31 38.5t55 6.5q9 0 16 -0.5t12.5 -0.5t10.5 -1.5t8 -1.5t6.5 -3.5t5 -4t4.5 -5.5t4 -6.5t5 -8t5 -9.5q14 -24 80 -141t123 -213l-41 -25l-244 277l-239 -277zM90 0v66q101 7 133 16q47 14 47 63v697q0 47 -47 63 q-79 24 -133 27v65h555v-65q-78 -5 -133 -21q-47 -11 -47 -63v-694q0 -46 47 -64q11 -5 60 -14t73 -10v-66h-555z" />
<glyph unicode="&#xef;" horiz-adv-x="731" d="M61 1352q0 50 34 85.5t81 35.5q53 0 87 -33.5t34 -79.5q0 -52 -34.5 -88.5t-86.5 -36.5q-47 0 -81 35t-34 82zM90 0v66q101 7 133 16q47 14 47 63v697q0 47 -47 63q-79 24 -133 27v65h555v-65q-78 -5 -133 -21q-47 -11 -47 -63v-694q0 -46 47 -64q11 -5 60 -14t73 -10 v-66h-555zM444 1352q0 50 34 85.5t83 35.5q51 0 85 -33.5t34 -79.5q0 -51 -34 -87t-85 -36q-49 0 -83 33.5t-34 81.5z" />
<glyph unicode="&#xf0;" horiz-adv-x="1269" d="M82 481v80h186v279q0 51 -47 67q-63 20 -129 25v65h518q67 0 137.5 -14t148 -51t137.5 -91.5t99 -144.5t39 -202q0 -97 -33.5 -179t-90.5 -139.5t-132.5 -97.5t-160.5 -59t-174 -19h-494v66q102 6 135 16q47 13 47 65v334h-186zM463 178q0 -53 32.5 -78.5t106.5 -25.5 q177 0 261.5 111.5t84.5 308.5q0 193 -104 312.5t-279 119.5q-15 0 -50 -1t-52 -1v-363h248v-80h-248v-303z" />
<glyph unicode="&#xf1;" horiz-adv-x="1308" d="M18 932v65h414l559 -735v432q0 84 -9 129.5t-40 61.5q-27 15 -87.5 29t-98.5 18v65h530v-65q-28 -2 -84.5 -15t-73.5 -24q-28 -16 -37.5 -63.5t-9.5 -127.5v-716h-104l-623 811v-488q0 -159 49 -196q16 -11 88.5 -28t100.5 -19v-66h-535v66q26 2 87.5 16.5t72.5 23.5 q49 33 49 195v459q0 31 -12.5 62.5t-34.5 47.5q-26 19 -92 39t-109 23zM279 1185q14 39 36.5 80t55 82.5t76.5 67.5t90 26q53 0 102 -17t79.5 -38t67.5 -38t70 -17q31 0 53.5 5.5t36 11t26.5 22.5t18 26.5t16.5 36.5t17.5 39l55 -18q-15 -54 -50 -110.5t-93.5 -101 t-120.5 -44.5q-56 0 -105.5 17t-79 38t-68.5 38t-77 17q-21 0 -38 -5.5t-27.5 -10t-24 -22.5t-19 -26t-21.5 -37.5t-23 -41.5z" />
<glyph unicode="&#xf2;" horiz-adv-x="1251" d="M100 487q0 239 152 385q152 152 373 152q112 0 202.5 -35.5t176.5 -116.5q70 -64 108.5 -161t38.5 -205q0 -247 -162 -391q-155 -142 -371 -142q-197 0 -352 140q-166 143 -166 374zM305 1460q0 30 24 54t58 24q40 0 68.5 -19t56.5 -69q87 -146 200 -312l-33 -24 q-94 75 -187.5 146t-113.5 87q-41 33 -57 55t-16 58zM324 496q0 -126 30.5 -224.5t100 -160.5t170.5 -62q150 0 226.5 124.5t76.5 328.5q0 88 -16 164t-50 141t-94.5 103t-142.5 38q-141 0 -221 -119.5t-80 -332.5z" />
<glyph unicode="&#xf3;" horiz-adv-x="1251" d="M100 487q0 239 152 385q152 152 373 152q112 0 202.5 -35.5t176.5 -116.5q70 -64 108.5 -161t38.5 -205q0 -247 -162 -391q-155 -142 -371 -142q-197 0 -352 140q-166 143 -166 374zM324 496q0 -126 30.5 -224.5t100 -160.5t170.5 -62q150 0 226.5 124.5t76.5 328.5 q0 88 -16 164t-50 141t-94.5 103t-142.5 38q-141 0 -221 -119.5t-80 -332.5zM516 1138q113 166 200 312q28 50 56.5 69t68.5 19q34 0 58 -24t24 -54q0 -36 -16 -58t-57 -55q-20 -16 -113.5 -87t-187.5 -146z" />
<glyph unicode="&#xf4;" horiz-adv-x="1251" d="M100 487q0 239 152 385q152 152 373 152q112 0 202.5 -35.5t176.5 -116.5q70 -64 108.5 -161t38.5 -205q0 -247 -162 -391q-155 -142 -371 -142q-197 0 -352 140q-166 143 -166 374zM292 1146q179 259 238 351q21 31 34.5 38t55.5 7q30 0 44 -4t20 -10t20 -27 q25 -36 104.5 -154t135.5 -201l-39 -24l-289 274l-285 -274zM324 496q0 -126 30.5 -224.5t100 -160.5t170.5 -62q150 0 226.5 124.5t76.5 328.5q0 88 -16 164t-50 141t-94.5 103t-142.5 38q-141 0 -221 -119.5t-80 -332.5z" />
<glyph unicode="&#xf5;" horiz-adv-x="1251" d="M100 487q0 239 152 385q152 152 373 152q112 0 202.5 -35.5t176.5 -116.5q70 -64 108.5 -161t38.5 -205q0 -247 -162 -391q-155 -142 -371 -142q-197 0 -352 140q-166 143 -166 374zM234 1185q14 39 36.5 80t55 82.5t76.5 67.5t90 26q53 0 102 -17t79.5 -38t67.5 -38 t70 -17q31 0 53.5 5.5t36 11t26.5 22.5t18 26.5t16.5 36.5t17.5 39l55 -18q-15 -54 -50 -110.5t-93.5 -101t-120.5 -44.5q-56 0 -105.5 17t-79 38t-68.5 38t-77 17q-21 0 -38 -5.5t-27.5 -10t-24 -22.5t-19 -26t-21.5 -37.5t-23 -41.5zM324 496q0 -126 30.5 -224.5 t100 -160.5t170.5 -62q150 0 226.5 124.5t76.5 328.5q0 88 -16 164t-50 141t-94.5 103t-142.5 38q-141 0 -221 -119.5t-80 -332.5z" />
<glyph unicode="&#xf6;" horiz-adv-x="1251" d="M100 487q0 239 152 385q152 152 373 152q112 0 202.5 -35.5t176.5 -116.5q70 -64 108.5 -161t38.5 -205q0 -247 -162 -391q-155 -142 -371 -142q-197 0 -352 140q-166 143 -166 374zM276 1351q0 49 35 85t82 36q53 0 88 -33.5t35 -78.5q0 -52 -35.5 -88.5t-87.5 -36.5 q-47 0 -82 34.5t-35 81.5zM324 496q0 -126 30.5 -224.5t100 -160.5t170.5 -62q150 0 226.5 124.5t76.5 328.5q0 88 -16 164t-50 141t-94.5 103t-142.5 38q-141 0 -221 -119.5t-80 -332.5zM720 1351q0 50 35 85.5t84 35.5q51 0 86 -33.5t35 -78.5q0 -51 -35 -88t-86 -37 q-49 0 -84 34.5t-35 81.5z" />
<glyph unicode="&#xf7;" d="M100 479v107h987v-107h-987zM457 150q0 57 40 97t97 40t97 -40t40 -97t-40 -96.5t-97 -39.5t-97 39.5t-40 96.5zM457 913q0 57 40 96.5t97 39.5t97 -39.5t40 -96.5t-40 -97t-97 -40t-97 40t-40 97z" />
<glyph unicode="&#xf8;" horiz-adv-x="1251" d="M98 -20l142 157q-140 140 -140 350q0 239 152 385q152 152 373 152q189 0 323 -104l139 153l62 -51l-139 -154q67 -64 104 -160t37 -202q0 -247 -162 -391q-155 -142 -371 -142q-180 0 -317 111l-141 -156zM319 496q0 -133 35 -236l504 557q-77 131 -233 131 q-142 0 -224 -120t-82 -332zM391 186q80 -137 234 -137q101 0 171.5 60.5t103 160.5t32.5 232q0 134 -37 241z" />
<glyph unicode="&#xf9;" horiz-adv-x="1300" d="M76 932v65h540v-63q-64 -4 -124 -23q-48 -14 -48 -65v-527q0 -36 4 -65t19 -64.5t41 -60t74 -41t114 -16.5q65 0 116 17.5t79.5 43.5t47 60.5t24.5 64.5t6 61v379q0 162 -49 189q-25 16 -81.5 29.5t-93.5 17.5v63h519v-65q-30 -2 -84.5 -13.5t-75.5 -23.5 q-28 -16 -36.5 -62.5t-8.5 -125.5v-398q0 -69 -22.5 -125.5t-61 -95.5t-89.5 -66t-107 -39t-115 -12q-196 0 -307 85.5t-111 205.5v578q0 44 -47 65q-19 8 -59 16.5t-64 10.5zM332 1460q0 30 24 54t58 24q40 0 68.5 -19t56.5 -69q87 -146 200 -312l-33 -24 q-94 75 -187.5 146t-113.5 87q-41 33 -57 55t-16 58z" />
<glyph unicode="&#xfa;" horiz-adv-x="1300" d="M76 932v65h540v-63q-64 -4 -124 -23q-48 -14 -48 -65v-527q0 -36 4 -65t19 -64.5t41 -60t74 -41t114 -16.5q65 0 116 17.5t79.5 43.5t47 60.5t24.5 64.5t6 61v379q0 162 -49 189q-25 16 -81.5 29.5t-93.5 17.5v63h519v-65q-30 -2 -84.5 -13.5t-75.5 -23.5 q-28 -16 -36.5 -62.5t-8.5 -125.5v-398q0 -69 -22.5 -125.5t-61 -95.5t-89.5 -66t-107 -39t-115 -12q-196 0 -307 85.5t-111 205.5v578q0 44 -47 65q-19 8 -59 16.5t-64 10.5zM551 1138q113 166 200 312q28 50 56.5 69t68.5 19q34 0 58 -24t24 -54q0 -36 -16 -58t-57 -55 q-20 -16 -113.5 -87t-187.5 -146z" />
<glyph unicode="&#xfb;" horiz-adv-x="1300" d="M76 932v65h540v-63q-64 -4 -124 -23q-48 -14 -48 -65v-527q0 -36 4 -65t19 -64.5t41 -60t74 -41t114 -16.5q65 0 116 17.5t79.5 43.5t47 60.5t24.5 64.5t6 61v379q0 162 -49 189q-25 16 -81.5 29.5t-93.5 17.5v63h519v-65q-30 -2 -84.5 -13.5t-75.5 -23.5 q-28 -16 -36.5 -62.5t-8.5 -125.5v-398q0 -69 -22.5 -125.5t-61 -95.5t-89.5 -66t-107 -39t-115 -12q-196 0 -307 85.5t-111 205.5v578q0 44 -47 65q-19 8 -59 16.5t-64 10.5zM350 1146q179 259 238 351q21 31 34.5 38t55.5 7q30 0 44 -4t20 -10t20 -27q25 -36 104.5 -154 t135.5 -201l-39 -24l-289 274l-285 -274z" />
<glyph unicode="&#xfc;" horiz-adv-x="1300" d="M76 932v65h540v-63q-64 -4 -124 -23q-48 -14 -48 -65v-527q0 -36 4 -65t19 -64.5t41 -60t74 -41t114 -16.5q65 0 116 17.5t79.5 43.5t47 60.5t24.5 64.5t6 61v379q0 162 -49 189q-25 16 -81.5 29.5t-93.5 17.5v63h519v-65q-30 -2 -84.5 -13.5t-75.5 -23.5 q-28 -16 -36.5 -62.5t-8.5 -125.5v-398q0 -69 -22.5 -125.5t-61 -95.5t-89.5 -66t-107 -39t-115 -12q-196 0 -307 85.5t-111 205.5v578q0 44 -47 65q-19 8 -59 16.5t-64 10.5zM338 1351q0 49 35 85t82 36q53 0 88 -33.5t35 -78.5q0 -52 -35.5 -88.5t-87.5 -36.5 q-47 0 -82 34.5t-35 81.5zM782 1351q0 50 35 85.5t84 35.5q51 0 86 -33.5t35 -78.5q0 -51 -35 -88t-86 -37q-49 0 -84 34.5t-35 81.5z" />
<glyph unicode="&#xfd;" horiz-adv-x="1046" d="M-33 932v65h561v-65q-54 -2 -112 -12.5t-58 -28.5t180 -315q9 -15 14 -23.5t13 -22t15 -24.5q66 101 94 144t66 102.5t51.5 85.5t13.5 34q0 46 -170 60v65h448v-65q-17 -2 -57 -12t-53 -17q-26 -12 -39 -24t-41 -43q-105 -120 -250 -379q-33 -59 -33 -156v-143 q0 -47 47 -66q12 -5 73 -15t87 -11v-66h-608v66q125 8 160 18q47 15 47 68v219q0 30 -43 104q-111 204 -199 340q-38 65 -86 90q-47 22 -121 27zM475 1138q113 166 200 312q28 50 56.5 69t68.5 19q34 0 58 -24t24 -54q0 -36 -16 -58t-57 -55q-20 -16 -113.5 -87t-187.5 -146 z" />
<glyph unicode="&#xfe;" horiz-adv-x="1048" d="M88 932v65h561v-65l-35 -4q-34 -3 -58.5 -7.5t-45.5 -11.5q-22 -7 -34.5 -25t-12.5 -40v-41h178q150 0 241 -74t91 -190q0 -144 -107 -233t-272 -89h-131v-67q0 -53 47 -66q13 -4 66.5 -10t87.5 -8v-66h-570v66q84 5 127 18q47 15 47 66v692q0 54 -47 67q-76 20 -133 23z M463 287h65q55 0 97.5 17t66 41t37.5 56t18.5 56t4.5 47q0 33 -5.5 63.5t-19.5 61.5t-35.5 53.5t-56.5 36.5t-80 14h-92v-446z" />
<glyph unicode="&#xff;" horiz-adv-x="1046" d="M-33 932v65h561v-65q-54 -2 -112 -12.5t-58 -28.5t180 -315q9 -15 14 -23.5t13 -22t15 -24.5q66 101 94 144t66 102.5t51.5 85.5t13.5 34q0 46 -170 60v65h448v-65q-17 -2 -57 -12t-53 -17q-26 -12 -39 -24t-41 -43q-105 -120 -250 -379q-33 -59 -33 -156v-143 q0 -47 47 -66q12 -5 73 -15t87 -11v-66h-608v66q125 8 160 18q47 15 47 68v219q0 30 -43 104q-111 204 -199 340q-38 65 -86 90q-47 22 -121 27zM217 1351q0 49 35 85t82 36q53 0 88 -33.5t35 -78.5q0 -52 -35.5 -88.5t-87.5 -36.5q-47 0 -82 34.5t-35 81.5zM661 1351 q0 50 35 85.5t84 35.5q51 0 86 -33.5t35 -78.5q0 -51 -35 -88t-86 -37q-49 0 -84 34.5t-35 81.5z" />
<glyph unicode="&#x152;" horiz-adv-x="2095" d="M78 684q0 317 182 514q92 99 218 152t259 53q90 0 215.5 -2t186.5 -2h798v-338h-75q-19 74 -88.5 160t-131.5 94q-65 8 -169 8h-191v-559h127q53 0 91.5 12.5t49.5 21.5t31 29q22 22 40.5 78t23.5 101h75v-572h-75q-3 44 -24 106.5t-40 82.5q-18 19 -32.5 30t-51 22 t-88.5 11h-127v-420q0 -44 3 -72.5t14.5 -50.5t26.5 -33.5t45.5 -18.5t64.5 -9t90 -2q115 0 180.5 9.5t93.5 37.5q42 44 95.5 139.5t70.5 147.5h72l-27 -414h-872q-144 0 -410 -4q-125 0 -243.5 47.5t-206.5 136.5q-201 204 -201 504zM324 694q0 -98 14.5 -186.5t48 -170 t82.5 -141t123 -95t166 -35.5q163 0 241 81q52 54 71.5 196t19.5 359q0 100 -0.5 148t-4.5 120.5t-12 112.5t-23 82t-38 70q-76 96 -254 96q-140 0 -239 -83.5t-147 -225.5t-48 -328z" />
<glyph unicode="&#x153;" horiz-adv-x="1679" d="M100 487q0 225 136 361q71 71 166 112t192 41q67 0 165 -2t142 -2h627v-252h-60q-15 49 -65 111t-86 66q-74 8 -135 8h-158v-377h100q88 0 129 41q16 16 28 55.5t15 75.5h64v-424h-64q-1 33 -16 78t-27 59q-41 45 -129 45h-100v-284q0 -83 30 -105t138 -22q70 0 101 1 t71.5 9t56.5 24q31 29 71 103t54 115h62l-27 -324h-680q-50 0 -157.5 -2t-157.5 -2q-92 0 -181 37t-157 102q-148 141 -148 352zM324 496q0 -92 16 -167.5t50 -134.5t92 -91.5t136 -32.5q69 0 102.5 11t63.5 36q27 22 42 93.5t17.5 134t2.5 157.5v48.5v50.5t-0.5 47.5 t-1.5 48.5t-3.5 43.5t-6.5 42t-9.5 34.5t-13.5 31t-18 22q-61 58 -172 58q-146 0 -221.5 -111.5t-75.5 -320.5z" />
<glyph unicode="&#x178;" horiz-adv-x="1284" d="M-63 1331v68h659v-68q-8 0 -33.5 -1.5t-39.5 -2.5t-38 -3t-38 -5t-29 -8t-22 -12.5t-7 -16.5q0 -37 313 -594q328 516 328 567q0 15 -8.5 26.5t-25.5 19t-34.5 13t-45 9t-46.5 5t-49 3.5v68h533v-68q-19 -2 -60.5 -15.5t-58.5 -23.5q-44 -25 -63 -41.5t-56 -62.5 q-52 -65 -109 -154.5t-88 -144.5t-114 -205q-72 -130 -72 -229v-252q0 -76 64 -103q19 -7 79.5 -18.5t88.5 -13.5v-68h-680v68q127 7 168 22q63 23 63 103v335q0 50 -53 154q-110 216 -260 477q-52 90 -135 139q-54 29 -131 33zM340 1671q0 49 35 85t82 36q53 0 88 -33.5 t35 -78.5q0 -52 -35.5 -88.5t-87.5 -36.5q-47 0 -82 34.5t-35 81.5zM784 1671q0 50 35 85.5t84 35.5q51 0 86 -33.5t35 -78.5q0 -51 -35 -88t-86 -37q-49 0 -84 34.5t-35 81.5z" />
<glyph unicode="&#x2c6;" horiz-adv-x="1024" d="M186 1126q179 259 238 351q21 31 34.5 38t55.5 7q30 0 44 -4t20 -10t20 -27q25 -36 104.5 -154t135.5 -201l-39 -24l-289 274l-285 -274z" />
<glyph unicode="&#x2dc;" horiz-adv-x="1024" d="M111 1165q14 39 36.5 80t55 82.5t76.5 67.5t90 26q53 0 102 -17t79.5 -38t67.5 -38t70 -17q31 0 53.5 5.5t36 11t26.5 22.5t18 26.5t16.5 36.5t17.5 39l55 -18q-15 -54 -50 -110.5t-93.5 -101t-120.5 -44.5q-56 0 -105.5 17t-79 38t-68.5 38t-77 17q-21 0 -38 -5.5 t-27.5 -10t-24 -22.5t-19 -26t-21.5 -37.5t-23 -41.5z" />
<glyph unicode="&#x2000;" horiz-adv-x="956" />
<glyph unicode="&#x2001;" horiz-adv-x="1913" />
<glyph unicode="&#x2002;" horiz-adv-x="956" />
<glyph unicode="&#x2003;" horiz-adv-x="1913" />
<glyph unicode="&#x2004;" horiz-adv-x="637" />
<glyph unicode="&#x2005;" horiz-adv-x="478" />
<glyph unicode="&#x2006;" horiz-adv-x="318" />
<glyph unicode="&#x2007;" horiz-adv-x="318" />
<glyph unicode="&#x2008;" horiz-adv-x="239" />
<glyph unicode="&#x2009;" horiz-adv-x="382" />
<glyph unicode="&#x200a;" horiz-adv-x="106" />
<glyph unicode="&#x2010;" horiz-adv-x="778" d="M82 446v158h614v-158h-614z" />
<glyph unicode="&#x2011;" horiz-adv-x="778" d="M82 446v158h614v-158h-614z" />
<glyph unicode="&#x2012;" horiz-adv-x="778" d="M82 446v158h614v-158h-614z" />
<glyph unicode="&#x2013;" horiz-adv-x="1110" d="M102 492v124h906v-124h-906z" />
<glyph unicode="&#x2014;" horiz-adv-x="1904" d="M152 461v125h1601v-125h-1601z" />
<glyph unicode="&#x2018;" horiz-adv-x="411" d="M61 940q0 188 261 336l32 -59q-48 -28 -76.5 -47.5t-58 -49t-44.5 -66t-19 -83.5h51q69 0 101 -35t32 -86q0 -44 -33 -79.5t-86 -35.5q-160 0 -160 205z" />
<glyph unicode="&#x2019;" horiz-adv-x="411" d="M80 788q49 28 77 47.5t57.5 49t45 66t19.5 83.5h-52q-69 0 -101 35t-32 86q0 44 33 79.5t86 35.5q160 0 160 -205q0 -188 -262 -336z" />
<glyph unicode="&#x201a;" horiz-adv-x="382" d="M66 -242q48 28 76.5 47.5t58 49t44.5 66t19 83.5h-51q-69 0 -101 35t-32 86q0 44 33 79.5t86 35.5q159 0 159 -205q0 -188 -262 -336z" />
<glyph unicode="&#x201c;" horiz-adv-x="757" d="M61 940q0 50 19.5 97.5t46 81t67 67t68 51t62.5 37.5l28 -57q-95 -55 -142.5 -108.5t-55.5 -143.5h51q127 0 127 -115q0 -44 -32 -79.5t-85 -35.5q-154 0 -154 205zM408 940q0 186 262 334l28 -57q-95 -55 -142.5 -108.5t-55.5 -143.5h51q127 0 127 -115q0 -44 -32 -79.5 t-85 -35.5q-153 0 -153 205z" />
<glyph unicode="&#x201d;" horiz-adv-x="757" d="M76 793q50 29 77.5 48t58.5 49t47 66.5t20 83.5h-52q-127 0 -127 115q0 44 32 79.5t85 35.5q154 0 154 -205q0 -50 -20.5 -97.5t-46.5 -79.5t-68.5 -66t-68 -50t-63.5 -37zM422 793q50 29 77.5 48t58.5 49t47 66.5t20 83.5h-52q-127 0 -127 115q0 44 32 79.5t85 35.5 q154 0 154 -205q0 -50 -20 -97.5t-46.5 -79.5t-68.5 -65.5t-67.5 -50t-63.5 -37.5z" />
<glyph unicode="&#x201e;" horiz-adv-x="729" d="M61 -244q99 57 147 108t56 140h-51q-127 0 -127 115q0 44 32 79t85 35q82 0 117.5 -53t35.5 -151q0 -50 -20 -97.5t-46.5 -79.5t-68.5 -65.5t-67.5 -50t-63.5 -37.5zM408 -244q49 28 77.5 48t58.5 49.5t46 66.5t20 84h-51q-127 0 -127 115q0 44 32 79t85 35 q82 0 117.5 -53t35.5 -151q0 -50 -20 -97.5t-46.5 -79.5t-68.5 -65.5t-67.5 -50t-63.5 -37.5z" />
<glyph unicode="&#x2022;" horiz-adv-x="843" d="M143 666q0 114 82.5 196t196.5 82t196 -82t82 -196t-82 -194.5t-196 -80.5t-196.5 80.5t-82.5 194.5z" />
<glyph unicode="&#x2026;" horiz-adv-x="1683" d="M150 113q0 54 38.5 92.5t92.5 38.5t92.5 -38.5t38.5 -92.5t-38.5 -91.5t-92.5 -37.5t-92.5 37.5t-38.5 91.5zM711 113q0 54 38.5 92.5t92.5 38.5t92.5 -38.5t38.5 -92.5t-38.5 -91.5t-92.5 -37.5t-92.5 37.5t-38.5 91.5zM1272 113q0 54 38.5 92.5t92.5 38.5t92.5 -38.5 t38.5 -92.5t-38.5 -91.5t-92.5 -37.5t-92.5 37.5t-38.5 91.5z" />
<glyph unicode="&#x202f;" horiz-adv-x="382" />
<glyph unicode="&#x2039;" horiz-adv-x="718" d="M102 487q0 34 7.5 47.5t33.5 34.5q208 158 428 344l43 -36l-321 -394l321 -387l-43 -37q-393 318 -424 342q-22 17 -28.5 23t-11.5 21t-5 42z" />
<glyph unicode="&#x203a;" horiz-adv-x="718" d="M104 96l322 387l-322 394l43 36q220 -186 428 -344q18 -15 25 -22.5t11.5 -21.5t4.5 -38q0 -27 -5 -42t-11.5 -21t-28.5 -23q-31 -24 -424 -342z" />
<glyph unicode="&#x205f;" horiz-adv-x="478" />
<glyph unicode="&#x2122;" horiz-adv-x="1699" d="M90 1214v185h592v-185h-45q-11 38 -40 83t-54 49q-46 4 -74 4h-27v-496q0 -29 23 -39q42 -14 82 -14v-47h-322v47q52 0 82 10q23 8 23 37v502h-27q-34 0 -74 -4q-27 -4 -55 -48.5t-39 -83.5h-45zM764 754v45q75 13 90 22q27 19 27 121v320q0 43 -27 67q-27 21 -84 25v45 h236l194 -453l162 371q9 20 24 82h228v-45q-53 -4 -76 -13q-22 -5 -22 -36v-455q0 -27 22 -37q36 -12 76 -12v-47h-320v47q64 0 84 10q27 18 27 39v416l-221 -502h-35q-4 15 -51 135l-158 377v-330q0 -97 27 -121q12 -8 44 -16t52 -8v-47h-299z" />
<glyph unicode="&#x25fc;" horiz-adv-x="993" d="M0 0v993h993v-993h-993z" />
</font>
</defs>
</svg>
