<?xml version="1.0" standalone="no"?>
<!DOCTYPE svg PUBLIC "-//W3C//DTD SVG 1.1//EN" "http://www.w3.org/Graphics/SVG/1.1/DTD/svg11.dtd">
<svg xmlns="http://www.w3.org/2000/svg"><metadata>This SVG WebFont was generated by YouWorkForThem.
Copyright (c) 2014 by Daniel Hernandez &amp; Miguel Hernandez. All rights reserved.</metadata><defs><font horiz-adv-x="1220" id="ywftsvg"><font-face ascent="1536" bbox="-41 -393 2185 1665" cap-height="1229" descent="-512" font-family="" font-stretch="normal" font-weight="700" panose-1="2 0 0 0 0 0 0 0 0 0" underline-position="0" underline-thickness="0" unicode-range="U+000D-25CA" units-per-em="2048" x-height="860"/><missing-glyph horiz-adv-x="1155"/><glyph glyph-name=".notdef" horiz-adv-x="1155"/><glyph glyph-name="glyph1" horiz-adv-x="0"/><glyph glyph-name="glyph2" horiz-adv-x="681"/><glyph glyph-name="glyph3" horiz-adv-x="0"/><glyph glyph-name="glyph3" horiz-adv-x="0"/><glyph glyph-name="space" horiz-adv-x="438" unicode=" "/><glyph d="M516 1229l-168 -850h-137l68 850h237zM115 96q0 59 44 102.5t103 43.5q49 0 80 -33t31 -82q0 -57 -44 -100t-104 -43q-49 0 -79.5 31.5t-30.5 80.5z" glyph-name="exclam" horiz-adv-x="454" unicode="!"/><glyph d="M508 1401l-154 -428h-121l95 428h180zM813 1401l-154 -428h-120l92 428h182z" glyph-name="quotedbl" horiz-adv-x="673" unicode="&quot;"/><glyph d="M1233 1194l-113 -317h242l-45 -121h-242l-114 -320h237l-43 -121h-237l-115 -315h-129l112 315h-307l-112 -315h-131l114 315h-241l43 121h241l115 320h-238l45 121h238l113 317h127l-113 -317h309l113 317h131zM635 756l-113 -320h307l115 320h-309z" glyph-name="numbersign" horiz-adv-x="1300" unicode="#"/><glyph d="M90 125l133 154q12 -10 34 -28t93.5 -49.5t147.5 -39.5l53 381q-178 57 -261 131t-83 190q0 164 117.5 269.5t326.5 119.5l31 213h121l-31 -213q115 -8 202 -38.5t116 -57.5l30 -27l-133 -165q-82 80 -242 98l-49 -342q184 -57 267.5 -135t83.5 -197q0 -168 -119 -284.5 t-336 -131.5l-27 -192h-121l27 192q-121 8 -216 46t-130 71zM817 350q0 49 -34.5 85t-116.5 69l-48 -340q98 12 148.5 62t50.5 124zM432 897q0 -43 34 -74.5t116 -62.5l43 303q-90 -10 -141.5 -54t-51.5 -112z" glyph-name="dollar" horiz-adv-x="1062" unicode="$"/><glyph d="M526 1255q111 0 172.5 -74.5t61.5 -185.5q0 -141 -89 -246.5t-231 -105.5q-111 0 -172 75t-61 187q0 141 89 245.5t230 104.5zM508 1124q-70 0 -110 -59t-40 -154q0 -63 26 -99t75 -36q70 0 109.5 59.5t39.5 153.5q0 135 -100 135zM1092 596q111 0 173 -76t62 -186 q0 -139 -91 -244.5t-230 -105.5q-111 0 -172.5 75.5t-61.5 186.5q0 141 90.5 245.5t229.5 104.5zM1073 465q-70 0 -109.5 -59.5t-39.5 -153.5q0 -61 26.5 -98t73.5 -37q70 0 110 59.5t40 153.5q-1 135 -101 135zM1239 1229h188l-1148 -1229h-187z" glyph-name="percent" horiz-adv-x="1357" unicode="%"/><glyph d="M1051 612l184 -45q-59 -193 -178 -331l207 -236h-283l-78 92q-164 -113 -356 -112q-203 0 -307.5 85t-104.5 222q0 133 78 218t217 154l-22 29q-80 98 -80 219q0 145 112.5 246.5t286.5 101.5q147 0 231 -72.5t84 -189.5q0 -137 -81.5 -221t-231.5 -158l211 -241 q70 98 111 239zM569 152q117 0 226 73l-252 301q-90 -45 -137.5 -94t-47.5 -119q0 -74 59.5 -117.5t151.5 -43.5zM530 917.5q0 -75.5 74 -157.5l14 -17q111 49 166.5 96.5t55.5 121.5q0 57 -36 91.5t-99 34.5q-78 0 -126.5 -47t-48.5 -122.5z" glyph-name="ampersand" horiz-adv-x="1257" unicode="&amp;"/><glyph d="M508 1401l-152 -428h-123l95 428h180z" glyph-name="quotesingle" horiz-adv-x="370" unicode="'"/><glyph d="M365 588q-63 -440 145 -735l-145 -134q-283 352 -209 869q74 524 452 868l109 -133q-291 -291 -352 -735z" glyph-name="parenleft" horiz-adv-x="563" unicode="("/><glyph d="M379 745q0 358 -160 578l148 133q223 -285 223 -702q0 -598 -467 -1035l-111 134q367 366 367 892z" glyph-name="parenright" horiz-adv-x="565" unicode=")"/><glyph d="M281 909l208 191l-247 41l69 145l209 -125l2 260h148l-82 -262l254 127l28 -145l-266 -41l160 -191l-137 -88l-86 236l-152 -236z" glyph-name="asterisk" horiz-adv-x="792" unicode="*"/><glyph d="M754 1055l-54 -371h361l-23 -164h-360l-49 -354h-168l49 354h-360l22 164h360l54 371h168z" glyph-name="plus" horiz-adv-x="1040" unicode="+"/><glyph d="M352 100l-2 -14q-18 -129 -101 -221t-212 -117l-17 109q137 33 168 125q-39 8 -61.5 36.5t-22.5 67.5q0 55 43 96t99 41q51 0 82.5 -36t23.5 -87z" glyph-name="comma" horiz-adv-x="436" unicode=","/><glyph d="M166 387l22 164h574l-23 -164h-573z" glyph-name="hyphen" horiz-adv-x="794" unicode="-"/><glyph d="M211 -20q-45 0 -76 30.5t-31 75.5q0 55 43 96t99 41q45 0 75.5 -30.5t30.5 -77.5q0 -55 -43 -95t-98 -40z" glyph-name="period" horiz-adv-x="430" unicode="."/><glyph d="M217 -227l-207 -2l1178 1833h203z" glyph-name="slash" horiz-adv-x="1210" unicode="/"/><glyph d="M621 -29q-221 0 -338 151.5t-117 385.5q0 307 175 527t462 220q221 0 339 -150.5t118 -385.5q0 -305 -175 -526.5t-464 -221.5zM649 168q184 0 292 153.5t108 378.5q0 162 -71 261.5t-204 99.5q-182 0 -290.5 -155.5t-108.5 -379.5q0 -160 70.5 -259t203.5 -99z" glyph-name="zero" horiz-adv-x="1249" unicode="0"/><glyph d="M178 1049l25 180h471l-172 -1229h-203l147 1049h-268z" glyph-name="one" horiz-adv-x="641" unicode="1"/><glyph d="M90 0l21 141l563 496q80 70 111.5 120t31.5 122q0 80 -54 131t-147 51q-31 0 -61.5 -5t-58 -16.5t-50 -21.5t-47 -26.5t-37 -25t-32 -23.5t-21.5 -17l-86 161q6 6 19.5 17.5t58.5 41.5t92 51.5t120 39.5t146 18q188 0 291 -93t103 -240q0 -100 -38 -184.5t-149 -180.5 l-430 -377h537l-25 -180h-858z" glyph-name="two" horiz-adv-x="1036" unicode="2"/><glyph d="M559 573h-160l21 140l373 336h-545l28 180h818l-23 -156l-373 -342q299 -33 299 -311q0 -180 -135 -312.5t-389 -132.5q-78 0 -145.5 17.5t-108.5 43t-71.5 50.5t-45.5 41l-12 18l131 148q10 -14 30.5 -35.5t91.5 -58.5t153 -37q137 0 210.5 67.5t73.5 169.5 q0 174 -221 174z" glyph-name="three" horiz-adv-x="1038" unicode="3"/><glyph d="M84 276l20 150l781 803h176l-109 -772h203l-25 -181h-202l-39 -276h-203l39 276h-641zM367 465l-2 -8h385l67 471l-409 -428z" glyph-name="four" horiz-adv-x="1150" unicode="4"/><glyph d="M1018 1049h-531l-49 -299q63 12 142 12q211 0 314 -87t103 -239q0 -201 -138 -331t-386 -130q-78 0 -146.5 17.5t-109.5 43t-71.5 50.5t-43.5 41l-12 18l131 148q4 -6 11.5 -14.5t33 -31t54 -40t76.5 -31.5t100 -14q133 0 208.5 65.5t75.5 175.5q0 84 -66.5 134.5 t-195.5 50.5q-74 0 -142.5 -12.5t-100 -22.5t-33.5 -12l-23 20l111 668h712z" glyph-name="five" horiz-adv-x="1013" unicode="5"/><glyph d="M408 666l-2 -15q125 121 303 121q170 0 272 -92t102 -242q0 -195 -148.5 -328t-359.5 -133q-186 0 -299.5 119t-113.5 369q0 358 171 571t441 213q76 0 139.5 -16t101.5 -41t65.5 -48.5t37.5 -39.5l10 -17l-137 -155q-4 4 -21.5 23.5t-33.5 34t-43 31.5t-63.5 26.5 t-79.5 9.5q-285 0 -342 -391zM664 600q-104 0 -181 -57.5t-104 -153.5q14 -225 219 -225q115 0 192.5 73.5t77.5 178.5q0 82 -55 133t-149 51z" glyph-name="six" horiz-adv-x="1101" unicode="6"/><glyph d="M203 1049l24 180h848l-18 -142l-684 -1087h-238l672 1049h-604z" glyph-name="seven" horiz-adv-x="931" unicode="7"/><glyph d="M541 -29q-193 0 -299.5 95.5t-106.5 240.5q0 221 215 336q-104 78 -104 223q0 164 128 276.5t347 112.5q180 0 277.5 -86t97.5 -221q0 -195 -178 -305q133 -84 133 -250q0 -174 -141.5 -298t-368.5 -124zM836 379q0 78 -57.5 129t-155.5 51q-119 0 -196 -65.5t-77 -159.5 q0 -78 58.5 -130t156.5 -52q117 0 194 66.5t77 160.5zM645 715q106 0 173 58t67 142q0 68 -50.5 114t-138.5 46q-109 0 -176 -59.5t-67 -141.5q0 -70 51 -114.5t141 -44.5z" glyph-name="eight" horiz-adv-x="1085" unicode="8"/><glyph d="M535 164q276 0 327 397l2 14q-121 -121 -303 -120q-170 0 -272.5 92t-102.5 241q0 195 148.5 328t361.5 133q186 0 299 -118.5t113 -368.5q0 -358 -166 -573.5t-434 -215.5q-76 0 -139.5 16.5t-101.5 40t-65.5 47t-37.5 40.5l-10 16l137 158q4 -4 21.5 -23.5t33.5 -34 t44 -32t65 -27.5t80 -10zM606 627q102 0 180 57t103 152q-6 115 -63.5 171t-153.5 56q-115 0 -193 -74t-78 -178q0 -82 55.5 -133t149.5 -51z" glyph-name="nine" horiz-adv-x="1097" unicode="9"/><glyph d="M172.5 43q-20.5 27 -14.5 62.5t37 60.5q29 25 64.5 22.5t57.5 -28.5q20 -27 13.5 -63t-37.5 -60q-29 -25 -64.5 -23t-56 29zM264.5 694.5q-20.5 26.5 -14.5 61.5t37 59q29 25 64.5 24t56.5 -28q20 -29 14 -63.5t-37 -59.5q-29 -25 -64.5 -22.5t-56 29z" glyph-name="colon" horiz-adv-x="462" unicode=":"/><glyph d="M385 100l-2 -14q-18 -129 -101 -221t-212 -117l-17 109q137 33 168 125q-39 8 -61.5 36.5t-22.5 67.5q0 55 43 96t99 41q53 0 83.5 -36t22.5 -87zM336 631q-45 0 -76 30.5t-31 75.5q0 55 43 96t99 41q47 0 76.5 -31.5t29.5 -76.5q0 -55 -42 -95t-99 -40z" glyph-name="semicolon" horiz-adv-x="489" unicode=";"/><glyph d="M152 549l18 129l608 369l-30 -216l-402 -219l340 -219l-29 -215z" glyph-name="less" horiz-adv-x="761" unicode="&lt;"/><glyph d="M219 713l23 164h704l-22 -164h-705zM164 322l22 165h705l-23 -165h-704z" glyph-name="equal" horiz-adv-x="940" unicode="="/><glyph d="M782 678l-18 -129l-608 -371l30 215l402 219l-340 219l31 216z" glyph-name="greater" horiz-adv-x="761" unicode=">"/><glyph d="M291 977l-74 164q14 12 43 31.5t123 51t192 31.5q170 0 270.5 -77.5t100.5 -210.5q0 -92 -36 -164t-91 -117t-110.5 -83t-102.5 -84t-59 -97l-12 -47h-154l10 71q10 76 64.5 142.5t112 105.5t103.5 97.5t46 124t-49.5 105.5t-135.5 40q-59 0 -119.5 -20.5t-90.5 -41.5z M299 94q0 57 43 99.5t100 42.5q47 0 78 -32t31 -79q0 -57 -43 -99t-100 -42q-47 0 -78 31.5t-31 78.5z" glyph-name="question" horiz-adv-x="884" unicode="?"/><glyph d="M1554 104q-117 0 -180 58.5t-76 136.5h-12q-45 -74 -138 -128t-224 -54q-143 0 -233.5 91t-90.5 243q0 246 163 406.5t376 160.5q211 0 254 -170l55 149h162l-127 -495q-20 -96 -21 -125q0 -59 34 -96t99 -37q135 0 234.5 135t99.5 350q0 127 -43 246t-125 217 t-216 157.5t-302 59.5q-199 0 -381 -78t-312 -207t-207 -300t-77 -353q0 -315 208 -531t523 -216q115 0 226.5 29.5t167.5 58.5l55 28l35 -104q-20 -14 -61.5 -36t-171.5 -56.5t-267 -34.5q-252 0 -445.5 117.5t-293 309t-99.5 419.5q0 209 86 404.5t232.5 343t356.5 235.5 t442 88q358 0 583 -224.5t225 -553.5q0 -272 -142.5 -458t-371.5 -186zM989 301q129 0 229.5 110.5t100.5 239.5q0 86 -49 135.5t-133 49.5q-123 0 -220.5 -99.5t-97.5 -247.5q0 -90 44 -139t126 -49z" glyph-name="at" horiz-adv-x="2050" unicode="@"/><glyph d="M885 1229l332 -1229h-213l-66 252h-586l-133 -252h-215l676 1229h205zM750 993l-306 -569h451z" glyph-name="A" unicode="A"/><glyph d="M1204 389q0 -186 -134 -287.5t-361 -101.5h-557l172 1229h538q184 0 282.5 -74t98.5 -213q0 -111 -57.5 -190.5t-155.5 -118.5v-8q80 -23 127 -85.5t47 -150.5zM805 537h-375l-51 -357h358q106 0 180 54.5t74 144.5q0 70 -52 112t-134 46zM1026 899q0 150 -190 150h-334 l-49 -344h329q109 0 176.5 54t67.5 140z" glyph-name="B" horiz-adv-x="1232" unicode="B"/><glyph d="M1030 283l94 -156q-6 -6 -18 -16.5t-53 -38t-88 -48t-121 -37t-154 -16.5q-248 0 -393 158t-145 397q0 303 205.5 516t512.5 213q80 0 148.5 -15t112 -37.5t74 -46t44.5 -38.5l13 -16l-140 -158q-10 12 -29.5 32.5t-91 53.5t-153.5 33q-180 0 -315.5 -129t-161.5 -322 q-29 -190 70.5 -318t279.5 -128q82 0 159.5 29.5t114.5 58.5z" glyph-name="C" horiz-adv-x="1146" unicode="C"/><glyph d="M1313 700q0 -307 -205 -503.5t-522 -196.5h-434l172 1229h434q256 0 405.5 -144.5t149.5 -384.5zM721 1049h-219l-123 -869h219q211 0 358.5 136.5t147.5 361.5q0 174 -106.5 272.5t-276.5 98.5z" glyph-name="D" horiz-adv-x="1296" unicode="D"/><glyph d="M1026 709l-25 -172h-571l-51 -357h672l-25 -180h-874l172 1229h874l-24 -180h-672l-47 -340h571z" glyph-name="E" horiz-adv-x="1105" unicode="E"/><glyph d="M1024 707l-23 -172h-571l-76 -535h-202l172 1229h878l-24 -180h-676l-49 -342h571z" glyph-name="F" horiz-adv-x="1091" unicode="F"/><glyph d="M1108 516v6h-373l23 172h590l-17 -121q-37 -274 -211 -438t-436 -164q-248 0 -389 156t-141 397q0 303 203.5 517t512.5 214q86 0 160 -16t119 -39.5t78 -46.5t47 -39l12 -16l-141 -156q-4 4 -11.5 12.5t-35 30t-60 36.5t-85 28.5t-109.5 13.5q-205 0 -342 -150.5 t-137 -365.5q0 -168 93 -274.5t253 -106.5q164 0 276.5 98t120.5 252z" glyph-name="G" horiz-adv-x="1308" unicode="G"/><glyph d="M1352 1229l-172 -1229h-203l74 522h-623l-74 -522h-202l172 1229h202l-73 -535h622l74 535h203z" glyph-name="H" horiz-adv-x="1331" unicode="H"/><glyph d="M526 1229l-172 -1229h-202l172 1229h202z" glyph-name="I" horiz-adv-x="507" unicode="I"/><glyph d="M41 78l119 160q74 -70 192.5 -70t187 66.5t89.5 211.5l110 783h203l-115 -821q-31 -201 -155.5 -319t-333.5 -118q-191 1 -297 107z" glyph-name="J" horiz-adv-x="909" unicode="J"/><glyph d="M526 1229l-86 -617l664 617h239l-2 -25l-528 -491l369 -686l-4 -27h-224q-201 375 -301 563l-252 -233l-47 -330h-202l172 1229h202z" glyph-name="K" horiz-adv-x="1202" unicode="K"/><glyph d="M958 0h-806l172 1229h202l-147 -1049h604z" glyph-name="L" horiz-adv-x="1011" unicode="L"/><glyph d="M1135 0l120 856l-419 -463h-74l-289 457l-119 -850h-202l172 1229h155l357 -574l518 574h151l-170 -1229h-200z" glyph-name="M" horiz-adv-x="1486" unicode="M"/><glyph d="M1384 1229l-172 -1229h-151l-584 872l-123 -872h-202l172 1229h153l584 -869l121 869h202z" glyph-name="N" horiz-adv-x="1363" unicode="N"/><glyph d="M686 -29q-244 0 -388 158t-144 397q0 301 204.5 515t507.5 214q244 0 388.5 -157.5t144.5 -399.5q0 -299 -205 -513t-508 -214zM713 168q203 0 340 147.5t137 360.5q0 168 -95.5 276.5t-256.5 108.5q-201 0 -337 -149.5t-136 -362.5q0 -166 95 -273.5t253 -107.5z" glyph-name="O" horiz-adv-x="1382" unicode="O"/><glyph d="M152 0l172 1229h505q197 0 308.5 -95.5t111.5 -259.5q0 -221 -149.5 -349t-390.5 -128h-299l-56 -397h-202zM1036 850q0 98 -64.5 148.5t-176.5 50.5h-293l-68 -474h295q141 0 224 70t83 205z" glyph-name="P" horiz-adv-x="1181" unicode="P"/><glyph d="M686 -29q-244 0 -388 158t-144 397q0 301 204.5 515t507.5 214q244 0 388.5 -157.5t144.5 -399.5q0 -211 -109.5 -387t-294.5 -268l121 -274h-225l-90 213q-62 -11 -115 -11zM713 168q203 0 340 147.5t137 360.5q0 168 -95.5 276.5t-256.5 108.5q-201 0 -337 -149.5 t-136 -362.5q0 -166 95 -273.5t253 -107.5z" glyph-name="Q" horiz-adv-x="1382" unicode="Q"/><glyph d="M324 1229h505q197 0 308.5 -95.5t111.5 -259.5q0 -160 -86 -271t-233 -165l-2 -10l239 -399l-4 -29h-223l-235 406h-293l-58 -406h-202zM1034 850q0 98 -63.5 148.5t-175.5 50.5h-293l-66 -463h305q131 0 212 67.5t81 196.5z" glyph-name="R" horiz-adv-x="1226" unicode="R"/><glyph d="M90 125l133 154q14 -12 41 -33t113 -53.5t176 -32.5q133 0 198.5 52t65.5 138q0 61 -55 103.5t-197 85.5q-186 59 -272 132.5t-86 192.5q0 176 134 283.5t370 107.5q135 0 237.5 -31.5t136.5 -62.5l35 -31l-133 -165q-12 12 -34.5 28.5t-100.5 45t-168 28.5 q-115 0 -183.5 -45t-68.5 -125q0 -53 55.5 -91t192.5 -79q193 -59 280 -138t87 -200q0 -180 -135.5 -299t-379.5 -119q-139 0 -249.5 39t-151.5 76z" glyph-name="S" horiz-adv-x="1060" unicode="S"/><glyph d="M197 1049l24 180h973l-25 -180h-385l-147 -1049h-203l148 1049h-385z" glyph-name="T" horiz-adv-x="1071" unicode="T"/><glyph d="M645 -29q-236 0 -353.5 152.5t-82.5 396.5l100 709h203l-100 -709q-23 -158 44.5 -256t217.5 -98q152 0 245 97t115 257l101 709h202l-100 -709q-35 -244 -193.5 -396.5t-398.5 -152.5z" glyph-name="U" horiz-adv-x="1298" unicode="U"/><glyph d="M508 0l-332 1229h215l252 -996l533 996h213l-676 -1229h-205z" glyph-name="V" unicode="V"/><glyph d="M1069 0l-125 885l-369 -885h-157l-217 1229h215l127 -871l364 871h170l121 -873l373 873h219l-563 -1229h-158z" glyph-name="W" horiz-adv-x="1644" unicode="W"/><glyph d="M1266 1229l-463 -598l303 -631h-246l-188 422l-37 92l-60 -92l-305 -422h-243l473 631l-291 598h246l184 -402l29 -92l59 92l295 402h244z" glyph-name="X" horiz-adv-x="1128" unicode="X"/><glyph d="M700 748l342 481h226l-551 -758l-66 -471h-202l65 471l-338 758h227l207 -481l31 -101z" glyph-name="Y" horiz-adv-x="1099" unicode="Y"/><glyph d="M61 0l21 145l821 904h-672l25 180h942l-20 -150l-809 -899h671l-24 -180h-955z" glyph-name="Z" horiz-adv-x="1093" unicode="Z"/><glyph d="M84 -266l240 1700h512l-25 -164h-319l-193 -1372h319l-22 -164h-512z" glyph-name="bracketleft" horiz-adv-x="667" unicode="["/><glyph d="M469 -262l-178 1896h201l178 -1896h-201z" glyph-name="backslash" horiz-adv-x="768" unicode="\"/><glyph d="M-2 -266l22 164h318l192 1372h-317l25 164h512l-240 -1700h-512z" glyph-name="bracketright" horiz-adv-x="667" unicode="]"/><glyph d="M741 1018l-137 260l-213 -260h-158l334 401h117l223 -401h-166z" glyph-name="asciicircum" horiz-adv-x="854" unicode="^"/><glyph d="M61 -246l23 164h905l-22 -164h-906z" glyph-name="underscore" horiz-adv-x="1097" unicode="_"/><glyph d="M428 1018l-147 274l235 35l49 -309h-137z" glyph-name="grave" horiz-adv-x="571" unicode="`"/><glyph d="M913 530l-73 -530h-142l-8 113h-10q-102 -133 -303 -133q-135 0 -211 66.5t-76 172.5q0 143 112.5 229.5t321.5 86.5q102 0 193 -29l4 29q14 94 -37 137t-162 43q-57 0 -117.5 -15.5t-91.5 -31.5l-30 -17l-50 152q137 78 345 78q190 0 274 -93.5t61 -257.5zM442 123 q92 0 162 53t84 133l10 70q-61 33 -170 33q-242 0 -241 -164q0 -55 40.5 -90t114.5 -35z" glyph-name="a" horiz-adv-x="950" unicode="a"/><glyph d="M123 0l174 1239h201l-70 -489h8q4 6 10.5 14t31 30.5t54 40t82 32t111.5 14.5q150 0 243 -105.5t93 -277.5q0 -227 -136.5 -372.5t-330.5 -145.5q-63 0 -115.5 16t-82 38.5t-49 45t-25.5 39.5l-7 16h-8l-47 -135h-137zM371 383q0 -109 56 -173.5t148 -64.5 q117 0 199 95.5t82 234.5q0 106 -55.5 173t-145.5 67q-119 0 -201.5 -92.5t-82.5 -239.5z" glyph-name="b" horiz-adv-x="1067" unicode="b"/><glyph d="M510 -20q-176 0 -280.5 107.5t-104.5 279.5q0 219 146.5 366.5t365.5 147.5q82 0 146.5 -18.5t86.5 -39.5l23 -18l-78 -148q-72 57 -188 58q-125 0 -211 -92.5t-86 -241.5q0 -111 59.5 -173.5t157.5 -62.5q51 0 102 14.5t76 28.5l27 15l32 -146q-10 -8 -29.5 -21 t-91 -34.5t-153.5 -21.5z" glyph-name="c" horiz-adv-x="837" unicode="c"/><glyph d="M846 760h8l66 479h200l-174 -1239h-135l-12 127h-8q-4 -6 -11.5 -16.5t-36 -35t-62.5 -44t-90 -35.5t-120 -16q-154 0 -249 104t-95 276q0 223 137 372t328 149q92 0 155.5 -31t79.5 -59zM823 477q0 109 -57 173.5t-152 64.5q-119 0 -200.5 -94.5t-81.5 -235.5 q0 -106 55 -173t148 -67q119 0 203.5 92.5t84.5 239.5z" glyph-name="d" horiz-adv-x="1069" unicode="d"/><glyph d="M795 215l53 -137q-12 -12 -37 -28.5t-111 -45.5t-182 -29q-184 0 -288.5 106.5t-104.5 280.5q0 219 139 369t348 150q162 0 249 -97.5t87 -261.5q0 -33 -3 -63.5t-7 -44.5l-4 -15h-610q-8 -127 52 -193.5t177 -66.5q66 0 126 18.5t87 39.5zM586 725q-174 0 -236 -193h404 q6 193 -168 193z" glyph-name="e" horiz-adv-x="940" unicode="e"/><glyph d="M735 702h-239l-99 -702h-200l98 702h-154l23 158h153l11 74q20 150 114.5 234.5t241.5 84.5q53 0 100 -10t68 -20l20 -11l-84 -151q-43 23 -108 22q-59 0 -100 -37.5t-50 -101.5l-12 -84h240z" glyph-name="f" horiz-adv-x="659" unicode="f"/><glyph d="M1010 707h-123v-5q25 -23 24 -94q0 -131 -106.5 -227t-288.5 -96q-102 0 -176 37q-59 -31 -59 -76q0 -23 16 -38t73.5 -28.5t157.5 -17.5q209 -10 297 -62.5t88 -156.5q0 -137 -131 -231.5t-356 -94.5q-197 0 -292 58.5t-95 156.5q0 139 170 221q-106 47 -107 154 q0 123 144 192q-39 57 -39 142q0 141 108.5 238.5t284.5 97.5q72 0 127 -17h305zM506 4q-55 0 -129 8q-141 -53 -141 -149q0 -106 208 -107q129 0 198 40t69 102q0 98 -205 106zM582 737q-86 0 -140.5 -52t-54.5 -126q0 -59 40 -98t110 -39q88 0 142 51t54 125 q0 59 -39.5 99t-111.5 40z" glyph-name="g" horiz-adv-x="962" unicode="g"/><glyph d="M123 0l174 1239h203l-66 -461h6q98 102 271 103q162 0 240.5 -105.5t54.5 -281.5l-70 -494h-201l66 473q14 102 -30 169t-138 67q-96 0 -161.5 -67t-76.5 -144l-69 -498h-203z" glyph-name="h" horiz-adv-x="1048" unicode="h"/><glyph d="M369 1018q-45 0 -76 29.5t-31 76.5q0 55 42 95.5t97 40.5q49 0 80 -31t31 -76q0 -55 -43 -95t-100 -40zM125 0l121 860h200l-120 -860h-201z" glyph-name="i" horiz-adv-x="452" unicode="i"/><glyph d="M-41 -319l25 167h30q88 0 103 93l129 919h203l-132 -930q-16 -117 -87.5 -183t-192.5 -66h-78zM369 1018q-47 0 -78 29.5t-31 76.5q0 55 42 95.5t99 40.5q47 0 79 -31t32 -76q0 -55 -43 -95t-100 -40z" glyph-name="j" horiz-adv-x="452" unicode="j"/><glyph d="M782 860h250l-401 -375l287 -485h-244l-215 360l-97 -90l-38 -270h-201l174 1239h201l-105 -747z" glyph-name="k" horiz-adv-x="933" unicode="k"/><glyph d="M127 0l174 1239h201l-174 -1239h-201z" glyph-name="l" horiz-adv-x="454" unicode="l"/><glyph d="M123 0l121 860h131l8 -123h12q115 143 303 144q211 0 285 -156h10q115 156 316 156q166 0 244.5 -105.5t54.5 -281.5l-70 -494h-201l68 475q14 102 -29 168t-139 66q-94 0 -155.5 -57.5t-77.5 -137.5l-72 -514h-201l70 496q12 94 -32 153.5t-140 59.5q-94 0 -155.5 -58.5 t-78.5 -136.5l-71 -514h-201z" glyph-name="m" horiz-adv-x="1650" unicode="m"/><glyph d="M123 0l121 860h131l8 -123h12q113 143 307 144q166 0 248 -105.5t58 -281.5l-70 -494h-201l68 475q14 102 -31 168t-141 66q-94 0 -157.5 -60.5t-80.5 -134.5l-71 -514h-201z" glyph-name="n" horiz-adv-x="1050" unicode="n"/><glyph d="M1018 487q0 -223 -150.5 -365t-359.5 -142q-168 0 -275.5 105t-107.5 280q0 225 151.5 370.5t358.5 145.5q168 0 275.5 -109t107.5 -285zM530 139q119 0 205 93.5t86 242.5q0 111 -58 178.5t-151 67.5q-119 0 -204.5 -96.5t-85.5 -243.5q0 -111 57 -176.5t151 -65.5z" glyph-name="o" horiz-adv-x="1021" unicode="o"/><glyph d="M346 100h-8l-59 -419h-201l166 1179h133l12 -123h12q4 6 12.5 15.5t37 34t61.5 44t89 35t120 15.5q154 0 248 -104.5t94 -276.5q0 -223 -136 -371.5t-325 -148.5q-59 0 -107.5 12t-75 30.5t-44 36t-23.5 29.5zM369 383q0 -109 57 -173.5t149 -64.5q119 0 201 94.5 t82 235.5q0 106 -55 173t-148 67q-119 0 -202.5 -92.5t-83.5 -239.5z" glyph-name="p" horiz-adv-x="1067" unicode="p"/><glyph d="M1067 860l-166 -1179h-201l62 430h-8q-4 -6 -10.5 -14.5t-31 -31t-55 -40t-82 -31.5t-110.5 -14q-152 0 -245 105t-93 277q0 227 138 373t333 146q66 0 118 -16.5t79.5 -39t47 -46t25.5 -40.5l6 -16h11l47 137h135zM823 475q0 109 -57 174.5t-152 65.5 q-119 0 -200.5 -95.5t-81.5 -234.5q0 -106 55 -173t148 -67q121 0 204.5 91.5t83.5 238.5z" glyph-name="q" horiz-adv-x="1069" unicode="q"/><glyph d="M702 862l-22 -168h-47q-88 0 -156.5 -59.5t-85.5 -151.5l-67 -483h-201l121 860h131l6 -137h10q88 139 264 139h47z" glyph-name="r" horiz-adv-x="606" unicode="r"/><glyph d="M80 80l90 137q115 -84 274 -84q174 0 174 107q0 39 -47 65.5t-114.5 45t-136 42t-115.5 75.5t-47 128q0 123 98 204t274 81q104 0 191.5 -18.5t122.5 -37.5l35 -18l-91 -156q-100 74 -260 74q-168 0 -168 -100q0 -45 73 -73t160 -45.5t159.5 -75.5t72.5 -157 q0 -127 -99 -210.5t-298 -83.5q-113 0 -200 25.5t-117 49.5z" glyph-name="s" horiz-adv-x="856" unicode="s"/><glyph d="M152 860h153l37 262h201l-37 -262h231l-22 -158h-232l-61 -436q-16 -115 92 -114q25 0 52.5 8t43.5 16l15 8l41 -141q-100 -63 -217 -63q-137 0 -191.5 75.5t-36.5 206.5l62 440h-154z" glyph-name="t" horiz-adv-x="679" unicode="t"/><glyph d="M770 356l72 504h200l-120 -860h-131l-19 119h-8q-115 -139 -303 -139q-166 0 -244 105t-53 282l69 493h201l-67 -475q-14 -106 26.5 -172t136.5 -66q100 0 165 66.5t75 142.5z" glyph-name="u" horiz-adv-x="1044" unicode="u"/><glyph d="M1051 860l-510 -860h-142l-268 860h221l140 -559q12 -39 6 -63h10q4 18 27 63l294 559h222z" glyph-name="v" horiz-adv-x="940" unicode="v"/><glyph d="M1454 860l-434 -860h-172l-78 537q-6 35 -2 79h-10q-2 -27 -27 -79l-227 -537h-170l-193 860h211l88 -559q4 -41 4 -63h15q4 14 24 67l232 555h170l76 -555q4 -23 4 -67h14q6 27 22 63l248 559h205z" glyph-name="w" horiz-adv-x="1353" unicode="w"/><glyph d="M29 0l364 442l-229 418h229l144 -293h6l225 293h227l-356 -418l252 -442h-229l-154 319h-6l-248 -319h-225z" glyph-name="x" horiz-adv-x="913" unicode="x"/><glyph d="M1038 860l-676 -1179h-208l229 376l-250 803h221l144 -559q6 -57 4 -63h10q6 27 25 63l297 559h204z" glyph-name="y" horiz-adv-x="931" unicode="y"/><glyph d="M799 0h-729l14 109l553 589h-465l23 162h725l-15 -98l-540 -600h456z" glyph-name="z" horiz-adv-x="870" unicode="z"/><glyph d="M125 668h51q125 0 150 176l47 332q39 268 336 288l4 -168q-68 -12 -96.5 -38.5t-38.5 -98.5l-50 -340q-25 -182 -155 -225l-2 -19q121 -41 94 -221l-49 -342q-10 -72 12.5 -99.5t85.5 -35.5l-53 -168q-293 18 -254 287l47 334q25 178 -100 178h-52z" glyph-name="braceleft" horiz-adv-x="593" unicode="{"/><glyph d="M506 1407l-236 -1669h-186l235 1669h187z" glyph-name="bar" horiz-adv-x="428" unicode="|"/><glyph d="M608 668h49l-22 -160h-49q-127 0 -152 -178l-47 -334q-39 -268 -334 -287l-6 168q66 8 95.5 36t39.5 99l49 342q27 182 158 221l2 19q-119 43 -94 225l47 340q10 72 -11.5 98.5t-86.5 38.5l55 168q291 -20 252 -288l-47 -332q-25 -176 102 -176z" glyph-name="braceright" horiz-adv-x="593" unicode="}"/><glyph d="M727 662q41 0 84 13t66 25l20 13l49 -125q-94 -80 -235 -80q-57 0 -142.5 32.5t-148.5 32.5q-41 0 -83 -12t-63 -24l-22 -15l-49 123q98 82 235 82q57 0 141.5 -32.5t147.5 -32.5z" glyph-name="asciitilde" horiz-adv-x="976" unicode="~"/><glyph glyph-name="uni00A0" horiz-adv-x="438" unicode=" "/><glyph d="M352 487l-69 -849h-238l170 849h137zM193 739q0 59 44 101.5t103 42.5q49 0 80 -32t31 -81q0 -59 -43 -102t-103 -43q-49 0 -80.5 32.5t-31.5 81.5z" glyph-name="exclamdown" horiz-adv-x="432" unicode="¡"/><glyph d="M375 0l47 176q-123 33 -192.5 132.5t-69.5 238.5q0 217 144.5 363.5t359.5 150.5l45 168h104l-47 -176q49 -8 90 -24.5t57 -29.5l19 -12l-76 -149q-51 39 -135 53l-154 -565h21q51 0 102 14t76 29l27 14l30 -147q-100 -76 -272 -76h-29l-43 -160h-104zM365 567 q0 -154 106 -213l145 535q-106 -18 -178.5 -106.5t-72.5 -215.5z" glyph-name="cent" horiz-adv-x="876" unicode="¢"/><glyph d="M956 180l-24 -180h-811l24 180h2v2q6 2 16.5 7.5t37 24.5t46 43t36 64.5t16.5 88.5q0 33 -8 114h-129l20 148h90q-2 29 -2 102q0 201 139.5 335t372.5 134q66 0 125.5 -13t95 -31.5t62.5 -38t37 -34.5l12 -12l-143 -160q-8 10 -22.5 25.5t-69 41.5t-117.5 26 q-131 0 -200.5 -77t-69.5 -206q0 -39 4 -92h401l-20 -148h-365q4 -53 4 -90q0 -141 -94 -254h534z" glyph-name="sterling" horiz-adv-x="1034" unicode="£"/><glyph d="M756 748l342 481h225l-449 -617h254l-20 -147h-338l-18 -139h335l-20 -146h-336l-24 -180h-203l24 180h-331l20 146h332l18 139h-329l20 147h248l-275 617h228l207 -481l30 -101z" glyph-name="yen" horiz-adv-x="1212" unicode="¥"/><glyph d="M410 676h-185l99 702h184zM270 -313h-184l98 702h185z" glyph-name="brokenbar" horiz-adv-x="446" unicode="¦"/><glyph d="M86 94l117 148q14 -10 41.5 -26.5t119 -44.5t187.5 -28q248 0 248 115q0 47 -48.5 73.5t-187.5 67.5q-150 45 -230.5 99.5t-80.5 142.5q0 102 94 158q-100 57 -100 162q0 131 124 212.5t359 81.5q80 0 151.5 -10t115.5 -23.5t76 -27.5t46 -25l12 -10l-114 -153 q-12 8 -36 22t-104.5 36.5t-170.5 22.5q-223 0 -224 -108q0 -45 44 -71.5t147 -55.5q356 -96 356 -256q0 -100 -92 -170q96 -63 96 -160q0 -125 -127 -210t-370 -85q-139 0 -251 31t-155 61zM582 713q-41 8 -82 22q-45 -14 -45 -69q0 -68 196 -127l127 -39q43 29 43 73 q0 43 -58 74t-181 66z" glyph-name="section" horiz-adv-x="1081" unicode="§"/><glyph d="M379 1442q0 49 40 87t89 38q39 0 67.5 -30t28.5 -71q0 -49 -40 -87t-89 -38q-39 0 -67.5 30t-28.5 71zM729 1442q0 49 40 87t87 38q41 0 67.5 -30t26.5 -71q0 -49 -39 -87t-88 -38q-39 0 -66.5 30t-27.5 71z" glyph-name="dieresis" horiz-adv-x="931" unicode="¨"/><glyph d="M872 1239q248 0 389.5 -153.5t141.5 -387.5q0 -293 -198.5 -501.5t-508.5 -208.5q-248 0 -391 154.5t-143 387.5q0 291 200.5 500t509.5 209zM860 1153q-266 0 -436 -180t-170 -434q0 -201 121 -333t334 -132q262 0 434 180t172 432q0 203 -122 335t-333 132zM1047 868 l-84 -104q-43 51 -132 51q-96 0 -159.5 -66.5t-63.5 -162.5q0 -76 45 -123t123 -47q39 0 75 12t52 25l17 12l55 -103q-8 -8 -24.5 -20t-75 -33.5t-123.5 -21.5q-133 0 -209 79.5t-76 202.5q0 156 104.5 265.5t272.5 109.5q66 0 117 -19.5t67 -37.5z" glyph-name="copyright" horiz-adv-x="1394" unicode="©"/><glyph d="M174 735q0 111 87 176.5t231 65.5q133 0 184 -51l2 20q12 96 -19.5 140t-128.5 44q-98 0 -196 -45l-27 119q127 53 262 53q162 0 220.5 -80.5t37.5 -234.5l-53 -381h-110l-13 74h-10q-70 -90 -242 -90q-100 0 -162.5 53t-62.5 137zM324 754q0 -47 36.5 -75t102.5 -28 q80 0 135 40t55 89q0 47 -42 73t-111 26q-84 0 -130 -34t-46 -91z" glyph-name="ordfeminine" horiz-adv-x="808" unicode="ª"/><glyph d="M131 403l6 46l309 387h170l-4 -21l-299 -381l-2 -12l193 -385l-4 -21h-170zM535 403l6 46l309 387h168l-4 -21l-299 -381l-2 -12l192 -385l-4 -21h-168z" glyph-name="guillemotleft" horiz-adv-x="974" unicode="«"/><glyph d="M166 545l22 164h916l-98 -709h-168l75 545h-747z" glyph-name="logicalnot" horiz-adv-x="1130" unicode="¬"/><glyph d="M1133 842q0 -221 -151 -381t-386 -160q-186 0 -292.5 118t-106.5 296q0 221 149.5 380.5t382.5 159.5q188 0 296 -117.5t108 -295.5zM1040 831q0 147 -87 241.5t-236 94.5q-184 0 -306 -126t-122 -316q0 -145 87 -240.5t232 -95.5q186 0 309 128t123 314zM516 993h193 q74 0 115.5 -35.5t41.5 -95.5q0 -98 -94 -145l66 -117l-4 -20h-99l-63 114h-105l-16 -114h-92zM694 905h-98l-16 -125h98q90 0 90 72q0 53 -74 53z" glyph-name="registered" horiz-adv-x="1107" unicode="®"/><glyph d="M440 1368l19 125h604l-19 -125h-604z" glyph-name="macron" horiz-adv-x="1077" unicode="¯"/><glyph d="M494 1376q92 0 148 -55t56 -139q0 -102 -76.5 -174t-189.5 -72q-94 0 -150.5 54t-56.5 138q0 102 77 175t192 73zM479 1274q-59 0 -97 -38t-38 -95q0 -43 26.5 -71t75.5 -28q57 0 96.5 38t39.5 91q0 45 -28 74t-75 29z" glyph-name="degree" horiz-adv-x="600" unicode="°"/><glyph d="M674 365h-168l45 327h-336l23 164h335l50 340h168l-50 -340h328l-22 -164h-328zM981 229l-23 -166h-831l23 166h831z" glyph-name="plusminus" horiz-adv-x="1069" unicode="±"/><glyph d="M201 700l16 111l303 236q80 63 80 127q0 84 -98 83q-70 0 -170 -71l-58 108q12 10 33 25.5t86.5 41t130.5 25.5q113 0 168.5 -53t55.5 -137q0 -127 -117 -217l-209 -160h289l-17 -119h-493z" glyph-name="uni00B2" horiz-adv-x="698" unicode="²"/><glyph d="M272 1247l19 121h465l-15 -90l-155 -172q139 -29 139 -164q0 -111 -81 -184.5t-226 -73.5q-141 0 -234 92l88 101q55 -68 158 -68q74 0 112 34t38 85q0 82 -107 82h-82l10 73l152 164h-281z" glyph-name="uni00B3" horiz-adv-x="671" unicode="³"/><glyph d="M631 1288l-242 -270h-137l147 297z" glyph-name="acute" horiz-adv-x="571" unicode="´"/><glyph d="M281 -262h-201l78 551q0 39 6 78l69 493h201l-67 -475q-14 -106 26.5 -172t136.5 -66q100 0 165 67t75 142l72 504h200l-120 -860h-131l-19 119h-8q-115 -139 -303 -139q-78 0 -146 26z" glyph-name="uni00B5" horiz-adv-x="1044" unicode="µ"/><glyph d="M733 -168l60 418h-123q-231 0 -370.5 112.5t-139.5 319.5q0 260 180 404.5t463 144.5h330l-197 -1399h-203z" glyph-name="paragraph" horiz-adv-x="1097" unicode="¶"/><glyph d="M197 721q0 57 44 101t101 44q49 0 81 -33.5t32 -82.5q0 -57 -44 -100.5t-104 -43.5q-47 0 -78.5 33t-31.5 82z" glyph-name="periodcentered" horiz-adv-x="444" unicode="·"/><glyph d="M131 -141l-29 41l68 106h98l-39 -69q51 0 83 -30t32 -83q0 -74 -52 -121t-140 -47q-49 0 -88 15.5t-54 29.5l-14 16l59 74q49 -41 103 -41q41 0 64.5 18.5t23.5 47.5q0 49 -68 49z" glyph-name="cedilla" horiz-adv-x="421" unicode="¸"/><glyph d="M223 1247l17 121h272l-94 -668h-137l77 547h-135z" glyph-name="uni00B9" horiz-adv-x="440" unicode="¹"/><glyph d="M588 1255q129 0 209 -81.5t80 -221.5q0 -178 -113 -289.5t-277 -111.5q-133 0 -212.5 81t-79.5 218q0 180 113.5 292.5t279.5 112.5zM569 1126q-100 0 -162.5 -73.5t-62.5 -188.5q0 -84 43 -134t119 -50q98 0 160.5 72.5t62.5 187.5q0 86 -43 136t-117 50z" glyph-name="ordmasculine" horiz-adv-x="817" unicode="º"/><glyph d="M563 449l-6 -46l-309 -387h-170l2 21l303 385l2 12l-195 381l3 21h169zM965 449l-7 -46l-309 -387h-170l2 21l303 385l2 12l-194 381l2 21h170z" glyph-name="guillemotright" horiz-adv-x="974" unicode="»"/><glyph d="M229 0h-166l1137 1229h166zM666 164l12 86l426 418h102l-55 -392h121l-17 -112h-120l-23 -164h-129l23 164h-340zM244 1108l16 121h275l-93 -668h-137l76 547h-137zM903 328q-6 -8 -15 -16.5t-16.5 -15.5t-13.5 -12t-10 -10l-4 -4l80 6h98l20 150l9 51h-2z" glyph-name="onequarter" horiz-adv-x="1304" unicode="¼"/><glyph d="M227 0h-164l1135 1229h168zM870 111l306 235q80 63 79 127q0 84 -100 84q-74 0 -168 -72l-57 109l28 22q31 23 93.5 46.5t128.5 23.5q111 0 166 -54t55 -136q0 -127 -117 -217l-209 -160h289l-16 -119h-494zM252 1108l16 121h273l-92 -668h-138l76 547h-135z" glyph-name="onehalf" horiz-adv-x="1423" unicode="½"/><glyph d="M383 0h-166l1137 1229h168zM815 158l12 86l424 418h105l-56 -392h113l-16 -112h-113l-22 -158h-134l23 158h-336zM248 1108l18 121h465l-14 -90l-156 -172q137 -29 137 -164q0 -111 -80.5 -184.5t-224.5 -73.5q-141 0 -233 92l88 100q55 -68 158 -67q72 0 110.5 33.5 t38.5 84.5q0 82 -106 82h-82l10 74l151 164h-280zM1051 324q-37 -43 -62 -60l82 6h96l21 150l8 53h-2z" glyph-name="threequarters" horiz-adv-x="1445" unicode="¾"/><glyph d="M707 -106l75 -164q-14 -12 -42.5 -32t-123 -51.5t-192.5 -31.5q-172 0 -272.5 78t-100.5 213q0 92 37 163.5t91 116.5t109.5 82t102.5 83t60 98l12 49h155l-10 -74q-8 -63 -46 -116.5t-84 -91.5t-90 -75t-74.5 -84t-30.5 -102q0 -66 49 -104.5t135 -38.5q59 0 119.5 20.5 t89.5 40.5zM698 776q0 -57 -43 -99t-100 -42q-47 0 -78 31.5t-31 78.5q0 57 43 99.5t101 42.5q47 0 77.5 -32t30.5 -79z" glyph-name="questiondown" horiz-adv-x="868" unicode="¿"/><glyph d="M885 1229l332 -1229h-213l-66 252h-586l-133 -252h-215l676 1229h205zM750 993l-306 -569h451zM719 1300l-148 275l236 35l49 -310h-137z" glyph-name="Agrave" unicode="À"/><glyph d="M885 1229l332 -1229h-213l-66 252h-586l-133 -252h-215l676 1229h205zM750 993l-306 -569h451zM1106 1571l-242 -271h-137l147 297z" glyph-name="Aacute" unicode="Á"/><glyph d="M885 1229l332 -1229h-213l-66 252h-586l-133 -252h-215l676 1229h205zM750 993l-306 -569h451zM901 1341l-82 127l-121 -127h-155l213 248h157l146 -248h-158z" glyph-name="Acircumflex" unicode="Â"/><glyph d="M885 1229l332 -1229h-213l-66 252h-586l-133 -252h-215l676 1229h205zM750 993l-306 -569h451zM958 1346q-68 0 -149.5 51t-116.5 51q-59 0 -90 -74l-12 -33l-139 15l18 61q59 184 221 185q68 0 150 -51.5t116 -51.5q68 0 93 76l10 31l139 -13l-18 -61 q-56 -186 -222 -186z" glyph-name="Atilde" unicode="Ã"/><glyph d="M885 1229l332 -1229h-213l-66 252h-586l-133 -252h-215l676 1229h205zM750 993l-306 -569h451zM526 1442q0 49 40 87t89 38q39 0 68 -30t29 -71q0 -49 -40 -87t-89 -38q-39 0 -68 30t-29 71zM877 1442q0 49 39.5 87t87.5 38q41 0 67.5 -30t26.5 -71q0 -49 -39 -87 t-88 -38q-39 0 -66.5 30t-27.5 71z" glyph-name="Adieresis" unicode="Ä"/><glyph d="M885 1229l332 -1229h-213l-66 252h-586l-133 -252h-215l676 1229h205zM750 993l-306 -569h451zM590 1419q0 90 68.5 146.5t181.5 56.5q92 0 144 -44t52 -114q0 -90 -68.5 -147t-179.5 -57q-94 0 -146 43.5t-52 115.5zM918 1452q0 70 -93 70q-55 0 -86.5 -23.5 t-31.5 -66.5q0 -70 96 -70q115 0 115 90z" glyph-name="Aring" unicode="Å"/><glyph d="M-20 0l1013 1229h918l-25 -180h-686l-49 -344h569l-22 -173h-570l-51 -352h686l-24 -180h-889l37 258h-457l-207 -258h-243zM971 930l-400 -498h340l70 498h-10z" glyph-name="AE" horiz-adv-x="1816" unicode="Æ"/><glyph d="M582 -141l-29 41l49 77q-211 29 -330.5 180.5t-119.5 368.5q0 303 205.5 516t512.5 213q80 0 148.5 -15t112 -37.5t74 -46t44.5 -38.5l13 -16l-140 -158q-10 12 -29.5 32.5t-91 53.5t-153.5 33q-180 0 -315.5 -129t-161.5 -322q-29 -190 70.5 -318t279.5 -128 q82 0 159.5 29.5t114.5 58.5l35 29l94 -156q-16 -16 -49 -42t-143.5 -69t-233.5 -45l-18 -34q51 0 83 -30t32 -83q0 -74 -52.5 -121t-140.5 -47q-49 0 -88 15.5t-53 29.5l-15 16l60 74q49 -41 102 -41q41 0 64.5 18.5t23.5 47.5q0 49 -67 49z" glyph-name="Ccedilla" horiz-adv-x="1146" unicode="Ç"/><glyph d="M1026 709l-25 -172h-571l-51 -357h672l-25 -180h-874l172 1229h874l-24 -180h-672l-47 -340h571zM729 1300l-147 275l235 35l49 -310h-137z" glyph-name="Egrave" horiz-adv-x="1105" unicode="È"/><glyph d="M1087 1571l-241 -271h-137l147 297zM1026 709l-25 -172h-571l-51 -357h672l-25 -180h-874l172 1229h874l-24 -180h-672l-47 -340h571z" glyph-name="Eacute" horiz-adv-x="1105" unicode="É"/><glyph d="M897 1341l-82 127l-121 -127h-155l213 248h157l146 -248h-158zM1026 709l-25 -172h-571l-51 -357h672l-25 -180h-874l172 1229h874l-24 -180h-672l-47 -340h571z" glyph-name="Ecircumflex" horiz-adv-x="1105" unicode="Ê"/><glyph d="M520 1442q0 49 40 87t89 38q39 0 67.5 -30t28.5 -71q0 -49 -39.5 -87t-89.5 -38q-39 0 -67.5 30t-28.5 71zM870 1442q0 49 40 87t87 38q41 0 68 -30t27 -71q0 -49 -39 -87t-88 -38q-39 0 -67 30t-28 71zM1026 709l-25 -172h-571l-51 -357h672l-25 -180h-874l172 1229h874 l-24 -180h-672l-47 -340h571z" glyph-name="Edieresis" horiz-adv-x="1105" unicode="Ë"/><glyph d="M526 1229l-172 -1229h-202l172 1229h202zM360 1300l-147 275l236 35l49 -310h-138z" glyph-name="Igrave" horiz-adv-x="507" unicode="Ì"/><glyph d="M526 1229l-172 -1229h-202l172 1229h202zM748 1571l-242 -271h-137l147 297z" glyph-name="Iacute" horiz-adv-x="507" unicode="Í"/><glyph d="M526 1229l-172 -1229h-202l172 1229h202zM547 1341l-82 127l-121 -127h-156l213 248h158l146 -248h-158z" glyph-name="Icircumflex" horiz-adv-x="507" unicode="Î"/><glyph d="M526 1229l-172 -1229h-202l172 1229h202zM172 1442q0 49 40 87t89 38q39 0 67.5 -30t28.5 -71q0 -49 -40 -87t-89 -38q-39 0 -67.5 30t-28.5 71zM522 1442q0 49 40 87t87 38q41 0 67.5 -30t26.5 -71q0 -49 -38.5 -87t-88.5 -38q-39 0 -66.5 30t-27.5 71z" glyph-name="Idieresis" horiz-adv-x="507" unicode="Ï"/><glyph d="M117 530l26 183h109l72 516h434q256 0 405.5 -144.5t149.5 -384.5q0 -307 -205 -503.5t-522 -196.5h-434l73 530h-108zM721 1049h-219l-49 -336h319l-27 -183h-317l-49 -350h219q211 0 358.5 136.5t147.5 361.5q0 174 -106.5 272.5t-276.5 98.5z" glyph-name="Eth" horiz-adv-x="1298" unicode="Ð"/><glyph d="M1384 1229l-172 -1229h-151l-584 872l-123 -872h-202l172 1229h153l584 -869l121 869h202zM1030 1346q-68 0 -149.5 51t-116.5 51q-59 0 -90 -74l-12 -33l-140 15l19 61q59 184 221 185q66 0 147.5 -51.5t118.5 -51.5q68 0 92 76l10 31l140 -13l-19 -61 q-55 -186 -221 -186z" glyph-name="Ntilde" horiz-adv-x="1363" unicode="Ñ"/><glyph d="M686 -29q-244 0 -388 158t-144 397q0 301 204.5 515t507.5 214q244 0 388.5 -157.5t144.5 -399.5q0 -299 -205 -513t-508 -214zM713 168q203 0 340 147.5t137 360.5q0 168 -95.5 276.5t-256.5 108.5q-201 0 -337 -149.5t-136 -362.5q0 -166 95 -273.5t253 -107.5z M811 1341l-147 275l235 35l49 -310h-137z" glyph-name="Ograve" horiz-adv-x="1382" unicode="Ò"/><glyph d="M1182 1612l-242 -271h-137l147 297zM686 -29q-244 0 -388 158t-144 397q0 301 204.5 515t507.5 214q244 0 388.5 -157.5t144.5 -399.5q0 -299 -205 -513t-508 -214zM713 168q203 0 340 147.5t137 360.5q0 168 -95.5 276.5t-256.5 108.5q-201 0 -337 -149.5t-136 -362.5 q0 -166 95 -273.5t253 -107.5z" glyph-name="Oacute" horiz-adv-x="1382" unicode="Ó"/><glyph d="M983 1341l-82 127l-121 -127h-155l213 248h157l146 -248h-158zM686 -29q-244 0 -388 158t-144 397q0 301 204.5 515t507.5 214q244 0 388.5 -157.5t144.5 -399.5q0 -299 -205 -513t-508 -214zM713 168q203 0 340 147.5t137 360.5q0 168 -95.5 276.5t-256.5 108.5 q-201 0 -337 -149.5t-136 -362.5q0 -166 95 -273.5t253 -107.5z" glyph-name="Ocircumflex" horiz-adv-x="1382" unicode="Ô"/><glyph d="M686 -29q-244 0 -388 158t-144 397q0 301 204.5 515t507.5 214q244 0 388.5 -157.5t144.5 -399.5q0 -299 -205 -513t-508 -214zM713 168q203 0 340 147.5t137 360.5q0 168 -95.5 276.5t-256.5 108.5q-201 0 -337 -149.5t-136 -362.5q0 -166 95 -273.5t253 -107.5z M1032 1346q-68 0 -149.5 51t-116.5 51q-59 0 -90 -74l-12 -33l-140 15l19 61q59 184 221 185q68 0 149.5 -51.5t116.5 -51.5q68 0 92 76l11 31l139 -13l-19 -61q-55 -186 -221 -186z" glyph-name="Otilde" horiz-adv-x="1382" unicode="Õ"/><glyph d="M608 1442q0 49 40 87t89 38q39 0 68 -30t29 -71q0 -49 -40 -87t-89 -38q-39 0 -68 30t-29 71zM958 1442q0 49 40 87t87 38q41 0 68 -30t27 -71q0 -49 -39 -87t-88 -38q-39 0 -67 30t-28 71zM686 -29q-244 0 -388 158t-144 397q0 301 204.5 515t507.5 214 q244 0 388.5 -157.5t144.5 -399.5q0 -299 -205 -513t-508 -214zM713 168q203 0 340 147.5t137 360.5q0 168 -95.5 276.5t-256.5 108.5q-201 0 -337 -149.5t-136 -362.5q0 -166 95 -273.5t253 -107.5z" glyph-name="Odieresis" horiz-adv-x="1382" unicode="Ö"/><glyph d="M246 195l-99 114l340 305l-254 308l132 114l251 -305l340 305l99 -114l-342 -308l256 -305l-131 -114l-254 305z" glyph-name="multiply" horiz-adv-x="1028" unicode="×"/><glyph d="M696 -29q-225 0 -368 138l-119 -109h-215l246 221q-76 135 -76 305q0 301 204.5 515t508.5 214q219 0 364 -135l121 109h213l-246 -221q80 -137 80 -310q0 -299 -205 -513t-508 -214zM723 168q203 0 340 147.5t137 360.5q0 102 -37 182l-674 -604q93 -86 234 -86z M375 549q0 -102 33 -176l673 604q-94 84 -233 84q-201 0 -337 -149.5t-136 -362.5z" glyph-name="Oslash" horiz-adv-x="1402" unicode="Ø"/><glyph d="M645 -29q-236 0 -353.5 152.5t-82.5 396.5l100 709h203l-100 -709q-23 -158 44.5 -256t217.5 -98q152 0 245 97t115 257l101 709h202l-100 -709q-35 -244 -193.5 -396.5t-398.5 -152.5zM760 1300l-148 275l236 35l49 -310h-137z" glyph-name="Ugrave" horiz-adv-x="1298" unicode="Ù"/><glyph d="M1135 1571l-242 -271h-137l147 297zM645 -29q-236 0 -353.5 152.5t-82.5 396.5l100 709h203l-100 -709q-23 -158 44.5 -256t217.5 -98q152 0 245 97t115 257l101 709h202l-100 -709q-35 -244 -193.5 -396.5t-398.5 -152.5z" glyph-name="Uacute" horiz-adv-x="1298" unicode="Ú"/><glyph d="M936 1298l-82 127l-121 -127h-155l213 248h157l146 -248h-158zM645 -29q-236 0 -353.5 152.5t-82.5 396.5l100 709h203l-100 -709q-23 -158 44.5 -256t217.5 -98q152 0 245 97t115 257l101 709h202l-100 -709q-35 -244 -193.5 -396.5t-398.5 -152.5z" glyph-name="Ucircumflex" horiz-adv-x="1298" unicode="Û"/><glyph d="M569 1442q0 49 40 87t89 38q39 0 68 -30t29 -71q0 -49 -40 -87t-89 -38q-39 0 -68 30t-29 71zM920 1442q0 49 39.5 87t87.5 38q41 0 67.5 -30t26.5 -71q0 -49 -39 -87t-88 -38q-39 0 -66.5 30t-27.5 71zM645 -29q-236 0 -353.5 152.5t-82.5 396.5l100 709h203l-100 -709 q-23 -158 44.5 -256t217.5 -98q152 0 245 97t115 257l101 709h202l-100 -709q-35 -244 -193.5 -396.5t-398.5 -152.5z" glyph-name="Udieresis" horiz-adv-x="1298" unicode="Ü"/><glyph d="M700 748l342 481h226l-551 -758l-66 -471h-202l65 471l-338 758h227l207 -481l31 -101zM1051 1638l-242 -270h-137l147 297z" glyph-name="Yacute" horiz-adv-x="1099" unicode="Ý"/><glyph d="M526 1229l-26 -193h311q201 0 311.5 -93t110.5 -263q0 -233 -152.5 -363.5t-400.5 -130.5h-299l-27 -186h-202l172 1229h202zM1022 647q0 100 -66.5 153.5t-183.5 53.5h-297l-69 -489h296q147 0 233.5 70.5t86.5 211.5z" glyph-name="Thorn" horiz-adv-x="1189" unicode="Þ"/><glyph d="M561 539l21 143q229 37 229 236q0 68 -40 108.5t-112 40.5q-82 0 -141 -57.5t-74 -155.5l-120 -854h-201l117 831q29 197 145.5 302.5t308.5 105.5q152 0 241 -85t89 -218q0 -102 -49 -181t-133 -118q78 -27 117.5 -95.5t39.5 -158.5q0 -178 -120.5 -288.5t-319.5 -110.5 q-45 0 -79 4t-46 8l-12 4l33 139q43 -6 94 -6q115 0 184.5 63.5t69.5 165.5q0 84 -52.5 130.5t-142.5 46.5h-47z" glyph-name="germandbls" horiz-adv-x="1019" unicode="ß"/><glyph d="M913 530l-73 -530h-142l-8 113h-10q-102 -133 -303 -133q-135 0 -211 66.5t-76 172.5q0 143 112.5 229.5t321.5 86.5q102 0 193 -29l4 29q14 94 -37 137t-162 43q-57 0 -117.5 -15.5t-91.5 -31.5l-30 -17l-50 152q137 78 345 78q190 0 274 -93.5t61 -257.5zM442 123 q92 0 162 53t84 133l10 70q-61 33 -170 33q-242 0 -241 -164q0 -55 40.5 -90t114.5 -35zM545 1018l-148 274l236 35l49 -309h-137z" glyph-name="agrave" horiz-adv-x="950" unicode="à"/><glyph d="M913 530l-73 -530h-142l-8 113h-10q-102 -133 -303 -133q-135 0 -211 66.5t-76 172.5q0 143 112.5 229.5t321.5 86.5q102 0 193 -29l4 29q14 94 -37 137t-162 43q-57 0 -117.5 -15.5t-91.5 -31.5l-30 -17l-50 152q137 78 345 78q190 0 274 -93.5t61 -257.5zM442 123 q92 0 162 53t84 133l10 70q-61 33 -170 33q-242 0 -241 -164q0 -55 40.5 -90t114.5 -35zM922 1288l-242 -270h-137l147 297z" glyph-name="aacute" horiz-adv-x="950" unicode="á"/><glyph d="M913 530l-73 -530h-142l-8 113h-10q-102 -133 -303 -133q-135 0 -211 66.5t-76 172.5q0 143 112.5 229.5t321.5 86.5q102 0 193 -29l4 29q14 94 -37 137t-162 43q-57 0 -117.5 -15.5t-91.5 -31.5l-30 -17l-50 152q137 78 345 78q190 0 274 -93.5t61 -257.5zM442 123 q92 0 162 53t84 133l10 70q-61 33 -170 33q-242 0 -241 -164q0 -55 40.5 -90t114.5 -35zM698 1018l-82 127l-120 -127h-156l213 248h158l145 -248h-158z" glyph-name="acircumflex" horiz-adv-x="950" unicode="â"/><glyph d="M913 530l-73 -530h-142l-8 113h-10q-102 -133 -303 -133q-135 0 -211 66.5t-76 172.5q0 143 112.5 229.5t321.5 86.5q102 0 193 -29l4 29q14 94 -37 137t-162 43q-57 0 -117.5 -15.5t-91.5 -31.5l-30 -17l-50 152q137 78 345 78q190 0 274 -93.5t61 -257.5zM442 123 q92 0 162 53t84 133l10 70q-61 33 -170 33q-242 0 -241 -164q0 -55 40.5 -90t114.5 -35zM745 999q-68 0 -149.5 51.5t-116.5 51.5q-59 0 -90 -74l-12 -33l-139 15l18 61q59 184 221 184q68 0 150 -51t116 -51q68 0 93 76l10 31l139 -13l-18 -61q-56 -187 -222 -187z" glyph-name="atilde" horiz-adv-x="950" unicode="ã"/><glyph d="M913 530l-73 -530h-142l-8 113h-10q-102 -133 -303 -133q-135 0 -211 66.5t-76 172.5q0 143 112.5 229.5t321.5 86.5q102 0 193 -29l4 29q14 94 -37 137t-162 43q-57 0 -117.5 -15.5t-91.5 -31.5l-30 -17l-50 152q137 78 345 78q190 0 274 -93.5t61 -257.5zM442 123 q92 0 162 53t84 133l10 70q-61 33 -170 33q-242 0 -241 -164q0 -55 40.5 -90t114.5 -35zM326 1092q0 49 40 87t89 38q39 0 67.5 -30t28.5 -71q0 -49 -40 -87t-89 -38q-39 0 -67.5 30t-28.5 71zM676 1092q0 49 40 87t87 38q41 0 67.5 -30t26.5 -71q0 -49 -39 -87t-88 -38 q-39 0 -66.5 30t-27.5 71z" glyph-name="adieresis" horiz-adv-x="950" unicode="ä"/><glyph d="M913 530l-73 -530h-142l-8 113h-10q-102 -133 -303 -133q-135 0 -211 66.5t-76 172.5q0 143 112.5 229.5t321.5 86.5q102 0 193 -29l4 29q14 94 -37 137t-162 43q-57 0 -117.5 -15.5t-91.5 -31.5l-30 -17l-50 152q137 78 345 78q190 0 274 -93.5t61 -257.5zM442 123 q92 0 162 53t84 133l10 70q-61 33 -170 33q-242 0 -241 -164q0 -55 40.5 -90t114.5 -35zM403 1174q0 90 69 146t181 56q92 0 144.5 -44t52.5 -113q0 -90 -68.5 -147.5t-179.5 -57.5q-94 0 -146.5 44t-52.5 116zM731 1206q0 70 -92 70q-55 0 -87 -23.5t-32 -66.5 q0 -70 96 -70q115 0 115 90z" glyph-name="aring" horiz-adv-x="950" unicode="å"/><glyph d="M1370 217l53 -135q-12 -12 -36.5 -29.5t-110.5 -46.5t-182 -29q-223 0 -326 142q-135 -139 -367 -139q-158 0 -236.5 65.5t-78.5 169.5q0 143 107.5 228t320.5 85q113 0 203 -28l4 30q12 94 -39 140.5t-158 46.5q-57 0 -117.5 -17.5t-91.5 -35.5l-32 -17l-50 156 q143 78 336 78q221 0 299 -127q137 127 320 127q162 0 249 -97.5t87 -261.5q0 -33 -4 -63.5t-9 -44.5l-2 -15h-610q-8 -127 53.5 -192.5t175.5 -65.5q66 0 126.5 19.5t88.5 38.5zM440 123q104 0 172 58.5t80 144.5l6 45q-76 33 -184 32q-229 0 -229 -161q0 -55 38.5 -87 t116.5 -32zM1161 725q-174 0 -235 -193h405q4 193 -170 193z" glyph-name="ae" horiz-adv-x="1515" unicode="æ"/><glyph d="M403 -150l-28 41l59 95q-143 23 -226 125t-83 256q0 219 146.5 366.5t365.5 147.5q82 0 146.5 -18.5t86.5 -39.5l23 -18l-78 -148q-72 57 -188 58q-125 0 -211 -92.5t-86 -241.5q0 -111 59.5 -173.5t157.5 -62.5q51 0 102 14.5t76 28.5l27 15l32 -146q-82 -72 -254 -77 l-28 -52q51 0 82.5 -29.5t31.5 -82.5q0 -74 -52 -121t-140 -47q-49 0 -88 15t-53 30l-15 16l60 74q49 -41 102 -41q41 0 64.5 18.5t23.5 46.5q0 49 -67 50z" glyph-name="ccedilla" horiz-adv-x="837" unicode="ç"/><glyph d="M795 215l53 -137q-12 -12 -37 -28.5t-111 -45.5t-182 -29q-184 0 -288.5 106.5t-104.5 280.5q0 219 139 369t348 150q162 0 249 -97.5t87 -261.5q0 -33 -3 -63.5t-7 -44.5l-4 -15h-610q-8 -127 52 -193.5t177 -66.5q66 0 126 18.5t87 39.5zM586 725q-174 0 -236 -193h404 q6 193 -168 193zM547 1018l-148 274l236 35l49 -309h-137z" glyph-name="egrave" horiz-adv-x="940" unicode="è"/><glyph d="M940 1288l-242 -270h-137l148 297zM795 215l53 -137q-12 -12 -37 -28.5t-111 -45.5t-182 -29q-184 0 -288.5 106.5t-104.5 280.5q0 219 139 369t348 150q162 0 249 -97.5t87 -261.5q0 -33 -3 -63.5t-7 -44.5l-4 -15h-610q-8 -127 52 -193.5t177 -66.5q66 0 126 18.5 t87 39.5zM586 725q-174 0 -236 -193h404q6 193 -168 193z" glyph-name="eacute" horiz-adv-x="940" unicode="é"/><glyph d="M729 1016l-82 127l-121 -127h-155l213 248h157l146 -248h-158zM795 215l53 -137q-12 -12 -37 -28.5t-111 -45.5t-182 -29q-184 0 -288.5 106.5t-104.5 280.5q0 219 139 369t348 150q162 0 249 -97.5t87 -261.5q0 -33 -3 -63.5t-7 -44.5l-4 -15h-610q-8 -127 52 -193.5 t177 -66.5q66 0 126 18.5t87 39.5zM586 725q-174 0 -236 -193h404q6 193 -168 193z" glyph-name="ecircumflex" horiz-adv-x="940" unicode="ê"/><glyph d="M354 1092q0 49 40 87t89 38q39 0 68 -30t29 -71q0 -49 -40 -87t-89 -38q-39 0 -68 30t-29 71zM705 1092q0 49 39.5 87t86.5 38q41 0 68 -30t27 -71q0 -49 -39 -87t-88 -38q-39 0 -66.5 30t-27.5 71zM795 215l53 -137q-12 -12 -37 -28.5t-111 -45.5t-182 -29 q-184 0 -288.5 106.5t-104.5 280.5q0 219 139 369t348 150q162 0 249 -97.5t87 -261.5q0 -33 -3 -63.5t-7 -44.5l-4 -15h-610q-8 -127 52 -193.5t177 -66.5q66 0 126 18.5t87 39.5zM586 725q-174 0 -236 -193h404q6 193 -168 193z" glyph-name="edieresis" horiz-adv-x="940" unicode="ë"/><glyph d="M125 0l121 860h200l-120 -860h-201zM291 1018l-148 274l236 35l49 -309h-137z" glyph-name="igrave" horiz-adv-x="452" unicode="ì"/><glyph d="M680 1288l-242 -270h-137l148 297zM125 0l121 860h200l-120 -860h-201z" glyph-name="iacute" horiz-adv-x="452" unicode="í"/><glyph d="M479 1059l-82 127l-121 -127h-155l213 248h158l145 -248h-158zM125 0l121 860h200l-120 -860h-201z" glyph-name="icircumflex" horiz-adv-x="452" unicode="î"/><glyph d="M111 1157q0 49 39.5 87t89.5 38q39 0 67.5 -29.5t28.5 -70.5q0 -49 -40 -87t-89 -38q-39 0 -67.5 29.5t-28.5 70.5zM461 1157q0 49 40 87t87 38q41 0 67.5 -29.5t26.5 -70.5q0 -49 -39 -87t-88 -38q-39 0 -66.5 29.5t-27.5 70.5zM125 0l121 860h200l-120 -860h-201z" glyph-name="idieresis" horiz-adv-x="452" unicode="ï"/><glyph d="M512 -20q-182 0 -285.5 102t-103.5 278q0 227 144.5 373t371.5 146q41 0 76 -7l2 9q-27 37 -47 82l-58 120l-245 -139l-52 115l244 137l-127 272l4 23h193l94 -203l260 146l49 -113l-256 -145l187 -394q68 -147 67 -274q0 -240 -143.5 -384t-374.5 -144zM823 479 q0 111 -56 172.5t-153 61.5q-121 0 -203.5 -91.5t-82.5 -240.5q0 -109 57 -173.5t150 -64.5q123 0 205.5 92t82.5 244z" glyph-name="eth" horiz-adv-x="1032" unicode="ð"/><glyph d="M123 0l121 860h131l8 -123h12q113 143 307 144q166 0 248 -105.5t58 -281.5l-70 -494h-201l68 475q14 102 -31 168t-141 66q-94 0 -157.5 -60.5t-80.5 -134.5l-71 -514h-201zM829 1063q-68 0 -149.5 51t-116.5 51q-59 0 -90 -73l-12 -33l-139 14l18 62q59 184 221 184 q66 0 148 -51t118 -51q68 0 93 75l10 31l139 -12l-18 -62q-56 -186 -222 -186z" glyph-name="ntilde" horiz-adv-x="1050" unicode="ñ"/><glyph d="M1018 487q0 -223 -150.5 -365t-359.5 -142q-168 0 -275.5 105t-107.5 280q0 225 151.5 370.5t358.5 145.5q168 0 275.5 -109t107.5 -285zM530 139q119 0 205 93.5t86 242.5q0 111 -58 178.5t-151 67.5q-119 0 -204.5 -96.5t-85.5 -243.5q0 -111 57 -176.5t151 -65.5z M582 1018l-148 274l236 35l49 -309h-137z" glyph-name="ograve" horiz-adv-x="1021" unicode="ò"/><glyph d="M961 1288l-242 -270h-137l147 297zM1018 487q0 -223 -150.5 -365t-359.5 -142q-168 0 -275.5 105t-107.5 280q0 225 151.5 370.5t358.5 145.5q168 0 275.5 -109t107.5 -285zM530 139q119 0 205 93.5t86 242.5q0 111 -58 178.5t-151 67.5q-119 0 -204.5 -96.5 t-85.5 -243.5q0 -111 57 -176.5t151 -65.5z" glyph-name="oacute" horiz-adv-x="1021" unicode="ó"/><glyph d="M764 1059l-82 127l-121 -127h-155l212 248h158l146 -248h-158zM1018 487q0 -223 -150.5 -365t-359.5 -142q-168 0 -275.5 105t-107.5 280q0 225 151.5 370.5t358.5 145.5q168 0 275.5 -109t107.5 -285zM530 139q119 0 205 93.5t86 242.5q0 111 -58 178.5t-151 67.5 q-119 0 -204.5 -96.5t-85.5 -243.5q0 -111 57 -176.5t151 -65.5z" glyph-name="ocircumflex" horiz-adv-x="1021" unicode="ô"/><glyph d="M1018 487q0 -223 -150.5 -365t-359.5 -142q-168 0 -275.5 105t-107.5 280q0 225 151.5 370.5t358.5 145.5q168 0 275.5 -109t107.5 -285zM530 139q119 0 205 93.5t86 242.5q0 111 -58 178.5t-151 67.5q-119 0 -204.5 -96.5t-85.5 -243.5q0 -111 57 -176.5t151 -65.5z M807 1065q-68 0 -150 51t-116 51q-59 0 -90 -73l-13 -33l-139 14l18 62q59 184 222 184q68 0 149.5 -51t116.5 -51q68 0 92 75l10 31l140 -12l-19 -62q-55 -186 -221 -186z" glyph-name="otilde" horiz-adv-x="1021" unicode="õ"/><glyph d="M391 1159q0 49 40 87t89 38q39 0 67.5 -29.5t28.5 -70.5q0 -49 -39.5 -87t-89.5 -38q-39 0 -67.5 29.5t-28.5 70.5zM741 1159q0 49 40 87t87 38q41 0 68 -29.5t27 -70.5q0 -49 -39 -87t-88 -38q-39 0 -67 29.5t-28 70.5zM1018 487q0 -223 -150.5 -365t-359.5 -142 q-168 0 -275.5 105t-107.5 280q0 225 151.5 370.5t358.5 145.5q168 0 275.5 -109t107.5 -285zM530 139q119 0 205 93.5t86 242.5q0 111 -58 178.5t-151 67.5q-119 0 -204.5 -96.5t-85.5 -243.5q0 -111 57 -176.5t151 -65.5z" glyph-name="odieresis" horiz-adv-x="1021" unicode="ö"/><glyph d="M406 260q0 59 45 102.5t104 43.5q49 0 81 -33t32 -82q0 -59 -45 -101.5t-105 -42.5q-49 0 -80.5 33t-31.5 80zM500 932q0 59 45 102t104 43q49 0 81 -32.5t32 -81.5q0 -59 -45 -101.5t-105 -42.5q-49 0 -80.5 33t-31.5 80zM174 524l23 164h796l-22 -164h-797z" glyph-name="divide" horiz-adv-x="997" unicode="÷"/><glyph d="M1018 487q0 -223 -150.5 -365t-359.5 -142q-152 0 -256 86l-72 -66h-143l151 137q-63 96 -63 228q0 225 151.5 370.5t358.5 145.5q145 0 248 -84l69 63h144l-148 -135q70 -103 70 -238zM530 139q119 0 205 93.5t86 242.5q0 66 -22 117l-412 -397q59 -56 143 -56zM322 381 q0 -61 18 -109l410 396q-57 53 -138 53q-119 0 -204.5 -96.5t-85.5 -243.5z" glyph-name="oslash" horiz-adv-x="1024" unicode="ø"/><glyph d="M770 356l72 504h200l-120 -860h-131l-19 119h-8q-115 -139 -303 -139q-166 0 -244 105t-53 282l69 493h201l-67 -475q-14 -106 26.5 -172t136.5 -66q100 0 165 66.5t75 142.5zM586 1018l-148 274l236 35l49 -309h-137z" glyph-name="ugrave" horiz-adv-x="1044" unicode="ù"/><glyph d="M963 1288l-242 -270h-137l147 297zM770 356l72 504h200l-120 -860h-131l-19 119h-8q-115 -139 -303 -139q-166 0 -244 105t-53 282l69 493h201l-67 -475q-14 -106 26.5 -172t136.5 -66q100 0 165 66.5t75 142.5z" glyph-name="uacute" horiz-adv-x="1044" unicode="ú"/><glyph d="M754 1016l-82 127l-121 -127h-156l213 248h158l145 -248h-157zM770 356l72 504h200l-120 -860h-131l-19 119h-8q-115 -139 -303 -139q-166 0 -244 105t-53 282l69 493h201l-67 -475q-14 -106 26.5 -172t136.5 -66q100 0 165 66.5t75 142.5z" glyph-name="ucircumflex" horiz-adv-x="1044" unicode="û"/><glyph d="M379 1118q0 49 40 87t89 38q39 0 67.5 -29.5t28.5 -70.5q0 -49 -40 -87t-89 -38q-39 0 -67.5 29.5t-28.5 70.5zM729 1118q0 49 40 87t87 38q41 0 67.5 -29.5t26.5 -70.5q0 -49 -39 -87t-88 -38q-39 0 -66.5 29.5t-27.5 70.5zM770 356l72 504h200l-120 -860h-131l-19 119 h-8q-115 -139 -303 -139q-166 0 -244 105t-53 282l69 493h201l-67 -475q-14 -106 26.5 -172t136.5 -66q100 0 165 66.5t75 142.5z" glyph-name="udieresis" horiz-adv-x="1044" unicode="ü"/><glyph d="M1038 860l-676 -1179h-208l229 376l-250 803h221l144 -559q6 -57 4 -63h10q6 27 25 63l297 559h204zM918 1288l-242 -270h-137l147 297z" glyph-name="yacute" horiz-adv-x="931" unicode="ý"/><glyph d="M352 145h-8l-65 -464h-201l217 1548h201l-72 -508h8q4 6 11.5 17.5t33 39t57 48t83 38t108.5 17.5q154 0 246 -103.5t92 -275.5q0 -225 -136 -373.5t-327 -148.5q-59 0 -106.5 17t-73 40.5t-42 48.5t-22.5 41zM371 383q0 -109 57 -173.5t150 -64.5q117 0 198.5 94.5 t81.5 235.5q0 104 -55 172t-146 68q-119 0 -202.5 -92.5t-83.5 -239.5z" glyph-name="thorn" horiz-adv-x="1069" unicode="þ"/><glyph d="M1038 860l-676 -1179h-208l229 376l-250 803h221l144 -559q6 -57 4 -63h10q6 27 25 63l297 559h204zM340 1116q0 49 40 87t89 38q39 0 67.5 -29.5t28.5 -70.5q0 -49 -40 -87t-89 -38q-39 0 -67.5 29.5t-28.5 70.5zM690 1116q0 49 40 87t87 38q41 0 67.5 -29.5t26.5 -70.5 q0 -49 -38.5 -87t-88.5 -38q-39 0 -66.5 29.5t-27.5 70.5z" glyph-name="ydieresis" horiz-adv-x="931" unicode="ÿ"/><glyph d="M125 0l121 860h200l-120 -860h-201z" glyph-name="dotlessi" horiz-adv-x="452" unicode="ı"/><glyph d="M94 442l27 193l137 78l74 516h203l-56 -393l301 170l-28 -193l-299 -170l-66 -463h604l-24 -180h-807l71 520z" glyph-name="Lslash" horiz-adv-x="1019" unicode="Ł"/><glyph d="M102 449l17 118l110 64l86 608h201l-70 -485l129 73l-16 -118l-129 -74l-88 -635h-201l72 512z" glyph-name="lslash" horiz-adv-x="489" unicode="ł"/><glyph d="M686 -29q-244 0 -388 158t-144 397q0 301 204.5 515t507.5 214q272 0 420 -196l25 170h874l-24 -180h-672l-47 -340h571l-24 -172h-572l-51 -357h672l-25 -180h-874l20 154q-199 -183 -473 -183zM713 168q203 0 340 147.5t137 360.5q0 168 -95.5 276.5t-256.5 108.5 q-201 0 -337 -149.5t-136 -362.5q0 -166 95 -273.5t253 -107.5z" glyph-name="OE" horiz-adv-x="2093" unicode="Œ"/><glyph d="M1522 215l53 -137q-12 -12 -37 -28.5t-111 -45.5t-182 -29q-246 0 -346 183q-152 -178 -391 -178q-168 0 -275.5 105t-107.5 280q0 225 151.5 370.5t358.5 145.5q225 0 330 -181q143 180 374 181q162 0 249 -97.5t87 -261.5q0 -33 -4 -63.5t-8 -44.5l-2 -15h-610 q-8 -127 52 -193.5t177 -66.5q66 0 126 18.5t89 39.5zM530 139q119 0 205 93.5t86 242.5q0 111 -58 178.5t-151 67.5q-119 0 -204.5 -96.5t-85.5 -243.5q0 -111 57 -176.5t151 -65.5zM1313 725q-174 0 -236 -193h404q6 193 -168 193z" glyph-name="oe" horiz-adv-x="1662" unicode="œ"/><glyph d="M647 1591l82 -127l121 127h156l-193 -223h-188l-136 223h158zM90 125l133 154q14 -12 41 -33t113 -53.5t176 -32.5q133 0 198.5 52t65.5 138q0 61 -55 103.5t-197 85.5q-186 59 -272 132.5t-86 192.5q0 176 134 283.5t370 107.5q135 0 237.5 -31.5t136.5 -62.5l35 -31 l-133 -165q-12 12 -34.5 28.5t-100.5 45t-168 28.5q-115 0 -183.5 -45t-68.5 -125q0 -53 55.5 -91t192.5 -79q193 -59 280 -138t87 -200q0 -180 -135.5 -299t-379.5 -119q-139 0 -249.5 39t-151.5 76z" glyph-name="Scaron" horiz-adv-x="1060" unicode="Š"/><glyph d="M502 1241l82 -127l121 127h155l-192 -223h-189l-135 223h158zM80 80l90 137q115 -84 274 -84q174 0 174 107q0 39 -47 65.5t-114.5 45t-136 42t-115.5 75.5t-47 128q0 123 98 204t274 81q104 0 191.5 -18.5t122.5 -37.5l35 -18l-91 -156q-100 74 -260 74 q-168 0 -168 -100q0 -45 73 -73t160 -45.5t159.5 -75.5t72.5 -157q0 -127 -99 -210.5t-298 -83.5q-113 0 -200 25.5t-117 49.5z" glyph-name="scaron" horiz-adv-x="856" unicode="š"/><glyph d="M700 748l342 481h226l-551 -758l-66 -471h-202l65 471l-338 758h227l207 -481l31 -101zM471 1442q0 49 40 87t89 38q39 0 67.5 -30t28.5 -71q0 -49 -40 -87t-89 -38q-39 0 -67.5 30t-28.5 71zM821 1442q0 49 40 87t87 38q41 0 67.5 -30t26.5 -71q0 -49 -38.5 -87 t-88.5 -38q-39 0 -66.5 30t-27.5 71z" glyph-name="Ydieresis" horiz-adv-x="1099" unicode="Ÿ"/><glyph d="M659 1591l82 -127l121 127h156l-193 -223h-188l-135 223h157zM61 0l21 145l821 904h-672l25 180h942l-20 -150l-809 -899h671l-24 -180h-955z" glyph-name="Zcaron" horiz-adv-x="1093" unicode="Ž"/><glyph d="M504 1241l82 -127l121 127h155l-192 -223h-189l-135 223h158zM799 0h-729l14 109l553 589h-465l23 162h725l-15 -98l-540 -600h456z" glyph-name="zcaron" horiz-adv-x="870" unicode="ž"/><glyph d="M387 268l150 434h-158l22 158h191l16 49q113 334 434 334q53 0 101.5 -9t68.5 -20l21 -10l-107 -168q-43 27 -114 27q-152 0 -201 -152l-16 -51h278l-22 -158h-312l-161 -471q-41 -119 -111 -179t-197 -60q-51 0 -96 12t-65 25l-21 14l86 156q41 -29 94 -29q47 0 74 22.5 t45 75.5z" glyph-name="florin" horiz-adv-x="1085" unicode="ƒ"/><glyph d="M682 1341l-82 127l-121 -127h-155l213 248h157l146 -248h-158z" glyph-name="circumflex" horiz-adv-x="759" unicode="ˆ"/><glyph d="M451 1591l81 -127l121 127h156l-193 -223h-188l-135 223h158z" glyph-name="caron" horiz-adv-x="665" unicode="ˇ"/><glyph d="M780 1665h160q-18 -125 -113.5 -214t-228.5 -89q-135 0 -204.5 88t-51.5 215h158q-10 -70 22.5 -114t95.5 -44q59 0 106.5 44t55.5 114z" glyph-name="breve" horiz-adv-x="811" unicode="˘"/><glyph d="M498 1126q-51 0 -85 34t-34 87q0 63 47 109.5t111 46.5q53 0 86.5 -35t33.5 -88q0 -63 -46.5 -108.5t-112.5 -45.5z" glyph-name="dotaccent" horiz-adv-x="677" unicode="˙"/><glyph d="M274 1419q0 90 69 146.5t181 56.5q92 0 144.5 -44t52.5 -114q0 -90 -68.5 -147t-179.5 -57q-94 0 -146.5 43.5t-52.5 115.5zM602 1452q0 70 -92 70q-55 0 -87 -23.5t-32 -66.5q0 -70 96 -70q115 0 115 90z" glyph-name="ring" horiz-adv-x="589" unicode="˚"/><glyph d="M283 -150l47 -73q-55 -61 -152 -62q-68 0 -105.5 36t-37.5 93q0 143 219 217l12 -61q-111 -55 -110 -123q0 -55 57 -55q31 -1 70 28z" glyph-name="ogonek" horiz-adv-x="399" unicode="˛"/><glyph d="M829 1346q-68 0 -149.5 51t-116.5 51q-59 0 -90 -74l-12 -33l-139 15l18 61q59 184 221 185q66 0 148 -51.5t118 -51.5q68 0 93 76l10 31l139 -13l-18 -61q-56 -186 -222 -186z" glyph-name="tilde" horiz-adv-x="993" unicode="˜"/><glyph d="M870 1182l-208 -324h-134l125 324h217zM537 1182l-209 -324h-133l124 324h218z" glyph-name="hungarumlaut" horiz-adv-x="808" unicode="˝"/><glyph d="M176 860h969l-23 -162h-135l-98 -698h-201l98 698h-297l-98 -698h-201l99 698h-135z" glyph-name="pi" horiz-adv-x="1079" unicode="π"/><glyph d="M193 506l22 166h686l-22 -166h-686z" glyph-name="endash" horiz-adv-x="937" unicode="–"/><glyph d="M193 506l22 166h1204l-22 -166h-1204z" glyph-name="emdash" horiz-adv-x="1456" unicode="—"/><glyph d="M207 877l2 14q18 129 101 221t212 117l17 -109q-137 -31 -166 -125q37 -8 58.5 -37.5t21.5 -66.5q0 -57 -42 -97t-100 -40q-51 0 -81.5 36t-22.5 87z" glyph-name="quoteleft" horiz-adv-x="450" unicode="‘"/><glyph d="M541 1106l-2 -14q-18 -129 -101.5 -221.5t-212.5 -116.5l-16 108q135 29 166 125q-37 6 -59.5 35t-22.5 70q0 55 43 96t98 41q51 0 83 -36t24 -87z" glyph-name="quoteright" horiz-adv-x="454" unicode="’"/><glyph d="M352 100l-2 -14q-18 -129 -101 -221t-212 -117l-17 109q137 33 168 125q-39 8 -61.5 36.5t-22.5 67.5q0 55 43 96t99 41q51 0 82.5 -36t23.5 -87z" glyph-name="quotesinglbase" horiz-adv-x="436" unicode="‚"/><glyph d="M547 877l2 14q18 129 101 221t212 117l17 -109q-137 -31 -166 -125q37 -8 58.5 -37.5t21.5 -66.5q0 -57 -42 -97t-100 -40q-51 0 -81.5 36t-22.5 87zM207 877l2 14q18 129 101 221t212 117l17 -109q-137 -31 -166 -125q37 -8 58.5 -37.5t21.5 -66.5q0 -57 -42 -97 t-100 -40q-51 0 -81.5 36t-22.5 87z" glyph-name="quotedblleft" horiz-adv-x="790" unicode="“"/><glyph d="M868 1106l-2 -14q-18 -129 -101 -221.5t-212 -116.5l-16 108q135 29 165 125q-39 6 -60 34t-21 69q0 57 42 98t99 41q51 0 82.5 -36t23.5 -87zM539 1106l-2 -14q-18 -129 -101.5 -221.5t-210.5 -116.5l-18 108q137 29 168 125q-39 6 -61.5 35t-22.5 70q0 55 43 96t98 41 q51 0 83 -36t24 -87z" glyph-name="quotedblright" horiz-adv-x="782" unicode="”"/><glyph d="M352 100l-2 -14q-18 -129 -101 -221t-212 -117l-17 109q137 33 168 125q-39 8 -61.5 36.5t-22.5 67.5q0 55 43 96t99 41q51 0 82.5 -36t23.5 -87zM840 100l-2 -14q-18 -129 -101.5 -221t-212.5 -117l-16 109q137 33 168 125q-39 8 -61.5 36.5t-22.5 67.5q0 55 43 96 t98 41q51 0 83 -36t24 -87z" glyph-name="quotedblbase" horiz-adv-x="921" unicode="„"/><glyph d="M186 860l23 164h272l39 276h168l-39 -276h269l-23 -164h-268l-90 -524h-136l58 524h-273z" glyph-name="dagger" horiz-adv-x="839" unicode="†"/><glyph d="M231 928l23 164h272l39 276h168l-39 -276h269l-23 -164h-268l-49 -244l-21 -244h268l-22 -164h-268l-39 -276h-168l39 276h-273l23 164h272l47 244l23 244h-273z" glyph-name="daggerdbl" horiz-adv-x="903" unicode="‡"/><glyph d="M414 631q66 0 109.5 -44t43.5 -110q0 -78 -61.5 -135t-140.5 -57q-66 0 -109 43t-43 108q0 80 60.5 137.5t140.5 57.5z" glyph-name="bullet" horiz-adv-x="653" unicode="•"/><glyph d="M113 102q0 63 48 110.5t113 47.5q51 0 86 -36t35 -89q0 -63 -48 -108t-111 -45q-53 0 -88 33.5t-35 86.5zM625 102q0 63 49 110.5t110 47.5q53 0 88 -36t35 -89q0 -63 -49 -108t-113 -45q-53 0 -86.5 33.5t-33.5 86.5zM1135 102q0 63 49 110.5t112 47.5q53 0 87 -36 t34 -89q0 -63 -48 -108t-112 -45q-53 0 -87.5 33.5t-34.5 86.5z" glyph-name="ellipsis" horiz-adv-x="1499" unicode="…"/><glyph d="M526 1255q111 0 172.5 -74.5t61.5 -185.5q0 -141 -89 -246.5t-231 -105.5q-111 0 -172 75t-61 187q0 141 89 245.5t230 104.5zM459 776q70 0 109.5 59.5t39.5 153.5q0 135 -100 135q-70 0 -110 -59t-40 -154q0 -63 26 -99t75 -36zM1239 1229h188l-1148 -1229h-187z M1092 596q111 0 173 -76t62 -186q0 -139 -91 -244.5t-230 -105.5q-111 0 -172.5 75.5t-61.5 186.5q0 141 90.5 245.5t229.5 104.5zM1073 465q-70 0 -109.5 -59.5t-39.5 -153.5q0 -61 26.5 -98t73.5 -37q70 0 110 59.5t40 153.5q-1 135 -101 135zM1712 465 q-70 0 -110.5 -59.5t-40.5 -153.5q0 -61 26.5 -98t75.5 -37q68 0 107.5 60.5t39.5 152.5q0 135 -98 135zM1731 596q109 0 171 -76t62 -186q0 -139 -91 -244.5t-228 -105.5q-111 0 -173.5 75.5t-62.5 186.5q0 141 90.5 245.5t231.5 104.5z" glyph-name="perthousand" horiz-adv-x="1980" unicode="‰"/><glyph d="M131 403l6 46l309 387h170l-4 -21l-299 -381l-2 -12l193 -385l-4 -21h-170z" glyph-name="guilsinglleft" horiz-adv-x="573" unicode="‹"/><glyph d="M563 449l-6 -46l-309 -387h-170l2 21l303 385l2 12l-195 381l3 21h169z" glyph-name="guilsinglright" horiz-adv-x="573" unicode="›"/><glyph d="M143 0h-166l1250 1354h166z" glyph-name="fraction" horiz-adv-x="1179" unicode="⁄"/><glyph d="M899 547l-20 -146h-371q37 -236 274 -235q68 0 131.5 27.5t94.5 54.5l28 26l88 -151q-14 -16 -42.5 -41t-125 -66t-202.5 -41q-207 0 -324 117t-137 309h-160l21 146h137l20 147h-137l21 146h161q76 188 224.5 301.5t353.5 113.5q68 0 126 -15t93 -36.5t61.5 -43 t36.5 -38.5l11 -14l-129 -156q-8 12 -24.5 30.5t-75 48.5t-126.5 30q-231 0 -336 -221h369l-20 -146h-398q-16 -63 -20 -147h397z" glyph-name="Euro" horiz-adv-x="1183" unicode="€"/><glyph d="M905 575h-133l92 654h94l185 -295l274 295h90l-92 -654h-133l57 402l-194 -213h-49l-133 213zM752 1229l-17 -117h-190l-76 -537h-131l76 537h-191l17 117h512z" glyph-name="trademark" horiz-adv-x="1470" unicode="™"/><glyph d="M100 0l25 176h250q-90 61 -138.5 169t-48.5 228q0 274 201 478t520 204q262 0 406.5 -153.5t144.5 -382.5q0 -166 -84 -311.5t-235 -231.5h250l-25 -176h-561l26 182q170 16 296 164t126 334q0 164 -100 272.5t-270 108.5q-211 0 -352.5 -145.5t-141.5 -348.5 q0 -152 83 -262t216 -123l-26 -182h-562z" glyph-name="uni2126" horiz-adv-x="1466" unicode="Ω"/><glyph d="M512 -20q-182 0 -285.5 102t-103.5 278q0 227 144.5 373t371.5 146q41 0 76 -7l2 9q-27 37 -47 82l-238 505l4 23h193l334 -709q68 -147 67 -274q0 -240 -143.5 -384t-374.5 -144zM823 479q0 111 -56 172.5t-153 61.5q-121 0 -203.5 -91.5t-82.5 -240.5q0 -109 57 -173.5 t150 -64.5q123 0 205.5 92t82.5 244z" glyph-name="partialdiff" horiz-adv-x="1034" unicode="∂"/><glyph d="M53 0l6 37l750 1192h37l420 -1192l-6 -37h-1207zM993 176l-211 692h-10l-407 -692h628z" glyph-name="uni2206" horiz-adv-x="1310" unicode="∆"/><glyph d="M1325 1229l-172 -1229h-203l148 1053h-619l-147 -1053h-203l172 1229h1024z" glyph-name="product" horiz-adv-x="1282" unicode="∏"/><glyph d="M264 1229h737l-24 -176h-483l249 -391l-12 -101l-352 -385h475l-25 -176h-737l25 176l401 422l4 27l-282 428z" glyph-name="summation" horiz-adv-x="919" unicode="∑"/><glyph d="M193 528l22 166h889l-23 -166h-888z" glyph-name="minus" horiz-adv-x="1124" unicode="−"/><glyph d="M1452 1229l-1040 -1622h-43l-303 817h225l102 -307q39 -135 39 -160h21q2 14 34.5 73.5t49.5 86.5l688 1112h227z" glyph-name="radical" horiz-adv-x="1257" unicode="√"/><glyph d="M463 236q-135 0 -216 88t-81 217q0 156 114.5 274.5t280.5 118.5q109 0 180.5 -61.5t135.5 -174.5q188 236 374 236q127 0 212 -85t85 -220q0 -158 -113.5 -275.5t-281.5 -117.5q-188 0 -315 231q-90 -109 -178 -170t-197 -61zM1219 776q-123 0 -269 -188 q47 -94 96.5 -144.5t118.5 -50.5q94 0 153.5 64.5t59.5 150.5q0 74 -44.5 121t-114.5 47zM498 393q123 0 266 189q-47 94 -95 144t-118 50q-94 0 -153.5 -66.5t-59.5 -152.5q0 -70 42 -117t118 -47z" glyph-name="infinity" horiz-adv-x="1550" unicode="∞"/><glyph d="M231 43l146 1030q33 256 268 256q45 0 84 -11t57 -24l17 -10l-74 -149q-33 18 -70 18q-70 0 -84 -100l-145 -1030q-37 -256 -268 -256q-45 0 -84 11t-58 21l-16 13l76 149q33 -18 67 -18q70 0 84 100z" glyph-name="integral" horiz-adv-x="651" unicode="∫"/><glyph d="M717 334q-72 0 -158 44t-119 44q-57 0 -86 -64l-12 -28l-172 12l25 78q61 172 241 172q72 0 157 -44t120 -44q57 0 86 63l12 29l172 -12l-25 -80q-61 -170 -241 -170zM774 731q-72 0 -158 44t-118 44q-59 0 -88 -63l-13 -29l-172 12l27 80q57 170 240 170q72 0 156.5 -44 t119.5 -44q59 0 88 64l12 28l170 -12l-24 -78q-25 -78 -86.5 -125t-153.5 -47z" glyph-name="approxequal" horiz-adv-x="1019" unicode="≈"/><glyph d="M207 715l24 164h400l121 233l131 -49l-95 -184h201l-24 -164h-260l-136 -264h359l-23 -164h-418l-116 -228l-131 50l90 178h-183l23 164h242l135 264h-340z" glyph-name="notequal" horiz-adv-x="970" unicode="≠"/><glyph d="M707 528l-134 -120l-340 374l5 39l448 385l100 -123l-331 -282zM743 297l-22 -166h-598l22 166h598z" glyph-name="lessequal" horiz-adv-x="794" unicode="≤"/><glyph d="M338 408l-102 120l329 273l-254 282l138 123l337 -385l-4 -39zM113 131l22 166h596l-22 -166h-596z" glyph-name="greaterequal" horiz-adv-x="794" unicode="≥"/><glyph d="M723 1229l262 -615l-434 -614h-139l-260 614l432 615h139zM377 612l129 -340h29l223 340l-129 344h-29z" glyph-name="lozenge" horiz-adv-x="962" unicode="◊"/></font>
</defs>
</svg>
