<?xml version="1.0" standalone="no"?>
<!DOCTYPE svg PUBLIC "-//W3C//DTD SVG 1.1//EN" "http://www.w3.org/Graphics/SVG/1.1/DTD/svg11.dtd">
<svg xmlns="http://www.w3.org/2000/svg"><metadata>This SVG WebFont was generated by YouWorkForThem.
Copyright (c) 2014 by Daniel Hernandez &amp; Miguel Hernandez. All rights reserved.</metadata><defs><font horiz-adv-x="1175" id="ywftsvg"><font-face ascent="1536" bbox="-45 -393 2230 1683" cap-height="1229" descent="-512" font-family="" font-stretch="normal" font-weight="100" panose-1="2 0 0 0 0 0 0 0 0 0" underline-position="0" underline-thickness="0" unicode-range="U+000D-25CA" units-per-em="2048" x-height="860"/><missing-glyph horiz-adv-x="1155"/><glyph glyph-name=".notdef" horiz-adv-x="1155"/><glyph glyph-name="glyph1" horiz-adv-x="0"/><glyph glyph-name="glyph2" horiz-adv-x="681"/><glyph glyph-name="glyph3" horiz-adv-x="0"/><glyph glyph-name="glyph3" horiz-adv-x="0"/><glyph glyph-name="space" horiz-adv-x="497" unicode=" "/><glyph d="M371 1229l-144 -959h-24l125 959h43zM127 31q0 23 19.5 41t41.5 18q20 0 34 -14.5t14 -32.5q0 -23 -19.5 -41t-42.5 -18q-20 0 -33.5 14.5t-13.5 32.5z" glyph-name="exclam" horiz-adv-x="354" unicode="!"/><glyph d="M418 1401l-127 -428h-25l88 428h64zM631 1401l-129 -428h-25l90 428h64z" glyph-name="quotedbl" horiz-adv-x="534" unicode="&quot;"/><glyph d="M1139 1194l-133 -358h251l-14 -41h-252l-147 -404h239l-14 -41h-242l-127 -350h-45l127 350h-356l-127 -350h-45l127 350h-258l14 41h260l146 404h-246l14 41h246l133 358h47l-133 -358h354l134 358h47zM590 795l-148 -404h357l145 404h-354z" glyph-name="numbersign" horiz-adv-x="1214" unicode="#"/><glyph d="M123 104l31 35q12 -14 37.5 -34.5t114.5 -55.5t194 -35l84 604q-82 27 -129 46.5t-103.5 53.5t-82 81t-25.5 110q0 154 120.5 247t309.5 99l31 211h40l-30 -211q117 -2 207 -28.5t120 -52.5l31 -27l-31 -37q-10 10 -32.5 27.5t-108.5 46t-192 30.5l-78 -563 q82 -27 132 -48t107.5 -57t85 -88t27.5 -122q0 -154 -112.5 -254t-335.5 -109l-27 -192h-41l27 192q-113 2 -206 35t-128 66zM940 330q0 57 -24.5 102t-73.5 78t-97.5 53.5t-119.5 42.5l-84 -592q199 8 299 92.5t100 223.5zM287 918q0 -43 17.5 -79t43 -59.5t69.5 -47 t79.5 -37t93.5 -31.5l78 548q-160 -6 -270.5 -83.5t-110.5 -210.5z" glyph-name="dollar" horiz-adv-x="1038" unicode="$"/><glyph d="M504 1255q98 0 151.5 -70.5t53.5 -178.5q0 -141 -80 -247t-209 -106q-96 0 -149.5 73t-53.5 179q0 141 80 245.5t207 104.5zM498 1214q-104 0 -170 -91t-66 -214q0 -92 42 -153.5t122 -61.5q106 0 172 92.5t66 212.5q0 94 -43 154.5t-123 60.5zM1065 586q98 0 151.5 -71 t53.5 -179q0 -141 -80 -246.5t-209 -105.5q-96 0 -149.5 72.5t-53.5 179.5q0 141 80 245.5t207 104.5zM1059 545q-104 0 -170 -91.5t-66 -213.5q0 -92 42 -153.5t122 -61.5q106 0 173 92t67 213q0 94 -43 154.5t-125 60.5zM1300 1229h54l-1147 -1229h-53z" glyph-name="percent" horiz-adv-x="1316" unicode="%"/><glyph d="M1137 625l39 -4q-35 -242 -211 -437l153 -184h-53l-129 152q-178 -178 -418 -179q-168 0 -269.5 81t-101.5 214q0 78 28 140.5t85 110.5t107.5 79t132.5 72q-70 84 -102.5 145.5t-32.5 136.5q0 133 91 218t226 85q106 0 171 -63.5t65 -165.5q0 -70 -27 -125t-88.5 -101 t-106.5 -73t-135 -70l377 -446q82 90 134.5 202t64.5 212zM522 12q221 0 389 168l-387 461q-76 -39 -126 -68.5t-103 -73.5t-79 -99.5t-26 -123.5q0 -115 93.5 -189.5t238.5 -74.5zM408 954q0 -111 118 -254l11 -12q88 41 136 67.5t101 68.5t76.5 90.5t23.5 109.5 q0 86 -54 139.5t-146 53.5q-113 0 -189.5 -73t-76.5 -190z" glyph-name="ampersand" unicode="&amp;"/><glyph d="M418 1401l-127 -428h-25l88 428h64z" glyph-name="quotesingle" horiz-adv-x="321" unicode="'"/><glyph d="M211 446q0 -430 287 -692l-25 -30q-106 102 -162 188q-143 225 -143 530q0 625 528 994q14 10 21 14l14 -31q-4 -2 -14 -10q-506 -361 -506 -963z" glyph-name="parenleft" horiz-adv-x="552" unicode="("/><glyph d="M506 729q0 438 -287 690l25 31q115 -106 174 -205q133 -219 133 -510q0 -627 -531 -997q-12 -10 -18 -14l-16 30q156 111 245 215q275 318 275 760z" glyph-name="parenright" horiz-adv-x="552" unicode=")"/><glyph d="M326 877l217 231l-271 72l33 73l252 -114l18 295h76l-63 -295l282 114l11 -73l-285 -70l149 -233l-67 -46l-111 261l-186 -261z" glyph-name="asterisk" horiz-adv-x="823" unicode="*"/><glyph d="M631 991l-49 -352h336l-7 -41h-336l-49 -346h-43l49 346h-339l6 41h340l49 352h43z" glyph-name="plus" horiz-adv-x="935" unicode="+"/><glyph d="M205 -16h-6q-23 0 -36 14t-13 36.5t15 39t42 16.5q20 0 34.5 -14.5t14.5 -38.5q0 -92 -58.5 -155.5t-166.5 -88.5l-2 37q72 12 121 57t55 93v4z" glyph-name="comma" horiz-adv-x="393" unicode=","/><glyph d="M201 451l6 41h547l-6 -41h-547z" glyph-name="hyphen" horiz-adv-x="821" unicode="-"/><glyph d="M188 -16q-20 0 -33.5 14t-13.5 33q0 23 19.5 41t42.5 18q18 0 31.5 -14.5t13.5 -32.5q0 -23 -18.5 -41t-41.5 -18z" glyph-name="period" horiz-adv-x="380" unicode="."/><glyph d="M59 -227h-45l1174 1831h45z" glyph-name="slash" horiz-adv-x="1056" unicode="/"/><glyph d="M584 -29q-188 0 -292 144.5t-104 376.5q0 322 160 542.5t416 220.5q188 0 290.5 -144t102.5 -378q0 -319 -160.5 -540.5t-412.5 -221.5zM590 12q164 0 285.5 105.5t180 266.5t58.5 345q0 213 -89 349t-265 136q-166 0 -289 -106.5t-181.5 -267t-58.5 -346.5 q0 -209 90.5 -345.5t268.5 -136.5z" glyph-name="zero" horiz-adv-x="1173" unicode="0"/><glyph d="M190 1188l7 41h333l-174 -1229h-43l168 1188h-291z" glyph-name="one" horiz-adv-x="518" unicode="1"/><glyph d="M100 0l6 39l648 559q106 92 144 172t38 178q0 119 -79 192.5t-210 73.5q-98 0 -192.5 -42t-139.5 -82l-43 -41l-24 30l18.5 18.5t54 43t86 53.5t112 42t134.5 19q152 0 239 -81.5t87 -217.5q0 -111 -43 -198.5t-168 -196.5l-606 -522h715l-7 -39h-770z" glyph-name="two" horiz-adv-x="970" unicode="2"/><glyph d="M580 637h-166l6 35l545 518h-684l6 39h743l-4 -33l-559 -524h117q152 0 243 -74t91 -215q0 -174 -128 -288.5t-319 -114.5q-115 0 -202 38.5t-117 77.5l-31 39l33 29q4 -6 11 -15.5t34.5 -35t61.5 -45t92.5 -35t123.5 -15.5q174 0 285.5 102.5t111.5 258.5 q0 123 -77.5 190.5t-216.5 67.5z" glyph-name="three" horiz-adv-x="970" unicode="3"/><glyph d="M96 324l4 32l820 873h38l-120 -864h186l-6 -41h-187l-45 -324h-43l45 324h-692zM160 367v-2h635l110 788l-735 -778z" glyph-name="four" horiz-adv-x="1040" unicode="4"/><glyph d="M987 1188h-606l-88 -520q129 39 285 39q154 0 249 -84t95 -228q0 -199 -134.5 -310.5t-326.5 -111.5q-106 0 -190.5 39t-114.5 78l-33 37l33 29q4 -6 11 -15.5t34.5 -34t60.5 -43t88.5 -34t116.5 -15.5q180 0 295 100.5t115 276.5q0 127 -84 202t-220 75 q-86 0 -164.5 -12.5t-113.5 -24.5l-35 -13l-14 13l100 598h647z" glyph-name="five" horiz-adv-x="964" unicode="5"/><glyph d="M735 1214q-90 0 -176 -45t-159.5 -132t-121 -237.5t-51.5 -340.5q53 115 174 190.5t265 75.5q164 0 258 -95t94 -235q0 -172 -129 -298t-320 -126q-182 0 -282.5 120t-100.5 360q0 201 49.5 360.5t130 253.5t177 142t198.5 48q72 0 132.5 -18t95.5 -44t59.5 -51.5 t32.5 -43.5l10 -19l-35 -28q-4 6 -10 17t-31.5 40t-56.5 50.5t-85.5 38.5t-117.5 17zM659 682q-158 0 -281.5 -97.5t-146.5 -232.5q35 -340 347 -340q162 0 279.5 109.5t117.5 265.5q0 129 -83 212t-233 83z" glyph-name="six" horiz-adv-x="1056" unicode="6"/><glyph d="M221 1188l4 41h768l-4 -39l-729 -1190h-51l731 1188h-719z" glyph-name="seven" horiz-adv-x="847" unicode="7"/><glyph d="M510 -29q-158 0 -256 89.5t-98 220.5q0 129 86 224t221 132q-92 33 -144.5 103.5t-52.5 160.5q0 150 122 252t302 102q150 0 241 -79.5t91 -202.5q0 -115 -77 -207t-202 -129q100 -33 160 -107.5t60 -175.5q0 -158 -133.5 -270.5t-319.5 -112.5zM918 350 q0 117 -91.5 191.5t-226.5 74.5h-16q-154 -4 -268.5 -97t-114.5 -232q0 -115 89 -195t226 -80q164 0 283 99.5t119 238.5zM606 657h15q150 4 252 94.5t102 215.5q0 106 -80 176.5t-211 70.5q-158 0 -264.5 -90t-106.5 -219q0 -106 80 -177t213 -71z" glyph-name="eight" horiz-adv-x="1030" unicode="8"/><glyph d="M489 12q223 0 370 187.5t147 560.5v18q-53 -121 -173 -198.5t-268 -77.5q-160 0 -255 93t-95 239q0 172 130 296.5t327 124.5q180 0 278.5 -124.5t98.5 -368.5q0 -205 -46.5 -360.5t-127 -248t-179 -137.5t-213.5 -45q-98 0 -178 37t-110 74l-31 35l33 28q4 -6 11 -14 t33.5 -31.5t57.5 -41t83 -32t107 -14.5zM571 545q154 0 280 97t148 230q-16 174 -105 258t-228 84q-168 0 -287 -108.5t-119 -263.5q0 -139 85 -218t226 -79z" glyph-name="nine" horiz-adv-x="1064" unicode="9"/><glyph d="M143 47q0 23 19.5 41t42.5 18q20 0 33.5 -14t13.5 -33q0 -23 -19.5 -41t-42.5 -18q-20 0 -33.5 14.5t-13.5 32.5zM250 801q0 23 19.5 41t41.5 18q20 0 33.5 -14.5t13.5 -32.5q0 -23 -19.5 -41t-41.5 -18q-20 0 -33.5 14.5t-13.5 32.5z" glyph-name="colon" horiz-adv-x="380" unicode=":"/><glyph d="M266 0h-6q-20 0 -34.5 14.5t-14.5 37t15.5 38.5t41.5 16q20 0 34.5 -14t14.5 -39q0 -92 -58 -155.5t-167 -87.5l-2 36q72 12 121 57.5t55 92.5v4zM317 801q0 23 19.5 41t42.5 18q20 0 33.5 -14.5t13.5 -32.5q0 -23 -19.5 -41t-41.5 -18q-20 0 -34 14.5t-14 32.5z" glyph-name="semicolon" horiz-adv-x="483" unicode=";"/><glyph d="M176 563l6 49l590 422l-8 -57l-547 -389l438 -389l-8 -58z" glyph-name="less" horiz-adv-x="770" unicode="&lt;"/><glyph d="M250 770l6 41h637l-6 -41h-637zM195 379l6 41h637l-7 -41h-636z" glyph-name="equal" horiz-adv-x="919" unicode="="/><glyph d="M760 612l-6 -49l-590 -422l8 58l549 389l-440 389l8 57z" glyph-name="greater" horiz-adv-x="770" unicode=">"/><glyph d="M248 1114l-23 33q12 10 38 25.5t110 41t176 25.5q158 0 249 -71.5t91 -196.5q0 -96 -39 -168t-97.5 -116t-118 -82t-105.5 -87t-56 -108l-24 -158h-31l26 166q10 63 55.5 114.5t101.5 89t111.5 79.5t93.5 110t38 156q0 106 -77 168.5t-220 62.5q-84 0 -159 -21.5 t-107 -41.5zM348 12q0 23 19.5 41.5t42.5 18.5q20 0 33.5 -14.5t13.5 -32.5q0 -23 -19.5 -41.5t-42.5 -18.5q-20 0 -33.5 14.5t-13.5 32.5z" glyph-name="question" horiz-adv-x="831" unicode="?"/><glyph d="M1522 104q-96 0 -160 58.5t-64 154.5l2 41h-6q-154 -231 -372 -231q-127 0 -208 88t-81 231q0 242 153.5 404t360.5 162q227 0 266 -195l60 180h30l-143 -536q-20 -78 -21 -131q0 -84 54.5 -136.5t138.5 -52.5q203 0 329 179.5t126 420.5q0 303 -210 510t-540 207 q-213 0 -406.5 -82t-328.5 -217t-215 -316t-80 -374q0 -326 213 -555t561 -229q127 0 241.5 28.5t166.5 57.5l51 30l18 -32q-20 -14 -59 -35t-165 -55.5t-259 -34.5q-362 0 -585.5 239.5t-223.5 581.5q0 201 83 389t225 330.5t344 228.5t425 86q346 0 565.5 -218t219.5 -536 q0 -262 -140.5 -451.5t-365.5 -189.5zM930 168q125 0 232.5 99.5t163.5 230.5t56 245q0 106 -62.5 167t-178.5 61q-188 0 -327.5 -148.5t-139.5 -371.5q0 -131 69.5 -207t186.5 -76z" glyph-name="at" horiz-adv-x="2031" unicode="@"/><glyph d="M784 1229l330 -1229h-45l-98 365h-666l-199 -365h-45l674 1229h49zM754 1186l-426 -780h633z" glyph-name="A" unicode="A"/><glyph d="M1153 360q0 -172 -126 -266t-327 -94h-505l172 1229h471q166 0 259 -73t93 -210q0 -246 -252 -325l-2 -5q98 -25 157.5 -91.5t59.5 -164.5zM1110 356q0 111 -88 174.5t-229 63.5h-471l-78 -553h465q178 0 289.5 81.5t111.5 233.5zM1145 940q0 123 -84 185.5t-225 62.5 h-430l-78 -553h430q182 0 284.5 82t102.5 223z" glyph-name="B" horiz-adv-x="1212" unicode="B"/><glyph d="M1104 174l18 -33q-18 -18 -51 -46.5t-142.5 -76t-228.5 -47.5q-231 0 -375.5 157t-144.5 398q0 303 207 516t494 213q74 0 140 -16t107 -40.5t72 -49.5t45 -41l12 -16l-30 -33q-4 6 -12.5 16t-40 38t-68.5 48.5t-99.5 36.5t-132.5 16q-268 0 -458.5 -204.5t-190.5 -474.5 q0 -219 132 -371t350 -152q111 0 210 41t144 82z" glyph-name="C" horiz-adv-x="1181" unicode="C"/><glyph d="M1272 700q0 -319 -214 -509.5t-523 -190.5h-340l172 1229h340q250 0 407.5 -141.5t157.5 -387.5zM705 1188h-299l-162 -1147h299q283 0 483.5 179t200.5 470q0 227 -147.5 362.5t-374.5 135.5z" glyph-name="D" horiz-adv-x="1282" unicode="D"/><glyph d="M1004 641l-7 -41h-675l-78 -559h770l-6 -41h-813l172 1229h813l-4 -41h-770l-78 -547h676z" glyph-name="E" horiz-adv-x="1099" unicode="E"/><glyph d="M1001 641l-6 -41h-673l-84 -600h-43l172 1229h813l-4 -41h-770l-78 -547h673z" glyph-name="F" horiz-adv-x="1064" unicode="F"/><glyph d="M748 600l6 41h569l-8 -59q-39 -285 -204 -448t-409 -163q-240 0 -380 155t-140 394q0 309 201 522t500 213q80 0 151.5 -17t116.5 -42t78 -48.5t45 -41.5l14 -16l-31 -33q-4 6 -13 17t-43 38t-74 47.5t-107.5 37.5t-142.5 17q-289 0 -470.5 -204.5t-181.5 -483.5 q0 -219 127 -366.5t357 -147.5q219 0 371.5 143.5t187.5 397.5l6 47h-526z" glyph-name="G" horiz-adv-x="1318" unicode="G"/><glyph d="M1276 1229l-172 -1229h-43l84 600h-823l-84 -600h-43l172 1229h43l-82 -588h823l82 588h43z" glyph-name="H" horiz-adv-x="1298" unicode="H"/><glyph d="M410 1229l-172 -1229h-43l172 1229h43z" glyph-name="I" horiz-adv-x="432" unicode="I"/><glyph d="M829 1229l-120 -858q-57 -399 -410 -400q-72 0 -132.5 22.5t-84.5 43.5l-23 22l27 33q8 -8 23.5 -21.5t71 -36t120.5 -22.5q313 0 365 363l120 854h43z" glyph-name="J" horiz-adv-x="835" unicode="J"/><glyph d="M410 1229l-109 -780l885 780h41l-2 -15l-553 -487l389 -721l-2 -6h-39l-381 696l-346 -305l-55 -391h-43l172 1229h43z" glyph-name="K" horiz-adv-x="1105" unicode="K"/><glyph d="M938 0h-743l172 1229h43l-166 -1188h700z" glyph-name="L" horiz-adv-x="978" unicode="L"/><glyph d="M1239 0l164 1171l-569 -641h-41l-390 644l-165 -1174h-43l172 1229h57l397 -651l578 651h57l-172 -1229h-45z" glyph-name="M" horiz-adv-x="1478" unicode="M"/><glyph d="M1337 1229l-172 -1229h-57l-705 1178l-165 -1178h-43l172 1229h59l704 -1176l164 1176h43z" glyph-name="N" horiz-adv-x="1359" unicode="N"/><glyph d="M692 -29q-236 0 -373 155t-137 394q0 309 198 522t492 213q236 0 373 -153.5t137 -396.5q0 -307 -197.5 -520.5t-492.5 -213.5zM698 12q285 0 463 204t178 482q0 221 -123.5 368.5t-349.5 147.5q-283 0 -462 -204.5t-179 -483.5q0 -219 125 -366.5t348 -147.5z" glyph-name="O" horiz-adv-x="1392" unicode="O"/><glyph d="M195 0l172 1229h432q190 0 296.5 -97.5t106.5 -250.5q0 -195 -142 -326t-374 -131h-389l-59 -424h-43zM1159 874q0 139 -98 226.5t-264 87.5h-391l-103 -723h391q201 0 333 116.5t132 292.5z" glyph-name="P" horiz-adv-x="1155" unicode="P"/><glyph d="M692 -29q-236 0 -373 155t-137 394q0 309 198 522t492 213q236 0 373 -153.5t137 -396.5q0 -256 -140 -450t-368 -257l117 -248h-49l-111 238q-71 -17 -139 -17zM698 12q285 0 463 204t178 482q0 221 -123.5 368.5t-349.5 147.5q-283 0 -462 -204.5t-179 -483.5 q0 -219 125 -366.5t348 -147.5z" glyph-name="Q" horiz-adv-x="1392" unicode="Q"/><glyph d="M367 1229h432q195 0 300 -91t105 -249q0 -176 -107.5 -292t-281.5 -144v-4l285 -441l-2 -8h-41l-289 444h-469l-61 -444h-43zM1159 881q0 145 -96 226t-266 81h-391l-101 -703h420q182 0 308 107t126 289z" glyph-name="R" horiz-adv-x="1198" unicode="R"/><glyph d="M117 104l30 35q4 -4 13.5 -13t42.5 -30.5t70.5 -38t99 -30t129.5 -13.5q215 0 323.5 85t108.5 231q0 113 -85 173t-245 109q-76 25 -110.5 36t-94 39t-87 54.5t-51 70.5t-23.5 97q0 160 130 253t326 93q123 0 216.5 -27.5t125.5 -53.5l31 -27l-31 -37q-4 4 -12 11 t-39 25.5t-67.5 32t-98 24.5t-131.5 11q-168 0 -287.5 -78.5t-119.5 -217.5q0 -45 19 -82t46 -61.5t78 -49.5t86 -37t100 -33q70 -23 111 -37t96 -42.5t85 -58.5t52.5 -77t22.5 -104q0 -160 -120 -261.5t-361 -101.5q-72 0 -137.5 13.5t-107.5 33t-74 39t-46 31.5z" glyph-name="S" horiz-adv-x="1028" unicode="S"/><glyph d="M1143 1229l-6 -41h-439l-168 -1188h-43l168 1188h-438l6 41h920z" glyph-name="T" horiz-adv-x="1017" unicode="T"/><glyph d="M635 -27q-221 0 -322.5 142.5t-66.5 388.5l102 725h43l-102 -725q-31 -227 58 -358.5t294 -131.5t331 131t156 359l103 725h43l-103 -725q-35 -246 -175 -388.5t-361 -142.5z" glyph-name="U" horiz-adv-x="1277" unicode="U"/><glyph d="M563 0l-330 1229h46l315 -1184l647 1184h45l-674 -1229h-49z" glyph-name="V" unicode="V"/><glyph d="M1130 0l-180 1153l-504 -1153h-45l-165 1229h45l153 -1151l504 1151h45l178 -1151l479 1151h46l-510 -1229h-46z" glyph-name="W" horiz-adv-x="1576" unicode="W"/><glyph d="M1124 1229l-503 -598l354 -631h-51l-295 532l-37 72l-53 -72l-447 -532h-49l526 631l-333 598h51l286 -514l27 -58l43 58l430 514h51z" glyph-name="X" horiz-adv-x="1015" unicode="X"/><glyph d="M672 569l493 660h52l-574 -754l-65 -475h-43l65 475l-360 754h51l311 -660l25 -59h4z" glyph-name="Y" horiz-adv-x="1112" unicode="Y"/><glyph d="M68 0l4 35l1018 1153h-848l4 41h909l-4 -35l-1018 -1153h830l-7 -41h-888z" glyph-name="Z" horiz-adv-x="1040" unicode="Z"/><glyph d="M111 -266l239 1700h357l-7 -41h-315l-227 -1618h315l-6 -41h-356z" glyph-name="bracketleft" horiz-adv-x="534" unicode="["/><glyph d="M492 -262l-183 1898h43l185 -1898h-45z" glyph-name="backslash" horiz-adv-x="653" unicode="\"/><glyph d="M-6 -266l6 41h315l228 1618h-316l6 41h357l-240 -1700h-356z" glyph-name="bracketright" horiz-adv-x="534" unicode="]"/><glyph d="M758 1018l-180 297l-263 -297h-43l291 350h45l191 -350h-41z" glyph-name="asciicircum" horiz-adv-x="784" unicode="^"/><glyph d="M68 -123l6 41h905l-6 -41h-905z" glyph-name="underscore" horiz-adv-x="1075" unicode="_"/><glyph d="M483 1018l-112 282l65 9l78 -291h-31z" glyph-name="grave" horiz-adv-x="495" unicode="`"/><glyph d="M877 504l-72 -504h-31l19 182h-5q-53 -82 -159.5 -142t-229.5 -60q-143 0 -215.5 64.5t-72.5 162.5q0 125 101 210t312 85q182 0 301 -68l11 72q6 39 6 76q0 260 -285 260q-63 0 -133 -18.5t-109 -37.5l-39 -18l-14 37q141 76 307 76q158 0 236 -80t78 -217q0 -39 -6 -80 zM410 18q139 0 261 95.5t132 171.5l16 108q-111 74 -297 74q-188 0 -279 -74t-91 -180q0 -84 64.5 -139.5t193.5 -55.5z" glyph-name="a" horiz-adv-x="954" unicode="a"/><glyph d="M162 0l174 1239h41l-84 -594h2q4 10 13 25.5t43 56.5t76 71.5t113.5 56.5t153.5 26q154 0 252 -107.5t98 -279.5q0 -221 -142 -367.5t-331 -146.5q-84 0 -148.5 25.5t-98 63t-55 74.5t-27.5 62l-4 26h-5l-40 -231h-31zM256 369q0 -162 86 -256.5t233 -94.5 q172 0 299 135.5t127 335.5q0 154 -89 253.5t-220 99.5q-176 0 -306 -130t-130 -343z" glyph-name="b" horiz-adv-x="1077" unicode="b"/><glyph d="M512 -20q-158 0 -259 102t-101 276q0 229 144 376t343 147q74 0 136.5 -19.5t88.5 -38.5l25 -20l-23 -35q-86 74 -235 74q-168 0 -302 -134.5t-134 -340.5q0 -160 93 -254.5t228 -94.5q66 0 130.5 18.5t94.5 37.5l31 18l12 -35q-108 -77 -272 -77z" glyph-name="c" horiz-adv-x="870" unicode="c"/><glyph d="M961 629h2l86 610h41l-175 -1239h-30l20 215h-2q-4 -10 -13 -25.5t-43 -56.5t-76 -71.5t-113.5 -56t-153.5 -25.5q-154 0 -252 107.5t-98 279.5q0 221 142 367.5t335 146.5q82 0 146.5 -26t97 -63.5t54 -74.5t25.5 -62zM942 492q0 164 -87 257t-232 93 q-172 0 -299 -135.5t-127 -335.5q0 -154 89 -253.5t220 -99.5q176 0 306 130.5t130 343.5z" glyph-name="d" horiz-adv-x="1077" unicode="d"/><glyph d="M799 106l16 -34q-14 -10 -40.5 -25.5t-107.5 -41t-163 -25.5q-158 0 -254 101t-96 273q0 240 133 383.5t323 143.5q174 0 257 -113t53 -301l-2 -12h-711l-4 -31q-25 -184 64 -295t243 -111q80 0 151.5 21.5t104.5 44.5zM606 842q-131 0 -240.5 -92.5t-148.5 -253.5h664 q16 143 -54.5 244.5t-220.5 101.5z" glyph-name="e" horiz-adv-x="942" unicode="e"/><glyph d="M158 860h172l14 94q18 139 102 217t201 78q37 0 69 -6t46 -12l12 -6l-20 -37q-33 23 -115 22q-94 0 -163.5 -63.5t-90.5 -192.5l-14 -94h270l-6 -39h-270l-115 -821h-41l115 821h-172z" glyph-name="f" horiz-adv-x="546" unicode="f"/><glyph d="M991 823h-221v-4q10 -6 26.5 -18.5t43 -59.5t26.5 -106q0 -133 -98 -225.5t-252 -92.5q-117 0 -190 58q-82 -31 -119 -61.5t-37 -71.5q0 -57 71.5 -87t260.5 -30q176 0 271 -59.5t95 -159.5q0 -119 -117.5 -196t-318.5 -77q-178 0 -273.5 54.5t-95.5 152.5q0 86 67 152.5 t198 103.5q-197 29 -197 142q0 51 41 89t129 74q-55 57 -55 160q0 133 97 224.5t253 91.5q55 0 104 -17h295zM496 88q-23 0 -59 1t-48 1q-285 -86 -285 -248q0 -170 334 -170q182 0 285.5 63.5t103.5 168.5q0 82 -86.5 133t-244.5 51zM590 838q-135 0 -219 -79t-84 -192 q0 -96 59.5 -153.5t175.5 -57.5q135 0 219 79t84 192q0 90 -62 150.5t-173 60.5z" glyph-name="g" horiz-adv-x="923" unicode="g"/><glyph d="M162 0l174 1239h41l-80 -563h2q35 53 39 57q123 147 317 148q168 0 245 -114t52 -294l-65 -473h-41l65 471q23 166 -43.5 268.5t-220 102.5t-252 -99.5t-116.5 -205.5l-76 -537h-41z" glyph-name="h" horiz-adv-x="1034" unicode="h"/><glyph d="M348 1147q-41 0 -41 39q0 23 15.5 38t37.5 15q18 0 29.5 -12.5t11.5 -28.5q0 -23 -15 -37t-38 -14zM166 0l121 860h41l-121 -860h-41z" glyph-name="i" horiz-adv-x="372" unicode="i"/><glyph d="M-45 -319l6 36h25q139 0 164 170l137 973h41l-138 -973q-14 -109 -65 -157.5t-148 -48.5h-22zM348 1147q-43 0 -43 39q0 23 16.5 38t38.5 15q18 0 29.5 -12.5t11.5 -28.5q0 -23 -15 -37t-38 -14z" glyph-name="j" horiz-adv-x="372" unicode="j"/><glyph d="M864 860h62l-473 -358l368 -502h-49l-350 479l-170 -131l-49 -348h-41l174 1239h41l-117 -836z" glyph-name="k" horiz-adv-x="854" unicode="k"/><glyph d="M170 0l174 1239h41l-174 -1239h-41z" glyph-name="l" horiz-adv-x="380" unicode="l"/><glyph d="M162 0l121 860h30l-14 -180h2l2 4q4 4 12.5 16.5t19.5 26.5t28.5 31.5t38 35t48 33t57.5 27.5t68.5 19.5t79.5 7.5q133 0 213 -65.5t95 -176.5h8l26 57q119 180 342 185q168 0 244 -114t51 -294l-65 -473h-41l65 471q23 166 -42.5 268.5t-219 102.5t-254 -113 t-121.5 -231l-69 -498h-41l74 522q18 141 -50.5 230.5t-222 89.5t-252 -99.5t-116.5 -205.5l-76 -537h-41z" glyph-name="m" horiz-adv-x="1716" unicode="m"/><glyph d="M162 0l121 860h30l-14 -180h2q35 70 119 129q102 72 235 72q168 0 245 -114t52 -294l-65 -473h-41l65 471q23 166 -43.5 268.5t-220 102.5t-252 -99.5t-116.5 -205.5l-76 -537h-41z" glyph-name="n" horiz-adv-x="1034" unicode="n"/><glyph d="M997 492q0 -227 -143 -369.5t-342 -142.5q-160 0 -260 103t-100 277q0 225 144 373t343 148q158 0 258 -107.5t100 -281.5zM518 18q170 0 302 129t132 336q0 162 -92 260.5t-227 98.5q-170 0 -304 -134.5t-134 -340.5q0 -160 93 -254.5t230 -94.5z" glyph-name="o" horiz-adv-x="1030" unicode="o"/><glyph d="M240 231h-4l-78 -550h-41l166 1179h30l-20 -215h2q4 10 13 25.5t43 56.5t76 71.5t114.5 56.5t154.5 26q152 0 250 -107.5t98 -279.5q0 -221 -142 -367.5t-333 -146.5q-82 0 -146.5 25.5t-97 63t-54 74.5t-25.5 62zM256 369q0 -168 91 -259.5t228 -91.5q172 0 299 135.5 t127 335.5q0 156 -87 254.5t-222 98.5q-174 0 -305 -130t-131 -343z" glyph-name="p" horiz-adv-x="1077" unicode="p"/><glyph d="M1036 860l-166 -1179h-41l76 534h-2q-4 -10 -13 -25.5t-43 -56.5t-76 -71.5t-113.5 -56t-153.5 -25.5q-154 0 -252 107.5t-98 279.5q0 221 142 367.5t335 146.5q80 0 143.5 -26t97 -61.5t56 -72.5t28.5 -62l7 -26h2l41 227h30zM942 492q0 164 -87 257t-228 93 q-172 0 -301 -135.5t-129 -335.5q0 -156 90 -254.5t225 -98.5q172 0 301 130.5t129 343.5z" glyph-name="q" horiz-adv-x="1077" unicode="q"/><glyph d="M623 860l-7 -39h-28q-125 0 -207 -86t-105 -213l-73 -522h-41l121 860h30l-14 -180h2l4 8q4 8 15.5 24.5t28 35t41 39t53 37t68.5 26.5t83 10h29z" glyph-name="r" horiz-adv-x="524" unicode="r"/><glyph d="M104 59l23 35q100 -74 268 -74q152 0 232 62.5t80 159.5q0 80 -58.5 114.5t-181.5 61.5q-53 12 -85 20t-74 24.5t-65.5 37t-40 53.5t-16.5 74q0 117 88 185.5t250 68.5q80 0 147.5 -16.5t94.5 -33.5l29 -18l-23 -37q-84 66 -254 66q-139 0 -214 -54.5t-75 -154.5 q0 -35 16.5 -61.5t35 -42t61.5 -30t68.5 -20.5t81.5 -18q125 -27 191.5 -71t66.5 -142q0 -115 -94.5 -190.5t-256.5 -75.5q-90 0 -163.5 19t-102.5 40z" glyph-name="s" horiz-adv-x="802" unicode="s"/><glyph d="M154 860h172l36 262h41l-36 -262h270l-6 -39h-271l-88 -622q-25 -180 136 -181q35 0 67.5 9.5t48.5 17.5l15 8l10 -35q-53 -39 -152 -38q-94 0 -137 57t-29 153l88 631h-172z" glyph-name="t" horiz-adv-x="567" unicode="t"/><glyph d="M866 332l74 528h41l-121 -860h-31l15 182h-2l-2 -6q-4 -8 -12.5 -19.5t-20.5 -26.5t-28.5 -31.5t-38 -34t-48 -33t-57.5 -26.5t-69 -18t-79 -7q-166 0 -238.5 112.5t-45.5 294.5l65 473h41l-65 -471q-23 -168 37.5 -269.5t214.5 -101.5q160 0 257 104t113 210z" glyph-name="u" horiz-adv-x="1021" unicode="u"/><glyph d="M449 0l-275 860h43l242 -768q8 -29 8 -45h4q2 14 21 45l460 768h43l-520 -860h-26z" glyph-name="v" horiz-adv-x="923" unicode="v"/><glyph d="M360 0l-178 860h43l156 -768q6 -33 6 -45h4l19 45l342 768h49l123 -768q6 -43 6 -45h4q2 8 20 45l371 768h43l-418 -860h-49l-127 784q-2 12 -2 29h-4l-12 -29l-348 -784h-48z" glyph-name="w" horiz-adv-x="1308" unicode="w"/><glyph d="M43 0l406 457l-248 403h45l231 -379h6l332 379h49l-360 -401l278 -459h-43l-262 432h-6l-381 -432h-47z" glyph-name="x" horiz-adv-x="825" unicode="x"/><glyph d="M981 860l-498 -727l-309 -452h-49l326 466l-293 713h45l258 -635q14 -33 14 -45h4q10 25 25 45l434 635h43z" glyph-name="y" horiz-adv-x="882" unicode="y"/><glyph d="M88 37l735 784h-626l6 39h676l-7 -37l-731 -784h623l-6 -39h-676z" glyph-name="z" horiz-adv-x="839" unicode="z"/><glyph d="M152 621h16q51 0 94 48t55 130l70 504q23 145 145 161v-39q-47 -6 -70.5 -36.5t-33.5 -100.5l-68 -483q-23 -174 -124 -207l-3 -10q92 -33 68 -205l-70 -498q-10 -72 5.5 -101.5t60.5 -35.5l-12 -39q-121 16 -99 162l74 518q12 80 -18.5 129t-81.5 49h-17z" glyph-name="braceleft" horiz-adv-x="419" unicode="{"/><glyph d="M387 1407l-235 -1669h-41l235 1669h41z" glyph-name="bar" horiz-adv-x="335" unicode="|"/><glyph d="M428 621h16l-8 -54h-16q-51 0 -94 -48t-56 -130l-73 -518q-10 -74 -44 -114t-100 -48v39q47 6 70.5 37t32.5 100l71 498q25 172 125 205v10q-88 33 -65 207l67 483q10 72 -5 101.5t-60 35.5l12 39q121 -16 98 -161l-71 -504q-12 -80 18.5 -129t81.5 -49z" glyph-name="braceright" horiz-adv-x="419" unicode="}"/><glyph d="M674 594q45 0 82 10t51 19l14 10l17 -27q-51 -53 -170 -53q-47 0 -136.5 28.5t-142.5 28.5q-45 0 -83 -10t-52 -18l-14 -11l-15 27q51 53 170 53q47 0 136.5 -28.5t142.5 -28.5z" glyph-name="asciitilde" horiz-adv-x="890" unicode="~"/><glyph glyph-name="uni00A0" horiz-adv-x="499" unicode=" "/><glyph d="M262 598l-125 -958h-43l144 958h24zM229 825q0 23 18.5 41.5t41.5 18.5q20 0 33.5 -14.5t13.5 -32.5q0 -23 -19.5 -41.5t-42.5 -18.5q-18 0 -31.5 14.5t-13.5 32.5z" glyph-name="exclamdown" horiz-adv-x="331" unicode="¡"/><glyph d="M377 0l47 174q-111 31 -177.5 127t-66.5 236q0 227 143.5 373.5t342.5 148.5l45 170h41l-45 -172q61 -4 114 -23.5t76 -36.5l21 -16l-21 -35q-74 61 -203 72l-221 -815q35 -6 72 -6q66 0 130 18t95 37l33 18l10 -34q-106 -78 -270 -78q-43 0 -82 6l-43 -164h-41zM225 545 q0 -125 58.5 -213t152.5 -119l217 807q-166 -4 -297 -137t-131 -338z" glyph-name="cent" horiz-adv-x="890" unicode="¢"/><glyph d="M885 41l-6 -41h-740l6 41q6 4 18.5 12t42.5 39t52.5 66t40.5 92t18 119q0 14 -16 211h-137l6 41h129q-4 53 -4 106q0 221 118.5 366.5t344.5 145.5q98 0 175 -36t103 -70l27 -35l-35 -31q-4 6 -10 14.5t-30.5 31t-54.5 39.5t-79 31.5t-104 14.5q-201 0 -306.5 -131 t-105.5 -340q0 -53 4 -106h528l-6 -41h-518q14 -168 14 -207q0 -201 -155 -332h680z" glyph-name="sterling" horiz-adv-x="1015" unicode="£"/><glyph d="M672 569l493 660h52l-551 -723h352l-6 -41h-371l-25 -180h371l-6 -41h-371l-32 -244h-43l32 244h-370l6 41h370l25 180h-371l6 41h353l-346 723h51l311 -660l25 -59h4z" glyph-name="yen" horiz-adv-x="1114" unicode="¥"/><glyph d="M285 676h-43l98 702h43zM145 -313h-43l99 702h43z" glyph-name="brokenbar" horiz-adv-x="337" unicode="¦"/><glyph d="M111 78l32 37q12 -10 39 -27.5t124 -45.5t214 -28q201 0 298 64.5t97 165.5q0 76 -67.5 123t-253.5 106q-139 45 -192.5 84t-53.5 88q0 90 101 133q-193 78 -193 211q0 117 116.5 191.5t334.5 74.5q117 0 210 -21.5t127 -41.5l35 -23l-32 -36q-12 8 -36 22t-113 36.5 t-198 22.5q-197 0 -297 -60t-100 -161q0 -72 67.5 -122t215.5 -93q276 -80 276 -192q0 -82 -86 -133q98 -45 141.5 -93.5t43.5 -113.5q0 -115 -110 -194t-337 -79q-125 0 -226.5 27t-140.5 53zM563 739q-35 8 -69 23q-98 -31 -99 -111q0 -39 48.5 -69.5t172.5 -69.5 q98 -35 121 -45q80 47 80 115q0 85 -254 157z" glyph-name="section" horiz-adv-x="1030" unicode="§"/><glyph d="M342 1419q0 25 20.5 44.5t45.5 19.5q20 0 34.5 -14.5t14.5 -36.5q0 -25 -20.5 -44.5t-45.5 -19.5q-20 0 -34.5 14t-14.5 37zM606 1419q0 25 20.5 44.5t45.5 19.5q20 0 34.5 -14.5t14.5 -36.5q0 -25 -20.5 -44.5t-45.5 -19.5q-20 0 -34.5 14t-14.5 37z" glyph-name="dieresis" horiz-adv-x="786" unicode="¨"/><glyph d="M893 1229q248 0 390 -152.5t142 -384.5q0 -287 -200.5 -491.5t-505.5 -204.5q-246 0 -389.5 152.5t-143.5 383.5q0 285 202 491t505 206zM887 1188q-283 0 -469.5 -191.5t-186.5 -459.5q0 -215 132.5 -357.5t361.5 -142.5q283 0 470 191.5t187 459.5q0 215 -133 357.5 t-362 142.5zM1071 872l-29 -30q-6 8 -18 19t-60.5 29.5t-105.5 18.5q-147 0 -239.5 -98t-92.5 -238q0 -111 65.5 -182.5t182.5 -71.5q55 0 106.5 16.5t75.5 33.5l25 16l18 -31q-82 -76 -231 -75q-152 0 -226.5 96t-54.5 239q18 141 123 238.5t254 97.5q68 0 119 -19.5 t70 -37.5z" glyph-name="copyright" horiz-adv-x="1437" unicode="©"/><glyph d="M207 733q0 109 87 176.5t224 67.5q190 0 248 -111l6 47q8 49 8 103q0 201 -217 201q-59 0 -115.5 -14.5t-82.5 -26.5l-27 -15l-12 43q106 53 243 53q258 0 258 -235q0 -39 -6 -80l-53 -381h-29l9 117h-5q-31 -51 -104.5 -92t-183.5 -41q-113 0 -180.5 51t-67.5 137z M250 739q0 -72 57.5 -113.5t153.5 -41.5q115 0 203 63.5t88 136.5q0 68 -59.5 111t-174.5 43q-119 0 -193.5 -55.5t-74.5 -143.5z" glyph-name="ordfeminine" horiz-adv-x="831" unicode="ª"/><glyph d="M162 410l4 34l252 320h43l-2 -14l-250 -318l-2 -6l162 -322l-2 -14h-43zM442 410l4 34l252 320h43l-2 -14l-250 -318l-2 -6l162 -322l-2 -14h-43z" glyph-name="guillemotleft" horiz-adv-x="757" unicode="«"/><glyph d="M213 668l6 41h883l-101 -709h-40l94 668h-842z" glyph-name="logicalnot" horiz-adv-x="1150" unicode="¬"/><glyph d="M1165 840q0 -217 -154.5 -375t-385.5 -158q-186 0 -296 118t-110 294q0 217 153.5 374.5t385.5 157.5q188 0 297.5 -117.5t109.5 -293.5zM1120 836q0 162 -99 268t-269 106q-209 0 -348.5 -144t-139.5 -343q0 -162 98.5 -268.5t268.5 -106.5q209 0 349 143.5t140 344.5z M553 993h176q68 0 104.5 -31.5t36.5 -84.5q0 -102 -104 -146v-4l84 -133l-2 -14h-39l-90 139q-6 0 -16.5 -1t-16.5 -1h-129l-18 -137h-43zM723 952h-133l-27 -194h129q61 0 98 32.5t37 81.5q0 80 -104 80z" glyph-name="registered" horiz-adv-x="1165" unicode="®"/><glyph d="M453 1368l6 39h489l-6 -39h-489z" glyph-name="macron" horiz-adv-x="997" unicode="¯"/><glyph d="M518 1374q92 0 145.5 -53t53.5 -137q0 -102 -74 -172t-186 -70q-90 0 -144.5 53.5t-54.5 134.5q0 102 74.5 173t185.5 71zM512 1333q-90 0 -151.5 -58t-61.5 -140q0 -66 44 -109t120 -43q92 0 152.5 57.5t60.5 139.5q0 66 -44 109.5t-120 43.5z" glyph-name="degree" horiz-adv-x="651" unicode="°"/><glyph d="M662 393h-41l55 393h-393l6 41h393l55 398h41l-55 -398h383l-6 -41h-383zM1022 231l-6 -41h-817l6 41h817z" glyph-name="plusminus" horiz-adv-x="1159" unicode="±"/><glyph d="M219 700l4 29l377 285q119 90 119 194q0 137 -170 138q-53 0 -105.5 -17.5t-78.5 -36.5l-25 -18l-18 31q98 82 233 81q104 0 154.5 -47t50.5 -122q0 -131 -142 -236l-317 -240h432l-6 -41h-508z" glyph-name="uni00B2" horiz-adv-x="751" unicode="²"/><glyph d="M315 1327l4 41h445l-6 -49l-228 -229h2q94 0 146.5 -44.5t52.5 -123.5q0 -100 -74.5 -169t-203.5 -69q-66 0 -124.5 23.5t-82.5 46.5l-27 24l31 29q8 -8 24.5 -22.5t69.5 -37t113 -22.5q109 0 171 54.5t62 135.5q0 63 -43 98.5t-119 35.5h-57l4 36l242 242h-402z" glyph-name="uni00B3" horiz-adv-x="710" unicode="³"/><glyph d="M528 1300l-190 -282h-31l160 291z" glyph-name="acute" horiz-adv-x="481" unicode="´"/><glyph d="M125 -393h-41l111 780l65 473h41l-65 -471q-23 -168 37.5 -269.5t213.5 -101.5q160 0 257.5 103.5t113.5 210.5l74 528h41l-121 -860h-31l15 182h-2l-3 -6q-4 -8 -12 -19.5t-20.5 -26.5t-28.5 -31.5t-37.5 -34t-48.5 -33t-57.5 -26.5t-68.5 -18t-79 -7q-223 0 -276 198z " glyph-name="uni00B5" horiz-adv-x="991" unicode="µ"/><glyph d="M743 -168l84 594h-243q-193 0 -298.5 92t-105.5 256q0 211 138.5 334t377.5 123h287l-197 -1399h-43z" glyph-name="paragraph" horiz-adv-x="964" unicode="¶"/><glyph d="M240 733q0 25 20.5 43.5t44.5 18.5q47 0 47 -50q0 -25 -19.5 -43t-43.5 -18q-23 0 -36 14.5t-13 34.5z" glyph-name="periodcentered" horiz-adv-x="385" unicode="·"/><glyph d="M145 -121l-12 23l62 104h43l-48 -84q135 0 136 -108q0 -68 -50.5 -110t-130.5 -42q-37 0 -68.5 11.5t-43.5 23.5l-13 12l25 31q37 -39 107 -39q59 0 95 28.5t36 75.5q0 37 -28 57.5t-73 20.5z" glyph-name="cedilla" horiz-adv-x="421" unicode="¸"/><glyph d="M231 1327l7 41h217l-95 -668h-43l89 627h-175z" glyph-name="uni00B9" horiz-adv-x="411" unicode="¹"/><glyph d="M614 1255q131 0 210 -80.5t79 -218.5q0 -178 -110.5 -289.5t-276.5 -111.5q-131 0 -211 81t-80 216q0 180 111.5 291.5t277.5 111.5zM610 1214q-145 0 -242.5 -99t-97.5 -257q0 -119 69 -190.5t183 -71.5q143 0 240.5 99.5t97.5 254.5q0 123 -67.5 193.5t-182.5 70.5z " glyph-name="ordmasculine" horiz-adv-x="874" unicode="º"/><glyph d="M434 444l-4 -34l-252 -320h-43l2 14l252 322v6l-162 318l2 14h43zM715 444l-4 -34l-252 -320h-43l2 14l252 322v6l-162 318l2 14h43z" glyph-name="guillemotright" horiz-adv-x="757" unicode="»"/><glyph d="M635 207l6 37l442 424h31l-59 -420h129l-6 -41h-129l-29 -207h-41l29 207h-373zM147 0h-53l1147 1229h53zM696 248v-6l164 6h154l37 256l12 88h-4l-260 -248zM240 1188l4 41h217l-92 -668h-43l88 627h-174z" glyph-name="onequarter" horiz-adv-x="1236" unicode="¼"/><glyph d="M803 29l377 284q119 90 118 195q0 137 -170 137q-119 0 -208 -72l-19 31l29 21q29 20 87 40.5t118 20.5q104 0 155 -47t51 -125q0 -123 -143 -233l-319 -240h436l-6 -41h-510zM141 0h-53l1147 1229h53zM244 1188l4 41h217l-92 -668h-43l88 627h-174z" glyph-name="onehalf" horiz-adv-x="1382" unicode="½"/><glyph d="M889 207l6 37l442 424h31l-59 -420h129l-6 -41h-129l-29 -207h-41l29 207h-373zM281 1188l4 41h444l-6 -49l-227 -230h2q94 0 146 -44t52 -124q0 -100 -74.5 -168.5t-203.5 -68.5q-66 0 -124 23.5t-85 45.5l-25 25l31 29q8 -8 24.5 -22.5t69.5 -37t113 -22.5 q109 0 171 54t62 136q0 63 -43 98t-118 35h-58l4 37l242 242h-401zM338 0h-53l1147 1229h53zM950 248v-6l164 6h154l37 256l12 88h-4l-260 -248z" glyph-name="threequarters" horiz-adv-x="1476" unicode="¾"/><glyph d="M702 -264l17 -33q-12 -10 -38 -25.5t-110 -41t-176 -25.5q-160 0 -250 70.5t-90 197.5q0 96 39 168t97.5 116t118 82t105.5 87t56 108l25 158h24l-22 -166q-8 -63 -53.5 -114.5t-101.5 -89.5t-111.5 -80t-93.5 -109.5t-38 -155.5q0 -106 78 -169.5t221 -63.5 q84 0 160 21.5t109 41.5zM596 838q0 -23 -19.5 -41.5t-41.5 -18.5q-20 0 -34 14.5t-14 32.5q0 23 19.5 41.5t42.5 18.5q20 0 33.5 -14.5t13.5 -32.5z" glyph-name="questiondown" horiz-adv-x="817" unicode="¿"/><glyph d="M784 1229l330 -1229h-45l-98 365h-666l-199 -365h-45l674 1229h49zM754 1186l-426 -780h633zM754 1300l-113 283l66 8l77 -291h-30z" glyph-name="Agrave" unicode="À"/><glyph d="M784 1229l330 -1229h-45l-98 365h-666l-199 -365h-45l674 1229h49zM754 1186l-426 -780h633zM975 1583l-191 -283h-30l159 291z" glyph-name="Aacute" unicode="Á"/><glyph d="M784 1229l330 -1229h-45l-98 365h-666l-199 -365h-45l674 1229h49zM754 1186l-426 -780h633zM911 1368l-104 186l-156 -186h-45l174 223h60l116 -223h-45z" glyph-name="Acircumflex" unicode="Â"/><glyph d="M784 1229l330 -1229h-45l-98 365h-666l-199 -365h-45l674 1229h49zM754 1186l-426 -780h633zM907 1368q-51 0 -126.5 56.5t-112.5 56.5q-31 0 -52.5 -14.5t-31 -30t-21.5 -41.5l-10 -23l-29 4l11 31q37 113 137 113q51 0 125.5 -56.5t115.5 -56.5q43 0 64.5 22.5 t40.5 63.5l10 23l29 -5l-10 -30q-38 -113 -140 -113z" glyph-name="Atilde" unicode="Ã"/><glyph d="M784 1229l330 -1229h-45l-98 365h-666l-199 -365h-45l674 1229h49zM754 1186l-426 -780h633zM600 1419q0 25 20.5 44.5t45.5 19.5q20 0 34.5 -14.5t14.5 -36.5q0 -25 -20.5 -44.5t-45.5 -19.5q-20 0 -34.5 14t-14.5 37zM864 1419q0 25 20.5 44.5t45.5 19.5 q20 0 34.5 -14.5t14.5 -36.5q0 -25 -20.5 -44.5t-45.5 -19.5q-20 0 -34.5 14t-14.5 37z" glyph-name="Adieresis" unicode="Ä"/><glyph d="M784 1229l330 -1229h-45l-98 365h-666l-199 -365h-45l674 1229h49zM754 1186l-426 -780h633zM807 1554q66 0 107.5 -34.5t41.5 -92.5q0 -74 -57 -120.5t-135 -46.5q-66 0 -107 33.5t-41 88.5q0 78 58.5 125t132.5 47zM911 1423q0 92 -110 93q-63 0 -102.5 -35t-39.5 -95 q0 -88 111 -88q61 0 101 35t40 90z" glyph-name="Aring" unicode="Å"/><glyph d="M6 0l1036 1229h813l-4 -41h-770l-2 -2l-75 -545h675l-6 -41h-676l-77 -559h770l-7 -41h-813l52 365h-562l-307 -365h-47zM1020 1143l-625 -737h533l102 737h-10z" glyph-name="AE" horiz-adv-x="1775" unicode="Æ"/><glyph d="M600 -127l-12 23l47 79q-207 23 -331 175.5t-124 375.5q0 303 207 516t494 213q74 0 140 -16t107 -40.5t72 -49.5t45 -41l12 -16l-30 -33q-4 6 -12.5 16t-40 38t-68.5 48.5t-99.5 36.5t-132.5 16q-268 0 -458.5 -204.5t-190.5 -474.5q0 -219 132 -371t350 -152 q111 0 210 41t144 82l43 39l18 -33q-18 -18 -51 -46.5t-142.5 -76t-228.5 -47.5h-24l-31 -55q135 0 135 -109q0 -68 -50 -109.5t-130 -41.5q-37 0 -68.5 12.5t-44.5 24.5l-12 10l25 31q37 -39 106 -39q59 0 95 28.5t36 75.5q0 37 -27.5 57.5t-72.5 20.5z" glyph-name="Ccedilla" horiz-adv-x="1181" unicode="Ç"/><glyph d="M1004 641l-7 -41h-675l-78 -559h770l-6 -41h-813l172 1229h813l-4 -41h-770l-78 -547h676zM778 1298l-112 283l65 8l78 -291h-31z" glyph-name="Egrave" horiz-adv-x="1099" unicode="È"/><glyph d="M1004 641l-7 -41h-675l-78 -559h770l-6 -41h-813l172 1229h813l-4 -41h-770l-78 -547h676zM983 1583l-190 -283h-31l160 291z" glyph-name="Eacute" horiz-adv-x="1099" unicode="É"/><glyph d="M1004 641l-7 -41h-675l-78 -559h770l-6 -41h-813l172 1229h813l-4 -41h-770l-78 -547h676zM922 1368l-105 186l-155 -186h-46l175 223h59l117 -223h-45z" glyph-name="Ecircumflex" horiz-adv-x="1099" unicode="Ê"/><glyph d="M1004 641l-7 -41h-675l-78 -559h770l-6 -41h-813l172 1229h813l-4 -41h-770l-78 -547h676zM614 1419q0 25 20.5 44.5t45.5 19.5q20 0 34.5 -14.5t14.5 -36.5q0 -25 -20.5 -44.5t-44.5 -19.5q-20 0 -35 14t-15 37zM879 1419q0 25 20.5 44.5t44.5 19.5q20 0 34.5 -14.5 t14.5 -36.5q0 -25 -20.5 -44.5t-44.5 -19.5q-20 0 -34.5 14t-14.5 37z" glyph-name="Edieresis" horiz-adv-x="1099" unicode="Ë"/><glyph d="M410 1229l-172 -1229h-43l172 1229h43zM383 1300l-113 283l66 8l78 -291h-31z" glyph-name="Igrave" horiz-adv-x="432" unicode="Ì"/><glyph d="M410 1229l-172 -1229h-43l172 1229h43zM604 1583l-190 -283h-31l160 291z" glyph-name="Iacute" horiz-adv-x="432" unicode="Í"/><glyph d="M410 1229l-172 -1229h-43l172 1229h43zM541 1368l-105 186l-155 -186h-45l174 223h59l117 -223h-45z" glyph-name="Icircumflex" horiz-adv-x="432" unicode="Î"/><glyph d="M410 1229l-172 -1229h-43l172 1229h43zM229 1419q0 25 20.5 44.5t45.5 19.5q20 0 34.5 -14.5t14.5 -36.5q0 -25 -20.5 -44.5t-44.5 -19.5q-20 0 -35 14t-15 37zM494 1419q0 25 20.5 44.5t44.5 19.5q20 0 34.5 -14.5t14.5 -36.5q0 -25 -20.5 -44.5t-44.5 -19.5 q-20 0 -34.5 14t-14.5 37z" glyph-name="Idieresis" horiz-adv-x="432" unicode="Ï"/><glyph d="M150 600l6 41h129l82 588h340q250 0 407.5 -141.5t157.5 -387.5q0 -319 -214 -509.5t-523 -190.5h-340l84 600h-129zM705 1188h-299l-78 -547h422l-7 -41h-421l-78 -559h299q283 0 483.5 179t200.5 470q0 227 -147.5 362.5t-374.5 135.5z" glyph-name="Eth" horiz-adv-x="1282" unicode="Ð"/><glyph d="M1337 1229l-172 -1229h-57l-705 1178l-165 -1178h-43l172 1229h59l704 -1176l164 1176h43zM1010 1368q-51 0 -127 56.5t-113 56.5q-31 0 -52.5 -14.5t-30.5 -30t-21 -41.5l-11 -23l-28 4l10 31q37 113 137 113q51 0 126 -56.5t116 -56.5q43 0 64.5 22.5t39.5 63.5l10 23 l29 -5l-10 -30q-37 -113 -139 -113z" glyph-name="Ntilde" horiz-adv-x="1359" unicode="Ñ"/><glyph d="M692 -29q-236 0 -373 155t-137 394q0 309 198 522t492 213q236 0 373 -153.5t137 -396.5q0 -307 -197.5 -520.5t-492.5 -213.5zM698 12q285 0 463 204t178 482q0 221 -123.5 368.5t-349.5 147.5q-283 0 -462 -204.5t-179 -483.5q0 -219 125 -366.5t348 -147.5zM874 1368 l-112 283l65 8l78 -291h-31z" glyph-name="Ograve" horiz-adv-x="1392" unicode="Ò"/><glyph d="M692 -29q-236 0 -373 155t-137 394q0 309 198 522t492 213q236 0 373 -153.5t137 -396.5q0 -307 -197.5 -520.5t-492.5 -213.5zM698 12q285 0 463 204t178 482q0 221 -123.5 368.5t-349.5 147.5q-283 0 -462 -204.5t-179 -483.5q0 -219 125 -366.5t348 -147.5zM1092 1651 l-191 -283h-31l160 291z" glyph-name="Oacute" horiz-adv-x="1392" unicode="Ó"/><glyph d="M692 -29q-236 0 -373 155t-137 394q0 309 198 522t492 213q236 0 373 -153.5t137 -396.5q0 -307 -197.5 -520.5t-492.5 -213.5zM698 12q285 0 463 204t178 482q0 221 -123.5 368.5t-349.5 147.5q-283 0 -462 -204.5t-179 -483.5q0 -219 125 -366.5t348 -147.5zM1020 1368 l-105 186l-155 -186h-45l174 223h59l117 -223h-45z" glyph-name="Ocircumflex" horiz-adv-x="1392" unicode="Ô"/><glyph d="M692 -29q-236 0 -373 155t-137 394q0 309 198 522t492 213q236 0 373 -153.5t137 -396.5q0 -307 -197.5 -520.5t-492.5 -213.5zM698 12q285 0 463 204t178 482q0 221 -123.5 368.5t-349.5 147.5q-283 0 -462 -204.5t-179 -483.5q0 -219 125 -366.5t348 -147.5zM1022 1421 q-51 0 -127 56.5t-113 56.5q-31 0 -52 -14.5t-30.5 -29.5t-21.5 -42l-10 -23l-29 5l10 30q37 113 137 113q51 0 126 -56.5t116 -56.5q43 0 64.5 22.5t40.5 63.5l10 23l28 -4l-10 -31q-37 -113 -139 -113z" glyph-name="Otilde" horiz-adv-x="1392" unicode="Õ"/><glyph d="M692 -29q-236 0 -373 155t-137 394q0 309 198 522t492 213q236 0 373 -153.5t137 -396.5q0 -307 -197.5 -520.5t-492.5 -213.5zM698 12q285 0 463 204t178 482q0 221 -123.5 368.5t-349.5 147.5q-283 0 -462 -204.5t-179 -483.5q0 -219 125 -366.5t348 -147.5zM707 1419 q0 25 20.5 44.5t44.5 19.5q20 0 34.5 -14.5t14.5 -36.5q0 -25 -20.5 -44.5t-44.5 -19.5q-20 0 -34.5 14t-14.5 37zM971 1419q0 25 20.5 44.5t44.5 19.5q20 0 34.5 -14.5t14.5 -36.5q0 -25 -20.5 -44.5t-44.5 -19.5q-20 0 -34.5 14t-14.5 37z" glyph-name="Odieresis" horiz-adv-x="1392" unicode="Ö"/><glyph d="M211 244l-25 28l383 349l-284 350l32 28l283 -350l383 350l23 -28l-383 -350l284 -349l-30 -28l-285 348z" glyph-name="multiply" horiz-adv-x="1015" unicode="×"/><glyph d="M692 -29q-250 0 -391 174l-158 -145h-67l198 182q-92 143 -92 338q0 309 198 522t492 213q244 0 385 -170l156 144h70l-197 -180q96 -143 96 -344q0 -307 -197.5 -520.5t-492.5 -213.5zM698 12q285 0 463 204t178 482q0 184 -88 320l-915 -842q126 -164 362 -164z M225 526q0 -180 84 -313l916 842q-129 160 -359 159q-283 0 -462 -204.5t-179 -483.5z" glyph-name="Oslash" horiz-adv-x="1392" unicode="Ø"/><glyph d="M635 -27q-221 0 -322.5 142.5t-66.5 388.5l102 725h43l-102 -725q-31 -227 58 -358.5t294 -131.5t331 131t156 359l103 725h43l-103 -725q-35 -246 -175 -388.5t-361 -142.5zM807 1300l-113 283l66 8l78 -291h-31z" glyph-name="Ugrave" horiz-adv-x="1277" unicode="Ù"/><glyph d="M635 -27q-221 0 -322.5 142.5t-66.5 388.5l102 725h43l-102 -725q-31 -227 58 -358.5t294 -131.5t331 131t156 359l103 725h43l-103 -725q-35 -246 -175 -388.5t-361 -142.5zM1024 1583l-190 -283h-31l160 291z" glyph-name="Uacute" horiz-adv-x="1277" unicode="Ú"/><glyph d="M635 -27q-221 0 -322.5 142.5t-66.5 388.5l102 725h43l-102 -725q-31 -227 58 -358.5t294 -131.5t331 131t156 359l103 725h43l-103 -725q-35 -246 -175 -388.5t-361 -142.5zM952 1300l-104 187l-156 -187h-45l174 224h60l116 -224h-45z" glyph-name="Ucircumflex" horiz-adv-x="1277" unicode="Û"/><glyph d="M635 -27q-221 0 -322.5 142.5t-66.5 388.5l102 725h43l-102 -725q-31 -227 58 -358.5t294 -131.5t331 131t156 359l103 725h43l-103 -725q-35 -246 -175 -388.5t-361 -142.5zM651 1419q0 25 20.5 44.5t45.5 19.5q20 0 34.5 -14.5t14.5 -36.5q0 -25 -20.5 -44.5 t-45.5 -19.5q-20 0 -34.5 14t-14.5 37zM915 1419q0 25 20.5 44.5t45.5 19.5q20 0 34.5 -14.5t14.5 -36.5q0 -25 -20.5 -44.5t-44.5 -19.5q-20 0 -35 14t-15 37z" glyph-name="Udieresis" horiz-adv-x="1277" unicode="Ü"/><glyph d="M672 569l493 660h52l-574 -754l-65 -475h-43l65 475l-360 754h51l311 -660l25 -59h4zM944 1583l-190 -283h-31l160 291z" glyph-name="Yacute" horiz-adv-x="1112" unicode="Ý"/><glyph d="M410 1229l-29 -211h389q190 0 297 -97.5t107 -250.5q0 -195 -142.5 -326t-374.5 -131h-389l-30 -213h-43l172 1229h43zM1128 664q0 139 -98 226t-264 87h-391l-103 -723h392q203 0 333.5 117t130.5 293z" glyph-name="Thorn" horiz-adv-x="1150" unicode="Þ"/><glyph d="M553 575l6 39q158 2 255 91.5t97 226.5q0 106 -70.5 182t-181.5 76q-123 0 -218 -86t-113 -219l-125 -885h-41l125 893q20 145 126.5 240.5t250.5 95.5q129 0 208.5 -83t79.5 -206q0 -125 -70.5 -216t-191.5 -128q82 -25 130 -90.5t48 -161.5q0 -156 -107.5 -257 t-268.5 -101q-47 0 -86 7t-54 13l-16 6l16 37q61 -25 150 -24q135 0 230 92t95 217q0 106 -70.5 173.5t-185.5 67.5h-18z" glyph-name="germandbls" horiz-adv-x="931" unicode="ß"/><glyph d="M877 504l-72 -504h-31l19 182h-5q-53 -82 -159.5 -142t-229.5 -60q-143 0 -215.5 64.5t-72.5 162.5q0 125 101 210t312 85q182 0 301 -68l11 72q6 39 6 76q0 260 -285 260q-63 0 -133 -18.5t-109 -37.5l-39 -18l-14 37q141 76 307 76q158 0 236 -80t78 -217q0 -39 -6 -80 zM410 18q139 0 261 95.5t132 171.5l16 108q-111 74 -297 74q-188 0 -279 -74t-91 -180q0 -84 64.5 -139.5t193.5 -55.5zM588 1018l-113 282l66 9l77 -291h-30z" glyph-name="agrave" horiz-adv-x="954" unicode="à"/><glyph d="M877 504l-72 -504h-31l19 182h-5q-53 -82 -159.5 -142t-229.5 -60q-143 0 -215.5 64.5t-72.5 162.5q0 125 101 210t312 85q182 0 301 -68l11 72q6 39 6 76q0 260 -285 260q-63 0 -133 -18.5t-109 -37.5l-39 -18l-14 37q141 76 307 76q158 0 236 -80t78 -217q0 -39 -6 -80 zM410 18q139 0 261 95.5t132 171.5l16 108q-111 74 -297 74q-188 0 -279 -74t-91 -180q0 -84 64.5 -139.5t193.5 -55.5zM823 1300l-190 -282h-31l160 291z" glyph-name="aacute" horiz-adv-x="954" unicode="á"/><glyph d="M877 504l-72 -504h-31l19 182h-5q-53 -82 -159.5 -142t-229.5 -60q-143 0 -215.5 64.5t-72.5 162.5q0 125 101 210t312 85q182 0 301 -68l11 72q6 39 6 76q0 260 -285 260q-63 0 -133 -18.5t-109 -37.5l-39 -18l-14 37q141 76 307 76q158 0 236 -80t78 -217q0 -39 -6 -80 zM410 18q139 0 261 95.5t132 171.5l16 108q-111 74 -297 74q-188 0 -279 -74t-91 -180q0 -84 64.5 -139.5t193.5 -55.5zM717 1018l-105 186l-155 -186h-45l174 223h59l117 -223h-45z" glyph-name="acircumflex" horiz-adv-x="954" unicode="â"/><glyph d="M877 504l-72 -504h-31l19 182h-5q-53 -82 -159.5 -142t-229.5 -60q-143 0 -215.5 64.5t-72.5 162.5q0 125 101 210t312 85q182 0 301 -68l11 72q6 39 6 76q0 260 -285 260q-63 0 -133 -18.5t-109 -37.5l-39 -18l-14 37q141 76 307 76q158 0 236 -80t78 -217q0 -39 -6 -80 zM410 18q139 0 261 95.5t132 171.5l16 108q-111 74 -297 74q-188 0 -279 -74t-91 -180q0 -84 64.5 -139.5t193.5 -55.5zM715 1018q-51 0 -127 56t-113 56q-31 0 -52.5 -14t-30.5 -29.5t-21 -42.5l-11 -22l-28 4l10 31q37 113 137 112q51 0 126 -56t116 -56q43 0 64.5 22.5 t39.5 63.5l11 22l28 -4l-10 -31q-37 -112 -139 -112z" glyph-name="atilde" horiz-adv-x="954" unicode="ã"/><glyph d="M877 504l-72 -504h-31l19 182h-5q-53 -82 -159.5 -142t-229.5 -60q-143 0 -215.5 64.5t-72.5 162.5q0 125 101 210t312 85q182 0 301 -68l11 72q6 39 6 76q0 260 -285 260q-63 0 -133 -18.5t-109 -37.5l-39 -18l-14 37q141 76 307 76q158 0 236 -80t78 -217q0 -39 -6 -80 zM410 18q139 0 261 95.5t132 171.5l16 108q-111 74 -297 74q-188 0 -279 -74t-91 -180q0 -84 64.5 -139.5t193.5 -55.5zM408 1069q0 25 20.5 44.5t44.5 19.5q20 0 34.5 -14.5t14.5 -37.5q0 -25 -20.5 -44t-44.5 -19q-20 0 -34.5 14t-14.5 37zM672 1069q0 25 20.5 44.5 t44.5 19.5q20 0 34.5 -14.5t14.5 -37.5q0 -25 -20.5 -44t-44.5 -19q-20 0 -34.5 14t-14.5 37z" glyph-name="adieresis" horiz-adv-x="954" unicode="ä"/><glyph d="M877 504l-72 -504h-31l19 182h-5q-53 -82 -159.5 -142t-229.5 -60q-143 0 -215.5 64.5t-72.5 162.5q0 125 101 210t312 85q182 0 301 -68l11 72q6 39 6 76q0 260 -285 260q-63 0 -133 -18.5t-109 -37.5l-39 -18l-14 37q141 76 307 76q158 0 236 -80t78 -217q0 -39 -6 -80 zM410 18q139 0 261 95.5t132 171.5l16 108q-111 74 -297 74q-188 0 -279 -74t-91 -180q0 -84 64.5 -139.5t193.5 -55.5zM639 1313q66 0 107.5 -35t41.5 -92q0 -74 -57 -121t-135 -47q-66 0 -106.5 33.5t-40.5 89.5q0 78 58 125t132 47zM743 1182q0 92 -110 92 q-63 0 -102 -35t-39 -94q0 -88 110 -88q61 0 101 35t40 90z" glyph-name="aring" horiz-adv-x="954" unicode="å"/><glyph d="M1497 109l14 -37q-14 -10 -39.5 -25.5t-105.5 -41t-162 -25.5q-139 0 -236.5 71.5t-127.5 198.5q-45 -111 -168 -190.5t-266 -79.5q-145 0 -219 68.5t-74 168.5q0 131 107.5 216t301.5 85q190 0 316 -65l8 53q49 336 -279 336q-63 0 -134 -18.5t-109 -37.5l-37 -18 l-13 37q133 76 308 76q295 0 309 -267q61 127 166.5 197t230.5 70q186 0 271.5 -112t56.5 -302l-2 -12h-731l-4 -31q-25 -182 73.5 -293t255.5 -111q80 0 152 23t104 43zM424 20q143 0 261 91.5t132 183.5l17 115q-125 72 -313.5 71.5t-277.5 -75t-89 -187.5 q0 -84 65.5 -141.5t204.5 -57.5zM1282 842q-129 0 -238.5 -91.5t-150.5 -254.5h684q18 145 -56.5 245.5t-238.5 100.5z" glyph-name="ae" horiz-adv-x="1636" unicode="æ"/><glyph d="M440 -135l-12 22l53 95q-145 10 -237 110.5t-92 265.5q0 229 144 376t343 147q74 0 136.5 -19.5t88.5 -38.5l25 -20l-23 -35q-86 74 -235 74q-168 0 -302 -134.5t-134 -340.5q0 -160 93 -254.5t228 -94.5q66 0 130.5 18.5t94.5 37.5l31 18l12 -35q-102 -74 -260 -77 l-39 -72q135 0 136 -109q0 -68 -50.5 -109.5t-130.5 -41.5q-37 0 -68.5 12t-43.5 25l-13 10l25 31q37 -39 106 -39q59 0 95.5 28.5t36.5 75.5q0 37 -28 57.5t-73 20.5z" glyph-name="ccedilla" horiz-adv-x="870" unicode="ç"/><glyph d="M799 106l16 -34q-14 -10 -40.5 -25.5t-107.5 -41t-163 -25.5q-158 0 -254 101t-96 273q0 240 133 383.5t323 143.5q174 0 257 -113t53 -301l-2 -12h-711l-4 -31q-25 -184 64 -295t243 -111q80 0 151.5 21.5t104.5 44.5zM606 842q-131 0 -240.5 -92.5t-148.5 -253.5h664 q16 143 -54.5 244.5t-220.5 101.5zM596 1018l-113 282l66 9l78 -291h-31z" glyph-name="egrave" horiz-adv-x="942" unicode="è"/><glyph d="M799 106l16 -34q-14 -10 -40.5 -25.5t-107.5 -41t-163 -25.5q-158 0 -254 101t-96 273q0 240 133 383.5t323 143.5q174 0 257 -113t53 -301l-2 -12h-711l-4 -31q-25 -184 64 -295t243 -111q80 0 151.5 21.5t104.5 44.5zM606 842q-131 0 -240.5 -92.5t-148.5 -253.5h664 q16 143 -54.5 244.5t-220.5 101.5zM813 1300l-190 -282h-31l160 291z" glyph-name="eacute" horiz-adv-x="942" unicode="é"/><glyph d="M799 106l16 -34q-14 -10 -40.5 -25.5t-107.5 -41t-163 -25.5q-158 0 -254 101t-96 273q0 240 133 383.5t323 143.5q174 0 257 -113t53 -301l-2 -12h-711l-4 -31q-25 -184 64 -295t243 -111q80 0 151.5 21.5t104.5 44.5zM606 842q-131 0 -240.5 -92.5t-148.5 -253.5h664 q16 143 -54.5 244.5t-220.5 101.5zM748 1018l-105 186l-156 -186h-45l174 223h60l117 -223h-45z" glyph-name="ecircumflex" horiz-adv-x="942" unicode="ê"/><glyph d="M799 106l16 -34q-14 -10 -40.5 -25.5t-107.5 -41t-163 -25.5q-158 0 -254 101t-96 273q0 240 133 383.5t323 143.5q174 0 257 -113t53 -301l-2 -12h-711l-4 -31q-25 -184 64 -295t243 -111q80 0 151.5 21.5t104.5 44.5zM606 842q-131 0 -240.5 -92.5t-148.5 -253.5h664 q16 143 -54.5 244.5t-220.5 101.5zM430 1069q0 25 20.5 44.5t45.5 19.5q20 0 34.5 -14.5t14.5 -37.5q0 -25 -20.5 -44t-45.5 -19q-20 0 -34.5 14t-14.5 37zM694 1069q0 25 20.5 44.5t45.5 19.5q20 0 34.5 -14.5t14.5 -37.5q0 -25 -20.5 -44t-45.5 -19q-20 0 -34.5 14 t-14.5 37z" glyph-name="edieresis" horiz-adv-x="942" unicode="ë"/><glyph d="M166 0l121 860h41l-121 -860h-41zM315 1018l-112 282l65 9l78 -291h-31z" glyph-name="igrave" horiz-adv-x="372" unicode="ì"/><glyph d="M166 0l121 860h41l-121 -860h-41zM535 1300l-191 -282h-31l160 291z" glyph-name="iacute" horiz-adv-x="372" unicode="í"/><glyph d="M166 0l121 860h41l-121 -860h-41zM461 1018l-105 186l-155 -186h-45l174 223h59l117 -223h-45z" glyph-name="icircumflex" horiz-adv-x="372" unicode="î"/><glyph d="M166 0l121 860h41l-121 -860h-41zM150 1069q0 25 20 44.5t45 19.5q20 0 34.5 -14.5t14.5 -37.5q0 -25 -20.5 -44t-44.5 -19q-20 0 -34.5 14t-14.5 37zM414 1069q0 25 20.5 44.5t44.5 19.5q20 0 34.5 -14.5t14.5 -37.5q0 -25 -20.5 -44t-44.5 -19q-20 0 -34.5 14t-14.5 37 z" glyph-name="idieresis" horiz-adv-x="372" unicode="ï"/><glyph d="M502 -20q-154 0 -252 107.5t-98 279.5q0 223 138 368.5t339 145.5q139 0 235 -90l4 4q-20 27 -32 53l-156 319l-264 -149l-17 37l265 149l-134 279l2 8h41l129 -264l261 149l18 -37l-260 -149l164 -332q94 -190 94 -366q0 -217 -138 -364.5t-339 -147.5zM934 475 q0 168 -85 267.5t-228 99.5q-172 0 -299 -135.5t-127 -335.5q0 -156 87 -254.5t222 -98.5q176 0 303 130t127 327z" glyph-name="eth" horiz-adv-x="1013" unicode="ð"/><glyph d="M162 0l121 860h30l-14 -180h2q35 70 119 129q102 72 235 72q168 0 245 -114t52 -294l-65 -473h-41l65 471q23 166 -43.5 268.5t-220 102.5t-252 -99.5t-116.5 -205.5l-76 -537h-41zM795 1018q-51 0 -127 56t-113 56q-31 0 -52.5 -14t-30.5 -29.5t-21 -42.5l-11 -22l-28 4 l10 31q37 113 137 112q51 0 126 -56t116 -56q43 0 64.5 22.5t39.5 63.5l10 22l29 -4l-10 -31q-37 -112 -139 -112z" glyph-name="ntilde" horiz-adv-x="1034" unicode="ñ"/><glyph d="M997 492q0 -227 -143 -369.5t-342 -142.5q-160 0 -260 103t-100 277q0 225 144 373t343 148q158 0 258 -107.5t100 -281.5zM518 18q170 0 302 129t132 336q0 162 -92 260.5t-227 98.5q-170 0 -304 -134.5t-134 -340.5q0 -160 93 -254.5t230 -94.5zM645 1018l-113 282 l66 9l78 -291h-31z" glyph-name="ograve" horiz-adv-x="1030" unicode="ò"/><glyph d="M997 492q0 -227 -143 -369.5t-342 -142.5q-160 0 -260 103t-100 277q0 225 144 373t343 148q158 0 258 -107.5t100 -281.5zM518 18q170 0 302 129t132 336q0 162 -92 260.5t-227 98.5q-170 0 -304 -134.5t-134 -340.5q0 -160 93 -254.5t230 -94.5zM862 1300l-190 -282 h-31l160 291z" glyph-name="oacute" horiz-adv-x="1030" unicode="ó"/><glyph d="M997 492q0 -227 -143 -369.5t-342 -142.5q-160 0 -260 103t-100 277q0 225 144 373t343 148q158 0 258 -107.5t100 -281.5zM518 18q170 0 302 129t132 336q0 162 -92 260.5t-227 98.5q-170 0 -304 -134.5t-134 -340.5q0 -160 93 -254.5t230 -94.5zM791 1018l-105 186 l-156 -186h-45l174 223h60l117 -223h-45z" glyph-name="ocircumflex" horiz-adv-x="1030" unicode="ô"/><glyph d="M997 492q0 -227 -143 -369.5t-342 -142.5q-160 0 -260 103t-100 277q0 225 144 373t343 148q158 0 258 -107.5t100 -281.5zM518 18q170 0 302 129t132 336q0 162 -92 260.5t-227 98.5q-170 0 -304 -134.5t-134 -340.5q0 -160 93 -254.5t230 -94.5zM784 1018 q-51 0 -126.5 56t-112.5 56q-31 0 -52.5 -14t-30.5 -29.5t-22 -42.5l-10 -22l-29 4l11 31q37 113 137 112q51 0 126 -56t116 -56q43 0 64.5 22.5t39.5 63.5l10 22l29 -4l-10 -31q-38 -112 -140 -112z" glyph-name="otilde" horiz-adv-x="1030" unicode="õ"/><glyph d="M997 492q0 -227 -143 -369.5t-342 -142.5q-160 0 -260 103t-100 277q0 225 144 373t343 148q158 0 258 -107.5t100 -281.5zM518 18q170 0 302 129t132 336q0 162 -92 260.5t-227 98.5q-170 0 -304 -134.5t-134 -340.5q0 -160 93 -254.5t230 -94.5zM477 1069 q0 25 20.5 44.5t45.5 19.5q20 0 34.5 -14.5t14.5 -37.5q0 -25 -20.5 -44t-45.5 -19q-20 0 -34.5 14t-14.5 37zM741 1069q0 25 20.5 44.5t45.5 19.5q20 0 34.5 -14.5t14.5 -37.5q0 -25 -20.5 -44t-44.5 -19q-20 0 -35 14t-15 37z" glyph-name="odieresis" horiz-adv-x="1030" unicode="ö"/><glyph d="M494 346q0 25 20.5 44.5t44.5 19.5q23 0 37 -14.5t14 -37.5q0 -25 -20.5 -44t-46.5 -19q-20 0 -34.5 15.5t-14.5 35.5zM565 860q0 25 20.5 44.5t45.5 19.5q20 0 35.5 -15.5t15.5 -36.5q0 -25 -20.5 -44t-45.5 -19q-23 0 -37 15.5t-14 35.5zM223 582l6 41h719l-6 -41h-719 z" glyph-name="divide" horiz-adv-x="1001" unicode="÷"/><glyph d="M997 492q0 -227 -143 -369.5t-342 -142.5q-164 0 -266 108l-94 -88h-62l129 123q-68 96 -67 237q0 225 144 373t343 148q160 0 264 -115l103 94h59l-137 -127q69 -98 69 -241zM195 367q0 -125 59 -213l612 581q-90 106 -233 107q-170 0 -304 -134t-134 -341zM518 18 q170 0 302 129t132 336q0 125 -59 217l-612 -581q90 -101 237 -101z" glyph-name="oslash" horiz-adv-x="1032" unicode="ø"/><glyph d="M866 332l74 528h41l-121 -860h-31l15 182h-2l-2 -6q-4 -8 -12.5 -19.5t-20.5 -26.5t-28.5 -31.5t-38 -34t-48 -33t-57.5 -26.5t-69 -18t-79 -7q-166 0 -238.5 112.5t-45.5 294.5l65 473h41l-65 -471q-23 -168 37.5 -269.5t214.5 -101.5q160 0 257 104t113 210zM621 1018 l-113 282l65 9l78 -291h-30z" glyph-name="ugrave" horiz-adv-x="1021" unicode="ù"/><glyph d="M866 332l74 528h41l-121 -860h-31l15 182h-2l-2 -6q-4 -8 -12.5 -19.5t-20.5 -26.5t-28.5 -31.5t-38 -34t-48 -33t-57.5 -26.5t-69 -18t-79 -7q-166 0 -238.5 112.5t-45.5 294.5l65 473h41l-65 -471q-23 -168 37.5 -269.5t214.5 -101.5q160 0 257 104t113 210zM840 1300 l-191 -282h-31l160 291z" glyph-name="uacute" horiz-adv-x="1021" unicode="ú"/><glyph d="M866 332l74 528h41l-121 -860h-31l15 182h-2l-2 -6q-4 -8 -12.5 -19.5t-20.5 -26.5t-28.5 -31.5t-38 -34t-48 -33t-57.5 -26.5t-69 -18t-79 -7q-166 0 -238.5 112.5t-45.5 294.5l65 473h41l-65 -471q-23 -168 37.5 -269.5t214.5 -101.5q160 0 257 104t113 210zM766 1018 l-104 186l-156 -186h-45l174 223h59l117 -223h-45z" glyph-name="ucircumflex" horiz-adv-x="1021" unicode="û"/><glyph d="M866 332l74 528h41l-121 -860h-31l15 182h-2l-2 -6q-4 -8 -12.5 -19.5t-20.5 -26.5t-28.5 -31.5t-38 -34t-48 -33t-57.5 -26.5t-69 -18t-79 -7q-166 0 -238.5 112.5t-45.5 294.5l65 473h41l-65 -471q-23 -168 37.5 -269.5t214.5 -101.5q160 0 257 104t113 210zM455 1069 q0 25 20.5 44.5t44.5 19.5q20 0 34.5 -14.5t14.5 -37.5q0 -25 -20.5 -44t-44.5 -19q-20 0 -34.5 14t-14.5 37zM719 1069q0 25 20.5 44.5t44.5 19.5q20 0 35 -14.5t15 -37.5q0 -25 -20.5 -44t-45.5 -19q-20 0 -34.5 14t-14.5 37z" glyph-name="udieresis" horiz-adv-x="1021" unicode="ü"/><glyph d="M981 860l-498 -727l-309 -452h-49l326 466l-293 713h45l258 -635q14 -33 14 -45h4q10 25 25 45l434 635h43zM801 1300l-191 -282h-30l159 291z" glyph-name="yacute" horiz-adv-x="882" unicode="ý"/><glyph d="M240 231h-4l-78 -550h-41l217 1548h41l-82 -584h2q4 10 13 25.5t44 56.5t77 71.5t113.5 56.5t153.5 26q152 0 250 -107.5t98 -279.5q0 -219 -141 -366.5t-332 -147.5q-84 0 -148.5 25.5t-97 63t-54 74.5t-25.5 62zM256 369q0 -164 86 -257.5t229 -93.5q174 0 302 135.5 t128 335.5q0 156 -87 254.5t-222 98.5q-174 0 -305 -130t-131 -343z" glyph-name="thorn" horiz-adv-x="1077" unicode="þ"/><glyph d="M981 860l-498 -727l-309 -452h-49l326 466l-293 713h45l258 -635q14 -33 14 -45h4q10 25 25 45l434 635h43zM416 1071q0 25 20.5 44.5t44.5 19.5q20 0 34.5 -14.5t14.5 -37.5q0 -25 -20.5 -44t-44.5 -19q-20 0 -34.5 14t-14.5 37zM680 1071q0 25 20.5 44.5t44.5 19.5 q20 0 35 -14.5t15 -37.5q0 -25 -20.5 -44t-45.5 -19q-20 0 -34.5 14t-14.5 37z" glyph-name="ydieresis" horiz-adv-x="882" unicode="ÿ"/><glyph d="M166 0l121 860h41l-121 -860h-41z" glyph-name="dotlessi" horiz-adv-x="372" unicode="ı"/><glyph d="M109 516l8 51l170 99l80 563h43l-76 -537l397 228l-8 -54l-395 -225l-84 -600h700l-6 -41h-743l86 614z" glyph-name="Lslash" horiz-adv-x="983" unicode="Ł"/><glyph d="M106 469l9 51l176 101l88 618h41l-84 -592l180 103l-6 -50l-180 -104l-84 -596h-41l80 571z" glyph-name="lslash" horiz-adv-x="444" unicode="ł"/><glyph d="M688 -29q-236 0 -373 155t-137 394q0 309 197.5 522t492.5 213q197 0 327 -110.5t169 -296.5l53 381h813l-4 -41h-770l-78 -547h676l-6 -41h-676l-78 -559h770l-6 -41h-813l47 342q-88 -170 -246.5 -270.5t-357.5 -100.5zM694 12q285 0 463 204t178 482q0 221 -124 368.5 t-349 147.5q-283 0 -462 -204.5t-179 -483.5q0 -219 125 -366.5t348 -147.5z" glyph-name="OE" horiz-adv-x="2152" unicode="Œ"/><glyph d="M1587 106l17 -34q-14 -10 -41 -25.5t-108 -41t-163 -25.5q-135 0 -228 76.5t-116 211.5q-59 -133 -179 -210.5t-261 -77.5q-160 0 -260.5 103t-100.5 277q0 225 144.5 373t343.5 148q133 0 227 -79t121 -214q55 137 168 215t248 78q174 0 257 -113t52 -301l-2 -12h-711 l-4 -31q-25 -184 64.5 -295t242.5 -111q80 0 152 21.5t104 44.5zM514 18q170 0 302 129t132 336q0 162 -92 260.5t-227 98.5q-170 0 -304.5 -134.5t-134.5 -340.5q0 -160 93.5 -254.5t230.5 -94.5zM1395 842q-131 0 -241 -92.5t-148 -253.5h663q16 143 -54 244.5t-220 101.5 z" glyph-name="oe" horiz-adv-x="1728" unicode="œ"/><glyph d="M117 104l30 35q4 -4 13.5 -13t42.5 -30.5t70.5 -38t99 -30t129.5 -13.5q215 0 323.5 85t108.5 231q0 113 -85 173t-245 109q-76 25 -110.5 36t-94 39t-87 54.5t-51 70.5t-23.5 97q0 160 130 253t326 93q123 0 216.5 -27.5t125.5 -53.5l31 -27l-31 -37q-4 4 -12 11 t-39 25.5t-67.5 32t-98 24.5t-131.5 11q-168 0 -287.5 -78.5t-119.5 -217.5q0 -45 19 -82t46 -61.5t78 -49.5t86 -37t100 -33q70 -23 111 -37t96 -42.5t85 -58.5t52.5 -77t22.5 -104q0 -160 -120 -261.5t-361 -101.5q-72 0 -137.5 13.5t-107.5 33t-74 39t-46 31.5zM610 1591 l105 -186l155 186h45l-174 -223h-59l-117 223h45z" glyph-name="Scaron" horiz-adv-x="1028" unicode="Š"/><glyph d="M104 59l23 35q100 -74 268 -74q152 0 232 62.5t80 159.5q0 80 -58.5 114.5t-181.5 61.5q-53 12 -85 20t-74 24.5t-65.5 37t-40 53.5t-16.5 74q0 117 88 185.5t250 68.5q80 0 147.5 -16.5t94.5 -33.5l29 -18l-23 -37q-84 66 -254 66q-139 0 -214 -54.5t-75 -154.5 q0 -35 16.5 -61.5t35 -42t61.5 -30t68.5 -20.5t81.5 -18q125 -27 191.5 -71t66.5 -142q0 -115 -94.5 -190.5t-256.5 -75.5q-90 0 -163.5 19t-102.5 40zM453 1241l104 -186l156 186h45l-174 -223h-60l-116 223h45z" glyph-name="scaron" horiz-adv-x="802" unicode="š"/><glyph d="M672 569l493 660h52l-574 -754l-65 -475h-43l65 475l-360 754h51l311 -660l25 -59h4zM569 1419q0 25 20.5 44.5t45.5 19.5q20 0 34.5 -14.5t14.5 -36.5q0 -25 -20.5 -44.5t-45.5 -19.5q-20 0 -34.5 14t-14.5 37zM834 1419q0 25 20 44.5t45 19.5q20 0 34.5 -14.5 t14.5 -36.5q0 -25 -20.5 -44.5t-44.5 -19.5q-20 0 -34.5 14t-14.5 37z" glyph-name="Ydieresis" horiz-adv-x="1112" unicode="Ÿ"/><glyph d="M68 0l4 35l1018 1153h-848l4 41h909l-4 -35l-1018 -1153h830l-7 -41h-888zM610 1591l105 -186l155 186h45l-174 -223h-59l-117 223h45z" glyph-name="Zcaron" horiz-adv-x="1040" unicode="Ž"/><glyph d="M88 37l735 784h-626l6 39h676l-7 -37l-731 -784h623l-6 -39h-676zM455 1241l104 -186l156 186h45l-174 -223h-60l-116 223h45z" glyph-name="zcaron" horiz-adv-x="839" unicode="ž"/><glyph d="M434 190l219 631h-161l6 39h170l32 92q53 147 148.5 222t218.5 75q37 0 69.5 -6t47.5 -14l12 -6l-18 -35q-41 23 -119 22q-100 0 -186.5 -66.5t-131.5 -191.5l-32 -92h270l-6 -39h-277l-223 -639q-33 -94 -82 -139t-135 -45q-31 0 -59.5 7t-40.5 15l-13 9l25 39 q37 -29 94 -29q66 0 105.5 36.5t66.5 114.5z" glyph-name="florin" horiz-adv-x="1054" unicode="ƒ"/><glyph d="M651 1368l-104 186l-156 -186h-45l174 223h60l116 -223h-45z" glyph-name="circumflex" horiz-adv-x="643" unicode="ˆ"/><glyph d="M420 1591l104 -186l156 186h45l-174 -223h-59l-117 223h45z" glyph-name="caron" horiz-adv-x="665" unicode="ˇ"/><glyph d="M809 1683h43q-27 -152 -113 -233.5t-209 -81.5q-111 0 -173 67.5t-62 194.5q0 16 4 53h43q-4 -37 -4 -53q0 -106 51 -164.5t148 -58.5q106 0 176.5 70.5t95.5 205.5z" glyph-name="breve" horiz-adv-x="714" unicode="˘"/><glyph d="M496 1126q-27 0 -44.5 17.5t-17.5 46.5q0 35 24.5 58.5t57.5 23.5q29 0 47.5 -19.5t18.5 -46.5q0 -33 -25.5 -56.5t-60.5 -23.5z" glyph-name="dotaccent" horiz-adv-x="669" unicode="˙"/><glyph d="M512 1554q66 0 108 -34.5t42 -92.5q0 -74 -57.5 -120.5t-135.5 -46.5q-66 0 -106.5 33.5t-40.5 88.5q0 78 58 125t132 47zM616 1423q0 92 -110 93q-63 0 -102 -35t-39 -95q0 -88 110 -88q61 0 101 35t40 90z" glyph-name="ring" horiz-adv-x="575" unicode="˚"/><glyph d="M281 -209l14 -29q-43 -35 -123 -34q-51 0 -83 27.5t-32 76.5q0 66 51.5 116t100.5 68l51 19l4 -31q-6 -2 -17 -7t-40 -20.5t-50.5 -34t-40 -48t-18.5 -62.5q0 -31 21.5 -49.5t58.5 -18.5q27 0 52.5 7.5t37.5 13.5z" glyph-name="ogonek" horiz-adv-x="393" unicode="˛"/><glyph d="M725 1368q-51 0 -127 56.5t-113 56.5q-31 0 -52 -14.5t-30.5 -30t-21.5 -41.5l-10 -23l-29 4l10 31q37 113 137 113q51 0 126 -56.5t116 -56.5q43 0 64.5 22.5t40.5 63.5l10 23l28 -5l-10 -30q-37 -113 -139 -113z" glyph-name="tilde" horiz-adv-x="839" unicode="˜"/><glyph d="M752 1182l-193 -324h-31l160 324h64zM526 1182l-192 -324h-31l160 324h63z" glyph-name="hungarumlaut" horiz-adv-x="811" unicode="˝"/><glyph d="M176 860h813l-6 -41h-141l-115 -819h-41l115 819h-447l-114 -819h-41l114 819h-143z" glyph-name="pi" horiz-adv-x="925" unicode="π"/><glyph d="M217 569l6 41h641l-6 -41h-641z" glyph-name="endash" horiz-adv-x="937" unicode="–"/><glyph d="M217 569l6 41h1196l-6 -41h-1196z" glyph-name="emdash" horiz-adv-x="1492" unicode="—"/><glyph d="M324 1038q20 0 33.5 -14t13.5 -33q0 -23 -19.5 -41t-42.5 -18q-20 0 -33.5 15.5t-11.5 37.5l2 25q8 82 65.5 140t155.5 79l5 -37q-74 -12 -123.5 -58.5t-51.5 -91.5v-4h7z" glyph-name="quoteleft" horiz-adv-x="407" unicode="‘"/><glyph d="M424 1122q-20 0 -33.5 14.5t-13.5 32.5q0 23 19.5 41.5t41.5 18.5q45 0 45 -53v-7l-2 -18q-10 -82 -67.5 -140.5t-155.5 -78.5l-2 37q74 12 123 58t51 91v4h-6z" glyph-name="quoteright" horiz-adv-x="423" unicode="’"/><glyph d="M205 -16h-6q-23 0 -36 14t-13 36.5t15 39t42 16.5q20 0 34.5 -14.5t14.5 -38.5q0 -92 -58.5 -155.5t-166.5 -88.5l-2 37q72 12 121 57t55 93v4z" glyph-name="quotesinglbase" horiz-adv-x="393" unicode="‚"/><glyph d="M600 1038q20 0 33.5 -14t13.5 -33q0 -23 -19.5 -41t-41.5 -18q-45 0 -45 53v6l2 19q10 82 66.5 140t154.5 79l4 -37q-74 -12 -123 -58.5t-51 -91.5v-4h6zM322 1038q20 0 33.5 -14t13.5 -33q0 -23 -19.5 -41t-42.5 -18q-20 0 -33.5 15.5t-11.5 37.5l2 25q8 82 65.5 140 t155.5 79l4 -37q-74 -12 -123 -58.5t-51 -91.5v-4h7z" glyph-name="quotedblleft" horiz-adv-x="681" unicode="“"/><glyph d="M424 1122q-20 0 -33.5 14.5t-13.5 32.5q0 23 19.5 41.5t41.5 18.5q45 0 45 -53v-7l-2 -18q-10 -82 -67.5 -140.5t-155.5 -78.5l-2 37q74 12 123 58t51 91v4h-6zM702 1122q-20 0 -33.5 14.5t-13.5 32.5q0 23 19.5 41.5t42.5 18.5q45 0 45 -53v-7l-2 -18 q-10 -82 -67.5 -140.5t-155.5 -78.5l-2 37q74 12 123 58t51 91v4h-7z" glyph-name="quotedblright" horiz-adv-x="698" unicode="”"/><glyph d="M205 -16h-6q-23 0 -36 14t-13 36.5t15 39t42 16.5q20 0 34.5 -14.5t14.5 -38.5q0 -92 -58.5 -155.5t-166.5 -88.5l-2 37q72 12 121 57t55 93v4zM481 -16h-6q-23 0 -36 14t-13 36.5t16.5 39t40.5 16.5q20 0 34.5 -14.5t14.5 -38.5q0 -92 -58 -155.5t-167 -88.5l-2 37 q72 12 121 57t55 93v4z" glyph-name="quotedblbase" horiz-adv-x="669" unicode="„"/><glyph d="M203 905l6 41h299l49 354h43l-49 -354h301l-6 -41h-301l-94 -604h-23l74 604h-299z" glyph-name="dagger" horiz-adv-x="794" unicode="†"/><glyph d="M238 922l4 41h297l57 405h43l-57 -405h301l-4 -41h-304l-38 -207l-21 -213h303l-6 -41h-301l-66 -461h-43l66 461h-297l6 41h297l39 213l21 207h-297z" glyph-name="daggerdbl" horiz-adv-x="854" unicode="‡"/><glyph d="M369 563q39 0 65.5 -26.5t26.5 -67.5q0 -49 -37 -84t-86 -35q-39 0 -65.5 26.5t-26.5 67.5q0 49 37 84t86 35z" glyph-name="bullet" horiz-adv-x="577" unicode="•"/><glyph d="M141 31q0 23 19.5 41t42.5 18q20 0 33.5 -14.5t13.5 -32.5q0 -23 -19.5 -41t-42.5 -18q-20 0 -33.5 14.5t-13.5 32.5zM489 31q0 23 19.5 41t42.5 18q20 0 33.5 -14.5t13.5 -32.5q0 -23 -19.5 -41t-41.5 -18q-20 0 -34 14.5t-14 32.5zM838 31q0 23 19.5 41t41.5 18 q20 0 33.5 -14.5t13.5 -32.5q0 -23 -19.5 -41t-41.5 -18q-20 0 -33.5 14.5t-13.5 32.5z" glyph-name="ellipsis" horiz-adv-x="1077" unicode="…"/><glyph d="M504 1255q98 0 151.5 -70.5t53.5 -178.5q0 -141 -80 -247t-209 -106q-96 0 -149.5 73t-53.5 179q0 141 80 245.5t207 104.5zM426 694q106 0 172 92.5t66 212.5q0 94 -43 154.5t-123 60.5q-104 0 -170 -91t-66 -214q0 -92 42 -153.5t122 -61.5zM1300 1229h54l-1147 -1229 h-53zM1065 586q98 0 151.5 -71t53.5 -179q0 -141 -80 -246.5t-209 -105.5q-96 0 -149.5 72.5t-53.5 179.5q0 141 80 245.5t207 104.5zM1059 545q-104 0 -170 -91.5t-66 -213.5q0 -92 42 -153.5t122 -61.5q106 0 173 92t67 213q0 94 -43 154.5t-125 60.5zM1686 545 q-104 0 -170 -91.5t-66 -213.5q0 -92 42 -153.5t122 -61.5q106 0 172.5 92t66.5 213q0 94 -42.5 154.5t-124.5 60.5zM1692 586q98 0 151 -71t53 -179q0 -141 -79.5 -246.5t-208.5 -105.5q-96 0 -149.5 72.5t-53.5 179.5q0 141 80 245.5t207 104.5z" glyph-name="perthousand" horiz-adv-x="1918" unicode="‰"/><glyph d="M162 410l4 34l252 320h43l-2 -14l-250 -318l-2 -6l162 -322l-2 -14h-43z" glyph-name="guilsinglleft" horiz-adv-x="477" unicode="‹"/><glyph d="M434 444l-4 -34l-252 -320h-43l2 14l252 322v6l-162 318l2 14h43z" glyph-name="guilsinglright" horiz-adv-x="477" unicode="›"/><glyph d="M51 0h-51l1145 1229h53z" glyph-name="fraction" horiz-adv-x="1026" unicode="⁄"/><glyph d="M901 492l-6 -41h-479q12 -184 111.5 -300t279.5 -116q88 0 167 32.5t111 65.5l35 33l25 -29q-4 -6 -13.5 -15t-42 -34t-69.5 -44t-95.5 -34.5t-121.5 -15.5q-201 0 -310.5 127t-121.5 330h-211l6 41h203v10q0 125 26 231h-196l6 41h201q61 207 208.5 335t362.5 128 q63 0 117.5 -14.5t87 -35t56.5 -42t34 -35.5l10 -14l-35 -31q-4 6 -10 14t-29.5 31t-53.5 40t-79 31.5t-104 14.5q-195 0 -328 -116.5t-192 -305.5h489l-6 -41h-494q-27 -104 -26 -227v-14h487z" glyph-name="Euro" horiz-adv-x="1241" unicode="€"/><glyph d="M817 575h-45l92 654h62l180 -371l287 371h61l-92 -654h-45l84 599l-291 -379h-25l-184 379zM723 1229l-6 -41h-219l-86 -613h-43l86 613h-217l6 41h479z" glyph-name="trademark" horiz-adv-x="1439" unicode="™"/><glyph d="M111 0l6 41h372q-135 55 -213.5 194.5t-78.5 305.5q0 178 82.5 339.5t248.5 268t379 106.5q256 0 394.5 -160.5t138.5 -394.5q0 -215 -130 -401t-327 -258h375l-6 -41h-549l6 41q152 0 289 95t219 247t82 313q0 219 -129 368.5t-369 149.5q-297 0 -480 -202.5 t-183 -464.5q0 -203 120.5 -354.5t309.5 -151.5l-6 -41h-551z" glyph-name="uni2126" horiz-adv-x="1462" unicode="Ω"/><glyph d="M502 -20q-154 0 -252 107.5t-98 279.5q0 223 138 368.5t339 145.5q139 0 235 -90l4 4q-20 27 -32 53l-306 635l2 8h41l312 -633q94 -190 94 -366q0 -217 -138 -364.5t-339 -147.5zM934 475q0 168 -85 267.5t-228 99.5q-172 0 -299 -135.5t-127 -335.5q0 -156 87 -254.5 t222 -98.5q176 0 303 130t127 327z" glyph-name="partialdiff" horiz-adv-x="1013" unicode="∂"/><glyph d="M57 0l2 18l715 1211h17l376 -1211l-2 -18h-1108zM1110 41l-338 1102h-6l-645 -1102h989z" glyph-name="uni2206" horiz-adv-x="1222" unicode="∆"/><glyph d="M1233 1229l-172 -1229h-43l168 1188h-824l-167 -1188h-43l172 1229h909z" glyph-name="product" horiz-adv-x="1212" unicode="∏"/><glyph d="M254 1229h723l-4 -41h-670l367 -565l-2 -15l-527 -567h670l-6 -41h-723l6 41l530 571v4l-368 572z" glyph-name="summation" horiz-adv-x="905" unicode="∑"/><glyph d="M225 592l6 41h719l-6 -41h-719z" glyph-name="minus" horiz-adv-x="1001" unicode="−"/><glyph d="M360 -393l-274 817h49l238 -723q8 -25 8 -39h4q0 14 16 39l932 1528h51l-997 -1622h-27z" glyph-name="radical" horiz-adv-x="1206" unicode="√"/><glyph d="M477 248q-135 0 -211 83t-76 208q0 158 105.5 272.5t275.5 114.5q123 0 191.5 -78t114.5 -217q84 137 174 216t213 79q129 0 208.5 -80t79.5 -213q0 -156 -105.5 -270.5t-277.5 -114.5q-123 0 -192.5 77.5t-112.5 213.5q-86 -137 -175 -214t-212 -77zM1257.5 885 q-112.5 0 -197.5 -80t-167 -219q45 -137 108.5 -217t174.5 -80q152 0 243.5 100t91.5 238q0 117 -70.5 187.5t-183 70.5zM483 289q113 0 199 80t166 217q-43 139 -105.5 219t-177.5 80q-150 0 -242 -100.5t-92 -239.5q0 -111 65.5 -183.5t186.5 -72.5z" glyph-name="infinity" horiz-adv-x="1579" unicode="∞"/><glyph d="M246 -33l164 1161q14 106 58 153.5t128 47.5q29 0 55.5 -9t38.5 -17l12 -9l-22 -34q-41 31 -90 30q-117 0 -139 -162l-164 -1161q-16 -106 -58.5 -153t-124.5 -47q-29 0 -55 8t-41 16l-12 10l22 35q41 -31 91 -31q117 0 137 162z" glyph-name="integral" horiz-adv-x="546" unicode="∫"/><glyph d="M590 397q-53 0 -129 56.5t-113 56.5q-43 0 -64.5 -22.5t-39.5 -63.5l-11 -23l-28 5l10 30q41 113 139 113q51 0 126 -56.5t116 -56.5q70 0 102 86l9 23l30 -4l-8 -31q-37 -113 -139 -113zM643 774q-53 0 -129 56.5t-113 56.5q-43 0 -64.5 -22.5t-39.5 -63.5l-10 -23 l-29 4l10 31q37 113 140 113q51 0 125.5 -56.5t115.5 -56.5q70 0 103 86l8 23l33 -4l-11 -31q-37 -113 -139 -113z" glyph-name="approxequal" horiz-adv-x="802" unicode="≈"/><glyph d="M240 770l6 41h368l144 285l43 -17l-135 -268h217l-6 -41h-232l-176 -350h358l-6 -41h-375l-151 -303l-43 16l145 287h-213l6 41h228l176 350h-354z" glyph-name="notequal" horiz-adv-x="899" unicode="≠"/><glyph d="M651 477l-33 -28l-317 342l2 18l416 358l24 -28l-389 -338zM721 274l-6 -41h-539l6 41h539z" glyph-name="lessequal" horiz-adv-x="813" unicode="≤"/><glyph d="M319 449l-24 28l387 324l-295 338l33 28l313 -358l-2 -18zM164 233l6 41h537l-7 -41h-536z" glyph-name="greaterequal" horiz-adv-x="808" unicode="≥"/><glyph d="M594 1229l233 -615l-405 -614h-21l-233 614l405 615h21zM221 612l197 -526h12l342 526l-194 531h-13z" glyph-name="lozenge" horiz-adv-x="823" unicode="◊"/></font>
</defs>
</svg>
